<?xml version="1.0" encoding="UTF-8"?>
<!DOCTYPE svg PUBLIC "-//W3C//DTD SVG 1.1//EN" "http://www.w3.org/Graphics/SVG/1.1/DTD/svg11.dtd">
<!-- Creator: CorelDRAW X7 -->
<svg xmlns="http://www.w3.org/2000/svg" xml:space="preserve" width="2.51954in" height="1.49763in" version="1.1" style="shape-rendering:geometricPrecision; text-rendering:geometricPrecision; image-rendering:optimizeQuality; fill-rule:evenodd; clip-rule:evenodd"
viewBox="0 0 1288 766"
 xmlns:xlink="http://www.w3.org/1999/xlink">
 <defs>
  <style type="text/css">
   <![CDATA[
    .str0 {stroke:white;stroke-width:10.2272}
    .fil2 {fill:none}
    .fil3 {fill:#00B050}
    .fil1 {fill:#92D050}
    .fil0 {fill:#F8BB32}
    .fil9 {fill:#E4E4E5;fill-rule:nonzero}
    .fil8 {fill:#504C4B;fill-rule:nonzero}
    .fil6 {fill:#00B050;fill-rule:nonzero}
    .fil5 {fill:#92D050;fill-rule:nonzero}
    .fil4 {fill:#F8BB32;fill-rule:nonzero}
    .fil7 {fill:white;fill-rule:nonzero}
   ]]>
  </style>
 </defs>
 <g id="Layer_x0020_1">
  <metadata id="CorelCorpID_0Corel-Layer"/>
  <g id="_2851350153696">
   <path class="fil0 str0" d="M329 138c-185,107 -310,308 -310,538l292 0c0,-122 66,-228 165,-285l-147 -253z"/>
   <path class="fil1 str0" d="M804 391l146 -253c-91,-53 -197,-83 -310,-83 -113,0 -219,30 -311,83l0 0 147 253c48,-28 104,-44 164,-44 60,0 116,16 164,44z"/>
   <polygon class="fil2 str0" points="804,391 950,138 "/>
   <path class="fil3 str0" d="M950 138c186,107 311,308 311,538l-293 0c0,-122 -66,-228 -164,-285l146 -253z"/>
   <path class="fil4" d="M28 458l-15 1c-1,0 -1,0 -2,0 -1,0 -2,0 -3,-1 1,1 2,2 2,2 1,1 2,1 2,1l11 9 5 -12zm19 -8l-2 6c-1,0 -1,1 -1,1 -1,0 -1,1 -2,1l-9 0 -5 16 7 6c0,0 1,0 1,1 0,0 0,1 0,2l-2 5 -34 -28 2 -7 45 -3zm-25 -49l32 31 -2 7 -45 -1 3 -5c0,-1 0,-1 1,-2 0,0 1,0 1,0l27 1c1,0 2,0 3,0 1,0 2,0 3,0 -1,-1 -2,-1 -2,-2 -1,0 -2,-1 -3,-2l-19 -18c-1,0 -1,-1 -1,-1 0,-1 0,-1 0,-2l2 -6zm12 -10l11 5 6 -13 5 2 -6 13 10 5 8 -16 6 3 -12 23 -36 -18 11 -23 5 2 -8 17zm30 -29c1,-1 1,-2 1,-4 1,-1 1,-2 0,-3 0,-1 0,-1 -1,-2 0,-1 -1,-1 -2,-2 -2,-1 -4,-1 -5,-1 -2,1 -3,3 -5,5l-2 4 12 7 2 -4zm28 -6l-3 6c-1,1 -2,1 -3,1l-15 1c-1,0 -2,0 -2,1 0,0 -1,0 -1,1l-2 3 14 8 -3 6 -36 -20 6 -11c1,-2 3,-4 4,-6 2,-1 3,-2 5,-3 1,0 3,0 5,0 1,0 3,0 4,1 1,1 2,2 3,3 1,1 2,2 2,3 1,1 1,2 1,4 0,1 0,3 0,4 0,0 1,-1 1,-1 1,0 2,0 2,0l18 -1zm1 -31l-14 -3c-1,0 -2,0 -3,0 -1,0 -1,-1 -2,-1 0,1 1,1 1,2 1,1 2,1 2,2l9 11 7 -11zm20 -3l-3 5c0,0 -1,1 -1,1 -1,0 -1,0 -2,0l-9 -2 -8 15 5 7c0,0 1,1 1,1 0,1 0,1 -1,2l-3 5 -26 -35 4 -7 43 8zm5 -42l13 10c1,2 0,5 -1,7 0,2 -2,4 -3,7 -2,2 -4,5 -7,6 -2,2 -5,3 -7,3 -3,1 -5,1 -8,0 -3,0 -5,-2 -8,-3 -2,-2 -5,-4 -6,-7 -2,-2 -3,-4 -3,-7 0,-2 0,-5 0,-8 1,-3 2,-5 4,-8 1,-1 2,-3 3,-4 1,-1 2,-1 3,-2 2,-1 3,-2 4,-2 1,0 2,-1 3,-1l2 4c0,0 0,1 0,1 0,1 -1,1 -2,2 0,0 -1,0 -2,1 0,0 -1,0 -1,1 -1,0 -2,1 -3,1 0,1 -1,2 -2,3 -1,2 -2,3 -2,5 0,2 0,4 0,5 0,2 1,3 2,5 1,2 3,3 5,4 1,2 3,3 5,3 2,1 4,1 6,0 1,0 3,0 5,-2 1,-1 3,-2 4,-4 1,-1 1,-2 2,-3 0,-1 0,-3 1,-4l-6 -4 -3 4c-1,0 -1,1 -1,1 -1,0 -1,0 -1,0l-4 -3 8 -11zm-1 -22l9 7 9 -11 5 4 -9 11 9 7 11 -14 5 4 -16 20 -32 -26 16 -20 5 4 -12 14z"/>
   <path class="fil5" d="M588 22l2 17c-2,1 -4,3 -7,4 -2,1 -4,1 -7,2 -3,0 -6,0 -9,-1 -3,-1 -5,-2 -8,-3 -2,-2 -3,-4 -5,-7 -1,-2 -2,-5 -2,-8 -1,-3 0,-6 0,-8 1,-3 2,-5 4,-7 1,-2 4,-4 6,-5 3,-2 5,-3 9,-3 1,0 3,0 4,0 2,0 3,0 4,1 2,0 3,0 4,1 1,0 2,1 3,2l-2 3c0,1 0,1 -1,2 0,0 -1,0 -2,-1 0,0 -1,0 -2,-1 0,0 -1,0 -2,0 -1,0 -2,-1 -3,-1 -1,0 -2,0 -3,1 -2,0 -4,0 -5,1 -2,1 -3,2 -4,4 -1,1 -2,3 -2,4 -1,2 -1,4 0,6 0,3 0,5 1,7 1,1 2,3 4,4 1,1 2,2 4,2 2,1 4,1 6,1 2,0 3,-1 4,-1 1,-1 2,-1 3,-2l0 -7 -6 0c0,0 0,0 -1,0 0,0 0,-1 0,-1l-1 -4 14 -2zm48 -2c0,3 0,6 -1,9 -1,2 -3,4 -4,6 -2,2 -4,4 -7,5 -2,1 -5,2 -8,2 -3,0 -6,0 -9,-1 -2,-1 -4,-3 -6,-4 -2,-2 -4,-4 -5,-7 -1,-2 -2,-5 -2,-8 0,-3 0,-6 1,-9 1,-2 3,-4 4,-6 2,-2 4,-4 7,-5 2,-1 5,-2 8,-2 2,0 4,0 6,1 2,0 4,1 5,1 2,1 3,2 4,3 2,2 3,3 4,4 1,2 1,4 2,5 0,2 1,4 1,6zm-8 0c0,-2 0,-4 -1,-6 -1,-1 -2,-3 -3,-4 -1,-1 -2,-2 -4,-3 -2,0 -4,-1 -6,0 -2,0 -3,0 -5,1 -1,0 -3,1 -4,3 -1,1 -2,3 -2,4 -1,2 -1,4 -1,7 0,2 1,4 1,6 1,1 2,3 3,4 1,1 3,2 4,3 2,0 4,1 6,0 2,0 3,0 5,-1 2,0 3,-1 4,-3 1,-1 2,-3 2,-4 1,-2 1,-4 1,-7zm55 2c0,3 0,6 -1,8 -2,3 -3,5 -5,7 -2,1 -4,3 -7,4 -2,1 -5,1 -8,1 -3,0 -6,-1 -9,-2 -2,-1 -4,-3 -6,-5 -2,-2 -3,-4 -4,-6 -1,-3 -1,-6 -1,-9 0,-3 1,-6 2,-8 1,-3 2,-5 4,-7 2,-1 4,-3 7,-4 3,-1 5,-1 8,-1 3,0 4,0 6,1 2,1 4,1 5,2 2,1 3,2 4,4 1,1 2,2 3,4 1,2 2,3 2,5 0,2 0,4 0,6zm-7 0c0,-3 -1,-5 -1,-7 -1,-1 -1,-3 -2,-4 -2,-2 -3,-3 -4,-3 -2,-1 -4,-1 -6,-1 -2,-1 -4,0 -5,0 -2,1 -3,2 -4,3 -2,1 -3,3 -3,4 -1,2 -1,4 -1,6 0,3 0,5 0,7 1,1 2,3 3,4 1,1 2,3 4,3 1,1 3,1 5,1 2,1 4,0 5,0 2,-1 3,-2 5,-3 1,-1 2,-3 2,-4 1,-2 1,-4 2,-6zm52 4c-1,3 -1,6 -3,8 -1,3 -3,5 -5,6 -2,2 -4,3 -7,4 -2,1 -5,1 -8,0l-16 -1 5 -41 15 2c3,0 6,1 9,2 2,1 4,3 6,5 1,2 2,4 3,7 1,2 1,5 1,8zm-8 -1c0,-2 0,-4 0,-6 -1,-2 -1,-3 -2,-5 -1,-1 -3,-2 -4,-3 -2,-1 -3,-1 -5,-1l-8 -1 -3 29 7 0c2,1 4,0 6,0 2,-1 3,-1 4,-2 2,-2 3,-3 3,-5 1,-1 2,-3 2,-6z"/>
   <path class="fil6" d="M1132 224l-9 8 10 10 -4 4 -10 -10 -9 8 13 13 -5 4 -17 -19 30 -28 18 19 -5 5 -12 -14zm12 68l-5 -6c0,0 -1,0 -1,-1 0,0 0,-1 1,-1l6 -17c-1,0 -1,0 -1,0l-17 2c-1,0 -1,0 -2,0 0,0 0,0 -1,-1l-4 -5 25 -3 7 -22 5 5c0,1 0,1 1,1 0,1 0,1 -1,1l-5 17c0,0 1,0 1,0l16 -2c0,0 1,0 1,0 0,0 1,0 1,1l4 5 -23 2 -8 24zm26 20c0,1 0,1 0,1l-1 5c-3,0 -5,-1 -7,-2 -3,-2 -5,-4 -7,-7 -1,-2 -3,-5 -3,-7 -1,-3 -1,-5 0,-8 0,-2 1,-5 3,-7 1,-2 4,-4 6,-6 3,-2 5,-3 8,-4 2,0 5,0 8,0 2,0 5,1 7,3 2,1 4,3 6,6 2,2 3,4 3,7 1,2 1,5 0,7l-4 0c0,0 0,0 -1,0 0,0 0,-1 0,-1 -1,0 -1,0 -1,-1 0,0 0,0 0,-1 0,0 0,-1 0,-1 0,-1 0,-2 0,-2 0,-1 -1,-2 -1,-2 0,-1 -1,-2 -1,-3 -2,-1 -3,-2 -4,-3 -2,-1 -3,-2 -5,-2 -1,0 -3,0 -5,1 -2,0 -4,1 -6,2 -1,2 -3,3 -4,5 -1,1 -2,3 -2,5 -1,1 -1,3 0,4 0,2 1,4 2,5 0,1 1,2 2,2 0,1 1,1 1,2 1,0 2,1 2,1 1,0 2,0 3,1 0,0 0,0 0,0 0,0 1,0 1,0zm31 1l-10 6 8 12 -5 3 -8 -12 -10 7 10 15 -5 3 -14 -21 34 -23 15 22 -5 3 -10 -15zm1 58l-6 3 -11 -21 35 -20 4 7 -30 17 8 14zm14 26l-6 3 -11 -21 36 -19 4 7 -31 16 8 14zm31 1l-10 5 6 13 -6 2 -5 -13 -11 5 7 17 -5 2 -11 -24 38 -16 10 23 -5 3 -8 -17zm29 55l-38 15 -2 -4c0,-1 0,-1 0,-2 0,0 0,0 1,-1l18 -30c-1,1 -2,1 -3,2l-24 8 -2 -6 38 -14 2 4c0,0 0,0 0,1 0,0 0,0 0,0 0,0 0,1 0,1 0,0 0,0 -1,1l-18 29c1,0 1,0 2,-1 0,0 1,0 1,0l24 -9 2 6zm6 41l-3 -12 -34 10 -2 -7 34 -10 -4 -12 6 -2 9 31 -6 2z"/>
   <path class="fil7" d="M115 447c2,1 5,1 7,2 3,0 6,1 8,0 0,0 1,0 1,0 0,1 0,1 0,1 0,0 1,0 1,0 0,0 0,0 0,1l0 2c-2,0 -3,0 -5,0 -2,0 -3,0 -5,0 -1,0 -3,0 -4,-1 -2,0 -3,-1 -5,-2 -1,0 -3,-1 -4,-2 -2,-1 -3,-2 -4,-3 -1,-1 -2,-2 -3,-3 -2,-1 -3,-3 -4,-4l3 -2c0,0 0,0 0,0 0,0 0,0 0,0 1,0 1,0 1,0 0,0 0,1 0,1 2,2 4,4 6,5 2,2 4,3 7,5zm10 -26c2,1 4,2 5,4 1,1 2,2 3,4 1,1 1,2 1,4 0,1 0,2 -1,4 -1,1 -1,2 -2,3 -2,1 -3,2 -4,2 -2,0 -3,0 -5,0 -2,0 -4,-1 -6,-2 -3,-1 -4,-2 -6,-4 -1,-1 -2,-2 -3,-4 -1,-1 -1,-2 -1,-4 0,-1 0,-2 1,-4 1,-1 2,-2 3,-3 1,-1 2,-2 3,-2 2,0 4,0 5,0 2,0 4,1 7,2zm-3 5c-1,-1 -3,-2 -4,-2 -2,0 -3,-1 -4,0 -1,0 -1,0 -2,0 -1,1 -1,1 -1,2 -1,1 -1,1 -1,2 0,1 0,1 1,2 0,1 1,2 2,3 1,1 3,1 5,2 2,1 3,2 5,2 1,0 2,1 3,0 1,0 2,0 2,0 1,-1 1,-1 1,-2 1,-1 1,-1 1,-2 0,-1 0,-1 -1,-2 0,-1 -1,-2 -2,-3 -1,-1 -3,-1 -5,-2zm4 -8l5 -9 4 2 -5 9 -4 -2zm8 -22l0 1c0,0 0,-1 0,-2 1,0 1,-1 1,-1 1,-1 1,-2 2,-3 1,-1 2,-1 3,-1 1,-1 2,-1 3,-1 1,0 2,1 4,1 1,1 2,2 3,3 0,1 1,2 1,3 1,1 1,2 1,4 -1,1 -1,2 -2,4 -1,1 -1,2 -2,3 -1,1 -3,1 -4,2 -1,0 -2,0 -3,0 -2,0 -3,-1 -4,-2 -1,0 -2,-1 -3,-2 -1,-1 -2,-3 -3,-5l-5 -10c0,0 0,-1 0,-1 0,-1 0,-1 1,-2l2 -3 5 12zm13 6c0,-1 0,-2 0,-2 0,-1 0,-2 0,-2 0,-1 0,-1 -1,-2 0,0 -1,-1 -1,-1 -1,-1 -2,-1 -2,-1 -1,0 -2,0 -2,0 -1,0 -2,1 -2,1 -1,1 -1,1 -1,2 -1,0 -1,1 -1,2 0,0 0,1 0,2 0,0 1,1 1,1 0,1 1,1 2,2 0,0 1,0 2,0 0,1 1,1 2,0 0,0 1,0 1,0 1,-1 1,-1 2,-2zm7 -34c3,1 4,2 6,4 1,1 2,3 2,4 1,1 1,3 1,4 0,2 -1,3 -2,4 0,1 -1,2 -2,3 -2,1 -3,1 -4,2 -2,0 -4,0 -5,-1 -2,0 -4,-1 -6,-3 -2,-1 -4,-2 -5,-4 -2,-1 -3,-2 -3,-4 -1,-1 -1,-3 -1,-4 1,-1 1,-3 2,-4 1,-1 1,-2 3,-3 1,-1 2,-1 4,-1 1,-1 3,0 5,0 1,1 3,1 5,3zm-2 4c-2,-1 -3,-2 -5,-2 -1,-1 -2,-1 -3,-1 -1,0 -2,0 -2,1 -1,0 -1,1 -2,1 0,1 0,1 0,2 -1,1 0,2 0,2 1,1 1,2 2,3 1,1 3,2 4,3 2,1 4,2 5,2 1,1 2,1 3,1 1,0 2,0 3,0 0,-1 1,-1 1,-2 0,-1 1,-1 1,-2 0,-1 0,-1 -1,-2 0,-1 -1,-2 -2,-3 -1,-1 -2,-2 -4,-3zm6 -22c0,1 1,1 2,2 0,1 0,2 1,3 0,0 0,1 0,2 -1,1 -1,2 -1,2 -1,1 -2,2 -2,2 -1,1 -2,1 -3,1 0,0 -1,0 -2,0 -1,0 -2,-1 -3,-1 -1,-1 -1,-2 -2,-2 -1,-1 -1,-2 -1,-3 0,-1 0,-1 0,-2 0,-1 0,-2 1,-3 1,0 1,-1 2,-2 1,0 1,0 2,0 1,-1 2,-1 3,0 1,0 2,0 3,1zm-3 3c0,0 -1,-1 -1,-1 -1,0 -1,0 -2,0 0,0 0,0 -1,0 0,1 0,1 0,1 -1,0 -1,1 -1,1 0,0 0,1 0,1 0,1 1,1 1,1 0,1 1,1 1,2 1,0 1,0 2,1 0,0 1,0 1,0 1,0 1,0 1,-1 1,0 1,0 1,0 0,-1 0,-1 0,-1 1,-1 1,-1 0,-2 0,0 0,0 0,-1 0,0 -1,-1 -2,-1zm3 -14c0,0 0,-1 0,-1 0,0 0,-1 0,-1l2 -3 11 33c0,0 0,1 0,1 0,0 0,0 0,1l-2 3 -11 -33zm21 6c1,1 1,2 2,2 0,1 1,2 1,3 0,1 0,1 0,2 0,1 -1,2 -1,3 -1,0 -1,1 -2,1 -1,1 -2,1 -2,1 -1,1 -2,0 -3,0 -1,0 -2,0 -3,-1 -1,-1 -1,-1 -2,-2 0,-1 -1,-2 -1,-2 0,-1 0,-2 0,-3 0,-1 1,-2 1,-2 1,-1 1,-2 2,-2 1,-1 2,-1 2,-1 1,0 2,0 3,0 1,0 2,1 3,1zm-2 3c-1,0 -2,0 -2,-1 -1,0 -1,0 -1,0 -1,0 -1,0 -1,1 -1,0 -1,0 -1,0 0,1 -1,1 -1,1 0,1 0,1 0,2 1,0 1,0 1,1 0,0 1,1 2,1 0,0 1,1 1,1 1,0 1,0 1,0 1,0 1,0 1,0 1,-1 1,-1 1,-1 0,0 1,-1 1,-1 0,-1 0,-1 0,-1 0,-1 -1,-1 -1,-1 0,-1 -1,-1 -1,-2zm1 -12c-2,-1 -4,-3 -7,-4 -2,-1 -4,-1 -7,-2 0,0 -1,0 -1,0 0,0 0,0 0,0 0,-1 0,-1 0,-1 0,0 0,0 0,0l0 -3c2,0 3,1 5,1 2,0 3,1 5,1 1,1 3,2 4,2 1,1 3,2 4,3 1,1 2,2 4,3 1,1 2,2 3,4 1,1 1,2 2,4 1,1 2,3 2,4l-2 1c0,0 0,0 0,0 -1,0 -1,0 -1,0 0,0 0,0 0,0 -1,0 -1,0 -1,-1 -1,-2 -2,-4 -4,-6 -2,-2 -3,-4 -6,-6z"/>
   <path class="fil7" d="M549 110c0,3 1,5 2,8 1,2 2,5 4,7 0,0 0,0 0,0 0,1 0,1 0,1 0,0 0,0 0,0 0,0 0,1 0,1l-2 1c-2,-1 -3,-2 -4,-4 0,-1 -1,-3 -2,-4 -1,-1 -1,-3 -1,-4 -1,-2 -1,-3 -2,-5 0,-2 0,-3 0,-5 0,-1 0,-3 0,-5 0,-1 1,-3 1,-4 1,-2 1,-3 2,-5l2 1c0,0 1,0 1,0 0,0 0,0 0,0 0,1 0,1 0,1 0,0 0,0 0,1 -1,2 -1,5 -2,7 0,3 0,6 1,8zm15 -8l-1 1c0,0 1,0 1,0 1,-1 2,-1 2,-1 2,0 3,0 4,0 1,1 2,1 2,2 1,0 2,1 3,2 0,1 1,2 1,4 0,1 0,2 -1,3 0,2 -1,3 -1,4 -1,1 -2,1 -3,2 -1,1 -3,1 -4,1 -2,0 -3,0 -4,0 -2,0 -3,-1 -4,-2 -1,0 -1,-1 -2,-3 0,-1 -1,-2 -1,-4 0,-1 0,-2 0,-4 1,-1 1,-3 2,-4l6 -10c0,0 1,-1 1,-1 0,0 1,0 1,0l5 -1 -7 11zm2 14c1,0 2,0 2,0 1,-1 1,-1 2,-2 0,0 1,-1 1,-1 0,-1 0,-2 0,-2 0,-1 0,-2 -1,-3 0,0 0,-1 -1,-1 0,0 -1,-1 -2,-1 0,0 -1,0 -2,0 -1,0 -1,0 -2,1 0,0 -1,0 -1,1 -1,0 -1,1 -1,2 0,0 0,1 0,2 0,0 0,1 0,2 1,0 1,1 1,1 1,1 1,1 2,1 1,0 1,0 2,0zm32 -3l0 4 -15 1 -1 -3 6 -1 -2 -16c0,-1 0,-2 0,-2l-4 4c0,0 0,0 0,0 -1,0 -1,0 -1,0 0,0 0,0 0,0 -1,0 -1,0 -1,0l-2 -2 8 -8 4 -1 3 25 5 -1zm16 -18c0,1 0,2 0,2 -1,1 -1,2 -2,3 0,0 -1,1 -2,1 0,1 -1,1 -2,1 -1,0 -2,0 -3,-1 -1,0 -1,0 -2,-1 0,0 -1,-1 -1,-2 -1,-1 -1,-2 -1,-3 0,-1 0,-2 0,-3 1,-1 1,-1 2,-2 0,-1 1,-1 2,-2 0,0 1,0 2,0 1,0 2,0 3,0 1,0 1,1 2,1 1,1 1,2 1,3 1,1 1,1 1,3zm-4 0c0,-1 0,-2 0,-2 0,-1 0,-1 -1,-1 0,-1 0,-1 0,-1 -1,0 -1,0 -2,0 0,0 0,0 -1,0 0,0 0,1 -1,1 0,0 0,1 0,1 0,1 0,1 0,2 0,1 0,1 0,2 0,0 1,1 1,1 0,0 0,0 1,1 0,0 0,0 1,0 0,0 1,0 1,-1 0,0 0,0 1,0 0,-1 0,-1 0,-1 0,-1 0,-2 0,-2zm13 -7c0,0 1,0 1,0 0,-1 0,-1 1,-1l3 0 -19 29c-1,0 -1,0 -1,0 0,0 -1,0 -1,0l-3 0 19 -28zm8 21c0,1 0,2 -1,3 0,0 0,1 -1,2 -1,0 -1,1 -2,1 -1,1 -2,1 -2,1 -1,0 -2,0 -3,0 -1,-1 -2,-1 -2,-2 -1,0 -1,-1 -2,-2 0,-1 0,-2 0,-3 0,-1 0,-2 0,-3 0,-1 1,-1 1,-2 1,-1 2,-1 2,-2 1,0 2,0 3,0 1,0 2,0 2,0 1,0 2,1 3,1 0,1 1,2 1,3 0,1 1,2 1,3zm-4 0c0,-1 0,-2 0,-2 0,-1 -1,-1 -1,-1 0,-1 -1,-1 -1,-1 0,0 -1,0 -1,0 0,0 -1,0 -1,0 0,0 -1,1 -1,1 0,0 0,1 0,1 -1,1 -1,1 -1,2 0,1 1,1 1,2 0,0 0,1 0,1 1,0 1,1 1,1 1,0 1,0 1,0 1,0 1,0 1,0 1,-1 1,-1 1,-1 1,0 1,-1 1,-1 0,-1 0,-1 0,-2zm8 -7l10 -1 0 4 -10 1 0 -4zm24 10c0,0 1,0 2,0 0,0 1,-1 1,-1 1,-1 1,-1 1,-2 0,0 0,-1 0,-1 1,-2 0,-3 -1,-4 -1,-1 -2,-1 -3,-1 -2,0 -3,0 -4,1 -1,1 -1,2 -1,3 0,1 0,2 0,2 0,1 1,1 1,2 0,0 1,0 1,1 1,0 2,0 3,0zm0 -21c-1,0 -1,0 -2,0 0,0 -1,0 -1,1 0,0 -1,0 -1,1 0,0 0,1 0,1 0,1 0,2 0,2 0,1 0,1 1,2 0,0 0,0 1,1 0,0 1,0 2,0 1,0 1,0 2,0 0,-1 1,-1 1,-1 1,-1 1,-1 1,-2 0,0 0,-1 0,-1 0,-1 0,-1 0,-2 0,0 0,-1 -1,-1 0,-1 -1,-1 -1,-1 -1,0 -1,0 -2,0zm5 10c1,0 3,1 3,3 1,1 2,2 1,4 0,1 0,2 0,3 -1,1 -2,2 -2,3 -1,0 -2,1 -4,1 -1,1 -2,1 -4,1 -1,0 -2,-1 -4,-1 -1,0 -2,-1 -3,-2 0,0 -1,-1 -2,-2 0,-1 0,-2 0,-4 0,-1 0,-3 1,-4 1,-1 2,-2 4,-2 -1,-1 -2,-2 -3,-3 -1,-1 -1,-2 -1,-4 0,-1 0,-2 1,-3 0,-1 1,-1 2,-2 1,-1 2,-1 3,-2 1,0 2,0 3,0 2,0 3,0 4,1 1,0 2,1 3,1 0,1 1,2 1,3 1,1 1,2 1,3 0,1 -1,2 -1,4 -1,1 -2,1 -3,2zm28 2c0,3 0,5 -1,7 -1,1 -1,3 -2,4 -1,1 -3,2 -4,2 -1,1 -3,1 -4,1 -1,0 -3,0 -4,-1 -1,-1 -2,-2 -3,-3 -1,-1 -2,-3 -2,-5 0,-1 -1,-4 0,-6 0,-2 0,-5 1,-6 0,-2 1,-4 2,-5 1,-1 2,-2 4,-2 1,-1 2,-1 4,-1 1,0 2,1 4,1 1,1 2,2 3,3 1,1 1,3 2,5 0,2 0,4 0,6zm-5 0c0,-2 0,-4 0,-5 0,-2 0,-3 -1,-3 0,-1 -1,-2 -2,-2 0,-1 -1,-1 -2,-1 0,0 -1,0 -2,1 0,0 -1,0 -1,1 -1,1 -1,2 -2,3 0,2 0,3 0,5 -1,2 -1,4 0,5 0,2 0,3 1,4 0,0 1,1 1,1 1,1 2,1 2,1 1,0 2,0 2,0 1,-1 2,-1 2,-2 1,-1 1,-2 1,-3 1,-1 1,-3 1,-5zm22 -5c0,1 0,2 -1,3 0,1 -1,1 -1,2 -1,0 -2,1 -3,1 0,0 -1,0 -2,0 -1,0 -2,0 -3,-1 0,0 -1,-1 -1,-1 -1,-1 -1,-2 -2,-3 0,0 0,-1 0,-2 0,-2 1,-3 1,-3 0,-1 1,-2 2,-2 0,-1 1,-1 2,-2 1,0 2,0 3,0 0,0 1,1 2,1 1,0 1,1 2,2 0,0 1,1 1,2 0,1 0,2 0,3zm-3 0c0,-1 0,-2 0,-2 -1,-1 -1,-1 -1,-2 0,0 0,0 -1,0 0,-1 0,-1 -1,-1 0,0 -1,0 -1,0 0,0 -1,1 -1,1 0,0 0,1 -1,1 0,1 0,1 0,2 0,1 0,1 0,2 0,0 0,1 0,1 1,0 1,1 1,1 1,0 1,0 1,0 1,0 1,0 1,0 1,0 1,0 1,-1 1,0 1,0 1,-1 0,0 0,-1 1,-1zm13 -5c0,0 1,0 1,0 0,-1 0,-1 1,-1l3 1 -24 25c0,0 0,0 0,0 0,0 -1,0 -1,0l-4 0 24 -25zm4 21c0,2 0,2 0,3 -1,1 -1,2 -2,2 -1,1 -2,1 -2,1 -1,1 -2,1 -3,1 -1,0 -2,-1 -2,-1 -1,-1 -2,-1 -2,-2 -1,0 -1,-1 -1,-2 -1,-1 -1,-2 -1,-3 1,-1 1,-2 1,-3 1,-1 1,-1 2,-2 1,-1 1,-1 2,-1 1,0 2,0 3,0 1,0 1,0 2,0 1,1 2,1 2,2 1,1 1,2 1,2 0,1 1,2 0,3zm-3 0c0,-1 0,-1 0,-2 0,0 -1,-1 -1,-1 0,0 0,-1 -1,-1 0,0 0,0 -1,0 0,0 0,0 -1,0 0,0 0,0 -1,0 0,1 0,1 0,2 -1,0 -1,1 -1,1 0,1 0,2 0,2 0,1 0,1 1,2 0,0 0,0 0,0 1,0 1,1 1,1 1,0 1,0 2,-1 0,0 0,0 1,0 0,0 0,-1 0,-1 0,-1 1,-1 1,-2zm11 -4c1,-2 1,-5 1,-8 0,-2 -1,-5 -2,-7 0,-1 0,-1 0,-1 0,0 0,-1 0,-1 0,0 0,0 1,0 0,0 0,0 0,0l2 -1c1,1 2,3 2,5 0,1 1,3 1,4 0,2 0,4 0,5 0,2 0,3 -1,5 0,2 0,3 -1,5 0,1 -1,3 -1,4 -1,1 -2,3 -3,4 -1,2 -2,3 -3,4l-2 -2c0,0 0,0 0,0 0,0 0,0 0,0 0,0 0,-1 0,-1 0,0 0,0 0,0 2,-2 3,-5 4,-7 1,-3 2,-5 2,-8z"/>
   <path class="fil7" d="M1093 327c-2,1 -4,3 -5,5 -2,2 -3,5 -5,7 0,0 0,0 0,1 0,0 0,0 0,0 -1,0 -1,0 -1,0 0,0 0,0 0,0l-3 -1c1,-2 2,-3 2,-5 1,-1 2,-3 3,-4 1,-1 2,-2 3,-3 1,-2 3,-3 4,-4 1,-1 2,-1 4,-2 1,-1 3,-2 4,-2 2,-1 3,-1 5,-2 1,0 3,0 5,0l0 2c0,0 0,0 0,1 0,0 0,0 0,0 0,0 0,0 -1,0 0,0 0,1 0,1 -3,0 -5,1 -8,2 -2,1 -5,2 -7,4zm3 18c1,1 1,1 2,2 0,0 1,0 1,1 1,0 2,0 2,0 1,-1 1,-1 2,-1 1,-1 2,-2 2,-3 0,-1 0,-3 -1,-4 -1,-1 -2,-2 -3,-2 -1,0 -2,0 -4,1 0,0 -1,1 -1,1 0,1 -1,1 -1,2 0,0 0,1 0,1 1,1 1,2 1,2zm18 -12c0,0 -1,-1 -1,-1 -1,-1 -1,-1 -2,-1 0,0 -1,0 -1,0 -1,0 -1,1 -2,1 0,0 -1,1 -1,1 0,1 -1,1 -1,1 0,1 0,2 0,2 0,1 1,1 1,2 0,1 1,1 1,1 1,1 2,1 2,1 1,0 1,0 2,0 0,-1 1,-1 1,-1 0,0 1,-1 1,-1 0,-1 1,-1 1,-2 0,0 0,-1 0,-1 0,-1 -1,-1 -1,-2zm-6 10c1,2 1,3 0,4 0,2 -1,3 -2,4 -1,1 -3,1 -4,1 -1,0 -2,0 -3,0 -1,0 -2,-1 -3,-2 -1,0 -2,-1 -3,-3 -1,-1 -1,-2 -2,-3 0,-1 0,-3 0,-4 0,-1 0,-2 1,-3 1,-1 1,-2 2,-2 2,-1 3,-2 5,-2 1,0 2,1 4,2 0,-1 0,-3 0,-4 1,-1 1,-2 3,-3 1,-1 2,-1 3,-1 1,0 2,0 3,0 1,0 2,1 2,1 1,1 2,2 3,3 1,1 1,2 2,3 0,1 0,3 0,4 0,1 -1,2 -1,2 -1,1 -1,2 -2,3 -1,1 -3,1 -4,1 -1,0 -2,0 -4,-1zm6 28l-3 2 -8 -13 3 -2 3 5 13 -9c1,0 2,-1 2,-1l-5 -2c0,0 0,0 -1,0 0,0 0,0 0,0 0,-1 0,-1 0,-1 0,0 0,0 0,0l1 -3 11 3 2 3 -21 14 3 4zm24 6c0,0 -1,1 -2,1 -1,0 -2,0 -3,0 -1,-1 -1,-1 -2,-1 -1,-1 -1,-2 -2,-2 0,-1 -1,-2 -1,-3 0,-1 0,-1 0,-2 1,-1 1,-2 1,-3 1,0 2,-1 3,-1 1,-1 2,-1 2,-2 1,0 2,0 3,0 1,1 2,1 2,1 1,1 2,2 2,2 1,1 1,2 1,3 0,1 0,2 0,2 0,1 -1,2 -1,3 -1,0 -2,1 -3,2zm-1 -3c0,-1 1,-1 1,-2 0,0 1,0 1,-1 0,0 0,-1 0,-1 0,0 0,-1 -1,-1 0,0 0,-1 0,-1 -1,0 -1,0 -1,0 -1,0 -1,0 -2,0 0,0 -1,0 -1,1 -1,0 -1,0 -2,1 0,0 0,1 -1,1 0,0 0,1 0,1 0,0 1,1 1,1 0,0 0,1 1,1 0,0 0,0 1,0 0,0 0,0 1,0 0,0 1,0 2,0zm12 8c0,0 0,0 0,0 1,0 1,0 1,0l2 3 -35 -3c0,0 0,0 0,0 -1,0 -1,-1 -1,-1l-2 -3 35 4zm-15 16c-1,1 -2,1 -3,1 -1,0 -1,0 -2,0 -1,0 -2,-1 -2,-1 -1,-1 -2,-1 -2,-2 -1,-1 -1,-2 -1,-2 0,-1 0,-2 0,-3 0,-1 1,-2 1,-2 1,-1 1,-2 2,-2 1,-1 2,-1 3,-1 1,0 2,0 3,0 1,0 1,0 2,1 1,0 1,1 2,2 0,0 1,1 1,2 0,1 0,2 0,3 -1,0 -1,1 -2,2 0,1 -1,1 -2,2zm-2 -3c1,-1 1,-1 2,-1 0,-1 0,-1 0,-2 1,0 1,0 1,-1 0,0 -1,0 -1,-1 0,0 0,0 -1,-1 0,0 0,0 -1,0 0,0 0,0 -1,0 0,0 -1,1 -2,1 0,0 -1,1 -1,1 0,1 -1,1 -1,1 0,1 0,1 0,1 0,1 0,1 0,1 1,1 1,1 1,1 0,0 1,1 1,1 1,0 1,0 2,0 0,-1 1,-1 1,-1zm10 3l5 9 -4 2 -4 -9 3 -2zm6 34l-3 2 -7 -14 3 -2 3 5 15 -7c0,0 1,0 1,-1l-4 -2c-1,0 -1,0 -1,0 0,0 0,-1 0,-1 0,0 0,0 0,0 0,-1 0,-1 0,-1l1 -2 10 4 2 4 -22 11 2 4zm20 18c-2,1 -4,2 -6,2 -2,0 -4,0 -5,0 -2,-1 -3,-1 -4,-2 -1,-1 -2,-2 -3,-4 0,-1 0,-2 0,-4 0,-1 0,-2 1,-4 0,-1 1,-2 3,-4 1,-1 3,-2 5,-3 3,-1 5,-2 6,-2 2,0 4,0 5,0 2,1 3,1 4,2 1,1 2,2 3,3 0,2 1,3 1,5 0,1 -1,2 -1,4 -1,1 -2,2 -4,4 -1,1 -3,2 -5,3zm-2 -5c2,0 3,-1 4,-2 1,-1 2,-2 3,-3 0,0 0,-1 0,-2 0,-1 0,-1 0,-2 0,0 -1,-1 -1,-1 -1,-1 -2,-1 -2,-1 -1,0 -2,0 -4,0 -1,0 -3,1 -5,2 -2,0 -3,1 -4,2 -1,1 -2,2 -3,2 0,1 0,2 0,3 0,0 0,1 0,2 0,0 1,1 1,1 1,1 2,1 3,1 0,0 2,0 3,0 1,0 3,-1 5,-2zm11 26c-3,1 -5,2 -7,2 -1,0 -3,0 -5,0 -1,-1 -2,-1 -3,-2 -1,-1 -2,-2 -3,-4 0,-1 0,-3 0,-4 0,-1 0,-3 1,-4 1,-1 2,-2 3,-4 2,-1 4,-2 6,-3 2,-1 4,-1 6,-2 2,0 4,0 5,1 1,0 3,1 4,2 1,1 2,2 2,3 1,2 1,3 1,4 0,2 -1,3 -1,4 -1,2 -2,3 -4,4 -1,1 -3,2 -5,3zm-2 -4c2,-1 3,-2 4,-3 1,0 2,-1 3,-2 0,-1 1,-1 1,-2 0,-1 0,-2 -1,-2 0,-1 0,-1 -1,-2 0,0 -1,-1 -2,-1 -1,0 -2,0 -3,0 -2,1 -3,1 -5,2 -2,1 -4,1 -5,2 -1,1 -2,2 -2,2 -1,1 -1,2 -1,3 0,0 0,1 0,2 0,0 1,1 1,1 1,1 2,1 2,1 1,1 3,0 4,0 1,0 3,0 5,-1zm14 18c-1,0 -2,0 -3,0 -1,0 -2,0 -2,-1 -1,0 -2,0 -2,-1 -1,-1 -1,-2 -2,-2 0,-1 0,-2 0,-3 0,-1 0,-2 1,-2 0,-1 1,-2 1,-2 1,-1 2,-1 3,-2 1,0 2,0 3,0 1,0 2,0 3,0 0,1 1,1 2,2 0,1 1,1 1,2 0,1 0,2 0,3 0,1 0,2 -1,2 0,1 0,2 -1,2 -1,1 -2,1 -3,2zm-1 -4c1,0 1,0 2,-1 0,0 0,0 1,-1 0,0 0,0 0,-1 0,0 0,0 0,-1 0,0 0,0 -1,-1 0,0 0,0 -1,0 0,0 0,-1 -1,-1 0,1 -1,1 -2,1 0,0 -1,0 -1,1 -1,0 -1,0 -1,1 -1,0 -1,0 -1,1 0,0 0,0 0,1 1,0 1,0 1,1 0,0 0,0 1,0 0,0 1,1 1,1 1,0 1,-1 2,-1zm10 11c0,0 0,0 0,0 1,0 1,1 1,1l1 3 -33 -11c0,0 0,0 0,0 0,-1 -1,-1 -1,-1l-1 -4 33 12zm-18 12c-1,1 -2,1 -3,1 -1,0 -2,0 -2,-1 -1,0 -2,-1 -2,-1 -1,-1 -1,-2 -2,-3 0,0 0,-1 0,-2 0,-1 0,-2 1,-3 0,0 1,-1 1,-2 1,0 2,-1 3,-1 1,0 2,0 3,0 1,0 2,0 2,0 1,1 2,1 2,2 1,0 1,1 2,2 0,1 0,2 0,3 0,1 0,1 -1,2 0,1 -1,1 -1,2 -1,1 -2,1 -3,1zm-1 -3c1,0 1,-1 2,-1 0,0 0,0 1,-1 0,0 0,-1 0,-1 0,0 0,-1 0,-1 0,0 -1,-1 -1,-1 0,0 0,0 -1,-1 0,0 0,0 -1,0 -1,0 -1,0 -2,1 -1,0 -1,0 -2,0 0,1 0,1 -1,1 0,1 0,1 0,1 0,1 0,1 0,1 0,1 1,1 1,1 0,1 0,1 1,1 0,0 1,0 1,0 1,0 1,0 2,0zm8 8c3,0 5,-2 8,-3 2,-1 4,-3 6,-5 0,0 0,0 0,0 1,0 1,0 1,0 0,0 0,0 0,0 1,0 1,0 1,0l2 2c-1,1 -3,2 -4,4 -1,1 -2,2 -4,2 -1,1 -2,2 -4,3 -1,0 -3,1 -4,1 -2,1 -4,1 -5,1 -2,1 -3,1 -5,1 -1,0 -3,0 -5,0 -1,-1 -3,-1 -5,-2l1 -2c0,0 0,0 0,0 0,-1 0,-1 0,-1 1,0 1,0 1,0 0,0 0,0 1,0 2,1 5,1 8,1 2,0 5,-1 7,-2z"/>
   <g>
    <path class="fil8" d="M592 754c44,25 100,10 125,-34 25,-44 10,-99 -34,-125 -43,-25 -99,-10 -124,34 -26,43 -11,99 33,125z"/>
    <polygon class="fil8" points="661,614 324,493 597,725 "/>
    <path class="fil9" d="M617 711c20,12 46,5 57,-15 12,-21 5,-47 -15,-58 -20,-12 -46,-5 -58,15 -12,21 -5,46 16,58z"/>
   </g>
  </g>
 </g>
</svg>
