<?xml version="1.0" encoding="UTF-8"?>
<!DOCTYPE svg PUBLIC "-//W3C//DTD SVG 1.1//EN" "http://www.w3.org/Graphics/SVG/1.1/DTD/svg11.dtd">
<!-- Creator: CorelDRAW X7 -->
<svg xmlns="http://www.w3.org/2000/svg" xml:space="preserve" width="2.51954in" height="1.49763in" version="1.1" style="shape-rendering:geometricPrecision; text-rendering:geometricPrecision; image-rendering:optimizeQuality; fill-rule:evenodd; clip-rule:evenodd"
viewBox="0 0 1106 658"
 xmlns:xlink="http://www.w3.org/1999/xlink">
 <defs>
  <style type="text/css">
   <![CDATA[
    .str0 {stroke:white;stroke-width:8.78153}
    .fil0 {fill:none}
    .fil7 {fill:#00B050}
    .fil6 {fill:#92D050}
    .fil4 {fill:#F8BB32}
    .fil9 {fill:#E4E4E5;fill-rule:nonzero}
    .fil8 {fill:#504C4B;fill-rule:nonzero}
    .fil3 {fill:#00B050;fill-rule:nonzero}
    .fil2 {fill:#92D050;fill-rule:nonzero}
    .fil1 {fill:#F8BB32;fill-rule:nonzero}
    .fil5 {fill:white;fill-rule:nonzero}
   ]]>
  </style>
 </defs>
 <g id="Layer_x0020_1">
  <metadata id="CorelCorpID_0Corel-Layer"/>
  <g id="_2851195541280">
   <polygon class="fil0 str0" points="690,336 816,118 "/>
   <path class="fil1" d="M24 393l-13 1c0,0 -1,0 -2,0 -1,0 -1,0 -2,0 1,0 1,1 2,1 0,0 1,1 1,1l10 8 4 -11zm16 -6l-2 4c0,1 0,1 0,2 -1,0 -1,0 -2,0l-7 0 -5 14 6 5c0,0 1,0 1,1 0,0 0,1 0,1l-2 5 -29 -24 2 -6 38 -2zm-21 -42l28 26 -3 6 -38 -1 2 -4c1,-1 1,-1 1,-2 1,0 1,0 2,0l23 1c0,0 1,0 2,0 1,0 2,0 3,0 -1,-1 -2,-1 -2,-2 -1,0 -2,-1 -2,-1l-17 -16c0,0 -1,-1 -1,-1 0,0 0,-1 0,-2l2 -4zm10 -9l9 4 6 -11 4 2 -5 11 9 4 7 -14 4 3 -9 20 -32 -16 10 -20 4 2 -7 15zm26 -25c1,-1 1,-2 1,-3 0,-1 0,-2 0,-3 0,-1 0,-1 -1,-2 0,-1 -1,-1 -2,-2 -1,0 -3,-1 -4,0 -2,0 -3,2 -4,4l-2 4 10 5 2 -3zm24 -6l-3 5c0,1 -1,2 -2,2l-13 1c-1,0 -1,0 -2,0 0,0 0,1 -1,1l-1 3 12 7 -3 5 -31 -17 5 -10c2,-2 3,-3 4,-5 1,-1 3,-2 4,-2 1,-1 3,-1 4,-1 1,0 3,1 4,2 1,0 2,1 3,2 0,1 1,1 1,2 1,1 1,3 1,4 0,1 0,2 0,3 0,0 1,0 1,0 1,0 1,0 2,0l15 -2zm1 -26l-13 -2c0,0 -1,-1 -1,-1 -1,0 -2,0 -3,0 1,0 1,1 2,1 0,1 1,2 1,2l8 10 6 -10zm17 -3l-3 5c0,0 0,0 -1,1 0,0 -1,0 -1,0l-7 -2 -8 13 5 6c0,0 0,0 0,1 0,0 0,1 0,1l-3 5 -23 -31 4 -5 37 6zm4 -36l12 9c0,2 0,4 -1,6 -1,2 -2,4 -3,6 -2,2 -4,4 -6,5 -2,2 -4,3 -6,3 -2,1 -5,0 -7,0 -2,-1 -5,-2 -7,-3 -2,-2 -4,-3 -5,-5 -1,-2 -2,-4 -2,-7 -1,-2 -1,-4 0,-7 0,-2 2,-4 3,-7 1,-1 2,-2 3,-3 1,-1 2,-1 3,-2 0,-1 1,-1 2,-1 1,-1 2,-1 3,-1l2 3c0,0 0,1 0,1 0,1 -1,1 -1,1 -1,1 -2,1 -2,1 -1,0 -1,1 -2,1 0,1 -1,1 -2,2 0,0 -1,1 -1,2 -1,1 -2,3 -2,4 -1,2 -1,3 0,5 0,1 1,2 1,4 1,1 3,2 4,3 2,2 3,2 5,3 2,0 3,0 5,0 1,0 3,-1 4,-2 1,0 3,-2 4,-3 0,-1 1,-2 1,-3 1,-1 1,-2 1,-3l-5 -4 -3 4c0,0 0,0 -1,0 0,0 0,0 0,0l-4 -2 7 -10zm0 -18l7 6 8 -10 4 3 -8 10 8 6 10 -12 4 3 -14 18 -28 -22 14 -18 4 4 -9 12z"/>
   <path class="fil2" d="M505 19l1 14c-1,2 -3,3 -5,4 -2,1 -4,1 -6,1 -3,1 -6,1 -8,0 -3,-1 -5,-2 -7,-3 -1,-2 -3,-3 -4,-5 -1,-2 -2,-5 -2,-7 -1,-3 0,-6 0,-8 1,-2 2,-4 3,-6 2,-2 3,-3 6,-4 2,-1 4,-2 7,-2 1,-1 3,-1 4,0 1,0 2,0 4,0 1,0 2,1 3,1 1,1 1,1 2,2l-1 3c-1,0 -1,1 -1,1 -1,0 -1,0 -2,0 0,0 -1,-1 -2,-1 0,0 -1,0 -1,-1 -1,0 -2,0 -3,0 -1,0 -2,0 -3,0 -1,0 -3,1 -4,2 -2,0 -3,1 -4,2 0,2 -1,3 -1,5 -1,1 -1,3 -1,5 1,2 1,4 2,5 1,2 2,3 3,4 1,1 2,1 4,2 1,0 3,0 5,0 1,0 2,0 3,-1 1,0 2,0 3,-1l-1 -6 -4 0c0,0 -1,0 -1,0 0,0 0,-1 0,-1l-1 -4 12 -1zm41 -2c0,3 0,5 -1,8 -1,2 -2,4 -3,5 -2,2 -4,3 -6,4 -2,1 -4,2 -7,2 -3,0 -5,0 -8,-1 -2,-1 -4,-2 -5,-4 -2,-1 -3,-3 -4,-5 -1,-2 -2,-5 -2,-7 0,-3 0,-5 1,-7 1,-3 2,-5 4,-6 1,-2 3,-3 5,-4 2,-1 5,-2 7,-2 2,0 4,0 5,0 2,1 3,1 5,2 1,1 2,2 3,3 2,1 3,2 3,3 1,1 2,3 2,4 1,2 1,4 1,5zm-7 1c0,-2 0,-4 -1,-6 0,-1 -1,-2 -2,-3 -1,-1 -2,-2 -4,-3 -1,0 -3,0 -4,0 -2,0 -4,0 -5,1 -1,0 -3,1 -3,2 -1,1 -2,3 -3,4 0,2 0,4 0,6 0,1 0,3 1,5 1,1 1,2 2,3 1,2 3,2 4,3 1,0 3,1 5,0 1,0 3,0 4,-1 2,0 3,-1 4,-2 1,-1 1,-3 2,-4 0,-2 0,-3 0,-5zm48 1c0,2 -1,5 -2,7 -1,2 -2,4 -4,5 -1,2 -3,3 -5,4 -3,1 -5,1 -8,1 -2,0 -5,-1 -7,-2 -2,-1 -4,-2 -6,-4 -1,-1 -2,-3 -3,-5 -1,-3 -1,-5 -1,-8 0,-2 1,-5 2,-7 1,-2 2,-4 4,-5 1,-2 3,-3 5,-4 3,-1 5,-1 8,-1 1,0 3,0 5,1 1,0 3,1 4,2 1,1 2,2 3,3 1,1 2,2 3,3 1,2 1,3 1,5 1,1 1,3 1,5zm-7 -1c0,-1 0,-3 0,-5 -1,-1 -2,-3 -3,-4 0,-1 -2,-2 -3,-2 -1,-1 -3,-1 -5,-1 -1,0 -3,0 -4,0 -2,1 -3,2 -4,3 -1,1 -2,2 -2,3 -1,2 -1,4 -1,6 0,2 0,3 0,5 1,1 2,3 2,4 1,1 2,2 4,2 1,1 3,1 4,1 2,1 4,0 5,0 2,-1 3,-2 4,-3 1,-1 2,-2 2,-3 1,-2 1,-4 1,-6zm45 5c0,2 -1,4 -2,6 -1,3 -3,4 -4,6 -2,1 -4,2 -6,3 -3,0 -5,0 -8,0l-13 -1 4 -35 13 1c3,0 5,1 7,2 2,1 4,3 5,4 2,2 3,4 3,6 1,3 1,5 1,8zm-7 -1c0,-2 0,-4 0,-5 0,-2 -1,-3 -2,-5 -1,-1 -2,-2 -3,-2 -1,-1 -3,-2 -5,-2l-6 0 -3 24 7 1c1,0 3,0 4,0 2,-1 3,-1 4,-2 1,-1 2,-3 3,-4 1,-2 1,-3 1,-5z"/>
   <path class="fil3" d="M972 192l-7 7 8 9 -4 4 -8 -10 -7 7 10 12 -4 3 -15 -16 26 -24 15 16 -4 4 -10 -12zm10 59l-4 -5c0,0 -1,-1 -1,-1 0,0 1,-1 1,-1l5 -15c0,0 -1,0 -1,0l-15 2c0,0 0,0 -1,0 0,0 0,0 -1,-1l-3 -4 21 -3 6 -19 4 5c1,0 1,1 1,1 0,0 0,0 0,1l-5 14c0,0 1,0 1,0l14 -2c0,0 0,0 1,0 0,0 0,1 0,1l4 5 -20 1 -7 21zm22 17c1,0 1,1 1,1l-1 4c-2,0 -5,-1 -7,-2 -2,-1 -3,-3 -5,-5 -2,-3 -3,-5 -3,-7 0,-2 -1,-4 0,-6 0,-3 1,-5 3,-7 1,-1 3,-3 5,-5 2,-1 4,-2 7,-3 2,0 4,-1 6,0 2,0 5,1 6,2 2,1 4,3 6,5 1,2 2,4 3,6 0,3 0,5 0,7l-4 0c0,0 0,-1 -1,-1 0,0 0,0 0,0 0,0 -1,-1 -1,-1 0,0 0,-1 0,-1 0,0 0,-1 0,-1 0,-1 0,-1 0,-2 0,0 0,-1 -1,-2 0,0 0,-1 -1,-2 -1,-1 -2,-2 -3,-3 -1,0 -3,-1 -4,-1 -1,0 -3,0 -5,0 -1,1 -3,2 -4,3 -2,1 -3,2 -4,4 -1,1 -2,2 -2,4 0,1 0,2 0,4 0,1 1,3 2,4 0,0 1,1 1,2 1,0 1,1 2,1 0,0 1,1 1,1 1,0 2,0 2,1 1,0 1,0 1,0 0,0 0,0 0,0zm27 1l-8 5 6 10 -4 3 -7 -10 -8 5 9 13 -5 3 -12 -18 30 -20 12 19 -5 3 -8 -13zm1 50l-5 2 -10 -18 31 -17 3 6 -26 14 7 13zm12 22l-5 3 -10 -19 32 -16 3 6 -27 14 7 12zm27 1l-9 4 5 11 -4 2 -5 -11 -10 4 7 14 -5 2 -9 -20 32 -14 9 20 -5 2 -6 -14zm25 47l-33 13 -1 -4c-1,0 -1,-1 -1,-1 0,0 1,-1 1,-1l15 -26c0,1 -1,1 -2,2l-21 7 -2 -5 34 -13 1 4c0,0 0,0 0,0 0,1 0,1 0,1 0,0 0,0 0,0 0,1 0,1 -1,1l-15 26c0,-1 1,-1 1,-1 1,0 1,0 2,-1l20 -7 2 5zm5 35l-3 -10 -29 8 -1 -6 28 -8 -3 -11 5 -1 8 27 -5 1z"/>
   <path class="fil4 str0" d="M283 118c-160,93 -267,265 -267,462l251 0c0,-104 57,-195 141,-244l-125 -218z"/>
   <path class="fil5" d="M98 383c3,1 5,2 7,2 2,1 4,1 7,1 0,0 0,0 0,0 0,0 1,0 1,0 0,0 0,0 0,0 0,0 0,0 0,1l0 2c-1,0 -3,0 -4,0 -1,0 -3,0 -4,0 -2,0 -3,-1 -4,-1 -1,-1 -3,-1 -4,-2 -1,0 -2,-1 -4,-2 -1,0 -2,-1 -3,-2 -1,-1 -2,-2 -3,-3 -1,-1 -2,-2 -3,-3l2 -2c0,0 0,0 1,0 0,0 0,0 0,0 0,0 0,0 0,0 1,0 1,1 1,1 1,2 3,3 5,5 1,1 3,2 5,3zm9 -22c2,1 3,2 5,3 1,1 2,3 2,4 1,1 1,2 1,3 0,1 0,3 -1,4 0,1 -1,2 -2,3 -1,0 -2,1 -3,1 -2,0 -3,0 -5,0 -1,0 -3,-1 -5,-2 -2,-1 -3,-2 -5,-3 -1,-1 -2,-2 -2,-3 -1,-1 -1,-2 -1,-3 0,-2 0,-3 1,-4 0,-1 1,-2 2,-3 1,-1 2,-1 3,-1 2,-1 3,-1 5,0 1,0 3,0 5,1zm-2 4c-2,-1 -3,-1 -4,-1 -1,-1 -2,-1 -3,-1 -1,1 -1,1 -2,1 0,1 -1,1 -1,2 0,0 0,1 0,1 0,1 0,2 0,2 1,1 1,2 2,2 1,1 2,2 4,3 2,0 3,1 4,1 1,0 2,0 3,0 1,0 1,0 2,0 0,-1 1,-1 1,-2 0,0 0,-1 0,-1 0,-1 0,-2 0,-2 -1,-1 -1,-2 -2,-3 -1,0 -2,-1 -4,-2zm4 -6l4 -8 3 2 -4 7 -3 -1zm6 -19l0 1c0,-1 0,-1 0,-2 1,0 1,-1 1,-1 1,-1 1,-2 2,-2 0,-1 1,-2 2,-2 1,0 2,0 3,0 1,0 2,0 3,1 1,0 2,1 2,2 1,1 2,2 2,3 0,1 0,2 0,3 0,1 0,2 -1,3 -1,1 -1,2 -2,3 -1,1 -2,1 -3,2 -1,0 -2,0 -3,0 -1,0 -2,-1 -4,-1 -1,-1 -2,-2 -2,-3 -1,-1 -2,-2 -3,-3l-4 -9c0,-1 0,-1 0,-1 0,-1 0,-1 1,-2l1 -3 5 11zm11 5c0,-1 0,-1 0,-2 1,-1 1,-1 0,-2 0,0 0,-1 0,-1 -1,-1 -1,-1 -2,-1 0,-1 -1,-1 -2,-1 0,0 -1,0 -1,0 -1,0 -1,1 -2,1 0,0 -1,1 -1,1 0,1 0,2 0,2 -1,1 0,1 0,2 0,0 0,1 0,1 1,1 1,1 2,1 0,1 1,1 2,1 0,0 1,0 1,0 1,0 1,0 2,-1 0,0 1,-1 1,-1zm7 -29c1,1 3,2 4,3 1,1 2,2 2,4 1,1 1,2 1,3 0,1 -1,3 -1,4 -1,1 -2,2 -3,2 -1,1 -2,1 -3,1 -2,1 -3,0 -5,0 -1,0 -3,-1 -5,-2 -1,-1 -3,-3 -4,-4 -1,-1 -2,-2 -2,-3 -1,-2 -1,-3 -1,-4 0,-1 1,-2 1,-3 1,-1 2,-2 3,-3 1,-1 2,-1 3,-1 2,0 3,0 5,0 1,1 3,1 5,3zm-3 3c-1,-1 -2,-1 -4,-2 -1,0 -2,0 -2,0 -1,0 -2,0 -2,0 -1,1 -1,1 -2,1 0,1 0,2 0,2 0,1 0,1 0,2 1,1 1,2 2,2 1,1 2,2 4,3 1,1 2,2 3,2 2,0 3,1 3,1 1,0 2,-1 2,-1 1,0 1,-1 2,-1 0,-1 0,-1 0,-2 0,-1 0,-1 0,-2 -1,-1 -1,-1 -2,-2 -1,-1 -2,-2 -4,-3zm5 -19c1,1 2,1 2,2 0,1 1,1 1,2 0,1 0,2 0,2 0,1 -1,2 -1,2 0,1 -1,2 -2,2 0,0 -1,1 -2,1 0,0 -1,0 -2,0 -1,-1 -1,-1 -2,-1 -1,-1 -1,-2 -2,-2 0,-1 -1,-2 -1,-2 0,-1 0,-2 0,-2 0,-1 1,-2 1,-3 0,0 1,-1 2,-1 0,-1 1,-1 2,-1 0,0 1,0 2,0 1,0 1,1 2,1zm-2 3c0,0 -1,-1 -1,-1 0,0 -1,0 -1,0 0,0 -1,0 -1,0 0,0 -1,1 -1,1 0,0 0,1 0,1 0,0 0,0 0,1 0,0 0,0 0,1 1,0 1,0 2,1 0,0 1,0 1,1 1,0 1,0 1,0 1,0 1,0 1,-1 0,0 1,0 1,0 0,0 0,-1 0,-1 0,0 0,-1 0,-1 0,0 0,-1 0,-1 -1,0 -1,-1 -2,-1zm3 -12c0,-1 -1,-1 -1,-1 0,0 1,0 1,-1l2 -2 9 28c0,0 0,0 0,1 0,0 0,0 -1,0l-1 3 -9 -28zm17 5c1,1 2,1 2,2 1,1 1,1 1,2 0,1 0,2 0,2 0,1 0,2 -1,2 0,1 -1,1 -1,2 -1,0 -2,1 -2,1 -1,0 -2,0 -3,0 0,-1 -1,-1 -2,-2 -1,0 -1,-1 -2,-1 0,-1 -1,-2 -1,-2 0,-1 0,-2 0,-3 0,0 1,-1 1,-2 1,0 1,-1 2,-1 1,-1 1,-1 2,-1 1,0 1,0 2,0 1,0 2,1 2,1zm-1 3c-1,0 -1,-1 -2,-1 0,0 -1,0 -1,0 0,0 -1,0 -1,0 0,0 0,1 -1,1 0,0 0,0 0,1 0,0 0,0 0,1 0,0 0,0 1,1 0,0 0,0 1,1 0,0 1,0 1,1 1,0 1,0 1,0 1,0 1,0 1,-1 1,0 1,0 1,0 0,-1 0,-1 0,-1 1,0 1,-1 0,-1 0,0 0,-1 0,-1 0,0 -1,-1 -1,-1zm1 -10c-2,-2 -4,-3 -6,-4 -2,-1 -4,-1 -6,-2 0,0 -1,0 -1,0 0,0 0,0 0,0 0,0 0,-1 0,-1 0,0 0,0 0,0l0 -2c1,0 3,0 4,0 2,1 3,1 4,2 1,0 3,1 4,1 1,1 2,2 3,3 1,1 2,1 3,2 1,1 2,2 3,3 1,1 2,3 2,4 1,1 2,2 2,4l-2 1c0,0 0,0 0,0 0,0 -1,0 -1,0 0,0 0,0 0,0 0,-1 0,-1 0,-1 -1,-2 -3,-4 -4,-6 -1,-1 -3,-3 -5,-4z"/>
   <path class="fil6 str0" d="M690 336l126 -218c-78,-45 -170,-71 -267,-71 -97,0 -188,26 -266,71l0 0 125 218c42,-24 90,-38 141,-38 52,0 100,14 141,38z"/>
   <path class="fil5" d="M471 95c0,2 1,4 2,6 1,2 2,4 3,6 0,0 0,0 0,1 1,0 1,0 1,0 -1,0 -1,0 -1,0 0,1 0,1 0,1l-2 1c-1,-1 -1,-2 -2,-3 -1,-2 -2,-3 -2,-4 -1,-1 -1,-2 -2,-4 0,-1 0,-2 -1,-4 0,-1 0,-3 0,-4 0,-1 0,-3 0,-4 0,-1 1,-3 1,-4 0,-1 1,-3 2,-4l2 1c0,0 0,0 0,0 0,0 0,0 0,0 0,0 0,0 0,1 0,0 0,0 0,0 -1,2 -1,5 -1,7 0,2 0,4 0,7zm13 -7l-1 1c1,0 1,-1 2,-1 0,0 1,0 1,0 1,0 2,0 3,0 1,0 2,0 2,1 1,1 2,1 2,2 1,1 1,2 1,3 0,1 0,2 0,3 0,1 -1,2 -1,3 -1,1 -2,2 -3,2 -1,1 -2,1 -3,1 -2,0 -3,0 -4,0 -1,0 -2,-1 -3,-1 0,-1 -1,-2 -2,-3 0,-1 0,-2 -1,-3 0,-1 0,-3 1,-4 0,-1 1,-2 1,-4l5 -8c0,0 1,-1 1,-1 0,0 1,0 1,0l4 -1 -6 10zm2 12c1,0 1,0 2,-1 0,0 1,0 1,-1 1,0 1,-1 1,-1 0,-1 0,-1 0,-2 0,-1 0,-1 0,-2 -1,0 -1,-1 -1,-1 -1,-1 -1,-1 -2,-1 0,0 -1,0 -2,0 0,0 -1,0 -1,1 -1,0 -1,0 -2,1 0,0 0,1 0,1 -1,1 -1,1 -1,2 0,1 1,1 1,2 0,0 0,1 1,1 0,0 1,1 1,1 1,0 1,0 2,0zm27 -3l1 3 -14 2 0 -4 5 0 -2 -14c0,-1 0,-1 0,-2l-3 3c0,1 0,1 -1,1 0,0 0,0 0,0 0,0 0,0 -1,0 0,0 0,0 0,0l-1 -2 6 -7 4 -1 2 22 4 -1zm14 -16c0,1 0,2 0,3 0,0 -1,1 -1,2 -1,0 -1,1 -2,1 -1,0 -1,0 -2,0 -1,0 -2,0 -2,0 -1,0 -2,0 -2,-1 -1,0 -1,-1 -1,-2 -1,-1 -1,-1 -1,-2 0,-1 0,-2 0,-3 1,-1 1,-1 1,-2 1,0 1,-1 2,-1 1,0 2,-1 2,-1 1,0 2,0 3,1 0,0 1,0 1,1 1,0 1,1 2,2 0,0 0,1 0,2zm-3 0c0,0 0,-1 0,-1 0,-1 -1,-1 -1,-1 0,-1 0,-1 -1,-1 0,0 0,0 -1,0 0,0 0,0 0,0 -1,0 -1,1 -1,1 0,0 -1,0 -1,1 0,0 0,1 0,2 0,0 0,1 1,1 0,1 0,1 0,1 0,0 1,1 1,1 0,0 0,0 1,0 0,0 0,0 1,0 0,-1 0,-1 0,-1 1,0 1,-1 1,-1 0,0 0,-1 0,-2zm11 -5c0,-1 0,-1 1,-1 0,0 0,0 0,0l3 0 -17 24c0,0 0,1 0,1 0,0 0,0 -1,0l-3 0 17 -24zm7 17c0,1 -1,2 -1,3 0,0 0,1 -1,2 0,0 -1,1 -2,1 0,0 -1,0 -2,0 -1,1 -1,0 -2,0 -1,0 -1,0 -2,-1 0,0 -1,-1 -1,-2 0,-1 -1,-1 -1,-2 0,-1 0,-2 1,-3 0,-1 0,-1 1,-2 0,0 1,-1 1,-1 1,0 2,-1 3,-1 0,0 1,0 2,1 1,0 1,0 2,1 0,0 1,1 1,2 0,0 0,1 1,2zm-4 0c0,0 0,-1 0,-1 0,-1 0,-1 0,-1 -1,-1 -1,-1 -1,-1 -1,0 -1,0 -1,0 -1,0 -1,0 -1,0 0,0 -1,1 -1,1 0,0 0,1 0,1 0,0 0,1 0,2 0,0 0,1 0,1 0,1 0,1 0,1 1,0 1,1 1,1 0,0 1,0 1,0 0,0 1,0 1,0 0,-1 1,-1 1,-1 0,0 0,-1 0,-1 0,0 0,-1 0,-2zm7 -6l8 0 1 4 -9 0 0 -4zm20 9c1,0 2,0 2,0 1,0 1,-1 2,-1 0,0 0,-1 0,-1 1,-1 1,-1 1,-2 0,-1 -1,-2 -1,-3 -1,0 -2,-1 -3,-1 -2,0 -3,1 -3,1 -1,1 -2,2 -2,3 0,1 0,1 1,2 0,0 0,1 0,1 1,0 1,1 2,1 0,0 1,0 1,0zm1 -18c-1,0 -1,0 -2,0 0,0 -1,0 -1,1 0,0 0,0 -1,1 0,0 0,1 0,1 0,1 0,1 0,2 0,0 1,0 1,1 0,0 1,0 1,1 0,0 1,0 2,0 0,0 1,0 1,0 1,0 1,-1 2,-1 0,0 0,-1 0,-1 0,-1 0,-1 0,-2 0,0 0,-1 0,-1 0,0 0,-1 0,-1 -1,0 -1,-1 -2,-1 0,0 0,0 -1,0zm4 9c1,0 2,1 3,2 1,1 1,2 1,4 0,1 0,2 -1,2 0,1 -1,2 -2,3 0,0 -1,1 -2,1 -1,0 -2,0 -4,0 -1,0 -2,0 -3,0 -1,-1 -2,-1 -3,-2 0,0 -1,-1 -1,-2 -1,-1 -1,-2 -1,-3 0,-1 1,-3 1,-4 1,0 2,-1 4,-2 -2,0 -2,-1 -3,-2 -1,-1 -1,-2 -1,-3 0,-1 0,-2 1,-3 0,0 1,-1 1,-2 1,0 2,-1 3,-1 1,0 2,0 3,0 1,0 2,0 3,0 1,1 2,1 2,2 1,0 2,1 2,2 0,1 0,1 0,2 0,2 0,3 -1,4 0,0 -1,1 -2,2zm24 2c0,2 0,4 -1,5 0,2 -1,3 -2,4 -1,1 -2,2 -3,2 -1,0 -2,1 -3,0 -2,0 -3,0 -4,0 -1,-1 -2,-2 -2,-3 -1,-1 -2,-2 -2,-4 0,-1 -1,-3 0,-5 0,-3 0,-4 1,-6 0,-1 1,-3 2,-4 0,-1 1,-1 3,-2 1,0 2,0 3,0 1,0 3,0 4,1 1,0 2,1 2,2 1,1 2,3 2,4 0,2 0,4 0,6zm-4 -1c0,-1 0,-3 0,-4 0,-1 -1,-2 -1,-3 0,-1 -1,-1 -1,-1 -1,-1 -1,-1 -2,-1 -1,0 -1,0 -2,0 0,1 -1,1 -1,2 -1,0 -1,1 -2,3 0,1 0,2 0,4 0,2 0,3 0,4 0,1 0,2 1,3 0,1 1,1 1,2 1,0 1,0 2,0 0,0 1,0 2,0 0,0 1,-1 1,-2 1,0 1,-1 1,-2 1,-1 1,-3 1,-5zm19 -4c0,1 0,2 -1,3 0,0 -1,1 -1,1 -1,1 -1,1 -2,1 -1,0 -2,1 -2,0 -1,0 -2,0 -3,0 0,-1 -1,-1 -1,-2 -1,0 -1,-1 -1,-2 0,0 0,-1 0,-2 0,-1 0,-2 0,-3 1,0 1,-1 2,-1 0,-1 1,-1 2,-1 0,-1 1,-1 2,-1 1,1 2,1 2,1 1,0 1,1 2,2 0,0 1,1 1,2 0,0 0,1 0,2zm-3 0c0,-1 0,-1 0,-2 0,0 0,-1 -1,-1 0,0 0,0 0,-1 -1,0 -1,0 -1,0 -1,0 -1,0 -1,0 -1,0 -1,0 -1,1 0,0 0,0 -1,1 0,0 0,1 0,1 0,1 0,1 0,2 0,0 0,1 0,1 1,0 1,0 1,1 0,0 1,0 1,0 0,0 1,0 1,0 0,0 1,0 1,-1 0,0 0,0 0,-1 1,0 1,-1 1,-1zm12 -4c0,0 0,0 0,-1 0,0 1,0 1,0l3 1 -21 21c0,0 0,0 0,1 0,0 -1,0 -1,0l-3 -1 21 -21zm3 18c0,1 0,2 -1,3 0,0 -1,1 -1,1 -1,1 -1,1 -2,1 -1,1 -1,1 -2,1 -1,0 -2,-1 -2,-1 -1,0 -2,-1 -2,-1 0,-1 -1,-2 -1,-2 0,-1 0,-2 0,-3 0,-1 0,-2 1,-2 0,-1 0,-2 1,-2 1,-1 1,-1 2,-1 1,0 1,-1 2,0 1,0 2,0 2,0 1,1 2,1 2,2 0,0 1,1 1,2 0,1 0,1 0,2zm-3 0c0,-1 0,-1 0,-2 0,0 0,-1 0,-1 -1,0 -1,0 -1,0 0,-1 -1,-1 -1,-1 0,0 -1,0 -1,0 0,0 -1,1 -1,1 0,0 0,0 0,1 -1,0 -1,1 -1,1 0,1 0,2 0,2 0,0 0,1 1,1 0,0 0,1 0,1 1,0 1,0 1,0 0,0 1,0 1,0 0,0 1,0 1,-1 0,0 0,0 1,-1 0,0 0,0 0,-1zm10 -3c0,-3 0,-5 0,-7 0,-2 0,-5 -1,-7 0,0 0,0 0,0 0,-1 0,-1 0,-1 0,0 0,0 0,0 0,0 0,0 1,0l2 -1c0,1 1,3 1,4 0,1 1,3 1,4 0,1 0,3 0,4 0,2 0,3 -1,4 0,2 0,3 -1,4 0,2 0,3 -1,4 -1,1 -1,2 -2,4 -1,1 -2,2 -3,3l-1 -1c-1,0 -1,-1 -1,-1 0,0 0,0 0,0 0,0 0,0 0,0 0,-1 0,-1 0,-1 2,-2 3,-4 4,-6 1,-2 1,-4 2,-6z"/>
   <path class="fil7 str0" d="M816 118c159,93 266,265 266,462l-251 0c0,-104 -56,-195 -141,-244l126 -218z"/>
   <path class="fil5" d="M939 281c-2,1 -4,3 -5,5 -2,1 -3,3 -4,5 0,1 0,1 0,1 0,0 0,0 0,0 -1,0 -1,0 -1,0 0,0 0,0 0,0l-2 -1c0,-1 1,-3 2,-4 0,-1 1,-2 2,-3 1,-1 2,-2 2,-3 1,-1 2,-2 4,-3 1,-1 2,-2 3,-2 1,-1 2,-2 4,-2 1,-1 2,-1 4,-1 1,-1 2,-1 4,-1l0 2c0,0 0,0 0,1 0,0 0,0 0,0 0,0 0,0 0,0 0,0 -1,0 -1,1 -2,0 -4,0 -6,1 -2,1 -4,2 -6,4zm2 16c1,0 1,1 2,1 0,0 0,1 1,1 0,0 1,0 1,0 1,0 1,-1 2,-1 1,-1 2,-2 2,-3 0,-1 0,-2 -1,-3 -1,-1 -2,-1 -3,-2 -1,0 -2,0 -3,1 0,0 -1,1 -1,1 0,1 0,1 -1,2 0,0 0,1 1,1 0,1 0,1 0,2zm15 -11c0,0 0,-1 -1,-1 0,0 0,0 -1,0 0,0 -1,0 -1,0 -1,0 -1,0 -1,0 -1,1 -1,1 -1,1 -1,1 -1,1 -1,1 0,1 0,1 0,2 0,0 0,1 1,1 0,1 0,1 1,2 0,0 1,0 1,0 1,0 1,0 1,0 1,0 1,-1 2,-1 0,0 0,0 1,-1 0,0 0,0 0,-1 0,0 0,-1 0,-1 0,-1 0,-1 -1,-2zm-4 9c0,1 0,2 0,4 -1,1 -2,2 -3,3 -1,0 -2,1 -2,1 -1,0 -2,0 -3,0 -1,-1 -2,-1 -3,-2 -1,-1 -2,-1 -2,-2 -1,-1 -2,-2 -2,-3 0,-2 0,-3 0,-3 0,-1 0,-2 1,-3 0,-1 1,-2 2,-2 1,-1 2,-2 3,-2 1,0 3,1 4,2 0,-1 0,-2 0,-3 1,-1 1,-2 2,-3 1,-1 2,-1 3,-1 1,0 2,0 2,0 1,0 2,1 3,1 1,1 1,2 2,3 1,0 1,1 1,2 1,1 1,2 1,3 0,1 -1,2 -1,3 -1,0 -1,1 -2,1 -1,1 -2,2 -3,2 -1,0 -2,-1 -3,-1zm5 24l-3 2 -7 -11 2 -2 3 4 12 -8c0,0 1,0 1,-1l-4 -1c0,0 -1,0 -1,0 0,0 0,-1 0,-1 0,0 0,0 0,0 0,0 0,-1 0,-1l1 -2 9 3 2 3 -18 12 3 3zm20 5c0,0 -1,0 -2,1 -1,0 -1,0 -2,0 -1,-1 -1,-1 -2,-1 -1,-1 -1,-1 -2,-2 0,-1 0,-1 0,-2 0,-1 0,-2 0,-2 0,-1 0,-2 1,-2 0,-1 1,-1 2,-2 0,0 1,-1 2,-1 1,0 2,0 2,0 1,0 2,1 2,1 1,0 1,1 2,2 0,0 0,1 1,2 0,1 0,1 -1,2 0,1 0,1 -1,2 0,1 -1,1 -2,2zm-1 -3c0,0 1,-1 1,-1 0,0 1,-1 1,-1 0,0 0,-1 0,-1 0,0 0,-1 -1,-1 0,0 0,0 0,-1 0,0 -1,0 -1,0 0,0 -1,0 -1,0 -1,0 -1,1 -2,1 0,0 -1,1 -1,1 0,0 0,0 -1,1 0,0 0,0 0,1 0,0 1,0 1,1 0,0 0,0 0,0 1,1 1,1 1,1 1,0 1,0 1,0 1,0 1,-1 2,-1zm10 7c0,0 1,0 1,0 0,0 0,0 0,1l2 2 -30 -3c0,0 0,0 0,0 0,0 -1,0 -1,-1l-1 -2 29 3zm-12 14c-1,0 -2,1 -3,1 0,0 -1,0 -2,0 -1,0 -1,-1 -2,-1 0,-1 -1,-1 -1,-2 -1,0 -1,-1 -1,-2 0,-1 0,-1 0,-2 0,-1 1,-1 1,-2 1,-1 1,-1 2,-2 1,0 2,0 2,-1 1,0 2,0 3,0 0,1 1,1 2,1 0,1 1,1 1,2 1,1 1,1 1,2 0,1 0,2 0,2 0,1 -1,2 -1,2 -1,1 -1,1 -2,2zm-2 -3c1,0 1,0 1,-1 1,0 1,0 1,-1 0,0 0,0 0,-1 0,0 0,0 0,-1 0,0 -1,0 -1,0 0,-1 0,-1 -1,-1 0,0 0,0 -1,0 0,1 -1,1 -1,1 -1,0 -1,1 -2,1 0,0 0,1 0,1 0,0 0,1 0,1 0,0 0,1 0,1 0,0 0,0 1,1 0,0 0,0 1,0 0,0 0,0 1,0 0,0 1,0 1,-1zm9 3l4 8 -3 2 -4 -8 3 -2zm5 29l-3 2 -6 -12 3 -2 2 5 13 -6c0,-1 1,-1 1,-1l-4 -2c0,0 0,0 0,0 0,-1 -1,-1 -1,-1 0,0 0,0 0,0 0,-1 0,-1 1,-1l1 -2 8 4 2 3 -19 10 2 3zm17 16c-2,0 -4,1 -6,1 -1,0 -3,0 -4,0 -1,0 -2,-1 -3,-2 -1,0 -2,-1 -2,-2 -1,-2 -1,-3 -1,-4 0,-1 0,-2 1,-3 0,-2 1,-3 3,-4 1,-1 2,-2 4,-3 2,0 4,-1 6,-1 1,-1 3,0 4,0 1,0 2,1 3,1 1,1 2,2 2,3 1,1 1,3 1,4 0,1 0,2 -1,3 0,2 -1,3 -3,4 -1,1 -2,2 -4,3zm-2 -4c2,-1 3,-2 4,-2 1,-1 1,-2 2,-3 0,0 0,-1 0,-1 1,-1 0,-2 0,-2 0,-1 0,-1 -1,-2 0,0 -1,0 -2,0 -1,0 -2,0 -3,0 -1,0 -2,1 -4,1 -2,1 -3,2 -4,2 -1,1 -1,2 -2,2 0,1 0,2 -1,2 0,1 1,2 1,2 0,1 0,1 1,2 0,0 1,0 2,0 1,0 2,0 3,0 1,0 2,-1 4,-1zm9 22c-2,1 -3,1 -5,1 -2,1 -3,1 -4,0 -2,0 -3,-1 -4,-2 0,0 -1,-1 -2,-3 0,-1 0,-2 0,-3 0,-1 0,-2 1,-4 0,-1 1,-2 3,-3 1,-1 3,-2 4,-2 2,-1 4,-2 6,-2 1,0 3,0 4,0 1,1 2,1 3,2 1,1 2,2 2,3 1,1 1,2 1,4 0,1 0,2 -1,3 -1,1 -2,2 -3,3 -1,1 -3,2 -5,3zm-1 -4c1,-1 3,-1 4,-2 0,-1 1,-1 2,-2 0,-1 0,-1 0,-2 0,-1 0,-1 0,-2 0,0 0,-1 -1,-1 0,-1 -1,-1 -2,-1 -1,0 -2,0 -3,0 -1,0 -2,1 -4,1 -2,1 -3,2 -4,2 -1,1 -1,2 -2,2 0,1 -1,2 -1,2 0,1 0,2 1,2 0,1 0,1 1,2 0,0 1,0 2,0 0,1 1,1 2,0 2,0 3,0 5,-1zm12 15c-1,1 -2,1 -3,1 0,0 -1,0 -2,-1 0,0 -1,-1 -1,-1 -1,-1 -1,-1 -2,-2 0,-1 0,-2 0,-2 0,-1 0,-2 1,-2 0,-1 1,-2 1,-2 1,-1 2,-1 2,-1 1,0 2,-1 3,-1 1,0 2,1 2,1 1,0 1,1 2,1 0,1 1,1 1,2 0,1 0,2 0,2 0,1 0,2 0,3 -1,0 -1,1 -2,1 0,1 -1,1 -2,1zm-1 -3c1,0 1,0 1,0 1,-1 1,-1 1,-1 0,0 1,-1 1,-1 0,0 0,-1 -1,-1 0,0 0,-1 0,-1 0,0 -1,0 -1,0 0,0 -1,0 -1,0 0,0 -1,0 -2,0 0,0 -1,0 -1,1 0,0 -1,0 -1,0 0,1 0,1 0,1 0,1 0,1 0,1 0,0 0,1 0,1 1,0 1,0 1,1 1,0 1,0 1,0 1,0 1,0 2,-1zm8 10c1,0 1,0 1,0 0,0 0,0 0,1l1 2 -28 -9c0,0 0,-1 0,-1 0,0 -1,0 -1,0l-1 -3 28 10zm-15 10c-1,1 -2,1 -2,1 -1,0 -2,-1 -3,-1 0,0 -1,-1 -1,-1 -1,-1 -1,-1 -1,-2 -1,-1 -1,-2 -1,-2 0,-1 1,-2 1,-2 0,-1 1,-2 1,-2 1,-1 2,-1 3,-1 1,-1 1,-1 2,-1 1,0 2,1 2,1 1,0 2,1 2,1 1,1 1,1 1,2 0,1 1,2 0,2 0,1 0,2 0,3 0,0 -1,1 -2,1 0,1 -1,1 -2,1zm-1 -3c1,0 1,0 2,0 0,-1 0,-1 0,-1 1,0 1,-1 1,-1 0,0 0,-1 0,-1 0,0 -1,-1 -1,-1 0,0 0,0 -1,0 0,0 0,-1 -1,0 0,0 -1,0 -1,0 -1,0 -1,0 -2,0 0,1 0,1 -1,1 0,1 0,1 0,1 0,0 0,1 0,1 0,0 0,1 1,1 0,0 0,0 0,1 1,0 1,0 2,0 0,0 0,0 1,-1zm7 8c3,-1 5,-2 7,-3 2,-1 3,-3 5,-4 0,0 0,-1 1,-1 0,0 0,0 0,0 0,0 0,0 0,0 0,0 1,1 1,1l1 1c-1,1 -2,2 -3,3 -1,1 -2,2 -3,3 -1,0 -2,1 -4,2 -1,0 -2,1 -4,1 -1,0 -2,1 -4,1 -1,0 -2,0 -4,0 -1,0 -2,0 -4,0 -1,0 -3,0 -4,-1l1 -2c0,0 0,0 0,0 0,0 0,-1 0,-1 0,0 0,0 0,0 1,0 1,0 1,0 2,1 4,1 7,1 2,0 4,-1 6,-1z"/>
   <g>
    <path class="fil8" d="M512 511c-38,22 -51,70 -29,107 22,38 70,51 107,29 38,-22 51,-70 29,-107 -22,-38 -70,-50 -107,-29z"/>
    <polygon class="fil8" points="586,623 821,423 531,527 "/>
    <path class="fil9" d="M533 548c-18,10 -24,32 -13,49 10,18 32,24 49,14 18,-10 24,-33 14,-50 -10,-17 -33,-23 -50,-13z"/>
   </g>
  </g>
 </g>
</svg>
