<?xml version="1.0" encoding="UTF-8"?>
<!DOCTYPE svg PUBLIC "-//W3C//DTD SVG 1.1//EN" "http://www.w3.org/Graphics/SVG/1.1/DTD/svg11.dtd">
<!-- Creator: CorelDRAW X7 -->
<svg xmlns="http://www.w3.org/2000/svg" xml:space="preserve" width="2.51954in" height="1.49531in" version="1.1" style="shape-rendering:geometricPrecision; text-rendering:geometricPrecision; image-rendering:optimizeQuality; fill-rule:evenodd; clip-rule:evenodd"
viewBox="0 0 15652 9289"
 xmlns:xlink="http://www.w3.org/1999/xlink">
 <defs>
  <style type="text/css">
   <![CDATA[
    .str0 {stroke:white;stroke-width:124.245}
    .fil0 {fill:none}
    .fil7 {fill:#00B050}
    .fil6 {fill:#92D050}
    .fil4 {fill:#F8BB32}
    .fil9 {fill:#E4E4E5;fill-rule:nonzero}
    .fil8 {fill:#504C4B;fill-rule:nonzero}
    .fil3 {fill:#00B050;fill-rule:nonzero}
    .fil2 {fill:#92D050;fill-rule:nonzero}
    .fil1 {fill:#F8BB32;fill-rule:nonzero}
    .fil5 {fill:white;fill-rule:nonzero}
   ]]>
  </style>
 </defs>
 <g id="Layer_x0020_1">
  <metadata id="CorelCorpID_0Corel-Layer"/>
  <g id="_2851351889424">
   <polygon class="fil0 str0" points="9766,4754 11544,1674 "/>
   <path class="fil1" d="M335 5565l-177 5c-8,1 -17,1 -28,1 -10,0 -22,-1 -34,-1 10,6 20,13 28,19 9,6 17,12 23,17l138 110 50 -151zm230 -96l-22 68c-3,7 -7,13 -12,17 -6,3 -12,5 -18,6l-109 3 -65 196 85 68c5,3 8,8 11,14 2,7 2,14 0,21l-23 69 -412 -344 30 -90 535 -28zm-292 -594l387 375 -32 77 -538 0 28 -69c3,-8 7,-13 13,-16 5,-4 12,-5 18,-5l327 5c10,0 22,1 34,2 12,1 25,3 38,4 -11,-7 -21,-14 -31,-22 -10,-7 -18,-15 -26,-22l-238 -223c-4,-3 -7,-9 -9,-15 -2,-7 -2,-14 1,-21l28 -70zm144 -128l125 61 76 -157 64 31 -76 157 127 61 97 -199 66 32 -137 284 -449 -218 137 -283 67 32 -97 199zm360 -350c9,-15 15,-29 17,-43 3,-13 3,-25 0,-37 -2,-11 -7,-21 -14,-29 -7,-9 -16,-17 -27,-23 -22,-13 -43,-15 -63,-7 -20,7 -39,26 -56,56l-29 52 144 82 28 -51zm346 -77l-42 72c-8,14 -19,21 -33,21l-191 12c-7,1 -13,2 -17,5 -5,3 -9,8 -14,16l-20 35 170 96 -46 81 -434 -247 76 -133c17,-29 34,-52 52,-70 18,-18 37,-30 55,-37 19,-7 38,-10 57,-8 19,3 37,9 56,20 14,8 27,18 37,30 11,11 19,24 25,38 6,15 10,30 11,46 1,17 0,34 -4,52 6,-4 12,-7 19,-9 6,-2 13,-3 21,-3l222 -17zm5 -370l-174 -35c-8,-1 -17,-3 -27,-6 -10,-2 -21,-5 -33,-9 8,9 16,17 23,26 7,8 13,15 18,22l110 137 83 -135zm246 -42l-38 62c-4,6 -9,11 -15,13 -6,2 -12,3 -19,2l-106 -21 -108 176 67 85c4,4 6,10 7,17 1,7 0,13 -4,20l-38 62 -324 -428 50 -81 528 93zm59 -507l164 116c1,32 -3,61 -13,90 -9,28 -23,56 -42,82 -24,34 -50,60 -80,80 -29,19 -60,32 -91,38 -32,6 -65,6 -98,-2 -33,-8 -64,-22 -94,-44 -31,-21 -56,-46 -74,-74 -19,-28 -31,-58 -36,-89 -6,-32 -4,-64 4,-97 8,-33 24,-66 47,-99 12,-16 24,-31 37,-43 13,-13 26,-24 39,-33 13,-9 27,-16 40,-22 14,-5 28,-9 42,-12l19 46c3,7 3,14 1,20 -3,6 -9,11 -17,15 -8,4 -16,7 -24,11 -8,4 -16,8 -24,14 -8,6 -16,13 -24,21 -9,9 -17,19 -26,31 -14,20 -24,41 -29,62 -4,21 -4,42 0,62 5,20 14,40 27,59 13,18 31,35 52,51 24,16 47,28 70,34 23,6 45,8 66,4 22,-3 42,-10 60,-23 19,-12 36,-29 51,-50 10,-15 18,-30 23,-44 6,-14 9,-28 12,-43l-74 -53 -36 52c-4,5 -8,7 -12,8 -5,1 -9,0 -13,-3l-43 -30 96 -135zm-11 -264l108 87 110 -136 55 45 -109 136 110 88 139 -172 57 46 -197 245 -389 -313 198 -245 57 46 -139 173z"/>
   <path class="fil2" d="M7141 270l23 200c-23,22 -49,38 -76,50 -28,12 -58,19 -90,23 -41,5 -78,2 -112,-7 -34,-8 -64,-23 -90,-43 -26,-19 -47,-44 -63,-74 -16,-30 -26,-63 -30,-100 -4,-37 -2,-72 7,-104 8,-33 23,-61 42,-86 20,-25 45,-46 76,-61 30,-16 65,-27 105,-31 20,-2 39,-3 57,-2 17,2 34,4 50,8 15,4 30,9 43,16 13,7 25,14 37,23l-22 44c-3,8 -8,12 -15,14 -6,3 -13,2 -22,-2 -8,-4 -16,-7 -24,-11 -8,-3 -17,-6 -26,-8 -10,-2 -21,-4 -32,-4 -12,-1 -26,-1 -41,1 -24,3 -46,9 -65,20 -19,10 -34,24 -46,41 -13,17 -21,36 -26,58 -6,23 -7,47 -4,74 3,28 10,53 21,74 11,22 24,39 41,53 16,14 35,24 57,29 22,6 45,8 71,5 18,-2 34,-6 48,-11 14,-6 28,-13 41,-21l-10 -90 -63 7c-6,1 -11,0 -14,-3 -4,-3 -6,-7 -7,-12l-5 -52 164 -18zm583 -25c2,37 -3,71 -14,102 -11,32 -27,60 -48,83 -21,24 -47,43 -77,57 -31,14 -65,22 -103,23 -38,2 -72,-3 -104,-15 -31,-11 -59,-28 -82,-50 -23,-22 -41,-48 -55,-79 -13,-30 -21,-64 -22,-100 -2,-37 3,-71 14,-103 11,-31 27,-59 48,-83 22,-23 47,-42 78,-56 30,-14 65,-22 102,-23 26,-1 49,0 72,5 23,5 43,13 62,23 19,10 37,22 52,37 16,14 29,31 40,49 11,19 20,39 26,61 7,22 10,45 11,69zm-95 4c-1,-27 -5,-52 -14,-73 -8,-22 -19,-40 -33,-54 -15,-15 -31,-26 -51,-33 -20,-7 -42,-10 -66,-10 -25,1 -47,6 -66,15 -19,9 -35,21 -48,37 -13,16 -23,35 -29,57 -7,22 -9,46 -8,74 1,27 6,52 14,73 8,21 19,39 34,54 14,14 31,25 51,33 20,7 42,10 66,9 24,-1 46,-6 65,-15 19,-9 35,-21 48,-37 13,-15 23,-34 29,-56 7,-22 9,-47 8,-74zm673 16c-1,37 -9,71 -22,101 -13,31 -32,57 -55,79 -23,22 -50,38 -81,50 -32,11 -67,17 -105,15 -37,-2 -71,-9 -102,-23 -31,-14 -56,-33 -78,-57 -21,-24 -37,-51 -48,-83 -11,-32 -16,-66 -14,-102 1,-37 9,-70 22,-101 14,-31 32,-57 55,-79 23,-22 51,-38 82,-50 32,-11 66,-16 104,-15 25,1 49,5 71,12 22,7 42,16 60,27 19,12 35,25 49,41 14,16 26,34 36,53 9,19 16,40 21,62 4,23 6,46 5,70zm-95 -3c1,-28 -1,-53 -8,-75 -6,-22 -16,-40 -29,-56 -13,-16 -29,-28 -48,-37 -19,-9 -41,-14 -65,-15 -24,-1 -47,2 -66,10 -20,7 -37,18 -51,32 -15,15 -26,33 -34,54 -8,22 -13,46 -14,74 -1,27 1,52 8,74 6,22 16,41 29,56 13,16 29,28 48,37 20,9 41,14 66,15 24,1 46,-2 66,-10 20,-7 36,-18 51,-32 14,-15 25,-33 33,-54 9,-22 13,-46 14,-73zm634 57c-4,36 -14,69 -29,98 -15,29 -35,53 -60,73 -24,20 -52,34 -84,43 -33,9 -67,11 -105,7l-189 -20 52 -496 190 20c37,4 71,13 101,29 29,15 54,35 73,60 20,24 34,52 43,83 9,32 12,66 8,103zm-95 -11c3,-27 2,-52 -3,-74 -5,-22 -13,-42 -25,-58 -12,-17 -28,-30 -46,-40 -19,-10 -40,-16 -64,-19l-97 -10 -37 349 97 11c24,2 46,0 66,-6 20,-6 38,-15 53,-29 16,-13 28,-31 37,-51 10,-21 16,-45 19,-73z"/>
   <path class="fil3" d="M13749 2722l-102 94 119 129 -53 48 -118 -129 -104 96 150 163 -55 50 -213 -232 368 -337 213 232 -55 50 -150 -164zm144 830l-58 -72c-4,-5 -6,-10 -6,-15 0,-5 1,-10 3,-14l77 -210c-6,2 -11,3 -16,4l-207 24c-5,1 -9,0 -14,0 -5,-1 -9,-3 -13,-8l-54 -67 304 -32 88 -276 58 72c5,5 7,9 7,12 1,4 0,7 -1,12l-72 203c6,-2 13,-3 19,-4l193 -22c5,-1 9,-1 13,0 3,1 7,4 9,7l56 69 -286 25 -100 292zm318 242c3,4 4,9 3,14l-11 53c-33,-2 -63,-11 -91,-28 -27,-16 -53,-41 -77,-75 -22,-30 -36,-61 -42,-93 -7,-31 -7,-62 -1,-92 6,-30 19,-59 38,-86 19,-27 44,-51 74,-73 31,-21 63,-36 95,-45 32,-8 64,-9 95,-5 31,5 60,16 88,34 27,17 52,41 73,71 21,29 35,59 41,89 6,30 7,58 3,86l-53 -1c-3,0 -7,0 -10,-1 -3,-1 -7,-4 -9,-8 -2,-3 -4,-7 -4,-11 -1,-4 -1,-9 -1,-14 0,-5 -1,-11 -1,-18 -1,-6 -2,-14 -4,-21 -2,-8 -5,-17 -9,-26 -4,-9 -10,-19 -18,-30 -13,-18 -28,-33 -45,-43 -17,-11 -36,-17 -56,-20 -20,-2 -41,0 -63,7 -22,6 -44,18 -67,34 -23,16 -41,34 -54,53 -13,19 -22,38 -27,58 -4,20 -4,39 0,59 4,20 12,38 24,55 8,11 15,20 22,27 7,8 14,14 22,20 7,5 15,9 23,13 8,3 18,6 28,9 3,0 5,1 8,3 2,1 4,3 6,5zm374 7l-116 76 96 146 -60 39 -96 -146 -118 78 122 185 -62 41 -173 -264 418 -273 172 263 -62 41 -121 -186zm17 707l-67 38 -145 -254 434 -247 46 80 -367 210 99 173zm167 320l-68 36 -136 -259 442 -232 43 83 -374 196 93 176zm385 9l-126 56 70 160 -65 29 -71 -160 -129 58 90 202 -68 30 -127 -287 456 -203 127 288 -67 30 -90 -203zm350 672l-468 172 -16 -44c-3,-7 -4,-13 -3,-19 0,-5 2,-11 6,-17l222 -360c-14,6 -27,12 -39,16l-287 107 -29 -77 469 -173 16 46c2,3 3,7 3,9 1,3 1,6 1,8 0,3 -1,5 -2,8 -1,2 -3,5 -5,9l-223 361c8,-3 15,-7 22,-10 7,-3 14,-6 20,-8l285 -105 28 77zm75 492l-43 -144 -405 119 -26 -89 405 -119 -42 -145 73 -21 111 378 -73 21z"/>
   <path class="fil4 str0" d="M4000 1674c-2255,1305 -3771,3742 -3771,6534l3555 0c0,-1476 802,-2765 1994,-3454l-1778 -3080z"/>
   <path class="fil5" d="M1393 5421c30,13 61,23 93,29 32,6 63,8 95,5 3,0 6,1 8,1 3,1 4,2 6,4 1,1 2,3 3,4 1,2 1,4 1,6l4 30c-21,3 -42,5 -62,5 -20,0 -39,-2 -58,-4 -19,-3 -38,-8 -56,-13 -18,-6 -37,-13 -55,-21 -18,-8 -35,-17 -51,-27 -17,-10 -32,-22 -47,-34 -14,-12 -28,-26 -42,-41 -13,-15 -25,-31 -37,-50l25 -17c2,-1 4,-2 5,-2 2,-1 4,-1 6,-1 2,0 4,1 6,2 2,1 4,3 7,6 19,25 41,47 66,67 26,21 54,38 83,51zm119 -308c27,13 49,27 66,42 18,16 30,32 38,48 8,17 12,33 12,50 -1,17 -5,34 -13,50 -7,16 -18,29 -31,40 -13,11 -28,18 -46,22 -18,4 -38,4 -61,0 -22,-4 -47,-13 -74,-26 -27,-13 -49,-27 -66,-42 -17,-15 -30,-31 -38,-47 -8,-17 -12,-33 -11,-50 0,-17 4,-34 12,-50 7,-16 18,-29 31,-40 13,-11 28,-18 46,-22 18,-4 38,-4 61,0 23,3 47,12 74,25zm-26 54c-22,-10 -42,-18 -58,-21 -16,-4 -30,-6 -41,-4 -11,1 -21,4 -28,10 -7,5 -12,12 -16,20 -3,7 -5,15 -5,24 0,9 3,18 9,27 6,10 16,20 29,30 13,11 31,21 53,32 23,11 42,18 58,22 17,4 30,5 42,4 11,-1 20,-5 27,-10 7,-5 12,-12 16,-19 3,-8 5,-16 5,-25 0,-9 -3,-18 -9,-28 -6,-9 -16,-19 -29,-30 -13,-10 -30,-21 -53,-32zm50 -94l58 -108 43 23 -58 108 -43 -23zm86 -267l7 17c0,-7 2,-15 4,-23 2,-7 5,-15 9,-22 7,-12 15,-22 24,-31 10,-8 21,-15 33,-19 12,-4 25,-5 39,-4 14,2 28,6 43,15 14,7 26,17 35,29 10,12 17,25 21,39 4,15 5,30 3,46 -2,16 -8,32 -16,47 -9,16 -20,29 -32,39 -12,10 -25,17 -39,21 -15,4 -30,5 -45,2 -16,-2 -31,-8 -47,-16 -14,-8 -27,-19 -39,-33 -12,-14 -22,-31 -32,-52l-56 -125c-2,-4 -3,-10 -3,-16 1,-6 3,-12 6,-18l25 -46 60 150zm159 72c5,-8 7,-16 8,-25 1,-8 1,-16 -1,-24 -3,-7 -7,-14 -12,-21 -5,-6 -11,-12 -19,-16 -9,-5 -17,-8 -26,-9 -8,-1 -16,-1 -23,2 -8,2 -15,6 -21,11 -6,5 -11,12 -16,20 -4,9 -7,17 -8,25 -1,8 0,16 2,23 2,8 6,15 11,21 6,6 12,12 20,16 8,4 16,7 25,9 8,1 15,1 23,0 7,-2 14,-6 20,-11 7,-5 12,-12 17,-21zm95 -414c26,16 46,32 62,49 15,17 26,34 33,51 6,17 8,34 6,51 -2,17 -7,33 -17,48 -9,15 -21,28 -35,37 -14,9 -30,15 -48,17 -18,2 -38,0 -60,-6 -22,-6 -46,-17 -72,-32 -25,-16 -46,-32 -61,-49 -16,-17 -27,-34 -33,-51 -7,-17 -9,-34 -7,-51 2,-16 7,-32 17,-47 9,-16 21,-28 35,-38 14,-9 30,-15 48,-17 18,-2 38,0 61,6 22,6 46,16 71,32zm-31 52c-22,-13 -40,-22 -56,-28 -16,-5 -29,-8 -41,-8 -11,1 -21,3 -28,8 -7,5 -13,11 -18,18 -4,7 -7,15 -7,24 -1,8 1,18 6,28 5,10 14,21 26,32 12,12 29,24 50,37 21,13 39,22 55,28 16,5 30,8 41,8 11,0 21,-3 28,-8 7,-4 13,-10 18,-17 4,-8 7,-16 8,-24 0,-9 -2,-19 -7,-29 -5,-10 -13,-21 -25,-33 -12,-11 -29,-23 -50,-36zm69 -267c11,7 19,16 25,25 6,10 10,19 12,30 2,10 2,20 0,30 -3,10 -7,20 -13,28 -6,10 -14,17 -23,23 -8,6 -18,9 -28,11 -10,1 -20,1 -31,-2 -11,-3 -22,-8 -32,-15 -11,-7 -20,-16 -27,-25 -6,-10 -11,-19 -13,-29 -2,-10 -2,-21 0,-31 3,-10 7,-20 13,-29 7,-10 15,-17 23,-23 9,-6 19,-9 29,-11 10,-1 21,-1 32,2 11,3 22,8 33,16zm-26 37c-7,-5 -14,-9 -20,-11 -6,-2 -12,-3 -17,-3 -5,1 -9,2 -13,5 -3,2 -7,6 -9,9 -3,4 -5,8 -6,13 -1,4 -1,9 1,13 1,5 4,9 8,14 4,5 10,10 18,16 7,5 13,8 19,10 6,2 12,3 16,2 5,0 9,-1 13,-4 3,-2 6,-5 9,-9 3,-4 5,-8 6,-13 1,-4 1,-9 0,-13 -2,-5 -4,-10 -8,-14 -4,-5 -10,-10 -17,-15zm30 -173c-1,-3 -1,-6 -1,-10 0,-3 1,-7 4,-11l25 -35 130 400c1,3 1,6 1,9 -1,4 -2,7 -4,10l-25 36 -130 -399zm254 78c10,8 19,16 25,26 6,9 10,19 12,29 2,10 2,21 -1,31 -2,10 -6,19 -12,28 -6,9 -14,17 -23,23 -8,5 -18,9 -28,10 -10,2 -20,1 -31,-1 -11,-3 -22,-8 -32,-15 -11,-8 -20,-16 -27,-26 -6,-9 -11,-19 -13,-29 -2,-10 -2,-20 0,-30 2,-10 7,-20 13,-30 7,-9 14,-17 23,-22 9,-6 19,-10 29,-11 10,-2 20,-1 32,2 11,3 22,8 33,15zm-26 38c-8,-6 -14,-9 -21,-11 -6,-2 -11,-3 -16,-3 -5,0 -9,2 -13,4 -4,3 -7,6 -10,10 -2,4 -4,8 -5,12 -1,5 -1,9 1,14 1,4 4,9 8,14 4,5 10,10 17,15 8,5 14,9 20,11 6,2 11,3 16,2 5,0 9,-2 13,-4 3,-3 6,-6 9,-10 3,-4 5,-8 6,-12 1,-4 1,-9 0,-13 -2,-5 -4,-10 -8,-15 -4,-4 -10,-9 -17,-14zm20 -147c-25,-19 -53,-36 -83,-48 -30,-13 -61,-22 -91,-27 -4,0 -7,-1 -9,-3 -2,-1 -4,-2 -5,-4 -1,-2 -2,-3 -2,-5 0,-2 0,-4 0,-6l4 -30c21,1 41,4 61,9 19,4 38,10 56,17 18,7 35,15 52,25 16,9 32,20 48,32 16,12 31,25 44,38 14,13 27,28 38,43 12,15 22,32 32,49 10,18 18,37 25,57l-28 11c-2,1 -4,1 -6,2 -2,0 -3,0 -5,-1 -2,0 -4,-2 -6,-3 -2,-2 -3,-4 -5,-8 -13,-28 -30,-55 -50,-80 -20,-25 -44,-48 -70,-68z"/>
   <path class="fil6 str0" d="M9766 4754l1778 -3080c-1109,-642 -2398,-1009 -3772,-1009 -1373,0 -2661,367 -3770,1008l-2 1 1778 3080c586,-340 1267,-534 1994,-534 727,0 1408,194 1994,534z"/>
   <path class="fil5" d="M6664 1339c5,32 14,64 26,93 13,30 29,58 48,83 2,3 3,5 4,8 0,2 0,4 0,6 0,2 -1,4 -2,5 -1,2 -3,3 -4,5l-23 19c-15,-16 -27,-32 -38,-49 -11,-17 -21,-34 -29,-51 -8,-18 -14,-36 -20,-54 -5,-18 -9,-37 -12,-57 -3,-19 -5,-39 -5,-58 -1,-19 0,-38 2,-58 3,-19 7,-38 12,-57 5,-19 12,-38 21,-58l28 11c2,1 4,2 5,3 2,1 3,3 4,4 1,2 1,4 2,7 0,2 -1,5 -2,9 -10,29 -17,60 -20,92 -3,33 -2,65 3,97zm182 -98l-10 16c6,-4 13,-7 20,-10 8,-3 16,-4 25,-5 13,-2 25,-1 38,2 13,3 24,8 34,15 11,8 19,18 26,30 8,12 12,26 14,43 2,16 1,31 -4,46 -4,14 -11,28 -20,39 -9,12 -21,21 -35,29 -15,8 -31,12 -49,14 -18,2 -34,1 -50,-3 -15,-4 -28,-11 -39,-20 -12,-9 -21,-21 -28,-35 -7,-14 -12,-30 -14,-48 -2,-16 0,-33 4,-51 5,-17 13,-36 25,-56l69 -118c2,-4 6,-8 11,-11 5,-3 11,-5 18,-6l52 -6 -87 135zm33 172c9,-1 18,-4 25,-8 7,-4 14,-9 19,-15 4,-6 8,-14 10,-22 3,-8 3,-16 2,-25 -1,-10 -3,-18 -7,-26 -4,-7 -9,-13 -15,-18 -6,-5 -13,-8 -21,-10 -8,-2 -17,-3 -26,-2 -10,1 -18,4 -25,8 -7,4 -13,9 -18,15 -5,6 -8,13 -10,21 -2,8 -3,17 -2,26 1,9 4,17 7,25 3,7 8,14 14,19 6,5 12,8 20,10 8,2 17,3 27,2zm382 -39l4 43 -188 20 -5 -44 69 -7 -20 -199c-1,-8 -2,-16 -2,-24l-45 46c-3,3 -5,4 -8,5 -3,1 -5,1 -8,1 -2,0 -4,-1 -6,-2 -2,-1 -4,-2 -5,-3l-21 -24 95 -99 48 -5 31 298 61 -6zm199 -225c0,13 -1,25 -5,35 -4,11 -9,20 -16,28 -7,7 -15,14 -25,18 -9,4 -19,7 -30,7 -11,1 -22,-1 -31,-4 -10,-4 -19,-9 -26,-16 -8,-7 -14,-16 -18,-26 -4,-10 -7,-22 -7,-35 -1,-13 0,-25 4,-36 3,-11 8,-20 15,-28 7,-8 15,-14 24,-18 10,-5 20,-7 31,-8 12,0 23,1 32,5 10,3 19,9 26,16 8,7 14,16 18,26 5,11 7,23 8,36zm-45 2c-1,-9 -2,-17 -4,-23 -2,-6 -5,-11 -8,-14 -3,-4 -7,-7 -11,-8 -5,-2 -9,-2 -14,-2 -5,0 -9,1 -13,3 -4,2 -7,5 -10,9 -3,4 -5,9 -6,15 -2,6 -2,14 -2,23 0,9 2,16 4,22 2,6 4,11 7,14 3,4 7,6 11,8 4,1 9,2 14,1 4,0 9,-1 13,-3 4,-1 8,-4 10,-8 3,-4 6,-9 7,-15 2,-6 2,-13 2,-22zm155 -81c2,-2 5,-5 7,-7 3,-2 7,-3 12,-3l43 -2 -240 346c-1,2 -4,4 -7,6 -2,2 -6,3 -10,3l-44 2 239 -345zm92 249c0,13 -1,25 -5,36 -4,10 -9,19 -16,27 -7,8 -15,14 -25,18 -9,5 -19,7 -30,8 -11,0 -22,-1 -32,-5 -9,-3 -18,-9 -25,-16 -8,-7 -14,-15 -18,-26 -4,-10 -7,-21 -8,-34 0,-14 1,-26 5,-37 3,-11 8,-20 15,-28 7,-8 15,-14 24,-18 10,-5 20,-7 31,-8 12,0 22,1 32,5 10,4 19,9 26,16 8,7 14,16 18,26 5,11 7,23 8,36zm-46 2c0,-9 -1,-16 -3,-23 -2,-6 -5,-10 -8,-14 -3,-4 -7,-6 -11,-8 -5,-1 -9,-2 -14,-2 -5,1 -9,2 -13,3 -4,2 -8,5 -10,9 -3,4 -5,9 -7,15 -1,7 -2,14 -1,23 0,9 2,17 3,23 2,6 5,10 8,14 3,3 7,6 11,7 4,1 9,2 13,2 5,0 10,-1 14,-3 4,-2 7,-5 10,-8 3,-4 5,-9 7,-15 1,-6 2,-14 1,-23zm92 -86l123 -2 1 49 -123 1 -1 -48zm292 126c9,0 18,-1 25,-4 7,-2 14,-6 19,-11 5,-5 9,-10 11,-17 3,-7 5,-14 5,-22 0,-19 -4,-33 -15,-43 -10,-10 -24,-15 -42,-16 -19,0 -33,4 -44,14 -11,9 -16,23 -17,42 0,8 1,15 3,22 3,7 6,13 11,18 5,5 11,9 18,12 7,3 16,4 26,5zm7 -261c-9,0 -17,1 -23,3 -6,3 -12,6 -16,11 -4,4 -8,9 -10,15 -2,6 -3,12 -3,19 0,6 0,13 2,19 1,7 4,13 8,18 4,5 9,9 15,12 6,3 14,5 24,5 9,1 17,-1 24,-4 7,-2 12,-6 16,-11 4,-5 7,-11 9,-17 2,-6 3,-13 3,-20 0,-6 -1,-12 -3,-18 -2,-6 -5,-12 -9,-16 -4,-5 -9,-8 -15,-11 -6,-3 -14,-5 -22,-5zm54 125c21,8 36,19 46,33 9,14 14,31 13,52 0,15 -4,29 -10,41 -6,12 -14,22 -25,31 -11,8 -23,14 -38,19 -15,4 -31,6 -49,5 -17,0 -34,-3 -48,-8 -15,-5 -27,-12 -37,-21 -10,-9 -18,-20 -24,-32 -5,-13 -7,-27 -7,-42 1,-20 6,-37 16,-51 11,-14 26,-24 47,-30 -16,-7 -28,-17 -36,-30 -8,-13 -12,-29 -11,-47 0,-13 3,-25 9,-36 5,-11 13,-21 23,-29 9,-8 21,-14 34,-18 14,-5 28,-7 44,-6 16,0 30,3 43,8 13,5 24,12 34,20 9,9 16,19 21,30 5,12 7,24 7,37 0,18 -5,33 -14,46 -8,12 -21,22 -38,28zm348 29c-2,30 -7,56 -14,77 -8,22 -18,40 -30,53 -12,14 -26,24 -42,30 -16,6 -33,9 -51,8 -17,-1 -34,-6 -48,-14 -15,-8 -28,-19 -38,-34 -11,-15 -18,-34 -23,-56 -6,-23 -7,-49 -5,-78 1,-30 6,-56 13,-78 8,-21 18,-39 30,-53 12,-14 26,-24 42,-30 15,-6 32,-8 50,-7 18,1 34,5 49,13 15,8 28,19 38,34 11,15 18,34 24,56 5,23 6,49 5,79zm-61 -3c2,-25 1,-46 -2,-62 -2,-17 -6,-30 -12,-40 -6,-10 -12,-17 -20,-22 -7,-4 -16,-6 -24,-7 -8,0 -17,1 -25,5 -8,3 -15,9 -22,19 -6,9 -12,22 -16,38 -5,16 -8,36 -9,61 -2,25 -1,45 2,62 2,16 6,30 12,40 5,10 12,17 19,21 8,4 16,7 24,7 9,1 17,-1 25,-4 8,-4 16,-10 22,-19 7,-9 13,-22 17,-38 5,-16 8,-37 9,-61zm267 -60c-1,13 -5,24 -10,34 -6,10 -12,18 -21,24 -8,7 -17,12 -27,14 -10,3 -20,4 -30,3 -12,-1 -22,-5 -31,-10 -9,-5 -17,-11 -23,-19 -6,-8 -11,-18 -13,-29 -3,-10 -4,-22 -2,-35 1,-13 5,-25 10,-35 5,-11 11,-19 19,-26 8,-6 17,-11 27,-14 10,-3 21,-4 32,-2 11,1 22,4 31,9 9,5 17,12 23,20 6,8 11,18 13,29 3,11 4,23 2,37zm-45 -5c1,-10 1,-17 0,-24 -1,-6 -3,-11 -5,-15 -3,-4 -6,-8 -10,-10 -4,-2 -9,-3 -13,-4 -5,0 -9,0 -14,1 -4,2 -8,4 -11,7 -3,4 -6,8 -9,14 -2,6 -4,14 -5,23 -1,9 -1,16 0,22 1,6 3,11 5,15 3,4 6,7 10,9 4,2 8,4 13,4 5,1 9,0 14,-1 4,-1 8,-3 11,-6 4,-3 7,-8 9,-14 3,-5 4,-13 5,-21zm167 -56c2,-2 5,-4 8,-5 3,-2 7,-2 12,-2l42 5 -291 303c-2,3 -5,5 -8,6 -3,1 -6,2 -10,1l-44 -5 291 -303zm51 261c-2,13 -5,24 -11,34 -5,10 -12,18 -20,24 -8,7 -17,12 -27,15 -10,2 -20,3 -31,2 -11,-1 -21,-4 -31,-9 -9,-5 -16,-12 -22,-20 -7,-8 -11,-18 -14,-29 -3,-10 -3,-22 -2,-35 2,-13 5,-25 10,-35 5,-11 12,-19 20,-26 7,-6 16,-11 26,-14 10,-3 21,-4 32,-2 12,1 22,4 31,9 9,5 17,12 23,20 6,8 11,18 14,29 3,11 3,24 2,37zm-45 -5c1,-9 1,-17 0,-24 -1,-6 -3,-11 -6,-15 -2,-4 -6,-7 -10,-10 -4,-2 -8,-3 -13,-4 -5,0 -9,0 -13,1 -5,2 -8,4 -12,7 -3,4 -6,9 -8,14 -3,6 -5,14 -6,23 -1,9 -1,16 0,22 1,7 3,12 6,16 2,4 6,7 9,9 4,2 9,3 13,3 5,1 10,1 14,0 4,-1 8,-4 12,-7 3,-3 6,-8 9,-13 2,-6 4,-14 5,-22zm140 -47c6,-32 8,-64 5,-97 -2,-32 -8,-63 -17,-93 -2,-3 -2,-6 -2,-9 0,-2 1,-4 2,-6 1,-2 2,-3 4,-4 1,-1 3,-2 5,-3l28 -11c9,20 15,40 20,59 5,19 9,38 10,58 2,19 3,38 2,57 -1,19 -3,39 -7,58 -3,20 -8,38 -13,57 -6,18 -13,36 -21,53 -9,17 -18,34 -30,51 -11,16 -24,32 -39,48l-23 -20c-1,-1 -2,-3 -3,-4 -2,-2 -2,-4 -3,-6 0,-1 0,-4 1,-6 1,-2 2,-5 4,-8 20,-24 36,-52 49,-81 13,-30 23,-61 28,-93z"/>
   <path class="fil7 str0" d="M11544 1674c2255,1305 3772,3742 3772,6534l-3556 0c0,-1476 -802,-2765 -1994,-3454l1778 -3080z"/>
   <path class="fil5" d="M13282 3973c-26,20 -49,42 -69,68 -21,25 -38,52 -51,80 -1,3 -3,6 -5,8 -1,1 -3,2 -5,3 -2,1 -4,1 -6,0 -2,0 -3,0 -5,-1l-29 -11c8,-20 16,-39 26,-57 9,-17 20,-34 31,-49 12,-15 25,-30 38,-43 14,-14 29,-26 44,-38 16,-12 32,-23 49,-33 17,-9 34,-17 52,-24 18,-7 36,-13 56,-18 19,-4 40,-7 61,-8l3 30c1,2 1,4 0,5 0,2 -1,4 -2,6 -1,1 -2,3 -4,4 -2,1 -5,2 -9,3 -31,5 -61,14 -91,26 -30,13 -58,29 -84,49zm36 226c6,8 12,14 18,18 6,5 13,8 20,9 7,1 14,1 21,-1 7,-2 13,-5 20,-9 15,-11 24,-23 26,-37 2,-15 -2,-29 -12,-44 -11,-15 -23,-24 -37,-27 -14,-4 -28,0 -44,11 -6,4 -12,10 -16,16 -4,6 -7,12 -8,19 -1,7 -1,14 1,22 2,7 6,15 11,23zm215 -149c-5,-7 -11,-12 -17,-16 -5,-3 -11,-6 -17,-7 -6,0 -13,0 -18,2 -6,1 -12,4 -17,8 -6,4 -11,8 -15,13 -5,5 -8,11 -9,17 -2,6 -3,12 -1,19 1,7 4,15 9,23 6,7 12,13 18,17 6,3 12,5 19,6 6,0 12,-1 18,-3 7,-2 12,-5 18,-9 5,-4 10,-8 14,-13 3,-5 6,-11 7,-17 2,-6 1,-12 0,-19 -1,-6 -4,-13 -9,-21zm-69 119c6,21 6,39 0,55 -6,16 -17,30 -33,42 -13,8 -26,14 -39,16 -14,3 -27,2 -40,-2 -13,-3 -26,-10 -38,-19 -12,-10 -24,-22 -34,-36 -10,-15 -17,-29 -21,-44 -5,-15 -6,-29 -5,-43 1,-13 5,-26 12,-37 7,-12 17,-22 29,-31 17,-12 34,-17 51,-17 17,0 34,7 52,20 -4,-17 -3,-33 3,-47 6,-14 16,-27 31,-37 11,-7 22,-12 34,-14 13,-2 25,-2 37,2 12,3 24,8 35,17 12,8 22,18 31,31 9,13 15,27 19,40 4,14 5,27 3,39 -1,13 -5,24 -11,35 -6,11 -15,20 -26,27 -14,11 -29,16 -45,16 -15,1 -30,-4 -45,-13zm71 346l-36 25 -105 -158 36 -25 39 58 166 -111c7,-4 14,-8 21,-13l-62 -18c-3,-1 -6,-3 -8,-5 -2,-2 -3,-4 -4,-6 -1,-2 -2,-5 -2,-7 0,-2 0,-4 1,-6l11 -29 132 38 27 40 -250 166 34 51zm295 65c-11,6 -22,11 -33,12 -12,2 -22,2 -32,-1 -10,-2 -20,-6 -28,-13 -8,-6 -15,-13 -21,-22 -6,-10 -10,-20 -11,-30 -2,-11 -1,-21 1,-30 3,-10 8,-20 14,-28 7,-9 16,-17 27,-24 12,-7 23,-11 34,-13 11,-3 22,-3 32,-1 10,3 19,7 28,13 8,6 16,14 21,24 6,9 10,19 12,30 1,10 1,20 -2,30 -2,10 -7,20 -14,29 -8,9 -17,17 -28,24zm-24 -39c8,-5 14,-9 19,-14 4,-5 7,-10 9,-14 1,-5 2,-9 1,-14 -1,-4 -2,-9 -5,-13 -2,-4 -5,-7 -9,-10 -4,-2 -8,-4 -12,-4 -5,-1 -11,0 -17,1 -6,2 -13,5 -21,10 -7,5 -13,9 -17,14 -5,4 -7,9 -9,13 -2,5 -2,9 -1,13 0,5 2,9 5,13 2,4 5,7 9,10 3,3 7,5 12,6 5,0 10,0 16,-2 6,-1 13,-4 20,-9zm146 98c3,0 6,1 10,2 3,2 5,5 8,9l22 36 -418 -43c-3,-1 -6,-2 -9,-3 -3,-2 -5,-4 -8,-8l-22 -37 417 44zm-174 199c-11,7 -23,11 -34,13 -11,2 -22,2 -32,-1 -10,-2 -19,-7 -27,-13 -9,-6 -16,-13 -21,-22 -6,-10 -10,-20 -12,-30 -1,-11 -1,-21 2,-31 3,-9 7,-19 14,-28 7,-8 16,-16 27,-23 11,-7 23,-11 34,-14 11,-2 22,-2 32,0 10,2 19,7 28,13 8,6 15,14 21,24 6,9 10,19 12,30 1,10 1,20 -2,30 -3,10 -8,19 -15,29 -7,9 -16,17 -27,23zm-24 -38c8,-5 14,-10 18,-14 5,-5 8,-10 9,-14 2,-5 2,-10 2,-14 -1,-4 -3,-9 -5,-13 -3,-4 -6,-7 -9,-10 -4,-2 -8,-4 -13,-5 -5,0 -10,0 -16,2 -6,2 -13,5 -21,10 -8,5 -14,9 -18,14 -4,4 -7,9 -9,13 -1,5 -2,9 -1,13 1,5 3,9 5,13 3,4 6,8 9,10 4,3 8,5 13,6 4,0 10,0 16,-2 6,-2 12,-5 20,-9zm120 44l58 108 -43 23 -58 -108 43 -23zm73 411l-40 19 -82 -171 39 -19 31 63 180 -87c7,-4 14,-7 22,-10l-59 -27c-3,-1 -5,-3 -7,-5 -2,-3 -3,-5 -4,-7 0,-3 0,-5 0,-7 0,-3 1,-4 1,-6l15 -28 126 56 21 43 -270 131 27 55zm239 215c-27,12 -52,20 -75,23 -22,3 -43,3 -60,-2 -18,-4 -33,-12 -46,-23 -13,-11 -23,-25 -31,-41 -7,-16 -11,-33 -10,-50 0,-16 4,-33 12,-49 9,-16 22,-32 39,-47 18,-15 40,-28 67,-41 28,-12 53,-20 76,-23 22,-3 42,-3 60,1 18,5 33,12 46,23 13,11 23,25 30,41 7,17 11,33 11,50 0,17 -4,34 -13,50 -8,16 -21,32 -39,47 -17,15 -39,28 -67,41zm-25 -56c23,-10 41,-20 54,-30 14,-10 23,-20 30,-29 6,-10 9,-19 10,-28 0,-9 -2,-17 -5,-25 -4,-7 -9,-14 -16,-19 -6,-6 -16,-9 -27,-11 -11,-1 -25,0 -41,3 -16,4 -36,10 -59,21 -22,10 -40,20 -54,30 -13,10 -23,20 -29,29 -6,10 -10,19 -10,27 0,9 1,17 5,25 3,8 8,14 15,20 7,6 16,9 27,11 12,1 26,0 42,-3 16,-3 36,-10 58,-21zm132 316c-27,11 -53,18 -75,21 -23,2 -43,1 -61,-4 -18,-5 -33,-14 -45,-25 -12,-12 -22,-26 -29,-42 -7,-17 -10,-34 -9,-50 1,-17 6,-34 15,-49 9,-16 23,-31 41,-46 18,-14 40,-26 68,-38 28,-11 53,-18 76,-21 23,-2 43,-1 60,4 18,5 33,13 45,25 13,11 22,25 29,42 7,16 10,33 9,50 -1,17 -6,33 -15,49 -9,16 -22,31 -40,45 -18,15 -41,28 -69,39zm-23 -56c23,-9 42,-19 55,-28 14,-10 24,-19 31,-29 7,-9 10,-18 11,-27 0,-9 -1,-17 -4,-25 -3,-8 -8,-14 -15,-20 -6,-6 -15,-10 -26,-12 -12,-2 -25,-1 -42,2 -16,3 -36,9 -59,18 -23,10 -41,19 -55,29 -14,9 -24,18 -31,28 -6,9 -10,18 -11,26 0,9 1,17 4,25 3,8 8,15 15,21 7,6 15,10 27,12 11,2 25,1 41,-2 17,-3 36,-9 59,-18zm174 218c-12,4 -24,6 -35,5 -12,-1 -22,-4 -31,-8 -9,-5 -17,-11 -24,-19 -7,-8 -12,-17 -15,-27 -4,-11 -5,-21 -4,-32 1,-10 3,-20 8,-29 5,-9 12,-17 20,-24 9,-7 20,-12 32,-16 13,-4 25,-6 36,-6 11,1 22,3 31,7 9,5 17,11 24,19 7,8 12,17 16,28 3,11 5,22 4,32 -1,10 -4,20 -9,29 -5,9 -11,17 -20,25 -9,7 -20,12 -33,16zm-14 -42c9,-3 16,-7 21,-10 5,-4 9,-8 12,-12 3,-4 4,-8 4,-13 1,-4 0,-9 -1,-13 -2,-5 -4,-9 -7,-12 -3,-4 -6,-6 -11,-8 -4,-1 -10,-2 -16,-2 -7,1 -14,2 -23,5 -8,3 -15,6 -20,9 -5,4 -9,8 -12,12 -2,3 -4,8 -4,12 0,4 1,9 2,13 1,5 4,9 6,12 3,4 7,7 11,8 5,2 10,3 16,3 6,0 14,-2 22,-4zm120 128c3,1 5,3 8,5 3,2 5,5 6,10l14 41 -397 -139c-3,-1 -6,-3 -9,-5 -2,-2 -4,-5 -5,-9l-14 -41 397 138zm-216 154c-13,4 -24,6 -36,5 -11,-1 -21,-4 -30,-8 -10,-5 -18,-11 -25,-19 -6,-8 -12,-17 -15,-27 -3,-11 -5,-21 -4,-32 1,-10 4,-20 9,-29 5,-9 11,-17 20,-24 9,-7 19,-12 32,-16 12,-4 24,-6 36,-6 11,1 21,3 31,7 9,5 17,11 24,19 7,8 12,17 15,28 4,11 5,21 4,32 0,10 -3,20 -8,29 -5,9 -12,17 -21,24 -9,8 -20,13 -32,17zm-14 -43c8,-3 15,-6 21,-9 5,-4 9,-8 12,-12 2,-4 4,-8 4,-13 0,-4 0,-9 -2,-13 -1,-5 -3,-9 -6,-12 -3,-4 -7,-6 -11,-8 -5,-1 -10,-2 -17,-2 -6,1 -14,2 -22,5 -9,3 -16,6 -21,9 -5,4 -9,7 -11,11 -3,4 -4,9 -4,13 -1,4 0,9 1,13 2,5 4,9 7,12 3,4 6,7 11,8 4,2 9,3 16,3 6,0 13,-2 22,-5zm103 102c31,-9 61,-22 89,-38 28,-17 53,-36 75,-58 3,-3 5,-5 8,-6 2,0 4,-1 6,-1 2,0 4,1 5,2 2,1 3,2 5,3l22 21c-14,16 -28,31 -43,44 -15,13 -31,25 -47,35 -16,10 -33,19 -51,27 -17,8 -36,14 -54,20 -19,6 -38,10 -57,13 -19,4 -38,5 -57,6 -20,0 -39,-1 -59,-4 -20,-3 -40,-7 -60,-13l7 -30c1,-2 1,-3 2,-5 1,-2 2,-3 4,-4 2,-1 4,-2 6,-3 2,0 5,0 9,1 31,6 62,8 95,7 32,-2 64,-7 95,-17z"/>
   <g>
    <path class="fil8" d="M6662 8180c0,613 497,1109 1110,1109 613,0 1110,-496 1110,-1109 0,-613 -497,-1110 -1110,-1110 -613,0 -1110,497 -1110,1110z"/>
    <polygon class="fil8" points="8552,8063 7772,3773 6992,8063 "/>
    <path class="fil9" d="M7257 8180c0,284 230,515 515,515 284,0 515,-231 515,-515 0,-285 -230,-515 -515,-515 -284,0 -515,230 -515,515z"/>
   </g>
  </g>
 </g>
</svg>
