<?xml version="1.0" encoding="UTF-8"?>
<!DOCTYPE svg PUBLIC "-//W3C//DTD SVG 1.1//EN" "http://www.w3.org/Graphics/SVG/1.1/DTD/svg11.dtd">
<!-- Creator: CorelDRAW X7 -->
<svg xmlns="http://www.w3.org/2000/svg" xml:space="preserve" width="3.89413in" height="1.81529in" version="1.1" style="shape-rendering:geometricPrecision; text-rendering:geometricPrecision; image-rendering:optimizeQuality; fill-rule:evenodd; clip-rule:evenodd"
viewBox="0 0 2372 1106"
 xmlns:xlink="http://www.w3.org/1999/xlink">
 <defs>
  <style type="text/css">
   <![CDATA[
    .str0 {stroke:#FEFEFE;stroke-width:4.23079}
    .fil6 {fill:#1F4286}
    .fil0 {fill:forestgreen}
    .fil1 {fill:#6DC470}
    .fil4 {fill:#F03939}
    .fil5 {fill:red}
    .fil3 {fill:#FF7E00}
    .fil2 {fill:#FFC201}
    .fil7 {fill:#FEFEFE;fill-rule:nonzero}
   ]]>
  </style>
 </defs>
 <g id="Layer_x0020_1">
  <metadata id="CorelCorpID_0Corel-Layer"/>
  <rect class="fil0 str0" x="2" y="159" width="713" height="157"/>
  <rect class="fil1 str0" x="2" y="317" width="713" height="157"/>
  <rect class="fil2 str0" x="2" y="474" width="713" height="157"/>
  <rect class="fil3 str0" x="2" y="632" width="713" height="157"/>
  <rect class="fil4 str0" x="2" y="789" width="713" height="157"/>
  <rect class="fil5 str0" x="2" y="946" width="713" height="157"/>
  <rect class="fil0 str0" x="715" y="159" width="620" height="157"/>
  <rect class="fil1 str0" x="715" y="317" width="620" height="157"/>
  <rect class="fil2 str0" x="715" y="474" width="620" height="157"/>
  <rect class="fil3 str0" x="715" y="632" width="620" height="157"/>
  <rect class="fil4 str0" x="715" y="789" width="620" height="157"/>
  <rect class="fil5 str0" x="715" y="946" width="620" height="157"/>
  <rect class="fil0 str0" x="1335" y="159" width="1035" height="157"/>
  <rect class="fil1 str0" x="1335" y="317" width="1035" height="157"/>
  <rect class="fil2 str0" x="1335" y="474" width="1035" height="157"/>
  <rect class="fil3 str0" x="1335" y="632" width="1035" height="157"/>
  <rect class="fil4 str0" x="1335" y="789" width="1035" height="157"/>
  <rect class="fil5 str0" x="1335" y="946" width="1035" height="157"/>
  <rect class="fil6 str0" x="2" y="2" width="713" height="157"/>
  <rect class="fil6 str0" x="715" y="2" width="620" height="157"/>
  <rect class="fil6 str0" x="1335" y="2" width="1035" height="157"/>
  <path class="fil7" d="M1379 246l0 -43 15 0c3,0 6,1 7,1 3,1 5,2 7,3 2,2 4,4 5,7 1,3 1,7 1,10 0,4 0,6 -1,9 0,2 -1,4 -3,6 -1,2 -2,3 -4,4 -1,1 -3,2 -5,2 -2,1 -4,1 -6,1l-16 0zm6 -5l9 0c3,0 5,0 7,-1 1,0 2,-1 3,-2 2,-1 3,-3 3,-6 1,-2 2,-5 2,-8 0,-4 -1,-8 -3,-10 -1,-2 -3,-4 -5,-5 -1,0 -4,-1 -7,-1l-9 0 0 33zm36 -32l0 -6 5 0 0 6 -5 0zm0 37l0 -31 5 0 0 31 -5 0zm11 -9l5 -1c0,2 1,3 3,5 1,1 3,1 5,1 2,0 4,0 5,-1 2,-1 2,-2 2,-4 0,-1 0,-2 -1,-2 -1,-1 -3,-2 -6,-2 -4,-1 -6,-2 -8,-3 -1,0 -2,-1 -3,-3 -1,-1 -1,-2 -1,-4 0,-1 0,-2 1,-4 0,-1 1,-2 2,-2 1,-1 2,-2 4,-2 1,0 3,-1 4,-1 3,0 5,1 6,1 2,1 4,2 4,3 1,1 2,3 2,5l-5 1c0,-2 -1,-3 -2,-4 -1,-1 -2,-1 -5,-1 -2,0 -4,0 -5,1 -1,1 -1,2 -1,3 0,0 0,1 0,1 1,1 2,1 2,2 1,0 3,0 5,1 4,1 6,2 8,3 1,0 2,1 3,2 1,1 1,3 1,5 0,1 0,3 -1,5 -1,1 -3,2 -4,3 -2,1 -5,1 -7,1 -4,0 -7,0 -9,-2 -2,-2 -3,-4 -4,-7zm52 -2l5 0c-1,4 -2,6 -4,8 -3,2 -6,3 -9,3 -4,0 -8,-1 -10,-4 -3,-2 -4,-6 -4,-11 0,-4 1,-7 2,-9 1,-3 2,-4 5,-6 2,-1 4,-2 7,-2 3,0 6,1 8,3 2,2 4,4 4,7l-5 1c0,-2 -1,-4 -2,-5 -2,-1 -3,-1 -5,-1 -2,0 -4,1 -6,2 -2,2 -3,5 -3,9 0,5 1,8 3,9 1,2 3,3 6,3 2,0 4,0 5,-2 1,-1 2,-3 3,-5zm7 -5c0,-5 2,-9 5,-12 3,-2 6,-4 10,-4 4,0 7,2 10,5 3,2 4,6 4,11 0,4 -1,7 -2,9 -1,3 -3,4 -5,6 -2,1 -5,1 -7,1 -5,0 -8,-1 -11,-4 -2,-2 -4,-6 -4,-12zm6 0c0,4 0,7 2,9 2,2 4,3 7,3 2,0 4,-1 6,-3 2,-2 3,-5 3,-9 0,-4 -1,-6 -3,-8 -2,-2 -4,-3 -6,-3 -3,0 -5,1 -7,3 -2,2 -2,5 -2,8zm49 16l0 -5c-2,4 -5,5 -9,5 -2,0 -4,0 -6,-1 -1,0 -2,-1 -3,-2 -1,-1 -1,-3 -2,-4 0,-1 0,-3 0,-5l0 -19 5 0 0 17c0,3 0,5 1,6 0,1 1,2 2,3 1,1 2,1 4,1 1,0 3,0 4,-1 1,-1 2,-2 3,-4 0,-1 1,-3 1,-6l0 -16 5 0 0 31 -5 0zm13 0l0 -31 5 0 0 4c2,-3 5,-5 10,-5 1,0 3,1 5,1 1,1 2,2 3,3 1,1 1,2 2,4 0,1 0,3 0,5l0 19 -5 0 0 -19c0,-2 0,-4 -1,-5 0,-1 -1,-2 -2,-2 -1,-1 -2,-1 -4,-1 -2,0 -4,1 -5,2 -2,1 -3,4 -3,8l0 17 -5 0zm44 -5l1 5c-1,0 -3,0 -4,0 -2,0 -3,0 -4,-1 -1,0 -2,-1 -2,-2 -1,-1 -1,-3 -1,-6l0 -18 -4 0 0 -4 4 0 0 -8 5 -3 0 11 5 0 0 4 -5 0 0 18c0,2 0,3 0,3 1,0 1,1 1,1 1,0 1,0 2,0 1,0 1,0 2,0zm20 -11c0,-5 2,-9 5,-12 2,-2 6,-4 9,-4 5,0 8,2 11,5 2,2 4,6 4,11 0,4 -1,7 -2,9 -1,3 -3,4 -5,6 -2,1 -5,1 -8,1 -4,0 -7,-1 -10,-4 -3,-2 -4,-6 -4,-12zm5 0c0,4 1,7 3,9 2,2 4,3 6,3 3,0 5,-1 7,-3 2,-2 2,-5 2,-9 0,-4 0,-6 -2,-8 -2,-2 -4,-3 -7,-3 -2,0 -4,1 -6,3 -2,2 -3,5 -3,8zm31 16l0 -27 -5 0 0 -4 5 0 0 -3c0,-2 0,-4 0,-5 1,-1 1,-2 3,-3 1,-1 3,-1 5,-1 1,0 3,0 5,0l-1 5c-1,0 -2,-1 -3,-1 -2,0 -3,1 -3,1 -1,1 -1,2 -1,4l0 3 6 0 0 4 -6 0 0 27 -5 0zm30 -11l6 -1c0,3 1,5 3,6 1,2 3,2 5,2 3,0 5,-1 6,-3 2,-1 3,-4 3,-7 0,-3 -1,-5 -3,-7 -1,-2 -3,-3 -6,-3 -2,0 -3,1 -5,1 -1,1 -2,2 -3,3l-5 0 4 -22 21 0 0 5 -16 0 -3 11c3,-1 6,-2 8,-2 4,0 7,1 10,4 2,2 3,5 3,9 0,4 -1,8 -3,10 -3,4 -6,6 -11,6 -4,0 -7,-2 -9,-4 -3,-2 -4,-5 -5,-8zm34 -21c0,-3 1,-6 3,-8 1,-2 3,-3 6,-3 3,0 5,1 7,3 2,1 2,4 2,8 0,3 0,6 -2,8 -2,2 -4,3 -7,3 -2,0 -4,-1 -6,-3 -2,-2 -3,-5 -3,-8zm9 -8c-1,0 -2,1 -3,2 -1,1 -1,3 -1,6 0,3 0,5 1,6 1,1 2,1 3,1 2,0 3,0 4,-1 0,-1 1,-3 1,-6 0,-3 -1,-5 -1,-6 -1,-1 -2,-2 -4,-2zm0 41l24 -44 4 0 -23 44 -5 0zm19 -11c0,-3 0,-6 2,-8 1,-2 4,-3 7,-3 2,0 4,1 6,3 2,2 3,4 3,8 0,4 -1,6 -3,8 -2,2 -4,3 -6,3 -3,0 -5,-1 -7,-3 -1,-1 -2,-4 -2,-8zm9 -7c-2,0 -3,0 -4,1 0,1 -1,3 -1,6 0,3 1,5 2,6 0,1 1,2 3,2 1,0 2,-1 3,-2 1,-1 1,-3 1,-6 0,-3 0,-5 -1,-6 -1,-1 -2,-1 -3,-1z"/>
  <path class="fil7" d="M1379 411l0 -43 6 0 22 34 0 -34 6 0 0 43 -6 0 -22 -33 0 33 -6 0zm40 -16c0,-5 2,-9 5,-12 2,-2 6,-4 9,-4 5,0 8,2 11,5 2,2 4,6 4,11 0,4 -1,7 -2,9 -1,3 -3,4 -5,6 -2,1 -5,2 -8,2 -4,0 -7,-2 -10,-5 -3,-2 -4,-6 -4,-12zm5 1c0,3 1,6 3,8 2,2 4,3 6,3 3,0 5,-1 7,-3 2,-2 2,-5 2,-9 0,-3 0,-6 -2,-8 -2,-2 -4,-3 -7,-3 -2,0 -4,1 -6,3 -2,2 -3,5 -3,9zm46 -22l0 -6 6 0 0 6 -6 0zm0 37l0 -31 6 0 0 31 -6 0zm13 0l0 -31 5 0 0 4c1,-1 2,-2 4,-3 2,-1 3,-2 5,-2 3,0 5,1 6,2 1,1 3,2 3,4 3,-4 6,-6 10,-6 3,0 5,1 7,3 1,2 2,4 2,8l0 21 -5 0 0 -19c0,-3 0,-4 -1,-5 0,-1 -1,-2 -1,-2 -1,-1 -2,-1 -4,-1 -2,0 -4,1 -5,2 -1,2 -2,4 -2,7l0 18 -5 0 0 -20c0,-2 -1,-4 -2,-5 0,-1 -2,-2 -4,-2 -1,0 -3,0 -4,1 -1,1 -2,2 -2,4 -1,1 -1,3 -1,6l0 16 -6 0zm50 12l0 -43 5 0 0 4c1,-1 2,-3 3,-3 2,-1 3,-2 5,-2 3,0 5,1 7,3 2,1 4,3 5,5 1,3 1,5 1,8 0,3 0,6 -1,9 -1,2 -3,4 -5,6 -2,1 -5,2 -7,2 -2,0 -3,-1 -5,-2 -1,0 -2,-1 -3,-2l0 15 -5 0zm5 -27c0,4 0,7 2,8 2,2 3,3 6,3 2,0 4,-1 6,-3 1,-2 2,-5 2,-9 0,-4 -1,-7 -2,-9 -2,-1 -4,-2 -6,-2 -2,0 -4,1 -6,3 -2,2 -2,5 -2,9zm48 11c-2,2 -4,3 -6,4 -2,0 -3,1 -6,1 -3,0 -6,-1 -7,-3 -2,-2 -3,-4 -3,-6 0,-2 0,-3 1,-4 1,-2 2,-3 3,-3 1,-1 2,-2 3,-2 1,0 3,-1 5,-1 4,0 7,-1 9,-2 0,0 0,-1 0,-1 0,-2 0,-4 -1,-4 -1,-2 -3,-2 -6,-2 -2,0 -4,0 -5,1 -2,1 -2,2 -3,5l-5 -1c0,-2 1,-4 2,-5 1,-2 3,-3 5,-3 2,-1 4,-2 7,-2 2,0 5,1 6,1 2,1 3,2 4,3 1,1 1,2 1,3 1,1 1,3 1,5l0 7c0,5 0,8 0,9 0,1 1,3 1,4l-5 0c-1,-1 -1,-3 -1,-4zm-1 -12c-1,1 -4,2 -8,2 -2,1 -4,1 -5,1 -1,1 -1,1 -2,2 0,1 0,2 0,3 0,1 0,2 1,3 1,1 3,1 5,1 2,0 4,0 5,-1 2,-1 3,-2 4,-3 0,-2 0,-3 0,-6l0 -2zm34 5l5 0c-1,4 -2,7 -4,9 -3,2 -6,3 -9,3 -4,0 -7,-2 -10,-5 -3,-2 -4,-6 -4,-11 0,-4 1,-7 2,-9 1,-3 3,-4 5,-6 2,-1 4,-2 7,-2 3,0 6,1 8,3 2,2 4,4 4,7l-5 1c0,-2 -1,-4 -2,-5 -1,-1 -3,-1 -5,-1 -2,0 -4,1 -6,3 -2,1 -3,4 -3,8 0,5 1,8 3,9 1,2 3,3 6,3 2,0 4,0 5,-2 2,-1 2,-3 3,-5zm21 6l0 5c-1,0 -2,0 -4,0 -1,0 -3,0 -4,-1 -1,0 -2,-1 -2,-2 -1,-1 -1,-3 -1,-6l0 -18 -4 0 0 -4 4 0 0 -7 5 -4 0 11 6 0 0 4 -6 0 0 18c0,2 0,3 1,3 0,0 0,1 1,1 0,0 1,0 1,0 1,0 2,0 3,0z"/>
  <path class="fil7" d="M1395 574l-5 0 0 -33c-2,1 -3,2 -5,3 -2,1 -4,2 -6,3l0 -5c3,-2 6,-3 8,-5 2,-2 4,-4 5,-6l3 0 0 43zm13 -21c0,-5 1,-9 2,-12 1,-3 2,-6 4,-7 3,-2 5,-3 8,-3 2,0 4,1 6,2 2,0 3,2 4,3 1,2 2,4 3,7 1,2 1,6 1,10 0,5 -1,9 -2,12 -1,3 -2,5 -4,7 -2,2 -5,2 -8,2 -4,0 -7,-1 -9,-4 -3,-3 -5,-9 -5,-17zm6 0c0,7 0,11 2,14 2,2 4,3 6,3 3,0 5,-1 6,-3 2,-3 3,-7 3,-14 0,-7 -1,-12 -3,-14 -1,-2 -3,-4 -6,-4 -2,0 -4,1 -6,4 -1,2 -2,7 -2,14zm28 -12c0,-3 1,-5 3,-7 1,-2 3,-3 6,-3 3,0 5,1 7,2 2,2 2,5 2,9 0,3 0,6 -2,8 -2,2 -4,3 -7,3 -2,0 -4,-1 -6,-3 -2,-2 -3,-5 -3,-9zm9 -7c-1,0 -2,1 -3,2 -1,1 -1,3 -1,6 0,3 0,5 1,6 1,1 2,1 3,1 2,0 3,0 4,-1 0,-1 1,-3 1,-6 0,-3 -1,-5 -1,-6 -1,-1 -2,-2 -4,-2zm0 41l23 -44 5 0 -23 44 -5 0zm19 -11c0,-3 0,-6 2,-8 1,-2 4,-3 7,-3 2,0 4,1 6,3 2,2 3,4 3,8 0,4 -1,6 -3,8 -2,2 -4,3 -6,3 -3,0 -5,-1 -7,-3 -2,-2 -2,-4 -2,-8zm9 -8c-2,0 -3,1 -4,2 0,1 -1,3 -1,6 0,3 1,5 1,6 1,1 2,2 4,2 1,0 2,-1 3,-2 1,-1 1,-3 1,-6 0,-3 0,-5 -1,-6 -1,-1 -2,-2 -3,-2zm33 -19l0 -6 5 0 0 6 -5 0zm0 37l0 -31 5 0 0 31 -5 0zm13 0l0 -31 5 0 0 4c2,-3 5,-5 9,-5 2,0 4,1 6,1 1,1 2,2 3,3 1,1 1,2 2,4 0,1 0,2 0,5l0 19 -5 0 0 -19c0,-2 0,-4 -1,-5 0,-1 -1,-2 -2,-2 -1,-1 -2,-1 -4,-1 -2,0 -4,1 -5,2 -2,1 -3,4 -3,8l0 17 -5 0zm53 -12l5 1c0,4 -2,6 -4,8 -2,2 -5,3 -9,3 -4,0 -7,-1 -10,-4 -2,-2 -4,-6 -4,-12 0,-3 1,-6 2,-8 1,-3 3,-5 5,-6 2,-1 5,-2 7,-2 4,0 6,1 9,3 2,2 3,4 4,7l-5 1c-1,-2 -2,-4 -3,-5 -1,-1 -3,-1 -4,-1 -3,0 -5,1 -7,2 -1,2 -2,5 -2,9 0,4 1,7 2,9 2,2 4,3 6,3 2,0 4,-1 5,-2 2,-1 3,-3 3,-6zm9 12l0 -31 5 0 0 5c1,-2 2,-4 3,-5 1,0 3,-1 4,-1 2,0 3,1 5,2l-2 5c-1,-1 -2,-1 -3,-1 -2,0 -3,0 -4,1 0,0 -1,1 -1,3 -1,1 -1,3 -1,6l0 16 -6 0zm41 -10l6 0c-1,4 -3,6 -5,8 -2,2 -5,2 -9,2 -4,0 -8,-1 -11,-4 -2,-3 -3,-6 -3,-11 0,-6 1,-10 4,-12 2,-3 6,-5 10,-5 4,0 7,2 10,5 2,2 4,6 4,11 0,1 0,1 0,2l-23 0c0,3 1,6 3,7 1,2 4,3 6,3 2,0 4,0 5,-1 1,-1 2,-3 3,-5zm-17 -9l17 0c0,-2 -1,-4 -2,-5 -1,-2 -3,-3 -6,-3 -2,0 -5,0 -6,2 -2,2 -3,4 -3,6zm49 15c-2,2 -4,3 -5,3 -2,1 -4,1 -6,1 -3,0 -6,0 -8,-2 -2,-2 -3,-4 -3,-6 0,-2 1,-3 1,-5 1,-1 2,-2 3,-2 1,-1 3,-2 4,-2 1,0 2,-1 5,-1 4,0 7,-1 9,-2 0,0 0,-1 0,-1 0,-2 -1,-4 -2,-5 -1,-1 -3,-1 -6,-1 -2,0 -4,0 -5,1 -1,1 -2,2 -3,5l-5 -1c1,-2 2,-4 3,-5 1,-2 2,-3 4,-4 2,0 5,-1 7,-1 3,0 5,1 7,1 1,1 2,2 3,3 1,1 2,2 2,3 0,1 0,3 0,5l0 7c0,5 0,8 0,9 1,1 1,3 2,4l-6 0c0,-1 -1,-3 -1,-4zm0 -12c-2,1 -5,2 -9,2 -2,1 -3,1 -4,1 -1,1 -2,1 -2,2 -1,1 -1,2 -1,2 0,2 1,3 2,4 1,1 2,1 4,1 2,0 4,0 6,-1 1,-1 2,-2 3,-4 1,-1 1,-3 1,-5l0 -2zm10 7l6 -1c0,2 1,3 2,4 1,2 3,2 6,2 2,0 4,0 5,-1 1,-1 2,-2 2,-4 0,-1 -1,-2 -2,-3 -1,0 -2,-1 -5,-1 -4,-1 -7,-2 -8,-3 -2,-1 -3,-1 -3,-3 -1,-1 -2,-2 -2,-4 0,-1 1,-2 1,-4 1,-1 2,-2 3,-3 1,0 2,-1 3,-1 2,0 3,-1 5,-1 2,0 4,1 6,1 2,1 3,2 4,3 1,1 1,3 2,5l-5 1c-1,-2 -1,-3 -2,-4 -1,-1 -3,-1 -5,-1 -2,0 -4,0 -5,1 -1,1 -2,1 -2,3 0,0 1,1 1,1 0,1 1,1 2,2 1,0 2,0 5,1 3,1 6,2 7,3 2,0 3,1 4,2 1,1 1,3 1,5 0,1 0,3 -2,5 -1,1 -2,2 -4,3 -2,1 -4,1 -6,1 -4,0 -7,0 -10,-2 -2,-2 -3,-4 -4,-7zm53 -1l6 0c-1,4 -3,6 -5,8 -2,2 -5,2 -9,2 -4,0 -8,-1 -11,-4 -2,-3 -4,-6 -4,-11 0,-6 2,-10 4,-12 3,-3 7,-5 11,-5 4,0 7,2 10,5 2,2 4,6 4,11 0,1 0,1 0,2l-23 0c0,3 1,6 3,7 1,2 3,3 6,3 2,0 4,0 5,-1 1,-1 2,-3 3,-5zm-17 -9l17 0c0,-2 -1,-4 -2,-5 -1,-2 -4,-3 -6,-3 -3,0 -5,0 -6,2 -2,2 -3,4 -3,6z"/>
  <path class="fil7" d="M1407 726l0 5 -28 0c0,-1 0,-2 1,-4 1,-1 2,-3 3,-5 2,-2 4,-4 7,-7 5,-3 8,-6 10,-9 1,-2 2,-4 2,-6 0,-2 -1,-4 -2,-5 -2,-1 -4,-2 -6,-2 -3,0 -5,1 -6,2 -2,2 -2,4 -2,6l-6 0c1,-4 2,-7 4,-9 3,-2 6,-3 10,-3 4,0 7,1 10,3 2,2 3,5 3,8 0,2 0,4 -1,5 0,2 -2,4 -3,5 -2,2 -4,5 -8,8 -3,3 -5,4 -6,5 -1,1 -2,2 -2,3l20 0zm6 -6l5 0c1,2 2,4 3,6 2,1 4,2 6,2 2,0 4,-1 6,-3 2,-2 3,-5 3,-8 0,-3 -1,-5 -3,-7 -2,-2 -4,-2 -6,-2 -2,0 -4,0 -5,1 -1,1 -2,2 -3,3l-5 -1 4 -22 21 0 0 5 -17 0 -2 12c3,-2 5,-3 8,-3 4,0 7,1 9,4 3,2 4,6 4,10 0,4 -1,7 -3,10 -3,3 -7,5 -11,5 -4,0 -7,-1 -10,-3 -2,-3 -4,-5 -4,-9zm34 -21c0,-3 1,-6 2,-8 2,-2 4,-3 7,-3 3,0 5,1 6,3 2,2 3,5 3,8 0,4 -1,7 -3,8 -1,2 -3,3 -6,3 -3,0 -5,-1 -7,-2 -1,-2 -2,-5 -2,-9zm9 -7c-1,0 -2,0 -3,1 -1,1 -2,3 -2,6 0,3 1,5 2,6 1,1 2,2 3,2 1,0 2,-1 3,-2 1,-1 2,-3 2,-6 0,-3 -1,-5 -2,-6 -1,-1 -2,-1 -3,-1zm0 41l23 -45 4 0 -23 45 -4 0zm18 -12c0,-3 1,-5 3,-8 1,-2 3,-3 6,-3 3,0 5,1 7,3 2,2 2,5 2,8 0,4 0,7 -2,9 -2,2 -4,3 -7,3 -2,0 -4,-1 -6,-3 -2,-2 -3,-5 -3,-9zm9 -7c-1,0 -2,0 -3,2 -1,1 -1,3 -1,6 0,2 0,4 1,5 1,1 2,2 3,2 2,0 3,-1 4,-2 0,-1 1,-3 1,-6 0,-2 -1,-4 -1,-5 -1,-2 -2,-2 -4,-2zm34 -19l0 -6 5 0 0 6 -5 0zm0 36l0 -31 5 0 0 31 -5 0zm13 0l0 -31 4 0 0 5c3,-4 6,-5 10,-5 2,0 4,0 5,1 2,0 3,1 4,2 0,1 1,3 1,4 1,1 1,3 1,5l0 19 -6 0 0 -19c0,-2 0,-3 0,-4 -1,-1 -1,-2 -2,-3 -1,0 -3,-1 -4,-1 -2,0 -4,1 -6,2 -1,2 -2,4 -2,8l0 17 -5 0zm53 -11l5 1c-1,3 -2,6 -4,8 -3,2 -6,3 -9,3 -4,0 -8,-2 -10,-4 -3,-3 -4,-7 -4,-12 0,-3 1,-6 2,-9 1,-2 2,-4 5,-5 2,-2 4,-2 7,-2 3,0 6,1 8,2 2,2 4,4 4,7l-5 1c0,-2 -1,-3 -2,-4 -2,-2 -3,-2 -5,-2 -2,0 -4,1 -6,3 -2,2 -3,5 -3,9 0,4 1,7 3,9 1,2 3,2 6,2 2,0 4,0 5,-1 1,-2 2,-4 3,-6zm9 11l0 -31 5 0 0 5c1,-2 2,-4 3,-4 1,-1 2,-1 4,-1 1,0 3,0 5,1l-2 5c-1,-1 -3,-1 -4,-1 -1,0 -2,0 -3,1 -1,1 -1,2 -2,3 0,2 -1,4 -1,6l0 16 -5 0zm41 -10l5 1c-1,3 -2,5 -4,7 -3,2 -6,3 -9,3 -5,0 -8,-2 -11,-4 -2,-3 -4,-7 -4,-12 0,-5 2,-9 4,-12 3,-3 6,-4 11,-4 4,0 7,1 10,4 2,3 3,7 3,12 0,0 0,0 0,1l-22 0c0,3 1,6 2,8 2,2 4,2 7,2 2,0 3,0 5,-1 1,-1 2,-3 3,-5zm-17 -8l17 0c0,-3 -1,-5 -2,-6 -2,-2 -4,-3 -6,-3 -3,0 -5,1 -6,2 -2,2 -3,4 -3,7zm49 14c-2,2 -4,3 -6,4 -1,0 -3,1 -5,1 -4,0 -6,-1 -8,-3 -2,-1 -3,-3 -3,-6 0,-2 0,-3 1,-4 1,-1 2,-2 3,-3 1,-1 2,-1 4,-2 1,0 2,0 4,-1 4,0 8,-1 10,-1 0,-1 0,-2 0,-2 0,-2 -1,-3 -2,-4 -1,-1 -3,-2 -6,-2 -2,0 -4,0 -5,1 -1,1 -2,3 -3,5l-5 -1c0,-2 1,-4 2,-5 1,-1 3,-2 5,-3 2,-1 4,-1 7,-1 3,0 5,0 6,1 2,0 3,1 4,2 1,1 1,2 2,4 0,0 0,2 0,4l0 7c0,5 0,8 0,9 0,2 1,3 1,4l-5 0c-1,-1 -1,-2 -1,-4zm0 -11c-2,0 -5,1 -9,2 -2,0 -4,0 -5,1 0,0 -1,1 -2,1 0,1 0,2 0,3 0,1 0,2 1,3 1,1 3,2 5,2 2,0 4,-1 5,-2 2,-1 3,-2 4,-3 0,-1 1,-3 1,-5l0 -2zm10 6l5 -1c1,2 1,4 3,5 1,1 3,1 5,1 3,0 4,0 6,-1 1,-1 1,-2 1,-3 0,-2 0,-3 -1,-3 -1,-1 -3,-1 -6,-2 -3,-1 -6,-2 -7,-2 -2,-1 -3,-2 -4,-3 -1,-2 -1,-3 -1,-4 0,-2 0,-3 1,-4 1,-1 1,-2 3,-3 0,-1 1,-1 3,-2 1,0 3,0 4,0 3,0 5,0 7,1 2,0 3,1 4,3 1,1 1,2 2,4l-6 1c0,-2 0,-3 -2,-4 -1,-1 -2,-1 -4,-1 -3,0 -4,0 -5,1 -1,1 -2,2 -2,3 0,1 0,1 1,2 0,0 1,1 2,1 0,0 2,1 4,1 4,1 7,2 8,3 1,1 3,1 3,3 1,1 2,2 2,4 0,2 -1,3 -2,5 -1,1 -2,3 -4,3 -2,1 -4,2 -7,2 -4,0 -7,-1 -9,-3 -2,-1 -3,-4 -4,-7zm53 -1l5 1c-1,3 -2,5 -4,7 -3,2 -6,3 -9,3 -5,0 -8,-2 -11,-4 -3,-3 -4,-7 -4,-12 0,-5 1,-9 4,-12 3,-3 6,-4 10,-4 5,0 8,1 10,4 3,3 4,7 4,12 0,0 0,0 0,1l-23 0c1,3 2,6 3,8 2,2 4,2 7,2 2,0 3,0 5,-1 1,-1 2,-3 3,-5zm-17 -8l17 0c0,-3 -1,-5 -2,-6 -2,-2 -4,-3 -7,-3 -2,0 -4,1 -6,2 -1,2 -2,4 -2,7z"/>
  <path class="fil7" d="M1379 877l6 0c0,3 1,5 3,6 1,1 3,2 5,2 2,0 5,-1 6,-3 2,-2 3,-4 3,-7 0,-3 -1,-6 -3,-7 -1,-2 -3,-3 -6,-3 -2,0 -3,0 -5,1 -1,1 -2,2 -3,3l-5 -1 4 -21 21 0 0 5 -16 0 -3 11c3,-2 5,-3 8,-3 4,0 7,2 10,4 2,3 3,6 3,10 0,4 -1,7 -3,10 -3,3 -6,5 -11,5 -4,0 -7,-1 -10,-3 -2,-2 -3,-5 -4,-9zm33 -9c0,-5 1,-10 2,-13 1,-3 2,-5 4,-7 2,-1 5,-2 8,-2 2,0 4,0 6,1 2,1 3,3 4,4 1,2 2,4 3,7 1,2 1,5 1,10 0,5 -1,9 -2,12 -1,3 -2,5 -4,7 -2,1 -5,2 -8,2 -4,0 -7,-1 -10,-4 -2,-4 -4,-9 -4,-17zm6 0c0,7 0,11 2,13 2,3 4,4 6,4 2,0 4,-1 6,-4 2,-2 3,-6 3,-13 0,-7 -1,-12 -3,-14 -2,-3 -4,-4 -6,-4 -2,0 -4,1 -6,3 -2,3 -2,8 -2,15zm28 -12c0,-3 1,-5 2,-7 2,-3 4,-4 7,-4 3,0 5,1 7,3 1,2 2,5 2,9 0,3 -1,6 -2,8 -2,2 -4,3 -7,3 -2,0 -5,-1 -6,-3 -2,-2 -3,-5 -3,-9zm9 -7c-1,0 -2,1 -3,2 -1,1 -1,3 -1,6 0,2 0,4 1,5 1,2 2,2 3,2 2,0 3,0 3,-2 1,-1 2,-3 2,-6 0,-2 -1,-4 -2,-5 0,-1 -1,-2 -3,-2zm0 41l23 -45 5 0 -23 45 -5 0zm19 -11c0,-4 0,-6 2,-8 1,-2 4,-3 6,-3 3,0 5,1 7,2 2,2 3,5 3,9 0,3 -1,6 -3,8 -2,2 -4,3 -7,3 -2,0 -4,-1 -6,-3 -2,-2 -2,-5 -2,-8zm9 -8c-2,0 -3,1 -4,2 -1,1 -1,3 -1,6 0,3 1,5 1,6 1,1 2,1 4,1 1,0 2,0 3,-1 1,-1 1,-3 1,-6 0,-3 0,-5 -1,-6 -1,-1 -2,-2 -3,-2zm33 -19l0 -6 5 0 0 6 -5 0zm0 36l0 -30 5 0 0 30 -5 0zm13 0l0 -30 5 0 0 4c2,-3 5,-5 9,-5 2,0 4,0 5,1 2,1 3,2 4,3 1,1 1,2 2,4 0,1 0,2 0,5l0 18 -5 0 0 -18c0,-2 -1,-4 -1,-5 0,-1 -1,-2 -2,-2 -1,-1 -2,-1 -4,-1 -2,0 -4,0 -5,2 -2,1 -3,4 -3,8l0 16 -5 0zm53 -11l5 1c-1,3 -2,6 -4,8 -3,2 -5,3 -9,3 -4,0 -7,-1 -10,-4 -2,-3 -4,-7 -4,-12 0,-3 1,-6 2,-8 1,-3 3,-5 5,-6 2,-1 5,-2 7,-2 4,0 6,1 8,3 3,1 4,4 5,7l-5 1c-1,-2 -2,-4 -3,-5 -1,-1 -3,-2 -5,-2 -2,0 -4,1 -6,3 -2,2 -2,5 -2,9 0,4 0,7 2,9 2,2 4,3 6,3 2,0 4,-1 5,-2 2,-1 3,-3 3,-6zm9 11l0 -30 5 0 0 4c1,-2 2,-3 3,-4 1,-1 3,-1 4,-1 1,0 3,1 5,2l-2 5c-1,-1 -2,-2 -4,-2 -1,0 -2,1 -3,1 -1,1 -1,2 -2,3 0,2 0,4 0,6l0 16 -6 0zm41 -9l6 0c-1,3 -3,6 -5,8 -2,1 -5,2 -9,2 -4,0 -8,-1 -11,-4 -2,-3 -4,-7 -4,-12 0,-5 2,-9 4,-12 3,-2 7,-4 11,-4 4,0 7,1 10,4 2,3 4,7 4,12 0,0 0,1 0,1l-23 0c0,4 1,6 3,8 1,2 3,3 6,3 2,0 4,-1 5,-2 1,-1 2,-2 3,-4zm-17 -9l17 0c0,-2 -1,-4 -2,-6 -1,-2 -4,-3 -6,-3 -3,0 -5,1 -6,3 -2,1 -3,3 -3,6zm49 15c-2,1 -4,2 -5,3 -2,1 -4,1 -6,1 -4,0 -6,-1 -8,-2 -2,-2 -3,-4 -3,-7 0,-1 1,-3 1,-4 1,-1 2,-2 3,-3 1,0 2,-1 4,-1 1,-1 2,-1 4,-1 5,-1 8,-1 10,-2 0,-1 0,-1 0,-1 0,-2 -1,-4 -2,-5 -1,-1 -3,-2 -6,-2 -2,0 -4,1 -5,2 -1,1 -2,2 -3,4l-5 0c1,-3 1,-4 3,-6 1,-1 2,-2 4,-3 2,-1 4,-1 7,-1 3,0 5,0 7,1 1,1 2,1 3,2 1,1 1,2 2,4 0,1 0,2 0,5l0 7c0,4 0,7 0,9 1,1 1,2 2,3l-6 0c0,-1 -1,-2 -1,-3zm0 -12c-2,1 -5,1 -9,2 -2,0 -3,1 -4,1 -1,0 -2,1 -2,2 -1,0 -1,1 -1,2 0,2 0,3 1,4 2,1 3,1 5,1 2,0 4,0 5,-1 2,-1 3,-2 4,-4 0,-1 1,-3 1,-5l0 -2zm10 6l6 -1c0,3 1,4 2,5 1,1 3,2 6,2 2,0 4,-1 5,-2 1,-1 2,-2 2,-3 0,-1 -1,-2 -2,-3 -1,0 -2,-1 -5,-2 -4,-1 -7,-1 -8,-2 -2,-1 -3,-2 -4,-3 0,-1 -1,-3 -1,-4 0,-1 1,-3 1,-4 1,-1 2,-2 3,-3 1,0 2,-1 3,-1 1,-1 3,-1 5,-1 2,0 4,0 6,1 2,1 3,2 4,3 1,1 1,3 2,5l-5 0c-1,-1 -1,-2 -2,-3 -1,-1 -3,-2 -5,-2 -2,0 -4,1 -5,2 -1,0 -2,1 -2,2 0,1 1,2 1,2 0,1 1,1 2,2 0,0 2,0 5,1 3,1 6,2 7,2 2,1 3,2 4,3 1,1 1,3 1,4 0,2 -1,4 -2,5 -1,2 -2,3 -4,4 -2,1 -4,1 -6,1 -4,0 -8,-1 -10,-2 -2,-2 -3,-4 -4,-8zm53 0l5 0c0,3 -2,6 -4,8 -3,1 -5,2 -9,2 -5,0 -8,-1 -11,-4 -2,-3 -4,-7 -4,-12 0,-5 2,-9 4,-12 3,-2 6,-4 11,-4 4,0 7,1 10,4 2,3 4,7 4,12 0,0 0,1 0,1l-23 0c0,4 1,6 3,8 1,2 3,3 6,3 2,0 3,-1 5,-2 1,-1 2,-2 3,-4zm-17 -9l17 0c0,-2 -1,-4 -2,-6 -2,-2 -4,-3 -6,-3 -3,0 -5,1 -6,3 -2,1 -3,3 -3,6z"/>
  <g id="_2604518982480">
   <path class="fil7" d="M1407 1035l0 5 -28 0c0,-1 0,-2 1,-3 1,-2 2,-4 3,-6 2,-2 4,-4 7,-6 5,-4 8,-7 10,-9 1,-2 2,-5 2,-7 0,-2 -1,-3 -2,-5 -2,-1 -4,-2 -6,-2 -3,0 -5,1 -6,2 -2,2 -2,4 -2,7l-6 -1c1,-4 2,-7 4,-9 3,-2 6,-3 10,-3 4,0 7,1 10,3 2,2 3,5 3,9 0,1 0,3 -1,5 0,1 -2,3 -3,5 -2,2 -4,4 -8,7 -3,3 -5,5 -6,6 -1,1 -2,1 -2,2l20 0zm6 -16c0,-5 1,-9 2,-12 1,-3 2,-5 4,-7 2,-1 5,-2 8,-2 2,0 4,0 6,1 2,1 3,2 4,4 1,2 2,4 3,6 0,3 1,6 1,10 0,5 -1,9 -2,13 -1,3 -2,5 -4,7 -2,1 -5,2 -8,2 -4,0 -7,-1 -10,-4 -3,-4 -4,-10 -4,-18zm5 0c0,7 1,12 3,14 1,3 3,4 6,4 2,0 4,-1 6,-4 1,-2 2,-7 2,-14 0,-6 -1,-11 -2,-13 -2,-3 -4,-4 -6,-4 -3,0 -5,1 -6,3 -2,3 -3,8 -3,14zm28 0c0,-5 0,-9 2,-12 1,-3 2,-5 4,-7 2,-1 5,-2 8,-2 2,0 4,0 6,1 1,1 3,2 4,4 1,2 2,4 3,6 0,3 1,6 1,10 0,5 -1,9 -2,13 -1,3 -2,5 -5,7 -2,1 -4,2 -7,2 -4,0 -8,-1 -10,-4 -3,-4 -4,-10 -4,-18zm5 0c0,7 1,12 3,14 1,3 3,4 6,4 2,0 4,-1 6,-4 1,-2 2,-7 2,-14 0,-6 -1,-11 -2,-13 -2,-3 -4,-4 -6,-4 -3,0 -5,1 -6,3 -2,3 -3,8 -3,14zm29 -11c0,-3 1,-5 2,-8 2,-2 4,-3 7,-3 2,0 5,1 6,3 2,2 3,5 3,8 0,4 -1,7 -3,9 -1,2 -4,3 -6,3 -3,0 -5,-1 -7,-3 -1,-2 -2,-5 -2,-9zm9 -7c-1,0 -2,0 -3,2 -1,1 -2,3 -2,6 0,2 1,4 2,5 1,2 2,2 3,2 1,0 2,0 3,-2 1,-1 1,-3 1,-6 0,-2 0,-4 -1,-5 -1,-2 -2,-2 -3,-2zm0 41l23 -45 4 0 -23 45 -4 0zm18 -12c0,-3 1,-5 3,-7 1,-2 3,-3 6,-3 3,0 5,1 7,2 2,2 2,5 2,9 0,3 0,6 -2,8 -2,2 -4,3 -7,3 -2,0 -4,-1 -6,-3 -2,-2 -3,-5 -3,-9zm9 -7c-1,0 -2,1 -3,2 -1,1 -1,3 -1,6 0,3 0,5 1,6 1,1 2,1 3,1 2,0 3,0 4,-1 0,-1 1,-3 1,-6 0,-3 -1,-5 -1,-6 -1,-1 -2,-2 -4,-2zm33 -19l0 -6 6 0 0 6 -6 0zm0 36l0 -30 6 0 0 30 -6 0zm14 0l0 -30 4 0 0 4c3,-3 6,-5 10,-5 2,0 4,0 5,1 2,1 3,2 4,3 0,1 1,2 1,3 0,1 1,3 1,6l0 18 -6 0 0 -18c0,-2 0,-4 0,-5 -1,-1 -1,-2 -2,-3 -1,0 -3,0 -4,0 -2,0 -4,0 -6,2 -1,1 -2,4 -2,8l0 16 -5 0zm53 -11l5 1c-1,3 -2,6 -5,8 -2,2 -5,3 -8,3 -4,0 -8,-1 -10,-4 -3,-3 -4,-7 -4,-12 0,-3 1,-6 2,-9 1,-2 2,-4 5,-5 2,-1 4,-2 7,-2 3,0 6,1 8,3 2,1 4,4 4,7l-5 0c0,-2 -1,-3 -2,-4 -2,-1 -3,-2 -5,-2 -2,0 -5,1 -6,3 -2,2 -3,5 -3,9 0,4 1,7 3,9 1,2 3,3 6,3 2,0 4,-1 5,-2 1,-1 2,-3 3,-6zm9 11l0 -30 5 0 0 4c1,-2 2,-3 3,-4 1,-1 2,-1 3,-1 2,0 4,1 6,2l-2 4c-1,0 -3,-1 -4,-1 -1,0 -2,1 -3,1 -1,1 -1,2 -2,3 0,2 -1,4 -1,6l0 16 -5 0zm41 -10l5 1c-1,3 -2,6 -4,7 -3,2 -6,3 -9,3 -5,0 -8,-1 -11,-4 -3,-3 -4,-7 -4,-12 0,-5 1,-9 4,-12 3,-3 6,-4 10,-4 5,0 8,1 11,4 2,3 3,7 3,12 0,0 0,1 0,1l-22 0c0,4 1,6 2,8 2,2 4,3 7,3 2,0 3,-1 5,-2 1,-1 2,-2 3,-5zm-17 -8l17 0c0,-2 -1,-4 -2,-6 -2,-2 -4,-3 -6,-3 -3,0 -5,1 -7,3 -1,1 -2,3 -2,6zm49 15c-2,1 -4,2 -6,3 -1,1 -3,1 -5,1 -4,0 -6,-1 -8,-2 -2,-2 -3,-4 -3,-7 0,-1 0,-3 1,-4 1,-1 2,-2 3,-3 1,-1 2,-1 4,-2 1,0 2,0 4,0 4,-1 7,-1 9,-2 0,-1 0,-1 0,-1 0,-3 0,-4 -1,-5 -1,-1 -3,-2 -6,-2 -2,0 -4,1 -5,2 -2,0 -2,2 -3,4l-5 -1c0,-2 1,-3 2,-5 1,-1 3,-2 5,-3 2,-1 4,-1 7,-1 2,0 5,0 6,1 2,1 3,1 4,2 1,1 1,2 2,4 0,1 0,2 0,5l0 7c0,4 0,7 0,9 0,1 1,2 1,3l-5 0c-1,-1 -1,-2 -1,-3zm-1 -12c-1,1 -4,1 -8,2 -2,0 -4,1 -5,1 0,0 -1,1 -2,2 0,0 0,1 0,2 0,2 0,3 1,4 1,1 3,1 5,1 2,0 4,0 5,-1 2,-1 3,-2 4,-4 0,-1 0,-3 0,-5l0 -2zm11 6l5 -1c0,2 1,4 2,5 1,1 3,2 6,2 2,0 4,-1 5,-2 1,-1 2,-2 2,-3 0,-1 -1,-2 -2,-3 -1,0 -2,-1 -5,-2 -4,-1 -7,-1 -8,-2 -2,-1 -3,-2 -3,-3 -1,-1 -2,-3 -2,-4 0,-2 1,-3 1,-4 1,-1 2,-2 3,-3 1,0 2,-1 3,-1 2,-1 3,-1 5,-1 2,0 4,0 6,1 2,1 3,2 4,3 1,1 2,3 2,5l-5 0c0,-1 -1,-2 -2,-3 -1,-1 -3,-2 -5,-2 -2,0 -4,1 -5,1 -1,1 -2,2 -2,3 0,1 1,2 1,2 0,1 1,1 2,1 1,1 2,1 5,2 3,1 6,2 7,2 2,1 3,2 4,3 1,1 1,3 1,4 0,2 0,4 -1,5 -1,2 -3,3 -5,4 -2,1 -4,1 -6,1 -4,0 -7,-1 -9,-2 -3,-2 -4,-5 -4,-8zm52 -1l6 1c-1,3 -3,6 -5,7 -2,2 -5,3 -9,3 -4,0 -8,-1 -11,-4 -2,-3 -4,-7 -4,-12 0,-5 2,-9 4,-12 3,-3 7,-4 11,-4 4,0 7,1 10,4 2,3 4,7 4,12 0,0 0,1 0,1l-23 0c0,4 1,6 3,8 1,2 4,3 6,3 2,0 4,-1 5,-2 1,-1 2,-2 3,-5zm-17 -8l17 0c0,-2 -1,-4 -2,-6 -1,-2 -4,-3 -6,-3 -3,0 -5,1 -6,3 -2,1 -3,3 -3,6zm56 31c-3,-4 -6,-8 -8,-13 -2,-5 -3,-10 -3,-15 0,-5 1,-9 3,-13 1,-5 4,-10 8,-15l3 0c-2,4 -4,7 -4,9 -2,3 -2,5 -3,8 -1,4 -1,7 -1,11 0,9 3,19 8,28l-3 0zm8 -24l5 -1c1,3 2,6 3,7 2,1 3,2 5,2 3,0 5,-1 7,-3 1,-1 2,-4 2,-6 0,-2 -1,-4 -2,-6 -2,-2 -4,-2 -6,-2 -1,0 -2,0 -4,0l1 -4c0,0 0,0 1,0 2,0 4,-1 6,-2 1,-1 2,-3 2,-5 0,-2 0,-4 -2,-5 -1,-1 -3,-2 -5,-2 -2,0 -3,1 -5,2 -1,1 -2,3 -2,6l-6 -1c1,-4 3,-6 5,-8 2,-2 5,-3 8,-3 2,0 5,0 7,1 2,1 3,3 4,4 1,2 2,4 2,6 0,2 -1,3 -2,5 -1,1 -2,2 -4,3 2,1 4,2 6,4 1,2 2,4 2,7 0,4 -2,7 -4,9 -3,3 -6,4 -11,4 -3,0 -6,-1 -9,-3 -2,-2 -4,-5 -4,-9zm47 11l11 -16 -10 -14 6 0 5 7c1,1 2,2 2,3 1,-1 2,-2 3,-3l5 -7 6 0 -10 14 11 16 -6 0 -7 -9 -1 -2 -8 11 -7 0zm54 0l-5 0 0 -42 5 0 0 15c3,-3 5,-4 9,-4 2,0 3,0 5,1 2,1 3,2 4,3 1,2 2,3 3,5 0,2 1,4 1,7 0,5 -2,9 -4,12 -3,3 -6,4 -9,4 -4,0 -7,-1 -9,-4l0 3zm0 -15c0,3 0,6 1,8 2,2 4,4 7,4 2,0 4,-1 6,-3 2,-2 2,-5 2,-9 0,-4 0,-7 -2,-9 -2,-2 -3,-3 -6,-3 -2,0 -4,1 -6,3 -1,2 -2,5 -2,9zm48 12c-2,1 -4,2 -5,3 -2,1 -4,1 -6,1 -4,0 -6,-1 -8,-2 -2,-2 -3,-4 -3,-7 0,-1 1,-3 1,-4 1,-1 2,-2 3,-3 1,-1 2,-1 4,-2 1,0 2,0 4,0 5,-1 8,-1 10,-2 0,-1 0,-1 0,-1 0,-3 -1,-4 -2,-5 -1,-1 -3,-2 -6,-2 -2,0 -4,1 -5,2 -1,0 -2,2 -3,4l-5 -1c1,-2 1,-3 3,-5 1,-1 2,-2 4,-3 2,-1 4,-1 7,-1 3,0 5,0 7,1 1,1 2,1 3,2 1,1 1,2 2,4 0,1 0,2 0,5l0 7c0,4 0,7 0,9 1,1 1,2 2,3l-6 0c0,-1 -1,-2 -1,-3zm0 -12c-2,1 -5,1 -9,2 -2,0 -3,1 -4,1 -1,0 -2,1 -2,2 -1,0 -1,1 -1,2 0,2 0,3 1,4 2,1 3,1 5,1 2,0 4,0 5,-1 2,-1 3,-2 4,-4 0,-1 1,-3 1,-5l0 -2zm11 6l5 -1c0,2 1,4 3,5 1,1 3,2 5,2 3,0 4,-1 5,-2 2,-1 2,-2 2,-3 0,-1 0,-2 -1,-3 -1,0 -3,-1 -6,-2 -4,-1 -6,-1 -8,-2 -1,-1 -2,-2 -3,-3 -1,-1 -1,-3 -1,-4 0,-2 0,-3 1,-4 0,-1 1,-2 2,-3 1,0 2,-1 4,-1 1,-1 3,-1 4,-1 3,0 5,0 7,1 1,1 3,2 4,3 0,1 1,3 1,5l-5 0c0,-1 -1,-2 -2,-3 -1,-1 -2,-2 -4,-2 -3,0 -5,1 -6,1 -1,1 -1,2 -1,3 0,1 0,2 1,2 0,1 1,1 2,1 0,1 2,1 4,2 4,1 6,2 8,2 1,1 2,2 3,3 1,1 2,3 2,4 0,2 -1,4 -2,5 -1,2 -2,3 -4,4 -2,1 -4,1 -7,1 -4,0 -7,-1 -9,-2 -2,-2 -3,-5 -4,-8zm53 -1l5 1c-1,3 -2,6 -5,7 -2,2 -5,3 -8,3 -5,0 -8,-1 -11,-4 -3,-3 -4,-7 -4,-12 0,-5 1,-9 4,-12 3,-3 6,-4 10,-4 4,0 8,1 10,4 3,3 4,7 4,12 0,0 0,1 0,1l-23 0c0,4 1,6 3,8 2,2 4,3 7,3 1,0 3,-1 4,-2 2,-1 3,-2 4,-5zm-17 -8l17 0c-1,-2 -1,-4 -2,-6 -2,-2 -4,-3 -7,-3 -2,0 -4,1 -6,3 -1,1 -2,3 -2,6zm28 18l0 -42 5 0 0 42 -5 0zm13 -36l0 -6 5 0 0 6 -5 0zm0 36l0 -30 5 0 0 30 -5 0zm13 0l0 -30 4 0 0 4c3,-3 6,-5 10,-5 2,0 4,0 5,1 2,1 3,2 4,3 1,1 1,2 1,3 1,1 1,3 1,6l0 18 -6 0 0 -18c0,-2 0,-4 0,-5 -1,-1 -1,-2 -2,-3 -1,0 -3,0 -4,0 -2,0 -4,0 -6,2 -1,1 -2,4 -2,8l0 16 -5 0zm54 -10l5 1c-1,3 -2,6 -5,7 -2,2 -5,3 -8,3 -5,0 -8,-1 -11,-4 -3,-3 -4,-7 -4,-12 0,-5 1,-9 4,-12 3,-3 6,-4 10,-4 4,0 8,1 10,4 3,3 4,7 4,12 0,0 0,1 0,1l-23 0c0,4 1,6 3,8 2,2 4,3 7,3 1,0 3,-1 4,-2 2,-1 3,-2 4,-5zm-17 -8l17 0c-1,-2 -1,-4 -2,-6 -2,-2 -4,-3 -7,-3 -2,0 -4,1 -6,3 -1,1 -2,3 -2,6zm65 7l5 1c0,3 -2,6 -4,8 -2,2 -5,3 -9,3 -4,0 -7,-1 -10,-4 -2,-3 -3,-7 -3,-12 0,-3 0,-6 1,-9 1,-2 3,-4 5,-5 2,-1 5,-2 8,-2 3,0 6,1 8,3 2,1 3,4 4,7l-5 0c-1,-2 -2,-3 -3,-4 -1,-1 -3,-2 -4,-2 -3,0 -5,1 -7,3 -1,2 -2,5 -2,9 0,4 1,7 2,9 2,2 4,3 6,3 2,0 4,-1 6,-2 1,-1 2,-3 2,-6zm10 11l0 -42 5 0 0 15c2,-3 5,-4 9,-4 2,0 4,0 6,1 2,1 3,2 4,4 0,2 1,4 1,7l0 19 -6 0 0 -19c0,-3 0,-5 -1,-6 -1,-1 -3,-1 -5,-1 -2,0 -3,0 -4,1 -2,1 -3,2 -3,3 -1,1 -1,3 -1,6l0 16 -5 0zm53 -3c-2,1 -4,2 -6,3 -2,1 -4,1 -6,1 -3,0 -6,-1 -7,-2 -2,-2 -3,-4 -3,-7 0,-1 0,-3 1,-4 1,-1 1,-2 3,-3 1,-1 2,-1 3,-2 1,0 3,0 5,0 4,-1 7,-1 9,-2 0,-1 0,-1 0,-1 0,-3 0,-4 -1,-5 -2,-1 -3,-2 -6,-2 -3,0 -4,1 -6,2 -1,0 -2,2 -2,4l-5 -1c0,-2 1,-3 2,-5 1,-1 3,-2 5,-3 2,-1 4,-1 7,-1 2,0 4,0 6,1 2,1 3,1 4,2 0,1 1,2 1,4 0,1 1,2 1,5l0 7c0,4 0,7 0,9 0,1 1,2 1,3l-5 0c-1,-1 -1,-2 -1,-3zm-1 -12c-2,1 -4,1 -8,2 -2,0 -4,1 -5,1 -1,0 -1,1 -2,2 0,0 -1,1 -1,2 0,2 1,3 2,4 1,1 3,1 5,1 2,0 3,0 5,-1 2,-1 3,-2 3,-4 1,-1 1,-3 1,-5l0 -2zm14 15l0 -30 4 0 0 4c1,-2 2,-3 4,-4 1,-1 2,-1 3,-1 2,0 3,1 5,2l-2 4c-1,0 -2,-1 -3,-1 -2,0 -3,1 -3,1 -1,1 -2,2 -2,3 -1,2 -1,4 -1,6l0 16 -5 0zm18 3l5 1c0,1 1,2 2,3 1,1 3,2 5,2 2,0 4,-1 5,-2 2,-1 3,-2 3,-4 0,-1 0,-3 0,-7 -2,3 -5,4 -8,4 -4,0 -8,-1 -10,-4 -2,-3 -3,-7 -3,-11 0,-3 0,-6 1,-8 1,-3 3,-5 5,-6 2,-1 4,-2 7,-2 4,0 7,1 9,4l0 -3 5 0 0 26c0,5 -1,8 -2,10 -1,2 -2,4 -4,5 -2,1 -5,2 -8,2 -4,0 -7,-1 -9,-3 -2,-1 -3,-4 -3,-7zm4 -18c0,4 1,6 2,8 2,2 4,3 6,3 3,0 5,-1 6,-3 2,-2 3,-4 3,-8 0,-4 -1,-7 -3,-9 -1,-2 -3,-3 -6,-3 -2,0 -4,1 -6,3 -1,2 -2,5 -2,9zm51 5l6 1c-1,3 -3,6 -5,7 -2,2 -5,3 -9,3 -4,0 -8,-1 -11,-4 -2,-3 -3,-7 -3,-12 0,-5 1,-9 3,-12 3,-3 7,-4 11,-4 4,0 7,1 10,4 2,3 4,7 4,12 0,0 0,1 0,1l-23 0c0,4 1,6 3,8 1,2 4,3 6,3 2,0 4,-1 5,-2 1,-1 2,-2 3,-5zm-17 -8l17 0c0,-2 -1,-4 -2,-6 -1,-2 -4,-3 -6,-3 -3,0 -5,1 -6,3 -2,1 -3,3 -3,6z"/>
   <path class="fil7" d="M2324 1053l-4 0c6,-9 9,-19 9,-28 0,-4 -1,-7 -2,-11 0,-3 -1,-5 -2,-8 -1,-2 -3,-5 -5,-9l4 0c3,5 6,10 8,15 1,4 2,8 2,13 0,5 -1,10 -3,15 -2,5 -5,9 -7,13z"/>
  </g>
  <path class="fil7" d="M757 238c0,-5 1,-9 2,-12 1,-3 2,-5 4,-7 2,-2 5,-2 8,-2 2,0 4,0 6,1 2,1 3,2 4,4 1,2 2,4 3,6 0,3 1,6 1,10 0,5 -1,9 -2,12 -1,3 -2,6 -4,7 -2,2 -5,3 -8,3 -4,0 -7,-2 -10,-5 -2,-3 -4,-9 -4,-17zm6 0c0,7 0,12 2,14 2,2 4,4 6,4 2,0 4,-2 6,-4 2,-2 2,-7 2,-14 0,-7 0,-11 -2,-14 -2,-2 -4,-3 -6,-3 -2,0 -4,1 -6,3 -2,2 -2,7 -2,14z"/>
  <path class="fil7" d="M757 396c0,-5 1,-9 2,-13 1,-3 2,-5 4,-7 2,-1 5,-2 8,-2 2,0 4,0 6,1 2,1 3,3 4,4 1,2 2,4 3,7 0,2 1,5 1,10 0,5 -1,9 -2,12 -1,3 -2,5 -4,7 -2,1 -5,2 -8,2 -4,0 -7,-1 -10,-4 -2,-4 -4,-9 -4,-17zm6 0c0,7 0,11 2,13 2,3 4,4 6,4 2,0 4,-1 6,-4 2,-2 2,-6 2,-13 0,-7 0,-12 -2,-14 -2,-3 -4,-4 -6,-4 -2,0 -4,1 -6,3 -2,3 -2,8 -2,15zm30 20l0 -5 6 0 0 5 -6 0zm33 0l-5 0 0 -33c-1,2 -3,3 -5,4 -2,1 -4,2 -5,3l0 -5c2,-2 5,-3 7,-5 2,-2 4,-4 5,-6l3 0 0 42zm29 -12l0 -5 16 0 0 5 -16 0zm57 12l-5 0 0 -33c-2,2 -3,3 -5,4 -2,1 -4,2 -6,3l0 -5c3,-2 6,-3 8,-5 2,-2 3,-4 4,-6l4 0 0 42zm13 -20c0,-5 1,-9 2,-13 1,-3 2,-5 4,-7 2,-1 5,-2 8,-2 2,0 4,0 6,1 2,1 3,3 4,4 1,2 2,4 3,7 0,2 1,5 1,10 0,5 -1,9 -2,12 -1,3 -2,5 -4,7 -2,1 -5,2 -8,2 -4,0 -7,-1 -10,-4 -3,-4 -4,-9 -4,-17zm5 0c0,7 1,11 3,13 2,3 4,4 6,4 2,0 4,-1 6,-4 2,-2 2,-6 2,-13 0,-7 0,-12 -2,-14 -2,-3 -4,-4 -6,-4 -3,0 -4,1 -6,3 -2,3 -3,8 -3,15z"/>
  <path class="fil7" d="M773 574l-5 0 0 -33c-2,1 -3,2 -5,3 -2,1 -4,2 -6,3l0 -5c3,-1 6,-3 8,-5 2,-2 4,-4 4,-6l4 0 0 43zm13 -21c0,-5 1,-9 2,-12 1,-3 2,-6 4,-7 2,-2 5,-3 8,-3 2,0 4,1 6,2 2,1 3,2 4,4 1,1 2,3 3,6 1,2 1,6 1,10 0,5 -1,9 -2,12 -1,3 -2,5 -4,7 -2,2 -5,3 -8,3 -4,0 -7,-2 -10,-5 -2,-3 -4,-9 -4,-17zm6 0c0,7 0,12 2,14 2,2 4,3 6,3 2,0 4,-1 6,-3 2,-2 2,-7 2,-14 0,-7 0,-12 -2,-14 -2,-2 -4,-3 -6,-3 -2,0 -4,1 -6,3 -2,2 -2,7 -2,14zm30 21l0 -6 6 0 0 6 -6 0zm33 0l-5 0 0 -33c-1,1 -3,2 -5,3 -2,1 -4,2 -5,3l0 -5c2,-1 5,-3 7,-5 2,-2 4,-4 5,-6l3 0 0 43zm29 -13l0 -5 16 0 0 5 -16 0zm37 2l5 -1c1,3 2,5 3,6 2,2 4,2 6,2 2,0 4,-1 6,-2 2,-2 2,-4 2,-7 0,-2 0,-4 -2,-6 -1,-1 -3,-2 -6,-2 -1,0 -2,0 -4,1l1 -5c0,0 1,0 1,0 2,0 4,0 6,-2 2,-1 3,-2 3,-5 0,-2 -1,-3 -2,-5 -2,-1 -3,-1 -5,-1 -2,0 -4,0 -5,1 -2,2 -3,4 -3,6l-5 -1c0,-3 2,-6 4,-8 2,-2 5,-3 8,-3 3,0 5,1 7,2 2,1 3,2 4,4 1,2 2,3 2,5 0,2 -1,4 -2,5 -1,2 -2,3 -4,4 3,0 5,2 6,3 1,2 2,5 2,7 0,4 -1,7 -4,10 -3,2 -6,4 -10,4 -4,0 -7,-2 -10,-4 -2,-2 -3,-5 -4,-8zm33 -10c0,-5 1,-9 2,-12 1,-3 2,-6 4,-7 2,-2 5,-3 8,-3 2,0 4,1 6,2 2,1 3,2 4,4 1,1 2,3 3,6 0,2 1,6 1,10 0,5 -1,9 -2,12 -1,3 -2,5 -4,7 -2,2 -5,3 -8,3 -4,0 -7,-2 -10,-5 -2,-3 -4,-9 -4,-17zm5 0c0,7 1,12 3,14 2,2 4,3 6,3 2,0 4,-1 6,-3 2,-2 2,-7 2,-14 0,-7 0,-12 -2,-14 -2,-2 -4,-3 -6,-3 -3,0 -4,1 -6,3 -2,2 -3,7 -3,14z"/>
  <path class="fil7" d="M757 720l5 -1c1,3 2,5 3,7 2,1 4,2 6,2 2,0 4,-1 6,-3 2,-2 2,-4 2,-6 0,-3 0,-5 -2,-6 -1,-2 -3,-2 -6,-2 -1,0 -2,0 -4,0l1 -4c0,0 1,0 1,0 2,0 4,-1 6,-2 2,-1 3,-3 3,-5 0,-2 -1,-4 -2,-5 -2,-1 -3,-2 -5,-2 -2,0 -4,1 -5,2 -2,1 -3,3 -3,6l-5 -1c0,-4 2,-7 4,-8 2,-2 5,-3 8,-3 3,0 5,0 7,1 2,1 3,2 4,4 1,2 2,4 2,6 0,1 -1,3 -2,5 -1,1 -2,2 -4,3 3,1 5,2 6,4 1,2 2,4 2,7 0,3 -1,7 -4,9 -3,3 -6,4 -10,4 -4,0 -7,-1 -10,-3 -2,-3 -3,-5 -4,-9zm33 -10c0,-5 1,-9 2,-12 1,-3 2,-5 4,-7 2,-2 5,-2 8,-2 2,0 4,0 6,1 2,1 3,2 4,4 1,2 2,4 3,6 0,3 1,6 1,10 0,5 -1,9 -2,12 -1,3 -2,6 -4,7 -2,2 -5,3 -8,3 -4,0 -7,-1 -10,-4 -2,-4 -4,-10 -4,-18zm5 0c0,7 1,12 3,14 2,3 4,4 6,4 2,0 4,-1 6,-4 2,-2 2,-7 2,-14 0,-7 0,-11 -2,-14 -2,-2 -4,-3 -6,-3 -3,0 -4,1 -6,3 -2,3 -3,7 -3,14zm31 21l0 -6 6 0 0 6 -6 0zm33 0l-5 0 0 -33c-1,1 -3,2 -5,4 -2,1 -4,2 -6,2l0 -5c3,-1 6,-3 8,-5 2,-2 4,-4 5,-5l3 0 0 42zm29 -12l0 -6 16 0 0 6 -16 0zm64 -20l-5 1c0,-2 -1,-4 -2,-5 -1,-1 -3,-2 -5,-2 -2,0 -3,0 -5,1 -1,2 -3,3 -3,6 -1,2 -2,5 -2,9 1,-2 3,-3 5,-4 1,-1 3,-1 5,-1 4,0 7,1 9,4 3,2 4,5 4,9 0,3 -1,6 -2,8 -1,2 -3,4 -5,5 -2,1 -4,2 -6,2 -5,0 -8,-2 -11,-5 -3,-3 -4,-8 -4,-16 0,-8 1,-14 4,-17 3,-4 7,-5 11,-5 3,0 6,1 8,2 2,2 4,5 4,8zm-21 19c0,1 0,3 1,5 1,1 2,3 3,3 2,1 3,2 5,2 2,0 4,-1 5,-3 2,-2 3,-4 3,-7 0,-3 -1,-5 -3,-7 -1,-2 -3,-3 -6,-3 -2,0 -4,1 -6,3 -1,2 -2,4 -2,7zm27 -8c0,-5 1,-9 2,-12 1,-3 2,-5 4,-7 2,-2 5,-2 8,-2 2,0 4,0 6,1 2,1 3,2 4,4 1,2 2,4 3,6 0,3 1,6 1,10 0,5 -1,9 -2,12 -1,3 -2,6 -4,7 -2,2 -5,3 -8,3 -4,0 -7,-1 -10,-4 -3,-4 -4,-10 -4,-18zm5 0c0,7 1,12 3,14 1,3 3,4 6,4 2,0 4,-1 6,-4 2,-2 2,-7 2,-14 0,-7 0,-11 -2,-14 -2,-2 -4,-3 -6,-3 -3,0 -5,1 -6,3 -2,3 -3,7 -3,14z"/>
  <path class="fil7" d="M785 857l-6 0c0,-2 -1,-4 -2,-4 -1,-2 -3,-3 -5,-3 -2,0 -3,1 -4,2 -2,1 -3,3 -4,5 -1,2 -2,5 -2,10 2,-2 3,-4 5,-5 2,0 4,-1 6,-1 3,0 6,1 9,4 2,2 3,6 3,10 0,2 0,5 -2,7 -1,3 -2,4 -4,6 -2,1 -5,1 -7,1 -4,0 -8,-1 -11,-4 -2,-4 -4,-9 -4,-16 0,-8 2,-14 5,-18 2,-3 6,-5 10,-5 4,0 7,1 9,3 2,2 3,4 4,8zm-22 18c0,2 1,3 1,5 1,2 2,3 4,4 1,1 2,1 4,1 2,0 4,-1 6,-3 1,-1 2,-4 2,-7 0,-3 -1,-5 -2,-7 -2,-1 -4,-2 -6,-2 -3,0 -5,1 -6,2 -2,2 -3,4 -3,7zm27 -7c0,-5 1,-9 2,-12 1,-3 2,-6 5,-7 2,-2 4,-3 7,-3 2,0 4,0 6,1 2,1 3,3 4,4 2,2 2,4 3,7 1,2 1,6 1,10 0,5 -1,9 -2,12 -1,3 -2,5 -4,7 -2,2 -5,2 -8,2 -4,0 -7,-1 -9,-4 -3,-4 -5,-9 -5,-17zm6 0c0,7 1,11 2,14 2,2 4,3 6,3 3,0 5,-1 6,-3 2,-3 3,-7 3,-14 0,-7 -1,-12 -3,-14 -1,-2 -3,-4 -6,-4 -2,0 -4,1 -6,3 -1,3 -2,8 -2,15zm30 21l0 -6 6 0 0 6 -6 0zm33 0l-5 0 0 -34c-1,2 -3,3 -5,4 -2,1 -4,2 -5,3l0 -5c3,-2 5,-3 7,-5 3,-2 4,-4 5,-6l3 0 0 43zm30 -13l0 -5 16 0 0 5 -16 0zm56 13l-5 0 0 -34c-2,2 -3,3 -5,4 -2,1 -4,2 -6,3l0 -5c3,-2 6,-3 8,-5 2,-2 4,-4 5,-6l3 0 0 43zm30 0l0 -11 -18 0 0 -4 19 -28 4 0 0 28 6 0 0 4 -6 0 0 11 -5 0zm0 -15l0 -19 -13 19 13 0zm17 5l5 -1c0,3 1,4 2,5 2,2 3,2 5,2 2,0 3,0 4,-1 1,-1 2,-2 3,-3 1,-1 2,-3 2,-5 1,-2 1,-4 1,-6 0,-1 0,-1 0,-1 -1,1 -3,3 -4,4 -2,1 -4,1 -6,1 -4,0 -7,-1 -9,-4 -3,-2 -4,-5 -4,-10 0,-4 1,-7 4,-10 3,-3 6,-4 10,-4 2,0 5,1 7,2 2,2 4,4 5,7 1,2 2,6 2,12 0,5 -1,9 -2,12 -1,4 -3,6 -5,8 -2,1 -5,2 -8,2 -3,0 -6,-1 -8,-2 -2,-2 -4,-5 -4,-8zm21 -19c0,-3 -1,-5 -2,-7 -2,-2 -4,-3 -6,-3 -2,0 -4,1 -6,3 -2,2 -2,5 -2,8 0,2 0,4 2,6 2,2 4,3 6,3 2,0 4,-1 6,-3 1,-2 2,-4 2,-7zm13 29l0 -6 6 0 0 6 -6 0zm15 -10l5 -1c0,3 1,4 2,5 1,2 3,2 5,2 1,0 3,0 4,-1 1,-1 2,-2 3,-3 1,-1 1,-3 2,-5 0,-2 1,-4 1,-6 0,-1 0,-1 0,-1 -1,1 -3,3 -5,4 -1,1 -3,1 -5,1 -4,0 -7,-1 -9,-4 -3,-2 -4,-5 -4,-10 0,-4 1,-7 4,-10 2,-3 6,-4 9,-4 3,0 6,1 8,2 2,2 4,4 5,7 1,2 2,6 2,12 0,5 -1,9 -2,12 -1,4 -3,6 -5,8 -2,1 -5,2 -8,2 -4,0 -6,-1 -8,-2 -3,-2 -4,-5 -4,-8zm21 -19c0,-3 -1,-5 -2,-7 -2,-2 -4,-3 -6,-3 -2,0 -4,1 -6,3 -2,2 -3,5 -3,8 0,2 1,4 3,6 1,2 3,3 6,3 2,0 4,-1 6,-3 1,-2 2,-4 2,-7z"/>
  <path class="fil7" d="M773 1046l-5 0 0 -33c-2,1 -3,2 -5,3 -2,2 -4,2 -6,3l0 -5c3,-1 6,-3 8,-5 2,-2 4,-4 4,-6l4 0 0 43zm13 -11l6 -1c0,3 1,5 2,6 2,2 4,2 6,2 2,0 4,-1 6,-2 2,-2 3,-5 3,-8 0,-3 -1,-5 -3,-7 -1,-2 -4,-3 -6,-3 -2,0 -4,1 -5,2 -1,0 -2,1 -3,3l-5 -1 4 -22 21 0 0 5 -17 0 -2 12c3,-2 5,-3 8,-3 4,0 7,1 9,4 3,2 4,6 4,10 0,3 -1,7 -3,10 -3,3 -7,5 -11,5 -4,0 -7,-1 -10,-4 -2,-2 -4,-5 -4,-8zm33 -10c0,-5 0,-9 2,-12 1,-3 2,-5 4,-7 2,-2 5,-3 8,-3 2,0 4,1 6,2 1,1 3,2 4,4 1,1 2,4 3,6 0,3 1,6 1,10 0,5 -1,9 -2,12 -1,3 -3,6 -5,7 -2,2 -4,3 -7,3 -4,0 -8,-2 -10,-5 -3,-3 -4,-9 -4,-17zm5 0c0,7 1,12 3,14 1,2 3,3 6,3 2,0 4,-1 6,-3 1,-2 2,-7 2,-14 0,-7 -1,-12 -2,-14 -2,-2 -4,-3 -6,-3 -3,0 -5,1 -6,3 -2,2 -3,7 -3,14zm40 14l0 -11 -11 0 0 -5 11 0 0 -12 5 0 0 12 12 0 0 5 -12 0 0 11 -5 0z"/>
  <path class="fil7" d="M380 272l-9 0 -4 -10 -17 0 -4 10 -9 0 17 -43 9 0 17 43zm-16 -17l-6 -16 -5 16 11 0z"/>
  <path class="fil7" d="M341 387l17 0c3,0 6,0 7,0 2,0 3,1 5,2 1,1 2,2 3,3 1,2 1,3 1,5 0,2 0,4 -1,6 -1,1 -3,3 -5,3 3,1 5,2 6,4 2,2 2,4 2,7 0,2 0,3 -1,5 -1,2 -2,4 -4,5 -1,1 -3,1 -5,2 -2,0 -5,0 -11,0l-14 0 0 -42zm8 7l0 9 6 0c3,0 5,0 6,0 2,0 3,0 4,-1 1,-1 1,-2 1,-4 0,-1 0,-2 -1,-3 -1,-1 -2,-1 -3,-1 -1,0 -4,0 -8,0l-5 0zm0 16l0 12 8 0c3,0 5,0 6,0 2,-1 3,-1 3,-2 1,-1 2,-2 2,-4 0,-1 -1,-2 -1,-3 -1,-1 -2,-2 -3,-2 -1,0 -4,-1 -8,-1l-7 0z"/>
  <path class="fil7" d="M369 571l8 2c-1,5 -3,8 -6,11 -3,2 -7,3 -12,3 -5,0 -10,-2 -13,-6 -4,-3 -6,-9 -6,-15 0,-7 2,-13 6,-17 3,-4 8,-6 14,-6 5,0 9,2 13,5 2,2 3,4 4,8l-8 2c-1,-2 -2,-4 -4,-6 -1,-1 -3,-1 -5,-1 -4,0 -6,1 -8,3 -2,2 -3,6 -3,11 0,5 1,9 3,11 2,3 4,4 7,4 3,0 5,-1 6,-2 2,-2 3,-4 4,-7z"/>
  <path class="fil7" d="M341 701l15 0c4,0 7,1 9,1 2,1 4,2 6,4 2,2 3,4 4,7 1,3 1,6 1,10 0,3 0,6 -1,9 -1,3 -3,6 -4,7 -2,2 -4,3 -6,4 -2,0 -5,1 -8,1l-16 0 0 -43zm8 8l0 28 7 0c2,0 4,-1 5,-1 1,0 3,-1 3,-2 1,0 2,-2 3,-4 0,-2 1,-4 1,-7 0,-4 -1,-6 -1,-8 -1,-2 -2,-3 -3,-4 -1,-1 -2,-2 -4,-2 -1,0 -3,0 -7,0l-4 0z"/>
  <polygon class="fil7" points="343,901 343,859 374,859 374,866 351,866 351,875 372,875 372,882 351,882 351,894 375,894 375,901 "/>
  <polygon class="fil7" points="344,1059 344,1016 373,1016 373,1023 353,1023 353,1033 370,1033 370,1040 353,1040 353,1059 "/>
  <path class="fil7" d="M83 81l11 3c-2,6 -5,11 -8,14 -4,3 -9,4 -15,4 -7,0 -13,-3 -18,-7 -4,-5 -7,-12 -7,-21 0,-9 3,-16 7,-21 5,-5 11,-7 19,-7 6,0 12,2 16,5 2,3 4,6 6,11l-11 2c-1,-3 -2,-5 -4,-7 -2,-1 -5,-2 -8,-2 -4,0 -7,1 -10,4 -2,3 -3,8 -3,14 0,7 1,12 3,15 3,3 6,5 10,5 3,0 5,-1 8,-3 2,-2 3,-5 4,-9zm18 0c0,-4 1,-7 2,-10 2,-4 4,-6 8,-8 3,-1 6,-2 10,-2 6,0 11,2 15,6 4,3 5,8 5,14 0,6 -2,11 -5,15 -4,4 -9,6 -15,6 -4,0 -7,-1 -10,-2 -4,-2 -6,-4 -8,-8 -1,-3 -2,-7 -2,-11zm10 0c0,4 1,7 3,9 2,2 4,4 7,4 3,0 5,-2 7,-4 2,-2 3,-5 3,-9 0,-4 -1,-7 -3,-9 -2,-2 -4,-3 -7,-3 -3,0 -5,1 -7,3 -2,2 -3,5 -3,9zm38 -19l9 0 0 5c4,-4 8,-6 13,-6 2,0 4,0 6,1 2,1 4,3 5,5 2,-2 4,-4 6,-5 2,-1 4,-1 6,-1 3,0 5,0 7,1 2,2 4,3 5,6 1,1 1,4 1,8l0 25 -11 0 0 -22c0,-4 0,-7 -1,-8 -1,-2 -2,-2 -4,-2 -2,0 -3,0 -4,1 -1,1 -2,2 -3,4 -1,2 -1,4 -1,8l0 19 -10 0 0 -22c0,-3 0,-6 -1,-7 0,-1 -1,-2 -2,-2 0,-1 -1,-1 -3,-1 -1,0 -3,0 -4,1 -1,1 -2,2 -3,4 0,1 -1,4 -1,8l0 19 -10 0 0 -39zm68 0l10 0 0 5c1,-2 3,-3 5,-4 2,-2 4,-2 7,-2 5,0 9,2 12,5 3,4 5,9 5,15 0,7 -2,12 -5,16 -3,3 -7,5 -12,5 -2,0 -4,0 -6,-1 -2,-1 -4,-3 -6,-5l0 20 -10 0 0 -54zm10 19c0,4 1,7 3,10 2,2 4,3 6,3 3,0 5,-1 6,-3 2,-2 3,-5 3,-10 0,-4 -1,-7 -3,-9 -1,-2 -3,-3 -6,-3 -2,0 -4,1 -6,3 -2,2 -3,5 -3,9zm37 20l0 -54 10 0 0 54 -10 0zm21 -45l0 -9 10 0 0 9 -10 0zm0 45l0 -39 10 0 0 39 -10 0zm29 -27l-10 -2c2,-4 3,-7 6,-9 3,-1 6,-2 12,-2 4,0 8,0 10,1 2,1 4,3 5,5 1,1 1,4 1,9l0 12c0,4 0,6 1,8 0,1 1,3 1,5l-10 0c0,-1 -1,-2 -1,-3 0,-1 0,-1 0,-1 -2,2 -4,3 -6,4 -2,1 -4,1 -6,1 -5,0 -8,-1 -10,-3 -2,-2 -4,-5 -4,-9 0,-2 1,-4 2,-6 1,-1 3,-3 5,-4 1,-1 4,-1 8,-2 5,-1 8,-2 10,-3l0 -1c0,-2 -1,-3 -2,-4 -1,-1 -2,-1 -5,-1 -2,0 -3,0 -5,1 -1,1 -1,2 -2,4zm14 8c-1,1 -4,1 -6,2 -3,0 -5,1 -6,2 -1,1 -2,2 -2,3 0,2 0,3 2,4 1,1 2,2 4,2 2,0 3,-1 5,-2 1,-1 2,-2 3,-4 0,-1 0,-2 0,-5l0 -2zm56 19l-10 0 0 -20c0,-4 0,-7 -1,-8 0,-2 -1,-3 -2,-3 -1,-1 -2,-1 -3,-1 -2,0 -4,0 -5,1 -2,1 -3,2 -3,4 -1,2 -1,5 -1,9l0 18 -11 0 0 -39 10 0 0 5c4,-4 8,-6 13,-6 2,0 5,0 6,1 2,1 4,2 5,3 1,1 2,3 2,5 0,1 0,3 0,7l0 24zm45 -28l-10 2c0,-2 -1,-3 -2,-5 -1,-1 -3,-1 -5,-1 -3,0 -5,1 -6,3 -2,1 -3,4 -3,9 0,4 1,8 3,10 1,2 4,3 6,3 2,0 4,-1 5,-2 1,-1 2,-3 3,-6l10 2c-1,4 -3,8 -6,10 -3,3 -7,4 -12,4 -6,0 -11,-2 -14,-5 -4,-4 -5,-9 -5,-16 0,-6 1,-11 5,-15 3,-3 8,-5 14,-5 5,0 9,1 11,3 3,2 5,5 6,9zm31 16l11 1c-2,4 -4,7 -7,9 -3,2 -6,3 -11,3 -6,0 -11,-2 -15,-7 -2,-3 -4,-8 -4,-13 0,-7 2,-12 5,-16 4,-3 8,-5 13,-5 6,0 11,2 14,6 4,3 5,9 5,17l-26 0c0,3 1,6 3,8 1,1 3,2 6,2 1,0 3,0 4,-1 1,-1 2,-2 2,-4zm1 -11c0,-3 -1,-5 -2,-7 -2,-2 -4,-2 -6,-2 -2,0 -4,1 -6,2 -1,2 -2,4 -2,7l16 0zm39 23l0 -54 10 0 0 19c3,-3 7,-5 12,-5 4,0 8,1 11,5 4,3 5,8 5,15 0,7 -1,12 -5,16 -3,3 -7,5 -11,5 -3,0 -5,-1 -7,-2 -2,-1 -4,-3 -6,-5l0 6 -9 0zm10 -20c0,4 1,7 2,9 2,2 4,4 7,4 2,0 4,-1 6,-3 2,-2 2,-5 2,-9 0,-5 0,-8 -2,-10 -2,-2 -4,-3 -6,-3 -3,0 -5,1 -7,3 -1,2 -2,5 -2,9zm44 -7l-9 -2c1,-4 3,-7 5,-9 3,-1 7,-2 12,-2 5,0 8,0 11,1 2,1 3,3 4,5 1,1 2,4 2,9l0 12c0,4 0,6 0,8 0,1 1,3 2,5l-10 0c-1,-1 -1,-2 -1,-3 -1,-1 -1,-1 -1,-1 -2,2 -3,3 -6,4 -2,1 -4,1 -6,1 -4,0 -7,-1 -10,-3 -2,-2 -3,-5 -3,-9 0,-2 0,-4 2,-6 1,-1 2,-3 4,-4 2,-1 5,-1 8,-2 5,-1 9,-2 10,-3l0 -1c0,-2 0,-3 -1,-4 -1,-1 -3,-1 -6,-1 -2,0 -3,0 -4,1 -1,1 -2,2 -3,4zm14 8c-1,1 -3,1 -6,2 -3,0 -5,1 -6,2 -1,1 -2,2 -2,3 0,2 1,3 2,4 1,1 2,2 4,2 2,0 4,-1 6,-2 1,-1 2,-2 2,-4 0,-1 0,-2 0,-5l0 -2zm56 19l-10 0 0 -20c0,-4 0,-7 -1,-8 0,-2 -1,-3 -2,-3 -1,-1 -2,-1 -4,-1 -2,0 -3,0 -5,1 -1,1 -2,2 -3,4 0,2 0,5 0,9l0 18 -11 0 0 -39 10 0 0 5c3,-4 8,-6 13,-6 2,0 4,0 6,1 2,1 4,2 5,3 1,1 1,3 2,5 0,1 0,3 0,7l0 24zm47 0l-10 0 0 -6c-1,3 -3,4 -5,5 -3,1 -5,2 -7,2 -5,0 -8,-2 -12,-5 -3,-4 -5,-9 -5,-16 0,-6 2,-12 5,-15 3,-4 7,-5 12,-5 5,0 8,2 12,5l0 -19 10 0 0 54zm-28 -20c0,4 1,7 2,9 2,2 4,4 7,4 2,0 4,-1 6,-3 2,-2 3,-5 3,-9 0,-5 -1,-8 -3,-10 -2,-2 -4,-3 -6,-3 -3,0 -5,1 -6,3 -2,2 -3,5 -3,9z"/>
  <path class="fil7" d="M1380 100l0 -54 11 0 0 54 -11 0zm21 -39l9 0 0 5c4,-4 8,-6 13,-6 2,0 4,0 6,1 2,1 3,3 5,5 1,-2 3,-4 5,-5 2,-1 4,-1 7,-1 3,0 5,0 7,1 2,2 4,3 5,6 0,1 1,4 1,8l0 25 -11 0 0 -22c0,-4 0,-7 -1,-8 -1,-2 -2,-2 -4,-2 -2,0 -3,0 -4,1 -2,1 -3,2 -3,4 -1,2 -1,4 -1,8l0 19 -11 0 0 -22c0,-3 0,-6 0,-7 0,-1 -1,-2 -2,-2 -1,-1 -2,-1 -3,-1 -2,0 -3,0 -4,1 -2,1 -3,2 -3,4 -1,1 -1,4 -1,8l0 19 -10 0 0 -39zm68 0l10 0 0 5c1,-2 3,-3 5,-4 2,-2 4,-2 7,-2 4,0 8,2 12,5 3,4 4,9 4,15 0,7 -1,12 -4,16 -4,3 -8,5 -12,5 -2,0 -4,0 -6,-1 -2,-1 -4,-3 -6,-5l0 20 -10 0 0 -54zm10 19c0,4 1,7 3,10 1,2 4,3 6,3 3,0 5,-1 6,-3 2,-2 3,-5 3,-10 0,-4 -1,-7 -3,-9 -2,-2 -4,-3 -6,-3 -3,0 -5,1 -6,3 -2,2 -3,5 -3,9zm44 -7l-9 -2c1,-4 3,-7 5,-9 3,-1 7,-2 12,-2 5,0 8,0 10,1 3,1 4,3 5,5 1,1 2,4 2,9l0 12c0,4 0,6 0,8 0,1 1,3 2,5l-10 0c-1,-1 -1,-2 -1,-3 -1,-1 -1,-1 -1,-1 -2,2 -4,3 -6,4 -2,1 -4,1 -6,1 -4,0 -7,-1 -10,-3 -2,-2 -3,-5 -3,-9 0,-2 0,-4 1,-6 2,-1 3,-3 5,-4 2,-1 5,-1 8,-2 5,-1 9,-2 10,-3l0 -1c0,-2 0,-3 -1,-4 -1,-1 -3,-1 -6,-1 -2,0 -3,0 -4,1 -1,1 -2,2 -3,4zm14 8c-1,1 -3,1 -6,2 -3,0 -5,1 -6,2 -1,1 -2,2 -2,3 0,2 1,3 2,4 1,1 2,2 4,2 2,0 4,-1 6,-2 1,-1 2,-2 2,-4 0,-1 0,-2 0,-5l0 -2zm55 -9l-10 2c0,-2 -1,-3 -2,-5 -1,-1 -3,-1 -5,-1 -3,0 -5,1 -6,3 -2,1 -3,4 -3,9 0,4 1,8 3,10 1,2 3,3 6,3 2,0 4,-1 5,-2 1,-1 2,-3 3,-6l10 2c-1,4 -3,8 -6,10 -3,3 -7,4 -12,4 -6,0 -11,-2 -14,-5 -4,-4 -5,-9 -5,-16 0,-6 1,-11 5,-15 3,-3 8,-5 14,-5 5,0 8,1 11,3 3,2 5,5 6,9zm26 -11l0 8 -8 0 0 16c0,3 1,5 1,6 0,0 0,1 1,1 0,0 1,0 1,0 1,0 3,0 5,-1l0 8c-2,2 -5,2 -8,2 -2,0 -3,0 -5,-1 -1,-1 -2,-1 -3,-2 -1,-1 -1,-3 -2,-4 0,-2 0,-4 0,-8l0 -17 -5 0 0 -8 5 0 0 -8 10 -6 0 14 8 0zm26 19c0,-4 1,-7 3,-10 2,-4 4,-6 7,-8 3,-1 7,-2 11,-2 6,0 11,2 14,6 4,3 6,8 6,14 0,6 -2,11 -6,15 -3,4 -8,6 -14,6 -4,0 -7,-1 -11,-2 -3,-2 -5,-4 -7,-8 -2,-3 -3,-7 -3,-11zm11 0c0,4 1,7 3,9 2,2 4,4 7,4 3,0 5,-2 7,-4 1,-2 2,-5 2,-9 0,-4 -1,-7 -2,-9 -2,-2 -4,-3 -7,-3 -3,0 -5,1 -7,3 -2,2 -3,5 -3,9zm74 20l-10 0 0 -20c0,-4 0,-7 -1,-8 0,-2 -1,-3 -2,-3 -1,-1 -2,-1 -4,-1 -1,0 -3,0 -5,1 -1,1 -2,2 -3,4 0,2 0,5 0,9l0 18 -11 0 0 -39 10 0 0 5c3,-4 8,-6 13,-6 2,0 4,0 6,1 2,1 4,2 5,3 1,1 1,3 2,5 0,1 0,3 0,7l0 24zm66 -28l-11 2c0,-2 -1,-3 -2,-5 -1,-1 -3,-1 -5,-1 -2,0 -4,1 -6,3 -2,1 -2,4 -2,9 0,4 1,8 2,10 2,2 4,3 6,3 2,0 4,-1 5,-2 2,-1 2,-3 3,-6l10 2c-1,4 -3,8 -6,10 -3,3 -7,4 -12,4 -6,0 -10,-2 -14,-5 -3,-4 -5,-9 -5,-16 0,-6 2,-11 5,-15 4,-3 8,-5 14,-5 5,0 9,1 12,3 2,2 4,5 6,9zm18 -26l0 20c3,-4 7,-6 12,-6 2,0 5,0 7,1 2,1 3,2 4,3 1,2 2,3 2,5 0,2 1,4 1,8l0 23 -11 0 0 -21c0,-4 0,-7 0,-8 -1,-1 -2,-2 -3,-2 -1,-1 -2,-1 -3,-1 -2,0 -4,0 -5,1 -2,1 -3,2 -3,4 -1,1 -1,4 -1,7l0 20 -11 0 0 -54 11 0zm43 27l-9 -2c1,-4 3,-7 5,-9 3,-1 7,-2 12,-2 4,0 8,0 10,1 2,1 4,3 5,5 1,1 1,4 1,9l0 12c0,4 0,6 1,8 0,1 1,3 2,5l-11 0c0,-1 0,-2 -1,-3 0,-1 0,-1 0,-1 -2,2 -4,3 -6,4 -2,1 -4,1 -6,1 -4,0 -8,-1 -10,-3 -2,-2 -3,-5 -3,-9 0,-2 0,-4 1,-6 1,-1 3,-3 5,-4 2,-1 4,-1 8,-2 5,-1 8,-2 10,-3l0 -1c0,-2 0,-3 -1,-4 -1,-1 -3,-1 -6,-1 -2,0 -3,0 -4,1 -1,1 -2,2 -3,4zm14 8c-1,1 -3,1 -6,2 -3,0 -5,1 -6,2 -1,1 -2,2 -2,3 0,2 1,3 2,4 1,1 2,2 4,2 2,0 4,-1 5,-2 2,-1 2,-2 3,-4 0,-1 0,-2 0,-5l0 -2zm31 19l-11 0 0 -39 10 0 0 5c2,-2 3,-4 4,-5 2,-1 3,-1 5,-1 2,0 5,0 7,2l-3 9c-2,-1 -4,-2 -5,-2 -2,0 -3,0 -4,1 -1,1 -2,3 -2,5 -1,2 -1,6 -1,13l0 12zm18 3l12 1c1,1 1,2 2,3 1,1 2,1 4,1 3,0 5,0 7,-1 0,-1 1,-2 2,-3 0,-1 0,-2 0,-5l0 -5c-3,4 -7,6 -12,6 -5,0 -9,-2 -12,-7 -3,-3 -4,-8 -4,-13 0,-7 2,-12 5,-15 3,-4 7,-5 12,-5 5,0 9,2 12,6l0 -5 10 0 0 35c0,5 -1,8 -2,10 0,3 -1,5 -3,6 -1,1 -3,2 -5,3 -3,1 -6,1 -9,1 -7,0 -12,-1 -14,-3 -3,-3 -5,-6 -5,-9 0,0 0,-1 0,-1zm10 -23c0,4 1,7 2,9 2,2 4,3 6,3 3,0 5,-1 7,-3 1,-2 2,-5 2,-9 0,-4 -1,-7 -2,-9 -2,-2 -4,-3 -7,-3 -2,0 -4,1 -6,3 -1,2 -2,5 -2,9zm61 8l10 1c-1,4 -3,7 -6,9 -3,2 -7,3 -11,3 -7,0 -12,-2 -15,-7 -3,-3 -4,-8 -4,-13 0,-7 2,-12 5,-16 3,-3 8,-5 13,-5 6,0 10,2 14,6 3,3 5,9 5,17l-26 0c0,3 0,6 2,8 2,1 4,2 6,2 2,0 3,0 4,-1 1,-1 2,-2 3,-4zm0 -11c0,-3 -1,-5 -2,-7 -1,-2 -3,-2 -5,-2 -3,0 -5,1 -6,2 -2,2 -2,4 -2,7l15 0z"/>
  <path class="fil7" d="M795 88l11 3c-2,6 -5,11 -8,14 -4,3 -9,4 -15,4 -7,0 -13,-2 -18,-7 -4,-5 -7,-12 -7,-21 0,-9 3,-16 7,-21 5,-5 11,-7 19,-7 6,0 12,2 16,5 3,3 4,6 6,11l-11 2c-1,-3 -2,-5 -4,-7 -2,-1 -5,-2 -8,-2 -4,0 -7,1 -10,4 -2,3 -3,8 -3,14 0,7 1,12 3,15 3,3 6,5 10,5 3,0 5,-1 8,-3 2,-2 3,-5 4,-9zm54 0l11 3c-2,6 -4,11 -8,14 -4,3 -9,4 -15,4 -7,0 -13,-2 -17,-7 -5,-5 -7,-12 -7,-21 0,-9 2,-16 7,-21 4,-5 10,-7 18,-7 7,0 12,2 16,5 3,3 5,6 6,11l-11 2c-1,-3 -2,-5 -4,-7 -2,-1 -5,-2 -8,-2 -4,0 -7,1 -9,4 -3,3 -4,8 -4,14 0,7 1,12 4,15 2,3 5,5 9,5 3,0 6,-1 8,-3 2,-2 3,-5 4,-9zm18 2l10 -1c1,4 2,7 4,8 2,2 5,3 8,3 4,0 6,-1 8,-2 2,-2 3,-4 3,-6 0,-1 -1,-2 -1,-3 -1,-1 -2,-2 -4,-2 -1,-1 -4,-2 -9,-3 -6,-1 -10,-3 -12,-5 -4,-3 -5,-7 -5,-11 0,-3 0,-6 2,-8 2,-2 4,-4 7,-6 3,-1 6,-1 10,-1 7,0 12,1 16,4 3,3 5,7 5,12l-11 1c0,-3 -1,-5 -3,-6 -1,-2 -4,-2 -7,-2 -3,0 -5,0 -7,2 -1,1 -2,2 -2,3 0,1 1,2 2,3 1,2 5,3 10,4 5,1 9,3 12,4 2,1 4,3 6,6 1,2 2,5 2,8 0,3 -1,6 -3,9 -1,3 -4,5 -7,6 -3,1 -7,2 -12,2 -7,0 -12,-2 -16,-5 -3,-3 -6,-8 -6,-14zm72 0l10 -1c1,4 2,7 4,8 2,2 5,3 8,3 4,0 6,-1 8,-2 2,-2 3,-4 3,-6 0,-1 -1,-2 -1,-3 -1,-1 -2,-2 -4,-2 -2,-1 -4,-2 -9,-3 -6,-1 -10,-3 -12,-5 -4,-3 -5,-7 -5,-11 0,-3 0,-6 2,-8 2,-2 4,-4 7,-6 3,-1 6,-1 10,-1 7,0 12,1 16,4 3,3 5,7 5,12l-11 1c0,-3 -1,-5 -3,-6 -1,-2 -4,-2 -7,-2 -3,0 -5,0 -7,2 -1,1 -2,2 -2,3 0,1 1,2 2,3 1,2 4,3 10,4 5,1 9,3 12,4 2,1 4,3 6,6 1,2 2,5 2,8 0,3 -1,6 -3,9 -1,3 -4,5 -7,6 -3,1 -7,2 -12,2 -7,0 -12,-2 -16,-5 -4,-3 -6,-8 -6,-14zm88 -10l-11 2c0,-2 -1,-3 -2,-5 -1,-1 -3,-1 -5,-1 -2,0 -5,1 -6,3 -2,1 -2,4 -2,9 0,4 0,8 2,10 2,2 4,3 6,3 2,0 4,-1 5,-2 1,-1 2,-3 3,-6l10 2c-1,4 -3,8 -6,10 -3,3 -7,4 -12,4 -6,0 -11,-2 -14,-5 -3,-4 -5,-9 -5,-16 0,-6 2,-11 5,-15 3,-3 8,-5 14,-5 5,0 9,1 11,3 3,2 5,5 7,9zm5 8c0,-4 1,-7 3,-10 1,-4 4,-6 7,-8 3,-1 7,-2 10,-2 6,0 11,2 15,6 4,3 6,8 6,14 0,6 -2,11 -6,15 -4,4 -9,6 -15,6 -3,0 -7,-1 -10,-2 -3,-2 -6,-4 -7,-8 -2,-3 -3,-7 -3,-11zm11 0c0,4 1,7 3,9 1,2 4,4 6,4 3,0 5,-2 7,-4 2,-2 3,-5 3,-9 0,-4 -1,-7 -3,-9 -2,-2 -4,-3 -7,-3 -2,0 -5,1 -6,3 -2,2 -3,5 -3,9zm47 20l-10 0 0 -39 9 0 0 5c2,-2 4,-4 5,-5 1,-1 3,-1 5,-1 2,0 4,0 6,2l-3 9c-2,-1 -3,-2 -5,-2 -1,0 -2,0 -3,1 -2,1 -2,3 -3,5 0,2 -1,6 -1,13l0 12zm43 -12l10 1c-1,4 -3,7 -6,9 -3,2 -7,3 -11,3 -7,0 -12,-2 -15,-7 -3,-3 -4,-8 -4,-13 0,-7 2,-12 5,-16 3,-3 8,-5 13,-5 6,0 10,2 14,6 3,3 5,9 5,17l-26 0c0,3 1,6 2,8 2,1 4,2 6,2 2,0 3,0 4,-1 1,-1 2,-2 3,-4zm0 -11c0,-3 0,-5 -2,-7 -1,-2 -3,-2 -5,-2 -3,0 -5,1 -6,2 -2,2 -2,4 -2,7l15 0zm16 12l10 -2c0,2 1,4 3,5 1,1 3,2 5,2 3,0 5,-1 7,-2 0,-1 1,-2 1,-3 0,-1 0,-1 -1,-2 0,0 -1,-1 -3,-1 -9,-2 -14,-4 -16,-5 -3,-2 -5,-5 -5,-9 0,-4 1,-6 4,-9 3,-2 7,-3 13,-3 5,0 9,1 12,2 2,2 4,5 5,8l-10 2c0,-2 -1,-3 -2,-4 -1,0 -3,-1 -5,-1 -3,0 -5,1 -6,1 -1,1 -1,2 -1,3 0,0 0,1 1,1 1,1 4,2 9,3 6,2 10,3 12,5 2,2 3,4 3,8 0,3 -1,7 -4,9 -3,3 -8,4 -14,4 -5,0 -9,-1 -12,-3 -3,-2 -6,-5 -6,-9z"/>
 </g>
</svg>
