<?xml version="1.0" encoding="UTF-8"?>
<!DOCTYPE svg PUBLIC "-//W3C//DTD SVG 1.1//EN" "http://www.w3.org/Graphics/SVG/1.1/DTD/svg11.dtd">
<!-- Creator: CorelDRAW X7 -->
<svg xmlns="http://www.w3.org/2000/svg" xml:space="preserve" width="21" height="21" version="1.1" style="shape-rendering:geometricPrecision; text-rendering:geometricPrecision; image-rendering:optimizeQuality; fill-rule:evenodd; clip-rule:evenodd"
viewBox="0 0 817 817"
 xmlns:xlink="http://www.w3.org/1999/xlink">
 <defs>
  <style type="text/css">
   <![CDATA[
    .fil1 {fill:#FEFEFE}
    .fil0 {fill:#757575}
   ]]>
  </style>
 </defs>
 <g id="Layer_x0020_1">
  <metadata id="CorelCorpID_0Corel-Layer"/>
  <g id="_1672994372096">
   <path class="fil0" d="M625 581l-159 0 0 228 -48 0 0 -241c0,-19 16,-35 35,-35l185 0c20,0 35,16 35,35l0 242 -48 0 0 -229z"/>
   <g>
    <path class="fil0" d="M39 302l0 475 739 1 0 -67c0,-11 8,-20 19,-20 11,0 20,9 20,20l0 86c0,11 -9,20 -20,20l-778 -1c-10,0 -19,-9 -19,-19l0 -515c0,-10 9,-19 19,-19l255 0 0 -232c0,-17 14,-31 31,-31l481 0c17,0 31,14 31,31l0 372c0,11 -9,20 -20,20 -11,0 -19,-9 -19,-20l0 -364 -465 0 0 232c1,20 -11,31 -31,31l-243 0z"/>
    <path class="fil0" d="M797 537c-11,0 -19,-9 -19,-20l0 -34c0,-10 8,-19 19,-19 11,0 20,9 20,19l0 34c0,11 -9,20 -20,20z"/>
    <path class="fil0" d="M797 650c-11,0 -19,-8 -19,-19l0 -34c0,-11 8,-19 19,-19 11,0 20,8 20,19l0 34c0,11 -9,19 -20,19z"/>
   </g>
   <path class="fil0" d="M427 163c8,0 14,-6 14,-14l0 -50c0,-8 -6,-15 -14,-15l-51 0c-7,0 -14,7 -14,15l0 50c0,8 7,14 14,14l51 0z"/>
   <path class="fil0" d="M427 310c8,0 14,-6 14,-14l0 -50c0,-8 -6,-14 -14,-14l-51 0c-7,0 -14,6 -14,14l0 50c0,8 7,14 14,14l51 0z"/>
   <path class="fil0" d="M715 458c8,0 14,-7 14,-14l0 -51c0,-8 -6,-14 -14,-14l-51 0c-8,0 -14,6 -14,14l0 51c0,7 6,14 14,14l51 0z"/>
   <path class="fil0" d="M571 458c8,0 14,-7 14,-14l0 -51c0,-8 -6,-14 -14,-14l-51 0c-8,0 -14,6 -14,14l0 51c0,7 6,14 14,14l51 0z"/>
   <path class="fil0" d="M427 458c8,0 14,-7 14,-14l0 -51c0,-8 -6,-14 -14,-14l-51 0c-7,0 -14,6 -14,14l0 51c0,7 7,14 14,14l51 0z"/>
   <path class="fil0" d="M239 434c6,0 12,-5 12,-12l0 -47c0,-7 -6,-12 -12,-12l-48 0c-6,0 -12,5 -12,12l0 47c0,7 6,12 12,12l48 0z"/>
   <path class="fil0" d="M122 434c7,0 12,-5 12,-12l0 -47c0,-7 -5,-12 -12,-12l-47 0c-7,0 -12,5 -12,12l0 47c0,7 5,12 12,12l47 0z"/>
   <path class="fil0" d="M239 575c6,0 12,-5 12,-12l0 -47c0,-7 -6,-12 -12,-12l-48 0c-6,0 -12,5 -12,12l0 47c0,7 6,12 12,12l48 0z"/>
   <path class="fil0" d="M122 575c7,0 12,-5 12,-12l0 -47c0,-7 -5,-12 -12,-12l-47 0c-7,0 -12,5 -12,12l0 47c0,7 5,12 12,12l47 0z"/>
   <path class="fil0" d="M239 717c6,0 12,-6 12,-13l0 -47c0,-7 -6,-12 -12,-12l-48 0c-6,0 -12,5 -12,12l0 47c0,7 6,13 12,13l48 0z"/>
   <path class="fil0" d="M122 717c7,0 12,-6 12,-13l0 -47c0,-7 -5,-12 -12,-12l-47 0c-7,0 -12,5 -12,12l0 47c0,7 5,13 12,13l47 0z"/>
   <path class="fil0" d="M723 312l-214 0c-9,0 -16,-4 -19,-9 -3,-6 -3,-14 1,-21l108 -186c4,-7 10,-12 17,-12 7,0 13,5 17,12l108 186c4,7 4,15 1,21 -3,5 -10,9 -19,9l0 0z"/>
   <path class="fil1" d="M616 248c-11,0 -20,9 -20,20 0,11 9,20 20,20 11,0 20,-9 20,-20 0,-11 -9,-20 -20,-20zm0 0z"/>
   <path class="fil1" d="M616 134c-11,0 -20,9 -20,20l0 66c0,11 9,19 20,19 11,0 20,-8 20,-19l0 -66c0,-11 -9,-20 -20,-20zm0 0z"/>
  </g>
 </g>
</svg>
