<?xml version="1.0" encoding="UTF-8"?>
<!DOCTYPE svg PUBLIC "-//W3C//DTD SVG 1.1//EN" "http://www.w3.org/Graphics/SVG/1.1/DTD/svg11.dtd">
<!-- Creator: CorelDRAW X7 -->
<svg xmlns="http://www.w3.org/2000/svg" xml:space="preserve" width="0.666661in" height="0.666661in" version="1.1" style="shape-rendering:geometricPrecision; text-rendering:geometricPrecision; image-rendering:optimizeQuality; fill-rule:evenodd; clip-rule:evenodd"
viewBox="0 0 667 667"
 xmlns:xlink="http://www.w3.org/1999/xlink">
 <defs>
  <style type="text/css">
   <![CDATA[
    .fil1 {fill:#189A80}
    .fil0 {fill:url(#id0)}
   ]]>
  </style>
  <linearGradient id="id0" gradientUnits="userSpaceOnUse" x1="93.622" y1="187.004" x2="409.831" y2="469.492">
   <stop offset="0" style="stop-opacity:1; stop-color:#287EAD"/>
   <stop offset="0.4" style="stop-opacity:1; stop-color:#208C97"/>
   <stop offset="1" style="stop-opacity:1; stop-color:#189A80"/>
  </linearGradient>
 </defs>
 <g id="Layer_x0020_1">
  <metadata id="CorelCorpID_0Corel-Layer"/>
  <g id="_1889649317280">
   <path class="fil0" d="M63 157l30 0 0 29 -30 0 0 -29zm62 -3l-30 0 0 -29 30 0 0 29zm-92 35l30 0 0 29 -30 0 0 -29zm30 29l30 0 0 30 -30 0 0 -30zm32 32l27 0 0 0 33 0 0 30 -30 0 0 30 -30 0 0 -60zm-62 32l30 0 0 30 -30 0 0 -30zm30 30l30 0 0 30 -30 0 0 -30zm32 32l30 0 0 30 -30 0 0 -30zm32 -32l30 0 0 30 -30 0 0 -30zm32 32l30 0 0 30 -30 0 0 -30zm-32 32l30 0 0 30 -30 0 0 -30zm-94 32l30 0 0 30 -30 0 0 -30zm30 30l30 0 0 30 -30 0 0 -30zm32 32l30 0 0 30 -30 0 0 -30zm32 -32l30 0 0 30 -30 0 0 -30zm-32 -30l30 0 0 30 -30 0 0 -30zm-62 94l30 0 0 30 -30 0 0 -30zm62 -314l64 0 0 -29 122 0c264,3 226,352 45,368l-68 4 -131 0 0 -29 30 0 0 -32 129 0c133,0 124,-253 0,-253l-191 0 0 -29z"/>
   <path class="fil1" d="M539 161c-65,-16 -119,-10 -167,10 -6,2 -5,6 0,9 15,8 29,19 43,31 56,-3 74,-2 125,18 13,3 17,-2 14,-15l-15 -53zm-144 15c41,-10 85,-14 132,-4l11 42c-36,-17 -74,-23 -115,-15l-28 -23zm-101 41c8,-13 60,14 52,28l-16 22c-36,50 -15,125 14,174 7,23 -51,40 -60,24 -44,-66 -57,-191 10,-248zm2 243c-28,-59 -65,-151 6,-230l28 11c-54,71 -41,139 2,207l-36 12zm117 26l-66 38c21,26 139,26 203,-15 3,4 9,6 14,5l29 -9c2,-2 3,-6 1,-11l-5 -19 19 -3c9,-3 12,-9 9,-18l-6 -19c-3,-9 -7,-9 -15,-7l-17 5 -8 -33c0,-5 -3,-7 -8,-6l-31 8c-4,1 -5,4 -4,10l8 31 -24 7c-5,1 -7,5 -7,11l3 12c-33,12 -68,18 -95,13zm53 -152l14 -2c15,5 18,35 13,43l-27 7 0 -48zm45 -10c10,-3 17,-5 28,-8 3,0 6,1 7,6l5 20 20 -5 -5 -20c-2,-7 -1,-10 6,-12l23 -7c8,-2 10,-2 13,6l8 22c2,8 -2,12 -9,14l-21 5 6 19 17 -5c3,-1 12,-4 14,2l9 25c3,8 2,13 -4,16l-27 8c-6,1 -11,-1 -13,-8l-4 -19 -26 6c-4,0 -7,-1 -9,-6l-5 -21 -21 6c-7,2 -11,2 -13,-5l-7 -27c0,-6 2,-10 8,-12zm-102 177c28,5 62,0 103,-15 2,4 6,10 12,9l19 -5 3 9c-62,35 -118,38 -172,24l35 -22zm134 -89l17 -4 4 15 -18 5 -3 -16zm39 33l17 -4 4 15 -18 5 -3 -16zm-24 39l17 -5 4 15 -18 5 -3 -15zm-38 -21l18 -5 4 15 -18 5 -4 -15zm50 2l-15 5 -7 -26 15 -5 7 26zm-94 -100l0 -18 5 18 -5 0zm42 -28l17 -4 4 15 -18 5 -3 -16zm39 20l17 -5 4 16 -18 4 -3 -15zm39 22l17 -5 4 15 -18 5 -3 -15zm-16 -62l17 -4 5 15 -19 5 -3 -16z"/>
  </g>
 </g>
</svg>
