<?xml version="1.0" encoding="utf-8"?>
<!-- Generator: Adobe Illustrator 18.0.0, SVG Export Plug-In . SVG Version: 6.00 Build 0)  -->
<!DOCTYPE svg PUBLIC "-//W3C//DTD SVG 1.1//EN" "http://www.w3.org/Graphics/SVG/1.1/DTD/svg11.dtd">
<svg version="1.1" id="Layer_1" xmlns="http://www.w3.org/2000/svg" xmlns:xlink="http://www.w3.org/1999/xlink" x="0px" y="0px"
	 viewBox="0 0 726.5 140.9" enable-background="new 0 0 726.5 140.9" xml:space="preserve">
<g id="_2723850251360">
	<path fill="#FFFFFF" d="M244.6,108.1v21.1h-3.5v-13.6c0-0.5,0-1.1,0.1-1.8l-6.4,12c-0.3,0.6-0.8,0.9-1.4,0.9h-0.6
		c-0.6,0-1.1-0.3-1.4-0.9l-6.4-12.1c0,0.3,0,0.7,0.1,1c0,0.3,0,0.6,0,0.9v13.6h-3.5v-21.1h3c0.2,0,0.3,0,0.5,0c0.1,0,0.2,0,0.3,0.1
		c0.1,0.1,0.2,0.1,0.3,0.2c0.1,0.1,0.1,0.2,0.2,0.3l6.3,11.7c0.2,0.3,0.3,0.7,0.5,1c0.1,0.3,0.3,0.7,0.4,1c0.1-0.3,0.3-0.7,0.4-1
		c0.1-0.3,0.3-0.7,0.5-1l6.3-11.7c0.1-0.1,0.1-0.3,0.2-0.3c0.1-0.1,0.2-0.1,0.3-0.2c0.1,0,0.2-0.1,0.3-0.1c0.1,0,0.3,0,0.5,0H244.6z
		 M264.1,122.8c-1,0-1.9,0.1-2.6,0.3c-0.7,0.1-1.3,0.3-1.7,0.5c-0.4,0.2-0.7,0.5-0.9,0.7c-0.2,0.3-0.3,0.6-0.3,0.9
		c0,0.6,0.2,1.1,0.6,1.4c0.4,0.3,0.9,0.4,1.4,0.4c0.8,0,1.4-0.1,1.9-0.4c0.5-0.3,1.1-0.7,1.6-1.2V122.8z M255.8,116.3
		c1.7-1.6,3.8-2.4,6.2-2.4c0.9,0,1.7,0.1,2.4,0.4s1.3,0.7,1.8,1.2c0.5,0.5,0.9,1.1,1.1,1.8c0.3,0.7,0.4,1.5,0.4,2.3v9.5H266
		c-0.3,0-0.6,0-0.8-0.1c-0.2-0.1-0.3-0.3-0.5-0.6l-0.3-1.1c-0.4,0.3-0.7,0.6-1.1,0.9c-0.4,0.3-0.7,0.5-1.1,0.7
		c-0.4,0.2-0.8,0.3-1.2,0.4c-0.4,0.1-0.9,0.1-1.5,0.1c-0.6,0-1.2-0.1-1.8-0.3c-0.5-0.2-1-0.4-1.4-0.8c-0.4-0.3-0.7-0.8-0.9-1.3
		c-0.2-0.5-0.3-1.1-0.3-1.8c0-0.4,0.1-0.7,0.2-1.1c0.1-0.4,0.3-0.7,0.6-1c0.3-0.3,0.7-0.7,1.1-1c0.5-0.3,1-0.6,1.7-0.8
		c0.7-0.2,1.4-0.4,2.3-0.6c0.9-0.1,1.9-0.2,3-0.3v-0.9c0-1-0.2-1.7-0.7-2.2c-0.4-0.5-1-0.7-1.8-0.7c-0.6,0-1.1,0.1-1.4,0.2
		c-0.4,0.1-0.7,0.3-1,0.5c-0.3,0.2-0.6,0.3-0.8,0.5c-0.2,0.1-0.5,0.2-0.8,0.2c-0.3,0-0.5-0.1-0.7-0.2c-0.2-0.1-0.3-0.3-0.4-0.5
		L255.8,116.3z M282.2,116.1c0.3-0.3,0.6-0.6,1-0.9c0.3-0.3,0.7-0.5,1.1-0.7c0.4-0.2,0.8-0.3,1.2-0.4c0.4-0.1,0.9-0.2,1.4-0.2
		c0.8,0,1.5,0.1,2.2,0.4c0.7,0.3,1.2,0.7,1.6,1.2c0.4,0.5,0.8,1.1,1,1.8c0.2,0.7,0.3,1.4,0.3,2.3v9.5h-3.6v-9.5
		c0-0.9-0.2-1.6-0.6-2.1c-0.4-0.5-1.1-0.8-1.9-0.8c-0.6,0-1.2,0.1-1.8,0.4s-1,0.7-1.5,1.2v10.8h-3.6v-15h2.2c0.5,0,0.8,0.2,0.9,0.7
		L282.2,116.1z M311.1,122.8c-1,0-1.9,0.1-2.6,0.3c-0.7,0.1-1.3,0.3-1.7,0.5c-0.4,0.2-0.7,0.5-0.9,0.7c-0.2,0.3-0.3,0.6-0.3,0.9
		c0,0.6,0.2,1.1,0.6,1.4c0.4,0.3,0.9,0.4,1.5,0.4c0.7,0,1.4-0.1,1.9-0.4c0.5-0.3,1.1-0.7,1.6-1.2V122.8z M302.8,116.3
		c1.7-1.6,3.8-2.4,6.2-2.4c0.9,0,1.7,0.1,2.4,0.4s1.3,0.7,1.8,1.2c0.5,0.5,0.9,1.1,1.1,1.8c0.3,0.7,0.4,1.5,0.4,2.3v9.5H313
		c-0.3,0-0.6,0-0.8-0.1c-0.2-0.1-0.3-0.3-0.5-0.6l-0.3-1.1c-0.4,0.3-0.7,0.6-1.1,0.9c-0.4,0.3-0.7,0.5-1.1,0.7
		c-0.4,0.2-0.8,0.3-1.2,0.4c-0.4,0.1-0.9,0.1-1.5,0.1c-0.6,0-1.2-0.1-1.7-0.3c-0.5-0.2-1-0.4-1.4-0.8c-0.4-0.3-0.7-0.8-0.9-1.3
		c-0.2-0.5-0.3-1.1-0.3-1.8c0-0.4,0.1-0.7,0.2-1.1c0.1-0.4,0.3-0.7,0.6-1c0.3-0.3,0.7-0.7,1.1-1c0.5-0.3,1-0.6,1.7-0.8
		c0.7-0.2,1.4-0.4,2.3-0.6c0.9-0.1,1.9-0.2,3-0.3v-0.9c0-1-0.2-1.7-0.6-2.2c-0.5-0.5-1-0.7-1.9-0.7c-0.6,0-1.1,0.1-1.4,0.2
		c-0.4,0.1-0.7,0.3-1,0.5s-0.6,0.3-0.8,0.5c-0.2,0.1-0.5,0.2-0.8,0.2c-0.3,0-0.5-0.1-0.7-0.2c-0.2-0.1-0.3-0.3-0.4-0.5L302.8,116.3z
		 M331.3,121.4c0.4,0,0.8-0.1,1.2-0.2c0.3-0.1,0.6-0.3,0.8-0.5c0.2-0.2,0.4-0.5,0.5-0.8c0.1-0.3,0.1-0.7,0.1-1
		c0-0.8-0.2-1.3-0.7-1.8c-0.5-0.4-1.1-0.7-2-0.7c-0.9,0-1.6,0.2-2,0.7c-0.4,0.5-0.7,1-0.7,1.8c0,0.3,0.1,0.7,0.2,1s0.3,0.6,0.5,0.8
		c0.2,0.2,0.5,0.4,0.9,0.5C330.5,121.3,330.8,121.4,331.3,121.4z M335.3,129.9c0-0.3-0.1-0.5-0.3-0.7c-0.2-0.2-0.4-0.3-0.7-0.4
		c-0.3-0.1-0.7-0.2-1-0.2c-0.4-0.1-0.9-0.1-1.3-0.1s-0.9-0.1-1.4-0.1c-0.5,0-1-0.1-1.4-0.1c-0.4,0.2-0.7,0.5-1,0.8
		c-0.3,0.3-0.4,0.7-0.4,1c0,0.3,0.1,0.5,0.2,0.7c0.1,0.2,0.3,0.4,0.6,0.6s0.7,0.3,1.1,0.4c0.5,0.1,1,0.1,1.7,0.1
		c0.7,0,1.2-0.1,1.8-0.2c0.5-0.1,0.9-0.2,1.2-0.4c0.3-0.2,0.5-0.4,0.7-0.6C335.3,130.5,335.3,130.2,335.3,129.9z M338.9,114.8v1.3
		c0,0.4-0.3,0.7-0.8,0.8l-1.4,0.3c0.2,0.5,0.3,1.1,0.3,1.7c0,0.8-0.1,1.4-0.4,2c-0.3,0.6-0.7,1.1-1.2,1.5s-1.1,0.7-1.9,1
		c-0.7,0.2-1.5,0.4-2.3,0.4c-0.3,0-0.6,0-0.9-0.1c-0.3,0-0.5-0.1-0.8-0.1c-0.5,0.3-0.7,0.6-0.7,0.9c0,0.3,0.1,0.5,0.4,0.7
		c0.3,0.1,0.7,0.2,1.1,0.3c0.5,0.1,1,0.1,1.6,0.1c0.6,0,1.2,0.1,1.8,0.1c0.6,0,1.2,0.1,1.8,0.3c0.6,0.1,1.1,0.3,1.6,0.6
		s0.8,0.6,1.1,1.1c0.3,0.5,0.4,1,0.4,1.7c0,0.7-0.2,1.3-0.5,1.9c-0.3,0.6-0.8,1.2-1.4,1.7c-0.6,0.5-1.4,0.9-2.3,1.2
		c-0.9,0.3-1.9,0.4-3.1,0.4s-2.1-0.1-3-0.3c-0.9-0.2-1.6-0.5-2.1-0.9c-0.6-0.4-1-0.8-1.2-1.3c-0.3-0.5-0.4-1-0.4-1.5
		c0-0.7,0.2-1.3,0.6-1.8c0.4-0.5,1-0.9,1.8-1.1c-0.4-0.2-0.7-0.5-1-0.8c-0.2-0.3-0.3-0.8-0.3-1.4c0-0.2,0-0.5,0.1-0.7
		c0.1-0.3,0.2-0.5,0.4-0.7c0.2-0.2,0.4-0.5,0.6-0.7c0.3-0.2,0.5-0.4,0.9-0.5c-0.8-0.4-1.4-1-1.8-1.6c-0.4-0.7-0.7-1.5-0.7-2.4
		c0-0.7,0.1-1.4,0.5-2c0.3-0.6,0.7-1.1,1.2-1.5c0.5-0.4,1.2-0.7,1.9-1c0.7-0.2,1.5-0.3,2.4-0.3c0.6,0,1.2,0.1,1.8,0.2
		c0.6,0.1,1.1,0.3,1.6,0.6H338.9z M358.4,120c0-0.5-0.1-0.9-0.2-1.3c-0.1-0.4-0.3-0.8-0.6-1.1c-0.3-0.3-0.6-0.6-1-0.7
		c-0.4-0.2-0.9-0.3-1.4-0.3c-1,0-1.8,0.3-2.4,0.9c-0.6,0.6-1,1.4-1.2,2.5H358.4z M351.5,122.2c0.1,0.8,0.2,1.4,0.4,2
		c0.2,0.6,0.5,1,0.9,1.4c0.3,0.4,0.8,0.7,1.2,0.8c0.5,0.2,1,0.3,1.6,0.3c0.6,0,1.1-0.1,1.5-0.2c0.4-0.1,0.8-0.3,1.1-0.4
		c0.3-0.2,0.6-0.3,0.8-0.5c0.3-0.1,0.5-0.2,0.7-0.2c0.3,0,0.5,0.1,0.7,0.3l1,1.3c-0.4,0.5-0.9,0.9-1.3,1.2c-0.5,0.3-1,0.6-1.6,0.8
		c-0.5,0.2-1.1,0.3-1.7,0.4c-0.5,0.1-1.1,0.1-1.6,0.1c-1,0-2-0.2-2.9-0.5c-0.9-0.3-1.7-0.9-2.3-1.5c-0.7-0.7-1.2-1.5-1.6-2.5
		c-0.4-1-0.6-2.2-0.6-3.5c0-1,0.2-2,0.5-2.9c0.3-0.9,0.8-1.7,1.4-2.4c0.6-0.7,1.4-1.2,2.2-1.6c0.9-0.4,1.9-0.6,3-0.6
		c0.9,0,1.8,0.2,2.6,0.5c0.8,0.3,1.5,0.7,2.1,1.3c0.6,0.6,1,1.3,1.3,2.1c0.3,0.9,0.5,1.8,0.5,2.9c0,0.5-0.1,0.9-0.2,1.1
		c-0.1,0.2-0.3,0.3-0.7,0.3H351.5z M386.3,118.2c0.7,0,1.4-0.1,1.9-0.3c0.6-0.2,1-0.5,1.4-0.8c0.4-0.3,0.6-0.7,0.8-1.2
		c0.2-0.5,0.3-0.9,0.3-1.5c0-1.1-0.4-1.9-1.1-2.5c-0.7-0.6-1.8-0.9-3.2-0.9h-2.5v7H386.3z M396.4,129.2h-3.6c-0.7,0-1.1-0.3-1.4-0.8
		l-4.5-6.8c-0.2-0.3-0.3-0.4-0.5-0.5c-0.2-0.1-0.5-0.2-0.9-0.2h-1.7v8.3h-3.9v-21.1h6.4c1.4,0,2.7,0.1,3.7,0.5
		c1,0.3,1.9,0.7,2.6,1.2c0.7,0.5,1.1,1.2,1.4,1.9c0.3,0.7,0.5,1.6,0.5,2.5c0,0.7-0.1,1.4-0.3,2c-0.2,0.6-0.5,1.2-0.9,1.7
		c-0.4,0.5-0.9,1-1.4,1.4c-0.6,0.4-1.2,0.7-2,0.9c0.3,0.1,0.5,0.3,0.7,0.5c0.2,0.2,0.4,0.5,0.6,0.7L396.4,129.2z M409.5,114.2v15
		h-3.6v-15H409.5z M409.9,109.9c0,0.3-0.1,0.6-0.2,0.9c-0.1,0.3-0.3,0.5-0.5,0.7c-0.2,0.2-0.5,0.4-0.7,0.5c-0.3,0.1-0.6,0.2-0.9,0.2
		s-0.6-0.1-0.9-0.2c-0.3-0.1-0.5-0.3-0.7-0.5c-0.2-0.2-0.4-0.5-0.5-0.7c-0.1-0.3-0.2-0.5-0.2-0.9c0-0.3,0.1-0.6,0.2-0.9
		c0.1-0.3,0.3-0.5,0.5-0.7s0.5-0.4,0.7-0.5c0.3-0.1,0.6-0.2,0.9-0.2s0.6,0.1,0.9,0.2c0.3,0.1,0.5,0.3,0.7,0.5
		c0.2,0.2,0.4,0.5,0.5,0.7C409.9,109.2,409.9,109.5,409.9,109.9z M430.1,117.2c-0.1,0.1-0.2,0.3-0.3,0.3c-0.1,0.1-0.3,0.1-0.4,0.1
		c-0.2,0-0.4-0.1-0.6-0.2c-0.2-0.1-0.4-0.2-0.7-0.3c-0.3-0.1-0.6-0.2-0.9-0.3c-0.3-0.1-0.7-0.1-1.2-0.1c-0.7,0-1.3,0.1-1.7,0.5
		s-0.6,0.7-0.6,1.2c0,0.3,0.1,0.6,0.3,0.8c0.2,0.2,0.5,0.4,0.8,0.6c0.3,0.2,0.7,0.3,1.2,0.4c0.4,0.1,0.9,0.3,1.3,0.5
		c0.5,0.1,0.9,0.3,1.3,0.5c0.4,0.2,0.8,0.5,1.2,0.8c0.4,0.3,0.6,0.7,0.9,1.1c0.2,0.4,0.3,1,0.3,1.6c0,0.7-0.1,1.4-0.4,2
		c-0.3,0.6-0.6,1.1-1.1,1.6c-0.5,0.4-1.1,0.8-1.9,1c-0.8,0.3-1.6,0.4-2.6,0.4c-0.5,0-1-0.1-1.5-0.1c-0.5-0.1-1-0.2-1.4-0.4
		c-0.5-0.2-0.9-0.4-1.2-0.6c-0.4-0.2-0.7-0.5-1-0.7l0.8-1.4c0.1-0.2,0.3-0.3,0.4-0.4c0.1-0.1,0.3-0.1,0.5-0.1c0.2,0,0.5,0.1,0.7,0.2
		c0.2,0.1,0.4,0.3,0.7,0.4c0.3,0.2,0.6,0.3,0.9,0.4c0.4,0.1,0.8,0.2,1.4,0.2c0.4,0,0.8,0,1.1-0.1c0.3-0.1,0.5-0.2,0.8-0.4
		c0.2-0.2,0.3-0.4,0.4-0.6c0.1-0.2,0.1-0.4,0.1-0.7c0-0.4-0.1-0.7-0.3-0.9c-0.2-0.2-0.5-0.4-0.9-0.6c-0.3-0.2-0.7-0.3-1.2-0.5
		c-0.5-0.1-0.9-0.3-1.4-0.4c-0.5-0.2-0.9-0.3-1.4-0.6c-0.5-0.2-0.9-0.5-1.2-0.8c-0.3-0.3-0.6-0.7-0.8-1.2c-0.2-0.5-0.3-1-0.3-1.7
		c0-0.6,0.1-1.2,0.3-1.8c0.3-0.6,0.6-1,1.1-1.5c0.5-0.4,1.1-0.7,1.8-1c0.7-0.2,1.5-0.4,2.4-0.4c1,0,2,0.2,2.8,0.5
		c0.9,0.3,1.6,0.8,2.1,1.4L430.1,117.2z M445.2,107.5v12.4h0.7c0.3,0,0.4,0,0.6-0.1c0.1-0.1,0.3-0.2,0.5-0.4l3.7-4.6
		c0.1-0.2,0.3-0.4,0.5-0.5c0.2-0.1,0.5-0.1,0.7-0.1h3.3l-4.7,5.6c-0.3,0.4-0.7,0.8-1.1,1c0.2,0.1,0.4,0.3,0.6,0.5
		c0.1,0.2,0.3,0.4,0.5,0.6l5,7.3h-3.3c-0.3,0-0.5,0-0.7-0.1c-0.2-0.1-0.4-0.3-0.5-0.5l-3.8-5.7c-0.1-0.2-0.3-0.4-0.4-0.4
		c-0.1-0.1-0.4-0.1-0.7-0.1h-0.8v6.9h-3.6v-21.7H445.2z M504.9,118.6v8.5c-1.1,0.8-2.2,1.4-3.4,1.7c-1.2,0.4-2.5,0.6-3.9,0.6
		c-1.7,0-3.3-0.3-4.7-0.8c-1.4-0.5-2.6-1.3-3.6-2.2c-1-0.9-1.8-2.1-2.3-3.4c-0.5-1.3-0.8-2.8-0.8-4.3c0-1.6,0.3-3.1,0.8-4.4
		c0.5-1.3,1.2-2.5,2.2-3.4c0.9-1,2.1-1.7,3.4-2.2c1.4-0.5,2.9-0.8,4.6-0.8c0.9,0,1.7,0.1,2.4,0.2c0.7,0.1,1.4,0.3,2.1,0.6
		c0.7,0.2,1.2,0.5,1.8,0.9c0.5,0.3,1,0.7,1.4,1.1l-1.1,1.8c-0.2,0.3-0.4,0.5-0.7,0.5c-0.3,0.1-0.6,0-0.9-0.2c-0.3-0.2-0.6-0.4-1-0.6
		c-0.3-0.2-0.7-0.3-1-0.5c-0.4-0.1-0.9-0.2-1.3-0.3c-0.5-0.1-1.1-0.1-1.7-0.1c-1,0-2,0.2-2.8,0.5c-0.9,0.4-1.6,0.9-2.2,1.5
		c-0.6,0.7-1,1.4-1.4,2.4c-0.3,0.9-0.5,1.9-0.5,3.1c0,1.2,0.2,2.3,0.5,3.2c0.3,0.9,0.8,1.8,1.4,2.4c0.6,0.7,1.4,1.2,2.3,1.5
		c0.9,0.3,1.9,0.5,3,0.5c0.8,0,1.5-0.1,2.1-0.2c0.6-0.2,1.2-0.4,1.8-0.7v-3.8h-2.7c-0.3,0-0.5-0.1-0.6-0.2c-0.1-0.1-0.2-0.3-0.2-0.5
		v-2.2H504.9z M519.1,116.8c0.5-0.9,1-1.6,1.7-2.1c0.6-0.5,1.4-0.8,2.3-0.8c0.7,0,1.2,0.1,1.7,0.5l-0.3,2.7c0,0.2-0.1,0.3-0.2,0.4
		c-0.1,0.1-0.2,0.1-0.4,0.1s-0.4,0-0.7-0.1c-0.3-0.1-0.6-0.1-0.9-0.1c-0.4,0-0.7,0.1-1,0.2c-0.3,0.1-0.6,0.3-0.9,0.5
		c-0.3,0.2-0.5,0.5-0.7,0.8c-0.2,0.3-0.4,0.7-0.5,1.1v9.2h-3.6v-15h2.1c0.4,0,0.7,0.1,0.8,0.2c0.1,0.1,0.2,0.4,0.3,0.7L519.1,116.8z
		 M540.7,114c1.1,0,2.1,0.2,3,0.5c0.9,0.4,1.7,0.9,2.3,1.6c0.7,0.7,1.1,1.4,1.5,2.4c0.3,1,0.5,2,0.5,3.2s-0.2,2.3-0.5,3.2
		c-0.4,1-0.9,1.8-1.5,2.4c-0.7,0.7-1.4,1.2-2.3,1.6c-0.9,0.4-1.9,0.5-3,0.5c-1.1,0-2.2-0.2-3.1-0.5c-0.9-0.4-1.7-0.9-2.4-1.6
		c-0.7-0.7-1.1-1.5-1.5-2.4c-0.3-0.9-0.5-2-0.5-3.2s0.2-2.2,0.5-3.2c0.4-1,0.9-1.8,1.5-2.4c0.7-0.7,1.4-1.2,2.4-1.6
		C538.5,114.2,539.5,114,540.7,114z M540.7,126.7c1.2,0,2.2-0.4,2.8-1.2c0.6-0.9,0.9-2.1,0.9-3.7c0-1.6-0.3-2.8-0.9-3.7
		c-0.6-0.9-1.5-1.3-2.8-1.3c-1.3,0-2.2,0.4-2.8,1.3c-0.6,0.9-0.9,2.1-0.9,3.7c0,1.6,0.3,2.8,0.9,3.7
		C538.5,126.2,539.4,126.7,540.7,126.7z M579.8,114.2l-4.8,15h-2.9c-0.3,0-0.6-0.2-0.7-0.6l-2.7-8.7c-0.1-0.3-0.2-0.6-0.2-0.9
		c-0.1-0.3-0.1-0.6-0.2-0.9c-0.1,0.3-0.1,0.6-0.2,0.9c-0.1,0.3-0.1,0.6-0.2,0.9l-2.8,8.7c-0.1,0.4-0.4,0.6-0.8,0.6h-2.8l-4.7-15h2.9
		c0.3,0,0.5,0.1,0.7,0.2c0.2,0.1,0.3,0.3,0.4,0.5l2.2,8c0.1,0.4,0.2,0.9,0.3,1.3c0.1,0.4,0.1,0.9,0.2,1.2c0.1-0.4,0.2-0.8,0.3-1.2
		c0.1-0.4,0.3-0.9,0.4-1.3l2.5-8.1c0.1-0.2,0.2-0.3,0.4-0.5c0.2-0.1,0.4-0.2,0.6-0.2h1.6c0.3,0,0.5,0.1,0.7,0.2
		c0.2,0.1,0.3,0.3,0.3,0.5l2.4,8.1c0.1,0.4,0.3,0.9,0.4,1.3c0.1,0.4,0.2,0.9,0.3,1.3c0.1-0.8,0.3-1.7,0.6-2.6l2.2-8
		c0.1-0.2,0.2-0.3,0.4-0.5c0.2-0.1,0.4-0.2,0.6-0.2H579.8z M600.7,111.2v6.3h7.9v3.1h-7.9v8.6h-3.9v-21.1h13.3v3.1H600.7z
		 M626.5,122.8c-1,0-1.9,0.1-2.6,0.3c-0.7,0.1-1.3,0.3-1.7,0.5c-0.4,0.2-0.7,0.5-0.9,0.7c-0.2,0.3-0.3,0.6-0.3,0.9
		c0,0.6,0.2,1.1,0.6,1.4c0.4,0.3,0.9,0.4,1.5,0.4c0.7,0,1.4-0.1,1.9-0.4c0.5-0.3,1-0.7,1.6-1.2V122.8z M618.2,116.3
		c1.7-1.6,3.8-2.4,6.2-2.4c0.9,0,1.7,0.1,2.4,0.4c0.7,0.3,1.3,0.7,1.8,1.2c0.5,0.5,0.9,1.1,1.1,1.8c0.2,0.7,0.4,1.5,0.4,2.3v9.5
		h-1.6c-0.3,0-0.6,0-0.8-0.1c-0.2-0.1-0.3-0.3-0.4-0.6l-0.3-1.1c-0.4,0.3-0.7,0.6-1.1,0.9c-0.4,0.3-0.7,0.5-1.1,0.7
		c-0.4,0.2-0.8,0.3-1.2,0.4c-0.5,0.1-0.9,0.1-1.5,0.1c-0.7,0-1.2-0.1-1.8-0.3s-1-0.4-1.4-0.8c-0.4-0.3-0.7-0.8-0.9-1.3
		c-0.2-0.5-0.3-1.1-0.3-1.8c0-0.4,0.1-0.7,0.2-1.1c0.1-0.4,0.3-0.7,0.6-1c0.3-0.3,0.7-0.7,1.1-1c0.5-0.3,1-0.6,1.7-0.8
		c0.7-0.2,1.4-0.4,2.3-0.6c0.9-0.1,1.9-0.2,3.1-0.3v-0.9c0-1-0.2-1.7-0.7-2.2c-0.4-0.5-1-0.7-1.9-0.7c-0.6,0-1,0.1-1.4,0.2
		c-0.4,0.1-0.7,0.3-1,0.5c-0.3,0.2-0.5,0.3-0.8,0.5c-0.2,0.1-0.5,0.2-0.8,0.2c-0.3,0-0.5-0.1-0.7-0.2c-0.2-0.1-0.3-0.3-0.4-0.5
		L618.2,116.3z M650.3,117.2c-0.1,0.1-0.2,0.3-0.3,0.3c-0.1,0.1-0.2,0.1-0.4,0.1s-0.4-0.1-0.6-0.2c-0.2-0.1-0.4-0.2-0.7-0.3
		c-0.3-0.1-0.6-0.2-0.9-0.3c-0.3-0.1-0.7-0.1-1.2-0.1c-0.7,0-1.3,0.1-1.7,0.5s-0.6,0.7-0.6,1.2c0,0.3,0.1,0.6,0.3,0.8
		c0.2,0.2,0.5,0.4,0.8,0.6c0.3,0.2,0.7,0.3,1.2,0.4c0.5,0.1,0.9,0.3,1.4,0.5c0.5,0.1,0.9,0.3,1.3,0.5c0.4,0.2,0.8,0.5,1.2,0.8
		c0.4,0.3,0.6,0.7,0.9,1.1c0.2,0.4,0.3,1,0.3,1.6c0,0.7-0.1,1.4-0.4,2c-0.3,0.6-0.6,1.1-1.1,1.6c-0.5,0.4-1.1,0.8-1.9,1
		c-0.7,0.3-1.6,0.4-2.6,0.4c-0.5,0-1-0.1-1.5-0.1c-0.5-0.1-1-0.2-1.4-0.4c-0.5-0.2-0.9-0.4-1.2-0.6c-0.4-0.2-0.7-0.5-1-0.7l0.8-1.4
		c0.1-0.2,0.3-0.3,0.4-0.4c0.1-0.1,0.3-0.1,0.5-0.1c0.2,0,0.5,0.1,0.7,0.2c0.2,0.1,0.4,0.3,0.7,0.4c0.3,0.2,0.6,0.3,0.9,0.4
		c0.4,0.1,0.8,0.2,1.4,0.2c0.4,0,0.8,0,1.1-0.1c0.3-0.1,0.5-0.2,0.7-0.4c0.2-0.2,0.4-0.4,0.5-0.6c0.1-0.2,0.1-0.4,0.1-0.7
		c0-0.4-0.1-0.7-0.3-0.9c-0.2-0.2-0.5-0.4-0.9-0.6c-0.3-0.2-0.7-0.3-1.2-0.5c-0.5-0.1-0.9-0.3-1.4-0.4c-0.5-0.2-0.9-0.3-1.4-0.6
		c-0.5-0.2-0.9-0.5-1.2-0.8c-0.3-0.3-0.6-0.7-0.8-1.2c-0.2-0.5-0.3-1-0.3-1.7c0-0.6,0.1-1.2,0.4-1.8c0.3-0.6,0.6-1,1.1-1.5
		c0.5-0.4,1.1-0.7,1.8-1c0.7-0.2,1.5-0.4,2.4-0.4c1,0,2,0.2,2.8,0.5c0.9,0.3,1.6,0.8,2.1,1.4L650.3,117.2z M666.9,129.5
		c-1.3,0-2.3-0.4-3-1.1c-0.7-0.7-1-1.8-1-3.1v-8.4h-1.5c-0.2,0-0.3-0.1-0.5-0.2c-0.1-0.1-0.2-0.3-0.2-0.6v-1.4l2.4-0.4l0.7-4.1
		c0.1-0.2,0.1-0.3,0.3-0.5c0.1-0.1,0.3-0.1,0.5-0.1h1.9v4.7h4v2.6h-4v8.1c0,0.5,0.1,0.8,0.3,1.1c0.2,0.3,0.5,0.4,0.9,0.4
		c0.2,0,0.4,0,0.6-0.1s0.3-0.1,0.4-0.2c0.1-0.1,0.2-0.1,0.3-0.2c0.1-0.1,0.2-0.1,0.3-0.1c0.1,0,0.2,0,0.3,0.1
		c0.1,0.1,0.1,0.1,0.2,0.3l1.1,1.8c-0.5,0.4-1.1,0.8-1.8,1C668.3,129.4,667.6,129.5,666.9,129.5z"/>
	<path fill="#FFFFFF" d="M690.1,120c0-0.5-0.1-0.9-0.2-1.3c-0.1-0.4-0.3-0.8-0.6-1.1c-0.3-0.3-0.6-0.6-1-0.7
		c-0.4-0.2-0.9-0.3-1.4-0.3c-1,0-1.8,0.3-2.4,0.9c-0.6,0.6-1,1.4-1.2,2.5H690.1z M683.2,122.2c0.1,0.8,0.2,1.4,0.4,2
		c0.2,0.6,0.5,1,0.9,1.4c0.3,0.4,0.8,0.7,1.2,0.8s1,0.3,1.6,0.3c0.6,0,1.1-0.1,1.5-0.2c0.4-0.1,0.8-0.3,1.1-0.4
		c0.3-0.2,0.6-0.3,0.8-0.5c0.3-0.1,0.5-0.2,0.7-0.2c0.3,0,0.5,0.1,0.7,0.3l1,1.3c-0.4,0.5-0.9,0.9-1.3,1.2c-0.5,0.3-1,0.6-1.6,0.8
		c-0.5,0.2-1.1,0.3-1.7,0.4c-0.5,0.1-1.1,0.1-1.6,0.1c-1,0-2-0.2-2.9-0.5c-0.9-0.3-1.7-0.9-2.3-1.5c-0.7-0.7-1.2-1.5-1.6-2.5
		c-0.4-1-0.6-2.2-0.6-3.5c0-1,0.2-2,0.5-2.9c0.3-0.9,0.8-1.7,1.4-2.4c0.6-0.7,1.4-1.2,2.2-1.6c0.9-0.4,1.9-0.6,3-0.6
		c0.9,0,1.8,0.2,2.6,0.5c0.8,0.3,1.5,0.7,2.1,1.3c0.6,0.6,1,1.3,1.3,2.1c0.3,0.9,0.5,1.8,0.5,2.9c0,0.5-0.1,0.9-0.2,1.1
		c-0.1,0.2-0.3,0.3-0.7,0.3H683.2z M707.2,116.8c0.5-0.9,1-1.6,1.7-2.1s1.4-0.8,2.3-0.8c0.7,0,1.2,0.1,1.7,0.5l-0.2,2.7
		c-0.1,0.2-0.1,0.3-0.2,0.4c-0.1,0.1-0.2,0.1-0.4,0.1c-0.1,0-0.3,0-0.6-0.1c-0.3-0.1-0.6-0.1-0.9-0.1c-0.4,0-0.8,0.1-1.1,0.2
		c-0.3,0.1-0.6,0.3-0.8,0.5c-0.3,0.2-0.5,0.5-0.7,0.8c-0.2,0.3-0.4,0.7-0.5,1.1v9.2h-3.6v-15h2.1c0.4,0,0.6,0.1,0.8,0.2
		c0.1,0.1,0.3,0.4,0.3,0.7L707.2,116.8z M464.5,127.2c0-0.3,0.1-0.6,0.2-0.9c0.1-0.3,0.3-0.5,0.5-0.7s0.4-0.3,0.7-0.5
		c0.3-0.1,0.6-0.2,0.9-0.2c0.3,0,0.6,0.1,0.9,0.2c0.3,0.1,0.5,0.3,0.7,0.5s0.4,0.4,0.5,0.7c0.1,0.3,0.2,0.6,0.2,0.9
		c0,0.3-0.1,0.6-0.2,0.9c-0.1,0.3-0.3,0.5-0.5,0.7c-0.2,0.2-0.4,0.4-0.7,0.5c-0.3,0.1-0.6,0.2-0.9,0.2c-0.3,0-0.6-0.1-0.9-0.2
		c-0.3-0.1-0.5-0.3-0.7-0.5c-0.2-0.2-0.3-0.4-0.5-0.7C464.6,127.8,464.5,127.5,464.5,127.2z M722,127.2c0-0.3,0.1-0.6,0.2-0.9
		c0.1-0.3,0.3-0.5,0.5-0.7c0.2-0.2,0.4-0.3,0.7-0.5c0.3-0.1,0.6-0.2,0.9-0.2s0.6,0.1,0.9,0.2c0.3,0.1,0.5,0.3,0.7,0.5
		c0.2,0.2,0.3,0.4,0.5,0.7c0.1,0.3,0.2,0.6,0.2,0.9c0,0.3-0.1,0.6-0.2,0.9c-0.1,0.3-0.3,0.5-0.5,0.7c-0.2,0.2-0.5,0.4-0.7,0.5
		c-0.3,0.1-0.6,0.2-0.9,0.2s-0.6-0.1-0.9-0.2c-0.3-0.1-0.5-0.3-0.7-0.5c-0.2-0.2-0.4-0.4-0.5-0.7C722.1,127.8,722,127.5,722,127.2z"
		/>
</g>
<g id="_2723850251584">
	<path fill="#FFFFFF" d="M247.1,24.6c4.5,0,9.5,1.3,15.1,3.9c5.6,2.6,10.2,6.5,13.6,11.6c3.5,5.2,5.2,11.2,5.2,18
		c0,9.3-2.9,17-8.6,23c-5.8,6-13.2,9-22.4,9L224.6,90c-0.7,0-1.3-0.2-1.7-0.5c-0.5-0.4-0.7-0.8-0.7-1.4c0-0.5,0.2-0.9,0.5-1.3
		c0.3-0.3,1.2-0.6,2.7-0.8c1.5-0.2,2.4-0.5,2.8-0.9c0.4-0.5,0.6-1,0.6-1.7V32.4c0-1.3-0.2-2.3-0.7-2.9c-0.5-0.6-0.9-1-1.4-1.1
		c-0.5-0.1-1.4-0.1-2.9-0.1c-0.9,0-1.4-0.1-1.7-0.5c-0.3-0.3-0.5-0.7-0.5-1.3c0-1.3,1-1.9,3-1.9H247.1z M236.3,80.8
		c0,1.7,0.8,3.1,2.4,4c1.6,0.9,4.5,1.4,8.8,1.4c4.6,0,8.1-0.6,10.5-1.8c4-2.1,7.3-5.3,9.8-9.8s3.8-9,3.8-13.6c0-4-0.3-7.7-1-11.2
		c-0.7-3.5-1.9-6.7-3.7-9.5c-1.8-2.8-4.4-5.5-8-8c-3.5-2.5-8.3-3.7-14.2-3.7c-5.7,0-8.5,1.2-8.5,3.7V80.8z M458.3,65
		c1,0,1.8,0.1,2.2,0.3c0.4,0.2,0.6,0.7,0.6,1.3c0,0.7-0.4,1.4-1.1,2.1c-0.7,0.7-1.1,1.8-1.1,3.1v3.7c0,1,0.3,1.8,0.9,2.3
		c0.6,0.6,0.9,1.1,0.9,1.5c0,1.2-1.3,2.8-3.9,4.7c-2.6,1.9-5.9,3.5-9.9,4.8c-4,1.3-7.8,2-11.5,2c-9.3,0-17.4-3.1-24.1-9.3
		S401.1,67,401.1,56.8c0-6,1.4-11.5,4.1-16.7c2.8-5.1,6.6-9.2,11.4-12c4.9-2.9,10.4-4.3,16.5-4.3c5.9,0,11.3,1.1,16.4,3.2
		c5,2.1,7.6,4.5,7.6,7.2v3.6c0,0.3,0.1,0.9,0.2,1.6c0.2,0.7,0.2,1.4,0.2,2c0,0.6-0.1,1.1-0.4,1.6c-0.3,0.4-0.7,0.7-1.1,0.7
		c-0.5,0-1-0.2-1.4-0.6c-0.5-0.4-1.1-1.5-2-3.3c-1.6-3.4-3.4-5.9-5.2-7.4c-3.1-2.7-7.5-4-13.1-4c-7.1,0-12.8,2.6-17.1,7.7
		c-4.3,5.2-6.4,11.9-6.4,20.3c0,9.6,2.3,17,6.9,22.1c4.7,5.2,10.6,7.8,17.9,7.8c3.8,0,7.3-0.8,10.6-2.3c3.2-1.5,4.9-3.7,4.9-6.6v-6
		c0-1.4-1.4-2.2-4.1-2.2c-0.5,0-1.2,0-2.2,0.1c-1,0.1-1.7,0.1-2.1,0.1c-1.1,0-2-0.2-2.6-0.7c-0.6-0.4-0.9-1-0.9-1.8
		c0-1.3,0.9-2,2.6-2H458.3z M304.2,56.6c-0.4-0.9-0.7-1.4-0.9-1.4c-0.3,0-0.6,0.7-1.1,1.9l-6.4,14.8l-5.6,12.4
		c-0.2,0.4-0.3,0.7-0.3,1s0.1,0.6,0.3,0.8c0.3,0.3,0.8,0.5,1.6,0.7c0.9,0.2,1.4,0.5,1.6,0.7c0.2,0.2,0.3,0.5,0.3,0.8
		c0,0.9-0.6,1.4-1.8,1.4c-0.3,0-1-0.1-2.1-0.3s-2-0.3-2.7-0.3c-0.7,0-1.5,0.1-2.3,0.2c-0.8,0.1-1.4,0.2-1.7,0.2
		c-0.5,0-0.9-0.1-1.2-0.4c-0.3-0.3-0.5-0.5-0.5-0.9c0-0.5,0.1-0.9,0.3-1s0.6-0.3,1.1-0.4c1.6-0.3,2.6-0.9,3.2-1.8
		c0.6-0.9,2.1-4.2,4.6-9.8l7.3-16.3c1.8-3.9,3-6.5,3.5-7.8c0.5-1.3,0.8-2.3,0.8-3c0-0.3-0.1-0.7-0.3-1.3c-0.2-0.6-0.3-1.1-0.3-1.4
		c0-0.6,0.3-0.9,0.9-0.9c1,0,1.9,0.4,2.5,1.3c0.6,0.9,1.4,2.5,2.5,4.9l8.4,19c3.1,6.9,5,11.2,5.8,12.8c0.8,1.6,1.5,2.7,2,3.2
		c0.5,0.5,1.2,0.8,1.9,1c0.7,0.2,1.2,0.4,1.5,0.6c0.3,0.2,0.4,0.5,0.4,1c0,0.8-0.7,1.2-1.9,1.2c-0.4,0-1.2-0.1-2.3-0.2
		c-1.1-0.1-2.2-0.2-3.4-0.2c-1.1,0-2.3,0.1-3.5,0.3c-1.2,0.2-2,0.3-2.5,0.3c-0.7,0-1.2-0.1-1.6-0.4c-0.4-0.2-0.6-0.6-0.6-1
		c0-0.3,0.1-0.7,0.4-0.9c0.3-0.2,0.9-0.4,2-0.5c1-0.1,1.8-0.3,2.1-0.7c0.3-0.3,0.5-0.8,0.5-1.3c0-0.6-0.6-2.1-1.7-4.7
		c-1.1-2.6-1.9-3.9-2.2-4.1c-0.3-0.1-0.8-0.2-1.6-0.2h-13.5c-0.5,0-1-0.2-1.4-0.5c-0.4-0.3-0.6-0.7-0.6-1.2c0-0.3,0.2-0.7,0.5-0.9
		c0.3-0.3,0.7-0.4,1.1-0.4h13c0.7,0,1.1-0.1,1.1-0.4c0-0.2-0.1-0.6-0.4-1.2L304.2,56.6z M352.8,45.6c0.7,0,1.2,0.7,1.7,2.2
		c0.4,1.4,0.6,2.8,0.6,4c0,1.2-0.4,1.8-1.2,1.8c-0.3,0-0.6-0.1-0.8-0.3c-0.3-0.2-0.6-0.8-1-1.9c-0.4-1.1-1-1.8-1.8-2.2
		c-0.8-0.4-1.7-0.6-2.7-0.6c-1.4,0-2.4,0.3-3,1c-0.6,0.6-0.9,1.7-0.9,3.1v32.1c0,0.5,0.1,0.9,0.5,1.3c0.3,0.4,0.9,0.7,1.8,1
		c0.9,0.3,1.5,0.5,1.7,0.7s0.3,0.5,0.3,0.7c0,1-0.6,1.6-1.7,1.6c-0.6,0-1.5-0.1-2.6-0.3c-1.2-0.2-2-0.3-2.6-0.3
		c-0.5,0-1.3,0.1-2.3,0.3c-1,0.2-1.8,0.3-2.3,0.3c-0.6,0-1.2-0.1-1.6-0.4c-0.5-0.3-0.7-0.7-0.7-1.2c0-0.3,0.1-0.5,0.2-0.7
		c0.2-0.2,0.7-0.4,1.6-0.7c0.9-0.3,1.5-0.7,1.8-1.3c0.3-0.6,0.5-1.2,0.5-1.9V51.3c0-2-1.3-3-3.9-3c-1.7,0-2.9,0.4-3.7,1.2
		c-0.4,0.4-0.7,1.1-1,2c-0.2,0.9-0.4,1.5-0.6,1.7c-0.2,0.2-0.5,0.3-0.8,0.3c-0.3,0-0.7-0.1-0.9-0.3c-0.3-0.2-0.5-0.4-0.5-0.7
		c0-2.2,0.2-3.9,0.6-5.2c0.4-1.2,0.9-1.9,1.6-1.9H352.8z M377.2,56.6c-0.4-0.9-0.7-1.4-0.9-1.4c-0.2,0-0.6,0.7-1.1,1.9l-6.4,14.8
		l-5.6,12.4c-0.2,0.4-0.3,0.7-0.3,1s0.1,0.6,0.3,0.8c0.3,0.3,0.8,0.5,1.7,0.7c0.9,0.2,1.4,0.5,1.6,0.7c0.2,0.2,0.3,0.5,0.3,0.8
		c0,0.9-0.6,1.4-1.8,1.4c-0.3,0-1-0.1-2.1-0.3c-1.1-0.2-2-0.3-2.7-0.3c-0.7,0-1.5,0.1-2.3,0.2c-0.8,0.1-1.4,0.2-1.7,0.2
		c-0.5,0-0.9-0.1-1.2-0.4c-0.3-0.3-0.5-0.5-0.5-0.9c0-0.5,0.1-0.9,0.3-1s0.6-0.3,1.1-0.4c1.6-0.3,2.6-0.9,3.2-1.8
		c0.6-0.9,2.1-4.2,4.6-9.8l7.3-16.3c1.8-3.9,3-6.5,3.5-7.8c0.5-1.3,0.8-2.3,0.8-3c0-0.3-0.1-0.7-0.3-1.3c-0.2-0.6-0.3-1.1-0.3-1.4
		c0-0.6,0.3-0.9,0.9-0.9c1,0,1.9,0.4,2.5,1.3c0.6,0.9,1.4,2.5,2.5,4.9l8.4,19c3,6.9,5,11.2,5.8,12.8c0.8,1.6,1.4,2.7,2,3.2
		c0.5,0.5,1.2,0.8,1.9,1c0.7,0.2,1.2,0.4,1.5,0.6c0.3,0.2,0.4,0.5,0.4,1c0,0.8-0.7,1.2-1.9,1.2c-0.4,0-1.2-0.1-2.3-0.2
		c-1.1-0.1-2.2-0.2-3.3-0.2s-2.3,0.1-3.5,0.3s-2,0.3-2.5,0.3c-0.7,0-1.2-0.1-1.6-0.4c-0.4-0.2-0.6-0.6-0.6-1c0-0.3,0.1-0.7,0.4-0.9
		c0.3-0.2,0.9-0.4,2-0.5c1.1-0.1,1.8-0.3,2.1-0.7c0.3-0.3,0.5-0.8,0.5-1.3c0-0.6-0.6-2.1-1.7-4.7c-1.1-2.6-1.9-3.9-2.2-4.1
		c-0.3-0.1-0.8-0.2-1.6-0.2h-13.5c-0.5,0-1-0.2-1.4-0.5c-0.4-0.3-0.6-0.7-0.6-1.2c0-0.3,0.2-0.7,0.5-0.9c0.3-0.3,0.7-0.4,1.1-0.4h13
		c0.7,0,1.1-0.1,1.1-0.4c0-0.2-0.1-0.6-0.4-1.2L377.2,56.6z M486.4,56.6c-0.4-0.9-0.7-1.4-0.9-1.4c-0.3,0-0.6,0.7-1.1,1.9l-6.5,14.8
		l-5.6,12.4c-0.2,0.4-0.2,0.7-0.2,1s0.1,0.6,0.3,0.8c0.2,0.3,0.8,0.5,1.6,0.7c0.9,0.2,1.4,0.5,1.6,0.7c0.2,0.2,0.3,0.5,0.3,0.8
		c0,0.9-0.6,1.4-1.8,1.4c-0.3,0-1-0.1-2-0.3c-1.1-0.2-2-0.3-2.8-0.3s-1.5,0.1-2.3,0.2c-0.8,0.1-1.4,0.2-1.7,0.2
		c-0.5,0-0.9-0.1-1.2-0.4c-0.3-0.3-0.5-0.5-0.5-0.9c0-0.5,0.1-0.9,0.3-1s0.6-0.3,1.1-0.4c1.6-0.3,2.6-0.9,3.2-1.8
		c0.6-0.9,2.1-4.2,4.6-9.8l7.3-16.3c1.8-3.9,3-6.5,3.5-7.8c0.5-1.3,0.8-2.3,0.8-3c0-0.3-0.1-0.7-0.3-1.3c-0.2-0.6-0.3-1.1-0.3-1.4
		c0-0.6,0.3-0.9,0.9-0.9c1,0,1.8,0.4,2.5,1.3c0.6,0.9,1.5,2.5,2.5,4.9l8.4,19c3,6.9,5,11.2,5.8,12.8c0.8,1.6,1.5,2.7,2,3.2
		c0.5,0.5,1.1,0.8,1.9,1c0.7,0.2,1.2,0.4,1.5,0.6s0.4,0.5,0.4,1c0,0.8-0.7,1.2-1.9,1.2c-0.5,0-1.2-0.1-2.3-0.2
		c-1.1-0.1-2.3-0.2-3.4-0.2c-1.1,0-2.3,0.1-3.5,0.3c-1.2,0.2-2,0.3-2.5,0.3c-0.7,0-1.2-0.1-1.6-0.4c-0.4-0.2-0.6-0.6-0.6-1
		c0-0.3,0.1-0.7,0.4-0.9c0.2-0.2,0.9-0.4,2-0.5c1.1-0.1,1.8-0.3,2.1-0.7c0.3-0.3,0.5-0.8,0.5-1.3c0-0.6-0.6-2.1-1.7-4.7
		c-1.2-2.6-1.9-3.9-2.2-4.1c-0.3-0.1-0.8-0.2-1.6-0.2h-13.5c-0.5,0-1-0.2-1.4-0.5c-0.4-0.3-0.7-0.7-0.7-1.2c0-0.3,0.2-0.7,0.5-0.9
		c0.3-0.3,0.7-0.4,1.1-0.4h13c0.7,0,1.1-0.1,1.1-0.4c0-0.2-0.1-0.6-0.4-1.2L486.4,56.6z M514.5,50.8c0-1.5-1-2.4-3.1-2.5
		c-1.4-0.1-2.2-0.5-2.2-1.4c0-0.9,0.8-1.3,2.5-1.3c0.8,0,1.7,0.1,2.6,0.2s1.8,0.2,2.4,0.2c0.5,0,1.7-0.2,3.7-0.5
		c2-0.3,3.6-0.4,4.7-0.4c4.1,0,7.5,1.1,10.1,3.2c2.6,2.2,3.9,4.9,3.9,8.4c0,2.2-0.6,4-1.9,5.4c-1.3,1.4-3.5,2.8-6.6,4
		c-0.6,0.2-0.9,0.5-0.9,0.7c0,0.2,0.1,0.4,0.4,0.8c1.1,1.6,3.2,5,6.3,10.2c3.1,5.2,4.7,7.9,4.9,8.2c0.2,0.2,0.7,0.5,1.6,0.8
		c0.9,0.3,1.4,0.6,1.6,0.9c0.2,0.3,0.3,0.6,0.3,1c0,0.5-0.3,0.9-0.9,1.2c-0.6,0.3-1.1,0.5-1.4,0.5c-0.9,0-2-0.4-3.4-1.1
		c-1.4-0.7-2.2-1.3-2.7-1.8c-0.8-1-3.3-5.1-7.7-12.3c-2-3.3-3.2-5.2-3.5-5.7c-1.1-1.6-2.2-2.6-3.2-3c-0.3-0.1-0.5-0.2-0.5-0.3
		c-0.1-0.1-0.1-0.3-0.1-0.7c0-0.9,0.5-1.3,1.6-1.3c0.1,0,0.4,0,0.9,0.1c0.5,0.1,0.9,0.1,1.4,0.1c2.2,0,4.1-0.7,5.5-2.2
		c1.5-1.4,2.2-3.5,2.2-6c0-1.8-0.9-3.6-2.5-5.4c-1.7-1.8-4-2.7-7-2.7c-1.1,0-1.9,0.1-2.4,0.4c-0.5,0.2-0.9,0.5-1,0.9
		c-0.1,0.4-0.2,0.9-0.2,1.4v34c0,0.7,0.3,1.2,0.9,1.6c0.6,0.4,1.3,0.6,2.3,0.6c1,0,1.7,0.1,2,0.4c0.3,0.3,0.5,0.6,0.5,1.1
		c0,0.5-0.2,0.9-0.7,1.2c-0.4,0.3-1.1,0.5-2,0.5c-0.8,0-1.7-0.2-2.9-0.7c-1.1-0.5-2-0.7-2.7-0.7c-0.6,0-1.4,0.2-2.5,0.7
		c-1.1,0.5-2,0.7-2.7,0.7c-1.8,0-2.8-0.6-2.8-1.7c0-0.5,0.1-0.8,0.5-1c0.3-0.2,1-0.3,2.2-0.3c0.7,0,1.3-0.2,1.8-0.5
		c0.5-0.3,0.7-0.7,0.7-1.2V50.8z M562.3,45.7c3,0,6.4,0.9,10.2,2.6c3.8,1.7,6.8,4.3,9.2,7.8c2.3,3.5,3.5,7.5,3.5,12.1
		c0,6.3-2,11.5-5.8,15.5c-3.9,4.1-8.9,6.1-15.1,6.1l-17.2-0.1c-0.5,0-0.9-0.1-1.2-0.3c-0.3-0.3-0.5-0.6-0.5-1c0-0.3,0.1-0.6,0.3-0.9
		c0.2-0.2,0.9-0.4,1.8-0.5c1-0.1,1.6-0.3,1.9-0.6c0.3-0.3,0.4-0.7,0.4-1.2V51c0-0.9-0.1-1.6-0.4-2c-0.3-0.4-0.6-0.7-0.9-0.7
		c-0.3-0.1-1-0.1-1.9-0.1c-0.6,0-1-0.1-1.2-0.3c-0.2-0.2-0.3-0.5-0.3-0.9c0-0.9,0.7-1.3,2-1.3H562.3z M555,83.6
		c0,1.2,0.5,2.1,1.6,2.7s3.1,0.9,5.9,0.9c3.1,0,5.5-0.4,7.1-1.2c2.7-1.4,4.9-3.6,6.6-6.6c1.7-3,2.5-6.1,2.5-9.2
		c0-2.7-0.2-5.2-0.7-7.6c-0.5-2.4-1.3-4.5-2.5-6.4c-1.2-1.9-3-3.7-5.4-5.4c-2.4-1.7-5.6-2.6-9.6-2.6c-3.8,0-5.7,0.9-5.7,2.5V83.6z
		 M610.8,87.2c1,0,1.8-0.3,2.4-0.8c0.5-0.5,0.8-1.2,0.8-2.1c0-0.8,0.2-1.4,0.5-1.8c0.3-0.5,0.7-0.7,1.2-0.7c0.5,0,0.9,0.2,1.2,0.7
		c0.3,0.4,0.5,1,0.5,1.7c0,0.7,0,1.4,0.1,2.3c0.1,0.8,0.1,1.4,0.1,1.7c0,0.8-0.1,1.4-0.3,1.6c-0.3,0.3-0.9,0.4-1.8,0.4h-24.5
		c-1.7,0-2.9-0.1-3.5-0.4c-0.7-0.3-1-0.7-1-1.2c0-0.8,0.6-1.2,1.7-1.2c1.5,0,2.4-0.2,2.9-0.7c0.4-0.5,0.7-1.2,0.7-2.2V56.7
		c0-3-0.1-4.9-0.2-5.9c-0.1-1-0.3-1.6-0.7-1.9c-0.4-0.3-1.2-0.4-2.4-0.4c-0.7,0-1.3-0.1-1.7-0.4c-0.4-0.3-0.6-0.6-0.6-1.1
		c0-0.4,0.2-0.7,0.5-1c0.3-0.3,0.8-0.5,1.3-0.5h23.3c0.9,0,1.5,0.2,1.8,0.6c0.3,0.4,0.5,1,0.6,1.7s0.2,2,0.2,3.7
		c0,0.8-0.3,1.2-1,1.2c-0.4,0-0.7-0.1-1-0.3c-0.3-0.2-0.6-0.8-1-1.8c-0.3-0.9-0.7-1.5-1.1-1.8c-0.4-0.3-0.8-0.4-1.3-0.4h-8.3
		c-1.4,0-2.3,0.2-2.6,0.6s-0.5,1-0.5,1.8v6.4c0,1.5,0.2,2.5,0.6,2.9c0.4,0.5,1.2,0.7,2.5,0.7h8.1c0.7,0,1.2-0.3,1.5-0.8
		c0.3-0.5,0.5-1.1,0.5-1.8c0-0.3,0.1-0.6,0.4-0.9c0.3-0.2,0.6-0.3,1-0.3c0.4,0,0.7,0.1,1,0.4s0.4,0.6,0.4,1.1c0,0.4-0.1,1-0.2,1.8
		c-0.1,0.8-0.2,1.4-0.2,1.9c0,0.8,0.1,1.6,0.3,2.4c0.2,0.9,0.3,1.3,0.3,1.5c0,0.5-0.2,0.9-0.5,1.1c-0.3,0.3-0.7,0.5-1,0.5
		c-0.4,0-0.8-0.2-1-0.5c-0.3-0.4-0.4-0.9-0.4-1.5c0-0.8-0.2-1.3-0.6-1.6c-0.4-0.3-1-0.5-2-0.5h-8.1c-0.7,0-1.3,0.1-1.8,0.5
		c-0.5,0.3-0.7,0.7-0.7,1.3v19.3c0,1,0.3,1.7,0.8,2c0.5,0.3,1.4,0.5,2.7,0.5H610.8z M650.7,51.4c0-0.8-0.3-1.5-0.9-2
		c-0.6-0.5-1.3-0.8-2.2-0.8c-0.7,0-1.2-0.1-1.7-0.3c-0.4-0.3-0.6-0.6-0.6-0.9c0-0.5,0.2-0.8,0.6-1.1c0.4-0.3,0.8-0.4,1.3-0.4
		c0.2,0,1,0.1,2.4,0.4c1.4,0.3,2.3,0.4,2.8,0.4c0.6,0,1.4-0.1,2.4-0.3c1-0.2,1.7-0.3,2.2-0.3c1.2,0,1.8,0.5,1.8,1.4
		c0,0.8-0.6,1.2-1.8,1.2c-1,0-1.8,0.2-2.3,0.5c-0.5,0.3-0.8,0.7-0.9,1.2s-0.2,1-0.2,1.7v30.2c0,2,0.2,3.6,0.7,4.7
		c0.4,1.1,0.7,2,0.7,2.6c0,0.7-0.3,1-0.8,1c-0.4,0-0.7-0.1-0.9-0.3c-0.2-0.1-0.5-0.5-0.9-1.1L627,55.9c-0.3-0.3-0.5-0.5-0.7-0.5
		c-0.3,0-0.5,0.4-0.5,1.1v27.8c0,0.9,0.4,1.5,1.1,2c0.7,0.5,1.4,0.7,2,0.7c1.6,0,2.4,0.5,2.4,1.6c0,0.3-0.1,0.6-0.3,0.8
		c-0.2,0.2-0.6,0.3-1.2,0.3c-0.7,0-1.6-0.1-2.9-0.3c-1.3-0.2-2.1-0.3-2.5-0.3c-0.5,0-1.4,0.1-2.6,0.3c-1.2,0.2-2,0.3-2.4,0.3
		c-1,0-1.5-0.5-1.5-1.5c0-0.8,0.6-1.2,1.8-1.2c1,0,1.8-0.3,2.4-0.9c0.6-0.5,0.9-1.3,0.9-2.4v-32c0-1-0.3-1.8-0.8-2.4
		c-0.5-0.6-1.1-0.9-1.9-0.9c-1,0-1.7-0.1-2.1-0.4c-0.4-0.2-0.5-0.6-0.5-1c0-0.9,0.5-1.2,1.5-1.2c0.2,0,0.7,0,1.4,0.1
		c0.7,0.1,1.3,0.1,1.8,0.1c0.4,0,0.8,0,1.3-0.1c0.5-0.1,0.9-0.1,1.2-0.1c0.6,0,1.3,0.5,2.2,1.4c0.9,1,3.8,4.8,8.8,11.4l13.4,17.8
		c0.2,0.3,0.5,0.5,0.7,0.5c0.5,0,0.7-0.5,0.7-1.6V51.4z M684,87.2c1,0,1.8-0.3,2.4-0.8c0.5-0.5,0.8-1.2,0.8-2.1
		c0-0.8,0.2-1.4,0.5-1.8c0.3-0.5,0.7-0.7,1.2-0.7c0.5,0,0.9,0.2,1.2,0.7c0.3,0.4,0.5,1,0.5,1.7c0,0.7,0,1.4,0.1,2.3
		c0.1,0.8,0.1,1.4,0.1,1.7c0,0.8-0.1,1.4-0.3,1.6c-0.2,0.3-0.8,0.4-1.8,0.4H664c-1.7,0-2.9-0.1-3.5-0.4c-0.6-0.3-1-0.7-1-1.2
		c0-0.8,0.6-1.2,1.7-1.2c1.5,0,2.4-0.2,2.9-0.7c0.4-0.5,0.7-1.2,0.7-2.2V56.7c0-3-0.1-4.9-0.1-5.9c-0.1-1-0.4-1.6-0.8-1.9
		c-0.4-0.3-1.2-0.4-2.4-0.4c-0.7,0-1.3-0.1-1.7-0.4c-0.4-0.3-0.6-0.6-0.6-1.1c0-0.4,0.2-0.7,0.5-1c0.3-0.3,0.8-0.5,1.3-0.5h23.3
		c0.9,0,1.5,0.2,1.8,0.6c0.3,0.4,0.5,1,0.6,1.7c0.1,0.7,0.2,2,0.2,3.7c0,0.8-0.3,1.2-1,1.2c-0.4,0-0.7-0.1-1-0.3
		c-0.3-0.2-0.6-0.8-1-1.8c-0.3-0.9-0.7-1.5-1.1-1.8c-0.4-0.3-0.8-0.4-1.3-0.4h-8.3c-1.4,0-2.3,0.2-2.6,0.6s-0.5,1-0.5,1.8v6.4
		c0,1.5,0.2,2.5,0.6,2.9c0.4,0.5,1.2,0.7,2.5,0.7h8.1c0.7,0,1.2-0.3,1.5-0.8c0.3-0.5,0.5-1.1,0.5-1.8c0-0.3,0.2-0.6,0.4-0.9
		c0.3-0.2,0.6-0.3,1-0.3c0.4,0,0.7,0.1,1,0.4s0.4,0.6,0.4,1.1c0,0.4-0.1,1-0.2,1.8s-0.2,1.4-0.2,1.9c0,0.8,0.1,1.6,0.3,2.4
		c0.2,0.9,0.3,1.3,0.3,1.5c0,0.5-0.1,0.9-0.5,1.1c-0.3,0.3-0.7,0.5-1,0.5c-0.4,0-0.8-0.2-1-0.5c-0.3-0.4-0.4-0.9-0.4-1.5
		c0-0.8-0.2-1.3-0.6-1.6c-0.4-0.3-1.1-0.5-2-0.5h-8c-0.7,0-1.3,0.1-1.8,0.5c-0.5,0.3-0.7,0.7-0.7,1.3v19.3c0,1,0.3,1.7,0.8,2
		c0.5,0.3,1.4,0.5,2.7,0.5H684z"/>
	<path fill="#FFFFFF" d="M696.2,50.8c0-1.5-1-2.4-3.1-2.5c-1.4-0.1-2.2-0.5-2.2-1.4c0-0.9,0.9-1.3,2.5-1.3c0.8,0,1.6,0.1,2.6,0.2
		c1,0.1,1.8,0.2,2.4,0.2c0.4,0,1.7-0.2,3.7-0.5c2-0.3,3.5-0.4,4.6-0.4c4.2,0,7.5,1.1,10.1,3.2c2.6,2.2,3.9,4.9,3.9,8.4
		c0,2.2-0.7,4-1.9,5.4c-1.3,1.4-3.5,2.8-6.6,4c-0.6,0.2-0.9,0.5-0.9,0.7c0,0.2,0.1,0.4,0.4,0.8c1.1,1.6,3.2,5,6.3,10.2
		c3.1,5.2,4.7,7.9,4.9,8.2c0.2,0.2,0.8,0.5,1.6,0.8c0.9,0.3,1.4,0.6,1.7,0.9c0.2,0.3,0.3,0.6,0.3,1c0,0.5-0.3,0.9-0.9,1.2
		c-0.6,0.3-1.1,0.5-1.5,0.5c-0.9,0-2-0.4-3.4-1.1c-1.3-0.7-2.2-1.3-2.6-1.8c-0.8-1-3.4-5.1-7.7-12.3c-2-3.3-3.2-5.2-3.5-5.7
		c-1.1-1.6-2.2-2.6-3.2-3c-0.3-0.1-0.4-0.2-0.5-0.3c-0.1-0.1-0.1-0.3-0.1-0.7c0-0.9,0.5-1.3,1.6-1.3c0.1,0,0.4,0,0.8,0.1
		c0.5,0.1,0.9,0.1,1.4,0.1c2.2,0,4.1-0.7,5.5-2.2c1.5-1.4,2.2-3.5,2.2-6c0-1.8-0.8-3.6-2.5-5.4c-1.7-1.8-4-2.7-7-2.7
		c-1.1,0-1.9,0.1-2.4,0.4c-0.5,0.2-0.8,0.5-1,0.9c-0.1,0.4-0.2,0.9-0.2,1.4v34c0,0.7,0.3,1.2,0.9,1.6c0.6,0.4,1.3,0.6,2.3,0.6
		c1,0,1.7,0.1,2,0.4c0.3,0.3,0.5,0.6,0.5,1.1c0,0.5-0.2,0.9-0.7,1.2c-0.4,0.3-1.1,0.5-1.9,0.5c-0.8,0-1.8-0.2-2.9-0.7
		c-1.1-0.5-2-0.7-2.7-0.7c-0.6,0-1.4,0.2-2.5,0.7c-1.1,0.5-2,0.7-2.7,0.7c-1.8,0-2.8-0.6-2.8-1.7c0-0.5,0.1-0.8,0.4-1
		c0.3-0.2,1.1-0.3,2.3-0.3c0.7,0,1.3-0.2,1.8-0.5c0.5-0.3,0.7-0.7,0.7-1.2V50.8z"/>
</g>
<g id="_2723850251040">
	
		<linearGradient id="SVGID_1_" gradientUnits="userSpaceOnUse" x1="-3538.1941" y1="-2060.9658" x2="223.8503" y2="-5421.8701" gradientTransform="matrix(2.836826e-002 0 0 -2.836826e-002 109.7944 -25.1455)">
		<stop  offset="0" style="stop-color:#287EAD"/>
		<stop  offset="0.4" style="stop-color:#208C97"/>
		<stop  offset="1" style="stop-color:#189A80"/>
	</linearGradient>
	<path fill="url(#SVGID_1_)" d="M10.1,10.8h10.1v10.1H10.1V10.8z M30.9,10.1H20.9V0h10.1V10.1z M0,21.6h10.1v10.1H0V21.6z
		 M10.1,31.7h10.1v10.1H10.1V31.7z M20.9,42.5h9l0,0H41v10.1H30.9v10.1H20.9V42.5z M0,53.3h10.1v10.1H0V53.3z M10.1,63.3h10.1v10.1
		H10.1V63.3z M20.9,74.2h10.1v10.1H20.9V74.2z M31.7,63.3h10.1v10.1H31.7V63.3z M42.5,74.2h10.1v10.1H42.5V74.2z M31.7,85h10.1V95
		H31.7V85z M0,95.8h10.1v10.1H0V95.8z M10.1,105.8h10.1v10.1H10.1V105.8z M20.9,116.7h10.1v10.1H20.9V116.7z M31.7,105.8h10.1v10.1
		H31.7V105.8z M20.9,95.8h10.1v10.1H20.9V95.8z M0,127.4h10.1v10.1H0V127.4z M20.9,21.5h21.6v-10h41.2
		c88.9,1.2,76.1,119.1,15.1,124.4l-22.9,1.2H31.7v-9.7h10.1v-10.8h43.4c45.2,0,41.9-85.5,0.3-85.5H20.8L20.9,21.5z"/>
	<path fill="#189A80" d="M170.6,12.4c-21.8-5.4-40.2-3.5-56.4,3.4c-1.8,0.7-1.5,2,0,2.8c5.1,3,10,6.6,14.6,10.8
		c19.1-1.2,25-0.7,42.4,5.8c4.2,1,5.6-0.7,4.5-5.1L170.6,12.4z M122,17.3c14.1-3.4,28.7-4.9,44.7-1.3l3.8,14.3
		c-12.4-6-25.3-7.9-38.9-5.2L122,17.3z M88,31.3c2.6-4.6,20.2,4.7,17.4,9.4l-5.2,7.4c-12.1,17-5.3,42.3,4.8,58.6
		c2.1,7.8-17.3,13.8-20.5,8.4C69.7,92.5,65.3,50.4,88,31.3z M88.6,113.3c-9.4-19.9-21.9-51,2.2-77.7l9.4,3.7
		c-18.2,23.9-13.7,47,0.6,69.8L88.6,113.3z M128.1,122.1L106,134.8c7.1,9,46.7,8.9,68.6-4.9c0.9,1.4,3,2,4.5,1.6l9.8-3
		c0.9-0.9,0.9-2.3,0.3-3.9l-1.7-6.3l6.5-1.3c3.1-0.7,4-2.8,2.9-5.9l-1.9-6.5c-1.1-3-2.3-2.9-5.3-2.1l-5.7,1.6L181.6,93
		c-0.3-1.6-1.1-2.6-2.9-2.2l-10.4,2.8c-1.2,0.4-1.8,1.4-1.4,3.3l2.6,10.4l-7.9,2.4c-1.7,0.4-2.4,1.9-2.3,3.7l1,4.2
		C149,121.8,137.2,123.9,128.1,122.1z M146.2,70.8l4.7-0.7c5,1.6,6.2,11.8,4.4,14.4l-9.1,2.6L146.2,70.8z M161.1,67.4
		c3.6-1,5.8-1.6,9.4-2.6c1.1-0.3,2,0.2,2.4,1.8l1.6,6.8l6.8-1.8l-1.6-6.7c-0.5-2.3-0.4-3.4,2.1-4.1l7.7-2.3c2.8-0.8,3.6-0.8,4.6,2.1
		l2.5,7.3c0.7,2.9-0.5,4.1-3,4.9l-7.1,1.7l1.9,6.3l5.8-1.7c1.2-0.4,4.1-1.2,4.7,0.7l3,8.3c1,2.8,0.6,4.7-1.4,5.5l-8.8,2.8
		c-2.2,0.4-3.8-0.4-4.4-2.9l-1.6-6.3l-8.5,2c-1.4,0.2-2.5-0.4-3.1-2l-1.8-7l-6.9,2.1c-2.6,0.7-3.7,0.5-4.4-1.9l-2.3-9.1
		C158.5,69.4,159.2,68,161.1,67.4z M126.9,127c9.4,1.7,20.8,0.2,34.5-5.1c0.6,1.4,2,3.5,4,3l6.7-1.4l0.8,3.1
		c-20.8,11.7-39.7,12.5-57.9,8L126.9,127z M171.9,97.2l5.9-1.6l1.4,5.1l-6.1,1.6L171.9,97.2z M185.1,108.3l5.9-1.6l1.4,5.1l-6.1,1.6
		L185.1,108.3z M177.1,121.3l5.9-1.6l1.4,5.2l-6.2,1.6L177.1,121.3z M164.4,114.1l5.9-1.6l1.4,5.1l-6.2,1.6L164.4,114.1z M181,115
		l-4.9,1.5l-2.4-8.7l5-1.6L181,115z M149.4,81.3V75l1.7,6.2H149.4z M163.5,71.8l5.9-1.6l1.4,5.2l-6.1,1.6L163.5,71.8z M176.7,78.5
		l5.9-1.6L184,82l-6.2,1.6L176.7,78.5z M189.8,85.7l5.9-1.6l1.4,5.2l-6.2,1.6L189.8,85.7z M184.5,65.1l5.9-1.6l1.4,5.2l-6.2,1.6
		L184.5,65.1z"/>
</g>
</svg>
