<?xml version="1.0" encoding="UTF-8"?>
<!DOCTYPE svg PUBLIC "-//W3C//DTD SVG 1.1//EN" "http://www.w3.org/Graphics/SVG/1.1/DTD/svg11.dtd">
<!-- Creator: CorelDRAW X7 -->
<svg xmlns="http://www.w3.org/2000/svg" xml:space="preserve" width="0.23in" height="0.23in" version="1.1" style="shape-rendering:geometricPrecision; text-rendering:geometricPrecision; image-rendering:optimizeQuality; fill-rule:evenodd; clip-rule:evenodd"
viewBox="0 0 667 667"
 xmlns:xlink="http://www.w3.org/1999/xlink">
 <defs>
  <style type="text/css">
   <![CDATA[
    .fil0 {fill:#1AB394}
   ]]>
  </style>
 </defs>
 <g id="Layer_x0020_1">
  <metadata id="CorelCorpID_0Corel-Layer"/>
  <path class="fil0" d="M467 403c71,-102 59,-240 -29,-328 -100,-100 -263,-100 -363,0 -100,100 -100,263 0,363 88,88 226,100 328,29l23 -16 6 28c2,7 6,14 11,20l157 156c15,15 40,16 55,0 15,-15 15,-40 0,-55l-156 -157c-6,-5 -13,-9 -20,-11l-28 -5 16 -24zm-51 13c-88,87 -231,87 -318,0 -88,-88 -88,-231 0,-318 87,-88 230,-88 318,0 87,87 87,230 0,318zm-108 -155c-1,7 -2,13 -2,18 0,5 0,9 2,11 1,3 3,5 6,6 2,1 5,2 9,2 4,0 9,-2 14,-5 4,-3 8,-7 11,-13 3,-6 6,-12 8,-20 2,-8 3,-16 3,-25 0,-15 -3,-29 -7,-40 -5,-12 -12,-21 -20,-29 -9,-8 -19,-14 -31,-18 -11,-4 -24,-6 -38,-6 -16,0 -30,3 -43,9 -13,6 -24,14 -34,24 -10,10 -17,22 -23,35 -5,14 -8,29 -8,44 0,20 3,36 9,51 6,14 14,27 25,36 10,10 22,17 36,22 14,5 30,8 46,8 9,0 17,-1 25,-2 8,-1 15,-2 22,-4 6,-2 12,-4 18,-6 5,-2 10,-4 14,-7 3,-1 6,-2 8,-1 2,1 4,2 5,5l6 16c-12,8 -26,14 -43,19 -16,5 -34,8 -55,8 -21,0 -41,-4 -59,-10 -18,-7 -33,-17 -46,-29 -13,-12 -24,-28 -31,-45 -7,-18 -11,-38 -11,-61 0,-12 1,-24 5,-36 3,-12 7,-23 13,-33 6,-10 13,-20 22,-29 8,-8 18,-16 28,-22 10,-6 21,-11 33,-14 12,-4 25,-5 38,-5 16,0 32,2 47,8 16,5 29,13 41,24 12,10 21,23 28,38 7,14 10,31 10,50 0,12 -1,24 -5,35 -4,11 -9,20 -15,28 -7,8 -15,15 -24,19 -9,5 -18,7 -29,7 -8,0 -15,-2 -21,-5 -6,-4 -11,-10 -13,-18 -7,8 -14,14 -22,18 -8,3 -16,5 -25,5 -7,0 -14,-1 -19,-4 -5,-2 -10,-6 -14,-10 -3,-5 -6,-10 -8,-16 -2,-6 -3,-13 -3,-20 0,-7 1,-14 3,-21 2,-6 4,-13 7,-19 4,-7 8,-13 13,-18 5,-6 11,-11 18,-15 7,-4 15,-7 23,-9 9,-3 18,-4 28,-4 10,0 17,1 24,2 6,1 12,3 18,6l-17 65zm-20 -45c-4,-1 -8,-1 -12,-1 -7,0 -14,2 -20,5 -6,3 -12,7 -16,13 -5,5 -9,11 -11,18 -3,7 -4,14 -4,22 0,7 1,13 5,17 3,4 8,6 14,6 3,0 6,0 9,-1 3,-1 6,-3 9,-5 3,-3 5,-6 7,-10 3,-4 5,-9 6,-15l13 -49z"/>
 </g>
</svg>
