<?xml version="1.0" encoding="utf-8"?>
<!-- Generator: Adobe Illustrator 25.0.0, SVG Export Plug-In . SVG Version: 6.00 Build 0)  -->
<svg version="1.1" id="Layer_1" xmlns="http://www.w3.org/2000/svg" xmlns:xlink="http://www.w3.org/1999/xlink" x="0px" y="0px" 
	 viewBox="0 0 21 21.3" style="enable-background:new 0 0 21 21.3;" xml:space="preserve">
<style type="text/css">
	.st0{fill:#3B579D;}
	.st1{fill:#FFFFFF;}
</style>
<g>
	<path class="st0" d="M10.5,21.3L10.5,21.3C4.7,21.3,0,16.6,0,10.7l0,0C0,4.8,4.7,0,10.5,0l0,0C16.3,0,21,4.8,21,10.7l0,0
		C21,16.6,16.3,21.3,10.5,21.3z"/>
	<path id="f" class="st1" d="M13.2,21.3v-8.3H16l0.4-3.2h-3.1V7.8c0-0.9,0.3-1.6,1.6-1.6h1.7V3.3c-0.3,0-1.3-0.1-2.4-0.1
		c-2.4,0-4.1,1.5-4.1,4.3v2.4H7.2v3.2H10v8.3H13.2z"/>
</g>
</svg>
