<?xml version="1.0" encoding="UTF-8"?>
<!DOCTYPE svg PUBLIC "-//W3C//DTD SVG 1.1//EN" "http://www.w3.org/Graphics/SVG/1.1/DTD/svg11.dtd">
<!-- Creator: CorelDRAW X7 -->
<svg xmlns="http://www.w3.org/2000/svg" xml:space="preserve" width="2.16535in" height="2.75591in" version="1.1" style="shape-rendering:geometricPrecision; text-rendering:geometricPrecision; image-rendering:optimizeQuality; fill-rule:evenodd; clip-rule:evenodd"
viewBox="0 0 2165 2756"
 xmlns:xlink="http://www.w3.org/1999/xlink">
 <defs>
  <style type="text/css">
   <![CDATA[
    .fil0 {fill:#041122}
   ]]>
  </style>
 </defs>
 <g id="Layer_x0020_1">
  <metadata id="CorelCorpID_0Corel-Layer"/>
  <path class="fil0" d="M244 1361l1678 0c65,0 118,53 118,118l0 909c0,130 -106,236 -236,236l-1442 0c-130,0 -237,-106 -237,-236l0 -909c0,-65 54,-118 119,-118zm835 289c129,0 234,105 234,234 0,64 -26,122 -67,164l0 124c0,92 -75,167 -167,167 -92,0 -167,-75 -167,-167l0 0 0 -124c-41,-42 -67,-100 -67,-164 0,-129 105,-234 234,-234zm-495 -835c80,-569 882,-559 959,0l0 427 263 0 0 -427c-156,-909 -1348,-913 -1485,0l0 427 263 0 0 -427z"/>
 </g>
</svg>
