<svg xmlns="http://www.w3.org/2000/svg" xmlns:xlink="http://www.w3.org/1999/xlink" width="268" zoomAndPan="magnify" viewBox="0 0 200.87999 158.249993" height="211" preserveAspectRatio="xMidYMid meet" version="1.0"><defs><clipPath id="319f02ed84"><path d="M 1 0 L 200 0 L 200 157.503906 L 1 157.503906 Z M 1 0 " clip-rule="nonzero"/></clipPath><clipPath id="96281e3503"><path d="M 184.054688 23.542969 L 189.054688 23.542969 L 189.054688 27.277344 L 184.054688 27.277344 Z M 184.054688 23.542969 " clip-rule="nonzero"/></clipPath><clipPath id="4af3cc5e50"><path d="M 185.917969 23.542969 L 187.175781 23.542969 C 187.671875 23.542969 188.144531 23.738281 188.496094 24.089844 C 188.84375 24.441406 189.042969 24.914062 189.042969 25.410156 C 189.042969 25.90625 188.84375 26.378906 188.496094 26.730469 C 188.144531 27.078125 187.671875 27.277344 187.175781 27.277344 L 185.917969 27.277344 C 185.425781 27.277344 184.949219 27.078125 184.597656 26.730469 C 184.25 26.378906 184.054688 25.90625 184.054688 25.410156 C 184.054688 24.914062 184.25 24.441406 184.597656 24.089844 C 184.949219 23.738281 185.425781 23.542969 185.917969 23.542969 Z M 185.917969 23.542969 " clip-rule="nonzero"/></clipPath></defs><g clip-path="url(#319f02ed84)"><path fill="#189881" d="M 189.992188 21.875 C 189.351562 21.769531 188.707031 21.71875 188.058594 21.726562 C 187.410156 21.734375 186.765625 21.796875 186.128906 21.921875 C 185.492188 22.042969 184.871094 22.21875 184.265625 22.449219 C 183.660156 22.679688 183.078125 22.964844 182.523438 23.296875 C 181.96875 23.632812 181.445312 24.015625 180.957031 24.441406 C 180.46875 24.867188 180.023438 25.335938 179.617188 25.84375 C 179.210938 26.347656 178.855469 26.886719 178.542969 27.457031 C 178.234375 28.027344 177.976562 28.617188 177.773438 29.234375 L 172.15625 47.269531 C 169.601562 45.53125 166.832031 44.269531 163.84375 43.492188 C 164.40625 43.058594 164.941406 42.597656 165.453125 42.113281 C 165.964844 41.625 166.449219 41.113281 166.910156 40.574219 C 167.367188 40.039062 167.796875 39.476562 168.199219 38.894531 C 168.601562 38.3125 168.96875 37.710938 169.308594 37.089844 C 169.648438 36.472656 169.953125 35.835938 170.226562 35.183594 C 170.5 34.53125 170.738281 33.867188 170.941406 33.191406 C 171.144531 32.511719 171.3125 31.828125 171.445312 31.132812 C 171.578125 30.4375 171.675781 29.738281 171.734375 29.035156 C 171.796875 28.332031 171.820312 27.625 171.808594 26.917969 C 171.792969 26.210938 171.746094 25.507812 171.660156 24.808594 C 171.574219 24.105469 171.453125 23.410156 171.292969 22.722656 C 171.136719 22.03125 170.945312 21.351562 170.714844 20.683594 C 170.488281 20.015625 170.226562 19.359375 169.929688 18.71875 C 169.632812 18.074219 169.304688 17.449219 168.945312 16.84375 C 168.585938 16.234375 168.191406 15.648438 167.773438 15.082031 C 167.351562 14.511719 166.902344 13.96875 166.421875 13.449219 C 165.945312 12.925781 165.441406 12.433594 164.910156 11.964844 C 164.382812 11.496094 163.832031 11.054688 163.253906 10.644531 C 162.679688 10.234375 162.085938 9.851562 161.472656 9.503906 C 160.859375 9.152344 160.226562 8.835938 159.582031 8.550781 C 158.933594 8.265625 158.273438 8.015625 157.601562 7.800781 C 156.925781 7.585938 156.246094 7.40625 155.554688 7.257812 C 154.863281 7.113281 154.164062 7.003906 153.460938 6.933594 C 152.757812 6.859375 152.054688 6.824219 151.347656 6.824219 C 150.640625 6.824219 149.933594 6.859375 149.230469 6.933594 C 148.527344 7.003906 147.832031 7.113281 147.140625 7.257812 C 146.449219 7.40625 145.765625 7.585938 145.09375 7.800781 C 144.417969 8.015625 143.757812 8.265625 143.113281 8.550781 C 142.464844 8.835938 141.835938 9.152344 141.21875 9.503906 C 140.605469 9.851562 140.011719 10.234375 139.4375 10.644531 C 138.863281 11.054688 138.308594 11.496094 137.78125 11.964844 C 137.25 12.433594 136.75 12.925781 136.269531 13.449219 C 135.792969 13.96875 135.34375 14.511719 134.921875 15.082031 C 134.5 15.648438 134.109375 16.234375 133.746094 16.84375 C 133.386719 17.449219 133.058594 18.074219 132.761719 18.71875 C 132.464844 19.359375 132.203125 20.015625 131.976562 20.683594 C 131.75 21.351562 131.554688 22.03125 131.398438 22.722656 C 131.242188 23.410156 131.117188 24.105469 131.03125 24.808594 C 130.949219 25.507812 130.898438 26.210938 130.886719 26.917969 C 130.871094 27.625 130.898438 28.332031 130.957031 29.035156 C 131.019531 29.738281 131.113281 30.4375 131.246094 31.132812 C 131.378906 31.828125 131.546875 32.511719 131.753906 33.191406 C 131.957031 33.867188 132.195312 34.53125 132.46875 35.183594 C 132.738281 35.835938 133.046875 36.472656 133.382812 37.089844 C 133.722656 37.710938 134.09375 38.3125 134.492188 38.894531 C 134.894531 39.476562 135.324219 40.039062 135.785156 40.574219 C 136.242188 41.113281 136.726562 41.625 137.238281 42.113281 C 137.753906 42.597656 138.289062 43.058594 138.847656 43.492188 C 135.441406 44.355469 132.34375 45.855469 129.550781 47.992188 C 127.683594 46.738281 125.671875 45.792969 123.515625 45.152344 C 121.359375 44.515625 119.15625 44.210938 116.90625 44.246094 L 114.769531 44.246094 C 115.460938 43.738281 116.125 43.199219 116.761719 42.625 C 117.398438 42.046875 118 41.441406 118.574219 40.800781 C 119.144531 40.164062 119.683594 39.496094 120.183594 38.800781 C 120.6875 38.105469 121.152344 37.386719 121.578125 36.644531 C 122.003906 35.898438 122.390625 35.136719 122.738281 34.351562 C 123.085938 33.566406 123.390625 32.765625 123.652344 31.953125 C 123.917969 31.136719 124.136719 30.308594 124.3125 29.46875 C 124.488281 28.628906 124.621094 27.785156 124.707031 26.929688 C 124.796875 26.078125 124.839844 25.222656 124.839844 24.367188 C 124.835938 23.507812 124.789062 22.652344 124.699219 21.800781 C 124.609375 20.949219 124.472656 20.101562 124.292969 19.265625 C 124.113281 18.425781 123.890625 17.597656 123.625 16.785156 C 123.359375 15.96875 123.050781 15.171875 122.699219 14.386719 C 122.351562 13.605469 121.960938 12.84375 121.53125 12.101562 C 121.101562 11.359375 120.632812 10.640625 120.128906 9.949219 C 119.625 9.253906 119.085938 8.589844 118.511719 7.953125 C 117.9375 7.316406 117.332031 6.710938 116.691406 6.136719 C 116.054688 5.566406 115.390625 5.027344 114.695312 4.523438 C 114 4.019531 113.28125 3.554688 112.539062 3.125 C 111.796875 2.699219 111.035156 2.308594 110.25 1.960938 C 109.46875 1.613281 108.667969 1.304688 107.851562 1.042969 C 107.035156 0.777344 106.210938 0.554688 105.371094 0.378906 C 104.53125 0.199219 103.6875 0.0664062 102.832031 -0.0234375 C 101.980469 -0.113281 101.125 -0.15625 100.269531 -0.15625 C 99.410156 -0.15625 98.554688 -0.113281 97.703125 -0.0234375 C 96.851562 0.0664062 96.003906 0.199219 95.164062 0.378906 C 94.328125 0.554688 93.5 0.777344 92.683594 1.042969 C 91.867188 1.304688 91.070312 1.613281 90.285156 1.960938 C 89.503906 2.308594 88.738281 2.699219 87.996094 3.125 C 87.253906 3.554688 86.535156 4.019531 85.839844 4.523438 C 85.148438 5.027344 84.480469 5.566406 83.84375 6.136719 C 83.207031 6.710938 82.601562 7.316406 82.027344 7.953125 C 81.453125 8.589844 80.910156 9.253906 80.40625 9.949219 C 79.902344 10.640625 79.433594 11.359375 79.003906 12.101562 C 78.574219 12.84375 78.1875 13.605469 77.835938 14.386719 C 77.488281 15.171875 77.179688 15.96875 76.914062 16.785156 C 76.644531 17.597656 76.421875 18.425781 76.242188 19.265625 C 76.0625 20.101562 75.929688 20.949219 75.835938 21.800781 C 75.746094 22.652344 75.699219 23.507812 75.699219 24.367188 C 75.695312 25.222656 75.738281 26.078125 75.828125 26.929688 C 75.914062 27.785156 76.046875 28.628906 76.222656 29.46875 C 76.402344 30.308594 76.621094 31.136719 76.882812 31.953125 C 77.148438 32.765625 77.453125 33.566406 77.796875 34.351562 C 78.144531 35.136719 78.53125 35.898438 78.957031 36.644531 C 79.386719 37.386719 79.851562 38.105469 80.351562 38.800781 C 80.855469 39.496094 81.390625 40.164062 81.964844 40.800781 C 82.535156 41.441406 83.140625 42.046875 83.773438 42.625 C 84.410156 43.199219 85.074219 43.738281 85.765625 44.246094 L 83.632812 44.246094 C 81.414062 44.242188 79.246094 44.5625 77.125 45.207031 C 75.003906 45.847656 73.023438 46.789062 71.183594 48.023438 C 68.429688 45.949219 65.386719 44.480469 62.050781 43.621094 C 62.613281 43.191406 63.148438 42.730469 63.664062 42.242188 C 64.175781 41.753906 64.664062 41.242188 65.125 40.703125 C 65.585938 40.164062 66.015625 39.605469 66.417969 39.023438 C 66.820312 38.4375 67.191406 37.835938 67.53125 37.214844 C 67.871094 36.59375 68.179688 35.957031 68.453125 35.304688 C 68.726562 34.652344 68.964844 33.984375 69.171875 33.308594 C 69.375 32.628906 69.546875 31.941406 69.679688 31.246094 C 69.8125 30.550781 69.910156 29.851562 69.972656 29.144531 C 70.03125 28.441406 70.058594 27.734375 70.046875 27.023438 C 70.035156 26.316406 69.984375 25.609375 69.898438 24.90625 C 69.8125 24.203125 69.691406 23.507812 69.535156 22.816406 C 69.378906 22.125 69.183594 21.445312 68.957031 20.777344 C 68.726562 20.105469 68.464844 19.449219 68.171875 18.804688 C 67.875 18.160156 67.546875 17.535156 67.183594 16.925781 C 66.824219 16.316406 66.429688 15.726562 66.007812 15.160156 C 65.585938 14.589844 65.136719 14.042969 64.65625 13.523438 C 64.179688 13 63.675781 12.503906 63.144531 12.035156 C 62.613281 11.566406 62.0625 11.125 61.484375 10.710938 C 60.910156 10.300781 60.3125 9.917969 59.699219 9.566406 C 59.082031 9.214844 58.449219 8.898438 57.800781 8.613281 C 57.152344 8.328125 56.492188 8.078125 55.820312 7.859375 C 55.144531 7.644531 54.460938 7.464844 53.765625 7.316406 C 53.074219 7.171875 52.375 7.0625 51.671875 6.988281 C 50.964844 6.917969 50.261719 6.878906 49.550781 6.878906 C 48.84375 6.878906 48.136719 6.917969 47.433594 6.988281 C 46.726562 7.0625 46.027344 7.171875 45.335938 7.316406 C 44.644531 7.464844 43.957031 7.644531 43.285156 7.859375 C 42.609375 8.078125 41.949219 8.328125 41.300781 8.613281 C 40.652344 8.898438 40.019531 9.214844 39.40625 9.566406 C 38.789062 9.917969 38.195312 10.300781 37.617188 10.710938 C 37.042969 11.125 36.488281 11.566406 35.957031 12.035156 C 35.429688 12.503906 34.925781 13 34.445312 13.523438 C 33.964844 14.042969 33.515625 14.589844 33.09375 15.160156 C 32.671875 15.726562 32.28125 16.316406 31.917969 16.925781 C 31.558594 17.535156 31.230469 18.160156 30.933594 18.804688 C 30.636719 19.449219 30.375 20.105469 30.148438 20.777344 C 29.917969 21.445312 29.726562 22.125 29.566406 22.816406 C 29.410156 23.507812 29.289062 24.203125 29.203125 24.90625 C 29.117188 25.609375 29.070312 26.316406 29.058594 27.023438 C 29.046875 27.734375 29.070312 28.441406 29.132812 29.144531 C 29.191406 29.851562 29.289062 30.550781 29.421875 31.246094 C 29.558594 31.941406 29.726562 32.628906 29.929688 33.308594 C 30.136719 33.984375 30.375 34.652344 30.648438 35.304688 C 30.921875 35.957031 31.230469 36.59375 31.570312 37.214844 C 31.910156 37.835938 32.28125 38.4375 32.683594 39.023438 C 33.085938 39.605469 33.519531 40.164062 33.980469 40.703125 C 34.441406 41.242188 34.925781 41.753906 35.441406 42.242188 C 35.953125 42.730469 36.492188 43.191406 37.054688 43.621094 C 34.066406 44.402344 31.296875 45.660156 28.742188 47.398438 L 23.191406 29.234375 C 23.023438 28.535156 22.789062 27.863281 22.488281 27.210938 C 22.183594 26.558594 21.824219 25.945312 21.402344 25.363281 C 20.980469 24.785156 20.503906 24.25 19.976562 23.765625 C 19.449219 23.277344 18.878906 22.847656 18.265625 22.472656 C 17.652344 22.097656 17.011719 21.789062 16.335938 21.539062 C 15.664062 21.292969 14.972656 21.113281 14.265625 21.003906 C 13.554688 20.890625 12.84375 20.847656 12.125 20.878906 C 11.410156 20.90625 10.703125 21.003906 10.003906 21.175781 C 9.304688 21.34375 8.632812 21.578125 7.980469 21.878906 C 7.328125 22.179688 6.714844 22.539062 6.132812 22.960938 C 5.554688 23.386719 5.019531 23.859375 4.53125 24.386719 C 4.046875 24.914062 3.617188 25.484375 3.242188 26.097656 C 2.867188 26.707031 2.554688 27.351562 2.308594 28.023438 C 2.058594 28.699219 1.878906 29.390625 1.769531 30.097656 C 1.65625 30.808594 1.617188 31.519531 1.644531 32.238281 C 1.671875 32.953125 1.769531 33.660156 1.9375 34.359375 L 8.835938 75.222656 C 9.375 78.546875 10.425781 81.699219 11.988281 84.683594 C 13.550781 87.667969 15.542969 90.328125 17.96875 92.664062 L 44.640625 118.515625 C 46.648438 120.46875 48.351562 122.660156 49.753906 125.085938 C 51.152344 127.515625 52.199219 130.085938 52.886719 132.804688 C 52.089844 133.210938 51.363281 133.71875 50.703125 134.328125 C 50.046875 134.933594 49.480469 135.617188 49.007812 136.378906 C 48.535156 137.140625 48.175781 137.949219 47.925781 138.808594 C 47.675781 139.667969 47.542969 140.546875 47.53125 141.441406 L 47.53125 147.484375 C 47.53125 148.132812 47.59375 148.773438 47.71875 149.410156 C 47.847656 150.042969 48.035156 150.660156 48.28125 151.257812 C 48.527344 151.855469 48.832031 152.421875 49.191406 152.960938 C 49.550781 153.5 49.960938 153.996094 50.417969 154.453125 C 50.875 154.910156 51.371094 155.320312 51.910156 155.679688 C 52.449219 156.039062 53.015625 156.34375 53.613281 156.589844 C 54.210938 156.835938 54.828125 157.023438 55.464844 157.152344 C 56.097656 157.277344 56.738281 157.339844 57.386719 157.339844 L 92.859375 157.339844 C 93.621094 157.308594 94.367188 157.1875 95.097656 156.976562 C 95.828125 156.765625 96.523438 156.476562 97.1875 156.101562 C 97.847656 155.726562 98.457031 155.28125 99.015625 154.765625 C 99.570312 154.246094 100.0625 153.671875 100.480469 153.039062 C 100.925781 153.660156 101.4375 154.222656 102.015625 154.722656 C 102.59375 155.222656 103.222656 155.648438 103.902344 156 C 104.582031 156.351562 105.292969 156.617188 106.039062 156.800781 C 106.78125 156.980469 107.535156 157.074219 108.300781 157.078125 L 143.773438 157.078125 C 144.421875 157.078125 145.0625 157.015625 145.699219 156.886719 C 146.332031 156.761719 146.949219 156.574219 147.546875 156.328125 C 148.144531 156.078125 148.710938 155.777344 149.25 155.417969 C 149.789062 155.058594 150.285156 154.648438 150.742188 154.191406 C 151.199219 153.734375 151.609375 153.234375 151.96875 152.699219 C 152.328125 152.160156 152.632812 151.59375 152.878906 150.996094 C 153.125 150.394531 153.3125 149.78125 153.441406 149.144531 C 153.566406 148.511719 153.628906 147.871094 153.628906 147.222656 L 153.628906 141.441406 C 153.617188 140.546875 153.488281 139.667969 153.234375 138.808594 C 152.984375 137.949219 152.625 137.140625 152.152344 136.378906 C 151.679688 135.617188 151.117188 134.933594 150.457031 134.328125 C 149.800781 133.71875 149.070312 133.210938 148.273438 132.804688 C 148.933594 130.097656 149.949219 127.53125 151.316406 125.105469 C 152.683594 122.679688 154.351562 120.480469 156.324219 118.515625 L 182.960938 92.566406 C 185.378906 90.238281 187.371094 87.59375 188.9375 84.628906 C 190.503906 81.664062 191.566406 78.527344 192.125 75.222656 L 199.023438 34.359375 C 199.136719 33.652344 199.175781 32.941406 199.148438 32.230469 C 199.117188 31.515625 199.019531 30.808594 198.851562 30.117188 C 198.6875 29.421875 198.453125 28.75 198.15625 28.097656 C 197.855469 27.449219 197.496094 26.835938 197.078125 26.257812 C 196.660156 25.679688 196.1875 25.144531 195.664062 24.660156 C 195.140625 24.171875 194.578125 23.742188 193.96875 23.367188 C 193.359375 22.988281 192.722656 22.675781 192.054688 22.425781 C 191.382812 22.175781 190.695312 21.992188 189.992188 21.875 Z M 82.351562 24.472656 C 82.347656 23.882812 82.371094 23.292969 82.425781 22.707031 C 82.480469 22.121094 82.566406 21.539062 82.675781 20.960938 C 82.789062 20.378906 82.929688 19.808594 83.097656 19.242188 C 83.265625 18.679688 83.460938 18.125 83.679688 17.578125 C 83.902344 17.03125 84.152344 16.5 84.425781 15.976562 C 84.703125 15.457031 85.003906 14.949219 85.328125 14.457031 C 85.652344 13.964844 86 13.492188 86.371094 13.035156 C 86.742188 12.574219 87.132812 12.136719 87.546875 11.71875 C 87.964844 11.300781 88.398438 10.902344 88.851562 10.523438 C 89.304688 10.148438 89.773438 9.796875 90.261719 9.464844 C 90.75 9.136719 91.253906 8.828125 91.773438 8.546875 C 92.289062 8.269531 92.820312 8.011719 93.363281 7.785156 C 93.90625 7.554688 94.460938 7.355469 95.023438 7.179688 C 95.585938 7.003906 96.15625 6.859375 96.734375 6.738281 C 97.308594 6.621094 97.890625 6.53125 98.476562 6.46875 C 99.0625 6.410156 99.652344 6.375 100.242188 6.375 C 100.832031 6.371094 101.417969 6.394531 102.003906 6.449219 C 102.59375 6.503906 103.175781 6.585938 103.753906 6.699219 C 104.332031 6.808594 104.902344 6.949219 105.46875 7.117188 C 106.035156 7.285156 106.589844 7.476562 107.136719 7.699219 C 107.679688 7.921875 108.214844 8.171875 108.734375 8.445312 C 109.257812 8.71875 109.765625 9.019531 110.257812 9.34375 C 110.75 9.667969 111.222656 10.015625 111.679688 10.386719 C 112.140625 10.757812 112.578125 11.148438 112.996094 11.5625 C 113.417969 11.976562 113.8125 12.410156 114.191406 12.863281 C 114.566406 13.316406 114.921875 13.789062 115.253906 14.277344 C 115.582031 14.765625 115.886719 15.265625 116.167969 15.785156 C 116.449219 16.304688 116.707031 16.832031 116.933594 17.375 C 117.164062 17.917969 117.367188 18.472656 117.539062 19.035156 C 117.714844 19.597656 117.863281 20.167969 117.980469 20.746094 C 118.101562 21.320312 118.191406 21.902344 118.25 22.488281 C 118.3125 23.074219 118.347656 23.664062 118.351562 24.253906 C 118.355469 24.84375 118.328125 25.429688 118.277344 26.015625 C 118.222656 26.605469 118.140625 27.1875 118.027344 27.765625 C 117.917969 28.34375 117.777344 28.917969 117.609375 29.480469 C 117.445312 30.046875 117.25 30.601562 117.027344 31.148438 C 116.804688 31.695312 116.558594 32.226562 116.28125 32.75 C 116.007812 33.269531 115.710938 33.777344 115.386719 34.269531 C 115.0625 34.761719 114.714844 35.238281 114.34375 35.695312 C 113.972656 36.152344 113.582031 36.59375 113.167969 37.011719 C 112.753906 37.433594 112.320312 37.832031 111.867188 38.207031 C 111.414062 38.585938 110.945312 38.9375 110.457031 39.269531 C 109.96875 39.601562 109.464844 39.90625 108.949219 40.1875 C 108.429688 40.46875 107.898438 40.722656 107.359375 40.953125 C 106.816406 41.183594 106.261719 41.386719 105.699219 41.5625 C 105.136719 41.734375 104.566406 41.882812 103.988281 42.003906 C 103.414062 42.121094 102.832031 42.210938 102.246094 42.273438 C 101.660156 42.335938 101.070312 42.371094 100.480469 42.375 C 99.890625 42.375 99.304688 42.351562 98.714844 42.296875 C 98.128906 42.242188 97.546875 42.160156 96.964844 42.046875 C 96.386719 41.933594 95.8125 41.796875 95.25 41.628906 C 94.683594 41.460938 94.128906 41.265625 93.582031 41.042969 C 93.035156 40.820312 92.5 40.570312 91.976562 40.296875 C 91.457031 40.019531 90.949219 39.71875 90.457031 39.394531 C 89.964844 39.070312 89.488281 38.722656 89.03125 38.351562 C 88.570312 37.980469 88.132812 37.585938 87.710938 37.171875 C 87.292969 36.757812 86.894531 36.324219 86.515625 35.871094 C 86.140625 35.417969 85.785156 34.945312 85.453125 34.457031 C 85.125 33.96875 84.816406 33.464844 84.535156 32.949219 C 84.253906 32.429688 84 31.898438 83.769531 31.355469 C 83.539062 30.8125 83.335938 30.257812 83.164062 29.695312 C 82.988281 29.132812 82.839844 28.5625 82.722656 27.984375 C 82.601562 27.40625 82.511719 26.824219 82.449219 26.238281 C 82.386719 25.648438 82.355469 25.0625 82.351562 24.472656 Z M 160.921875 68.390625 C 160.046875 67.589844 159.070312 66.941406 157.996094 66.441406 C 156.917969 65.941406 155.792969 65.617188 154.617188 65.46875 C 153.441406 65.320312 152.269531 65.351562 151.105469 65.5625 C 149.9375 65.773438 148.832031 66.160156 147.78125 66.714844 C 144.882812 68.738281 142.109375 70.925781 139.472656 73.28125 L 139.472656 66.714844 C 139.472656 64.175781 139.054688 61.710938 138.214844 59.316406 C 137.375 56.921875 136.164062 54.734375 134.578125 52.753906 C 136.199219 51.679688 137.941406 50.859375 139.804688 50.300781 C 141.667969 49.742188 143.570312 49.464844 145.515625 49.46875 L 157.375 49.46875 C 159.722656 49.46875 162 49.875 164.203125 50.6875 C 166.40625 51.503906 168.398438 52.671875 170.183594 54.199219 L 169.496094 56.433594 C 168.691406 58.804688 167.558594 61.011719 166.097656 63.046875 C 164.636719 65.085938 162.910156 66.867188 160.921875 68.390625 Z M 151.328125 13.5 C 152.246094 13.5 153.152344 13.585938 154.050781 13.761719 C 154.945312 13.9375 155.820312 14.199219 156.664062 14.550781 C 157.511719 14.898438 158.316406 15.324219 159.078125 15.832031 C 159.839844 16.339844 160.542969 16.914062 161.191406 17.558594 C 161.839844 18.207031 162.417969 18.910156 162.929688 19.667969 C 163.4375 20.429688 163.867188 21.230469 164.21875 22.074219 C 164.570312 22.917969 164.839844 23.789062 165.019531 24.6875 C 165.199219 25.585938 165.289062 26.492188 165.289062 27.40625 C 165.292969 28.320312 165.203125 29.226562 165.027344 30.125 C 164.847656 31.023438 164.585938 31.894531 164.238281 32.738281 C 163.886719 33.585938 163.460938 34.390625 162.953125 35.152344 C 162.445312 35.910156 161.867188 36.617188 161.222656 37.265625 C 160.578125 37.910156 159.875 38.492188 159.113281 39 C 158.351562 39.507812 157.550781 39.9375 156.707031 40.289062 C 155.859375 40.640625 154.988281 40.90625 154.09375 41.085938 C 153.195312 41.265625 152.289062 41.355469 151.375 41.355469 C 150.457031 41.355469 149.550781 41.265625 148.65625 41.089844 C 147.757812 40.910156 146.886719 40.648438 146.039062 40.296875 C 145.195312 39.949219 144.390625 39.519531 143.628906 39.011719 C 142.871094 38.503906 142.164062 37.925781 141.519531 37.28125 C 140.871094 36.632812 140.292969 35.929688 139.785156 35.167969 C 139.277344 34.410156 138.847656 33.605469 138.496094 32.761719 C 138.144531 31.914062 137.882812 31.042969 137.703125 30.144531 C 137.523438 29.25 137.433594 28.34375 137.433594 27.429688 C 137.433594 26.515625 137.523438 25.609375 137.703125 24.714844 C 137.878906 23.820312 138.144531 22.949219 138.492188 22.105469 C 138.839844 21.261719 139.269531 20.460938 139.777344 19.699219 C 140.28125 18.941406 140.859375 18.238281 141.503906 17.589844 C 142.148438 16.945312 142.847656 16.367188 143.609375 15.859375 C 144.367188 15.351562 145.167969 14.921875 146.011719 14.570312 C 146.851562 14.21875 147.722656 13.953125 148.617188 13.773438 C 149.511719 13.59375 150.417969 13.503906 151.328125 13.5 Z M 116.90625 50.816406 C 117.945312 50.816406 118.972656 50.921875 119.992188 51.125 C 121.011719 51.328125 122 51.628906 122.960938 52.027344 C 123.917969 52.429688 124.832031 52.914062 125.695312 53.492188 C 126.558594 54.070312 127.355469 54.726562 128.089844 55.460938 C 128.824219 56.195312 129.480469 56.996094 130.058594 57.859375 C 130.636719 58.722656 131.125 59.632812 131.523438 60.59375 C 131.921875 61.554688 132.222656 62.542969 132.429688 63.5625 C 132.632812 64.578125 132.734375 65.609375 132.738281 66.648438 L 132.738281 78.835938 L 123.605469 86.816406 L 120.78125 64.117188 C 120.730469 63.683594 120.597656 63.273438 120.378906 62.890625 C 120.164062 62.507812 119.886719 62.183594 119.539062 61.910156 C 119.195312 61.640625 118.8125 61.445312 118.390625 61.328125 C 117.96875 61.207031 117.539062 61.175781 117.101562 61.226562 C 116.667969 61.28125 116.257812 61.414062 115.875 61.628906 C 115.492188 61.84375 115.167969 62.125 114.894531 62.46875 C 114.625 62.8125 114.429688 63.199219 114.3125 63.621094 C 114.191406 64.042969 114.160156 64.472656 114.210938 64.90625 L 117.035156 87.898438 L 83.402344 87.898438 L 86.226562 64.90625 C 86.277344 64.472656 86.246094 64.042969 86.125 63.621094 C 86.007812 63.199219 85.8125 62.8125 85.542969 62.46875 C 85.269531 62.125 84.945312 61.84375 84.5625 61.628906 C 84.179688 61.414062 83.769531 61.28125 83.335938 61.226562 C 82.898438 61.175781 82.46875 61.207031 82.046875 61.328125 C 81.625 61.445312 81.242188 61.640625 80.898438 61.910156 C 80.550781 62.183594 80.273438 62.507812 80.058594 62.890625 C 79.84375 63.273438 79.707031 63.683594 79.65625 64.117188 L 76.863281 86.488281 C 73.578125 83.53125 70.492188 80.871094 67.796875 78.570312 L 67.796875 66.648438 C 67.796875 66.128906 67.824219 65.613281 67.875 65.097656 C 67.925781 64.578125 68 64.066406 68.101562 63.558594 C 68.203125 63.050781 68.328125 62.546875 68.480469 62.050781 C 68.628906 61.554688 68.804688 61.066406 69.003906 60.589844 C 69.203125 60.109375 69.421875 59.640625 69.667969 59.183594 C 69.914062 58.726562 70.179688 58.28125 70.464844 57.851562 C 70.753906 57.421875 71.0625 57.003906 71.390625 56.605469 C 71.722656 56.203125 72.070312 55.820312 72.4375 55.453125 C 72.800781 55.085938 73.1875 54.738281 73.585938 54.410156 C 73.988281 54.082031 74.402344 53.773438 74.835938 53.484375 C 75.265625 53.195312 75.710938 52.929688 76.167969 52.683594 C 76.625 52.441406 77.09375 52.21875 77.570312 52.019531 C 78.050781 51.820312 78.539062 51.648438 79.035156 51.496094 C 79.53125 51.347656 80.035156 51.21875 80.542969 51.121094 C 81.050781 51.019531 81.5625 50.941406 82.078125 50.890625 C 82.59375 50.839844 83.113281 50.816406 83.632812 50.816406 Z M 108.101562 112.898438 L 105.738281 132.144531 C 104.675781 132.429688 103.695312 132.886719 102.792969 133.511719 C 101.890625 134.140625 101.121094 134.898438 100.480469 135.792969 C 99.835938 134.890625 99.054688 134.128906 98.140625 133.503906 C 97.226562 132.878906 96.234375 132.425781 95.160156 132.144531 L 92.796875 112.898438 C 92.371094 109.503906 91.496094 106.230469 90.167969 103.078125 C 88.839844 99.925781 87.109375 97.011719 84.976562 94.339844 L 115.984375 94.339844 C 113.855469 97.011719 112.125 99.925781 110.796875 103.078125 C 109.46875 106.230469 108.59375 109.503906 108.167969 112.898438 Z M 49.632812 13.5 C 50.546875 13.5 51.453125 13.589844 52.351562 13.769531 C 53.246094 13.945312 54.117188 14.210938 54.964844 14.558594 C 55.808594 14.910156 56.609375 15.339844 57.371094 15.847656 C 58.132812 16.355469 58.835938 16.933594 59.480469 17.578125 C 60.128906 18.226562 60.707031 18.929688 61.214844 19.691406 C 61.722656 20.449219 62.152344 21.253906 62.5 22.097656 C 62.851562 22.941406 63.113281 23.8125 63.292969 24.710938 C 63.472656 25.609375 63.5625 26.511719 63.5625 27.429688 C 63.5625 28.34375 63.472656 29.246094 63.292969 30.144531 C 63.113281 31.042969 62.851562 31.914062 62.5 32.757812 C 62.152344 33.601562 61.722656 34.40625 61.214844 35.164062 C 60.707031 35.925781 60.128906 36.628906 59.480469 37.277344 C 58.835938 37.921875 58.132812 38.5 57.371094 39.007812 C 56.609375 39.515625 55.808594 39.945312 54.964844 40.296875 C 54.117188 40.644531 53.246094 40.910156 52.351562 41.085938 C 51.453125 41.265625 50.546875 41.355469 49.632812 41.355469 C 48.71875 41.355469 47.8125 41.265625 46.917969 41.085938 C 46.019531 40.910156 45.148438 40.644531 44.304688 40.296875 C 43.457031 39.945312 42.65625 39.515625 41.894531 39.007812 C 41.136719 38.5 40.433594 37.921875 39.785156 37.277344 C 39.140625 36.628906 38.5625 35.925781 38.054688 35.164062 C 37.546875 34.40625 37.117188 33.601562 36.765625 32.757812 C 36.417969 31.914062 36.152344 31.042969 35.972656 30.144531 C 35.796875 29.246094 35.707031 28.34375 35.707031 27.429688 C 35.707031 26.511719 35.796875 25.609375 35.972656 24.710938 C 36.152344 23.8125 36.417969 22.941406 36.765625 22.097656 C 37.117188 21.253906 37.546875 20.449219 38.054688 19.691406 C 38.5625 18.929688 39.140625 18.226562 39.785156 17.578125 C 40.433594 16.933594 41.136719 16.355469 41.894531 15.847656 C 42.65625 15.339844 43.457031 14.910156 44.304688 14.558594 C 45.148438 14.210938 46.019531 13.945312 46.917969 13.769531 C 47.8125 13.589844 48.71875 13.5 49.632812 13.5 Z M 43.6875 49.304688 L 55.546875 49.304688 C 57.457031 49.320312 59.328125 49.605469 61.15625 50.164062 C 62.984375 50.722656 64.695312 51.53125 66.289062 52.589844 C 64.671875 54.582031 63.4375 56.789062 62.582031 59.207031 C 61.722656 61.625 61.296875 64.117188 61.292969 66.679688 L 61.292969 72.988281 C 58.738281 70.757812 56.066406 68.679688 53.28125 66.746094 C 52.230469 66.191406 51.125 65.808594 49.957031 65.59375 C 48.792969 65.382812 47.621094 65.351562 46.445312 65.5 C 45.269531 65.652344 44.144531 65.976562 43.066406 66.472656 C 41.992188 66.972656 41.015625 67.621094 40.140625 68.421875 C 38.121094 66.875 36.375 65.070312 34.902344 62.996094 C 33.429688 60.925781 32.296875 58.683594 31.5 56.269531 L 30.8125 54.035156 C 32.605469 52.5 34.609375 51.328125 36.824219 50.511719 C 39.039062 49.699219 41.328125 49.296875 43.6875 49.304688 Z M 22.535156 87.835938 C 20.621094 85.980469 19.046875 83.875 17.8125 81.515625 C 16.578125 79.160156 15.742188 76.664062 15.308594 74.039062 L 8.507812 33.308594 C 8.421875 32.773438 8.4375 32.238281 8.554688 31.710938 C 8.667969 31.179688 8.875 30.691406 9.175781 30.238281 C 9.476562 29.789062 9.851562 29.410156 10.296875 29.097656 C 10.738281 28.789062 11.226562 28.570312 11.753906 28.445312 C 12.28125 28.316406 12.8125 28.292969 13.347656 28.367188 C 13.886719 28.441406 14.390625 28.609375 14.863281 28.875 C 15.335938 29.140625 15.742188 29.480469 16.085938 29.902344 C 16.429688 30.320312 16.683594 30.789062 16.851562 31.304688 L 25.226562 58.238281 C 26.242188 61.414062 27.714844 64.359375 29.648438 67.074219 C 31.585938 69.789062 33.886719 72.144531 36.558594 74.136719 C 36.230469 76.191406 36.292969 78.230469 36.753906 80.257812 C 37.214844 82.285156 38.035156 84.15625 39.222656 85.863281 C 44.035156 93.605469 49.457031 100.898438 55.480469 107.742188 C 55.773438 108.0625 56.117188 108.316406 56.515625 108.5 C 56.910156 108.6875 57.324219 108.789062 57.761719 108.808594 C 58.195312 108.828125 58.617188 108.765625 59.027344 108.617188 C 59.4375 108.46875 59.804688 108.246094 60.128906 107.953125 C 60.449219 107.660156 60.703125 107.3125 60.886719 106.917969 C 61.074219 106.523438 61.175781 106.109375 61.195312 105.671875 C 61.214844 105.238281 61.152344 104.816406 61.003906 104.40625 C 60.855469 103.996094 60.636719 103.628906 60.34375 103.304688 C 54.617188 96.761719 49.460938 89.800781 44.871094 82.414062 C 43.492188 80.179688 41.585938 76.042969 44.214844 73.414062 C 44.574219 73.050781 44.984375 72.75 45.433594 72.507812 C 45.886719 72.265625 46.363281 72.09375 46.867188 71.992188 C 47.371094 71.894531 47.878906 71.871094 48.386719 71.921875 C 48.898438 71.972656 49.390625 72.097656 49.863281 72.296875 C 51.40625 73.25 55.742188 76.796875 62.246094 82.382812 C 65.792969 85.4375 70.03125 89.148438 74.761719 93.351562 L 76.238281 94.632812 C 77.605469 95.855469 78.847656 97.1875 79.96875 98.632812 C 81.085938 100.078125 82.070312 101.617188 82.910156 103.238281 C 83.753906 104.863281 84.441406 106.550781 84.976562 108.300781 C 85.511719 110.050781 85.882812 111.835938 86.09375 113.652344 L 88.328125 131.6875 L 59.390625 131.6875 C 58.566406 128.273438 57.292969 125.039062 55.5625 121.988281 C 53.832031 118.933594 51.710938 116.175781 49.207031 113.71875 Z M 95.785156 147.484375 C 95.785156 147.90625 95.707031 148.3125 95.550781 148.707031 C 95.394531 149.097656 95.171875 149.445312 94.882812 149.753906 C 94.589844 150.058594 94.253906 150.300781 93.871094 150.476562 C 93.488281 150.652344 93.085938 150.75 92.664062 150.769531 L 57.1875 150.769531 C 56.765625 150.75 56.363281 150.652344 55.980469 150.476562 C 55.597656 150.300781 55.261719 150.058594 54.972656 149.753906 C 54.679688 149.445312 54.457031 149.097656 54.300781 148.707031 C 54.144531 148.3125 54.066406 147.90625 54.066406 147.484375 L 54.066406 141.441406 C 54.070312 141.097656 54.128906 140.765625 54.242188 140.441406 C 54.359375 140.117188 54.523438 139.820312 54.738281 139.554688 C 54.953125 139.285156 55.203125 139.058594 55.496094 138.875 C 55.785156 138.695312 56.097656 138.5625 56.433594 138.484375 L 92.695312 138.484375 C 93.101562 138.507812 93.488281 138.605469 93.855469 138.773438 C 94.226562 138.9375 94.554688 139.167969 94.839844 139.453125 C 95.125 139.742188 95.347656 140.070312 95.511719 140.441406 C 95.671875 140.8125 95.765625 141.203125 95.785156 141.605469 Z M 146.894531 147.484375 C 146.894531 147.921875 146.8125 148.339844 146.644531 148.742188 C 146.480469 149.144531 146.242188 149.5 145.933594 149.808594 C 145.625 150.117188 145.269531 150.355469 144.867188 150.519531 C 144.464844 150.6875 144.046875 150.769531 143.609375 150.769531 L 108.300781 150.769531 C 107.863281 150.769531 107.445312 150.6875 107.042969 150.519531 C 106.640625 150.355469 106.285156 150.117188 105.976562 149.808594 C 105.667969 149.5 105.429688 149.144531 105.265625 148.742188 C 105.097656 148.339844 105.015625 147.921875 105.015625 147.484375 L 105.015625 141.441406 C 105.035156 141.039062 105.125 140.648438 105.289062 140.277344 C 105.453125 139.90625 105.675781 139.578125 105.960938 139.289062 C 106.246094 139.003906 106.574219 138.773438 106.941406 138.609375 C 107.3125 138.441406 107.699219 138.34375 108.101562 138.320312 L 144.433594 138.320312 C 144.765625 138.398438 145.078125 138.527344 145.371094 138.710938 C 145.660156 138.894531 145.914062 139.121094 146.128906 139.390625 C 146.34375 139.65625 146.507812 139.953125 146.621094 140.277344 C 146.734375 140.601562 146.792969 140.933594 146.796875 141.277344 Z M 185.621094 74.039062 C 185.203125 76.667969 184.375 79.160156 183.144531 81.519531 C 181.914062 83.878906 180.34375 85.984375 178.429688 87.835938 L 151.757812 113.785156 C 149.25 116.242188 147.132812 119 145.402344 122.050781 C 143.671875 125.105469 142.394531 128.339844 141.574219 131.75 L 112.472656 131.75 L 114.703125 113.71875 C 114.914062 111.902344 115.289062 110.117188 115.824219 108.367188 C 116.359375 106.617188 117.046875 104.929688 117.886719 103.304688 C 118.730469 101.679688 119.710938 100.144531 120.832031 98.699219 C 121.953125 97.253906 123.195312 95.921875 124.558594 94.699219 L 126.039062 93.417969 C 139.503906 81.496094 148.570312 73.710938 151 72.332031 C 151.472656 72.136719 151.960938 72.011719 152.46875 71.964844 C 152.976562 71.914062 153.480469 71.9375 153.980469 72.039062 C 154.480469 72.136719 154.953125 72.308594 155.402344 72.546875 C 155.851562 72.785156 156.257812 73.085938 156.617188 73.449219 C 159.246094 76.074219 157.339844 80.214844 155.960938 82.449219 C 151.375 89.835938 146.21875 96.796875 140.488281 103.339844 C 140.199219 103.667969 139.980469 104.042969 139.839844 104.460938 C 139.695312 104.878906 139.636719 105.308594 139.667969 105.75 C 139.695312 106.1875 139.804688 106.605469 140 107.003906 C 140.195312 107.398438 140.457031 107.742188 140.785156 108.035156 C 141.117188 108.328125 141.492188 108.542969 141.910156 108.6875 C 142.328125 108.828125 142.753906 108.886719 143.195312 108.859375 C 143.636719 108.832031 144.054688 108.722656 144.449219 108.527344 C 144.847656 108.332031 145.191406 108.070312 145.484375 107.742188 C 151.496094 100.882812 156.902344 93.582031 161.710938 85.832031 C 162.882812 84.125 163.695312 82.257812 164.148438 80.238281 C 164.605469 78.214844 164.667969 76.183594 164.335938 74.136719 C 167.011719 72.140625 169.320312 69.78125 171.253906 67.0625 C 173.191406 64.339844 174.660156 61.390625 175.671875 58.207031 L 184.046875 31.304688 C 184.183594 30.867188 184.386719 30.464844 184.65625 30.089844 C 184.921875 29.71875 185.238281 29.398438 185.609375 29.125 C 185.976562 28.855469 186.378906 28.644531 186.8125 28.503906 C 187.246094 28.359375 187.695312 28.285156 188.152344 28.28125 L 188.84375 28.28125 C 189.128906 28.320312 189.40625 28.386719 189.679688 28.480469 C 189.953125 28.574219 190.210938 28.695312 190.460938 28.84375 C 190.707031 28.992188 190.9375 29.160156 191.152344 29.355469 C 191.363281 29.550781 191.554688 29.765625 191.726562 30 C 191.894531 30.234375 192.039062 30.480469 192.15625 30.746094 C 192.273438 31.007812 192.367188 31.28125 192.429688 31.5625 C 192.492188 31.84375 192.523438 32.128906 192.527344 32.417969 C 192.535156 32.707031 192.507812 32.992188 192.457031 33.273438 Z M 185.621094 74.039062 " fill-opacity="1" fill-rule="nonzero"/></g><g clip-path="url(#96281e3503)"><g clip-path="url(#4af3cc5e50)"><path fill="#189881" d="M 184.054688 23.542969 L 189.039062 23.542969 L 189.039062 27.277344 L 184.054688 27.277344 Z M 184.054688 23.542969 " fill-opacity="1" fill-rule="nonzero"/></g></g></svg>