<?xml version="1.0" encoding="UTF-8"?>
<!DOCTYPE svg PUBLIC "-//W3C//DTD SVG 1.1//EN" "http://www.w3.org/Graphics/SVG/1.1/DTD/svg11.dtd">
<!-- Creator: CorelDRAW X7 -->
<svg xmlns="http://www.w3.org/2000/svg" xml:space="preserve" width="22.013mm" height="13.939mm" version="1.1" style="shape-rendering:geometricPrecision; text-rendering:geometricPrecision; image-rendering:optimizeQuality; fill-rule:evenodd; clip-rule:evenodd"
viewBox="0 0 2201 1394"
 xmlns:xlink="http://www.w3.org/1999/xlink">
 <defs>
  <style type="text/css">
   <![CDATA[
    .fil3 {fill:#59BA9B}
    .fil0 {fill:#6DC470}
    .fil2 {fill:#D92727}
    .fil5 {fill:#E4790F}
    .fil4 {fill:#FFC201}
    .fil6 {fill:white}
    .fil1 {fill:#FEFEFE;fill-rule:nonzero}
    .fil7 {fill:white;fill-rule:nonzero}
   ]]>
  </style>
 </defs>
 <g id="Layer_x0020_1">
  <metadata id="CorelCorpID_0Corel-Layer"/>
  <g id="_1833379576832">
   <path class="fil0" d="M66 0l2067 0c38,0 68,30 68,66l0 193 -2201 0 0 -193c0,-36 30,-66 66,-66l0 0z"/>
   <path class="fil1" d="M1261 186l-14 0c-2,0 -3,-1 -5,-1 -1,-1 -1,-2 -2,-4l-7 -20 -43 0 -7 20c-1,2 -1,3 -3,3 -1,1 -2,2 -4,2l-14 0 40 -102 19 0 40 102zm-66 -39l33 0 -13 -34c0,-1 -1,-3 -2,-5 0,-2 -1,-4 -2,-7 0,3 -1,5 -2,7 0,2 -1,4 -1,6l-13 33z"/>
   <path class="fil2" d="M66 1394l2067 0c38,0 68,-31 68,-66l0 -193 -2201 0 0 193c0,35 30,66 66,66l0 0z"/>
   <polygon class="fil3" points="0,284 2201,284 2201,543 0,543 "/>
   <polygon class="fil4" points="0,566 2201,566 2201,828 0,828 "/>
   <polygon class="fil5" points="0,851 2201,851 2201,1110 0,1110 "/>
   <polygon class="fil6" points="0,259 2201,259 2201,284 0,284 "/>
   <polygon class="fil6" points="0,543 2201,543 2201,566 0,566 "/>
   <polygon class="fil6" points="0,828 2201,828 2201,851 0,851 "/>
   <polygon class="fil6" points="0,1110 2201,1110 2201,1135 0,1135 "/>
   <path class="fil7" d="M135 155l0 5 0 0 2 -3 18 -66 20 0 -30 89 -21 0 -28 -89 18 0 21 64 0 0zm73 25c-10,0 -18,-2 -23,-7 -5,-8 -7,-16 -7,-23l0 -3c0,-10 2,-20 7,-25 5,-8 13,-10 21,-10 10,0 17,2 22,7 6,8 8,13 8,23l0 10 -41 0 0 0c0,5 3,8 6,10 2,3 5,6 10,6 2,0 7,0 10,-3 2,0 5,0 8,-3l5 11c-3,2 -8,5 -11,5 -5,2 -10,2 -15,2l0 0zm-2 -53c-3,0 -5,0 -8,2 -3,3 -3,6 -3,11l0 0 23 0 0 0c0,-5 -2,-8 -2,-11 -3,-2 -5,-2 -10,-2l0 0zm73 2l-5 0c-2,0 -5,0 -7,0 0,3 -3,3 -3,6l0 45 -18 0 0 -66 15 0 3 10c0,-5 3,-7 5,-10 3,0 5,-2 8,-2 2,0 2,0 2,0 3,0 3,0 3,0l-3 17zm36 23l0 3 2 0 13 -41 18 0 -26 76c-2,6 -5,8 -7,13 -5,3 -10,3 -15,3 -3,0 -3,0 -5,0 0,0 -3,0 -6,0l3 -13c0,0 3,0 3,0 0,0 0,0 0,0 5,0 5,0 7,-3 3,-2 3,-2 5,-5l0 -5 -23 -66 21 0 10 38 0 0zm91 13l41 0 0 15 -59 0 0 -89 18 0 0 74 0 0zm46 -18c0,-10 2,-20 8,-25 7,-8 15,-10 22,-10 11,0 18,2 26,10 5,5 7,15 7,25l0 0c0,10 -2,18 -7,26 -8,5 -15,7 -23,7 -10,0 -18,-2 -25,-7 -6,-8 -8,-16 -8,-26l0 0zm18 0c0,5 2,10 2,15 3,3 8,6 13,6 2,0 8,-3 10,-6 0,-5 3,-10 3,-15l0 0c0,-7 -3,-12 -3,-15 -2,-5 -8,-5 -13,-5 -2,0 -7,0 -10,5 0,3 -2,8 -2,15l0 0zm114 8l0 0 10 -41 15 0 -15 66 -15 0 -13 -40 0 0 -13 40 -15 0 -18 -66 18 0 8 41 0 0 13 -41 12 0 13 41 0 0zm86 -10l0 35 -17 0 0 -89 33 0c10,0 17,3 22,5 8,6 11,13 11,21 0,5 -3,7 -6,12 -2,3 -5,6 -10,8 5,3 10,5 13,8 3,2 3,7 3,12l0 8c0,3 0,5 0,8 2,2 2,5 5,5l0 2 -18 0c-3,-2 -5,-5 -5,-7 0,-3 0,-5 0,-8l0 -8c0,-2 0,-7 -3,-10 -2,-2 -7,-2 -12,-2l-16 0 0 0zm0 -16l16 0c5,0 7,0 10,-2 2,-3 5,-5 5,-10 0,-3 -3,-8 -5,-10 -3,0 -5,-3 -10,-3l-16 0 0 25 0 0zm82 51l-18 0 0 -66 18 0 0 66zm0 -84l-18 0 0 -12 18 0 0 12zm50 66c0,-2 0,-5 -2,-5 -3,-2 -5,-2 -10,-5 -8,0 -13,-2 -18,-7 -5,-3 -5,-8 -5,-13 0,-5 2,-10 7,-13 3,-5 11,-7 18,-7 8,0 15,2 20,7 6,3 8,8 8,13l0 3 -18 0c0,-3 0,-6 -2,-8 -3,-3 -5,-3 -8,-3 -2,0 -5,0 -7,3 0,0 -3,2 -3,5 0,3 3,3 3,5 2,0 7,3 12,3 8,2 13,5 18,7 3,3 5,8 5,13 0,8 -2,13 -8,15 -5,5 -12,5 -20,5 -7,0 -15,-2 -20,-5 -5,-5 -8,-10 -8,-15l0 0 18 0c0,2 0,5 3,8 2,0 5,2 7,2 5,0 8,-2 8,-2 2,-3 2,-3 2,-6zm54 -10l-5 0 0 28 -18 0 0 -96 18 0 0 53 5 0 15 -23 20 0 -23 31 26 35 -21 0 -17 -28 0 0z"/>
   <path class="fil7" d="M1610 99c-10,10 -15,23 -21,30 -2,11 -5,23 -7,36l0 10 -18 0 0 -10c3,-13 5,-25 10,-36 3,-10 10,-20 18,-30l-46 0 0 -13 64 0 0 13 0 0zm71 41c0,12 -3,20 -8,28 -5,5 -12,7 -23,7 -7,0 -15,-2 -22,-7 -6,-8 -8,-16 -8,-28l0 -21c0,-10 2,-20 8,-25 7,-8 12,-10 22,-10 11,0 18,2 23,10 5,5 8,15 8,25l0 21zm-18 -21c0,-7 0,-12 -2,-17 -3,-3 -6,-3 -11,-3 -2,0 -7,0 -7,3 -3,5 -5,10 -5,17l0 23c0,8 2,13 5,15 0,3 5,5 7,5 5,0 8,-2 11,-5 2,-2 2,-7 2,-15l0 -23zm97 23l-36 0 0 -13 36 0 0 13zm86 33l-18 0 0 -73 -18 0 0 -13 36 -3 0 89 0 0zm91 -35c0,12 -2,20 -7,28 -5,5 -13,7 -23,7 -8,0 -15,-2 -21,-7 -7,-8 -10,-16 -10,-28l0 -21c0,-10 3,-20 10,-25 6,-8 13,-10 21,-10 10,0 18,2 23,10 5,5 7,15 7,25l0 21zm-18 -21c0,-7 0,-12 -2,-17 -3,-3 -5,-3 -10,-3 -3,0 -8,0 -8,3 -2,5 -5,10 -5,17l0 23c0,8 3,13 5,15 0,3 5,5 8,5 5,0 7,-2 10,-5 2,-2 2,-7 2,-15l0 -23zm92 21c0,12 -3,20 -10,28 -5,5 -13,7 -21,7 -10,0 -17,-2 -22,-7 -6,-8 -8,-16 -8,-28l0 -21c0,-10 2,-20 8,-25 5,-8 12,-10 22,-10 8,0 16,2 21,10 7,5 10,15 10,25l0 21zm-18 -21c0,-7 -2,-12 -5,-17 -2,-3 -5,-3 -8,-3 -5,0 -7,0 -10,3 -2,5 -2,10 -2,17l0 23c0,8 0,13 2,15 3,3 5,5 10,5 3,0 8,-2 8,-5 3,-2 5,-7 5,-15l0 -23z"/>
   <path class="fil7" d="M122 447l38 0 0 15 -56 0 0 -91 18 0 0 76 0 0zm46 -20c0,-11 2,-18 7,-23 5,-8 13,-10 23,-10 10,0 18,2 23,10 5,5 10,12 10,23l0 2c0,10 -5,18 -10,23 -5,8 -13,10 -23,10 -10,0 -18,-2 -23,-10 -5,-5 -7,-13 -7,-23l0 -2zm17 2c0,5 0,10 3,13 2,5 5,7 10,7 5,0 8,-2 10,-7 3,-3 3,-8 3,-13l0 -2c0,-6 0,-11 -3,-16 -2,-2 -5,-5 -10,-5 -5,0 -8,3 -10,5 -3,5 -3,10 -3,16l0 2zm115 8l0 0 7 -43 18 0 -18 68 -15 0 -13 -41 0 0 -12 41 -13 0 -18 -68 18 0 8 43 0 0 12 -43 13 0 13 43 0 0zm83 -13l0 38 -17 0 0 -91 35 0c10,0 18,2 23,7 5,5 10,10 10,21 0,2 -2,7 -5,10 -2,5 -5,7 -10,10 5,0 8,2 10,8 3,2 5,7 5,12l0 8c0,2 0,5 0,7 0,3 3,3 5,6l0 2 -20 0c0,-2 -3,-5 -3,-8 0,-2 0,-5 0,-10l0 -5c0,-5 -2,-7 -5,-10 -2,-2 -5,-5 -10,-5l-18 0 0 0zm0 -13l18 0c5,0 8,0 10,-2 3,-3 3,-5 3,-10 0,-5 0,-8 -3,-11 -2,-2 -5,-2 -10,-2l-18 0 0 25 0 0zm84 51l-18 0 0 -68 18 0 0 68zm0 -84l-18 0 0 -12 18 0 0 12zm51 64c0,0 0,-3 -3,-5 -2,0 -5,-3 -10,-3 -7,-2 -15,-5 -18,-7 -5,-3 -7,-8 -7,-13 0,-5 2,-10 7,-15 6,-3 13,-5 21,-5 7,0 15,2 20,5 5,5 8,10 8,15l0 0 -18 0c0,-3 -3,-5 -3,-5 -2,-3 -5,-3 -7,-3 -3,0 -5,0 -8,3 -2,0 -2,2 -2,5 0,0 0,2 2,5 3,0 5,2 10,2 10,3 16,6 21,8 2,3 5,8 5,13 0,5 -3,10 -8,15 -5,3 -13,5 -20,5 -10,0 -15,-2 -21,-8 -5,-2 -7,-7 -7,-15l0 0 15 0c0,5 3,8 5,8 0,2 5,2 8,2 2,0 5,0 7,-2 3,0 3,-3 3,-5zm51 -8l-3 0 0 28 -20 0 0 -96 20 0 0 53 3 0 15 -25 23 0 -23 30 25 38 -20 0 -20 -28 0 0z"/>
   <path class="fil7" d="M1549 419l5 -51 48 0 0 15 -35 0 0 21c0,0 2,-3 5,-3 2,0 5,-2 7,-2 8,0 15,2 21,7 5,5 7,13 7,23 0,10 -2,15 -7,23 -8,5 -13,8 -23,8 -10,0 -16,-3 -23,-8 -5,-3 -8,-10 -8,-18l0 0 18 0c0,3 0,5 3,8 2,2 5,5 10,5 2,0 7,-3 7,-5 3,-3 5,-8 5,-13 0,-5 -2,-8 -5,-13 -2,-2 -5,-5 -7,-5 -5,0 -8,3 -10,3 0,2 -3,2 -3,5l-15 0 0 0zm129 5c0,10 -2,20 -7,25 -5,8 -13,11 -23,11 -10,0 -15,-3 -23,-11 -5,-5 -8,-15 -8,-25l0 -20c0,-13 3,-21 8,-28 5,-5 13,-8 23,-8 10,0 18,3 23,8 5,7 7,15 7,28l0 20zm-17 -23c0,-7 0,-13 -3,-15 -3,-3 -5,-5 -10,-5 -5,0 -8,2 -10,5 0,2 -3,8 -3,15l0 23c0,8 3,13 3,18 2,2 5,5 10,5 5,0 7,-3 10,-5 3,-5 3,-10 3,-18l0 -23zm96 26l-36 0 0 -13 36 0 0 13zm107 -44c-11,11 -18,21 -21,31 -2,10 -5,20 -7,35l0 8 -18 0 0 -8c2,-12 5,-25 10,-35 3,-13 10,-23 18,-31l-46 0 0 -15 64 0 0 15 0 0zm71 41c0,10 -3,20 -8,25 -5,8 -13,11 -23,11 -10,0 -15,-3 -23,-11 -5,-5 -7,-15 -7,-25l0 -20c0,-13 2,-21 7,-28 8,-5 13,-8 23,-8 10,0 18,3 23,8 5,7 8,15 8,28l0 20zm-18 -23c0,-7 0,-13 -3,-15 -2,-3 -5,-5 -10,-5 -2,0 -7,2 -10,5 0,2 -2,8 -2,15l0 23c0,8 2,13 2,18 3,2 8,5 10,5 5,0 8,-3 10,-5 3,-5 3,-10 3,-18l0 -23z"/>
   <path class="fil7" d="M127 655l23 66 0 0 23 -66 22 0 0 89 -17 0 0 -25 2 -41 0 0 -25 66 -10 0 -26 -66 0 0 3 41 0 25 -18 0 0 -89 23 0zm81 56c0,-10 3,-18 10,-25 5,-6 13,-8 23,-8 8,0 18,2 23,8 5,7 8,15 8,25l0 0c0,10 -3,20 -8,25 -5,5 -15,10 -23,10 -10,0 -18,-5 -23,-10 -7,-5 -10,-15 -10,-25l0 0zm18 0c0,8 2,13 5,15 0,5 5,5 10,5 3,0 8,0 10,-5 3,-2 3,-7 3,-15l0 0c0,-5 -3,-10 -3,-15 -2,-3 -7,-5 -10,-5 -5,0 -10,2 -10,5 -3,5 -5,10 -5,15l0 0zm53 0c0,-10 3,-18 8,-25 5,-6 10,-8 18,-8 5,0 7,0 10,0 2,2 5,5 7,8l0 -39 18 0 0 97 -15 0 -3 -8c-2,3 -5,5 -7,8 -3,0 -5,2 -10,2 -8,0 -13,-2 -18,-10 -5,-5 -8,-12 -8,-23l0 -2 0 0zm18 2c0,6 3,11 3,13 2,5 7,5 10,5 2,0 5,0 7,0 3,-2 3,-2 5,-5l0 -28c-2,-2 -2,-5 -5,-5 -2,-2 -5,-2 -7,-2 -3,0 -8,2 -8,5 -2,5 -5,10 -5,15l0 2zm86 33c-10,0 -17,-5 -22,-10 -6,-5 -8,-12 -8,-23l0 -2c0,-10 2,-18 8,-25 5,-6 12,-11 20,-8 10,0 18,2 23,8 5,5 7,12 7,20l0 10 -40 0 0 0c0,5 2,8 5,13 2,2 5,2 10,2 2,0 8,0 10,0 3,-2 5,-2 8,-5l5 13c-3,2 -8,2 -10,5 -5,0 -11,2 -16,2l0 0zm-2 -55c-3,0 -5,0 -8,2 -2,3 -2,8 -2,10l0 3 23 0 0 -3c0,-5 -3,-7 -3,-10 -3,-2 -5,-2 -10,-2l0 0zm73 2l-5 0c-2,0 -5,0 -7,3 0,0 -3,2 -3,5l0 43 -18 0 0 -66 16 0 2 10c0,-2 3,-8 5,-8 3,-2 5,-2 8,-2 2,0 2,0 2,0 3,0 3,0 3,0l-3 15zm49 51c0,0 0,-3 0,-5 0,0 -3,-3 -3,-5 0,5 -2,7 -7,7 -3,3 -6,5 -11,5 -7,0 -12,-2 -15,-5 -5,-5 -5,-10 -5,-15 0,-7 3,-13 8,-15 5,-5 10,-5 20,-5l10 0 0 -5c0,-5 0,-8 -2,-8 0,-2 -3,-2 -8,-2 -3,0 -5,0 -5,2 -3,0 -3,3 -3,5l-17 0 0 0c0,-7 2,-10 7,-15 5,-5 10,-5 21,-5 7,0 12,0 17,5 5,3 8,10 8,18l0 28c0,2 0,5 2,7 0,3 0,5 0,8l-17 0 0 0zm-16 -13c3,0 6,0 8,0 3,-2 5,-5 5,-7l0 -8 -10 0c-3,0 -5,0 -8,3 -2,2 -2,5 -2,7 0,0 0,3 2,5 0,0 3,0 5,0zm66 -68l0 15 11 0 0 13 -11 0 0 33c0,2 0,5 3,5 0,2 3,2 3,2 2,0 2,0 2,0 3,0 3,0 3,0l2 13c-2,0 -5,0 -5,2 -2,0 -5,0 -5,0 -8,0 -13,-2 -15,-5 -3,-5 -5,-10 -5,-17l0 -33 -10 0 0 -13 10 0 0 -15 17 0 0 0zm54 83c-10,0 -18,-5 -23,-10 -8,-5 -10,-12 -10,-23l0 -2c0,-10 2,-18 7,-25 8,-6 13,-11 23,-8 10,0 16,2 21,8 5,5 7,12 7,20l0 10 -40 0 0 0c2,5 2,8 5,13 2,2 7,2 10,2 5,0 7,0 10,0 3,-2 5,-2 10,-5l5 13c-5,2 -7,2 -12,5 -3,0 -8,2 -13,2l0 0zm-3 -55c-2,0 -5,0 -7,2 -3,3 -3,8 -5,10l2 3 20 0 0 -3c0,-5 0,-7 -2,-10 -3,-2 -5,-2 -8,-2l0 0zm89 17l0 36 -18 0 0 -89 36 0c10,0 18,3 23,8 5,5 7,10 7,17 0,6 0,11 -2,13 -3,3 -5,5 -10,8 5,2 7,5 10,7 2,5 5,11 5,16l0 5c0,2 0,5 0,7 0,3 2,5 2,8l0 0 -17 0c-3,0 -3,-3 -3,-5 0,-5 0,-8 0,-10l0 -5c0,-5 -2,-8 -5,-11 -2,-2 -5,-5 -10,-5l-18 0 0 0zm0 -12l15 0c5,0 11,-3 13,-5 3,0 3,-5 3,-8 0,-5 0,-8 -3,-10 -2,-3 -8,-5 -10,-5l-18 0 0 28 0 0zm84 48l-18 0 0 -66 18 0 0 66zm0 -81l-18 0 0 -16 18 0 0 16zm51 63c0,-2 -3,-2 -3,-5 -2,-2 -5,-2 -10,-5 -10,0 -15,-3 -18,-5 -5,-5 -7,-8 -7,-13 0,-7 2,-12 7,-15 5,-5 10,-5 21,-5 7,0 15,0 20,5 5,3 7,8 5,15l0 0 -15 0c0,-2 -3,-5 -3,-7 -2,0 -5,-3 -7,-3 -6,0 -6,3 -8,3 -3,2 -3,2 -3,5 0,2 0,5 3,5 2,2 5,2 10,5 8,0 15,2 18,7 5,3 7,6 7,13 0,5 -2,10 -7,13 -5,5 -13,7 -20,7 -11,0 -18,-2 -23,-7 -5,-5 -8,-10 -5,-15l0 0 15 0c0,2 2,5 2,7 3,3 5,3 11,3 2,0 5,0 7,-3 3,0 3,-2 3,-5l0 0zm50 -10l-5 0 0 28 -17 0 0 -97 17 0 0 56 5 0 16 -25 20 0 -20 30 25 36 -20 0 -21 -28 0 0z"/>
   <path class="fil7" d="M175 1028l-18 0 0 -38 -35 0 0 38 -18 0 0 -89 18 0 0 39 35 0 0 -39 18 0 0 89zm36 0l-18 0 0 -66 18 0 0 66zm0 -83l-18 0 0 -13 18 0 0 13zm10 50c0,-10 2,-17 8,-25 5,-8 10,-10 20,-10 2,0 5,2 10,2 3,3 5,5 5,8l3 -8 15 0 0 66c0,8 -3,16 -8,21 -7,5 -15,5 -25,5 -3,0 -5,0 -10,0 -3,0 -8,-3 -11,-5l3 -13c3,2 5,2 10,2 3,3 5,3 8,3 5,0 10,-3 13,-3 0,-2 2,-7 2,-10l0 -7c-2,2 -5,5 -8,7 -2,0 -5,0 -7,0 -10,0 -15,-2 -20,-7 -6,-8 -8,-16 -8,-23l0 -3 0 0zm18 3c0,5 2,10 5,13 0,2 5,5 7,5 3,0 5,0 8,-3 3,0 3,-2 5,-2l0 -31c-2,-2 -2,-2 -5,-5 -3,0 -5,0 -8,0 -2,0 -7,0 -7,5 -3,5 -5,10 -5,15l0 3zm73 -28c3,-3 5,-5 8,-8 5,0 8,-2 10,-2 8,0 13,2 18,7 2,5 5,13 5,21l0 40 -18 0 0 -40c0,-5 0,-8 -2,-10 -3,-3 -5,-3 -8,-3 -3,0 -5,0 -8,0 -2,3 -2,3 -5,5l0 48 -17 0 0 -96 17 0 0 38zm104 23l0 35 -17 0 0 -89 35 0c10,0 18,3 23,6 5,5 10,12 10,20 0,5 -2,7 -5,13 -2,2 -5,5 -10,7 5,3 10,5 10,8 3,2 5,7 5,12l0 8c0,3 0,5 0,8 0,2 3,5 5,5l0 2 -20 0c0,-2 -3,-2 -3,-7 0,-3 0,-5 0,-8l0 -8c0,-2 -2,-7 -5,-10 -2,-2 -5,-2 -10,-2l-18 0 0 0zm0 -15l18 0c5,0 8,0 10,-3 3,-3 3,-5 3,-10 0,-3 0,-8 -3,-8 -2,-2 -5,-5 -10,-5l-18 0 0 26 0 0zm84 50l-18 0 0 -66 18 0 0 66zm0 -83l-18 0 0 -13 18 0 0 13zm51 66c0,-3 0,-6 -3,-6 -2,-2 -5,-2 -10,-5 -7,0 -15,-2 -18,-7 -5,-3 -7,-8 -7,-13 0,-5 2,-10 7,-13 6,-5 13,-7 21,-7 7,0 15,2 20,7 5,3 8,8 8,13l0 3 -18 0c0,-3 -3,-5 -3,-8 -2,-3 -5,-3 -7,-3 -3,0 -5,0 -8,3 -2,0 -2,3 -2,5 0,3 0,3 2,5 3,3 5,3 10,3 10,2 16,5 21,7 2,3 5,8 5,13 0,8 -3,13 -8,15 -5,5 -13,5 -20,5 -10,0 -15,0 -21,-5 -5,-5 -7,-10 -7,-15l0 0 15 0c0,3 3,5 5,8 0,0 5,2 8,2 2,0 5,-2 7,-2 3,-3 3,-3 3,-5zm51 -11l-3 0 0 28 -20 0 0 -96 20 0 0 56 3 0 15 -26 23 0 -23 31 25 35 -20 0 -20 -28 0 0z"/>
   <path class="fil7" d="M1567 691l10 0c5,0 7,-3 10,-5 0,-3 2,-6 2,-8 0,-5 -2,-8 -2,-10 -3,-3 -5,-3 -10,-3 -3,0 -5,0 -8,3 -2,2 -5,5 -5,7l-15 0 -3 0c0,-7 3,-12 10,-17 5,-5 13,-8 21,-8 10,0 15,3 23,8 5,5 7,10 7,17 0,5 -2,8 -5,13 -2,3 -5,5 -10,8 5,2 10,5 13,7 2,5 2,8 2,13 0,10 -2,15 -7,20 -6,5 -13,8 -23,8 -8,0 -16,-3 -23,-8 -5,-5 -8,-10 -8,-17l0 0 18 0c0,2 0,5 3,7 2,3 7,3 10,3 5,0 7,0 10,-3 2,-2 2,-5 2,-10 0,-5 0,-8 -2,-10 -3,-3 -5,-3 -10,-3l-10 0 0 -12zm114 15c0,13 -3,23 -8,28 -5,5 -12,10 -23,10 -10,0 -17,-5 -22,-10 -6,-5 -8,-15 -8,-28l0 -18c0,-13 2,-23 8,-28 5,-5 12,-10 22,-10 11,0 18,5 23,10 5,5 8,15 8,28l0 18zm-18 -20c0,-8 0,-13 -2,-16 -3,-2 -6,-5 -11,-5 -5,0 -7,3 -10,5 0,3 -2,8 -2,16l0 22c0,8 2,13 2,16 3,5 5,5 10,5 5,0 8,0 11,-5 2,-3 2,-8 2,-16l0 -22zm97 25l-36 0 0 -15 36 0 0 15zm48 -8l5 -50 48 0 0 15 -33 0 -2 20c0,-2 2,-2 5,-2 2,-3 5,-3 7,-3 8,0 15,3 21,8 5,5 7,12 7,22 0,8 -2,16 -7,21 -6,7 -13,10 -23,10 -10,0 -16,-3 -23,-8 -5,-5 -8,-10 -8,-17l0 0 18 -3c0,5 0,8 3,10 2,3 5,3 10,3 2,0 7,0 7,-5 3,-3 5,-5 5,-11 0,-5 -2,-10 -5,-12 -2,-3 -5,-5 -7,-5 -5,0 -8,0 -10,2 0,0 -3,3 -3,5l-15 0 0 0zm129 3c0,13 -2,23 -7,28 -5,5 -13,10 -23,10 -10,0 -15,-5 -23,-10 -5,-5 -8,-15 -8,-28l0 -18c0,-13 3,-23 8,-28 8,-5 13,-10 23,-10 10,0 18,5 23,10 5,5 7,15 7,28l0 18zm-18 -20c0,-8 0,-13 -2,-16 -3,-2 -5,-5 -10,-5 -5,0 -8,3 -10,5 0,3 -3,8 -3,16l0 22c0,8 3,13 3,16 2,5 7,5 10,5 5,0 7,0 10,-5 2,-3 2,-8 2,-16l0 -22z"/>
   <path class="fil7" d="M1610 1026l-61 0 0 -13 28 -30c5,-5 7,-8 10,-13 0,-3 2,-5 2,-8 0,-5 -2,-7 -2,-10 -3,-2 -5,-2 -10,-2 -5,0 -8,0 -10,2 0,3 -3,8 -3,13l-18 0 0 0c0,-10 3,-15 8,-23 5,-5 13,-8 23,-8 10,0 17,3 23,8 5,5 7,10 7,20 0,5 -2,10 -5,13 -2,5 -8,13 -15,18l-15 18 0 0 38 0 0 15 0 0zm71 -36c0,13 -3,21 -8,28 -5,5 -12,8 -23,8 -10,0 -17,-3 -22,-8 -6,-7 -8,-15 -8,-28l0 -20c0,-10 2,-20 8,-25 5,-8 12,-11 22,-11 11,0 18,3 23,11 5,5 8,15 8,25l0 20zm-18 -20c0,-8 0,-13 -2,-15 -3,-5 -6,-5 -11,-5 -5,0 -7,0 -10,5 0,2 -2,7 -2,15l0 23c0,7 2,12 2,15 3,3 5,5 10,5 5,0 8,-2 11,-5 2,-3 2,-8 2,-15l0 -23zm97 25l-36 0 0 -15 36 0 0 15zm63 -23l10 0c5,0 8,0 10,-2 0,-3 3,-5 3,-10 0,-3 -3,-5 -3,-8 -2,-2 -5,-2 -10,-2 -2,0 -5,0 -7,2 -3,3 -6,5 -6,8l-15 0 0 0c-2,-8 0,-13 8,-18 5,-5 13,-8 20,-8 10,0 15,3 23,8 5,3 8,10 8,18 0,5 -3,7 -5,12 0,3 -6,6 -11,8 5,0 11,5 13,8 3,2 3,7 3,12 0,8 -3,16 -8,21 -5,2 -13,5 -23,5 -7,0 -15,0 -23,-5 -5,-5 -7,-10 -7,-21l0 0 17 0c0,5 0,8 3,11 3,0 8,2 10,2 5,0 8,-2 10,-2 3,-3 3,-8 3,-11 0,-5 0,-7 -3,-10 -2,-2 -5,-2 -10,-2l-10 0 0 -16 0 0zm114 18c0,13 -2,21 -7,28 -5,5 -13,8 -23,8 -10,0 -15,-3 -23,-8 -5,-7 -8,-15 -8,-28l0 -20c0,-10 3,-20 8,-25 8,-8 13,-11 23,-11 10,0 18,3 23,11 5,5 7,15 7,25l0 20zm-18 -20c0,-8 0,-13 -2,-15 -3,-5 -5,-5 -10,-5 -5,0 -8,0 -10,5 0,2 -3,7 -3,15l0 23c0,7 3,12 3,15 2,3 7,5 10,5 5,0 7,-2 10,-5 2,-3 2,-8 2,-15l0 -23z"/>
   <path class="fil7" d="M135 1290l0 5 0 0 2 -5 18 -66 20 0 -30 91 -21 0 -28 -91 18 0 21 66 0 0zm73 25c-10,0 -18,-2 -23,-10 -5,-5 -7,-13 -7,-23l0 -2c0,-11 2,-18 7,-23 5,-8 13,-10 21,-10 10,0 17,2 22,7 6,5 8,13 8,23l0 10 -41 0 0 0c0,3 3,8 6,10 2,3 5,6 10,6 2,0 7,-3 10,-3 2,0 5,-3 8,-3l5 11c-3,2 -8,5 -11,5 -5,2 -10,2 -15,2l0 0zm-2 -56c-3,0 -5,3 -8,5 -3,3 -3,6 -3,11l0 0 23 0 0 -3c0,-2 -2,-5 -2,-8 -3,-2 -5,-5 -10,-5l0 0zm73 3l-5 0c-2,0 -5,2 -7,2 0,0 -3,3 -3,6l0 45 -18 0 0 -68 15 0 3 10c0,-3 3,-5 5,-8 3,-2 5,-2 8,-2 2,0 2,0 2,0 3,0 3,0 3,0l-3 15zm36 25l0 3 2 0 13 -43 18 0 -26 76c-2,5 -5,10 -7,13 -5,5 -10,5 -15,5 -3,0 -3,0 -5,0 0,0 -3,0 -6,0l3 -16c0,0 3,3 3,3 0,0 0,0 0,0 5,0 5,-3 7,-3 3,-2 3,-5 5,-5l0 -5 -23 -68 21 0 10 40 0 0zm145 28l-18 0 0 -38 -36 0 0 38 -18 0 0 -91 18 0 0 38 36 0 0 -38 18 0 0 91zm35 0l-18 0 0 -68 18 0 0 68zm0 -84l-18 0 0 -12 18 0 0 12zm13 51c0,-10 2,-20 5,-25 5,-8 13,-10 20,-10 3,0 8,0 10,2 3,3 5,3 8,8l0 -10 15 0 0 66c0,10 -2,15 -7,20 -6,5 -13,8 -23,8 -5,0 -8,0 -13,0 -3,-3 -5,-3 -10,-5l5 -13c2,0 5,2 8,2 2,0 5,0 10,0 5,0 7,0 10,-2 2,-3 2,-5 2,-10l0 -5c-2,2 -2,5 -5,5 -5,2 -7,2 -10,2 -7,0 -15,-2 -20,-7 -3,-8 -5,-16 -5,-26l0 0 0 0zm18 0c0,5 0,10 2,15 3,3 5,6 10,6 3,0 5,-3 5,-3 3,0 5,-3 5,-5l0 -28c0,-3 -2,-5 -5,-5 0,0 -2,-3 -5,-3 -5,0 -7,3 -10,8 -2,3 -2,8 -2,15l0 0 0 0zm73 -25c3,-5 5,-5 8,-8 2,-2 5,-2 10,-2 5,0 13,2 15,7 5,3 5,10 5,21l0 40 -17 0 0 -40c0,-5 0,-11 -3,-11 0,-2 -3,-5 -8,-5 -2,0 -5,3 -5,3 -2,0 -5,2 -5,2l0 51 -18 0 0 -96 18 0 0 38zm104 20l0 38 -17 0 0 -91 33 0c10,0 17,2 22,7 8,6 11,11 11,21 0,5 -3,7 -6,10 -2,5 -5,8 -10,10 5,0 10,3 13,8 3,2 3,7 3,12l0 8c0,3 0,5 2,8 0,2 0,5 3,5l0 2 -18 0c-3,-2 -3,-5 -5,-7 0,-3 0,-5 0,-8l0 -8c0,-5 0,-7 -3,-10 -2,-2 -7,-5 -10,-5l-18 0 0 0zm0 -13l16 0c5,0 7,0 10,-2 2,-3 5,-5 5,-10 0,-5 -3,-8 -5,-10 -3,-3 -5,-3 -10,-3l-16 0 0 25 0 0zm82 51l-18 0 0 -68 18 0 0 68zm0 -84l-18 0 0 -12 18 0 0 12zm50 64c0,0 0,-3 -2,-5 0,0 -5,-3 -10,-3 -8,-2 -13,-5 -18,-7 -5,-3 -5,-8 -5,-13 0,-5 2,-10 7,-15 3,-3 11,-5 18,-5 10,0 15,2 20,5 6,5 8,10 8,15l0 0 -18 0c0,-3 0,-5 -2,-5 -3,-3 -5,-3 -8,-3 -2,0 -5,0 -7,3 0,0 -3,2 -3,5 0,0 3,2 5,5 0,0 5,3 10,3 8,2 13,5 18,7 3,3 5,8 5,13 0,5 -2,10 -8,15 -5,3 -10,5 -20,5 -7,0 -15,-2 -20,-7 -5,-3 -8,-8 -8,-16l0 0 18 0c0,5 0,8 3,8 2,3 5,3 7,3 5,0 8,0 8,-3 2,0 2,-3 2,-5zm54 -8l-5 0 0 28 -18 0 0 -96 18 0 0 53 5 0 15 -25 20 0 -20 30 23 38 -21 0 -17 -28 0 0z"/>
   <path class="fil7" d="M1607 1275c0,10 -2,20 -7,25 -6,8 -13,10 -23,10 -10,0 -18,-2 -23,-10 -5,-5 -8,-15 -8,-25l0 -21c0,-12 3,-20 8,-28 5,-5 13,-7 23,-7 10,0 17,2 23,7 5,8 7,16 7,28l0 21zm-18 -23c0,-5 0,-13 -2,-15 -3,-3 -5,-6 -10,-6 -5,0 -8,3 -10,6 0,2 -3,7 -3,15l0 23c0,7 3,12 3,17 2,3 5,5 10,5 5,0 7,-2 10,-5 2,-5 2,-10 2,-17l0 -23zm97 25l-36 0 0 -13 36 0 0 13zm107 33l-61 0 0 -13 28 -30c5,-5 7,-10 10,-13 0,-2 2,-7 2,-10 0,-2 -2,-5 -2,-8 -3,-2 -5,-5 -10,-5 -3,0 -8,3 -11,5 0,3 -2,6 -2,11l-18 0 0 0c0,-8 3,-16 8,-21 7,-5 12,-7 23,-7 10,0 17,2 22,7 5,3 8,10 8,18 0,5 -3,10 -5,15 -3,5 -8,10 -15,18l-16 18 0 0 39 0 0 15 0 0zm71 -35c0,10 -3,20 -8,25 -5,8 -13,10 -23,10 -10,0 -15,-2 -23,-10 -5,-5 -7,-15 -7,-25l0 -21c0,-12 2,-20 7,-28 5,-5 13,-7 23,-7 10,0 18,2 23,7 5,8 8,16 8,28l0 21zm-18 -23c0,-5 0,-13 -3,-15 -2,-3 -5,-6 -10,-6 -5,0 -7,3 -10,6 0,2 -3,7 -3,15l0 23c0,7 3,12 3,17 3,3 8,5 10,5 5,0 8,-2 10,-5 3,-5 3,-10 3,-17l0 -23z"/>
   <path class="fil1" d="M1174 465l0 -102 35 0c6,0 12,0 17,2 5,1 9,3 12,5 3,3 5,5 6,9 2,3 2,7 2,11 0,2 0,5 -1,7 0,2 -1,4 -3,6 -1,2 -3,4 -6,5 -2,2 -5,3 -8,4 14,3 21,11 21,23 0,4 -1,8 -2,12 -2,4 -4,7 -7,9 -4,3 -7,5 -12,7 -5,1 -10,2 -16,2l-38 0zm19 -45l0 30 19 0c3,0 6,0 9,-1 2,-1 4,-2 5,-4 2,-1 3,-3 4,-5 0,-1 0,-3 0,-6 0,-2 0,-4 -1,-6 0,-1 -1,-3 -3,-4 -1,-1 -3,-2 -6,-3 -2,-1 -5,-1 -8,-1l-19 0zm0 -13l15 0c6,0 11,-1 14,-4 4,-2 5,-6 5,-11 0,-5 -1,-9 -4,-11 -3,-2 -8,-3 -14,-3l-16 0 0 29z"/>
   <path class="fil1" d="M1244 724c1,0 2,0 3,1l7 8c-4,5 -9,9 -15,12 -6,3 -13,4 -22,4 -7,0 -14,-1 -20,-4 -6,-2 -11,-6 -16,-11 -4,-4 -7,-10 -10,-16 -2,-6 -3,-13 -3,-21 0,-8 1,-15 4,-21 2,-6 6,-12 11,-17 4,-4 10,-8 16,-10 7,-3 14,-4 21,-4 8,0 15,1 20,3 6,3 11,6 15,10l-7 9c0,1 0,1 -1,1 -1,1 -1,1 -2,1 -1,0 -3,0 -4,-1 -1,-1 -2,-2 -4,-3 -2,-1 -4,-2 -7,-3 -2,-1 -6,-1 -10,-1 -5,0 -9,1 -13,3 -4,1 -7,4 -10,7 -3,3 -5,7 -7,11 -2,4 -3,9 -3,15 0,6 1,11 3,15 2,5 4,8 6,12 3,3 7,5 10,7 4,1 8,2 12,2 3,0 5,0 7,0 3,-1 4,-1 6,-2 2,0 4,-1 5,-2 2,-1 3,-2 5,-4 0,0 1,0 1,-1 1,0 1,0 2,0z"/>
   <path class="fil1" d="M1265 980c0,8 -2,14 -4,21 -3,6 -6,11 -11,16 -4,4 -10,8 -16,10 -6,3 -13,4 -21,4l-39 0 0 -102 39 0c8,0 15,1 21,4 6,2 12,6 16,10 5,5 8,10 11,16 2,7 4,14 4,21zm-20 0c0,-6 -1,-11 -2,-15 -2,-4 -4,-8 -7,-11 -2,-3 -6,-6 -10,-7 -4,-2 -8,-3 -13,-3l-20 0 0 72 20 0c5,0 9,-1 13,-3 4,-1 8,-4 10,-7 3,-3 5,-6 7,-11 1,-4 2,-9 2,-15z"/>
   <polygon class="fil1" points="1238,1213 1238,1229 1193,1229 1193,1257 1229,1257 1229,1271 1193,1271 1193,1300 1238,1300 1238,1315 1174,1315 1174,1213 "/>
  </g>
 </g>
</svg>
