<svg xmlns="http://www.w3.org/2000/svg" viewBox="0 0 50.47 68.51">
    <defs>
        <style>
            .cls-1 {
                fill: #ff0a71;
            }

            .cls-1,
            .cls-2 {
                fill-rule: evenodd;
            }

            .cls-2 {
                fill: #fff;
            }
        </style>
    </defs>
    <g>
        <path class="cls-1" d="M25.17,68.51c-51.53-31.83-9.54-58,0-39.05C35.65,10.87,76.43,36.5,25.17,68.51Z" />
        <path class="cls-1" d="M16.29,18.87l-4.54.28V9.69c0-1.62,1.62-5,4.79-7.2v0a13.65,13.65,0,0,1,8-2.52,14.65,14.65,0,0,1,8.32,2.41C36.39,4.76,38,8.43,38,9.69v9.46l-4.54-.28V9.69c0-.47-1-2.09-3.09-3.53A10.45,10.45,0,0,0,24.54,4.5a9.14,9.14,0,0,0-5.4,1.7h0C17.26,7.53,16.29,9,16.29,9.69Z" />
        <path class="cls-2" d="M30.23,54.68,27.1,44.23a3.93,3.93,0,1,0-3.73,0L20.24,54.68Z" />
    </g>
</svg>