<svg xmlns="http://www.w3.org/2000/svg" xmlns:xlink="http://www.w3.org/1999/xlink" width="1960" zoomAndPan="magnify" viewBox="0 0 1470 193.499995" height="258" preserveAspectRatio="xMidYMid meet" version="1.0"><defs><g/><clipPath id="642dd4bec1"><path d="M 1.894531 0 L 1468.105469 0 L 1468.105469 192.894531 L 1.894531 192.894531 Z M 1.894531 0 " clip-rule="nonzero"/></clipPath><clipPath id="bee0dc25b0"><path d="M 99.144531 145.882812 L 288.988281 145.882812 L 288.988281 149.625 L 99.144531 149.625 Z M 99.144531 145.882812 " clip-rule="nonzero"/></clipPath></defs><g clip-path="url(#642dd4bec1)"><path fill="#287ead" d="M 1.894531 0 L 1468.1875 0 L 1468.1875 192.894531 L 1.894531 192.894531 Z M 1.894531 0 " fill-opacity="1" fill-rule="nonzero"/></g><g clip-path="url(#bee0dc25b0)"><path fill="#ffffff" d="M 99.144531 145.882812 L 288.996094 145.882812 L 288.996094 149.625 L 99.144531 149.625 Z M 99.144531 145.882812 " fill-opacity="1" fill-rule="nonzero"/></g><g fill="#ffffff" fill-opacity="1"><g transform="translate(99.143055, 117.91237)"><g><path d="M 37.109375 -19.890625 L 37.109375 -3.84375 C 35.097656 -2.363281 32.953125 -1.28125 30.671875 -0.59375 C 28.398438 0.09375 25.96875 0.4375 23.375 0.4375 C 20.132812 0.4375 17.203125 -0.0625 14.578125 -1.0625 C 11.953125 -2.070312 9.710938 -3.472656 7.859375 -5.265625 C 6.003906 -7.054688 4.570312 -9.195312 3.5625 -11.6875 C 2.5625 -14.175781 2.0625 -16.890625 2.0625 -19.828125 C 2.0625 -22.804688 2.546875 -25.539062 3.515625 -28.03125 C 4.484375 -30.519531 5.859375 -32.660156 7.640625 -34.453125 C 9.421875 -36.242188 11.582031 -37.632812 14.125 -38.625 C 16.664062 -39.613281 19.519531 -40.109375 22.6875 -40.109375 C 24.289062 -40.109375 25.789062 -39.976562 27.1875 -39.71875 C 28.59375 -39.457031 29.894531 -39.101562 31.09375 -38.65625 C 32.289062 -38.207031 33.378906 -37.660156 34.359375 -37.015625 C 35.347656 -36.378906 36.253906 -35.679688 37.078125 -34.921875 L 34.96875 -31.578125 C 34.644531 -31.046875 34.21875 -30.71875 33.6875 -30.59375 C 33.15625 -30.476562 32.578125 -30.613281 31.953125 -31 C 31.347656 -31.34375 30.742188 -31.6875 30.140625 -32.03125 C 29.535156 -32.382812 28.863281 -32.6875 28.125 -32.9375 C 27.382812 -33.195312 26.550781 -33.410156 25.625 -33.578125 C 24.707031 -33.742188 23.644531 -33.828125 22.4375 -33.828125 C 20.476562 -33.828125 18.707031 -33.492188 17.125 -32.828125 C 15.539062 -32.171875 14.191406 -31.226562 13.078125 -30 C 11.960938 -28.78125 11.101562 -27.3125 10.5 -25.59375 C 9.894531 -23.875 9.59375 -21.953125 9.59375 -19.828125 C 9.59375 -17.566406 9.914062 -15.539062 10.5625 -13.75 C 11.21875 -11.96875 12.132812 -10.457031 13.3125 -9.21875 C 14.5 -7.988281 15.921875 -7.050781 17.578125 -6.40625 C 19.242188 -5.757812 21.101562 -5.4375 23.15625 -5.4375 C 24.613281 -5.4375 25.914062 -5.585938 27.0625 -5.890625 C 28.21875 -6.203125 29.347656 -6.625 30.453125 -7.15625 L 30.453125 -14.34375 L 25.453125 -14.34375 C 24.972656 -14.34375 24.601562 -14.472656 24.34375 -14.734375 C 24.082031 -15.003906 23.953125 -15.332031 23.953125 -15.71875 L 23.953125 -19.890625 Z M 37.109375 -19.890625 "/></g></g></g><g fill="#ffffff" fill-opacity="1"><g transform="translate(138.967256, 117.91237)"><g><path d="M 21.484375 -17.3125 C 21.484375 -18.1875 21.359375 -19.007812 21.109375 -19.78125 C 20.859375 -20.5625 20.484375 -21.242188 19.984375 -21.828125 C 19.492188 -22.421875 18.867188 -22.882812 18.109375 -23.21875 C 17.359375 -23.5625 16.476562 -23.734375 15.46875 -23.734375 C 13.507812 -23.734375 11.96875 -23.171875 10.84375 -22.046875 C 9.71875 -20.929688 9 -19.351562 8.6875 -17.3125 Z M 8.5625 -13.21875 C 8.664062 -11.769531 8.914062 -10.519531 9.3125 -9.46875 C 9.71875 -8.425781 10.25 -7.5625 10.90625 -6.875 C 11.570312 -6.1875 12.359375 -5.671875 13.265625 -5.328125 C 14.171875 -4.992188 15.171875 -4.828125 16.265625 -4.828125 C 17.359375 -4.828125 18.300781 -4.953125 19.09375 -5.203125 C 19.894531 -5.460938 20.59375 -5.75 21.1875 -6.0625 C 21.78125 -6.375 22.300781 -6.65625 22.75 -6.90625 C 23.195312 -7.164062 23.632812 -7.296875 24.0625 -7.296875 C 24.625 -7.296875 25.039062 -7.085938 25.3125 -6.671875 L 27.265625 -4.203125 C 26.515625 -3.316406 25.671875 -2.578125 24.734375 -1.984375 C 23.804688 -1.390625 22.832031 -0.914062 21.8125 -0.5625 C 20.800781 -0.207031 19.769531 0.0390625 18.71875 0.1875 C 17.664062 0.332031 16.644531 0.40625 15.65625 0.40625 C 13.707031 0.40625 11.890625 0.0820312 10.203125 -0.5625 C 8.523438 -1.207031 7.0625 -2.164062 5.8125 -3.4375 C 4.570312 -4.707031 3.59375 -6.28125 2.875 -8.15625 C 2.164062 -10.03125 1.8125 -12.203125 1.8125 -14.671875 C 1.8125 -16.597656 2.117188 -18.40625 2.734375 -20.09375 C 3.359375 -21.78125 4.25 -23.25 5.40625 -24.5 C 6.570312 -25.757812 7.988281 -26.753906 9.65625 -27.484375 C 11.332031 -28.210938 13.222656 -28.578125 15.328125 -28.578125 C 17.109375 -28.578125 18.75 -28.289062 20.25 -27.71875 C 21.75 -27.15625 23.035156 -26.328125 24.109375 -25.234375 C 25.191406 -24.148438 26.035156 -22.816406 26.640625 -21.234375 C 27.253906 -19.660156 27.5625 -17.859375 27.5625 -15.828125 C 27.5625 -14.804688 27.453125 -14.113281 27.234375 -13.75 C 27.015625 -13.394531 26.59375 -13.21875 25.96875 -13.21875 Z M 8.5625 -13.21875 "/></g></g></g><g fill="#ffffff" fill-opacity="1"><g transform="translate(168.259438, 117.91237)"><g><path d="M 9.6875 -24.6875 C 10.25 -25.25 10.84375 -25.769531 11.46875 -26.25 C 12.101562 -26.738281 12.769531 -27.148438 13.46875 -27.484375 C 14.175781 -27.828125 14.929688 -28.09375 15.734375 -28.28125 C 16.546875 -28.476562 17.425781 -28.578125 18.375 -28.578125 C 19.914062 -28.578125 21.28125 -28.316406 22.46875 -27.796875 C 23.65625 -27.273438 24.644531 -26.539062 25.4375 -25.59375 C 26.238281 -24.65625 26.84375 -23.53125 27.25 -22.21875 C 27.664062 -20.914062 27.875 -19.476562 27.875 -17.90625 L 27.875 0 L 21.09375 0 L 21.09375 -17.90625 C 21.09375 -19.625 20.695312 -20.953125 19.90625 -21.890625 C 19.125 -22.835938 17.929688 -23.3125 16.328125 -23.3125 C 15.148438 -23.3125 14.050781 -23.046875 13.03125 -22.515625 C 12.007812 -21.984375 11.039062 -21.265625 10.125 -20.359375 L 10.125 0 L 3.34375 0 L 3.34375 -28.140625 L 7.484375 -28.140625 C 8.367188 -28.140625 8.945312 -27.726562 9.21875 -26.90625 Z M 9.6875 -24.6875 "/></g></g></g><g fill="#ffffff" fill-opacity="1"><g transform="translate(199.19725, 117.91237)"><g><path d="M 21.015625 -20.953125 C 20.242188 -21.890625 19.40625 -22.546875 18.5 -22.921875 C 17.59375 -23.304688 16.617188 -23.5 15.578125 -23.5 C 14.554688 -23.5 13.632812 -23.304688 12.8125 -22.921875 C 11.988281 -22.546875 11.28125 -21.96875 10.6875 -21.1875 C 10.101562 -20.414062 9.65625 -19.429688 9.34375 -18.234375 C 9.039062 -17.035156 8.890625 -15.617188 8.890625 -13.984375 C 8.890625 -12.335938 9.019531 -10.941406 9.28125 -9.796875 C 9.550781 -8.660156 9.929688 -7.726562 10.421875 -7 C 10.910156 -6.28125 11.507812 -5.757812 12.21875 -5.4375 C 12.9375 -5.125 13.738281 -4.96875 14.625 -4.96875 C 16.03125 -4.96875 17.222656 -5.257812 18.203125 -5.84375 C 19.191406 -6.425781 20.128906 -7.257812 21.015625 -8.34375 Z M 27.78125 -40.765625 L 27.78125 0 L 23.640625 0 C 22.742188 0 22.175781 -0.410156 21.9375 -1.234375 L 21.375 -3.953125 C 20.238281 -2.648438 18.929688 -1.597656 17.453125 -0.796875 C 15.984375 0.00390625 14.269531 0.40625 12.3125 0.40625 C 10.78125 0.40625 9.375 0.0859375 8.09375 -0.546875 C 6.8125 -1.191406 5.707031 -2.117188 4.78125 -3.328125 C 3.863281 -4.546875 3.148438 -6.050781 2.640625 -7.84375 C 2.140625 -9.632812 1.890625 -11.679688 1.890625 -13.984375 C 1.890625 -16.066406 2.171875 -18.003906 2.734375 -19.796875 C 3.304688 -21.597656 4.125 -23.15625 5.1875 -24.46875 C 6.25 -25.78125 7.519531 -26.804688 9 -27.546875 C 10.476562 -28.285156 12.140625 -28.65625 13.984375 -28.65625 C 15.554688 -28.65625 16.898438 -28.410156 18.015625 -27.921875 C 19.128906 -27.429688 20.128906 -26.765625 21.015625 -25.921875 L 21.015625 -40.765625 Z M 27.78125 -40.765625 "/></g></g></g><g fill="#ffffff" fill-opacity="1"><g transform="translate(230.327045, 117.91237)"><g><path d="M 21.484375 -17.3125 C 21.484375 -18.1875 21.359375 -19.007812 21.109375 -19.78125 C 20.859375 -20.5625 20.484375 -21.242188 19.984375 -21.828125 C 19.492188 -22.421875 18.867188 -22.882812 18.109375 -23.21875 C 17.359375 -23.5625 16.476562 -23.734375 15.46875 -23.734375 C 13.507812 -23.734375 11.96875 -23.171875 10.84375 -22.046875 C 9.71875 -20.929688 9 -19.351562 8.6875 -17.3125 Z M 8.5625 -13.21875 C 8.664062 -11.769531 8.914062 -10.519531 9.3125 -9.46875 C 9.71875 -8.425781 10.25 -7.5625 10.90625 -6.875 C 11.570312 -6.1875 12.359375 -5.671875 13.265625 -5.328125 C 14.171875 -4.992188 15.171875 -4.828125 16.265625 -4.828125 C 17.359375 -4.828125 18.300781 -4.953125 19.09375 -5.203125 C 19.894531 -5.460938 20.59375 -5.75 21.1875 -6.0625 C 21.78125 -6.375 22.300781 -6.65625 22.75 -6.90625 C 23.195312 -7.164062 23.632812 -7.296875 24.0625 -7.296875 C 24.625 -7.296875 25.039062 -7.085938 25.3125 -6.671875 L 27.265625 -4.203125 C 26.515625 -3.316406 25.671875 -2.578125 24.734375 -1.984375 C 23.804688 -1.390625 22.832031 -0.914062 21.8125 -0.5625 C 20.800781 -0.207031 19.769531 0.0390625 18.71875 0.1875 C 17.664062 0.332031 16.644531 0.40625 15.65625 0.40625 C 13.707031 0.40625 11.890625 0.0820312 10.203125 -0.5625 C 8.523438 -1.207031 7.0625 -2.164062 5.8125 -3.4375 C 4.570312 -4.707031 3.59375 -6.28125 2.875 -8.15625 C 2.164062 -10.03125 1.8125 -12.203125 1.8125 -14.671875 C 1.8125 -16.597656 2.117188 -18.40625 2.734375 -20.09375 C 3.359375 -21.78125 4.25 -23.25 5.40625 -24.5 C 6.570312 -25.757812 7.988281 -26.753906 9.65625 -27.484375 C 11.332031 -28.210938 13.222656 -28.578125 15.328125 -28.578125 C 17.109375 -28.578125 18.75 -28.289062 20.25 -27.71875 C 21.75 -27.15625 23.035156 -26.328125 24.109375 -25.234375 C 25.191406 -24.148438 26.035156 -22.816406 26.640625 -21.234375 C 27.253906 -19.660156 27.5625 -17.859375 27.5625 -15.828125 C 27.5625 -14.804688 27.453125 -14.113281 27.234375 -13.75 C 27.015625 -13.394531 26.59375 -13.21875 25.96875 -13.21875 Z M 8.5625 -13.21875 "/></g></g></g><g fill="#ffffff" fill-opacity="1"><g transform="translate(259.619227, 117.91237)"><g><path d="M 9.734375 -23.265625 C 10.609375 -24.941406 11.648438 -26.257812 12.859375 -27.21875 C 14.066406 -28.175781 15.492188 -28.65625 17.140625 -28.65625 C 18.441406 -28.65625 19.484375 -28.375 20.265625 -27.8125 L 19.828125 -22.734375 C 19.734375 -22.410156 19.597656 -22.175781 19.421875 -22.03125 C 19.253906 -21.894531 19.023438 -21.828125 18.734375 -21.828125 C 18.460938 -21.828125 18.054688 -21.875 17.515625 -21.96875 C 16.972656 -22.0625 16.445312 -22.109375 15.9375 -22.109375 C 15.1875 -22.109375 14.519531 -22 13.9375 -21.78125 C 13.351562 -21.5625 12.828125 -21.242188 12.359375 -20.828125 C 11.890625 -20.421875 11.476562 -19.921875 11.125 -19.328125 C 10.769531 -18.742188 10.4375 -18.078125 10.125 -17.328125 L 10.125 0 L 3.34375 0 L 3.34375 -28.140625 L 7.328125 -28.140625 C 8.015625 -28.140625 8.492188 -28.015625 8.765625 -27.765625 C 9.046875 -27.523438 9.234375 -27.082031 9.328125 -26.4375 Z M 9.734375 -23.265625 "/></g></g></g><g fill="#ffffff" fill-opacity="1"><g transform="translate(280.079867, 117.91237)"><g/></g></g><g fill="#ffffff" fill-opacity="1"><g transform="translate(293.409456, 117.91237)"><g><path d="M 17.3125 -19.71875 C 18.664062 -19.71875 19.84375 -19.882812 20.84375 -20.21875 C 21.851562 -20.5625 22.691406 -21.046875 23.359375 -21.671875 C 24.023438 -22.304688 24.519531 -23.078125 24.84375 -23.984375 C 25.175781 -24.890625 25.34375 -25.898438 25.34375 -27.015625 C 25.34375 -28.078125 25.175781 -29.035156 24.84375 -29.890625 C 24.519531 -30.753906 24.023438 -31.488281 23.359375 -32.09375 C 22.703125 -32.695312 21.867188 -33.15625 20.859375 -33.46875 C 19.859375 -33.789062 18.675781 -33.953125 17.3125 -33.953125 L 11.796875 -33.953125 L 11.796875 -19.71875 Z M 17.3125 -39.65625 C 19.957031 -39.65625 22.25 -39.34375 24.1875 -38.71875 C 26.125 -38.101562 27.722656 -37.238281 28.984375 -36.125 C 30.253906 -35.007812 31.191406 -33.671875 31.796875 -32.109375 C 32.410156 -30.554688 32.71875 -28.859375 32.71875 -27.015625 C 32.71875 -25.097656 32.394531 -23.335938 31.75 -21.734375 C 31.113281 -20.140625 30.15625 -18.765625 28.875 -17.609375 C 27.601562 -16.453125 26 -15.554688 24.0625 -14.921875 C 22.132812 -14.285156 19.882812 -13.96875 17.3125 -13.96875 L 11.796875 -13.96875 L 11.796875 0 L 4.421875 0 L 4.421875 -39.65625 Z M 17.3125 -39.65625 "/></g></g></g><g fill="#ffffff" fill-opacity="1"><g transform="translate(327.364248, 117.91237)"><g><path d="M 18.21875 -12.015625 C 16.257812 -11.921875 14.613281 -11.75 13.28125 -11.5 C 11.945312 -11.257812 10.875 -10.945312 10.0625 -10.5625 C 9.257812 -10.175781 8.679688 -9.726562 8.328125 -9.21875 C 7.984375 -8.707031 7.8125 -8.148438 7.8125 -7.546875 C 7.8125 -6.359375 8.160156 -5.503906 8.859375 -4.984375 C 9.566406 -4.472656 10.488281 -4.21875 11.625 -4.21875 C 13.019531 -4.21875 14.222656 -4.46875 15.234375 -4.96875 C 16.253906 -5.476562 17.25 -6.242188 18.21875 -7.265625 Z M 2.6875 -24.21875 C 5.925781 -27.175781 9.820312 -28.65625 14.375 -28.65625 C 16.019531 -28.65625 17.488281 -28.382812 18.78125 -27.84375 C 20.082031 -27.3125 21.179688 -26.566406 22.078125 -25.609375 C 22.972656 -24.648438 23.65625 -23.5 24.125 -22.15625 C 24.59375 -20.820312 24.828125 -19.363281 24.828125 -17.78125 L 24.828125 0 L 21.75 0 C 21.113281 0 20.617188 -0.09375 20.265625 -0.28125 C 19.921875 -0.476562 19.648438 -0.867188 19.453125 -1.453125 L 18.84375 -3.484375 C 18.132812 -2.847656 17.441406 -2.285156 16.765625 -1.796875 C 16.085938 -1.304688 15.378906 -0.894531 14.640625 -0.5625 C 13.910156 -0.238281 13.128906 0.00390625 12.296875 0.171875 C 11.460938 0.347656 10.546875 0.4375 9.546875 0.4375 C 8.359375 0.4375 7.257812 0.28125 6.25 -0.03125 C 5.25 -0.351562 4.378906 -0.832031 3.640625 -1.46875 C 2.910156 -2.113281 2.34375 -2.910156 1.9375 -3.859375 C 1.539062 -4.816406 1.34375 -5.925781 1.34375 -7.1875 C 1.34375 -7.894531 1.460938 -8.601562 1.703125 -9.3125 C 1.941406 -10.019531 2.328125 -10.691406 2.859375 -11.328125 C 3.398438 -11.960938 4.097656 -12.5625 4.953125 -13.125 C 5.816406 -13.695312 6.875 -14.191406 8.125 -14.609375 C 9.382812 -15.035156 10.84375 -15.378906 12.5 -15.640625 C 14.164062 -15.910156 16.070312 -16.070312 18.21875 -16.125 L 18.21875 -17.78125 C 18.21875 -19.65625 17.8125 -21.046875 17 -21.953125 C 16.195312 -22.859375 15.035156 -23.3125 13.515625 -23.3125 C 12.421875 -23.3125 11.507812 -23.179688 10.78125 -22.921875 C 10.0625 -22.671875 9.425781 -22.382812 8.875 -22.0625 C 8.332031 -21.75 7.835938 -21.460938 7.390625 -21.203125 C 6.941406 -20.941406 6.441406 -20.8125 5.890625 -20.8125 C 5.421875 -20.8125 5.019531 -20.9375 4.6875 -21.1875 C 4.363281 -21.4375 4.097656 -21.722656 3.890625 -22.046875 Z M 2.6875 -24.21875 "/></g></g></g><g fill="#ffffff" fill-opacity="1"><g transform="translate(355.202804, 117.91237)"><g><path d="M 28.90625 -28.140625 L 13.578125 7.734375 C 13.378906 8.210938 13.117188 8.570312 12.796875 8.8125 C 12.472656 9.0625 11.984375 9.1875 11.328125 9.1875 L 6.28125 9.1875 L 11.546875 -2.109375 L 0.171875 -28.140625 L 6.109375 -28.140625 C 6.640625 -28.140625 7.054688 -28.007812 7.359375 -27.75 C 7.660156 -27.5 7.882812 -27.207031 8.03125 -26.875 L 14.015625 -12.28125 C 14.210938 -11.789062 14.378906 -11.296875 14.515625 -10.796875 C 14.660156 -10.304688 14.796875 -9.804688 14.921875 -9.296875 C 15.085938 -9.804688 15.25 -10.3125 15.40625 -10.8125 C 15.570312 -11.320312 15.757812 -11.820312 15.96875 -12.3125 L 21.609375 -26.875 C 21.753906 -27.238281 21.992188 -27.539062 22.328125 -27.78125 C 22.671875 -28.019531 23.054688 -28.140625 23.484375 -28.140625 Z M 28.90625 -28.140625 "/></g></g></g><g fill="#ffffff" fill-opacity="1"><g transform="translate(384.138439, 117.91237)"><g/></g></g><g fill="#ffffff" fill-opacity="1"><g transform="translate(397.46804, 117.91237)"><g><path d="M 37.109375 -19.890625 L 37.109375 -3.84375 C 35.097656 -2.363281 32.953125 -1.28125 30.671875 -0.59375 C 28.398438 0.09375 25.96875 0.4375 23.375 0.4375 C 20.132812 0.4375 17.203125 -0.0625 14.578125 -1.0625 C 11.953125 -2.070312 9.710938 -3.472656 7.859375 -5.265625 C 6.003906 -7.054688 4.570312 -9.195312 3.5625 -11.6875 C 2.5625 -14.175781 2.0625 -16.890625 2.0625 -19.828125 C 2.0625 -22.804688 2.546875 -25.539062 3.515625 -28.03125 C 4.484375 -30.519531 5.859375 -32.660156 7.640625 -34.453125 C 9.421875 -36.242188 11.582031 -37.632812 14.125 -38.625 C 16.664062 -39.613281 19.519531 -40.109375 22.6875 -40.109375 C 24.289062 -40.109375 25.789062 -39.976562 27.1875 -39.71875 C 28.59375 -39.457031 29.894531 -39.101562 31.09375 -38.65625 C 32.289062 -38.207031 33.378906 -37.660156 34.359375 -37.015625 C 35.347656 -36.378906 36.253906 -35.679688 37.078125 -34.921875 L 34.96875 -31.578125 C 34.644531 -31.046875 34.21875 -30.71875 33.6875 -30.59375 C 33.15625 -30.476562 32.578125 -30.613281 31.953125 -31 C 31.347656 -31.34375 30.742188 -31.6875 30.140625 -32.03125 C 29.535156 -32.382812 28.863281 -32.6875 28.125 -32.9375 C 27.382812 -33.195312 26.550781 -33.410156 25.625 -33.578125 C 24.707031 -33.742188 23.644531 -33.828125 22.4375 -33.828125 C 20.476562 -33.828125 18.707031 -33.492188 17.125 -32.828125 C 15.539062 -32.171875 14.191406 -31.226562 13.078125 -30 C 11.960938 -28.78125 11.101562 -27.3125 10.5 -25.59375 C 9.894531 -23.875 9.59375 -21.953125 9.59375 -19.828125 C 9.59375 -17.566406 9.914062 -15.539062 10.5625 -13.75 C 11.21875 -11.96875 12.132812 -10.457031 13.3125 -9.21875 C 14.5 -7.988281 15.921875 -7.050781 17.578125 -6.40625 C 19.242188 -5.757812 21.101562 -5.4375 23.15625 -5.4375 C 24.613281 -5.4375 25.914062 -5.585938 27.0625 -5.890625 C 28.21875 -6.203125 29.347656 -6.625 30.453125 -7.15625 L 30.453125 -14.34375 L 25.453125 -14.34375 C 24.972656 -14.34375 24.601562 -14.472656 24.34375 -14.734375 C 24.082031 -15.003906 23.953125 -15.332031 23.953125 -15.71875 L 23.953125 -19.890625 Z M 37.109375 -19.890625 "/></g></g></g><g fill="#ffffff" fill-opacity="1"><g transform="translate(437.292241, 117.91237)"><g><path d="M 18.21875 -12.015625 C 16.257812 -11.921875 14.613281 -11.75 13.28125 -11.5 C 11.945312 -11.257812 10.875 -10.945312 10.0625 -10.5625 C 9.257812 -10.175781 8.679688 -9.726562 8.328125 -9.21875 C 7.984375 -8.707031 7.8125 -8.148438 7.8125 -7.546875 C 7.8125 -6.359375 8.160156 -5.503906 8.859375 -4.984375 C 9.566406 -4.472656 10.488281 -4.21875 11.625 -4.21875 C 13.019531 -4.21875 14.222656 -4.46875 15.234375 -4.96875 C 16.253906 -5.476562 17.25 -6.242188 18.21875 -7.265625 Z M 2.6875 -24.21875 C 5.925781 -27.175781 9.820312 -28.65625 14.375 -28.65625 C 16.019531 -28.65625 17.488281 -28.382812 18.78125 -27.84375 C 20.082031 -27.3125 21.179688 -26.566406 22.078125 -25.609375 C 22.972656 -24.648438 23.65625 -23.5 24.125 -22.15625 C 24.59375 -20.820312 24.828125 -19.363281 24.828125 -17.78125 L 24.828125 0 L 21.75 0 C 21.113281 0 20.617188 -0.09375 20.265625 -0.28125 C 19.921875 -0.476562 19.648438 -0.867188 19.453125 -1.453125 L 18.84375 -3.484375 C 18.132812 -2.847656 17.441406 -2.285156 16.765625 -1.796875 C 16.085938 -1.304688 15.378906 -0.894531 14.640625 -0.5625 C 13.910156 -0.238281 13.128906 0.00390625 12.296875 0.171875 C 11.460938 0.347656 10.546875 0.4375 9.546875 0.4375 C 8.359375 0.4375 7.257812 0.28125 6.25 -0.03125 C 5.25 -0.351562 4.378906 -0.832031 3.640625 -1.46875 C 2.910156 -2.113281 2.34375 -2.910156 1.9375 -3.859375 C 1.539062 -4.816406 1.34375 -5.925781 1.34375 -7.1875 C 1.34375 -7.894531 1.460938 -8.601562 1.703125 -9.3125 C 1.941406 -10.019531 2.328125 -10.691406 2.859375 -11.328125 C 3.398438 -11.960938 4.097656 -12.5625 4.953125 -13.125 C 5.816406 -13.695312 6.875 -14.191406 8.125 -14.609375 C 9.382812 -15.035156 10.84375 -15.378906 12.5 -15.640625 C 14.164062 -15.910156 16.070312 -16.070312 18.21875 -16.125 L 18.21875 -17.78125 C 18.21875 -19.65625 17.8125 -21.046875 17 -21.953125 C 16.195312 -22.859375 15.035156 -23.3125 13.515625 -23.3125 C 12.421875 -23.3125 11.507812 -23.179688 10.78125 -22.921875 C 10.0625 -22.671875 9.425781 -22.382812 8.875 -22.0625 C 8.332031 -21.75 7.835938 -21.460938 7.390625 -21.203125 C 6.941406 -20.941406 6.441406 -20.8125 5.890625 -20.8125 C 5.421875 -20.8125 5.019531 -20.9375 4.6875 -21.1875 C 4.363281 -21.4375 4.097656 -21.722656 3.890625 -22.046875 Z M 2.6875 -24.21875 "/></g></g></g><g fill="#ffffff" fill-opacity="1"><g transform="translate(465.130796, 117.91237)"><g><path d="M 10.125 -7.296875 C 10.894531 -6.359375 11.726562 -5.695312 12.625 -5.3125 C 13.53125 -4.9375 14.515625 -4.75 15.578125 -4.75 C 16.597656 -4.75 17.519531 -4.9375 18.34375 -5.3125 C 19.164062 -5.695312 19.863281 -6.28125 20.4375 -7.0625 C 21.019531 -7.851562 21.46875 -8.847656 21.78125 -10.046875 C 22.09375 -11.242188 22.25 -12.660156 22.25 -14.296875 C 22.25 -15.941406 22.113281 -17.332031 21.84375 -18.46875 C 21.582031 -19.613281 21.203125 -20.539062 20.703125 -21.25 C 20.210938 -21.96875 19.613281 -22.488281 18.90625 -22.8125 C 18.207031 -23.144531 17.410156 -23.3125 16.515625 -23.3125 C 15.109375 -23.3125 13.910156 -23.015625 12.921875 -22.421875 C 11.929688 -21.828125 11 -20.988281 10.125 -19.90625 Z M 9.765625 -24.296875 C 10.921875 -25.597656 12.226562 -26.648438 13.6875 -27.453125 C 15.144531 -28.253906 16.863281 -28.65625 18.84375 -28.65625 C 20.375 -28.65625 21.773438 -28.335938 23.046875 -27.703125 C 24.316406 -27.066406 25.414062 -26.140625 26.34375 -24.921875 C 27.269531 -23.703125 27.984375 -22.203125 28.484375 -20.421875 C 28.984375 -18.640625 29.234375 -16.597656 29.234375 -14.296875 C 29.234375 -12.191406 28.953125 -10.242188 28.390625 -8.453125 C 27.828125 -6.660156 27.019531 -5.101562 25.96875 -3.78125 C 24.914062 -2.46875 23.640625 -1.441406 22.140625 -0.703125 C 20.648438 0.0351562 18.984375 0.40625 17.140625 0.40625 C 15.566406 0.40625 14.222656 0.164062 13.109375 -0.3125 C 11.992188 -0.800781 11 -1.472656 10.125 -2.328125 L 10.125 9.1875 L 3.34375 9.1875 L 3.34375 -28.140625 L 7.484375 -28.140625 C 8.367188 -28.140625 8.945312 -27.726562 9.21875 -26.90625 Z M 9.765625 -24.296875 "/></g></g></g><g fill="#ffffff" fill-opacity="1"><g transform="translate(496.288032, 117.91237)"><g/></g></g><g fill="#ffffff" fill-opacity="1"><g transform="translate(509.617632, 117.91237)"><g><path d="M 16.40625 -20.796875 C 17.789062 -20.796875 19 -20.96875 20.03125 -21.3125 C 21.070312 -21.65625 21.925781 -22.132812 22.59375 -22.75 C 23.257812 -23.363281 23.753906 -24.085938 24.078125 -24.921875 C 24.410156 -25.765625 24.578125 -26.691406 24.578125 -27.703125 C 24.578125 -29.710938 23.910156 -31.253906 22.578125 -32.328125 C 21.253906 -33.410156 19.234375 -33.953125 16.515625 -33.953125 L 11.796875 -33.953125 L 11.796875 -20.796875 Z M 35.390625 0 L 28.71875 0 C 27.457031 0 26.539062 -0.492188 25.96875 -1.484375 L 17.640625 -14.1875 C 17.328125 -14.65625 16.984375 -14.988281 16.609375 -15.1875 C 16.234375 -15.394531 15.679688 -15.5 14.953125 -15.5 L 11.796875 -15.5 L 11.796875 0 L 4.421875 0 L 4.421875 -39.65625 L 16.515625 -39.65625 C 19.203125 -39.65625 21.507812 -39.375 23.4375 -38.8125 C 25.363281 -38.257812 26.941406 -37.476562 28.171875 -36.46875 C 29.410156 -35.46875 30.320312 -34.269531 30.90625 -32.875 C 31.5 -31.476562 31.796875 -29.9375 31.796875 -28.25 C 31.796875 -26.914062 31.597656 -25.65625 31.203125 -24.46875 C 30.804688 -23.28125 30.238281 -22.203125 29.5 -21.234375 C 28.757812 -20.265625 27.84375 -19.410156 26.75 -18.671875 C 25.664062 -17.941406 24.429688 -17.367188 23.046875 -16.953125 C 23.515625 -16.679688 23.945312 -16.359375 24.34375 -15.984375 C 24.75 -15.609375 25.117188 -15.160156 25.453125 -14.640625 Z M 35.390625 0 "/></g></g></g><g fill="#ffffff" fill-opacity="1"><g transform="translate(544.888916, 117.91237)"><g><path d="M 21.484375 -17.3125 C 21.484375 -18.1875 21.359375 -19.007812 21.109375 -19.78125 C 20.859375 -20.5625 20.484375 -21.242188 19.984375 -21.828125 C 19.492188 -22.421875 18.867188 -22.882812 18.109375 -23.21875 C 17.359375 -23.5625 16.476562 -23.734375 15.46875 -23.734375 C 13.507812 -23.734375 11.96875 -23.171875 10.84375 -22.046875 C 9.71875 -20.929688 9 -19.351562 8.6875 -17.3125 Z M 8.5625 -13.21875 C 8.664062 -11.769531 8.914062 -10.519531 9.3125 -9.46875 C 9.71875 -8.425781 10.25 -7.5625 10.90625 -6.875 C 11.570312 -6.1875 12.359375 -5.671875 13.265625 -5.328125 C 14.171875 -4.992188 15.171875 -4.828125 16.265625 -4.828125 C 17.359375 -4.828125 18.300781 -4.953125 19.09375 -5.203125 C 19.894531 -5.460938 20.59375 -5.75 21.1875 -6.0625 C 21.78125 -6.375 22.300781 -6.65625 22.75 -6.90625 C 23.195312 -7.164062 23.632812 -7.296875 24.0625 -7.296875 C 24.625 -7.296875 25.039062 -7.085938 25.3125 -6.671875 L 27.265625 -4.203125 C 26.515625 -3.316406 25.671875 -2.578125 24.734375 -1.984375 C 23.804688 -1.390625 22.832031 -0.914062 21.8125 -0.5625 C 20.800781 -0.207031 19.769531 0.0390625 18.71875 0.1875 C 17.664062 0.332031 16.644531 0.40625 15.65625 0.40625 C 13.707031 0.40625 11.890625 0.0820312 10.203125 -0.5625 C 8.523438 -1.207031 7.0625 -2.164062 5.8125 -3.4375 C 4.570312 -4.707031 3.59375 -6.28125 2.875 -8.15625 C 2.164062 -10.03125 1.8125 -12.203125 1.8125 -14.671875 C 1.8125 -16.597656 2.117188 -18.40625 2.734375 -20.09375 C 3.359375 -21.78125 4.25 -23.25 5.40625 -24.5 C 6.570312 -25.757812 7.988281 -26.753906 9.65625 -27.484375 C 11.332031 -28.210938 13.222656 -28.578125 15.328125 -28.578125 C 17.109375 -28.578125 18.75 -28.289062 20.25 -27.71875 C 21.75 -27.15625 23.035156 -26.328125 24.109375 -25.234375 C 25.191406 -24.148438 26.035156 -22.816406 26.640625 -21.234375 C 27.253906 -19.660156 27.5625 -17.859375 27.5625 -15.828125 C 27.5625 -14.804688 27.453125 -14.113281 27.234375 -13.75 C 27.015625 -13.394531 26.59375 -13.21875 25.96875 -13.21875 Z M 8.5625 -13.21875 "/></g></g></g><g fill="#ffffff" fill-opacity="1"><g transform="translate(574.181098, 117.91237)"><g><path d="M 10.125 -7.296875 C 10.894531 -6.359375 11.726562 -5.695312 12.625 -5.3125 C 13.53125 -4.9375 14.515625 -4.75 15.578125 -4.75 C 16.597656 -4.75 17.519531 -4.9375 18.34375 -5.3125 C 19.164062 -5.695312 19.863281 -6.28125 20.4375 -7.0625 C 21.019531 -7.851562 21.46875 -8.847656 21.78125 -10.046875 C 22.09375 -11.242188 22.25 -12.660156 22.25 -14.296875 C 22.25 -15.941406 22.113281 -17.332031 21.84375 -18.46875 C 21.582031 -19.613281 21.203125 -20.539062 20.703125 -21.25 C 20.210938 -21.96875 19.613281 -22.488281 18.90625 -22.8125 C 18.207031 -23.144531 17.410156 -23.3125 16.515625 -23.3125 C 15.109375 -23.3125 13.910156 -23.015625 12.921875 -22.421875 C 11.929688 -21.828125 11 -20.988281 10.125 -19.90625 Z M 9.765625 -24.296875 C 10.921875 -25.597656 12.226562 -26.648438 13.6875 -27.453125 C 15.144531 -28.253906 16.863281 -28.65625 18.84375 -28.65625 C 20.375 -28.65625 21.773438 -28.335938 23.046875 -27.703125 C 24.316406 -27.066406 25.414062 -26.140625 26.34375 -24.921875 C 27.269531 -23.703125 27.984375 -22.203125 28.484375 -20.421875 C 28.984375 -18.640625 29.234375 -16.597656 29.234375 -14.296875 C 29.234375 -12.191406 28.953125 -10.242188 28.390625 -8.453125 C 27.828125 -6.660156 27.019531 -5.101562 25.96875 -3.78125 C 24.914062 -2.46875 23.640625 -1.441406 22.140625 -0.703125 C 20.648438 0.0351562 18.984375 0.40625 17.140625 0.40625 C 15.566406 0.40625 14.222656 0.164062 13.109375 -0.3125 C 11.992188 -0.800781 11 -1.472656 10.125 -2.328125 L 10.125 9.1875 L 3.34375 9.1875 L 3.34375 -28.140625 L 7.484375 -28.140625 C 8.367188 -28.140625 8.945312 -27.726562 9.21875 -26.90625 Z M 9.765625 -24.296875 "/></g></g></g><g fill="#ffffff" fill-opacity="1"><g transform="translate(605.338334, 117.91237)"><g><path d="M 15.796875 -28.578125 C 17.878906 -28.578125 19.773438 -28.238281 21.484375 -27.5625 C 23.203125 -26.882812 24.664062 -25.925781 25.875 -24.6875 C 27.09375 -23.445312 28.03125 -21.925781 28.6875 -20.125 C 29.34375 -18.332031 29.671875 -16.332031 29.671875 -14.125 C 29.671875 -11.894531 29.34375 -9.882812 28.6875 -8.09375 C 28.03125 -6.300781 27.09375 -4.773438 25.875 -3.515625 C 24.664062 -2.253906 23.203125 -1.285156 21.484375 -0.609375 C 19.773438 0.0664062 17.878906 0.40625 15.796875 0.40625 C 13.691406 0.40625 11.78125 0.0664062 10.0625 -0.609375 C 8.34375 -1.285156 6.875 -2.253906 5.65625 -3.515625 C 4.445312 -4.773438 3.507812 -6.300781 2.84375 -8.09375 C 2.175781 -9.882812 1.84375 -11.894531 1.84375 -14.125 C 1.84375 -16.332031 2.175781 -18.332031 2.84375 -20.125 C 3.507812 -21.925781 4.445312 -23.445312 5.65625 -24.6875 C 6.875 -25.925781 8.34375 -26.882812 10.0625 -27.5625 C 11.78125 -28.238281 13.691406 -28.578125 15.796875 -28.578125 Z M 15.796875 -4.796875 C 18.140625 -4.796875 19.875 -5.582031 21 -7.15625 C 22.125 -8.726562 22.6875 -11.035156 22.6875 -14.078125 C 22.6875 -17.109375 22.125 -19.414062 21 -21 C 19.875 -22.59375 18.140625 -23.390625 15.796875 -23.390625 C 13.421875 -23.390625 11.660156 -22.585938 10.515625 -20.984375 C 9.378906 -19.390625 8.8125 -17.085938 8.8125 -14.078125 C 8.8125 -11.054688 9.378906 -8.753906 10.515625 -7.171875 C 11.660156 -5.585938 13.421875 -4.796875 15.796875 -4.796875 Z M 15.796875 -4.796875 "/></g></g></g><g fill="#ffffff" fill-opacity="1"><g transform="translate(636.852115, 117.91237)"><g><path d="M 9.734375 -23.265625 C 10.609375 -24.941406 11.648438 -26.257812 12.859375 -27.21875 C 14.066406 -28.175781 15.492188 -28.65625 17.140625 -28.65625 C 18.441406 -28.65625 19.484375 -28.375 20.265625 -27.8125 L 19.828125 -22.734375 C 19.734375 -22.410156 19.597656 -22.175781 19.421875 -22.03125 C 19.253906 -21.894531 19.023438 -21.828125 18.734375 -21.828125 C 18.460938 -21.828125 18.054688 -21.875 17.515625 -21.96875 C 16.972656 -22.0625 16.445312 -22.109375 15.9375 -22.109375 C 15.1875 -22.109375 14.519531 -22 13.9375 -21.78125 C 13.351562 -21.5625 12.828125 -21.242188 12.359375 -20.828125 C 11.890625 -20.421875 11.476562 -19.921875 11.125 -19.328125 C 10.769531 -18.742188 10.4375 -18.078125 10.125 -17.328125 L 10.125 0 L 3.34375 0 L 3.34375 -28.140625 L 7.328125 -28.140625 C 8.015625 -28.140625 8.492188 -28.015625 8.765625 -27.765625 C 9.046875 -27.523438 9.234375 -27.082031 9.328125 -26.4375 Z M 9.734375 -23.265625 "/></g></g></g><g fill="#ffffff" fill-opacity="1"><g transform="translate(657.312778, 117.91237)"><g><path d="M 12.734375 0.4375 C 10.273438 0.4375 8.390625 -0.25 7.078125 -1.625 C 5.773438 -3.007812 5.125 -4.914062 5.125 -7.34375 L 5.125 -23.0625 L 2.25 -23.0625 C 1.882812 -23.0625 1.570312 -23.179688 1.3125 -23.421875 C 1.0625 -23.660156 0.9375 -24.019531 0.9375 -24.5 L 0.9375 -27.1875 L 5.453125 -27.921875 L 6.890625 -35.609375 C 6.972656 -35.972656 7.144531 -36.253906 7.40625 -36.453125 C 7.664062 -36.648438 7.992188 -36.75 8.390625 -36.75 L 11.90625 -36.75 L 11.90625 -27.890625 L 19.421875 -27.890625 L 19.421875 -23.0625 L 11.90625 -23.0625 L 11.90625 -7.8125 C 11.90625 -6.9375 12.117188 -6.25 12.546875 -5.75 C 12.972656 -5.257812 13.5625 -5.015625 14.3125 -5.015625 C 14.738281 -5.015625 15.09375 -5.066406 15.375 -5.171875 C 15.65625 -5.273438 15.898438 -5.378906 16.109375 -5.484375 C 16.328125 -5.597656 16.515625 -5.703125 16.671875 -5.796875 C 16.835938 -5.898438 17.003906 -5.953125 17.171875 -5.953125 C 17.367188 -5.953125 17.53125 -5.898438 17.65625 -5.796875 C 17.789062 -5.703125 17.929688 -5.550781 18.078125 -5.34375 L 20.109375 -2.0625 C 19.117188 -1.238281 17.984375 -0.613281 16.703125 -0.1875 C 15.421875 0.226562 14.097656 0.4375 12.734375 0.4375 Z M 12.734375 0.4375 "/></g></g></g><g fill="#ffffff" fill-opacity="1"><g transform="translate(677.71856, 117.91237)"><g><path d="M 10.375 -28.140625 L 10.375 0 L 3.5625 0 L 3.5625 -28.140625 Z M 11.296875 -36.34375 C 11.296875 -35.757812 11.175781 -35.210938 10.9375 -34.703125 C 10.707031 -34.191406 10.394531 -33.742188 10 -33.359375 C 9.601562 -32.972656 9.140625 -32.664062 8.609375 -32.4375 C 8.078125 -32.207031 7.507812 -32.09375 6.90625 -32.09375 C 6.320312 -32.09375 5.769531 -32.207031 5.25 -32.4375 C 4.726562 -32.664062 4.273438 -32.972656 3.890625 -33.359375 C 3.503906 -33.742188 3.195312 -34.191406 2.96875 -34.703125 C 2.75 -35.210938 2.640625 -35.757812 2.640625 -36.34375 C 2.640625 -36.945312 2.75 -37.515625 2.96875 -38.046875 C 3.195312 -38.578125 3.503906 -39.035156 3.890625 -39.421875 C 4.273438 -39.804688 4.726562 -40.109375 5.25 -40.328125 C 5.769531 -40.554688 6.320312 -40.671875 6.90625 -40.671875 C 7.507812 -40.671875 8.078125 -40.554688 8.609375 -40.328125 C 9.140625 -40.109375 9.601562 -39.804688 10 -39.421875 C 10.394531 -39.035156 10.707031 -38.578125 10.9375 -38.046875 C 11.175781 -37.515625 11.296875 -36.945312 11.296875 -36.34375 Z M 11.296875 -36.34375 "/></g></g></g><g fill="#ffffff" fill-opacity="1"><g transform="translate(691.651535, 117.91237)"><g><path d="M 9.6875 -24.6875 C 10.25 -25.25 10.84375 -25.769531 11.46875 -26.25 C 12.101562 -26.738281 12.769531 -27.148438 13.46875 -27.484375 C 14.175781 -27.828125 14.929688 -28.09375 15.734375 -28.28125 C 16.546875 -28.476562 17.425781 -28.578125 18.375 -28.578125 C 19.914062 -28.578125 21.28125 -28.316406 22.46875 -27.796875 C 23.65625 -27.273438 24.644531 -26.539062 25.4375 -25.59375 C 26.238281 -24.65625 26.84375 -23.53125 27.25 -22.21875 C 27.664062 -20.914062 27.875 -19.476562 27.875 -17.90625 L 27.875 0 L 21.09375 0 L 21.09375 -17.90625 C 21.09375 -19.625 20.695312 -20.953125 19.90625 -21.890625 C 19.125 -22.835938 17.929688 -23.3125 16.328125 -23.3125 C 15.148438 -23.3125 14.050781 -23.046875 13.03125 -22.515625 C 12.007812 -21.984375 11.039062 -21.265625 10.125 -20.359375 L 10.125 0 L 3.34375 0 L 3.34375 -28.140625 L 7.484375 -28.140625 C 8.367188 -28.140625 8.945312 -27.726562 9.21875 -26.90625 Z M 9.6875 -24.6875 "/></g></g></g><g fill="#ffffff" fill-opacity="1"><g transform="translate(722.589337, 117.91237)"><g><path d="M 13.625 -14.75 C 14.46875 -14.75 15.203125 -14.863281 15.828125 -15.09375 C 16.453125 -15.320312 16.96875 -15.640625 17.375 -16.046875 C 17.789062 -16.453125 18.101562 -16.9375 18.3125 -17.5 C 18.519531 -18.0625 18.625 -18.679688 18.625 -19.359375 C 18.625 -20.753906 18.207031 -21.859375 17.375 -22.671875 C 16.539062 -23.484375 15.289062 -23.890625 13.625 -23.890625 C 11.96875 -23.890625 10.722656 -23.484375 9.890625 -22.671875 C 9.054688 -21.859375 8.640625 -20.753906 8.640625 -19.359375 C 8.640625 -18.703125 8.742188 -18.085938 8.953125 -17.515625 C 9.160156 -16.953125 9.46875 -16.460938 9.875 -16.046875 C 10.289062 -15.640625 10.8125 -15.320312 11.4375 -15.09375 C 12.070312 -14.863281 12.800781 -14.75 13.625 -14.75 Z M 21.28125 1.265625 C 21.28125 0.710938 21.113281 0.265625 20.78125 -0.078125 C 20.457031 -0.429688 20.007812 -0.703125 19.4375 -0.890625 C 18.875 -1.078125 18.210938 -1.21875 17.453125 -1.3125 C 16.703125 -1.40625 15.898438 -1.472656 15.046875 -1.515625 C 14.191406 -1.566406 13.3125 -1.609375 12.40625 -1.640625 C 11.5 -1.679688 10.617188 -1.753906 9.765625 -1.859375 C 9.015625 -1.441406 8.40625 -0.945312 7.9375 -0.375 C 7.46875 0.1875 7.234375 0.84375 7.234375 1.59375 C 7.234375 2.082031 7.359375 2.539062 7.609375 2.96875 C 7.859375 3.40625 8.25 3.773438 8.78125 4.078125 C 9.320312 4.390625 10.019531 4.632812 10.875 4.8125 C 11.738281 4.988281 12.796875 5.078125 14.046875 5.078125 C 15.304688 5.078125 16.390625 4.976562 17.296875 4.78125 C 18.210938 4.59375 18.96875 4.328125 19.5625 3.984375 C 20.164062 3.648438 20.601562 3.25 20.875 2.78125 C 21.144531 2.3125 21.28125 1.804688 21.28125 1.265625 Z M 28.03125 -27.1875 L 28.03125 -24.65625 C 28.03125 -23.851562 27.546875 -23.359375 26.578125 -23.171875 L 24.0625 -22.71875 C 24.4375 -21.75 24.625 -20.6875 24.625 -19.53125 C 24.625 -18.132812 24.34375 -16.875 23.78125 -15.75 C 23.226562 -14.632812 22.457031 -13.679688 21.46875 -12.890625 C 20.488281 -12.109375 19.328125 -11.5 17.984375 -11.0625 C 16.640625 -10.632812 15.1875 -10.421875 13.625 -10.421875 C 13.082031 -10.421875 12.554688 -10.445312 12.046875 -10.5 C 11.535156 -10.5625 11.03125 -10.632812 10.53125 -10.71875 C 9.65625 -10.1875 9.21875 -9.59375 9.21875 -8.9375 C 9.21875 -8.375 9.476562 -7.957031 10 -7.6875 C 10.519531 -7.425781 11.207031 -7.238281 12.0625 -7.125 C 12.925781 -7.019531 13.90625 -6.953125 15 -6.921875 C 16.101562 -6.898438 17.226562 -6.84375 18.375 -6.75 C 19.53125 -6.65625 20.65625 -6.492188 21.75 -6.265625 C 22.84375 -6.035156 23.816406 -5.671875 24.671875 -5.171875 C 25.535156 -4.679688 26.226562 -4.007812 26.75 -3.15625 C 27.28125 -2.3125 27.546875 -1.222656 27.546875 0.109375 C 27.546875 1.347656 27.238281 2.550781 26.625 3.71875 C 26.007812 4.894531 25.117188 5.941406 23.953125 6.859375 C 22.796875 7.773438 21.367188 8.507812 19.671875 9.0625 C 17.984375 9.625 16.0625 9.90625 13.90625 9.90625 C 11.78125 9.90625 9.929688 9.695312 8.359375 9.28125 C 6.785156 8.875 5.476562 8.328125 4.4375 7.640625 C 3.394531 6.953125 2.617188 6.160156 2.109375 5.265625 C 1.597656 4.367188 1.34375 3.4375 1.34375 2.46875 C 1.34375 1.15625 1.738281 0.0546875 2.53125 -0.828125 C 3.332031 -1.722656 4.425781 -2.4375 5.8125 -2.96875 C 5.0625 -3.34375 4.46875 -3.847656 4.03125 -4.484375 C 3.59375 -5.128906 3.375 -5.972656 3.375 -7.015625 C 3.375 -7.441406 3.453125 -7.878906 3.609375 -8.328125 C 3.765625 -8.773438 3.992188 -9.21875 4.296875 -9.65625 C 4.597656 -10.09375 4.972656 -10.507812 5.421875 -10.90625 C 5.878906 -11.300781 6.421875 -11.648438 7.046875 -11.953125 C 5.617188 -12.722656 4.5 -13.75 3.6875 -15.03125 C 2.875 -16.3125 2.46875 -17.8125 2.46875 -19.53125 C 2.46875 -20.914062 2.742188 -22.171875 3.296875 -23.296875 C 3.859375 -24.421875 4.632812 -25.378906 5.625 -26.171875 C 6.625 -26.972656 7.804688 -27.582031 9.171875 -28 C 10.535156 -28.425781 12.019531 -28.640625 13.625 -28.640625 C 14.832031 -28.640625 15.96875 -28.515625 17.03125 -28.265625 C 18.09375 -28.015625 19.0625 -27.65625 19.9375 -27.1875 Z M 28.03125 -27.1875 "/></g></g></g></svg>