<svg xmlns="http://www.w3.org/2000/svg" xmlns:xlink="http://www.w3.org/1999/xlink" width="1960" zoomAndPan="magnify" viewBox="0 0 1470 193.499995" height="258" preserveAspectRatio="xMidYMid meet" version="1.0"><defs><g/><clipPath id="94a22412d4"><path d="M 1.894531 0 L 1468.105469 0 L 1468.105469 192.894531 L 1.894531 192.894531 Z M 1.894531 0 " clip-rule="nonzero"/></clipPath><clipPath id="d79c397939"><path d="M 99.144531 145.882812 L 288.988281 145.882812 L 288.988281 149.625 L 99.144531 149.625 Z M 99.144531 145.882812 " clip-rule="nonzero"/></clipPath></defs><g clip-path="url(#94a22412d4)"><path fill="#189a80" d="M 1.894531 0 L 1468.1875 0 L 1468.1875 192.894531 L 1.894531 192.894531 Z M 1.894531 0 " fill-opacity="1" fill-rule="nonzero"/></g><g clip-path="url(#d79c397939)"><path fill="#ffffff" d="M 99.144531 145.882812 L 288.996094 145.882812 L 288.996094 149.625 L 99.144531 149.625 Z M 99.144531 145.882812 " fill-opacity="1" fill-rule="nonzero"/></g><g fill="#ffffff" fill-opacity="1"><g transform="translate(99.143055, 117.91237)"><g><path d="M 47.421875 -39.65625 L 47.421875 0 L 40.921875 0 L 40.921875 -25.625 C 40.921875 -26.644531 40.976562 -27.75 41.09375 -28.9375 L 29.109375 -6.421875 C 28.535156 -5.335938 27.664062 -4.796875 26.5 -4.796875 L 25.453125 -4.796875 C 24.285156 -4.796875 23.414062 -5.335938 22.84375 -6.421875 L 10.71875 -29.015625 C 10.78125 -28.410156 10.828125 -27.816406 10.859375 -27.234375 C 10.898438 -26.648438 10.921875 -26.113281 10.921875 -25.625 L 10.921875 0 L 4.421875 0 L 4.421875 -39.65625 L 9.984375 -39.65625 C 10.316406 -39.65625 10.597656 -39.644531 10.828125 -39.625 C 11.066406 -39.613281 11.28125 -39.570312 11.46875 -39.5 C 11.664062 -39.425781 11.84375 -39.304688 12 -39.140625 C 12.15625 -38.972656 12.304688 -38.753906 12.453125 -38.484375 L 24.328125 -16.453125 C 24.640625 -15.867188 24.925781 -15.265625 25.1875 -14.640625 C 25.457031 -14.023438 25.71875 -13.390625 25.96875 -12.734375 C 26.226562 -13.410156 26.492188 -14.0625 26.765625 -14.6875 C 27.046875 -15.320312 27.34375 -15.929688 27.65625 -16.515625 L 39.359375 -38.484375 C 39.503906 -38.753906 39.660156 -38.972656 39.828125 -39.140625 C 39.992188 -39.304688 40.171875 -39.425781 40.359375 -39.5 C 40.554688 -39.570312 40.769531 -39.613281 41 -39.625 C 41.238281 -39.644531 41.523438 -39.65625 41.859375 -39.65625 Z M 47.421875 -39.65625 "/></g></g></g><g fill="#ffffff" fill-opacity="1"><g transform="translate(150.980342, 117.91237)"><g><path d="M 10.375 -28.140625 L 10.375 0 L 3.5625 0 L 3.5625 -28.140625 Z M 11.296875 -36.34375 C 11.296875 -35.757812 11.175781 -35.210938 10.9375 -34.703125 C 10.707031 -34.191406 10.394531 -33.742188 10 -33.359375 C 9.601562 -32.972656 9.140625 -32.664062 8.609375 -32.4375 C 8.078125 -32.207031 7.507812 -32.09375 6.90625 -32.09375 C 6.320312 -32.09375 5.769531 -32.207031 5.25 -32.4375 C 4.726562 -32.664062 4.273438 -32.972656 3.890625 -33.359375 C 3.503906 -33.742188 3.195312 -34.191406 2.96875 -34.703125 C 2.75 -35.210938 2.640625 -35.757812 2.640625 -36.34375 C 2.640625 -36.945312 2.75 -37.515625 2.96875 -38.046875 C 3.195312 -38.578125 3.503906 -39.035156 3.890625 -39.421875 C 4.273438 -39.804688 4.726562 -40.109375 5.25 -40.328125 C 5.769531 -40.554688 6.320312 -40.671875 6.90625 -40.671875 C 7.507812 -40.671875 8.078125 -40.554688 8.609375 -40.328125 C 9.140625 -40.109375 9.601562 -39.804688 10 -39.421875 C 10.394531 -39.035156 10.707031 -38.578125 10.9375 -38.046875 C 11.175781 -37.515625 11.296875 -36.945312 11.296875 -36.34375 Z M 11.296875 -36.34375 "/></g></g></g><g fill="#ffffff" fill-opacity="1"><g transform="translate(164.913328, 117.91237)"><g><path d="M 20.515625 -22.65625 C 20.335938 -22.363281 20.144531 -22.15625 19.9375 -22.03125 C 19.738281 -21.914062 19.484375 -21.859375 19.171875 -21.859375 C 18.835938 -21.859375 18.484375 -21.945312 18.109375 -22.125 C 17.742188 -22.3125 17.3125 -22.519531 16.8125 -22.75 C 16.320312 -22.976562 15.757812 -23.179688 15.125 -23.359375 C 14.5 -23.546875 13.753906 -23.640625 12.890625 -23.640625 C 11.554688 -23.640625 10.507812 -23.351562 9.75 -22.78125 C 8.988281 -22.21875 8.609375 -21.484375 8.609375 -20.578125 C 8.609375 -19.972656 8.804688 -19.460938 9.203125 -19.046875 C 9.597656 -18.640625 10.117188 -18.28125 10.765625 -17.96875 C 11.410156 -17.65625 12.144531 -17.375 12.96875 -17.125 C 13.789062 -16.882812 14.628906 -16.613281 15.484375 -16.3125 C 16.335938 -16.019531 17.175781 -15.6875 18 -15.3125 C 18.820312 -14.9375 19.554688 -14.460938 20.203125 -13.890625 C 20.847656 -13.316406 21.367188 -12.625 21.765625 -11.8125 C 22.160156 -11.007812 22.359375 -10.046875 22.359375 -8.921875 C 22.359375 -7.566406 22.113281 -6.316406 21.625 -5.171875 C 21.144531 -4.023438 20.425781 -3.035156 19.46875 -2.203125 C 18.519531 -1.367188 17.347656 -0.71875 15.953125 -0.25 C 14.554688 0.207031 12.941406 0.4375 11.109375 0.4375 C 10.140625 0.4375 9.191406 0.347656 8.265625 0.171875 C 7.347656 0.00390625 6.460938 -0.234375 5.609375 -0.546875 C 4.753906 -0.859375 3.96875 -1.222656 3.25 -1.640625 C 2.53125 -2.066406 1.894531 -2.523438 1.34375 -3.015625 L 2.90625 -5.59375 C 3.101562 -5.90625 3.335938 -6.144531 3.609375 -6.3125 C 3.890625 -6.476562 4.238281 -6.5625 4.65625 -6.5625 C 5.082031 -6.5625 5.484375 -6.441406 5.859375 -6.203125 C 6.234375 -5.960938 6.664062 -5.703125 7.15625 -5.421875 C 7.65625 -5.148438 8.238281 -4.894531 8.90625 -4.65625 C 9.570312 -4.425781 10.414062 -4.3125 11.4375 -4.3125 C 12.238281 -4.3125 12.925781 -4.40625 13.5 -4.59375 C 14.082031 -4.78125 14.5625 -5.03125 14.9375 -5.34375 C 15.3125 -5.65625 15.582031 -6.015625 15.75 -6.421875 C 15.925781 -6.835938 16.015625 -7.265625 16.015625 -7.703125 C 16.015625 -8.359375 15.816406 -8.894531 15.421875 -9.3125 C 15.035156 -9.738281 14.515625 -10.109375 13.859375 -10.421875 C 13.210938 -10.734375 12.472656 -11.007812 11.640625 -11.25 C 10.804688 -11.5 9.957031 -11.769531 9.09375 -12.0625 C 8.226562 -12.363281 7.378906 -12.707031 6.546875 -13.09375 C 5.710938 -13.488281 4.96875 -13.988281 4.3125 -14.59375 C 3.664062 -15.195312 3.144531 -15.9375 2.75 -16.8125 C 2.363281 -17.6875 2.171875 -18.75 2.171875 -20 C 2.171875 -21.144531 2.394531 -22.238281 2.84375 -23.28125 C 3.300781 -24.320312 3.972656 -25.234375 4.859375 -26.015625 C 5.753906 -26.796875 6.863281 -27.414062 8.1875 -27.875 C 9.507812 -28.34375 11.039062 -28.578125 12.78125 -28.578125 C 14.71875 -28.578125 16.484375 -28.253906 18.078125 -27.609375 C 19.671875 -26.972656 20.992188 -26.132812 22.046875 -25.09375 Z M 20.515625 -22.65625 "/></g></g></g><g fill="#ffffff" fill-opacity="1"><g transform="translate(189.021777, 117.91237)"><g><path d="M 20.515625 -22.65625 C 20.335938 -22.363281 20.144531 -22.15625 19.9375 -22.03125 C 19.738281 -21.914062 19.484375 -21.859375 19.171875 -21.859375 C 18.835938 -21.859375 18.484375 -21.945312 18.109375 -22.125 C 17.742188 -22.3125 17.3125 -22.519531 16.8125 -22.75 C 16.320312 -22.976562 15.757812 -23.179688 15.125 -23.359375 C 14.5 -23.546875 13.753906 -23.640625 12.890625 -23.640625 C 11.554688 -23.640625 10.507812 -23.351562 9.75 -22.78125 C 8.988281 -22.21875 8.609375 -21.484375 8.609375 -20.578125 C 8.609375 -19.972656 8.804688 -19.460938 9.203125 -19.046875 C 9.597656 -18.640625 10.117188 -18.28125 10.765625 -17.96875 C 11.410156 -17.65625 12.144531 -17.375 12.96875 -17.125 C 13.789062 -16.882812 14.628906 -16.613281 15.484375 -16.3125 C 16.335938 -16.019531 17.175781 -15.6875 18 -15.3125 C 18.820312 -14.9375 19.554688 -14.460938 20.203125 -13.890625 C 20.847656 -13.316406 21.367188 -12.625 21.765625 -11.8125 C 22.160156 -11.007812 22.359375 -10.046875 22.359375 -8.921875 C 22.359375 -7.566406 22.113281 -6.316406 21.625 -5.171875 C 21.144531 -4.023438 20.425781 -3.035156 19.46875 -2.203125 C 18.519531 -1.367188 17.347656 -0.71875 15.953125 -0.25 C 14.554688 0.207031 12.941406 0.4375 11.109375 0.4375 C 10.140625 0.4375 9.191406 0.347656 8.265625 0.171875 C 7.347656 0.00390625 6.460938 -0.234375 5.609375 -0.546875 C 4.753906 -0.859375 3.96875 -1.222656 3.25 -1.640625 C 2.53125 -2.066406 1.894531 -2.523438 1.34375 -3.015625 L 2.90625 -5.59375 C 3.101562 -5.90625 3.335938 -6.144531 3.609375 -6.3125 C 3.890625 -6.476562 4.238281 -6.5625 4.65625 -6.5625 C 5.082031 -6.5625 5.484375 -6.441406 5.859375 -6.203125 C 6.234375 -5.960938 6.664062 -5.703125 7.15625 -5.421875 C 7.65625 -5.148438 8.238281 -4.894531 8.90625 -4.65625 C 9.570312 -4.425781 10.414062 -4.3125 11.4375 -4.3125 C 12.238281 -4.3125 12.925781 -4.40625 13.5 -4.59375 C 14.082031 -4.78125 14.5625 -5.03125 14.9375 -5.34375 C 15.3125 -5.65625 15.582031 -6.015625 15.75 -6.421875 C 15.925781 -6.835938 16.015625 -7.265625 16.015625 -7.703125 C 16.015625 -8.359375 15.816406 -8.894531 15.421875 -9.3125 C 15.035156 -9.738281 14.515625 -10.109375 13.859375 -10.421875 C 13.210938 -10.734375 12.472656 -11.007812 11.640625 -11.25 C 10.804688 -11.5 9.957031 -11.769531 9.09375 -12.0625 C 8.226562 -12.363281 7.378906 -12.707031 6.546875 -13.09375 C 5.710938 -13.488281 4.96875 -13.988281 4.3125 -14.59375 C 3.664062 -15.195312 3.144531 -15.9375 2.75 -16.8125 C 2.363281 -17.6875 2.171875 -18.75 2.171875 -20 C 2.171875 -21.144531 2.394531 -22.238281 2.84375 -23.28125 C 3.300781 -24.320312 3.972656 -25.234375 4.859375 -26.015625 C 5.753906 -26.796875 6.863281 -27.414062 8.1875 -27.875 C 9.507812 -28.34375 11.039062 -28.578125 12.78125 -28.578125 C 14.71875 -28.578125 16.484375 -28.253906 18.078125 -27.609375 C 19.671875 -26.972656 20.992188 -26.132812 22.046875 -25.09375 Z M 20.515625 -22.65625 "/></g></g></g><g fill="#ffffff" fill-opacity="1"><g transform="translate(213.130225, 117.91237)"><g><path d="M 10.375 -28.140625 L 10.375 0 L 3.5625 0 L 3.5625 -28.140625 Z M 11.296875 -36.34375 C 11.296875 -35.757812 11.175781 -35.210938 10.9375 -34.703125 C 10.707031 -34.191406 10.394531 -33.742188 10 -33.359375 C 9.601562 -32.972656 9.140625 -32.664062 8.609375 -32.4375 C 8.078125 -32.207031 7.507812 -32.09375 6.90625 -32.09375 C 6.320312 -32.09375 5.769531 -32.207031 5.25 -32.4375 C 4.726562 -32.664062 4.273438 -32.972656 3.890625 -33.359375 C 3.503906 -33.742188 3.195312 -34.191406 2.96875 -34.703125 C 2.75 -35.210938 2.640625 -35.757812 2.640625 -36.34375 C 2.640625 -36.945312 2.75 -37.515625 2.96875 -38.046875 C 3.195312 -38.578125 3.503906 -39.035156 3.890625 -39.421875 C 4.273438 -39.804688 4.726562 -40.109375 5.25 -40.328125 C 5.769531 -40.554688 6.320312 -40.671875 6.90625 -40.671875 C 7.507812 -40.671875 8.078125 -40.554688 8.609375 -40.328125 C 9.140625 -40.109375 9.601562 -39.804688 10 -39.421875 C 10.394531 -39.035156 10.707031 -38.578125 10.9375 -38.046875 C 11.175781 -37.515625 11.296875 -36.945312 11.296875 -36.34375 Z M 11.296875 -36.34375 "/></g></g></g><g fill="#ffffff" fill-opacity="1"><g transform="translate(227.063211, 117.91237)"><g><path d="M 15.796875 -28.578125 C 17.878906 -28.578125 19.773438 -28.238281 21.484375 -27.5625 C 23.203125 -26.882812 24.664062 -25.925781 25.875 -24.6875 C 27.09375 -23.445312 28.03125 -21.925781 28.6875 -20.125 C 29.34375 -18.332031 29.671875 -16.332031 29.671875 -14.125 C 29.671875 -11.894531 29.34375 -9.882812 28.6875 -8.09375 C 28.03125 -6.300781 27.09375 -4.773438 25.875 -3.515625 C 24.664062 -2.253906 23.203125 -1.285156 21.484375 -0.609375 C 19.773438 0.0664062 17.878906 0.40625 15.796875 0.40625 C 13.691406 0.40625 11.78125 0.0664062 10.0625 -0.609375 C 8.34375 -1.285156 6.875 -2.253906 5.65625 -3.515625 C 4.445312 -4.773438 3.507812 -6.300781 2.84375 -8.09375 C 2.175781 -9.882812 1.84375 -11.894531 1.84375 -14.125 C 1.84375 -16.332031 2.175781 -18.332031 2.84375 -20.125 C 3.507812 -21.925781 4.445312 -23.445312 5.65625 -24.6875 C 6.875 -25.925781 8.34375 -26.882812 10.0625 -27.5625 C 11.78125 -28.238281 13.691406 -28.578125 15.796875 -28.578125 Z M 15.796875 -4.796875 C 18.140625 -4.796875 19.875 -5.582031 21 -7.15625 C 22.125 -8.726562 22.6875 -11.035156 22.6875 -14.078125 C 22.6875 -17.109375 22.125 -19.414062 21 -21 C 19.875 -22.59375 18.140625 -23.390625 15.796875 -23.390625 C 13.421875 -23.390625 11.660156 -22.585938 10.515625 -20.984375 C 9.378906 -19.390625 8.8125 -17.085938 8.8125 -14.078125 C 8.8125 -11.054688 9.378906 -8.753906 10.515625 -7.171875 C 11.660156 -5.585938 13.421875 -4.796875 15.796875 -4.796875 Z M 15.796875 -4.796875 "/></g></g></g><g fill="#ffffff" fill-opacity="1"><g transform="translate(258.576993, 117.91237)"><g><path d="M 9.6875 -24.6875 C 10.25 -25.25 10.84375 -25.769531 11.46875 -26.25 C 12.101562 -26.738281 12.769531 -27.148438 13.46875 -27.484375 C 14.175781 -27.828125 14.929688 -28.09375 15.734375 -28.28125 C 16.546875 -28.476562 17.425781 -28.578125 18.375 -28.578125 C 19.914062 -28.578125 21.28125 -28.316406 22.46875 -27.796875 C 23.65625 -27.273438 24.644531 -26.539062 25.4375 -25.59375 C 26.238281 -24.65625 26.84375 -23.53125 27.25 -22.21875 C 27.664062 -20.914062 27.875 -19.476562 27.875 -17.90625 L 27.875 0 L 21.09375 0 L 21.09375 -17.90625 C 21.09375 -19.625 20.695312 -20.953125 19.90625 -21.890625 C 19.125 -22.835938 17.929688 -23.3125 16.328125 -23.3125 C 15.148438 -23.3125 14.050781 -23.046875 13.03125 -22.515625 C 12.007812 -21.984375 11.039062 -21.265625 10.125 -20.359375 L 10.125 0 L 3.34375 0 L 3.34375 -28.140625 L 7.484375 -28.140625 C 8.367188 -28.140625 8.945312 -27.726562 9.21875 -26.90625 Z M 9.6875 -24.6875 "/></g></g></g><g fill="#ffffff" fill-opacity="1"><g transform="translate(289.514806, 117.91237)"><g/></g></g><g fill="#ffffff" fill-opacity="1"><g transform="translate(302.844394, 117.91237)"><g><path d="M 25.53125 -32.453125 C 25.3125 -32.066406 25.078125 -31.785156 24.828125 -31.609375 C 24.585938 -31.441406 24.285156 -31.359375 23.921875 -31.359375 C 23.535156 -31.359375 23.117188 -31.5 22.671875 -31.78125 C 22.222656 -32.0625 21.6875 -32.375 21.0625 -32.71875 C 20.445312 -33.070312 19.722656 -33.390625 18.890625 -33.671875 C 18.054688 -33.953125 17.070312 -34.09375 15.9375 -34.09375 C 14.914062 -34.09375 14.019531 -33.96875 13.25 -33.71875 C 12.476562 -33.476562 11.832031 -33.132812 11.3125 -32.6875 C 10.789062 -32.25 10.398438 -31.722656 10.140625 -31.109375 C 9.890625 -30.503906 9.765625 -29.835938 9.765625 -29.109375 C 9.765625 -28.171875 10.023438 -27.390625 10.546875 -26.765625 C 11.066406 -26.148438 11.753906 -25.617188 12.609375 -25.171875 C 13.472656 -24.734375 14.453125 -24.34375 15.546875 -24 C 16.648438 -23.65625 17.773438 -23.285156 18.921875 -22.890625 C 20.078125 -22.492188 21.203125 -22.035156 22.296875 -21.515625 C 23.398438 -20.992188 24.378906 -20.332031 25.234375 -19.53125 C 26.097656 -18.738281 26.789062 -17.765625 27.3125 -16.609375 C 27.832031 -15.460938 28.09375 -14.066406 28.09375 -12.421875 C 28.09375 -10.628906 27.785156 -8.953125 27.171875 -7.390625 C 26.554688 -5.828125 25.660156 -4.460938 24.484375 -3.296875 C 23.304688 -2.140625 21.863281 -1.226562 20.15625 -0.5625 C 18.457031 0.101562 16.507812 0.4375 14.3125 0.4375 C 13.050781 0.4375 11.804688 0.3125 10.578125 0.0625 C 9.359375 -0.175781 8.1875 -0.523438 7.0625 -0.984375 C 5.9375 -1.441406 4.878906 -1.988281 3.890625 -2.625 C 2.898438 -3.269531 2.023438 -3.984375 1.265625 -4.765625 L 3.421875 -8.3125 C 3.609375 -8.5625 3.847656 -8.773438 4.140625 -8.953125 C 4.429688 -9.128906 4.742188 -9.21875 5.078125 -9.21875 C 5.535156 -9.21875 6.023438 -9.03125 6.546875 -8.65625 C 7.078125 -8.28125 7.707031 -7.863281 8.4375 -7.40625 C 9.175781 -6.945312 10.035156 -6.53125 11.015625 -6.15625 C 11.992188 -5.78125 13.164062 -5.59375 14.53125 -5.59375 C 16.632812 -5.59375 18.257812 -6.085938 19.40625 -7.078125 C 20.5625 -8.078125 21.140625 -9.515625 21.140625 -11.390625 C 21.140625 -12.429688 20.878906 -13.28125 20.359375 -13.9375 C 19.835938 -14.59375 19.144531 -15.144531 18.28125 -15.59375 C 17.425781 -16.039062 16.453125 -16.421875 15.359375 -16.734375 C 14.265625 -17.046875 13.148438 -17.382812 12.015625 -17.75 C 10.878906 -18.113281 9.757812 -18.550781 8.65625 -19.0625 C 7.5625 -19.570312 6.582031 -20.238281 5.71875 -21.0625 C 4.863281 -21.882812 4.175781 -22.910156 3.65625 -24.140625 C 3.132812 -25.378906 2.875 -26.90625 2.875 -28.71875 C 2.875 -30.164062 3.160156 -31.570312 3.734375 -32.9375 C 4.316406 -34.3125 5.15625 -35.53125 6.25 -36.59375 C 7.351562 -37.65625 8.707031 -38.503906 10.3125 -39.140625 C 11.925781 -39.785156 13.773438 -40.109375 15.859375 -40.109375 C 18.191406 -40.109375 20.347656 -39.738281 22.328125 -39 C 24.304688 -38.269531 25.988281 -37.25 27.375 -35.9375 Z M 25.53125 -32.453125 "/></g></g></g><g fill="#ffffff" fill-opacity="1"><g transform="translate(332.931967, 117.91237)"><g><path d="M 10.125 -7.296875 C 10.894531 -6.359375 11.726562 -5.695312 12.625 -5.3125 C 13.53125 -4.9375 14.515625 -4.75 15.578125 -4.75 C 16.597656 -4.75 17.519531 -4.9375 18.34375 -5.3125 C 19.164062 -5.695312 19.863281 -6.28125 20.4375 -7.0625 C 21.019531 -7.851562 21.46875 -8.847656 21.78125 -10.046875 C 22.09375 -11.242188 22.25 -12.660156 22.25 -14.296875 C 22.25 -15.941406 22.113281 -17.332031 21.84375 -18.46875 C 21.582031 -19.613281 21.203125 -20.539062 20.703125 -21.25 C 20.210938 -21.96875 19.613281 -22.488281 18.90625 -22.8125 C 18.207031 -23.144531 17.410156 -23.3125 16.515625 -23.3125 C 15.109375 -23.3125 13.910156 -23.015625 12.921875 -22.421875 C 11.929688 -21.828125 11 -20.988281 10.125 -19.90625 Z M 9.765625 -24.296875 C 10.921875 -25.597656 12.226562 -26.648438 13.6875 -27.453125 C 15.144531 -28.253906 16.863281 -28.65625 18.84375 -28.65625 C 20.375 -28.65625 21.773438 -28.335938 23.046875 -27.703125 C 24.316406 -27.066406 25.414062 -26.140625 26.34375 -24.921875 C 27.269531 -23.703125 27.984375 -22.203125 28.484375 -20.421875 C 28.984375 -18.640625 29.234375 -16.597656 29.234375 -14.296875 C 29.234375 -12.191406 28.953125 -10.242188 28.390625 -8.453125 C 27.828125 -6.660156 27.019531 -5.101562 25.96875 -3.78125 C 24.914062 -2.46875 23.640625 -1.441406 22.140625 -0.703125 C 20.648438 0.0351562 18.984375 0.40625 17.140625 0.40625 C 15.566406 0.40625 14.222656 0.164062 13.109375 -0.3125 C 11.992188 -0.800781 11 -1.472656 10.125 -2.328125 L 10.125 9.1875 L 3.34375 9.1875 L 3.34375 -28.140625 L 7.484375 -28.140625 C 8.367188 -28.140625 8.945312 -27.726562 9.21875 -26.90625 Z M 9.765625 -24.296875 "/></g></g></g><g fill="#ffffff" fill-opacity="1"><g transform="translate(364.089203, 117.91237)"><g><path d="M 21.484375 -17.3125 C 21.484375 -18.1875 21.359375 -19.007812 21.109375 -19.78125 C 20.859375 -20.5625 20.484375 -21.242188 19.984375 -21.828125 C 19.492188 -22.421875 18.867188 -22.882812 18.109375 -23.21875 C 17.359375 -23.5625 16.476562 -23.734375 15.46875 -23.734375 C 13.507812 -23.734375 11.96875 -23.171875 10.84375 -22.046875 C 9.71875 -20.929688 9 -19.351562 8.6875 -17.3125 Z M 8.5625 -13.21875 C 8.664062 -11.769531 8.914062 -10.519531 9.3125 -9.46875 C 9.71875 -8.425781 10.25 -7.5625 10.90625 -6.875 C 11.570312 -6.1875 12.359375 -5.671875 13.265625 -5.328125 C 14.171875 -4.992188 15.171875 -4.828125 16.265625 -4.828125 C 17.359375 -4.828125 18.300781 -4.953125 19.09375 -5.203125 C 19.894531 -5.460938 20.59375 -5.75 21.1875 -6.0625 C 21.78125 -6.375 22.300781 -6.65625 22.75 -6.90625 C 23.195312 -7.164062 23.632812 -7.296875 24.0625 -7.296875 C 24.625 -7.296875 25.039062 -7.085938 25.3125 -6.671875 L 27.265625 -4.203125 C 26.515625 -3.316406 25.671875 -2.578125 24.734375 -1.984375 C 23.804688 -1.390625 22.832031 -0.914062 21.8125 -0.5625 C 20.800781 -0.207031 19.769531 0.0390625 18.71875 0.1875 C 17.664062 0.332031 16.644531 0.40625 15.65625 0.40625 C 13.707031 0.40625 11.890625 0.0820312 10.203125 -0.5625 C 8.523438 -1.207031 7.0625 -2.164062 5.8125 -3.4375 C 4.570312 -4.707031 3.59375 -6.28125 2.875 -8.15625 C 2.164062 -10.03125 1.8125 -12.203125 1.8125 -14.671875 C 1.8125 -16.597656 2.117188 -18.40625 2.734375 -20.09375 C 3.359375 -21.78125 4.25 -23.25 5.40625 -24.5 C 6.570312 -25.757812 7.988281 -26.753906 9.65625 -27.484375 C 11.332031 -28.210938 13.222656 -28.578125 15.328125 -28.578125 C 17.109375 -28.578125 18.75 -28.289062 20.25 -27.71875 C 21.75 -27.15625 23.035156 -26.328125 24.109375 -25.234375 C 25.191406 -24.148438 26.035156 -22.816406 26.640625 -21.234375 C 27.253906 -19.660156 27.5625 -17.859375 27.5625 -15.828125 C 27.5625 -14.804688 27.453125 -14.113281 27.234375 -13.75 C 27.015625 -13.394531 26.59375 -13.21875 25.96875 -13.21875 Z M 8.5625 -13.21875 "/></g></g></g><g fill="#ffffff" fill-opacity="1"><g transform="translate(393.381385, 117.91237)"><g><path d="M 23.5 -22.1875 C 23.300781 -21.9375 23.101562 -21.738281 22.90625 -21.59375 C 22.71875 -21.445312 22.441406 -21.375 22.078125 -21.375 C 21.734375 -21.375 21.394531 -21.476562 21.0625 -21.6875 C 20.738281 -21.894531 20.347656 -22.128906 19.890625 -22.390625 C 19.429688 -22.660156 18.882812 -22.898438 18.25 -23.109375 C 17.625 -23.316406 16.84375 -23.421875 15.90625 -23.421875 C 14.71875 -23.421875 13.675781 -23.207031 12.78125 -22.78125 C 11.882812 -22.351562 11.140625 -21.734375 10.546875 -20.921875 C 9.953125 -20.117188 9.507812 -19.144531 9.21875 -18 C 8.925781 -16.863281 8.78125 -15.570312 8.78125 -14.125 C 8.78125 -12.625 8.9375 -11.285156 9.25 -10.109375 C 9.570312 -8.941406 10.035156 -7.960938 10.640625 -7.171875 C 11.242188 -6.378906 11.972656 -5.773438 12.828125 -5.359375 C 13.691406 -4.953125 14.664062 -4.75 15.75 -4.75 C 16.820312 -4.75 17.691406 -4.878906 18.359375 -5.140625 C 19.023438 -5.410156 19.585938 -5.703125 20.046875 -6.015625 C 20.503906 -6.335938 20.898438 -6.628906 21.234375 -6.890625 C 21.578125 -7.160156 21.957031 -7.296875 22.375 -7.296875 C 22.925781 -7.296875 23.335938 -7.085938 23.609375 -6.671875 L 25.5625 -4.203125 C 24.8125 -3.316406 24 -2.578125 23.125 -1.984375 C 22.25 -1.390625 21.335938 -0.914062 20.390625 -0.5625 C 19.453125 -0.207031 18.484375 0.0390625 17.484375 0.1875 C 16.484375 0.332031 15.492188 0.40625 14.515625 0.40625 C 12.773438 0.40625 11.132812 0.0820312 9.59375 -0.5625 C 8.0625 -1.207031 6.71875 -2.148438 5.5625 -3.390625 C 4.414062 -4.640625 3.507812 -6.164062 2.84375 -7.96875 C 2.175781 -9.769531 1.84375 -11.820312 1.84375 -14.125 C 1.84375 -16.1875 2.140625 -18.097656 2.734375 -19.859375 C 3.328125 -21.628906 4.195312 -23.160156 5.34375 -24.453125 C 6.5 -25.742188 7.925781 -26.753906 9.625 -27.484375 C 11.320312 -28.210938 13.28125 -28.578125 15.5 -28.578125 C 17.601562 -28.578125 19.441406 -28.238281 21.015625 -27.5625 C 22.597656 -26.882812 24.023438 -25.914062 25.296875 -24.65625 Z M 23.5 -22.1875 "/></g></g></g><g fill="#ffffff" fill-opacity="1"><g transform="translate(419.82115, 117.91237)"><g><path d="M 12.734375 0.4375 C 10.273438 0.4375 8.390625 -0.25 7.078125 -1.625 C 5.773438 -3.007812 5.125 -4.914062 5.125 -7.34375 L 5.125 -23.0625 L 2.25 -23.0625 C 1.882812 -23.0625 1.570312 -23.179688 1.3125 -23.421875 C 1.0625 -23.660156 0.9375 -24.019531 0.9375 -24.5 L 0.9375 -27.1875 L 5.453125 -27.921875 L 6.890625 -35.609375 C 6.972656 -35.972656 7.144531 -36.253906 7.40625 -36.453125 C 7.664062 -36.648438 7.992188 -36.75 8.390625 -36.75 L 11.90625 -36.75 L 11.90625 -27.890625 L 19.421875 -27.890625 L 19.421875 -23.0625 L 11.90625 -23.0625 L 11.90625 -7.8125 C 11.90625 -6.9375 12.117188 -6.25 12.546875 -5.75 C 12.972656 -5.257812 13.5625 -5.015625 14.3125 -5.015625 C 14.738281 -5.015625 15.09375 -5.066406 15.375 -5.171875 C 15.65625 -5.273438 15.898438 -5.378906 16.109375 -5.484375 C 16.328125 -5.597656 16.515625 -5.703125 16.671875 -5.796875 C 16.835938 -5.898438 17.003906 -5.953125 17.171875 -5.953125 C 17.367188 -5.953125 17.53125 -5.898438 17.65625 -5.796875 C 17.789062 -5.703125 17.929688 -5.550781 18.078125 -5.34375 L 20.109375 -2.0625 C 19.117188 -1.238281 17.984375 -0.613281 16.703125 -0.1875 C 15.421875 0.226562 14.097656 0.4375 12.734375 0.4375 Z M 12.734375 0.4375 "/></g></g></g><g fill="#ffffff" fill-opacity="1"><g transform="translate(440.226932, 117.91237)"><g><path d="M 9.734375 -23.265625 C 10.609375 -24.941406 11.648438 -26.257812 12.859375 -27.21875 C 14.066406 -28.175781 15.492188 -28.65625 17.140625 -28.65625 C 18.441406 -28.65625 19.484375 -28.375 20.265625 -27.8125 L 19.828125 -22.734375 C 19.734375 -22.410156 19.597656 -22.175781 19.421875 -22.03125 C 19.253906 -21.894531 19.023438 -21.828125 18.734375 -21.828125 C 18.460938 -21.828125 18.054688 -21.875 17.515625 -21.96875 C 16.972656 -22.0625 16.445312 -22.109375 15.9375 -22.109375 C 15.1875 -22.109375 14.519531 -22 13.9375 -21.78125 C 13.351562 -21.5625 12.828125 -21.242188 12.359375 -20.828125 C 11.890625 -20.421875 11.476562 -19.921875 11.125 -19.328125 C 10.769531 -18.742188 10.4375 -18.078125 10.125 -17.328125 L 10.125 0 L 3.34375 0 L 3.34375 -28.140625 L 7.328125 -28.140625 C 8.015625 -28.140625 8.492188 -28.015625 8.765625 -27.765625 C 9.046875 -27.523438 9.234375 -27.082031 9.328125 -26.4375 Z M 9.734375 -23.265625 "/></g></g></g><g fill="#ffffff" fill-opacity="1"><g transform="translate(460.687573, 117.91237)"><g><path d="M 27.59375 -28.140625 L 27.59375 0 L 23.453125 0 C 22.554688 0 21.988281 -0.410156 21.75 -1.234375 L 21.28125 -3.484375 C 20.132812 -2.316406 18.863281 -1.367188 17.46875 -0.640625 C 16.082031 0.078125 14.445312 0.4375 12.5625 0.4375 C 11.03125 0.4375 9.671875 0.175781 8.484375 -0.34375 C 7.304688 -0.863281 6.316406 -1.597656 5.515625 -2.546875 C 4.710938 -3.503906 4.101562 -4.632812 3.6875 -5.9375 C 3.28125 -7.25 3.078125 -8.691406 3.078125 -10.265625 L 3.078125 -28.140625 L 9.84375 -28.140625 L 9.84375 -10.265625 C 9.84375 -8.546875 10.238281 -7.210938 11.03125 -6.265625 C 11.832031 -5.328125 13.03125 -4.859375 14.625 -4.859375 C 15.789062 -4.859375 16.882812 -5.117188 17.90625 -5.640625 C 18.9375 -6.160156 19.90625 -6.878906 20.8125 -7.796875 L 20.8125 -28.140625 Z M 27.59375 -28.140625 "/></g></g></g><g fill="#ffffff" fill-opacity="1"><g transform="translate(491.625396, 117.91237)"><g><path d="M 3.34375 0 L 3.34375 -28.140625 L 7.484375 -28.140625 C 8.367188 -28.140625 8.945312 -27.726562 9.21875 -26.90625 L 9.65625 -24.828125 C 10.144531 -25.367188 10.660156 -25.867188 11.203125 -26.328125 C 11.742188 -26.785156 12.320312 -27.175781 12.9375 -27.5 C 13.550781 -27.832031 14.207031 -28.09375 14.90625 -28.28125 C 15.613281 -28.476562 16.382812 -28.578125 17.21875 -28.578125 C 19 -28.578125 20.457031 -28.097656 21.59375 -27.140625 C 22.738281 -26.179688 23.597656 -24.90625 24.171875 -23.3125 C 24.609375 -24.25 25.15625 -25.050781 25.8125 -25.71875 C 26.46875 -26.382812 27.1875 -26.925781 27.96875 -27.34375 C 28.757812 -27.769531 29.597656 -28.082031 30.484375 -28.28125 C 31.367188 -28.476562 32.257812 -28.578125 33.15625 -28.578125 C 34.71875 -28.578125 36.097656 -28.335938 37.296875 -27.859375 C 38.503906 -27.390625 39.519531 -26.695312 40.34375 -25.78125 C 41.164062 -24.863281 41.789062 -23.75 42.21875 -22.4375 C 42.65625 -21.125 42.875 -19.613281 42.875 -17.90625 L 42.875 0 L 36.09375 0 L 36.09375 -17.90625 C 36.09375 -19.695312 35.695312 -21.046875 34.90625 -21.953125 C 34.125 -22.859375 32.976562 -23.3125 31.46875 -23.3125 C 30.769531 -23.3125 30.125 -23.191406 29.53125 -22.953125 C 28.9375 -22.722656 28.414062 -22.382812 27.96875 -21.9375 C 27.519531 -21.488281 27.164062 -20.925781 26.90625 -20.25 C 26.65625 -19.570312 26.53125 -18.789062 26.53125 -17.90625 L 26.53125 0 L 19.71875 0 L 19.71875 -17.90625 C 19.71875 -19.789062 19.335938 -21.160156 18.578125 -22.015625 C 17.816406 -22.878906 16.707031 -23.3125 15.25 -23.3125 C 14.257812 -23.3125 13.335938 -23.066406 12.484375 -22.578125 C 11.640625 -22.097656 10.851562 -21.4375 10.125 -20.59375 L 10.125 0 Z M 3.34375 0 "/></g></g></g></svg>