<svg xmlns="http://www.w3.org/2000/svg" xmlns:xlink="http://www.w3.org/1999/xlink" width="1960" zoomAndPan="magnify" viewBox="0 0 1470 193.499995" height="258" preserveAspectRatio="xMidYMid meet" version="1.0"><defs><g/><clipPath id="17c7d94839"><path d="M 1.894531 0 L 1468.105469 0 L 1468.105469 192.894531 L 1.894531 192.894531 Z M 1.894531 0 " clip-rule="nonzero"/></clipPath><clipPath id="4f8f1cdd61"><path d="M 99.144531 145.882812 L 288.988281 145.882812 L 288.988281 149.625 L 99.144531 149.625 Z M 99.144531 145.882812 " clip-rule="nonzero"/></clipPath></defs><g clip-path="url(#17c7d94839)"><path fill="#287ead" d="M 1.894531 0 L 1468.1875 0 L 1468.1875 192.894531 L 1.894531 192.894531 Z M 1.894531 0 " fill-opacity="1" fill-rule="nonzero"/></g><g clip-path="url(#4f8f1cdd61)"><path fill="#ffffff" d="M 99.144531 145.882812 L 288.996094 145.882812 L 288.996094 149.625 L 99.144531 149.625 Z M 99.144531 145.882812 " fill-opacity="1" fill-rule="nonzero"/></g><g fill="#ffffff" fill-opacity="1"><g transform="translate(99.143055, 110.22652)"><g><path d="M 37.109375 -19.890625 L 37.109375 -3.84375 C 35.097656 -2.363281 32.953125 -1.28125 30.671875 -0.59375 C 28.398438 0.09375 25.96875 0.4375 23.375 0.4375 C 20.132812 0.4375 17.203125 -0.0625 14.578125 -1.0625 C 11.953125 -2.070312 9.710938 -3.472656 7.859375 -5.265625 C 6.003906 -7.054688 4.570312 -9.195312 3.5625 -11.6875 C 2.5625 -14.175781 2.0625 -16.890625 2.0625 -19.828125 C 2.0625 -22.804688 2.546875 -25.539062 3.515625 -28.03125 C 4.484375 -30.519531 5.859375 -32.660156 7.640625 -34.453125 C 9.421875 -36.242188 11.582031 -37.632812 14.125 -38.625 C 16.664062 -39.613281 19.519531 -40.109375 22.6875 -40.109375 C 24.289062 -40.109375 25.789062 -39.976562 27.1875 -39.71875 C 28.59375 -39.457031 29.894531 -39.101562 31.09375 -38.65625 C 32.289062 -38.207031 33.378906 -37.660156 34.359375 -37.015625 C 35.347656 -36.378906 36.253906 -35.679688 37.078125 -34.921875 L 34.96875 -31.578125 C 34.644531 -31.046875 34.21875 -30.71875 33.6875 -30.59375 C 33.15625 -30.476562 32.578125 -30.613281 31.953125 -31 C 31.347656 -31.34375 30.742188 -31.6875 30.140625 -32.03125 C 29.535156 -32.382812 28.863281 -32.6875 28.125 -32.9375 C 27.382812 -33.195312 26.550781 -33.410156 25.625 -33.578125 C 24.707031 -33.742188 23.644531 -33.828125 22.4375 -33.828125 C 20.476562 -33.828125 18.707031 -33.492188 17.125 -32.828125 C 15.539062 -32.171875 14.191406 -31.226562 13.078125 -30 C 11.960938 -28.78125 11.101562 -27.3125 10.5 -25.59375 C 9.894531 -23.875 9.59375 -21.953125 9.59375 -19.828125 C 9.59375 -17.566406 9.914062 -15.539062 10.5625 -13.75 C 11.21875 -11.96875 12.132812 -10.457031 13.3125 -9.21875 C 14.5 -7.988281 15.921875 -7.050781 17.578125 -6.40625 C 19.242188 -5.757812 21.101562 -5.4375 23.15625 -5.4375 C 24.613281 -5.4375 25.914062 -5.585938 27.0625 -5.890625 C 28.21875 -6.203125 29.347656 -6.625 30.453125 -7.15625 L 30.453125 -14.34375 L 25.453125 -14.34375 C 24.972656 -14.34375 24.601562 -14.472656 24.34375 -14.734375 C 24.082031 -15.003906 23.953125 -15.332031 23.953125 -15.71875 L 23.953125 -19.890625 Z M 37.109375 -19.890625 "/></g></g></g><g fill="#ffffff" fill-opacity="1"><g transform="translate(138.967256, 110.22652)"><g><path d="M 15.796875 -28.578125 C 17.878906 -28.578125 19.773438 -28.238281 21.484375 -27.5625 C 23.203125 -26.882812 24.664062 -25.925781 25.875 -24.6875 C 27.09375 -23.445312 28.03125 -21.925781 28.6875 -20.125 C 29.34375 -18.332031 29.671875 -16.332031 29.671875 -14.125 C 29.671875 -11.894531 29.34375 -9.882812 28.6875 -8.09375 C 28.03125 -6.300781 27.09375 -4.773438 25.875 -3.515625 C 24.664062 -2.253906 23.203125 -1.285156 21.484375 -0.609375 C 19.773438 0.0664062 17.878906 0.40625 15.796875 0.40625 C 13.691406 0.40625 11.78125 0.0664062 10.0625 -0.609375 C 8.34375 -1.285156 6.875 -2.253906 5.65625 -3.515625 C 4.445312 -4.773438 3.507812 -6.300781 2.84375 -8.09375 C 2.175781 -9.882812 1.84375 -11.894531 1.84375 -14.125 C 1.84375 -16.332031 2.175781 -18.332031 2.84375 -20.125 C 3.507812 -21.925781 4.445312 -23.445312 5.65625 -24.6875 C 6.875 -25.925781 8.34375 -26.882812 10.0625 -27.5625 C 11.78125 -28.238281 13.691406 -28.578125 15.796875 -28.578125 Z M 15.796875 -4.796875 C 18.140625 -4.796875 19.875 -5.582031 21 -7.15625 C 22.125 -8.726562 22.6875 -11.035156 22.6875 -14.078125 C 22.6875 -17.109375 22.125 -19.414062 21 -21 C 19.875 -22.59375 18.140625 -23.390625 15.796875 -23.390625 C 13.421875 -23.390625 11.660156 -22.585938 10.515625 -20.984375 C 9.378906 -19.390625 8.8125 -17.085938 8.8125 -14.078125 C 8.8125 -11.054688 9.378906 -8.753906 10.515625 -7.171875 C 11.660156 -5.585938 13.421875 -4.796875 15.796875 -4.796875 Z M 15.796875 -4.796875 "/></g></g></g><g fill="#ffffff" fill-opacity="1"><g transform="translate(170.481037, 110.22652)"><g><path d="M 28.71875 -28.140625 L 17.5625 0 L 11.40625 0 L 0.25 -28.140625 L 5.84375 -28.140625 C 6.351562 -28.140625 6.773438 -28.019531 7.109375 -27.78125 C 7.453125 -27.539062 7.679688 -27.238281 7.796875 -26.875 L 13.21875 -11.84375 C 13.507812 -10.96875 13.765625 -10.109375 13.984375 -9.265625 C 14.203125 -8.429688 14.394531 -7.59375 14.5625 -6.75 C 14.75 -7.59375 14.953125 -8.429688 15.171875 -9.265625 C 15.390625 -10.109375 15.65625 -10.96875 15.96875 -11.84375 L 21.5 -26.875 C 21.632812 -27.238281 21.863281 -27.539062 22.1875 -27.78125 C 22.519531 -28.019531 22.914062 -28.140625 23.375 -28.140625 Z M 28.71875 -28.140625 "/></g></g></g><g fill="#ffffff" fill-opacity="1"><g transform="translate(199.444091, 110.22652)"><g><path d="M 12.734375 0.4375 C 10.273438 0.4375 8.390625 -0.25 7.078125 -1.625 C 5.773438 -3.007812 5.125 -4.914062 5.125 -7.34375 L 5.125 -23.0625 L 2.25 -23.0625 C 1.882812 -23.0625 1.570312 -23.179688 1.3125 -23.421875 C 1.0625 -23.660156 0.9375 -24.019531 0.9375 -24.5 L 0.9375 -27.1875 L 5.453125 -27.921875 L 6.890625 -35.609375 C 6.972656 -35.972656 7.144531 -36.253906 7.40625 -36.453125 C 7.664062 -36.648438 7.992188 -36.75 8.390625 -36.75 L 11.90625 -36.75 L 11.90625 -27.890625 L 19.421875 -27.890625 L 19.421875 -23.0625 L 11.90625 -23.0625 L 11.90625 -7.8125 C 11.90625 -6.9375 12.117188 -6.25 12.546875 -5.75 C 12.972656 -5.257812 13.5625 -5.015625 14.3125 -5.015625 C 14.738281 -5.015625 15.09375 -5.066406 15.375 -5.171875 C 15.65625 -5.273438 15.898438 -5.378906 16.109375 -5.484375 C 16.328125 -5.597656 16.515625 -5.703125 16.671875 -5.796875 C 16.835938 -5.898438 17.003906 -5.953125 17.171875 -5.953125 C 17.367188 -5.953125 17.53125 -5.898438 17.65625 -5.796875 C 17.789062 -5.703125 17.929688 -5.550781 18.078125 -5.34375 L 20.109375 -2.0625 C 19.117188 -1.238281 17.984375 -0.613281 16.703125 -0.1875 C 15.421875 0.226562 14.097656 0.4375 12.734375 0.4375 Z M 12.734375 0.4375 "/></g></g></g><g fill="#ffffff" fill-opacity="1"><g transform="translate(219.849884, 110.22652)"><g><path d="M 2.359375 -3.734375 C 2.359375 -4.296875 2.460938 -4.832031 2.671875 -5.34375 C 2.878906 -5.851562 3.164062 -6.289062 3.53125 -6.65625 C 3.90625 -7.03125 4.347656 -7.328125 4.859375 -7.546875 C 5.367188 -7.765625 5.914062 -7.875 6.5 -7.875 C 7.082031 -7.875 7.625 -7.765625 8.125 -7.546875 C 8.632812 -7.328125 9.078125 -7.03125 9.453125 -6.65625 C 9.828125 -6.289062 10.125 -5.851562 10.34375 -5.34375 C 10.5625 -4.832031 10.671875 -4.296875 10.671875 -3.734375 C 10.671875 -3.148438 10.5625 -2.601562 10.34375 -2.09375 C 10.125 -1.59375 9.828125 -1.160156 9.453125 -0.796875 C 9.078125 -0.429688 8.632812 -0.144531 8.125 0.0625 C 7.625 0.28125 7.082031 0.390625 6.5 0.390625 C 5.914062 0.390625 5.367188 0.28125 4.859375 0.0625 C 4.347656 -0.144531 3.90625 -0.429688 3.53125 -0.796875 C 3.164062 -1.160156 2.878906 -1.59375 2.671875 -2.09375 C 2.460938 -2.601562 2.359375 -3.148438 2.359375 -3.734375 Z M 2.359375 -3.734375 "/></g></g></g><g fill="#ffffff" fill-opacity="1"><g transform="translate(232.877773, 110.22652)"><g/></g></g><g fill="#ffffff" fill-opacity="1"><g transform="translate(246.207361, 110.22652)"><g><path d="M 39.640625 -19.828125 C 39.640625 -16.921875 39.15625 -14.25 38.1875 -11.8125 C 37.21875 -9.382812 35.851562 -7.289062 34.09375 -5.53125 C 32.34375 -3.78125 30.234375 -2.421875 27.765625 -1.453125 C 25.296875 -0.484375 22.550781 0 19.53125 0 L 4.421875 0 L 4.421875 -39.65625 L 19.53125 -39.65625 C 22.550781 -39.65625 25.296875 -39.164062 27.765625 -38.1875 C 30.234375 -37.21875 32.34375 -35.859375 34.09375 -34.109375 C 35.851562 -32.359375 37.21875 -30.265625 38.1875 -27.828125 C 39.15625 -25.398438 39.640625 -22.734375 39.640625 -19.828125 Z M 32.0625 -19.828125 C 32.0625 -22.003906 31.773438 -23.957031 31.203125 -25.6875 C 30.628906 -27.414062 29.796875 -28.878906 28.703125 -30.078125 C 27.617188 -31.273438 26.300781 -32.191406 24.75 -32.828125 C 23.207031 -33.472656 21.46875 -33.796875 19.53125 -33.796875 L 11.828125 -33.796875 L 11.828125 -5.875 L 19.53125 -5.875 C 21.46875 -5.875 23.207031 -6.191406 24.75 -6.828125 C 26.300781 -7.472656 27.617188 -8.394531 28.703125 -9.59375 C 29.796875 -10.789062 30.628906 -12.25 31.203125 -13.96875 C 31.773438 -15.695312 32.0625 -17.648438 32.0625 -19.828125 Z M 32.0625 -19.828125 "/></g></g></g><g fill="#ffffff" fill-opacity="1"><g transform="translate(287.924034, 110.22652)"><g><path d="M 21.484375 -17.3125 C 21.484375 -18.1875 21.359375 -19.007812 21.109375 -19.78125 C 20.859375 -20.5625 20.484375 -21.242188 19.984375 -21.828125 C 19.492188 -22.421875 18.867188 -22.882812 18.109375 -23.21875 C 17.359375 -23.5625 16.476562 -23.734375 15.46875 -23.734375 C 13.507812 -23.734375 11.96875 -23.171875 10.84375 -22.046875 C 9.71875 -20.929688 9 -19.351562 8.6875 -17.3125 Z M 8.5625 -13.21875 C 8.664062 -11.769531 8.914062 -10.519531 9.3125 -9.46875 C 9.71875 -8.425781 10.25 -7.5625 10.90625 -6.875 C 11.570312 -6.1875 12.359375 -5.671875 13.265625 -5.328125 C 14.171875 -4.992188 15.171875 -4.828125 16.265625 -4.828125 C 17.359375 -4.828125 18.300781 -4.953125 19.09375 -5.203125 C 19.894531 -5.460938 20.59375 -5.75 21.1875 -6.0625 C 21.78125 -6.375 22.300781 -6.65625 22.75 -6.90625 C 23.195312 -7.164062 23.632812 -7.296875 24.0625 -7.296875 C 24.625 -7.296875 25.039062 -7.085938 25.3125 -6.671875 L 27.265625 -4.203125 C 26.515625 -3.316406 25.671875 -2.578125 24.734375 -1.984375 C 23.804688 -1.390625 22.832031 -0.914062 21.8125 -0.5625 C 20.800781 -0.207031 19.769531 0.0390625 18.71875 0.1875 C 17.664062 0.332031 16.644531 0.40625 15.65625 0.40625 C 13.707031 0.40625 11.890625 0.0820312 10.203125 -0.5625 C 8.523438 -1.207031 7.0625 -2.164062 5.8125 -3.4375 C 4.570312 -4.707031 3.59375 -6.28125 2.875 -8.15625 C 2.164062 -10.03125 1.8125 -12.203125 1.8125 -14.671875 C 1.8125 -16.597656 2.117188 -18.40625 2.734375 -20.09375 C 3.359375 -21.78125 4.25 -23.25 5.40625 -24.5 C 6.570312 -25.757812 7.988281 -26.753906 9.65625 -27.484375 C 11.332031 -28.210938 13.222656 -28.578125 15.328125 -28.578125 C 17.109375 -28.578125 18.75 -28.289062 20.25 -27.71875 C 21.75 -27.15625 23.035156 -26.328125 24.109375 -25.234375 C 25.191406 -24.148438 26.035156 -22.816406 26.640625 -21.234375 C 27.253906 -19.660156 27.5625 -17.859375 27.5625 -15.828125 C 27.5625 -14.804688 27.453125 -14.113281 27.234375 -13.75 C 27.015625 -13.394531 26.59375 -13.21875 25.96875 -13.21875 Z M 8.5625 -13.21875 "/></g></g></g><g fill="#ffffff" fill-opacity="1"><g transform="translate(317.216216, 110.22652)"><g><path d="M 10.125 -7.296875 C 10.894531 -6.359375 11.726562 -5.695312 12.625 -5.3125 C 13.53125 -4.9375 14.515625 -4.75 15.578125 -4.75 C 16.597656 -4.75 17.519531 -4.9375 18.34375 -5.3125 C 19.164062 -5.695312 19.863281 -6.28125 20.4375 -7.0625 C 21.019531 -7.851562 21.46875 -8.847656 21.78125 -10.046875 C 22.09375 -11.242188 22.25 -12.660156 22.25 -14.296875 C 22.25 -15.941406 22.113281 -17.332031 21.84375 -18.46875 C 21.582031 -19.613281 21.203125 -20.539062 20.703125 -21.25 C 20.210938 -21.96875 19.613281 -22.488281 18.90625 -22.8125 C 18.207031 -23.144531 17.410156 -23.3125 16.515625 -23.3125 C 15.109375 -23.3125 13.910156 -23.015625 12.921875 -22.421875 C 11.929688 -21.828125 11 -20.988281 10.125 -19.90625 Z M 9.765625 -24.296875 C 10.921875 -25.597656 12.226562 -26.648438 13.6875 -27.453125 C 15.144531 -28.253906 16.863281 -28.65625 18.84375 -28.65625 C 20.375 -28.65625 21.773438 -28.335938 23.046875 -27.703125 C 24.316406 -27.066406 25.414062 -26.140625 26.34375 -24.921875 C 27.269531 -23.703125 27.984375 -22.203125 28.484375 -20.421875 C 28.984375 -18.640625 29.234375 -16.597656 29.234375 -14.296875 C 29.234375 -12.191406 28.953125 -10.242188 28.390625 -8.453125 C 27.828125 -6.660156 27.019531 -5.101562 25.96875 -3.78125 C 24.914062 -2.46875 23.640625 -1.441406 22.140625 -0.703125 C 20.648438 0.0351562 18.984375 0.40625 17.140625 0.40625 C 15.566406 0.40625 14.222656 0.164062 13.109375 -0.3125 C 11.992188 -0.800781 11 -1.472656 10.125 -2.328125 L 10.125 9.1875 L 3.34375 9.1875 L 3.34375 -28.140625 L 7.484375 -28.140625 C 8.367188 -28.140625 8.945312 -27.726562 9.21875 -26.90625 Z M 9.765625 -24.296875 "/></g></g></g><g fill="#ffffff" fill-opacity="1"><g transform="translate(348.373452, 110.22652)"><g><path d="M 18.21875 -12.015625 C 16.257812 -11.921875 14.613281 -11.75 13.28125 -11.5 C 11.945312 -11.257812 10.875 -10.945312 10.0625 -10.5625 C 9.257812 -10.175781 8.679688 -9.726562 8.328125 -9.21875 C 7.984375 -8.707031 7.8125 -8.148438 7.8125 -7.546875 C 7.8125 -6.359375 8.160156 -5.503906 8.859375 -4.984375 C 9.566406 -4.472656 10.488281 -4.21875 11.625 -4.21875 C 13.019531 -4.21875 14.222656 -4.46875 15.234375 -4.96875 C 16.253906 -5.476562 17.25 -6.242188 18.21875 -7.265625 Z M 2.6875 -24.21875 C 5.925781 -27.175781 9.820312 -28.65625 14.375 -28.65625 C 16.019531 -28.65625 17.488281 -28.382812 18.78125 -27.84375 C 20.082031 -27.3125 21.179688 -26.566406 22.078125 -25.609375 C 22.972656 -24.648438 23.65625 -23.5 24.125 -22.15625 C 24.59375 -20.820312 24.828125 -19.363281 24.828125 -17.78125 L 24.828125 0 L 21.75 0 C 21.113281 0 20.617188 -0.09375 20.265625 -0.28125 C 19.921875 -0.476562 19.648438 -0.867188 19.453125 -1.453125 L 18.84375 -3.484375 C 18.132812 -2.847656 17.441406 -2.285156 16.765625 -1.796875 C 16.085938 -1.304688 15.378906 -0.894531 14.640625 -0.5625 C 13.910156 -0.238281 13.128906 0.00390625 12.296875 0.171875 C 11.460938 0.347656 10.546875 0.4375 9.546875 0.4375 C 8.359375 0.4375 7.257812 0.28125 6.25 -0.03125 C 5.25 -0.351562 4.378906 -0.832031 3.640625 -1.46875 C 2.910156 -2.113281 2.34375 -2.910156 1.9375 -3.859375 C 1.539062 -4.816406 1.34375 -5.925781 1.34375 -7.1875 C 1.34375 -7.894531 1.460938 -8.601562 1.703125 -9.3125 C 1.941406 -10.019531 2.328125 -10.691406 2.859375 -11.328125 C 3.398438 -11.960938 4.097656 -12.5625 4.953125 -13.125 C 5.816406 -13.695312 6.875 -14.191406 8.125 -14.609375 C 9.382812 -15.035156 10.84375 -15.378906 12.5 -15.640625 C 14.164062 -15.910156 16.070312 -16.070312 18.21875 -16.125 L 18.21875 -17.78125 C 18.21875 -19.65625 17.8125 -21.046875 17 -21.953125 C 16.195312 -22.859375 15.035156 -23.3125 13.515625 -23.3125 C 12.421875 -23.3125 11.507812 -23.179688 10.78125 -22.921875 C 10.0625 -22.671875 9.425781 -22.382812 8.875 -22.0625 C 8.332031 -21.75 7.835938 -21.460938 7.390625 -21.203125 C 6.941406 -20.941406 6.441406 -20.8125 5.890625 -20.8125 C 5.421875 -20.8125 5.019531 -20.9375 4.6875 -21.1875 C 4.363281 -21.4375 4.097656 -21.722656 3.890625 -22.046875 Z M 2.6875 -24.21875 "/></g></g></g><g fill="#ffffff" fill-opacity="1"><g transform="translate(376.212007, 110.22652)"><g><path d="M 9.734375 -23.265625 C 10.609375 -24.941406 11.648438 -26.257812 12.859375 -27.21875 C 14.066406 -28.175781 15.492188 -28.65625 17.140625 -28.65625 C 18.441406 -28.65625 19.484375 -28.375 20.265625 -27.8125 L 19.828125 -22.734375 C 19.734375 -22.410156 19.597656 -22.175781 19.421875 -22.03125 C 19.253906 -21.894531 19.023438 -21.828125 18.734375 -21.828125 C 18.460938 -21.828125 18.054688 -21.875 17.515625 -21.96875 C 16.972656 -22.0625 16.445312 -22.109375 15.9375 -22.109375 C 15.1875 -22.109375 14.519531 -22 13.9375 -21.78125 C 13.351562 -21.5625 12.828125 -21.242188 12.359375 -20.828125 C 11.890625 -20.421875 11.476562 -19.921875 11.125 -19.328125 C 10.769531 -18.742188 10.4375 -18.078125 10.125 -17.328125 L 10.125 0 L 3.34375 0 L 3.34375 -28.140625 L 7.328125 -28.140625 C 8.015625 -28.140625 8.492188 -28.015625 8.765625 -27.765625 C 9.046875 -27.523438 9.234375 -27.082031 9.328125 -26.4375 Z M 9.734375 -23.265625 "/></g></g></g><g fill="#ffffff" fill-opacity="1"><g transform="translate(396.672648, 110.22652)"><g><path d="M 12.734375 0.4375 C 10.273438 0.4375 8.390625 -0.25 7.078125 -1.625 C 5.773438 -3.007812 5.125 -4.914062 5.125 -7.34375 L 5.125 -23.0625 L 2.25 -23.0625 C 1.882812 -23.0625 1.570312 -23.179688 1.3125 -23.421875 C 1.0625 -23.660156 0.9375 -24.019531 0.9375 -24.5 L 0.9375 -27.1875 L 5.453125 -27.921875 L 6.890625 -35.609375 C 6.972656 -35.972656 7.144531 -36.253906 7.40625 -36.453125 C 7.664062 -36.648438 7.992188 -36.75 8.390625 -36.75 L 11.90625 -36.75 L 11.90625 -27.890625 L 19.421875 -27.890625 L 19.421875 -23.0625 L 11.90625 -23.0625 L 11.90625 -7.8125 C 11.90625 -6.9375 12.117188 -6.25 12.546875 -5.75 C 12.972656 -5.257812 13.5625 -5.015625 14.3125 -5.015625 C 14.738281 -5.015625 15.09375 -5.066406 15.375 -5.171875 C 15.65625 -5.273438 15.898438 -5.378906 16.109375 -5.484375 C 16.328125 -5.597656 16.515625 -5.703125 16.671875 -5.796875 C 16.835938 -5.898438 17.003906 -5.953125 17.171875 -5.953125 C 17.367188 -5.953125 17.53125 -5.898438 17.65625 -5.796875 C 17.789062 -5.703125 17.929688 -5.550781 18.078125 -5.34375 L 20.109375 -2.0625 C 19.117188 -1.238281 17.984375 -0.613281 16.703125 -0.1875 C 15.421875 0.226562 14.097656 0.4375 12.734375 0.4375 Z M 12.734375 0.4375 "/></g></g></g><g fill="#ffffff" fill-opacity="1"><g transform="translate(417.078453, 110.22652)"><g><path d="M 3.34375 0 L 3.34375 -28.140625 L 7.484375 -28.140625 C 8.367188 -28.140625 8.945312 -27.726562 9.21875 -26.90625 L 9.65625 -24.828125 C 10.144531 -25.367188 10.660156 -25.867188 11.203125 -26.328125 C 11.742188 -26.785156 12.320312 -27.175781 12.9375 -27.5 C 13.550781 -27.832031 14.207031 -28.09375 14.90625 -28.28125 C 15.613281 -28.476562 16.382812 -28.578125 17.21875 -28.578125 C 19 -28.578125 20.457031 -28.097656 21.59375 -27.140625 C 22.738281 -26.179688 23.597656 -24.90625 24.171875 -23.3125 C 24.609375 -24.25 25.15625 -25.050781 25.8125 -25.71875 C 26.46875 -26.382812 27.1875 -26.925781 27.96875 -27.34375 C 28.757812 -27.769531 29.597656 -28.082031 30.484375 -28.28125 C 31.367188 -28.476562 32.257812 -28.578125 33.15625 -28.578125 C 34.71875 -28.578125 36.097656 -28.335938 37.296875 -27.859375 C 38.503906 -27.390625 39.519531 -26.695312 40.34375 -25.78125 C 41.164062 -24.863281 41.789062 -23.75 42.21875 -22.4375 C 42.65625 -21.125 42.875 -19.613281 42.875 -17.90625 L 42.875 0 L 36.09375 0 L 36.09375 -17.90625 C 36.09375 -19.695312 35.695312 -21.046875 34.90625 -21.953125 C 34.125 -22.859375 32.976562 -23.3125 31.46875 -23.3125 C 30.769531 -23.3125 30.125 -23.191406 29.53125 -22.953125 C 28.9375 -22.722656 28.414062 -22.382812 27.96875 -21.9375 C 27.519531 -21.488281 27.164062 -20.925781 26.90625 -20.25 C 26.65625 -19.570312 26.53125 -18.789062 26.53125 -17.90625 L 26.53125 0 L 19.71875 0 L 19.71875 -17.90625 C 19.71875 -19.789062 19.335938 -21.160156 18.578125 -22.015625 C 17.816406 -22.878906 16.707031 -23.3125 15.25 -23.3125 C 14.257812 -23.3125 13.335938 -23.066406 12.484375 -22.578125 C 11.640625 -22.097656 10.851562 -21.4375 10.125 -20.59375 L 10.125 0 Z M 3.34375 0 "/></g></g></g><g fill="#ffffff" fill-opacity="1"><g transform="translate(463.018913, 110.22652)"><g><path d="M 21.484375 -17.3125 C 21.484375 -18.1875 21.359375 -19.007812 21.109375 -19.78125 C 20.859375 -20.5625 20.484375 -21.242188 19.984375 -21.828125 C 19.492188 -22.421875 18.867188 -22.882812 18.109375 -23.21875 C 17.359375 -23.5625 16.476562 -23.734375 15.46875 -23.734375 C 13.507812 -23.734375 11.96875 -23.171875 10.84375 -22.046875 C 9.71875 -20.929688 9 -19.351562 8.6875 -17.3125 Z M 8.5625 -13.21875 C 8.664062 -11.769531 8.914062 -10.519531 9.3125 -9.46875 C 9.71875 -8.425781 10.25 -7.5625 10.90625 -6.875 C 11.570312 -6.1875 12.359375 -5.671875 13.265625 -5.328125 C 14.171875 -4.992188 15.171875 -4.828125 16.265625 -4.828125 C 17.359375 -4.828125 18.300781 -4.953125 19.09375 -5.203125 C 19.894531 -5.460938 20.59375 -5.75 21.1875 -6.0625 C 21.78125 -6.375 22.300781 -6.65625 22.75 -6.90625 C 23.195312 -7.164062 23.632812 -7.296875 24.0625 -7.296875 C 24.625 -7.296875 25.039062 -7.085938 25.3125 -6.671875 L 27.265625 -4.203125 C 26.515625 -3.316406 25.671875 -2.578125 24.734375 -1.984375 C 23.804688 -1.390625 22.832031 -0.914062 21.8125 -0.5625 C 20.800781 -0.207031 19.769531 0.0390625 18.71875 0.1875 C 17.664062 0.332031 16.644531 0.40625 15.65625 0.40625 C 13.707031 0.40625 11.890625 0.0820312 10.203125 -0.5625 C 8.523438 -1.207031 7.0625 -2.164062 5.8125 -3.4375 C 4.570312 -4.707031 3.59375 -6.28125 2.875 -8.15625 C 2.164062 -10.03125 1.8125 -12.203125 1.8125 -14.671875 C 1.8125 -16.597656 2.117188 -18.40625 2.734375 -20.09375 C 3.359375 -21.78125 4.25 -23.25 5.40625 -24.5 C 6.570312 -25.757812 7.988281 -26.753906 9.65625 -27.484375 C 11.332031 -28.210938 13.222656 -28.578125 15.328125 -28.578125 C 17.109375 -28.578125 18.75 -28.289062 20.25 -27.71875 C 21.75 -27.15625 23.035156 -26.328125 24.109375 -25.234375 C 25.191406 -24.148438 26.035156 -22.816406 26.640625 -21.234375 C 27.253906 -19.660156 27.5625 -17.859375 27.5625 -15.828125 C 27.5625 -14.804688 27.453125 -14.113281 27.234375 -13.75 C 27.015625 -13.394531 26.59375 -13.21875 25.96875 -13.21875 Z M 8.5625 -13.21875 "/></g></g></g><g fill="#ffffff" fill-opacity="1"><g transform="translate(492.311096, 110.22652)"><g><path d="M 9.6875 -24.6875 C 10.25 -25.25 10.84375 -25.769531 11.46875 -26.25 C 12.101562 -26.738281 12.769531 -27.148438 13.46875 -27.484375 C 14.175781 -27.828125 14.929688 -28.09375 15.734375 -28.28125 C 16.546875 -28.476562 17.425781 -28.578125 18.375 -28.578125 C 19.914062 -28.578125 21.28125 -28.316406 22.46875 -27.796875 C 23.65625 -27.273438 24.644531 -26.539062 25.4375 -25.59375 C 26.238281 -24.65625 26.84375 -23.53125 27.25 -22.21875 C 27.664062 -20.914062 27.875 -19.476562 27.875 -17.90625 L 27.875 0 L 21.09375 0 L 21.09375 -17.90625 C 21.09375 -19.625 20.695312 -20.953125 19.90625 -21.890625 C 19.125 -22.835938 17.929688 -23.3125 16.328125 -23.3125 C 15.148438 -23.3125 14.050781 -23.046875 13.03125 -22.515625 C 12.007812 -21.984375 11.039062 -21.265625 10.125 -20.359375 L 10.125 0 L 3.34375 0 L 3.34375 -28.140625 L 7.484375 -28.140625 C 8.367188 -28.140625 8.945312 -27.726562 9.21875 -26.90625 Z M 9.6875 -24.6875 "/></g></g></g><g fill="#ffffff" fill-opacity="1"><g transform="translate(523.248897, 110.22652)"><g><path d="M 12.734375 0.4375 C 10.273438 0.4375 8.390625 -0.25 7.078125 -1.625 C 5.773438 -3.007812 5.125 -4.914062 5.125 -7.34375 L 5.125 -23.0625 L 2.25 -23.0625 C 1.882812 -23.0625 1.570312 -23.179688 1.3125 -23.421875 C 1.0625 -23.660156 0.9375 -24.019531 0.9375 -24.5 L 0.9375 -27.1875 L 5.453125 -27.921875 L 6.890625 -35.609375 C 6.972656 -35.972656 7.144531 -36.253906 7.40625 -36.453125 C 7.664062 -36.648438 7.992188 -36.75 8.390625 -36.75 L 11.90625 -36.75 L 11.90625 -27.890625 L 19.421875 -27.890625 L 19.421875 -23.0625 L 11.90625 -23.0625 L 11.90625 -7.8125 C 11.90625 -6.9375 12.117188 -6.25 12.546875 -5.75 C 12.972656 -5.257812 13.5625 -5.015625 14.3125 -5.015625 C 14.738281 -5.015625 15.09375 -5.066406 15.375 -5.171875 C 15.65625 -5.273438 15.898438 -5.378906 16.109375 -5.484375 C 16.328125 -5.597656 16.515625 -5.703125 16.671875 -5.796875 C 16.835938 -5.898438 17.003906 -5.953125 17.171875 -5.953125 C 17.367188 -5.953125 17.53125 -5.898438 17.65625 -5.796875 C 17.789062 -5.703125 17.929688 -5.550781 18.078125 -5.34375 L 20.109375 -2.0625 C 19.117188 -1.238281 17.984375 -0.613281 16.703125 -0.1875 C 15.421875 0.226562 14.097656 0.4375 12.734375 0.4375 Z M 12.734375 0.4375 "/></g></g></g><g fill="#ffffff" fill-opacity="1"><g transform="translate(543.654679, 110.22652)"><g><path d="M 20.515625 -22.65625 C 20.335938 -22.363281 20.144531 -22.15625 19.9375 -22.03125 C 19.738281 -21.914062 19.484375 -21.859375 19.171875 -21.859375 C 18.835938 -21.859375 18.484375 -21.945312 18.109375 -22.125 C 17.742188 -22.3125 17.3125 -22.519531 16.8125 -22.75 C 16.320312 -22.976562 15.757812 -23.179688 15.125 -23.359375 C 14.5 -23.546875 13.753906 -23.640625 12.890625 -23.640625 C 11.554688 -23.640625 10.507812 -23.351562 9.75 -22.78125 C 8.988281 -22.21875 8.609375 -21.484375 8.609375 -20.578125 C 8.609375 -19.972656 8.804688 -19.460938 9.203125 -19.046875 C 9.597656 -18.640625 10.117188 -18.28125 10.765625 -17.96875 C 11.410156 -17.65625 12.144531 -17.375 12.96875 -17.125 C 13.789062 -16.882812 14.628906 -16.613281 15.484375 -16.3125 C 16.335938 -16.019531 17.175781 -15.6875 18 -15.3125 C 18.820312 -14.9375 19.554688 -14.460938 20.203125 -13.890625 C 20.847656 -13.316406 21.367188 -12.625 21.765625 -11.8125 C 22.160156 -11.007812 22.359375 -10.046875 22.359375 -8.921875 C 22.359375 -7.566406 22.113281 -6.316406 21.625 -5.171875 C 21.144531 -4.023438 20.425781 -3.035156 19.46875 -2.203125 C 18.519531 -1.367188 17.347656 -0.71875 15.953125 -0.25 C 14.554688 0.207031 12.941406 0.4375 11.109375 0.4375 C 10.140625 0.4375 9.191406 0.347656 8.265625 0.171875 C 7.347656 0.00390625 6.460938 -0.234375 5.609375 -0.546875 C 4.753906 -0.859375 3.96875 -1.222656 3.25 -1.640625 C 2.53125 -2.066406 1.894531 -2.523438 1.34375 -3.015625 L 2.90625 -5.59375 C 3.101562 -5.90625 3.335938 -6.144531 3.609375 -6.3125 C 3.890625 -6.476562 4.238281 -6.5625 4.65625 -6.5625 C 5.082031 -6.5625 5.484375 -6.441406 5.859375 -6.203125 C 6.234375 -5.960938 6.664062 -5.703125 7.15625 -5.421875 C 7.65625 -5.148438 8.238281 -4.894531 8.90625 -4.65625 C 9.570312 -4.425781 10.414062 -4.3125 11.4375 -4.3125 C 12.238281 -4.3125 12.925781 -4.40625 13.5 -4.59375 C 14.082031 -4.78125 14.5625 -5.03125 14.9375 -5.34375 C 15.3125 -5.65625 15.582031 -6.015625 15.75 -6.421875 C 15.925781 -6.835938 16.015625 -7.265625 16.015625 -7.703125 C 16.015625 -8.359375 15.816406 -8.894531 15.421875 -9.3125 C 15.035156 -9.738281 14.515625 -10.109375 13.859375 -10.421875 C 13.210938 -10.734375 12.472656 -11.007812 11.640625 -11.25 C 10.804688 -11.5 9.957031 -11.769531 9.09375 -12.0625 C 8.226562 -12.363281 7.378906 -12.707031 6.546875 -13.09375 C 5.710938 -13.488281 4.96875 -13.988281 4.3125 -14.59375 C 3.664062 -15.195312 3.144531 -15.9375 2.75 -16.8125 C 2.363281 -17.6875 2.171875 -18.75 2.171875 -20 C 2.171875 -21.144531 2.394531 -22.238281 2.84375 -23.28125 C 3.300781 -24.320312 3.972656 -25.234375 4.859375 -26.015625 C 5.753906 -26.796875 6.863281 -27.414062 8.1875 -27.875 C 9.507812 -28.34375 11.039062 -28.578125 12.78125 -28.578125 C 14.71875 -28.578125 16.484375 -28.253906 18.078125 -27.609375 C 19.671875 -26.972656 20.992188 -26.132812 22.046875 -25.09375 Z M 20.515625 -22.65625 "/></g></g></g></svg>