<svg xmlns="http://www.w3.org/2000/svg" xmlns:xlink="http://www.w3.org/1999/xlink" width="1938" zoomAndPan="magnify" viewBox="0 0 1453.5 202.499994" height="270" preserveAspectRatio="xMidYMid meet" version="1.0"><defs><g/><clipPath id="d1ab13042d"><path d="M 1.539062 0 L 1451.460938 0 L 1451.460938 202 L 1.539062 202 Z M 1.539062 0 " clip-rule="nonzero"/></clipPath><clipPath id="82349a8f36"><path d="M 1.539062 0 L 1451.460938 0 L 1451.460938 201.894531 L 1.539062 201.894531 Z M 1.539062 0 " clip-rule="nonzero"/></clipPath><clipPath id="ffca46bed8"><path d="M 82.339844 154.878906 L 272.210938 154.878906 L 272.210938 158.621094 L 82.339844 158.621094 Z M 82.339844 154.878906 " clip-rule="nonzero"/></clipPath></defs><g clip-path="url(#d1ab13042d)"><path fill="#ffffff" d="M 1.539062 0 L 1451.460938 0 L 1451.460938 202 L 1.539062 202 Z M 1.539062 0 " fill-opacity="1" fill-rule="nonzero"/></g><g clip-path="url(#82349a8f36)"><path fill="#287ead" d="M 1.539062 0 L 1451.074219 0 L 1451.074219 201.894531 L 1.539062 201.894531 Z M 1.539062 0 " fill-opacity="1" fill-rule="nonzero"/></g><g clip-path="url(#ffca46bed8)"><path fill="#ffffff" d="M 82.339844 154.878906 L 272.214844 154.878906 L 272.214844 158.621094 L 82.339844 158.621094 Z M 82.339844 154.878906 " fill-opacity="1" fill-rule="nonzero"/></g><g fill="#ffffff" fill-opacity="1"><g transform="translate(82.341149, 126.903715)"><g><path d="M 37.859375 -39.65625 L 37.859375 0 L 34.0625 0 C 33.476562 0 32.988281 -0.09375 32.59375 -0.28125 C 32.207031 -0.476562 31.832031 -0.804688 31.46875 -1.265625 L 10.75 -27.703125 C 10.863281 -26.492188 10.921875 -25.378906 10.921875 -24.359375 L 10.921875 0 L 4.421875 0 L 4.421875 -39.65625 L 8.28125 -39.65625 C 8.59375 -39.65625 8.863281 -39.640625 9.09375 -39.609375 C 9.320312 -39.585938 9.519531 -39.535156 9.6875 -39.453125 C 9.863281 -39.367188 10.035156 -39.25 10.203125 -39.09375 C 10.367188 -38.945312 10.550781 -38.742188 10.75 -38.484375 L 31.546875 -11.9375 C 31.492188 -12.570312 31.445312 -13.195312 31.40625 -13.8125 C 31.375 -14.4375 31.359375 -15.015625 31.359375 -15.546875 L 31.359375 -39.65625 Z M 37.859375 -39.65625 "/></g></g></g><g fill="#ffffff" fill-opacity="1"><g transform="translate(124.611203, 126.903715)"><g><path d="M 15.796875 -28.578125 C 17.878906 -28.578125 19.773438 -28.238281 21.484375 -27.5625 C 23.203125 -26.882812 24.664062 -25.925781 25.875 -24.6875 C 27.09375 -23.445312 28.03125 -21.925781 28.6875 -20.125 C 29.34375 -18.332031 29.671875 -16.332031 29.671875 -14.125 C 29.671875 -11.894531 29.34375 -9.882812 28.6875 -8.09375 C 28.03125 -6.300781 27.09375 -4.773438 25.875 -3.515625 C 24.664062 -2.253906 23.203125 -1.285156 21.484375 -0.609375 C 19.773438 0.0664062 17.878906 0.40625 15.796875 0.40625 C 13.691406 0.40625 11.78125 0.0664062 10.0625 -0.609375 C 8.34375 -1.285156 6.875 -2.253906 5.65625 -3.515625 C 4.445312 -4.773438 3.507812 -6.300781 2.84375 -8.09375 C 2.175781 -9.882812 1.84375 -11.894531 1.84375 -14.125 C 1.84375 -16.332031 2.175781 -18.332031 2.84375 -20.125 C 3.507812 -21.925781 4.445312 -23.445312 5.65625 -24.6875 C 6.875 -25.925781 8.34375 -26.882812 10.0625 -27.5625 C 11.78125 -28.238281 13.691406 -28.578125 15.796875 -28.578125 Z M 15.796875 -4.796875 C 18.140625 -4.796875 19.875 -5.582031 21 -7.15625 C 22.125 -8.726562 22.6875 -11.035156 22.6875 -14.078125 C 22.6875 -17.109375 22.125 -19.414062 21 -21 C 19.875 -22.59375 18.140625 -23.390625 15.796875 -23.390625 C 13.421875 -23.390625 11.660156 -22.585938 10.515625 -20.984375 C 9.378906 -19.390625 8.8125 -17.085938 8.8125 -14.078125 C 8.8125 -11.054688 9.378906 -8.753906 10.515625 -7.171875 C 11.660156 -5.585938 13.421875 -4.796875 15.796875 -4.796875 Z M 15.796875 -4.796875 "/></g></g></g><g fill="#ffffff" fill-opacity="1"><g transform="translate(156.128595, 126.903715)"><g><path d="M 9.6875 -24.6875 C 10.25 -25.25 10.84375 -25.769531 11.46875 -26.25 C 12.101562 -26.738281 12.769531 -27.148438 13.46875 -27.484375 C 14.175781 -27.828125 14.929688 -28.09375 15.734375 -28.28125 C 16.546875 -28.476562 17.425781 -28.578125 18.375 -28.578125 C 19.914062 -28.578125 21.28125 -28.316406 22.46875 -27.796875 C 23.65625 -27.273438 24.644531 -26.539062 25.4375 -25.59375 C 26.238281 -24.65625 26.84375 -23.53125 27.25 -22.21875 C 27.664062 -20.914062 27.875 -19.476562 27.875 -17.90625 L 27.875 0 L 21.09375 0 L 21.09375 -17.90625 C 21.09375 -19.625 20.695312 -20.953125 19.90625 -21.890625 C 19.125 -22.835938 17.929688 -23.3125 16.328125 -23.3125 C 15.148438 -23.3125 14.050781 -23.046875 13.03125 -22.515625 C 12.007812 -21.984375 11.039062 -21.265625 10.125 -20.359375 L 10.125 0 L 3.34375 0 L 3.34375 -28.140625 L 7.484375 -28.140625 C 8.367188 -28.140625 8.945312 -27.726562 9.21875 -26.90625 Z M 9.6875 -24.6875 "/></g></g></g><g fill="#ffffff" fill-opacity="1"><g transform="translate(187.069952, 126.903715)"><g><path d="M 3.125 -19.390625 L 17.328125 -19.390625 L 17.328125 -13.75 L 3.125 -13.75 Z M 3.125 -19.390625 "/></g></g></g><g fill="#ffffff" fill-opacity="1"><g transform="translate(207.532936, 126.903715)"><g><path d="M 17.3125 -19.71875 C 18.664062 -19.71875 19.84375 -19.882812 20.84375 -20.21875 C 21.851562 -20.5625 22.691406 -21.046875 23.359375 -21.671875 C 24.023438 -22.304688 24.519531 -23.078125 24.84375 -23.984375 C 25.175781 -24.890625 25.34375 -25.898438 25.34375 -27.015625 C 25.34375 -28.078125 25.175781 -29.035156 24.84375 -29.890625 C 24.519531 -30.753906 24.023438 -31.488281 23.359375 -32.09375 C 22.703125 -32.695312 21.867188 -33.15625 20.859375 -33.46875 C 19.859375 -33.789062 18.675781 -33.953125 17.3125 -33.953125 L 11.796875 -33.953125 L 11.796875 -19.71875 Z M 17.3125 -39.65625 C 19.957031 -39.65625 22.25 -39.34375 24.1875 -38.71875 C 26.125 -38.101562 27.722656 -37.238281 28.984375 -36.125 C 30.253906 -35.007812 31.191406 -33.671875 31.796875 -32.109375 C 32.410156 -30.554688 32.71875 -28.859375 32.71875 -27.015625 C 32.71875 -25.097656 32.394531 -23.335938 31.75 -21.734375 C 31.113281 -20.140625 30.15625 -18.765625 28.875 -17.609375 C 27.601562 -16.453125 26 -15.554688 24.0625 -14.921875 C 22.132812 -14.285156 19.882812 -13.96875 17.3125 -13.96875 L 11.796875 -13.96875 L 11.796875 0 L 4.421875 0 L 4.421875 -39.65625 Z M 17.3125 -39.65625 "/></g></g></g><g fill="#ffffff" fill-opacity="1"><g transform="translate(241.491619, 126.903715)"><g><path d="M 9.734375 -23.265625 C 10.609375 -24.941406 11.648438 -26.257812 12.859375 -27.21875 C 14.066406 -28.175781 15.492188 -28.65625 17.140625 -28.65625 C 18.441406 -28.65625 19.484375 -28.375 20.265625 -27.8125 L 19.828125 -22.734375 C 19.734375 -22.410156 19.597656 -22.175781 19.421875 -22.03125 C 19.253906 -21.894531 19.023438 -21.828125 18.734375 -21.828125 C 18.460938 -21.828125 18.054688 -21.875 17.515625 -21.96875 C 16.972656 -22.0625 16.445312 -22.109375 15.9375 -22.109375 C 15.1875 -22.109375 14.519531 -22 13.9375 -21.78125 C 13.351562 -21.5625 12.828125 -21.242188 12.359375 -20.828125 C 11.890625 -20.421875 11.476562 -19.921875 11.125 -19.328125 C 10.769531 -18.742188 10.4375 -18.078125 10.125 -17.328125 L 10.125 0 L 3.34375 0 L 3.34375 -28.140625 L 7.328125 -28.140625 C 8.015625 -28.140625 8.492188 -28.015625 8.765625 -27.765625 C 9.046875 -27.523438 9.234375 -27.082031 9.328125 -26.4375 Z M 9.734375 -23.265625 "/></g></g></g><g fill="#ffffff" fill-opacity="1"><g transform="translate(261.954603, 126.903715)"><g><path d="M 15.796875 -28.578125 C 17.878906 -28.578125 19.773438 -28.238281 21.484375 -27.5625 C 23.203125 -26.882812 24.664062 -25.925781 25.875 -24.6875 C 27.09375 -23.445312 28.03125 -21.925781 28.6875 -20.125 C 29.34375 -18.332031 29.671875 -16.332031 29.671875 -14.125 C 29.671875 -11.894531 29.34375 -9.882812 28.6875 -8.09375 C 28.03125 -6.300781 27.09375 -4.773438 25.875 -3.515625 C 24.664062 -2.253906 23.203125 -1.285156 21.484375 -0.609375 C 19.773438 0.0664062 17.878906 0.40625 15.796875 0.40625 C 13.691406 0.40625 11.78125 0.0664062 10.0625 -0.609375 C 8.34375 -1.285156 6.875 -2.253906 5.65625 -3.515625 C 4.445312 -4.773438 3.507812 -6.300781 2.84375 -8.09375 C 2.175781 -9.882812 1.84375 -11.894531 1.84375 -14.125 C 1.84375 -16.332031 2.175781 -18.332031 2.84375 -20.125 C 3.507812 -21.925781 4.445312 -23.445312 5.65625 -24.6875 C 6.875 -25.925781 8.34375 -26.882812 10.0625 -27.5625 C 11.78125 -28.238281 13.691406 -28.578125 15.796875 -28.578125 Z M 15.796875 -4.796875 C 18.140625 -4.796875 19.875 -5.582031 21 -7.15625 C 22.125 -8.726562 22.6875 -11.035156 22.6875 -14.078125 C 22.6875 -17.109375 22.125 -19.414062 21 -21 C 19.875 -22.59375 18.140625 -23.390625 15.796875 -23.390625 C 13.421875 -23.390625 11.660156 -22.585938 10.515625 -20.984375 C 9.378906 -19.390625 8.8125 -17.085938 8.8125 -14.078125 C 8.8125 -11.054688 9.378906 -8.753906 10.515625 -7.171875 C 11.660156 -5.585938 13.421875 -4.796875 15.796875 -4.796875 Z M 15.796875 -4.796875 "/></g></g></g><g fill="#ffffff" fill-opacity="1"><g transform="translate(293.471984, 126.903715)"><g><path d="M 5.328125 0 L 5.328125 -23.046875 L 2.875 -23.421875 C 2.34375 -23.535156 1.914062 -23.722656 1.59375 -23.984375 C 1.28125 -24.253906 1.125 -24.632812 1.125 -25.125 L 1.125 -27.890625 L 5.328125 -27.890625 L 5.328125 -29.984375 C 5.328125 -31.585938 5.566406 -33.03125 6.046875 -34.3125 C 6.535156 -35.59375 7.226562 -36.679688 8.125 -37.578125 C 9.03125 -38.472656 10.132812 -39.15625 11.4375 -39.625 C 12.738281 -40.101562 14.203125 -40.34375 15.828125 -40.34375 C 17.128906 -40.34375 18.335938 -40.171875 19.453125 -39.828125 L 19.3125 -36.421875 C 19.289062 -36.171875 19.21875 -35.96875 19.09375 -35.8125 C 18.96875 -35.65625 18.796875 -35.535156 18.578125 -35.453125 C 18.367188 -35.367188 18.125 -35.3125 17.84375 -35.28125 C 17.570312 -35.257812 17.285156 -35.25 16.984375 -35.25 C 16.171875 -35.25 15.445312 -35.160156 14.8125 -34.984375 C 14.1875 -34.804688 13.65625 -34.503906 13.21875 -34.078125 C 12.78125 -33.648438 12.445312 -33.082031 12.21875 -32.375 C 11.988281 -31.675781 11.875 -30.804688 11.875 -29.765625 L 11.875 -27.890625 L 19.203125 -27.890625 L 19.203125 -23.0625 L 12.09375 -23.0625 L 12.09375 0 Z M 5.328125 0 "/></g></g></g><g fill="#ffffff" fill-opacity="1"><g transform="translate(313.139485, 126.903715)"><g><path d="M 10.375 -28.140625 L 10.375 0 L 3.5625 0 L 3.5625 -28.140625 Z M 11.296875 -36.34375 C 11.296875 -35.757812 11.175781 -35.210938 10.9375 -34.703125 C 10.707031 -34.191406 10.394531 -33.742188 10 -33.359375 C 9.601562 -32.972656 9.140625 -32.664062 8.609375 -32.4375 C 8.078125 -32.207031 7.507812 -32.09375 6.90625 -32.09375 C 6.320312 -32.09375 5.769531 -32.207031 5.25 -32.4375 C 4.726562 -32.664062 4.273438 -32.972656 3.890625 -33.359375 C 3.503906 -33.742188 3.195312 -34.191406 2.96875 -34.703125 C 2.75 -35.210938 2.640625 -35.757812 2.640625 -36.34375 C 2.640625 -36.945312 2.75 -37.515625 2.96875 -38.046875 C 3.195312 -38.578125 3.503906 -39.035156 3.890625 -39.421875 C 4.273438 -39.804688 4.726562 -40.109375 5.25 -40.328125 C 5.769531 -40.554688 6.320312 -40.671875 6.90625 -40.671875 C 7.507812 -40.671875 8.078125 -40.554688 8.609375 -40.328125 C 9.140625 -40.109375 9.601562 -39.804688 10 -39.421875 C 10.394531 -39.035156 10.707031 -38.578125 10.9375 -38.046875 C 11.175781 -37.515625 11.296875 -36.945312 11.296875 -36.34375 Z M 11.296875 -36.34375 "/></g></g></g><g fill="#ffffff" fill-opacity="1"><g transform="translate(327.074056, 126.903715)"><g><path d="M 12.734375 0.4375 C 10.273438 0.4375 8.390625 -0.25 7.078125 -1.625 C 5.773438 -3.007812 5.125 -4.914062 5.125 -7.34375 L 5.125 -23.0625 L 2.25 -23.0625 C 1.882812 -23.0625 1.570312 -23.179688 1.3125 -23.421875 C 1.0625 -23.660156 0.9375 -24.019531 0.9375 -24.5 L 0.9375 -27.1875 L 5.453125 -27.921875 L 6.890625 -35.609375 C 6.972656 -35.972656 7.144531 -36.253906 7.40625 -36.453125 C 7.664062 -36.648438 7.992188 -36.75 8.390625 -36.75 L 11.90625 -36.75 L 11.90625 -27.890625 L 19.421875 -27.890625 L 19.421875 -23.0625 L 11.90625 -23.0625 L 11.90625 -7.8125 C 11.90625 -6.9375 12.117188 -6.25 12.546875 -5.75 C 12.972656 -5.257812 13.5625 -5.015625 14.3125 -5.015625 C 14.738281 -5.015625 15.09375 -5.066406 15.375 -5.171875 C 15.65625 -5.273438 15.898438 -5.378906 16.109375 -5.484375 C 16.328125 -5.597656 16.515625 -5.703125 16.671875 -5.796875 C 16.835938 -5.898438 17.003906 -5.953125 17.171875 -5.953125 C 17.367188 -5.953125 17.53125 -5.898438 17.65625 -5.796875 C 17.789062 -5.703125 17.929688 -5.550781 18.078125 -5.34375 L 20.109375 -2.0625 C 19.117188 -1.238281 17.984375 -0.613281 16.703125 -0.1875 C 15.421875 0.226562 14.097656 0.4375 12.734375 0.4375 Z M 12.734375 0.4375 "/></g></g></g><g fill="#ffffff" fill-opacity="1"><g transform="translate(347.482176, 126.903715)"><g/></g></g><g fill="#ffffff" fill-opacity="1"><g transform="translate(360.813303, 126.903715)"><g><path d="M 42.234375 -19.828125 C 42.234375 -16.921875 41.753906 -14.226562 40.796875 -11.75 C 39.835938 -9.269531 38.476562 -7.125 36.71875 -5.3125 C 34.96875 -3.507812 32.859375 -2.097656 30.390625 -1.078125 C 27.921875 -0.0664062 25.175781 0.4375 22.15625 0.4375 C 19.164062 0.4375 16.4375 -0.0664062 13.96875 -1.078125 C 11.5 -2.097656 9.378906 -3.507812 7.609375 -5.3125 C 5.847656 -7.125 4.484375 -9.269531 3.515625 -11.75 C 2.546875 -14.226562 2.0625 -16.921875 2.0625 -19.828125 C 2.0625 -22.734375 2.546875 -25.425781 3.515625 -27.90625 C 4.484375 -30.382812 5.847656 -32.53125 7.609375 -34.34375 C 9.378906 -36.15625 11.5 -37.566406 13.96875 -38.578125 C 16.4375 -39.597656 19.164062 -40.109375 22.15625 -40.109375 C 24.175781 -40.109375 26.070312 -39.875 27.84375 -39.40625 C 29.613281 -38.9375 31.238281 -38.273438 32.71875 -37.421875 C 34.195312 -36.578125 35.523438 -35.546875 36.703125 -34.328125 C 37.890625 -33.109375 38.894531 -31.75 39.71875 -30.25 C 40.539062 -28.75 41.164062 -27.117188 41.59375 -25.359375 C 42.019531 -23.609375 42.234375 -21.765625 42.234375 -19.828125 Z M 34.703125 -19.828125 C 34.703125 -22.003906 34.40625 -23.957031 33.8125 -25.6875 C 33.226562 -27.414062 32.394531 -28.882812 31.3125 -30.09375 C 30.238281 -31.300781 28.929688 -32.222656 27.390625 -32.859375 C 25.847656 -33.503906 24.101562 -33.828125 22.15625 -33.828125 C 20.21875 -33.828125 18.476562 -33.503906 16.9375 -32.859375 C 15.394531 -32.222656 14.078125 -31.300781 12.984375 -30.09375 C 11.898438 -28.882812 11.0625 -27.414062 10.46875 -25.6875 C 9.882812 -23.957031 9.59375 -22.003906 9.59375 -19.828125 C 9.59375 -17.648438 9.882812 -15.695312 10.46875 -13.96875 C 11.0625 -12.25 11.898438 -10.789062 12.984375 -9.59375 C 14.078125 -8.394531 15.394531 -7.472656 16.9375 -6.828125 C 18.476562 -6.191406 20.21875 -5.875 22.15625 -5.875 C 24.101562 -5.875 25.847656 -6.191406 27.390625 -6.828125 C 28.929688 -7.472656 30.238281 -8.394531 31.3125 -9.59375 C 32.394531 -10.789062 33.226562 -12.25 33.8125 -13.96875 C 34.40625 -15.695312 34.703125 -17.648438 34.703125 -19.828125 Z M 34.703125 -19.828125 "/></g></g></g><g fill="#ffffff" fill-opacity="1"><g transform="translate(405.140617, 126.903715)"><g><path d="M 9.734375 -23.265625 C 10.609375 -24.941406 11.648438 -26.257812 12.859375 -27.21875 C 14.066406 -28.175781 15.492188 -28.65625 17.140625 -28.65625 C 18.441406 -28.65625 19.484375 -28.375 20.265625 -27.8125 L 19.828125 -22.734375 C 19.734375 -22.410156 19.597656 -22.175781 19.421875 -22.03125 C 19.253906 -21.894531 19.023438 -21.828125 18.734375 -21.828125 C 18.460938 -21.828125 18.054688 -21.875 17.515625 -21.96875 C 16.972656 -22.0625 16.445312 -22.109375 15.9375 -22.109375 C 15.1875 -22.109375 14.519531 -22 13.9375 -21.78125 C 13.351562 -21.5625 12.828125 -21.242188 12.359375 -20.828125 C 11.890625 -20.421875 11.476562 -19.921875 11.125 -19.328125 C 10.769531 -18.742188 10.4375 -18.078125 10.125 -17.328125 L 10.125 0 L 3.34375 0 L 3.34375 -28.140625 L 7.328125 -28.140625 C 8.015625 -28.140625 8.492188 -28.015625 8.765625 -27.765625 C 9.046875 -27.523438 9.234375 -27.082031 9.328125 -26.4375 Z M 9.734375 -23.265625 "/></g></g></g><g fill="#ffffff" fill-opacity="1"><g transform="translate(425.603601, 126.903715)"><g><path d="M 13.625 -14.75 C 14.46875 -14.75 15.203125 -14.863281 15.828125 -15.09375 C 16.453125 -15.320312 16.96875 -15.640625 17.375 -16.046875 C 17.789062 -16.453125 18.101562 -16.9375 18.3125 -17.5 C 18.519531 -18.0625 18.625 -18.679688 18.625 -19.359375 C 18.625 -20.753906 18.207031 -21.859375 17.375 -22.671875 C 16.539062 -23.484375 15.289062 -23.890625 13.625 -23.890625 C 11.96875 -23.890625 10.722656 -23.484375 9.890625 -22.671875 C 9.054688 -21.859375 8.640625 -20.753906 8.640625 -19.359375 C 8.640625 -18.703125 8.742188 -18.085938 8.953125 -17.515625 C 9.160156 -16.953125 9.46875 -16.460938 9.875 -16.046875 C 10.289062 -15.640625 10.8125 -15.320312 11.4375 -15.09375 C 12.070312 -14.863281 12.800781 -14.75 13.625 -14.75 Z M 21.28125 1.265625 C 21.28125 0.710938 21.113281 0.265625 20.78125 -0.078125 C 20.457031 -0.429688 20.007812 -0.703125 19.4375 -0.890625 C 18.875 -1.078125 18.210938 -1.21875 17.453125 -1.3125 C 16.703125 -1.40625 15.898438 -1.472656 15.046875 -1.515625 C 14.191406 -1.566406 13.3125 -1.609375 12.40625 -1.640625 C 11.5 -1.679688 10.617188 -1.753906 9.765625 -1.859375 C 9.015625 -1.441406 8.40625 -0.945312 7.9375 -0.375 C 7.46875 0.1875 7.234375 0.84375 7.234375 1.59375 C 7.234375 2.082031 7.359375 2.539062 7.609375 2.96875 C 7.859375 3.40625 8.25 3.773438 8.78125 4.078125 C 9.320312 4.390625 10.019531 4.632812 10.875 4.8125 C 11.738281 4.988281 12.796875 5.078125 14.046875 5.078125 C 15.304688 5.078125 16.390625 4.976562 17.296875 4.78125 C 18.210938 4.59375 18.96875 4.328125 19.5625 3.984375 C 20.164062 3.648438 20.601562 3.25 20.875 2.78125 C 21.144531 2.3125 21.28125 1.804688 21.28125 1.265625 Z M 28.03125 -27.1875 L 28.03125 -24.65625 C 28.03125 -23.851562 27.546875 -23.359375 26.578125 -23.171875 L 24.0625 -22.71875 C 24.4375 -21.75 24.625 -20.6875 24.625 -19.53125 C 24.625 -18.132812 24.34375 -16.875 23.78125 -15.75 C 23.226562 -14.632812 22.457031 -13.679688 21.46875 -12.890625 C 20.488281 -12.109375 19.328125 -11.5 17.984375 -11.0625 C 16.640625 -10.632812 15.1875 -10.421875 13.625 -10.421875 C 13.082031 -10.421875 12.554688 -10.445312 12.046875 -10.5 C 11.535156 -10.5625 11.03125 -10.632812 10.53125 -10.71875 C 9.65625 -10.1875 9.21875 -9.59375 9.21875 -8.9375 C 9.21875 -8.375 9.476562 -7.957031 10 -7.6875 C 10.519531 -7.425781 11.207031 -7.238281 12.0625 -7.125 C 12.925781 -7.019531 13.90625 -6.953125 15 -6.921875 C 16.101562 -6.898438 17.226562 -6.84375 18.375 -6.75 C 19.53125 -6.65625 20.65625 -6.492188 21.75 -6.265625 C 22.84375 -6.035156 23.816406 -5.671875 24.671875 -5.171875 C 25.535156 -4.679688 26.226562 -4.007812 26.75 -3.15625 C 27.28125 -2.3125 27.546875 -1.222656 27.546875 0.109375 C 27.546875 1.347656 27.238281 2.550781 26.625 3.71875 C 26.007812 4.894531 25.117188 5.941406 23.953125 6.859375 C 22.796875 7.773438 21.367188 8.507812 19.671875 9.0625 C 17.984375 9.625 16.0625 9.90625 13.90625 9.90625 C 11.78125 9.90625 9.929688 9.695312 8.359375 9.28125 C 6.785156 8.875 5.476562 8.328125 4.4375 7.640625 C 3.394531 6.953125 2.617188 6.160156 2.109375 5.265625 C 1.597656 4.367188 1.34375 3.4375 1.34375 2.46875 C 1.34375 1.15625 1.738281 0.0546875 2.53125 -0.828125 C 3.332031 -1.722656 4.425781 -2.4375 5.8125 -2.96875 C 5.0625 -3.34375 4.46875 -3.847656 4.03125 -4.484375 C 3.59375 -5.128906 3.375 -5.972656 3.375 -7.015625 C 3.375 -7.441406 3.453125 -7.878906 3.609375 -8.328125 C 3.765625 -8.773438 3.992188 -9.21875 4.296875 -9.65625 C 4.597656 -10.09375 4.972656 -10.507812 5.421875 -10.90625 C 5.878906 -11.300781 6.421875 -11.648438 7.046875 -11.953125 C 5.617188 -12.722656 4.5 -13.75 3.6875 -15.03125 C 2.875 -16.3125 2.46875 -17.8125 2.46875 -19.53125 C 2.46875 -20.914062 2.742188 -22.171875 3.296875 -23.296875 C 3.859375 -24.421875 4.632812 -25.378906 5.625 -26.171875 C 6.625 -26.972656 7.804688 -27.582031 9.171875 -28 C 10.535156 -28.425781 12.019531 -28.640625 13.625 -28.640625 C 14.832031 -28.640625 15.96875 -28.515625 17.03125 -28.265625 C 18.09375 -28.015625 19.0625 -27.65625 19.9375 -27.1875 Z M 28.03125 -27.1875 "/></g></g></g><g fill="#ffffff" fill-opacity="1"><g transform="translate(454.569973, 126.903715)"><g><path d="M 18.21875 -12.015625 C 16.257812 -11.921875 14.613281 -11.75 13.28125 -11.5 C 11.945312 -11.257812 10.875 -10.945312 10.0625 -10.5625 C 9.257812 -10.175781 8.679688 -9.726562 8.328125 -9.21875 C 7.984375 -8.707031 7.8125 -8.148438 7.8125 -7.546875 C 7.8125 -6.359375 8.160156 -5.503906 8.859375 -4.984375 C 9.566406 -4.472656 10.488281 -4.21875 11.625 -4.21875 C 13.019531 -4.21875 14.222656 -4.46875 15.234375 -4.96875 C 16.253906 -5.476562 17.25 -6.242188 18.21875 -7.265625 Z M 2.6875 -24.21875 C 5.925781 -27.175781 9.820312 -28.65625 14.375 -28.65625 C 16.019531 -28.65625 17.488281 -28.382812 18.78125 -27.84375 C 20.082031 -27.3125 21.179688 -26.566406 22.078125 -25.609375 C 22.972656 -24.648438 23.65625 -23.5 24.125 -22.15625 C 24.59375 -20.820312 24.828125 -19.363281 24.828125 -17.78125 L 24.828125 0 L 21.75 0 C 21.113281 0 20.617188 -0.09375 20.265625 -0.28125 C 19.921875 -0.476562 19.648438 -0.867188 19.453125 -1.453125 L 18.84375 -3.484375 C 18.132812 -2.847656 17.441406 -2.285156 16.765625 -1.796875 C 16.085938 -1.304688 15.378906 -0.894531 14.640625 -0.5625 C 13.910156 -0.238281 13.128906 0.00390625 12.296875 0.171875 C 11.460938 0.347656 10.546875 0.4375 9.546875 0.4375 C 8.359375 0.4375 7.257812 0.28125 6.25 -0.03125 C 5.25 -0.351562 4.378906 -0.832031 3.640625 -1.46875 C 2.910156 -2.113281 2.34375 -2.910156 1.9375 -3.859375 C 1.539062 -4.816406 1.34375 -5.925781 1.34375 -7.1875 C 1.34375 -7.894531 1.460938 -8.601562 1.703125 -9.3125 C 1.941406 -10.019531 2.328125 -10.691406 2.859375 -11.328125 C 3.398438 -11.960938 4.097656 -12.5625 4.953125 -13.125 C 5.816406 -13.695312 6.875 -14.191406 8.125 -14.609375 C 9.382812 -15.035156 10.84375 -15.378906 12.5 -15.640625 C 14.164062 -15.910156 16.070312 -16.070312 18.21875 -16.125 L 18.21875 -17.78125 C 18.21875 -19.65625 17.8125 -21.046875 17 -21.953125 C 16.195312 -22.859375 15.035156 -23.3125 13.515625 -23.3125 C 12.421875 -23.3125 11.507812 -23.179688 10.78125 -22.921875 C 10.0625 -22.671875 9.425781 -22.382812 8.875 -22.0625 C 8.332031 -21.75 7.835938 -21.460938 7.390625 -21.203125 C 6.941406 -20.941406 6.441406 -20.8125 5.890625 -20.8125 C 5.421875 -20.8125 5.019531 -20.9375 4.6875 -21.1875 C 4.363281 -21.4375 4.097656 -21.722656 3.890625 -22.046875 Z M 2.6875 -24.21875 "/></g></g></g><g fill="#ffffff" fill-opacity="1"><g transform="translate(482.411718, 126.903715)"><g><path d="M 9.6875 -24.6875 C 10.25 -25.25 10.84375 -25.769531 11.46875 -26.25 C 12.101562 -26.738281 12.769531 -27.148438 13.46875 -27.484375 C 14.175781 -27.828125 14.929688 -28.09375 15.734375 -28.28125 C 16.546875 -28.476562 17.425781 -28.578125 18.375 -28.578125 C 19.914062 -28.578125 21.28125 -28.316406 22.46875 -27.796875 C 23.65625 -27.273438 24.644531 -26.539062 25.4375 -25.59375 C 26.238281 -24.65625 26.84375 -23.53125 27.25 -22.21875 C 27.664062 -20.914062 27.875 -19.476562 27.875 -17.90625 L 27.875 0 L 21.09375 0 L 21.09375 -17.90625 C 21.09375 -19.625 20.695312 -20.953125 19.90625 -21.890625 C 19.125 -22.835938 17.929688 -23.3125 16.328125 -23.3125 C 15.148438 -23.3125 14.050781 -23.046875 13.03125 -22.515625 C 12.007812 -21.984375 11.039062 -21.265625 10.125 -20.359375 L 10.125 0 L 3.34375 0 L 3.34375 -28.140625 L 7.484375 -28.140625 C 8.367188 -28.140625 8.945312 -27.726562 9.21875 -26.90625 Z M 9.6875 -24.6875 "/></g></g></g><g fill="#ffffff" fill-opacity="1"><g transform="translate(513.353063, 126.903715)"><g><path d="M 10.375 -28.140625 L 10.375 0 L 3.5625 0 L 3.5625 -28.140625 Z M 11.296875 -36.34375 C 11.296875 -35.757812 11.175781 -35.210938 10.9375 -34.703125 C 10.707031 -34.191406 10.394531 -33.742188 10 -33.359375 C 9.601562 -32.972656 9.140625 -32.664062 8.609375 -32.4375 C 8.078125 -32.207031 7.507812 -32.09375 6.90625 -32.09375 C 6.320312 -32.09375 5.769531 -32.207031 5.25 -32.4375 C 4.726562 -32.664062 4.273438 -32.972656 3.890625 -33.359375 C 3.503906 -33.742188 3.195312 -34.191406 2.96875 -34.703125 C 2.75 -35.210938 2.640625 -35.757812 2.640625 -36.34375 C 2.640625 -36.945312 2.75 -37.515625 2.96875 -38.046875 C 3.195312 -38.578125 3.503906 -39.035156 3.890625 -39.421875 C 4.273438 -39.804688 4.726562 -40.109375 5.25 -40.328125 C 5.769531 -40.554688 6.320312 -40.671875 6.90625 -40.671875 C 7.507812 -40.671875 8.078125 -40.554688 8.609375 -40.328125 C 9.140625 -40.109375 9.601562 -39.804688 10 -39.421875 C 10.394531 -39.035156 10.707031 -38.578125 10.9375 -38.046875 C 11.175781 -37.515625 11.296875 -36.945312 11.296875 -36.34375 Z M 11.296875 -36.34375 "/></g></g></g><g fill="#ffffff" fill-opacity="1"><g transform="translate(527.287635, 126.903715)"><g><path d="M 20.515625 -22.65625 C 20.335938 -22.363281 20.144531 -22.15625 19.9375 -22.03125 C 19.738281 -21.914062 19.484375 -21.859375 19.171875 -21.859375 C 18.835938 -21.859375 18.484375 -21.945312 18.109375 -22.125 C 17.742188 -22.3125 17.3125 -22.519531 16.8125 -22.75 C 16.320312 -22.976562 15.757812 -23.179688 15.125 -23.359375 C 14.5 -23.546875 13.753906 -23.640625 12.890625 -23.640625 C 11.554688 -23.640625 10.507812 -23.351562 9.75 -22.78125 C 8.988281 -22.21875 8.609375 -21.484375 8.609375 -20.578125 C 8.609375 -19.972656 8.804688 -19.460938 9.203125 -19.046875 C 9.597656 -18.640625 10.117188 -18.28125 10.765625 -17.96875 C 11.410156 -17.65625 12.144531 -17.375 12.96875 -17.125 C 13.789062 -16.882812 14.628906 -16.613281 15.484375 -16.3125 C 16.335938 -16.019531 17.175781 -15.6875 18 -15.3125 C 18.820312 -14.9375 19.554688 -14.460938 20.203125 -13.890625 C 20.847656 -13.316406 21.367188 -12.625 21.765625 -11.8125 C 22.160156 -11.007812 22.359375 -10.046875 22.359375 -8.921875 C 22.359375 -7.566406 22.113281 -6.316406 21.625 -5.171875 C 21.144531 -4.023438 20.425781 -3.035156 19.46875 -2.203125 C 18.519531 -1.367188 17.347656 -0.71875 15.953125 -0.25 C 14.554688 0.207031 12.941406 0.4375 11.109375 0.4375 C 10.140625 0.4375 9.191406 0.347656 8.265625 0.171875 C 7.347656 0.00390625 6.460938 -0.234375 5.609375 -0.546875 C 4.753906 -0.859375 3.96875 -1.222656 3.25 -1.640625 C 2.53125 -2.066406 1.894531 -2.523438 1.34375 -3.015625 L 2.90625 -5.59375 C 3.101562 -5.90625 3.335938 -6.144531 3.609375 -6.3125 C 3.890625 -6.476562 4.238281 -6.5625 4.65625 -6.5625 C 5.082031 -6.5625 5.484375 -6.441406 5.859375 -6.203125 C 6.234375 -5.960938 6.664062 -5.703125 7.15625 -5.421875 C 7.65625 -5.148438 8.238281 -4.894531 8.90625 -4.65625 C 9.570312 -4.425781 10.414062 -4.3125 11.4375 -4.3125 C 12.238281 -4.3125 12.925781 -4.40625 13.5 -4.59375 C 14.082031 -4.78125 14.5625 -5.03125 14.9375 -5.34375 C 15.3125 -5.65625 15.582031 -6.015625 15.75 -6.421875 C 15.925781 -6.835938 16.015625 -7.265625 16.015625 -7.703125 C 16.015625 -8.359375 15.816406 -8.894531 15.421875 -9.3125 C 15.035156 -9.738281 14.515625 -10.109375 13.859375 -10.421875 C 13.210938 -10.734375 12.472656 -11.007812 11.640625 -11.25 C 10.804688 -11.5 9.957031 -11.769531 9.09375 -12.0625 C 8.226562 -12.363281 7.378906 -12.707031 6.546875 -13.09375 C 5.710938 -13.488281 4.96875 -13.988281 4.3125 -14.59375 C 3.664062 -15.195312 3.144531 -15.9375 2.75 -16.8125 C 2.363281 -17.6875 2.171875 -18.75 2.171875 -20 C 2.171875 -21.144531 2.394531 -22.238281 2.84375 -23.28125 C 3.300781 -24.320312 3.972656 -25.234375 4.859375 -26.015625 C 5.753906 -26.796875 6.863281 -27.414062 8.1875 -27.875 C 9.507812 -28.34375 11.039062 -28.578125 12.78125 -28.578125 C 14.71875 -28.578125 16.484375 -28.253906 18.078125 -27.609375 C 19.671875 -26.972656 20.992188 -26.132812 22.046875 -25.09375 Z M 20.515625 -22.65625 "/></g></g></g><g fill="#ffffff" fill-opacity="1"><g transform="translate(551.398845, 126.903715)"><g><path d="M 18.21875 -12.015625 C 16.257812 -11.921875 14.613281 -11.75 13.28125 -11.5 C 11.945312 -11.257812 10.875 -10.945312 10.0625 -10.5625 C 9.257812 -10.175781 8.679688 -9.726562 8.328125 -9.21875 C 7.984375 -8.707031 7.8125 -8.148438 7.8125 -7.546875 C 7.8125 -6.359375 8.160156 -5.503906 8.859375 -4.984375 C 9.566406 -4.472656 10.488281 -4.21875 11.625 -4.21875 C 13.019531 -4.21875 14.222656 -4.46875 15.234375 -4.96875 C 16.253906 -5.476562 17.25 -6.242188 18.21875 -7.265625 Z M 2.6875 -24.21875 C 5.925781 -27.175781 9.820312 -28.65625 14.375 -28.65625 C 16.019531 -28.65625 17.488281 -28.382812 18.78125 -27.84375 C 20.082031 -27.3125 21.179688 -26.566406 22.078125 -25.609375 C 22.972656 -24.648438 23.65625 -23.5 24.125 -22.15625 C 24.59375 -20.820312 24.828125 -19.363281 24.828125 -17.78125 L 24.828125 0 L 21.75 0 C 21.113281 0 20.617188 -0.09375 20.265625 -0.28125 C 19.921875 -0.476562 19.648438 -0.867188 19.453125 -1.453125 L 18.84375 -3.484375 C 18.132812 -2.847656 17.441406 -2.285156 16.765625 -1.796875 C 16.085938 -1.304688 15.378906 -0.894531 14.640625 -0.5625 C 13.910156 -0.238281 13.128906 0.00390625 12.296875 0.171875 C 11.460938 0.347656 10.546875 0.4375 9.546875 0.4375 C 8.359375 0.4375 7.257812 0.28125 6.25 -0.03125 C 5.25 -0.351562 4.378906 -0.832031 3.640625 -1.46875 C 2.910156 -2.113281 2.34375 -2.910156 1.9375 -3.859375 C 1.539062 -4.816406 1.34375 -5.925781 1.34375 -7.1875 C 1.34375 -7.894531 1.460938 -8.601562 1.703125 -9.3125 C 1.941406 -10.019531 2.328125 -10.691406 2.859375 -11.328125 C 3.398438 -11.960938 4.097656 -12.5625 4.953125 -13.125 C 5.816406 -13.695312 6.875 -14.191406 8.125 -14.609375 C 9.382812 -15.035156 10.84375 -15.378906 12.5 -15.640625 C 14.164062 -15.910156 16.070312 -16.070312 18.21875 -16.125 L 18.21875 -17.78125 C 18.21875 -19.65625 17.8125 -21.046875 17 -21.953125 C 16.195312 -22.859375 15.035156 -23.3125 13.515625 -23.3125 C 12.421875 -23.3125 11.507812 -23.179688 10.78125 -22.921875 C 10.0625 -22.671875 9.425781 -22.382812 8.875 -22.0625 C 8.332031 -21.75 7.835938 -21.460938 7.390625 -21.203125 C 6.941406 -20.941406 6.441406 -20.8125 5.890625 -20.8125 C 5.421875 -20.8125 5.019531 -20.9375 4.6875 -21.1875 C 4.363281 -21.4375 4.097656 -21.722656 3.890625 -22.046875 Z M 2.6875 -24.21875 "/></g></g></g><g fill="#ffffff" fill-opacity="1"><g transform="translate(579.24059, 126.903715)"><g><path d="M 12.734375 0.4375 C 10.273438 0.4375 8.390625 -0.25 7.078125 -1.625 C 5.773438 -3.007812 5.125 -4.914062 5.125 -7.34375 L 5.125 -23.0625 L 2.25 -23.0625 C 1.882812 -23.0625 1.570312 -23.179688 1.3125 -23.421875 C 1.0625 -23.660156 0.9375 -24.019531 0.9375 -24.5 L 0.9375 -27.1875 L 5.453125 -27.921875 L 6.890625 -35.609375 C 6.972656 -35.972656 7.144531 -36.253906 7.40625 -36.453125 C 7.664062 -36.648438 7.992188 -36.75 8.390625 -36.75 L 11.90625 -36.75 L 11.90625 -27.890625 L 19.421875 -27.890625 L 19.421875 -23.0625 L 11.90625 -23.0625 L 11.90625 -7.8125 C 11.90625 -6.9375 12.117188 -6.25 12.546875 -5.75 C 12.972656 -5.257812 13.5625 -5.015625 14.3125 -5.015625 C 14.738281 -5.015625 15.09375 -5.066406 15.375 -5.171875 C 15.65625 -5.273438 15.898438 -5.378906 16.109375 -5.484375 C 16.328125 -5.597656 16.515625 -5.703125 16.671875 -5.796875 C 16.835938 -5.898438 17.003906 -5.953125 17.171875 -5.953125 C 17.367188 -5.953125 17.53125 -5.898438 17.65625 -5.796875 C 17.789062 -5.703125 17.929688 -5.550781 18.078125 -5.34375 L 20.109375 -2.0625 C 19.117188 -1.238281 17.984375 -0.613281 16.703125 -0.1875 C 15.421875 0.226562 14.097656 0.4375 12.734375 0.4375 Z M 12.734375 0.4375 "/></g></g></g><g fill="#ffffff" fill-opacity="1"><g transform="translate(599.648709, 126.903715)"><g><path d="M 10.375 -28.140625 L 10.375 0 L 3.5625 0 L 3.5625 -28.140625 Z M 11.296875 -36.34375 C 11.296875 -35.757812 11.175781 -35.210938 10.9375 -34.703125 C 10.707031 -34.191406 10.394531 -33.742188 10 -33.359375 C 9.601562 -32.972656 9.140625 -32.664062 8.609375 -32.4375 C 8.078125 -32.207031 7.507812 -32.09375 6.90625 -32.09375 C 6.320312 -32.09375 5.769531 -32.207031 5.25 -32.4375 C 4.726562 -32.664062 4.273438 -32.972656 3.890625 -33.359375 C 3.503906 -33.742188 3.195312 -34.191406 2.96875 -34.703125 C 2.75 -35.210938 2.640625 -35.757812 2.640625 -36.34375 C 2.640625 -36.945312 2.75 -37.515625 2.96875 -38.046875 C 3.195312 -38.578125 3.503906 -39.035156 3.890625 -39.421875 C 4.273438 -39.804688 4.726562 -40.109375 5.25 -40.328125 C 5.769531 -40.554688 6.320312 -40.671875 6.90625 -40.671875 C 7.507812 -40.671875 8.078125 -40.554688 8.609375 -40.328125 C 9.140625 -40.109375 9.601562 -39.804688 10 -39.421875 C 10.394531 -39.035156 10.707031 -38.578125 10.9375 -38.046875 C 11.175781 -37.515625 11.296875 -36.945312 11.296875 -36.34375 Z M 11.296875 -36.34375 "/></g></g></g><g fill="#ffffff" fill-opacity="1"><g transform="translate(613.58328, 126.903715)"><g><path d="M 15.796875 -28.578125 C 17.878906 -28.578125 19.773438 -28.238281 21.484375 -27.5625 C 23.203125 -26.882812 24.664062 -25.925781 25.875 -24.6875 C 27.09375 -23.445312 28.03125 -21.925781 28.6875 -20.125 C 29.34375 -18.332031 29.671875 -16.332031 29.671875 -14.125 C 29.671875 -11.894531 29.34375 -9.882812 28.6875 -8.09375 C 28.03125 -6.300781 27.09375 -4.773438 25.875 -3.515625 C 24.664062 -2.253906 23.203125 -1.285156 21.484375 -0.609375 C 19.773438 0.0664062 17.878906 0.40625 15.796875 0.40625 C 13.691406 0.40625 11.78125 0.0664062 10.0625 -0.609375 C 8.34375 -1.285156 6.875 -2.253906 5.65625 -3.515625 C 4.445312 -4.773438 3.507812 -6.300781 2.84375 -8.09375 C 2.175781 -9.882812 1.84375 -11.894531 1.84375 -14.125 C 1.84375 -16.332031 2.175781 -18.332031 2.84375 -20.125 C 3.507812 -21.925781 4.445312 -23.445312 5.65625 -24.6875 C 6.875 -25.925781 8.34375 -26.882812 10.0625 -27.5625 C 11.78125 -28.238281 13.691406 -28.578125 15.796875 -28.578125 Z M 15.796875 -4.796875 C 18.140625 -4.796875 19.875 -5.582031 21 -7.15625 C 22.125 -8.726562 22.6875 -11.035156 22.6875 -14.078125 C 22.6875 -17.109375 22.125 -19.414062 21 -21 C 19.875 -22.59375 18.140625 -23.390625 15.796875 -23.390625 C 13.421875 -23.390625 11.660156 -22.585938 10.515625 -20.984375 C 9.378906 -19.390625 8.8125 -17.085938 8.8125 -14.078125 C 8.8125 -11.054688 9.378906 -8.753906 10.515625 -7.171875 C 11.660156 -5.585938 13.421875 -4.796875 15.796875 -4.796875 Z M 15.796875 -4.796875 "/></g></g></g><g fill="#ffffff" fill-opacity="1"><g transform="translate(645.100672, 126.903715)"><g><path d="M 9.6875 -24.6875 C 10.25 -25.25 10.84375 -25.769531 11.46875 -26.25 C 12.101562 -26.738281 12.769531 -27.148438 13.46875 -27.484375 C 14.175781 -27.828125 14.929688 -28.09375 15.734375 -28.28125 C 16.546875 -28.476562 17.425781 -28.578125 18.375 -28.578125 C 19.914062 -28.578125 21.28125 -28.316406 22.46875 -27.796875 C 23.65625 -27.273438 24.644531 -26.539062 25.4375 -25.59375 C 26.238281 -24.65625 26.84375 -23.53125 27.25 -22.21875 C 27.664062 -20.914062 27.875 -19.476562 27.875 -17.90625 L 27.875 0 L 21.09375 0 L 21.09375 -17.90625 C 21.09375 -19.625 20.695312 -20.953125 19.90625 -21.890625 C 19.125 -22.835938 17.929688 -23.3125 16.328125 -23.3125 C 15.148438 -23.3125 14.050781 -23.046875 13.03125 -22.515625 C 12.007812 -21.984375 11.039062 -21.265625 10.125 -20.359375 L 10.125 0 L 3.34375 0 L 3.34375 -28.140625 L 7.484375 -28.140625 C 8.367188 -28.140625 8.945312 -27.726562 9.21875 -26.90625 Z M 9.6875 -24.6875 "/></g></g></g></svg>