<svg xmlns="http://www.w3.org/2000/svg" xmlns:xlink="http://www.w3.org/1999/xlink" width="1960" zoomAndPan="magnify" viewBox="0 0 1470 193.499995" height="258" preserveAspectRatio="xMidYMid meet" version="1.0"><defs><g/><clipPath id="9d4fa503e0"><path d="M 1.894531 0 L 1468.105469 0 L 1468.105469 192.894531 L 1.894531 192.894531 Z M 1.894531 0 " clip-rule="nonzero"/></clipPath><clipPath id="91b83e4095"><path d="M 99.144531 145.882812 L 288.988281 145.882812 L 288.988281 149.625 L 99.144531 149.625 Z M 99.144531 145.882812 " clip-rule="nonzero"/></clipPath></defs><g clip-path="url(#9d4fa503e0)"><path fill="#287ead" d="M 1.894531 0 L 1468.1875 0 L 1468.1875 192.894531 L 1.894531 192.894531 Z M 1.894531 0 " fill-opacity="1" fill-rule="nonzero"/></g><g clip-path="url(#91b83e4095)"><path fill="#ffffff" d="M 99.144531 145.882812 L 288.996094 145.882812 L 288.996094 149.625 L 99.144531 149.625 Z M 99.144531 145.882812 " fill-opacity="1" fill-rule="nonzero"/></g><g fill="#ffffff" fill-opacity="1"><g transform="translate(99.143055, 117.392628)"><g><path d="M 42.234375 -19.828125 C 42.234375 -16.921875 41.753906 -14.226562 40.796875 -11.75 C 39.835938 -9.269531 38.476562 -7.125 36.71875 -5.3125 C 34.96875 -3.507812 32.859375 -2.097656 30.390625 -1.078125 C 27.921875 -0.0664062 25.175781 0.4375 22.15625 0.4375 C 19.164062 0.4375 16.4375 -0.0664062 13.96875 -1.078125 C 11.5 -2.097656 9.378906 -3.507812 7.609375 -5.3125 C 5.847656 -7.125 4.484375 -9.269531 3.515625 -11.75 C 2.546875 -14.226562 2.0625 -16.921875 2.0625 -19.828125 C 2.0625 -22.734375 2.546875 -25.425781 3.515625 -27.90625 C 4.484375 -30.382812 5.847656 -32.53125 7.609375 -34.34375 C 9.378906 -36.15625 11.5 -37.566406 13.96875 -38.578125 C 16.4375 -39.597656 19.164062 -40.109375 22.15625 -40.109375 C 24.175781 -40.109375 26.070312 -39.875 27.84375 -39.40625 C 29.613281 -38.9375 31.238281 -38.273438 32.71875 -37.421875 C 34.195312 -36.578125 35.523438 -35.546875 36.703125 -34.328125 C 37.890625 -33.109375 38.894531 -31.75 39.71875 -30.25 C 40.539062 -28.75 41.164062 -27.117188 41.59375 -25.359375 C 42.019531 -23.609375 42.234375 -21.765625 42.234375 -19.828125 Z M 34.703125 -19.828125 C 34.703125 -22.003906 34.40625 -23.957031 33.8125 -25.6875 C 33.226562 -27.414062 32.394531 -28.882812 31.3125 -30.09375 C 30.238281 -31.300781 28.929688 -32.222656 27.390625 -32.859375 C 25.847656 -33.503906 24.101562 -33.828125 22.15625 -33.828125 C 20.21875 -33.828125 18.476562 -33.503906 16.9375 -32.859375 C 15.394531 -32.222656 14.078125 -31.300781 12.984375 -30.09375 C 11.898438 -28.882812 11.0625 -27.414062 10.46875 -25.6875 C 9.882812 -23.957031 9.59375 -22.003906 9.59375 -19.828125 C 9.59375 -17.648438 9.882812 -15.695312 10.46875 -13.96875 C 11.0625 -12.25 11.898438 -10.789062 12.984375 -9.59375 C 14.078125 -8.394531 15.394531 -7.472656 16.9375 -6.828125 C 18.476562 -6.191406 20.21875 -5.875 22.15625 -5.875 C 24.101562 -5.875 25.847656 -6.191406 27.390625 -6.828125 C 28.929688 -7.472656 30.238281 -8.394531 31.3125 -9.59375 C 32.394531 -10.789062 33.226562 -12.25 33.8125 -13.96875 C 34.40625 -15.695312 34.703125 -17.648438 34.703125 -19.828125 Z M 34.703125 -19.828125 "/></g></g></g><g fill="#ffffff" fill-opacity="1"><g transform="translate(143.465303, 117.392628)"><g><path d="M 12.734375 0.4375 C 10.273438 0.4375 8.390625 -0.25 7.078125 -1.625 C 5.773438 -3.007812 5.125 -4.914062 5.125 -7.34375 L 5.125 -23.0625 L 2.25 -23.0625 C 1.882812 -23.0625 1.570312 -23.179688 1.3125 -23.421875 C 1.0625 -23.660156 0.9375 -24.019531 0.9375 -24.5 L 0.9375 -27.1875 L 5.453125 -27.921875 L 6.890625 -35.609375 C 6.972656 -35.972656 7.144531 -36.253906 7.40625 -36.453125 C 7.664062 -36.648438 7.992188 -36.75 8.390625 -36.75 L 11.90625 -36.75 L 11.90625 -27.890625 L 19.421875 -27.890625 L 19.421875 -23.0625 L 11.90625 -23.0625 L 11.90625 -7.8125 C 11.90625 -6.9375 12.117188 -6.25 12.546875 -5.75 C 12.972656 -5.257812 13.5625 -5.015625 14.3125 -5.015625 C 14.738281 -5.015625 15.09375 -5.066406 15.375 -5.171875 C 15.65625 -5.273438 15.898438 -5.378906 16.109375 -5.484375 C 16.328125 -5.597656 16.515625 -5.703125 16.671875 -5.796875 C 16.835938 -5.898438 17.003906 -5.953125 17.171875 -5.953125 C 17.367188 -5.953125 17.53125 -5.898438 17.65625 -5.796875 C 17.789062 -5.703125 17.929688 -5.550781 18.078125 -5.34375 L 20.109375 -2.0625 C 19.117188 -1.238281 17.984375 -0.613281 16.703125 -0.1875 C 15.421875 0.226562 14.097656 0.4375 12.734375 0.4375 Z M 12.734375 0.4375 "/></g></g></g><g fill="#ffffff" fill-opacity="1"><g transform="translate(163.871096, 117.392628)"><g><path d="M 10.125 -25.125 C 11.21875 -26.144531 12.421875 -26.972656 13.734375 -27.609375 C 15.054688 -28.253906 16.601562 -28.578125 18.375 -28.578125 C 19.914062 -28.578125 21.28125 -28.316406 22.46875 -27.796875 C 23.65625 -27.273438 24.644531 -26.539062 25.4375 -25.59375 C 26.238281 -24.65625 26.84375 -23.53125 27.25 -22.21875 C 27.664062 -20.914062 27.875 -19.476562 27.875 -17.90625 L 27.875 0 L 21.09375 0 L 21.09375 -17.90625 C 21.09375 -19.625 20.695312 -20.953125 19.90625 -21.890625 C 19.125 -22.835938 17.929688 -23.3125 16.328125 -23.3125 C 15.148438 -23.3125 14.050781 -23.046875 13.03125 -22.515625 C 12.007812 -21.984375 11.039062 -21.265625 10.125 -20.359375 L 10.125 0 L 3.34375 0 L 3.34375 -40.765625 L 10.125 -40.765625 Z M 10.125 -25.125 "/></g></g></g><g fill="#ffffff" fill-opacity="1"><g transform="translate(194.808909, 117.392628)"><g><path d="M 21.484375 -17.3125 C 21.484375 -18.1875 21.359375 -19.007812 21.109375 -19.78125 C 20.859375 -20.5625 20.484375 -21.242188 19.984375 -21.828125 C 19.492188 -22.421875 18.867188 -22.882812 18.109375 -23.21875 C 17.359375 -23.5625 16.476562 -23.734375 15.46875 -23.734375 C 13.507812 -23.734375 11.96875 -23.171875 10.84375 -22.046875 C 9.71875 -20.929688 9 -19.351562 8.6875 -17.3125 Z M 8.5625 -13.21875 C 8.664062 -11.769531 8.914062 -10.519531 9.3125 -9.46875 C 9.71875 -8.425781 10.25 -7.5625 10.90625 -6.875 C 11.570312 -6.1875 12.359375 -5.671875 13.265625 -5.328125 C 14.171875 -4.992188 15.171875 -4.828125 16.265625 -4.828125 C 17.359375 -4.828125 18.300781 -4.953125 19.09375 -5.203125 C 19.894531 -5.460938 20.59375 -5.75 21.1875 -6.0625 C 21.78125 -6.375 22.300781 -6.65625 22.75 -6.90625 C 23.195312 -7.164062 23.632812 -7.296875 24.0625 -7.296875 C 24.625 -7.296875 25.039062 -7.085938 25.3125 -6.671875 L 27.265625 -4.203125 C 26.515625 -3.316406 25.671875 -2.578125 24.734375 -1.984375 C 23.804688 -1.390625 22.832031 -0.914062 21.8125 -0.5625 C 20.800781 -0.207031 19.769531 0.0390625 18.71875 0.1875 C 17.664062 0.332031 16.644531 0.40625 15.65625 0.40625 C 13.707031 0.40625 11.890625 0.0820312 10.203125 -0.5625 C 8.523438 -1.207031 7.0625 -2.164062 5.8125 -3.4375 C 4.570312 -4.707031 3.59375 -6.28125 2.875 -8.15625 C 2.164062 -10.03125 1.8125 -12.203125 1.8125 -14.671875 C 1.8125 -16.597656 2.117188 -18.40625 2.734375 -20.09375 C 3.359375 -21.78125 4.25 -23.25 5.40625 -24.5 C 6.570312 -25.757812 7.988281 -26.753906 9.65625 -27.484375 C 11.332031 -28.210938 13.222656 -28.578125 15.328125 -28.578125 C 17.109375 -28.578125 18.75 -28.289062 20.25 -27.71875 C 21.75 -27.15625 23.035156 -26.328125 24.109375 -25.234375 C 25.191406 -24.148438 26.035156 -22.816406 26.640625 -21.234375 C 27.253906 -19.660156 27.5625 -17.859375 27.5625 -15.828125 C 27.5625 -14.804688 27.453125 -14.113281 27.234375 -13.75 C 27.015625 -13.394531 26.59375 -13.21875 25.96875 -13.21875 Z M 8.5625 -13.21875 "/></g></g></g><g fill="#ffffff" fill-opacity="1"><g transform="translate(224.101091, 117.392628)"><g><path d="M 9.734375 -23.265625 C 10.609375 -24.941406 11.648438 -26.257812 12.859375 -27.21875 C 14.066406 -28.175781 15.492188 -28.65625 17.140625 -28.65625 C 18.441406 -28.65625 19.484375 -28.375 20.265625 -27.8125 L 19.828125 -22.734375 C 19.734375 -22.410156 19.597656 -22.175781 19.421875 -22.03125 C 19.253906 -21.894531 19.023438 -21.828125 18.734375 -21.828125 C 18.460938 -21.828125 18.054688 -21.875 17.515625 -21.96875 C 16.972656 -22.0625 16.445312 -22.109375 15.9375 -22.109375 C 15.1875 -22.109375 14.519531 -22 13.9375 -21.78125 C 13.351562 -21.5625 12.828125 -21.242188 12.359375 -20.828125 C 11.890625 -20.421875 11.476562 -19.921875 11.125 -19.328125 C 10.769531 -18.742188 10.4375 -18.078125 10.125 -17.328125 L 10.125 0 L 3.34375 0 L 3.34375 -28.140625 L 7.328125 -28.140625 C 8.015625 -28.140625 8.492188 -28.015625 8.765625 -27.765625 C 9.046875 -27.523438 9.234375 -27.082031 9.328125 -26.4375 Z M 9.734375 -23.265625 "/></g></g></g><g fill="#ffffff" fill-opacity="1"><g transform="translate(244.561731, 117.392628)"><g><path d="M 20.515625 -22.65625 C 20.335938 -22.363281 20.144531 -22.15625 19.9375 -22.03125 C 19.738281 -21.914062 19.484375 -21.859375 19.171875 -21.859375 C 18.835938 -21.859375 18.484375 -21.945312 18.109375 -22.125 C 17.742188 -22.3125 17.3125 -22.519531 16.8125 -22.75 C 16.320312 -22.976562 15.757812 -23.179688 15.125 -23.359375 C 14.5 -23.546875 13.753906 -23.640625 12.890625 -23.640625 C 11.554688 -23.640625 10.507812 -23.351562 9.75 -22.78125 C 8.988281 -22.21875 8.609375 -21.484375 8.609375 -20.578125 C 8.609375 -19.972656 8.804688 -19.460938 9.203125 -19.046875 C 9.597656 -18.640625 10.117188 -18.28125 10.765625 -17.96875 C 11.410156 -17.65625 12.144531 -17.375 12.96875 -17.125 C 13.789062 -16.882812 14.628906 -16.613281 15.484375 -16.3125 C 16.335938 -16.019531 17.175781 -15.6875 18 -15.3125 C 18.820312 -14.9375 19.554688 -14.460938 20.203125 -13.890625 C 20.847656 -13.316406 21.367188 -12.625 21.765625 -11.8125 C 22.160156 -11.007812 22.359375 -10.046875 22.359375 -8.921875 C 22.359375 -7.566406 22.113281 -6.316406 21.625 -5.171875 C 21.144531 -4.023438 20.425781 -3.035156 19.46875 -2.203125 C 18.519531 -1.367188 17.347656 -0.71875 15.953125 -0.25 C 14.554688 0.207031 12.941406 0.4375 11.109375 0.4375 C 10.140625 0.4375 9.191406 0.347656 8.265625 0.171875 C 7.347656 0.00390625 6.460938 -0.234375 5.609375 -0.546875 C 4.753906 -0.859375 3.96875 -1.222656 3.25 -1.640625 C 2.53125 -2.066406 1.894531 -2.523438 1.34375 -3.015625 L 2.90625 -5.59375 C 3.101562 -5.90625 3.335938 -6.144531 3.609375 -6.3125 C 3.890625 -6.476562 4.238281 -6.5625 4.65625 -6.5625 C 5.082031 -6.5625 5.484375 -6.441406 5.859375 -6.203125 C 6.234375 -5.960938 6.664062 -5.703125 7.15625 -5.421875 C 7.65625 -5.148438 8.238281 -4.894531 8.90625 -4.65625 C 9.570312 -4.425781 10.414062 -4.3125 11.4375 -4.3125 C 12.238281 -4.3125 12.925781 -4.40625 13.5 -4.59375 C 14.082031 -4.78125 14.5625 -5.03125 14.9375 -5.34375 C 15.3125 -5.65625 15.582031 -6.015625 15.75 -6.421875 C 15.925781 -6.835938 16.015625 -7.265625 16.015625 -7.703125 C 16.015625 -8.359375 15.816406 -8.894531 15.421875 -9.3125 C 15.035156 -9.738281 14.515625 -10.109375 13.859375 -10.421875 C 13.210938 -10.734375 12.472656 -11.007812 11.640625 -11.25 C 10.804688 -11.5 9.957031 -11.769531 9.09375 -12.0625 C 8.226562 -12.363281 7.378906 -12.707031 6.546875 -13.09375 C 5.710938 -13.488281 4.96875 -13.988281 4.3125 -14.59375 C 3.664062 -15.195312 3.144531 -15.9375 2.75 -16.8125 C 2.363281 -17.6875 2.171875 -18.75 2.171875 -20 C 2.171875 -21.144531 2.394531 -22.238281 2.84375 -23.28125 C 3.300781 -24.320312 3.972656 -25.234375 4.859375 -26.015625 C 5.753906 -26.796875 6.863281 -27.414062 8.1875 -27.875 C 9.507812 -28.34375 11.039062 -28.578125 12.78125 -28.578125 C 14.71875 -28.578125 16.484375 -28.253906 18.078125 -27.609375 C 19.671875 -26.972656 20.992188 -26.132812 22.046875 -25.09375 Z M 20.515625 -22.65625 "/></g></g></g></svg>