<svg xmlns="http://www.w3.org/2000/svg" xmlns:xlink="http://www.w3.org/1999/xlink" width="1960" zoomAndPan="magnify" viewBox="0 0 1470 193.499995" height="258" preserveAspectRatio="xMidYMid meet" version="1.0"><defs><g/><clipPath id="b36072dc82"><path d="M 1.894531 0 L 1468.105469 0 L 1468.105469 192.894531 L 1.894531 192.894531 Z M 1.894531 0 " clip-rule="nonzero"/></clipPath><clipPath id="8a6a0edefc"><path d="M 99.144531 145.882812 L 288.988281 145.882812 L 288.988281 149.625 L 99.144531 149.625 Z M 99.144531 145.882812 " clip-rule="nonzero"/></clipPath></defs><g clip-path="url(#b36072dc82)"><path fill="#287ead" d="M 1.894531 0 L 1468.1875 0 L 1468.1875 192.894531 L 1.894531 192.894531 Z M 1.894531 0 " fill-opacity="1" fill-rule="nonzero"/></g><g clip-path="url(#8a6a0edefc)"><path fill="#ffffff" d="M 99.144531 145.882812 L 288.996094 145.882812 L 288.996094 149.625 L 99.144531 149.625 Z M 99.144531 145.882812 " fill-opacity="1" fill-rule="nonzero"/></g><g fill="#ffffff" fill-opacity="1"><g transform="translate(99.143055, 117.91237)"><g><path d="M 37.859375 -39.65625 L 37.859375 0 L 34.0625 0 C 33.476562 0 32.988281 -0.09375 32.59375 -0.28125 C 32.207031 -0.476562 31.832031 -0.804688 31.46875 -1.265625 L 10.75 -27.703125 C 10.863281 -26.492188 10.921875 -25.378906 10.921875 -24.359375 L 10.921875 0 L 4.421875 0 L 4.421875 -39.65625 L 8.28125 -39.65625 C 8.59375 -39.65625 8.863281 -39.640625 9.09375 -39.609375 C 9.320312 -39.585938 9.519531 -39.535156 9.6875 -39.453125 C 9.863281 -39.367188 10.035156 -39.25 10.203125 -39.09375 C 10.367188 -38.945312 10.550781 -38.742188 10.75 -38.484375 L 31.546875 -11.9375 C 31.492188 -12.570312 31.445312 -13.195312 31.40625 -13.8125 C 31.375 -14.4375 31.359375 -15.015625 31.359375 -15.546875 L 31.359375 -39.65625 Z M 37.859375 -39.65625 "/></g></g></g><g fill="#ffffff" fill-opacity="1"><g transform="translate(141.408267, 117.91237)"><g><path d="M 21.484375 -17.3125 C 21.484375 -18.1875 21.359375 -19.007812 21.109375 -19.78125 C 20.859375 -20.5625 20.484375 -21.242188 19.984375 -21.828125 C 19.492188 -22.421875 18.867188 -22.882812 18.109375 -23.21875 C 17.359375 -23.5625 16.476562 -23.734375 15.46875 -23.734375 C 13.507812 -23.734375 11.96875 -23.171875 10.84375 -22.046875 C 9.71875 -20.929688 9 -19.351562 8.6875 -17.3125 Z M 8.5625 -13.21875 C 8.664062 -11.769531 8.914062 -10.519531 9.3125 -9.46875 C 9.71875 -8.425781 10.25 -7.5625 10.90625 -6.875 C 11.570312 -6.1875 12.359375 -5.671875 13.265625 -5.328125 C 14.171875 -4.992188 15.171875 -4.828125 16.265625 -4.828125 C 17.359375 -4.828125 18.300781 -4.953125 19.09375 -5.203125 C 19.894531 -5.460938 20.59375 -5.75 21.1875 -6.0625 C 21.78125 -6.375 22.300781 -6.65625 22.75 -6.90625 C 23.195312 -7.164062 23.632812 -7.296875 24.0625 -7.296875 C 24.625 -7.296875 25.039062 -7.085938 25.3125 -6.671875 L 27.265625 -4.203125 C 26.515625 -3.316406 25.671875 -2.578125 24.734375 -1.984375 C 23.804688 -1.390625 22.832031 -0.914062 21.8125 -0.5625 C 20.800781 -0.207031 19.769531 0.0390625 18.71875 0.1875 C 17.664062 0.332031 16.644531 0.40625 15.65625 0.40625 C 13.707031 0.40625 11.890625 0.0820312 10.203125 -0.5625 C 8.523438 -1.207031 7.0625 -2.164062 5.8125 -3.4375 C 4.570312 -4.707031 3.59375 -6.28125 2.875 -8.15625 C 2.164062 -10.03125 1.8125 -12.203125 1.8125 -14.671875 C 1.8125 -16.597656 2.117188 -18.40625 2.734375 -20.09375 C 3.359375 -21.78125 4.25 -23.25 5.40625 -24.5 C 6.570312 -25.757812 7.988281 -26.753906 9.65625 -27.484375 C 11.332031 -28.210938 13.222656 -28.578125 15.328125 -28.578125 C 17.109375 -28.578125 18.75 -28.289062 20.25 -27.71875 C 21.75 -27.15625 23.035156 -26.328125 24.109375 -25.234375 C 25.191406 -24.148438 26.035156 -22.816406 26.640625 -21.234375 C 27.253906 -19.660156 27.5625 -17.859375 27.5625 -15.828125 C 27.5625 -14.804688 27.453125 -14.113281 27.234375 -13.75 C 27.015625 -13.394531 26.59375 -13.21875 25.96875 -13.21875 Z M 8.5625 -13.21875 "/></g></g></g><g fill="#ffffff" fill-opacity="1"><g transform="translate(170.700449, 117.91237)"><g><path d="M 12.734375 0.4375 C 10.273438 0.4375 8.390625 -0.25 7.078125 -1.625 C 5.773438 -3.007812 5.125 -4.914062 5.125 -7.34375 L 5.125 -23.0625 L 2.25 -23.0625 C 1.882812 -23.0625 1.570312 -23.179688 1.3125 -23.421875 C 1.0625 -23.660156 0.9375 -24.019531 0.9375 -24.5 L 0.9375 -27.1875 L 5.453125 -27.921875 L 6.890625 -35.609375 C 6.972656 -35.972656 7.144531 -36.253906 7.40625 -36.453125 C 7.664062 -36.648438 7.992188 -36.75 8.390625 -36.75 L 11.90625 -36.75 L 11.90625 -27.890625 L 19.421875 -27.890625 L 19.421875 -23.0625 L 11.90625 -23.0625 L 11.90625 -7.8125 C 11.90625 -6.9375 12.117188 -6.25 12.546875 -5.75 C 12.972656 -5.257812 13.5625 -5.015625 14.3125 -5.015625 C 14.738281 -5.015625 15.09375 -5.066406 15.375 -5.171875 C 15.65625 -5.273438 15.898438 -5.378906 16.109375 -5.484375 C 16.328125 -5.597656 16.515625 -5.703125 16.671875 -5.796875 C 16.835938 -5.898438 17.003906 -5.953125 17.171875 -5.953125 C 17.367188 -5.953125 17.53125 -5.898438 17.65625 -5.796875 C 17.789062 -5.703125 17.929688 -5.550781 18.078125 -5.34375 L 20.109375 -2.0625 C 19.117188 -1.238281 17.984375 -0.613281 16.703125 -0.1875 C 15.421875 0.226562 14.097656 0.4375 12.734375 0.4375 Z M 12.734375 0.4375 "/></g></g></g><g fill="#ffffff" fill-opacity="1"><g transform="translate(191.106242, 117.91237)"><g><path d="M 3.125 -19.390625 L 17.328125 -19.390625 L 17.328125 -13.75 L 3.125 -13.75 Z M 3.125 -19.390625 "/></g></g></g><g fill="#ffffff" fill-opacity="1"><g transform="translate(211.566882, 117.91237)"><g><path d="M 31.734375 -36.953125 C 31.734375 -36.109375 31.492188 -35.335938 31.015625 -34.640625 L 10.671875 -5.890625 L 31.265625 -5.890625 L 31.265625 0 L 1.09375 0 L 1.09375 -2.90625 C 1.09375 -3.269531 1.15625 -3.617188 1.28125 -3.953125 C 1.414062 -4.296875 1.582031 -4.613281 1.78125 -4.90625 L 22.1875 -33.796875 L 2.390625 -33.796875 L 2.390625 -39.65625 L 31.734375 -39.65625 Z M 31.734375 -36.953125 "/></g></g></g><g fill="#ffffff" fill-opacity="1"><g transform="translate(244.781142, 117.91237)"><g><path d="M 21.484375 -17.3125 C 21.484375 -18.1875 21.359375 -19.007812 21.109375 -19.78125 C 20.859375 -20.5625 20.484375 -21.242188 19.984375 -21.828125 C 19.492188 -22.421875 18.867188 -22.882812 18.109375 -23.21875 C 17.359375 -23.5625 16.476562 -23.734375 15.46875 -23.734375 C 13.507812 -23.734375 11.96875 -23.171875 10.84375 -22.046875 C 9.71875 -20.929688 9 -19.351562 8.6875 -17.3125 Z M 8.5625 -13.21875 C 8.664062 -11.769531 8.914062 -10.519531 9.3125 -9.46875 C 9.71875 -8.425781 10.25 -7.5625 10.90625 -6.875 C 11.570312 -6.1875 12.359375 -5.671875 13.265625 -5.328125 C 14.171875 -4.992188 15.171875 -4.828125 16.265625 -4.828125 C 17.359375 -4.828125 18.300781 -4.953125 19.09375 -5.203125 C 19.894531 -5.460938 20.59375 -5.75 21.1875 -6.0625 C 21.78125 -6.375 22.300781 -6.65625 22.75 -6.90625 C 23.195312 -7.164062 23.632812 -7.296875 24.0625 -7.296875 C 24.625 -7.296875 25.039062 -7.085938 25.3125 -6.671875 L 27.265625 -4.203125 C 26.515625 -3.316406 25.671875 -2.578125 24.734375 -1.984375 C 23.804688 -1.390625 22.832031 -0.914062 21.8125 -0.5625 C 20.800781 -0.207031 19.769531 0.0390625 18.71875 0.1875 C 17.664062 0.332031 16.644531 0.40625 15.65625 0.40625 C 13.707031 0.40625 11.890625 0.0820312 10.203125 -0.5625 C 8.523438 -1.207031 7.0625 -2.164062 5.8125 -3.4375 C 4.570312 -4.707031 3.59375 -6.28125 2.875 -8.15625 C 2.164062 -10.03125 1.8125 -12.203125 1.8125 -14.671875 C 1.8125 -16.597656 2.117188 -18.40625 2.734375 -20.09375 C 3.359375 -21.78125 4.25 -23.25 5.40625 -24.5 C 6.570312 -25.757812 7.988281 -26.753906 9.65625 -27.484375 C 11.332031 -28.210938 13.222656 -28.578125 15.328125 -28.578125 C 17.109375 -28.578125 18.75 -28.289062 20.25 -27.71875 C 21.75 -27.15625 23.035156 -26.328125 24.109375 -25.234375 C 25.191406 -24.148438 26.035156 -22.816406 26.640625 -21.234375 C 27.253906 -19.660156 27.5625 -17.859375 27.5625 -15.828125 C 27.5625 -14.804688 27.453125 -14.113281 27.234375 -13.75 C 27.015625 -13.394531 26.59375 -13.21875 25.96875 -13.21875 Z M 8.5625 -13.21875 "/></g></g></g><g fill="#ffffff" fill-opacity="1"><g transform="translate(274.073324, 117.91237)"><g><path d="M 9.734375 -23.265625 C 10.609375 -24.941406 11.648438 -26.257812 12.859375 -27.21875 C 14.066406 -28.175781 15.492188 -28.65625 17.140625 -28.65625 C 18.441406 -28.65625 19.484375 -28.375 20.265625 -27.8125 L 19.828125 -22.734375 C 19.734375 -22.410156 19.597656 -22.175781 19.421875 -22.03125 C 19.253906 -21.894531 19.023438 -21.828125 18.734375 -21.828125 C 18.460938 -21.828125 18.054688 -21.875 17.515625 -21.96875 C 16.972656 -22.0625 16.445312 -22.109375 15.9375 -22.109375 C 15.1875 -22.109375 14.519531 -22 13.9375 -21.78125 C 13.351562 -21.5625 12.828125 -21.242188 12.359375 -20.828125 C 11.890625 -20.421875 11.476562 -19.921875 11.125 -19.328125 C 10.769531 -18.742188 10.4375 -18.078125 10.125 -17.328125 L 10.125 0 L 3.34375 0 L 3.34375 -28.140625 L 7.328125 -28.140625 C 8.015625 -28.140625 8.492188 -28.015625 8.765625 -27.765625 C 9.046875 -27.523438 9.234375 -27.082031 9.328125 -26.4375 Z M 9.734375 -23.265625 "/></g></g></g><g fill="#ffffff" fill-opacity="1"><g transform="translate(294.533954, 117.91237)"><g><path d="M 15.796875 -28.578125 C 17.878906 -28.578125 19.773438 -28.238281 21.484375 -27.5625 C 23.203125 -26.882812 24.664062 -25.925781 25.875 -24.6875 C 27.09375 -23.445312 28.03125 -21.925781 28.6875 -20.125 C 29.34375 -18.332031 29.671875 -16.332031 29.671875 -14.125 C 29.671875 -11.894531 29.34375 -9.882812 28.6875 -8.09375 C 28.03125 -6.300781 27.09375 -4.773438 25.875 -3.515625 C 24.664062 -2.253906 23.203125 -1.285156 21.484375 -0.609375 C 19.773438 0.0664062 17.878906 0.40625 15.796875 0.40625 C 13.691406 0.40625 11.78125 0.0664062 10.0625 -0.609375 C 8.34375 -1.285156 6.875 -2.253906 5.65625 -3.515625 C 4.445312 -4.773438 3.507812 -6.300781 2.84375 -8.09375 C 2.175781 -9.882812 1.84375 -11.894531 1.84375 -14.125 C 1.84375 -16.332031 2.175781 -18.332031 2.84375 -20.125 C 3.507812 -21.925781 4.445312 -23.445312 5.65625 -24.6875 C 6.875 -25.925781 8.34375 -26.882812 10.0625 -27.5625 C 11.78125 -28.238281 13.691406 -28.578125 15.796875 -28.578125 Z M 15.796875 -4.796875 C 18.140625 -4.796875 19.875 -5.582031 21 -7.15625 C 22.125 -8.726562 22.6875 -11.035156 22.6875 -14.078125 C 22.6875 -17.109375 22.125 -19.414062 21 -21 C 19.875 -22.59375 18.140625 -23.390625 15.796875 -23.390625 C 13.421875 -23.390625 11.660156 -22.585938 10.515625 -20.984375 C 9.378906 -19.390625 8.8125 -17.085938 8.8125 -14.078125 C 8.8125 -11.054688 9.378906 -8.753906 10.515625 -7.171875 C 11.660156 -5.585938 13.421875 -4.796875 15.796875 -4.796875 Z M 15.796875 -4.796875 "/></g></g></g><g fill="#ffffff" fill-opacity="1"><g transform="translate(326.047735, 117.91237)"><g/></g></g><g fill="#ffffff" fill-opacity="1"><g transform="translate(339.377335, 117.91237)"><g><path d="M 32.125 -33.59375 L 20.15625 -33.59375 L 20.15625 0 L 12.78125 0 L 12.78125 -33.59375 L 0.828125 -33.59375 L 0.828125 -39.65625 L 32.125 -39.65625 Z M 32.125 -33.59375 "/></g></g></g><g fill="#ffffff" fill-opacity="1"><g transform="translate(372.289907, 117.91237)"><g><path d="M 18.21875 -12.015625 C 16.257812 -11.921875 14.613281 -11.75 13.28125 -11.5 C 11.945312 -11.257812 10.875 -10.945312 10.0625 -10.5625 C 9.257812 -10.175781 8.679688 -9.726562 8.328125 -9.21875 C 7.984375 -8.707031 7.8125 -8.148438 7.8125 -7.546875 C 7.8125 -6.359375 8.160156 -5.503906 8.859375 -4.984375 C 9.566406 -4.472656 10.488281 -4.21875 11.625 -4.21875 C 13.019531 -4.21875 14.222656 -4.46875 15.234375 -4.96875 C 16.253906 -5.476562 17.25 -6.242188 18.21875 -7.265625 Z M 2.6875 -24.21875 C 5.925781 -27.175781 9.820312 -28.65625 14.375 -28.65625 C 16.019531 -28.65625 17.488281 -28.382812 18.78125 -27.84375 C 20.082031 -27.3125 21.179688 -26.566406 22.078125 -25.609375 C 22.972656 -24.648438 23.65625 -23.5 24.125 -22.15625 C 24.59375 -20.820312 24.828125 -19.363281 24.828125 -17.78125 L 24.828125 0 L 21.75 0 C 21.113281 0 20.617188 -0.09375 20.265625 -0.28125 C 19.921875 -0.476562 19.648438 -0.867188 19.453125 -1.453125 L 18.84375 -3.484375 C 18.132812 -2.847656 17.441406 -2.285156 16.765625 -1.796875 C 16.085938 -1.304688 15.378906 -0.894531 14.640625 -0.5625 C 13.910156 -0.238281 13.128906 0.00390625 12.296875 0.171875 C 11.460938 0.347656 10.546875 0.4375 9.546875 0.4375 C 8.359375 0.4375 7.257812 0.28125 6.25 -0.03125 C 5.25 -0.351562 4.378906 -0.832031 3.640625 -1.46875 C 2.910156 -2.113281 2.34375 -2.910156 1.9375 -3.859375 C 1.539062 -4.816406 1.34375 -5.925781 1.34375 -7.1875 C 1.34375 -7.894531 1.460938 -8.601562 1.703125 -9.3125 C 1.941406 -10.019531 2.328125 -10.691406 2.859375 -11.328125 C 3.398438 -11.960938 4.097656 -12.5625 4.953125 -13.125 C 5.816406 -13.695312 6.875 -14.191406 8.125 -14.609375 C 9.382812 -15.035156 10.84375 -15.378906 12.5 -15.640625 C 14.164062 -15.910156 16.070312 -16.070312 18.21875 -16.125 L 18.21875 -17.78125 C 18.21875 -19.65625 17.8125 -21.046875 17 -21.953125 C 16.195312 -22.859375 15.035156 -23.3125 13.515625 -23.3125 C 12.421875 -23.3125 11.507812 -23.179688 10.78125 -22.921875 C 10.0625 -22.671875 9.425781 -22.382812 8.875 -22.0625 C 8.332031 -21.75 7.835938 -21.460938 7.390625 -21.203125 C 6.941406 -20.941406 6.441406 -20.8125 5.890625 -20.8125 C 5.421875 -20.8125 5.019531 -20.9375 4.6875 -21.1875 C 4.363281 -21.4375 4.097656 -21.722656 3.890625 -22.046875 Z M 2.6875 -24.21875 "/></g></g></g><g fill="#ffffff" fill-opacity="1"><g transform="translate(400.128463, 117.91237)"><g><path d="M 9.734375 -23.265625 C 10.609375 -24.941406 11.648438 -26.257812 12.859375 -27.21875 C 14.066406 -28.175781 15.492188 -28.65625 17.140625 -28.65625 C 18.441406 -28.65625 19.484375 -28.375 20.265625 -27.8125 L 19.828125 -22.734375 C 19.734375 -22.410156 19.597656 -22.175781 19.421875 -22.03125 C 19.253906 -21.894531 19.023438 -21.828125 18.734375 -21.828125 C 18.460938 -21.828125 18.054688 -21.875 17.515625 -21.96875 C 16.972656 -22.0625 16.445312 -22.109375 15.9375 -22.109375 C 15.1875 -22.109375 14.519531 -22 13.9375 -21.78125 C 13.351562 -21.5625 12.828125 -21.242188 12.359375 -20.828125 C 11.890625 -20.421875 11.476562 -19.921875 11.125 -19.328125 C 10.769531 -18.742188 10.4375 -18.078125 10.125 -17.328125 L 10.125 0 L 3.34375 0 L 3.34375 -28.140625 L 7.328125 -28.140625 C 8.015625 -28.140625 8.492188 -28.015625 8.765625 -27.765625 C 9.046875 -27.523438 9.234375 -27.082031 9.328125 -26.4375 Z M 9.734375 -23.265625 "/></g></g></g><g fill="#ffffff" fill-opacity="1"><g transform="translate(420.589103, 117.91237)"><g><path d="M 13.625 -14.75 C 14.46875 -14.75 15.203125 -14.863281 15.828125 -15.09375 C 16.453125 -15.320312 16.96875 -15.640625 17.375 -16.046875 C 17.789062 -16.453125 18.101562 -16.9375 18.3125 -17.5 C 18.519531 -18.0625 18.625 -18.679688 18.625 -19.359375 C 18.625 -20.753906 18.207031 -21.859375 17.375 -22.671875 C 16.539062 -23.484375 15.289062 -23.890625 13.625 -23.890625 C 11.96875 -23.890625 10.722656 -23.484375 9.890625 -22.671875 C 9.054688 -21.859375 8.640625 -20.753906 8.640625 -19.359375 C 8.640625 -18.703125 8.742188 -18.085938 8.953125 -17.515625 C 9.160156 -16.953125 9.46875 -16.460938 9.875 -16.046875 C 10.289062 -15.640625 10.8125 -15.320312 11.4375 -15.09375 C 12.070312 -14.863281 12.800781 -14.75 13.625 -14.75 Z M 21.28125 1.265625 C 21.28125 0.710938 21.113281 0.265625 20.78125 -0.078125 C 20.457031 -0.429688 20.007812 -0.703125 19.4375 -0.890625 C 18.875 -1.078125 18.210938 -1.21875 17.453125 -1.3125 C 16.703125 -1.40625 15.898438 -1.472656 15.046875 -1.515625 C 14.191406 -1.566406 13.3125 -1.609375 12.40625 -1.640625 C 11.5 -1.679688 10.617188 -1.753906 9.765625 -1.859375 C 9.015625 -1.441406 8.40625 -0.945312 7.9375 -0.375 C 7.46875 0.1875 7.234375 0.84375 7.234375 1.59375 C 7.234375 2.082031 7.359375 2.539062 7.609375 2.96875 C 7.859375 3.40625 8.25 3.773438 8.78125 4.078125 C 9.320312 4.390625 10.019531 4.632812 10.875 4.8125 C 11.738281 4.988281 12.796875 5.078125 14.046875 5.078125 C 15.304688 5.078125 16.390625 4.976562 17.296875 4.78125 C 18.210938 4.59375 18.96875 4.328125 19.5625 3.984375 C 20.164062 3.648438 20.601562 3.25 20.875 2.78125 C 21.144531 2.3125 21.28125 1.804688 21.28125 1.265625 Z M 28.03125 -27.1875 L 28.03125 -24.65625 C 28.03125 -23.851562 27.546875 -23.359375 26.578125 -23.171875 L 24.0625 -22.71875 C 24.4375 -21.75 24.625 -20.6875 24.625 -19.53125 C 24.625 -18.132812 24.34375 -16.875 23.78125 -15.75 C 23.226562 -14.632812 22.457031 -13.679688 21.46875 -12.890625 C 20.488281 -12.109375 19.328125 -11.5 17.984375 -11.0625 C 16.640625 -10.632812 15.1875 -10.421875 13.625 -10.421875 C 13.082031 -10.421875 12.554688 -10.445312 12.046875 -10.5 C 11.535156 -10.5625 11.03125 -10.632812 10.53125 -10.71875 C 9.65625 -10.1875 9.21875 -9.59375 9.21875 -8.9375 C 9.21875 -8.375 9.476562 -7.957031 10 -7.6875 C 10.519531 -7.425781 11.207031 -7.238281 12.0625 -7.125 C 12.925781 -7.019531 13.90625 -6.953125 15 -6.921875 C 16.101562 -6.898438 17.226562 -6.84375 18.375 -6.75 C 19.53125 -6.65625 20.65625 -6.492188 21.75 -6.265625 C 22.84375 -6.035156 23.816406 -5.671875 24.671875 -5.171875 C 25.535156 -4.679688 26.226562 -4.007812 26.75 -3.15625 C 27.28125 -2.3125 27.546875 -1.222656 27.546875 0.109375 C 27.546875 1.347656 27.238281 2.550781 26.625 3.71875 C 26.007812 4.894531 25.117188 5.941406 23.953125 6.859375 C 22.796875 7.773438 21.367188 8.507812 19.671875 9.0625 C 17.984375 9.625 16.0625 9.90625 13.90625 9.90625 C 11.78125 9.90625 9.929688 9.695312 8.359375 9.28125 C 6.785156 8.875 5.476562 8.328125 4.4375 7.640625 C 3.394531 6.953125 2.617188 6.160156 2.109375 5.265625 C 1.597656 4.367188 1.34375 3.4375 1.34375 2.46875 C 1.34375 1.15625 1.738281 0.0546875 2.53125 -0.828125 C 3.332031 -1.722656 4.425781 -2.4375 5.8125 -2.96875 C 5.0625 -3.34375 4.46875 -3.847656 4.03125 -4.484375 C 3.59375 -5.128906 3.375 -5.972656 3.375 -7.015625 C 3.375 -7.441406 3.453125 -7.878906 3.609375 -8.328125 C 3.765625 -8.773438 3.992188 -9.21875 4.296875 -9.65625 C 4.597656 -10.09375 4.972656 -10.507812 5.421875 -10.90625 C 5.878906 -11.300781 6.421875 -11.648438 7.046875 -11.953125 C 5.617188 -12.722656 4.5 -13.75 3.6875 -15.03125 C 2.875 -16.3125 2.46875 -17.8125 2.46875 -19.53125 C 2.46875 -20.914062 2.742188 -22.171875 3.296875 -23.296875 C 3.859375 -24.421875 4.632812 -25.378906 5.625 -26.171875 C 6.625 -26.972656 7.804688 -27.582031 9.171875 -28 C 10.535156 -28.425781 12.019531 -28.640625 13.625 -28.640625 C 14.832031 -28.640625 15.96875 -28.515625 17.03125 -28.265625 C 18.09375 -28.015625 19.0625 -27.65625 19.9375 -27.1875 Z M 28.03125 -27.1875 "/></g></g></g><g fill="#ffffff" fill-opacity="1"><g transform="translate(449.552157, 117.91237)"><g><path d="M 21.484375 -17.3125 C 21.484375 -18.1875 21.359375 -19.007812 21.109375 -19.78125 C 20.859375 -20.5625 20.484375 -21.242188 19.984375 -21.828125 C 19.492188 -22.421875 18.867188 -22.882812 18.109375 -23.21875 C 17.359375 -23.5625 16.476562 -23.734375 15.46875 -23.734375 C 13.507812 -23.734375 11.96875 -23.171875 10.84375 -22.046875 C 9.71875 -20.929688 9 -19.351562 8.6875 -17.3125 Z M 8.5625 -13.21875 C 8.664062 -11.769531 8.914062 -10.519531 9.3125 -9.46875 C 9.71875 -8.425781 10.25 -7.5625 10.90625 -6.875 C 11.570312 -6.1875 12.359375 -5.671875 13.265625 -5.328125 C 14.171875 -4.992188 15.171875 -4.828125 16.265625 -4.828125 C 17.359375 -4.828125 18.300781 -4.953125 19.09375 -5.203125 C 19.894531 -5.460938 20.59375 -5.75 21.1875 -6.0625 C 21.78125 -6.375 22.300781 -6.65625 22.75 -6.90625 C 23.195312 -7.164062 23.632812 -7.296875 24.0625 -7.296875 C 24.625 -7.296875 25.039062 -7.085938 25.3125 -6.671875 L 27.265625 -4.203125 C 26.515625 -3.316406 25.671875 -2.578125 24.734375 -1.984375 C 23.804688 -1.390625 22.832031 -0.914062 21.8125 -0.5625 C 20.800781 -0.207031 19.769531 0.0390625 18.71875 0.1875 C 17.664062 0.332031 16.644531 0.40625 15.65625 0.40625 C 13.707031 0.40625 11.890625 0.0820312 10.203125 -0.5625 C 8.523438 -1.207031 7.0625 -2.164062 5.8125 -3.4375 C 4.570312 -4.707031 3.59375 -6.28125 2.875 -8.15625 C 2.164062 -10.03125 1.8125 -12.203125 1.8125 -14.671875 C 1.8125 -16.597656 2.117188 -18.40625 2.734375 -20.09375 C 3.359375 -21.78125 4.25 -23.25 5.40625 -24.5 C 6.570312 -25.757812 7.988281 -26.753906 9.65625 -27.484375 C 11.332031 -28.210938 13.222656 -28.578125 15.328125 -28.578125 C 17.109375 -28.578125 18.75 -28.289062 20.25 -27.71875 C 21.75 -27.15625 23.035156 -26.328125 24.109375 -25.234375 C 25.191406 -24.148438 26.035156 -22.816406 26.640625 -21.234375 C 27.253906 -19.660156 27.5625 -17.859375 27.5625 -15.828125 C 27.5625 -14.804688 27.453125 -14.113281 27.234375 -13.75 C 27.015625 -13.394531 26.59375 -13.21875 25.96875 -13.21875 Z M 8.5625 -13.21875 "/></g></g></g><g fill="#ffffff" fill-opacity="1"><g transform="translate(478.844339, 117.91237)"><g><path d="M 12.734375 0.4375 C 10.273438 0.4375 8.390625 -0.25 7.078125 -1.625 C 5.773438 -3.007812 5.125 -4.914062 5.125 -7.34375 L 5.125 -23.0625 L 2.25 -23.0625 C 1.882812 -23.0625 1.570312 -23.179688 1.3125 -23.421875 C 1.0625 -23.660156 0.9375 -24.019531 0.9375 -24.5 L 0.9375 -27.1875 L 5.453125 -27.921875 L 6.890625 -35.609375 C 6.972656 -35.972656 7.144531 -36.253906 7.40625 -36.453125 C 7.664062 -36.648438 7.992188 -36.75 8.390625 -36.75 L 11.90625 -36.75 L 11.90625 -27.890625 L 19.421875 -27.890625 L 19.421875 -23.0625 L 11.90625 -23.0625 L 11.90625 -7.8125 C 11.90625 -6.9375 12.117188 -6.25 12.546875 -5.75 C 12.972656 -5.257812 13.5625 -5.015625 14.3125 -5.015625 C 14.738281 -5.015625 15.09375 -5.066406 15.375 -5.171875 C 15.65625 -5.273438 15.898438 -5.378906 16.109375 -5.484375 C 16.328125 -5.597656 16.515625 -5.703125 16.671875 -5.796875 C 16.835938 -5.898438 17.003906 -5.953125 17.171875 -5.953125 C 17.367188 -5.953125 17.53125 -5.898438 17.65625 -5.796875 C 17.789062 -5.703125 17.929688 -5.550781 18.078125 -5.34375 L 20.109375 -2.0625 C 19.117188 -1.238281 17.984375 -0.613281 16.703125 -0.1875 C 15.421875 0.226562 14.097656 0.4375 12.734375 0.4375 Z M 12.734375 0.4375 "/></g></g></g></svg>