<svg xmlns="http://www.w3.org/2000/svg" xmlns:xlink="http://www.w3.org/1999/xlink" width="1920" zoomAndPan="magnify" viewBox="0 0 1440 193.499995" height="258" preserveAspectRatio="xMidYMid meet" version="1.0"><defs><g/><clipPath id="f765ce6ab7"><path d="M 1.855469 0 L 1438.144531 0 L 1438.144531 193 L 1.855469 193 Z M 1.855469 0 " clip-rule="nonzero"/></clipPath><clipPath id="0c2900f192"><path d="M 1.855469 0 L 1438.144531 0 L 1438.144531 192.894531 L 1.855469 192.894531 Z M 1.855469 0 " clip-rule="nonzero"/></clipPath><clipPath id="01396acfdf"><path d="M 82.648438 145.882812 L 272.492188 145.882812 L 272.492188 149.625 L 82.648438 149.625 Z M 82.648438 145.882812 " clip-rule="nonzero"/></clipPath></defs><g clip-path="url(#f765ce6ab7)"><path fill="#ffffff" d="M 1.855469 0 L 1438.144531 0 L 1438.144531 193 L 1.855469 193 Z M 1.855469 0 " fill-opacity="1" fill-rule="nonzero"/></g><g clip-path="url(#0c2900f192)"><path fill="#287ead" d="M 1.855469 0 L 1438.007812 0 L 1438.007812 192.894531 L 1.855469 192.894531 Z M 1.855469 0 " fill-opacity="1" fill-rule="nonzero"/></g><g clip-path="url(#01396acfdf)"><path fill="#ffffff" d="M 82.648438 145.882812 L 272.5 145.882812 L 272.5 149.625 L 82.648438 149.625 Z M 82.648438 145.882812 " fill-opacity="1" fill-rule="nonzero"/></g><g fill="#ffffff" fill-opacity="1"><g transform="translate(82.646921, 117.91237)"><g><path d="M 57.1875 -39.65625 L 44.875 0 L 38.203125 0 L 29.546875 -27.09375 C 29.304688 -27.757812 29.085938 -28.566406 28.890625 -29.515625 C 28.773438 -29.054688 28.660156 -28.625 28.546875 -28.21875 C 28.441406 -27.820312 28.328125 -27.445312 28.203125 -27.09375 L 19.453125 0 L 12.75 0 L 0.46875 -39.65625 L 6.640625 -39.65625 C 7.273438 -39.65625 7.804688 -39.503906 8.234375 -39.203125 C 8.671875 -38.910156 8.960938 -38.503906 9.109375 -37.984375 L 15.859375 -14.265625 C 16.003906 -13.679688 16.144531 -13.046875 16.28125 -12.359375 C 16.414062 -11.671875 16.554688 -10.953125 16.703125 -10.203125 C 16.847656 -10.972656 17.003906 -11.695312 17.171875 -12.375 C 17.347656 -13.050781 17.539062 -13.679688 17.75 -14.265625 L 25.53125 -37.984375 C 25.675781 -38.410156 25.960938 -38.796875 26.390625 -39.140625 C 26.828125 -39.484375 27.359375 -39.65625 27.984375 -39.65625 L 30.140625 -39.65625 C 30.785156 -39.65625 31.304688 -39.5 31.703125 -39.1875 C 32.109375 -38.882812 32.410156 -38.484375 32.609375 -37.984375 L 40.375 -14.265625 C 40.757812 -13.128906 41.109375 -11.820312 41.421875 -10.34375 C 41.660156 -11.789062 41.925781 -13.097656 42.21875 -14.265625 L 48.96875 -37.984375 C 49.070312 -38.441406 49.347656 -38.832031 49.796875 -39.15625 C 50.242188 -39.488281 50.78125 -39.65625 51.40625 -39.65625 Z M 57.1875 -39.65625 "/></g></g></g><g fill="#ffffff" fill-opacity="1"><g transform="translate(140.298758, 117.91237)"><g><path d="M 15.796875 -28.578125 C 17.878906 -28.578125 19.773438 -28.238281 21.484375 -27.5625 C 23.203125 -26.882812 24.664062 -25.925781 25.875 -24.6875 C 27.09375 -23.445312 28.03125 -21.925781 28.6875 -20.125 C 29.34375 -18.332031 29.671875 -16.332031 29.671875 -14.125 C 29.671875 -11.894531 29.34375 -9.882812 28.6875 -8.09375 C 28.03125 -6.300781 27.09375 -4.773438 25.875 -3.515625 C 24.664062 -2.253906 23.203125 -1.285156 21.484375 -0.609375 C 19.773438 0.0664062 17.878906 0.40625 15.796875 0.40625 C 13.691406 0.40625 11.78125 0.0664062 10.0625 -0.609375 C 8.34375 -1.285156 6.875 -2.253906 5.65625 -3.515625 C 4.445312 -4.773438 3.507812 -6.300781 2.84375 -8.09375 C 2.175781 -9.882812 1.84375 -11.894531 1.84375 -14.125 C 1.84375 -16.332031 2.175781 -18.332031 2.84375 -20.125 C 3.507812 -21.925781 4.445312 -23.445312 5.65625 -24.6875 C 6.875 -25.925781 8.34375 -26.882812 10.0625 -27.5625 C 11.78125 -28.238281 13.691406 -28.578125 15.796875 -28.578125 Z M 15.796875 -4.796875 C 18.140625 -4.796875 19.875 -5.582031 21 -7.15625 C 22.125 -8.726562 22.6875 -11.035156 22.6875 -14.078125 C 22.6875 -17.109375 22.125 -19.414062 21 -21 C 19.875 -22.59375 18.140625 -23.390625 15.796875 -23.390625 C 13.421875 -23.390625 11.660156 -22.585938 10.515625 -20.984375 C 9.378906 -19.390625 8.8125 -17.085938 8.8125 -14.078125 C 8.8125 -11.054688 9.378906 -8.753906 10.515625 -7.171875 C 11.660156 -5.585938 13.421875 -4.796875 15.796875 -4.796875 Z M 15.796875 -4.796875 "/></g></g></g><g fill="#ffffff" fill-opacity="1"><g transform="translate(171.81254, 117.91237)"><g><path d="M 3.34375 0 L 3.34375 -28.140625 L 7.484375 -28.140625 C 8.367188 -28.140625 8.945312 -27.726562 9.21875 -26.90625 L 9.65625 -24.828125 C 10.144531 -25.367188 10.660156 -25.867188 11.203125 -26.328125 C 11.742188 -26.785156 12.320312 -27.175781 12.9375 -27.5 C 13.550781 -27.832031 14.207031 -28.09375 14.90625 -28.28125 C 15.613281 -28.476562 16.382812 -28.578125 17.21875 -28.578125 C 19 -28.578125 20.457031 -28.097656 21.59375 -27.140625 C 22.738281 -26.179688 23.597656 -24.90625 24.171875 -23.3125 C 24.609375 -24.25 25.15625 -25.050781 25.8125 -25.71875 C 26.46875 -26.382812 27.1875 -26.925781 27.96875 -27.34375 C 28.757812 -27.769531 29.597656 -28.082031 30.484375 -28.28125 C 31.367188 -28.476562 32.257812 -28.578125 33.15625 -28.578125 C 34.71875 -28.578125 36.097656 -28.335938 37.296875 -27.859375 C 38.503906 -27.390625 39.519531 -26.695312 40.34375 -25.78125 C 41.164062 -24.863281 41.789062 -23.75 42.21875 -22.4375 C 42.65625 -21.125 42.875 -19.613281 42.875 -17.90625 L 42.875 0 L 36.09375 0 L 36.09375 -17.90625 C 36.09375 -19.695312 35.695312 -21.046875 34.90625 -21.953125 C 34.125 -22.859375 32.976562 -23.3125 31.46875 -23.3125 C 30.769531 -23.3125 30.125 -23.191406 29.53125 -22.953125 C 28.9375 -22.722656 28.414062 -22.382812 27.96875 -21.9375 C 27.519531 -21.488281 27.164062 -20.925781 26.90625 -20.25 C 26.65625 -19.570312 26.53125 -18.789062 26.53125 -17.90625 L 26.53125 0 L 19.71875 0 L 19.71875 -17.90625 C 19.71875 -19.789062 19.335938 -21.160156 18.578125 -22.015625 C 17.816406 -22.878906 16.707031 -23.3125 15.25 -23.3125 C 14.257812 -23.3125 13.335938 -23.066406 12.484375 -22.578125 C 11.640625 -22.097656 10.851562 -21.4375 10.125 -20.59375 L 10.125 0 Z M 3.34375 0 "/></g></g></g><g fill="#ffffff" fill-opacity="1"><g transform="translate(217.752989, 117.91237)"><g><path d="M 18.21875 -12.015625 C 16.257812 -11.921875 14.613281 -11.75 13.28125 -11.5 C 11.945312 -11.257812 10.875 -10.945312 10.0625 -10.5625 C 9.257812 -10.175781 8.679688 -9.726562 8.328125 -9.21875 C 7.984375 -8.707031 7.8125 -8.148438 7.8125 -7.546875 C 7.8125 -6.359375 8.160156 -5.503906 8.859375 -4.984375 C 9.566406 -4.472656 10.488281 -4.21875 11.625 -4.21875 C 13.019531 -4.21875 14.222656 -4.46875 15.234375 -4.96875 C 16.253906 -5.476562 17.25 -6.242188 18.21875 -7.265625 Z M 2.6875 -24.21875 C 5.925781 -27.175781 9.820312 -28.65625 14.375 -28.65625 C 16.019531 -28.65625 17.488281 -28.382812 18.78125 -27.84375 C 20.082031 -27.3125 21.179688 -26.566406 22.078125 -25.609375 C 22.972656 -24.648438 23.65625 -23.5 24.125 -22.15625 C 24.59375 -20.820312 24.828125 -19.363281 24.828125 -17.78125 L 24.828125 0 L 21.75 0 C 21.113281 0 20.617188 -0.09375 20.265625 -0.28125 C 19.921875 -0.476562 19.648438 -0.867188 19.453125 -1.453125 L 18.84375 -3.484375 C 18.132812 -2.847656 17.441406 -2.285156 16.765625 -1.796875 C 16.085938 -1.304688 15.378906 -0.894531 14.640625 -0.5625 C 13.910156 -0.238281 13.128906 0.00390625 12.296875 0.171875 C 11.460938 0.347656 10.546875 0.4375 9.546875 0.4375 C 8.359375 0.4375 7.257812 0.28125 6.25 -0.03125 C 5.25 -0.351562 4.378906 -0.832031 3.640625 -1.46875 C 2.910156 -2.113281 2.34375 -2.910156 1.9375 -3.859375 C 1.539062 -4.816406 1.34375 -5.925781 1.34375 -7.1875 C 1.34375 -7.894531 1.460938 -8.601562 1.703125 -9.3125 C 1.941406 -10.019531 2.328125 -10.691406 2.859375 -11.328125 C 3.398438 -11.960938 4.097656 -12.5625 4.953125 -13.125 C 5.816406 -13.695312 6.875 -14.191406 8.125 -14.609375 C 9.382812 -15.035156 10.84375 -15.378906 12.5 -15.640625 C 14.164062 -15.910156 16.070312 -16.070312 18.21875 -16.125 L 18.21875 -17.78125 C 18.21875 -19.65625 17.8125 -21.046875 17 -21.953125 C 16.195312 -22.859375 15.035156 -23.3125 13.515625 -23.3125 C 12.421875 -23.3125 11.507812 -23.179688 10.78125 -22.921875 C 10.0625 -22.671875 9.425781 -22.382812 8.875 -22.0625 C 8.332031 -21.75 7.835938 -21.460938 7.390625 -21.203125 C 6.941406 -20.941406 6.441406 -20.8125 5.890625 -20.8125 C 5.421875 -20.8125 5.019531 -20.9375 4.6875 -21.1875 C 4.363281 -21.4375 4.097656 -21.722656 3.890625 -22.046875 Z M 2.6875 -24.21875 "/></g></g></g><g fill="#ffffff" fill-opacity="1"><g transform="translate(245.591534, 117.91237)"><g><path d="M 9.6875 -24.6875 C 10.25 -25.25 10.84375 -25.769531 11.46875 -26.25 C 12.101562 -26.738281 12.769531 -27.148438 13.46875 -27.484375 C 14.175781 -27.828125 14.929688 -28.09375 15.734375 -28.28125 C 16.546875 -28.476562 17.425781 -28.578125 18.375 -28.578125 C 19.914062 -28.578125 21.28125 -28.316406 22.46875 -27.796875 C 23.65625 -27.273438 24.644531 -26.539062 25.4375 -25.59375 C 26.238281 -24.65625 26.84375 -23.53125 27.25 -22.21875 C 27.664062 -20.914062 27.875 -19.476562 27.875 -17.90625 L 27.875 0 L 21.09375 0 L 21.09375 -17.90625 C 21.09375 -19.625 20.695312 -20.953125 19.90625 -21.890625 C 19.125 -22.835938 17.929688 -23.3125 16.328125 -23.3125 C 15.148438 -23.3125 14.050781 -23.046875 13.03125 -22.515625 C 12.007812 -21.984375 11.039062 -21.265625 10.125 -20.359375 L 10.125 0 L 3.34375 0 L 3.34375 -28.140625 L 7.484375 -28.140625 C 8.367188 -28.140625 8.945312 -27.726562 9.21875 -26.90625 Z M 9.6875 -24.6875 "/></g></g></g><g fill="#ffffff" fill-opacity="1"><g transform="translate(276.529357, 117.91237)"><g/></g></g><g fill="#ffffff" fill-opacity="1"><g transform="translate(289.858958, 117.91237)"><g><path d="M 42.234375 -19.828125 C 42.234375 -16.921875 41.753906 -14.226562 40.796875 -11.75 C 39.835938 -9.269531 38.476562 -7.125 36.71875 -5.3125 C 34.96875 -3.507812 32.859375 -2.097656 30.390625 -1.078125 C 27.921875 -0.0664062 25.175781 0.4375 22.15625 0.4375 C 19.164062 0.4375 16.4375 -0.0664062 13.96875 -1.078125 C 11.5 -2.097656 9.378906 -3.507812 7.609375 -5.3125 C 5.847656 -7.125 4.484375 -9.269531 3.515625 -11.75 C 2.546875 -14.226562 2.0625 -16.921875 2.0625 -19.828125 C 2.0625 -22.734375 2.546875 -25.425781 3.515625 -27.90625 C 4.484375 -30.382812 5.847656 -32.53125 7.609375 -34.34375 C 9.378906 -36.15625 11.5 -37.566406 13.96875 -38.578125 C 16.4375 -39.597656 19.164062 -40.109375 22.15625 -40.109375 C 24.175781 -40.109375 26.070312 -39.875 27.84375 -39.40625 C 29.613281 -38.9375 31.238281 -38.273438 32.71875 -37.421875 C 34.195312 -36.578125 35.523438 -35.546875 36.703125 -34.328125 C 37.890625 -33.109375 38.894531 -31.75 39.71875 -30.25 C 40.539062 -28.75 41.164062 -27.117188 41.59375 -25.359375 C 42.019531 -23.609375 42.234375 -21.765625 42.234375 -19.828125 Z M 34.703125 -19.828125 C 34.703125 -22.003906 34.40625 -23.957031 33.8125 -25.6875 C 33.226562 -27.414062 32.394531 -28.882812 31.3125 -30.09375 C 30.238281 -31.300781 28.929688 -32.222656 27.390625 -32.859375 C 25.847656 -33.503906 24.101562 -33.828125 22.15625 -33.828125 C 20.21875 -33.828125 18.476562 -33.503906 16.9375 -32.859375 C 15.394531 -32.222656 14.078125 -31.300781 12.984375 -30.09375 C 11.898438 -28.882812 11.0625 -27.414062 10.46875 -25.6875 C 9.882812 -23.957031 9.59375 -22.003906 9.59375 -19.828125 C 9.59375 -17.648438 9.882812 -15.695312 10.46875 -13.96875 C 11.0625 -12.25 11.898438 -10.789062 12.984375 -9.59375 C 14.078125 -8.394531 15.394531 -7.472656 16.9375 -6.828125 C 18.476562 -6.191406 20.21875 -5.875 22.15625 -5.875 C 24.101562 -5.875 25.847656 -6.191406 27.390625 -6.828125 C 28.929688 -7.472656 30.238281 -8.394531 31.3125 -9.59375 C 32.394531 -10.789062 33.226562 -12.25 33.8125 -13.96875 C 34.40625 -15.695312 34.703125 -17.648438 34.703125 -19.828125 Z M 34.703125 -19.828125 "/></g></g></g><g fill="#ffffff" fill-opacity="1"><g transform="translate(334.181194, 117.91237)"><g><path d="M 43.53125 -28.140625 L 34.59375 0 L 29.15625 0 C 28.53125 0 28.101562 -0.398438 27.875 -1.203125 L 22.828125 -17.46875 C 22.660156 -18.019531 22.503906 -18.5625 22.359375 -19.09375 C 22.222656 -19.632812 22.113281 -20.179688 22.03125 -20.734375 C 21.914062 -20.179688 21.789062 -19.625 21.65625 -19.0625 C 21.519531 -18.507812 21.367188 -17.960938 21.203125 -17.421875 L 16.078125 -1.203125 C 15.859375 -0.398438 15.375 0 14.625 0 L 9.40625 0 L 0.5 -28.140625 L 5.890625 -28.140625 C 6.390625 -28.140625 6.8125 -28.019531 7.15625 -27.78125 C 7.507812 -27.539062 7.738281 -27.238281 7.84375 -26.875 L 11.875 -11.84375 C 12.070312 -11.019531 12.25 -10.210938 12.40625 -9.421875 C 12.5625 -8.640625 12.695312 -7.859375 12.8125 -7.078125 C 13.007812 -7.859375 13.222656 -8.640625 13.453125 -9.421875 C 13.679688 -10.210938 13.925781 -11.019531 14.1875 -11.84375 L 18.84375 -26.9375 C 18.957031 -27.300781 19.171875 -27.601562 19.484375 -27.84375 C 19.804688 -28.082031 20.195312 -28.203125 20.65625 -28.203125 L 23.640625 -28.203125 C 24.117188 -28.203125 24.523438 -28.082031 24.859375 -27.84375 C 25.203125 -27.601562 25.425781 -27.300781 25.53125 -26.9375 L 30.0625 -11.84375 C 30.300781 -11.019531 30.523438 -10.210938 30.734375 -9.421875 C 30.941406 -8.628906 31.148438 -7.835938 31.359375 -7.046875 C 31.585938 -8.597656 31.921875 -10.195312 32.359375 -11.84375 L 36.515625 -26.875 C 36.640625 -27.238281 36.863281 -27.539062 37.1875 -27.78125 C 37.519531 -28.019531 37.914062 -28.140625 38.375 -28.140625 Z M 43.53125 -28.140625 "/></g></g></g><g fill="#ffffff" fill-opacity="1"><g transform="translate(378.201743, 117.91237)"><g><path d="M 9.6875 -24.6875 C 10.25 -25.25 10.84375 -25.769531 11.46875 -26.25 C 12.101562 -26.738281 12.769531 -27.148438 13.46875 -27.484375 C 14.175781 -27.828125 14.929688 -28.09375 15.734375 -28.28125 C 16.546875 -28.476562 17.425781 -28.578125 18.375 -28.578125 C 19.914062 -28.578125 21.28125 -28.316406 22.46875 -27.796875 C 23.65625 -27.273438 24.644531 -26.539062 25.4375 -25.59375 C 26.238281 -24.65625 26.84375 -23.53125 27.25 -22.21875 C 27.664062 -20.914062 27.875 -19.476562 27.875 -17.90625 L 27.875 0 L 21.09375 0 L 21.09375 -17.90625 C 21.09375 -19.625 20.695312 -20.953125 19.90625 -21.890625 C 19.125 -22.835938 17.929688 -23.3125 16.328125 -23.3125 C 15.148438 -23.3125 14.050781 -23.046875 13.03125 -22.515625 C 12.007812 -21.984375 11.039062 -21.265625 10.125 -20.359375 L 10.125 0 L 3.34375 0 L 3.34375 -28.140625 L 7.484375 -28.140625 C 8.367188 -28.140625 8.945312 -27.726562 9.21875 -26.90625 Z M 9.6875 -24.6875 "/></g></g></g><g fill="#ffffff" fill-opacity="1"><g transform="translate(409.139567, 117.91237)"><g><path d="M 21.484375 -17.3125 C 21.484375 -18.1875 21.359375 -19.007812 21.109375 -19.78125 C 20.859375 -20.5625 20.484375 -21.242188 19.984375 -21.828125 C 19.492188 -22.421875 18.867188 -22.882812 18.109375 -23.21875 C 17.359375 -23.5625 16.476562 -23.734375 15.46875 -23.734375 C 13.507812 -23.734375 11.96875 -23.171875 10.84375 -22.046875 C 9.71875 -20.929688 9 -19.351562 8.6875 -17.3125 Z M 8.5625 -13.21875 C 8.664062 -11.769531 8.914062 -10.519531 9.3125 -9.46875 C 9.71875 -8.425781 10.25 -7.5625 10.90625 -6.875 C 11.570312 -6.1875 12.359375 -5.671875 13.265625 -5.328125 C 14.171875 -4.992188 15.171875 -4.828125 16.265625 -4.828125 C 17.359375 -4.828125 18.300781 -4.953125 19.09375 -5.203125 C 19.894531 -5.460938 20.59375 -5.75 21.1875 -6.0625 C 21.78125 -6.375 22.300781 -6.65625 22.75 -6.90625 C 23.195312 -7.164062 23.632812 -7.296875 24.0625 -7.296875 C 24.625 -7.296875 25.039062 -7.085938 25.3125 -6.671875 L 27.265625 -4.203125 C 26.515625 -3.316406 25.671875 -2.578125 24.734375 -1.984375 C 23.804688 -1.390625 22.832031 -0.914062 21.8125 -0.5625 C 20.800781 -0.207031 19.769531 0.0390625 18.71875 0.1875 C 17.664062 0.332031 16.644531 0.40625 15.65625 0.40625 C 13.707031 0.40625 11.890625 0.0820312 10.203125 -0.5625 C 8.523438 -1.207031 7.0625 -2.164062 5.8125 -3.4375 C 4.570312 -4.707031 3.59375 -6.28125 2.875 -8.15625 C 2.164062 -10.03125 1.8125 -12.203125 1.8125 -14.671875 C 1.8125 -16.597656 2.117188 -18.40625 2.734375 -20.09375 C 3.359375 -21.78125 4.25 -23.25 5.40625 -24.5 C 6.570312 -25.757812 7.988281 -26.753906 9.65625 -27.484375 C 11.332031 -28.210938 13.222656 -28.578125 15.328125 -28.578125 C 17.109375 -28.578125 18.75 -28.289062 20.25 -27.71875 C 21.75 -27.15625 23.035156 -26.328125 24.109375 -25.234375 C 25.191406 -24.148438 26.035156 -22.816406 26.640625 -21.234375 C 27.253906 -19.660156 27.5625 -17.859375 27.5625 -15.828125 C 27.5625 -14.804688 27.453125 -14.113281 27.234375 -13.75 C 27.015625 -13.394531 26.59375 -13.21875 25.96875 -13.21875 Z M 8.5625 -13.21875 "/></g></g></g><g fill="#ffffff" fill-opacity="1"><g transform="translate(438.431749, 117.91237)"><g><path d="M 21.015625 -20.953125 C 20.242188 -21.890625 19.40625 -22.546875 18.5 -22.921875 C 17.59375 -23.304688 16.617188 -23.5 15.578125 -23.5 C 14.554688 -23.5 13.632812 -23.304688 12.8125 -22.921875 C 11.988281 -22.546875 11.28125 -21.96875 10.6875 -21.1875 C 10.101562 -20.414062 9.65625 -19.429688 9.34375 -18.234375 C 9.039062 -17.035156 8.890625 -15.617188 8.890625 -13.984375 C 8.890625 -12.335938 9.019531 -10.941406 9.28125 -9.796875 C 9.550781 -8.660156 9.929688 -7.726562 10.421875 -7 C 10.910156 -6.28125 11.507812 -5.757812 12.21875 -5.4375 C 12.9375 -5.125 13.738281 -4.96875 14.625 -4.96875 C 16.03125 -4.96875 17.222656 -5.257812 18.203125 -5.84375 C 19.191406 -6.425781 20.128906 -7.257812 21.015625 -8.34375 Z M 27.78125 -40.765625 L 27.78125 0 L 23.640625 0 C 22.742188 0 22.175781 -0.410156 21.9375 -1.234375 L 21.375 -3.953125 C 20.238281 -2.648438 18.929688 -1.597656 17.453125 -0.796875 C 15.984375 0.00390625 14.269531 0.40625 12.3125 0.40625 C 10.78125 0.40625 9.375 0.0859375 8.09375 -0.546875 C 6.8125 -1.191406 5.707031 -2.117188 4.78125 -3.328125 C 3.863281 -4.546875 3.148438 -6.050781 2.640625 -7.84375 C 2.140625 -9.632812 1.890625 -11.679688 1.890625 -13.984375 C 1.890625 -16.066406 2.171875 -18.003906 2.734375 -19.796875 C 3.304688 -21.597656 4.125 -23.15625 5.1875 -24.46875 C 6.25 -25.78125 7.519531 -26.804688 9 -27.546875 C 10.476562 -28.285156 12.140625 -28.65625 13.984375 -28.65625 C 15.554688 -28.65625 16.898438 -28.410156 18.015625 -27.921875 C 19.128906 -27.429688 20.128906 -26.765625 21.015625 -25.921875 L 21.015625 -40.765625 Z M 27.78125 -40.765625 "/></g></g></g><g fill="#ffffff" fill-opacity="1"><g transform="translate(469.561544, 117.91237)"><g/></g></g><g fill="#ffffff" fill-opacity="1"><g transform="translate(482.891144, 117.91237)"><g><path d="M 19.25 -5.765625 C 20.625 -5.765625 21.773438 -5.925781 22.703125 -6.25 C 23.640625 -6.582031 24.382812 -7.019531 24.9375 -7.5625 C 25.5 -8.113281 25.90625 -8.753906 26.15625 -9.484375 C 26.40625 -10.222656 26.53125 -11.003906 26.53125 -11.828125 C 26.53125 -12.679688 26.390625 -13.453125 26.109375 -14.140625 C 25.835938 -14.828125 25.410156 -15.410156 24.828125 -15.890625 C 24.242188 -16.378906 23.488281 -16.75 22.5625 -17 C 21.632812 -17.257812 20.523438 -17.390625 19.234375 -17.390625 L 11.796875 -17.390625 L 11.796875 -5.765625 Z M 11.796875 -33.953125 L 11.796875 -22.5 L 17.671875 -22.5 C 20.191406 -22.5 22.09375 -22.953125 23.375 -23.859375 C 24.664062 -24.773438 25.3125 -26.226562 25.3125 -28.21875 C 25.3125 -30.289062 24.726562 -31.765625 23.5625 -32.640625 C 22.394531 -33.515625 20.566406 -33.953125 18.078125 -33.953125 Z M 18.078125 -39.65625 C 20.671875 -39.65625 22.890625 -39.410156 24.734375 -38.921875 C 26.585938 -38.429688 28.101562 -37.726562 29.28125 -36.8125 C 30.457031 -35.894531 31.320312 -34.785156 31.875 -33.484375 C 32.425781 -32.191406 32.703125 -30.734375 32.703125 -29.109375 C 32.703125 -28.171875 32.5625 -27.273438 32.28125 -26.421875 C 32.007812 -25.578125 31.582031 -24.785156 31 -24.046875 C 30.425781 -23.304688 29.695312 -22.632812 28.8125 -22.03125 C 27.925781 -21.425781 26.867188 -20.910156 25.640625 -20.484375 C 31.097656 -19.265625 33.828125 -16.320312 33.828125 -11.65625 C 33.828125 -9.976562 33.503906 -8.425781 32.859375 -7 C 32.222656 -5.570312 31.289062 -4.335938 30.0625 -3.296875 C 28.832031 -2.265625 27.320312 -1.457031 25.53125 -0.875 C 23.738281 -0.289062 21.691406 0 19.390625 0 L 4.421875 0 L 4.421875 -39.65625 Z M 18.078125 -39.65625 "/></g></g></g><g fill="#ffffff" fill-opacity="1"><g transform="translate(519.012678, 117.91237)"><g><path d="M 27.59375 -28.140625 L 27.59375 0 L 23.453125 0 C 22.554688 0 21.988281 -0.410156 21.75 -1.234375 L 21.28125 -3.484375 C 20.132812 -2.316406 18.863281 -1.367188 17.46875 -0.640625 C 16.082031 0.078125 14.445312 0.4375 12.5625 0.4375 C 11.03125 0.4375 9.671875 0.175781 8.484375 -0.34375 C 7.304688 -0.863281 6.316406 -1.597656 5.515625 -2.546875 C 4.710938 -3.503906 4.101562 -4.632812 3.6875 -5.9375 C 3.28125 -7.25 3.078125 -8.691406 3.078125 -10.265625 L 3.078125 -28.140625 L 9.84375 -28.140625 L 9.84375 -10.265625 C 9.84375 -8.546875 10.238281 -7.210938 11.03125 -6.265625 C 11.832031 -5.328125 13.03125 -4.859375 14.625 -4.859375 C 15.789062 -4.859375 16.882812 -5.117188 17.90625 -5.640625 C 18.9375 -6.160156 19.90625 -6.878906 20.8125 -7.796875 L 20.8125 -28.140625 Z M 27.59375 -28.140625 "/></g></g></g><g fill="#ffffff" fill-opacity="1"><g transform="translate(549.95048, 117.91237)"><g><path d="M 20.515625 -22.65625 C 20.335938 -22.363281 20.144531 -22.15625 19.9375 -22.03125 C 19.738281 -21.914062 19.484375 -21.859375 19.171875 -21.859375 C 18.835938 -21.859375 18.484375 -21.945312 18.109375 -22.125 C 17.742188 -22.3125 17.3125 -22.519531 16.8125 -22.75 C 16.320312 -22.976562 15.757812 -23.179688 15.125 -23.359375 C 14.5 -23.546875 13.753906 -23.640625 12.890625 -23.640625 C 11.554688 -23.640625 10.507812 -23.351562 9.75 -22.78125 C 8.988281 -22.21875 8.609375 -21.484375 8.609375 -20.578125 C 8.609375 -19.972656 8.804688 -19.460938 9.203125 -19.046875 C 9.597656 -18.640625 10.117188 -18.28125 10.765625 -17.96875 C 11.410156 -17.65625 12.144531 -17.375 12.96875 -17.125 C 13.789062 -16.882812 14.628906 -16.613281 15.484375 -16.3125 C 16.335938 -16.019531 17.175781 -15.6875 18 -15.3125 C 18.820312 -14.9375 19.554688 -14.460938 20.203125 -13.890625 C 20.847656 -13.316406 21.367188 -12.625 21.765625 -11.8125 C 22.160156 -11.007812 22.359375 -10.046875 22.359375 -8.921875 C 22.359375 -7.566406 22.113281 -6.316406 21.625 -5.171875 C 21.144531 -4.023438 20.425781 -3.035156 19.46875 -2.203125 C 18.519531 -1.367188 17.347656 -0.71875 15.953125 -0.25 C 14.554688 0.207031 12.941406 0.4375 11.109375 0.4375 C 10.140625 0.4375 9.191406 0.347656 8.265625 0.171875 C 7.347656 0.00390625 6.460938 -0.234375 5.609375 -0.546875 C 4.753906 -0.859375 3.96875 -1.222656 3.25 -1.640625 C 2.53125 -2.066406 1.894531 -2.523438 1.34375 -3.015625 L 2.90625 -5.59375 C 3.101562 -5.90625 3.335938 -6.144531 3.609375 -6.3125 C 3.890625 -6.476562 4.238281 -6.5625 4.65625 -6.5625 C 5.082031 -6.5625 5.484375 -6.441406 5.859375 -6.203125 C 6.234375 -5.960938 6.664062 -5.703125 7.15625 -5.421875 C 7.65625 -5.148438 8.238281 -4.894531 8.90625 -4.65625 C 9.570312 -4.425781 10.414062 -4.3125 11.4375 -4.3125 C 12.238281 -4.3125 12.925781 -4.40625 13.5 -4.59375 C 14.082031 -4.78125 14.5625 -5.03125 14.9375 -5.34375 C 15.3125 -5.65625 15.582031 -6.015625 15.75 -6.421875 C 15.925781 -6.835938 16.015625 -7.265625 16.015625 -7.703125 C 16.015625 -8.359375 15.816406 -8.894531 15.421875 -9.3125 C 15.035156 -9.738281 14.515625 -10.109375 13.859375 -10.421875 C 13.210938 -10.734375 12.472656 -11.007812 11.640625 -11.25 C 10.804688 -11.5 9.957031 -11.769531 9.09375 -12.0625 C 8.226562 -12.363281 7.378906 -12.707031 6.546875 -13.09375 C 5.710938 -13.488281 4.96875 -13.988281 4.3125 -14.59375 C 3.664062 -15.195312 3.144531 -15.9375 2.75 -16.8125 C 2.363281 -17.6875 2.171875 -18.75 2.171875 -20 C 2.171875 -21.144531 2.394531 -22.238281 2.84375 -23.28125 C 3.300781 -24.320312 3.972656 -25.234375 4.859375 -26.015625 C 5.753906 -26.796875 6.863281 -27.414062 8.1875 -27.875 C 9.507812 -28.34375 11.039062 -28.578125 12.78125 -28.578125 C 14.71875 -28.578125 16.484375 -28.253906 18.078125 -27.609375 C 19.671875 -26.972656 20.992188 -26.132812 22.046875 -25.09375 Z M 20.515625 -22.65625 "/></g></g></g><g fill="#ffffff" fill-opacity="1"><g transform="translate(574.058928, 117.91237)"><g><path d="M 10.375 -28.140625 L 10.375 0 L 3.5625 0 L 3.5625 -28.140625 Z M 11.296875 -36.34375 C 11.296875 -35.757812 11.175781 -35.210938 10.9375 -34.703125 C 10.707031 -34.191406 10.394531 -33.742188 10 -33.359375 C 9.601562 -32.972656 9.140625 -32.664062 8.609375 -32.4375 C 8.078125 -32.207031 7.507812 -32.09375 6.90625 -32.09375 C 6.320312 -32.09375 5.769531 -32.207031 5.25 -32.4375 C 4.726562 -32.664062 4.273438 -32.972656 3.890625 -33.359375 C 3.503906 -33.742188 3.195312 -34.191406 2.96875 -34.703125 C 2.75 -35.210938 2.640625 -35.757812 2.640625 -36.34375 C 2.640625 -36.945312 2.75 -37.515625 2.96875 -38.046875 C 3.195312 -38.578125 3.503906 -39.035156 3.890625 -39.421875 C 4.273438 -39.804688 4.726562 -40.109375 5.25 -40.328125 C 5.769531 -40.554688 6.320312 -40.671875 6.90625 -40.671875 C 7.507812 -40.671875 8.078125 -40.554688 8.609375 -40.328125 C 9.140625 -40.109375 9.601562 -39.804688 10 -39.421875 C 10.394531 -39.035156 10.707031 -38.578125 10.9375 -38.046875 C 11.175781 -37.515625 11.296875 -36.945312 11.296875 -36.34375 Z M 11.296875 -36.34375 "/></g></g></g><g fill="#ffffff" fill-opacity="1"><g transform="translate(587.991903, 117.91237)"><g><path d="M 9.6875 -24.6875 C 10.25 -25.25 10.84375 -25.769531 11.46875 -26.25 C 12.101562 -26.738281 12.769531 -27.148438 13.46875 -27.484375 C 14.175781 -27.828125 14.929688 -28.09375 15.734375 -28.28125 C 16.546875 -28.476562 17.425781 -28.578125 18.375 -28.578125 C 19.914062 -28.578125 21.28125 -28.316406 22.46875 -27.796875 C 23.65625 -27.273438 24.644531 -26.539062 25.4375 -25.59375 C 26.238281 -24.65625 26.84375 -23.53125 27.25 -22.21875 C 27.664062 -20.914062 27.875 -19.476562 27.875 -17.90625 L 27.875 0 L 21.09375 0 L 21.09375 -17.90625 C 21.09375 -19.625 20.695312 -20.953125 19.90625 -21.890625 C 19.125 -22.835938 17.929688 -23.3125 16.328125 -23.3125 C 15.148438 -23.3125 14.050781 -23.046875 13.03125 -22.515625 C 12.007812 -21.984375 11.039062 -21.265625 10.125 -20.359375 L 10.125 0 L 3.34375 0 L 3.34375 -28.140625 L 7.484375 -28.140625 C 8.367188 -28.140625 8.945312 -27.726562 9.21875 -26.90625 Z M 9.6875 -24.6875 "/></g></g></g><g fill="#ffffff" fill-opacity="1"><g transform="translate(618.929705, 117.91237)"><g><path d="M 21.484375 -17.3125 C 21.484375 -18.1875 21.359375 -19.007812 21.109375 -19.78125 C 20.859375 -20.5625 20.484375 -21.242188 19.984375 -21.828125 C 19.492188 -22.421875 18.867188 -22.882812 18.109375 -23.21875 C 17.359375 -23.5625 16.476562 -23.734375 15.46875 -23.734375 C 13.507812 -23.734375 11.96875 -23.171875 10.84375 -22.046875 C 9.71875 -20.929688 9 -19.351562 8.6875 -17.3125 Z M 8.5625 -13.21875 C 8.664062 -11.769531 8.914062 -10.519531 9.3125 -9.46875 C 9.71875 -8.425781 10.25 -7.5625 10.90625 -6.875 C 11.570312 -6.1875 12.359375 -5.671875 13.265625 -5.328125 C 14.171875 -4.992188 15.171875 -4.828125 16.265625 -4.828125 C 17.359375 -4.828125 18.300781 -4.953125 19.09375 -5.203125 C 19.894531 -5.460938 20.59375 -5.75 21.1875 -6.0625 C 21.78125 -6.375 22.300781 -6.65625 22.75 -6.90625 C 23.195312 -7.164062 23.632812 -7.296875 24.0625 -7.296875 C 24.625 -7.296875 25.039062 -7.085938 25.3125 -6.671875 L 27.265625 -4.203125 C 26.515625 -3.316406 25.671875 -2.578125 24.734375 -1.984375 C 23.804688 -1.390625 22.832031 -0.914062 21.8125 -0.5625 C 20.800781 -0.207031 19.769531 0.0390625 18.71875 0.1875 C 17.664062 0.332031 16.644531 0.40625 15.65625 0.40625 C 13.707031 0.40625 11.890625 0.0820312 10.203125 -0.5625 C 8.523438 -1.207031 7.0625 -2.164062 5.8125 -3.4375 C 4.570312 -4.707031 3.59375 -6.28125 2.875 -8.15625 C 2.164062 -10.03125 1.8125 -12.203125 1.8125 -14.671875 C 1.8125 -16.597656 2.117188 -18.40625 2.734375 -20.09375 C 3.359375 -21.78125 4.25 -23.25 5.40625 -24.5 C 6.570312 -25.757812 7.988281 -26.753906 9.65625 -27.484375 C 11.332031 -28.210938 13.222656 -28.578125 15.328125 -28.578125 C 17.109375 -28.578125 18.75 -28.289062 20.25 -27.71875 C 21.75 -27.15625 23.035156 -26.328125 24.109375 -25.234375 C 25.191406 -24.148438 26.035156 -22.816406 26.640625 -21.234375 C 27.253906 -19.660156 27.5625 -17.859375 27.5625 -15.828125 C 27.5625 -14.804688 27.453125 -14.113281 27.234375 -13.75 C 27.015625 -13.394531 26.59375 -13.21875 25.96875 -13.21875 Z M 8.5625 -13.21875 "/></g></g></g><g fill="#ffffff" fill-opacity="1"><g transform="translate(648.221887, 117.91237)"><g><path d="M 20.515625 -22.65625 C 20.335938 -22.363281 20.144531 -22.15625 19.9375 -22.03125 C 19.738281 -21.914062 19.484375 -21.859375 19.171875 -21.859375 C 18.835938 -21.859375 18.484375 -21.945312 18.109375 -22.125 C 17.742188 -22.3125 17.3125 -22.519531 16.8125 -22.75 C 16.320312 -22.976562 15.757812 -23.179688 15.125 -23.359375 C 14.5 -23.546875 13.753906 -23.640625 12.890625 -23.640625 C 11.554688 -23.640625 10.507812 -23.351562 9.75 -22.78125 C 8.988281 -22.21875 8.609375 -21.484375 8.609375 -20.578125 C 8.609375 -19.972656 8.804688 -19.460938 9.203125 -19.046875 C 9.597656 -18.640625 10.117188 -18.28125 10.765625 -17.96875 C 11.410156 -17.65625 12.144531 -17.375 12.96875 -17.125 C 13.789062 -16.882812 14.628906 -16.613281 15.484375 -16.3125 C 16.335938 -16.019531 17.175781 -15.6875 18 -15.3125 C 18.820312 -14.9375 19.554688 -14.460938 20.203125 -13.890625 C 20.847656 -13.316406 21.367188 -12.625 21.765625 -11.8125 C 22.160156 -11.007812 22.359375 -10.046875 22.359375 -8.921875 C 22.359375 -7.566406 22.113281 -6.316406 21.625 -5.171875 C 21.144531 -4.023438 20.425781 -3.035156 19.46875 -2.203125 C 18.519531 -1.367188 17.347656 -0.71875 15.953125 -0.25 C 14.554688 0.207031 12.941406 0.4375 11.109375 0.4375 C 10.140625 0.4375 9.191406 0.347656 8.265625 0.171875 C 7.347656 0.00390625 6.460938 -0.234375 5.609375 -0.546875 C 4.753906 -0.859375 3.96875 -1.222656 3.25 -1.640625 C 2.53125 -2.066406 1.894531 -2.523438 1.34375 -3.015625 L 2.90625 -5.59375 C 3.101562 -5.90625 3.335938 -6.144531 3.609375 -6.3125 C 3.890625 -6.476562 4.238281 -6.5625 4.65625 -6.5625 C 5.082031 -6.5625 5.484375 -6.441406 5.859375 -6.203125 C 6.234375 -5.960938 6.664062 -5.703125 7.15625 -5.421875 C 7.65625 -5.148438 8.238281 -4.894531 8.90625 -4.65625 C 9.570312 -4.425781 10.414062 -4.3125 11.4375 -4.3125 C 12.238281 -4.3125 12.925781 -4.40625 13.5 -4.59375 C 14.082031 -4.78125 14.5625 -5.03125 14.9375 -5.34375 C 15.3125 -5.65625 15.582031 -6.015625 15.75 -6.421875 C 15.925781 -6.835938 16.015625 -7.265625 16.015625 -7.703125 C 16.015625 -8.359375 15.816406 -8.894531 15.421875 -9.3125 C 15.035156 -9.738281 14.515625 -10.109375 13.859375 -10.421875 C 13.210938 -10.734375 12.472656 -11.007812 11.640625 -11.25 C 10.804688 -11.5 9.957031 -11.769531 9.09375 -12.0625 C 8.226562 -12.363281 7.378906 -12.707031 6.546875 -13.09375 C 5.710938 -13.488281 4.96875 -13.988281 4.3125 -14.59375 C 3.664062 -15.195312 3.144531 -15.9375 2.75 -16.8125 C 2.363281 -17.6875 2.171875 -18.75 2.171875 -20 C 2.171875 -21.144531 2.394531 -22.238281 2.84375 -23.28125 C 3.300781 -24.320312 3.972656 -25.234375 4.859375 -26.015625 C 5.753906 -26.796875 6.863281 -27.414062 8.1875 -27.875 C 9.507812 -28.34375 11.039062 -28.578125 12.78125 -28.578125 C 14.71875 -28.578125 16.484375 -28.253906 18.078125 -27.609375 C 19.671875 -26.972656 20.992188 -26.132812 22.046875 -25.09375 Z M 20.515625 -22.65625 "/></g></g></g><g fill="#ffffff" fill-opacity="1"><g transform="translate(672.330335, 117.91237)"><g><path d="M 20.515625 -22.65625 C 20.335938 -22.363281 20.144531 -22.15625 19.9375 -22.03125 C 19.738281 -21.914062 19.484375 -21.859375 19.171875 -21.859375 C 18.835938 -21.859375 18.484375 -21.945312 18.109375 -22.125 C 17.742188 -22.3125 17.3125 -22.519531 16.8125 -22.75 C 16.320312 -22.976562 15.757812 -23.179688 15.125 -23.359375 C 14.5 -23.546875 13.753906 -23.640625 12.890625 -23.640625 C 11.554688 -23.640625 10.507812 -23.351562 9.75 -22.78125 C 8.988281 -22.21875 8.609375 -21.484375 8.609375 -20.578125 C 8.609375 -19.972656 8.804688 -19.460938 9.203125 -19.046875 C 9.597656 -18.640625 10.117188 -18.28125 10.765625 -17.96875 C 11.410156 -17.65625 12.144531 -17.375 12.96875 -17.125 C 13.789062 -16.882812 14.628906 -16.613281 15.484375 -16.3125 C 16.335938 -16.019531 17.175781 -15.6875 18 -15.3125 C 18.820312 -14.9375 19.554688 -14.460938 20.203125 -13.890625 C 20.847656 -13.316406 21.367188 -12.625 21.765625 -11.8125 C 22.160156 -11.007812 22.359375 -10.046875 22.359375 -8.921875 C 22.359375 -7.566406 22.113281 -6.316406 21.625 -5.171875 C 21.144531 -4.023438 20.425781 -3.035156 19.46875 -2.203125 C 18.519531 -1.367188 17.347656 -0.71875 15.953125 -0.25 C 14.554688 0.207031 12.941406 0.4375 11.109375 0.4375 C 10.140625 0.4375 9.191406 0.347656 8.265625 0.171875 C 7.347656 0.00390625 6.460938 -0.234375 5.609375 -0.546875 C 4.753906 -0.859375 3.96875 -1.222656 3.25 -1.640625 C 2.53125 -2.066406 1.894531 -2.523438 1.34375 -3.015625 L 2.90625 -5.59375 C 3.101562 -5.90625 3.335938 -6.144531 3.609375 -6.3125 C 3.890625 -6.476562 4.238281 -6.5625 4.65625 -6.5625 C 5.082031 -6.5625 5.484375 -6.441406 5.859375 -6.203125 C 6.234375 -5.960938 6.664062 -5.703125 7.15625 -5.421875 C 7.65625 -5.148438 8.238281 -4.894531 8.90625 -4.65625 C 9.570312 -4.425781 10.414062 -4.3125 11.4375 -4.3125 C 12.238281 -4.3125 12.925781 -4.40625 13.5 -4.59375 C 14.082031 -4.78125 14.5625 -5.03125 14.9375 -5.34375 C 15.3125 -5.65625 15.582031 -6.015625 15.75 -6.421875 C 15.925781 -6.835938 16.015625 -7.265625 16.015625 -7.703125 C 16.015625 -8.359375 15.816406 -8.894531 15.421875 -9.3125 C 15.035156 -9.738281 14.515625 -10.109375 13.859375 -10.421875 C 13.210938 -10.734375 12.472656 -11.007812 11.640625 -11.25 C 10.804688 -11.5 9.957031 -11.769531 9.09375 -12.0625 C 8.226562 -12.363281 7.378906 -12.707031 6.546875 -13.09375 C 5.710938 -13.488281 4.96875 -13.988281 4.3125 -14.59375 C 3.664062 -15.195312 3.144531 -15.9375 2.75 -16.8125 C 2.363281 -17.6875 2.171875 -18.75 2.171875 -20 C 2.171875 -21.144531 2.394531 -22.238281 2.84375 -23.28125 C 3.300781 -24.320312 3.972656 -25.234375 4.859375 -26.015625 C 5.753906 -26.796875 6.863281 -27.414062 8.1875 -27.875 C 9.507812 -28.34375 11.039062 -28.578125 12.78125 -28.578125 C 14.71875 -28.578125 16.484375 -28.253906 18.078125 -27.609375 C 19.671875 -26.972656 20.992188 -26.132812 22.046875 -25.09375 Z M 20.515625 -22.65625 "/></g></g></g></svg>