<svg xmlns="http://www.w3.org/2000/svg" xmlns:xlink="http://www.w3.org/1999/xlink" width="1960" zoomAndPan="magnify" viewBox="0 0 1470 193.499995" height="258" preserveAspectRatio="xMidYMid meet" version="1.0"><defs><g/><clipPath id="a8c0d296c7"><path d="M 1.894531 0 L 1468.105469 0 L 1468.105469 192.894531 L 1.894531 192.894531 Z M 1.894531 0 " clip-rule="nonzero"/></clipPath><clipPath id="c47bdc1a5a"><path d="M 99.144531 145.882812 L 288.988281 145.882812 L 288.988281 149.625 L 99.144531 149.625 Z M 99.144531 145.882812 " clip-rule="nonzero"/></clipPath></defs><g clip-path="url(#a8c0d296c7)"><path fill="#287ead" d="M 1.894531 0 L 1468.1875 0 L 1468.1875 192.894531 L 1.894531 192.894531 Z M 1.894531 0 " fill-opacity="1" fill-rule="nonzero"/></g><g clip-path="url(#c47bdc1a5a)"><path fill="#ffffff" d="M 99.144531 145.882812 L 288.996094 145.882812 L 288.996094 149.625 L 99.144531 149.625 Z M 99.144531 145.882812 " fill-opacity="1" fill-rule="nonzero"/></g><g fill="#ffffff" fill-opacity="1"><g transform="translate(99.143055, 117.91237)"><g><path d="M 11.828125 0 L 4.421875 0 L 4.421875 -39.65625 L 11.828125 -39.65625 Z M 11.828125 0 "/></g></g></g><g fill="#ffffff" fill-opacity="1"><g transform="translate(115.407347, 117.91237)"><g><path d="M 31.65625 -9.359375 C 32.050781 -9.359375 32.40625 -9.203125 32.71875 -8.890625 L 35.625 -5.734375 C 34.019531 -3.742188 32.039062 -2.21875 29.6875 -1.15625 C 27.34375 -0.09375 24.523438 0.4375 21.234375 0.4375 C 18.285156 0.4375 15.632812 -0.0625 13.28125 -1.0625 C 10.9375 -2.070312 8.929688 -3.472656 7.265625 -5.265625 C 5.597656 -7.054688 4.320312 -9.195312 3.4375 -11.6875 C 2.550781 -14.175781 2.109375 -16.890625 2.109375 -19.828125 C 2.109375 -22.804688 2.582031 -25.535156 3.53125 -28.015625 C 4.488281 -30.492188 5.832031 -32.628906 7.5625 -34.421875 C 9.289062 -36.210938 11.347656 -37.609375 13.734375 -38.609375 C 16.128906 -39.609375 18.785156 -40.109375 21.703125 -40.109375 C 24.585938 -40.109375 27.148438 -39.628906 29.390625 -38.671875 C 31.628906 -37.722656 33.535156 -36.476562 35.109375 -34.9375 L 32.640625 -31.515625 C 32.492188 -31.296875 32.304688 -31.101562 32.078125 -30.9375 C 31.847656 -30.769531 31.53125 -30.6875 31.125 -30.6875 C 30.851562 -30.6875 30.570312 -30.765625 30.28125 -30.921875 C 29.988281 -31.078125 29.664062 -31.269531 29.3125 -31.5 C 28.96875 -31.726562 28.566406 -31.976562 28.109375 -32.25 C 27.648438 -32.53125 27.117188 -32.785156 26.515625 -33.015625 C 25.921875 -33.242188 25.222656 -33.4375 24.421875 -33.59375 C 23.628906 -33.75 22.710938 -33.828125 21.671875 -33.828125 C 19.898438 -33.828125 18.273438 -33.507812 16.796875 -32.875 C 15.328125 -32.238281 14.0625 -31.320312 13 -30.125 C 11.9375 -28.925781 11.113281 -27.460938 10.53125 -25.734375 C 9.945312 -24.015625 9.65625 -22.046875 9.65625 -19.828125 C 9.65625 -17.597656 9.96875 -15.613281 10.59375 -13.875 C 11.226562 -12.144531 12.082031 -10.679688 13.15625 -9.484375 C 14.238281 -8.296875 15.507812 -7.382812 16.96875 -6.75 C 18.4375 -6.125 20.015625 -5.8125 21.703125 -5.8125 C 22.703125 -5.8125 23.609375 -5.863281 24.421875 -5.96875 C 25.234375 -6.082031 25.984375 -6.257812 26.671875 -6.5 C 27.359375 -6.738281 28.007812 -7.046875 28.625 -7.421875 C 29.238281 -7.796875 29.847656 -8.257812 30.453125 -8.8125 C 30.628906 -8.96875 30.816406 -9.097656 31.015625 -9.203125 C 31.222656 -9.304688 31.4375 -9.359375 31.65625 -9.359375 Z M 31.65625 -9.359375 "/></g></g></g><g fill="#ffffff" fill-opacity="1"><g transform="translate(151.693446, 117.91237)"><g><path d="M 42.234375 -19.828125 C 42.234375 -16.921875 41.753906 -14.226562 40.796875 -11.75 C 39.835938 -9.269531 38.476562 -7.125 36.71875 -5.3125 C 34.96875 -3.507812 32.859375 -2.097656 30.390625 -1.078125 C 27.921875 -0.0664062 25.175781 0.4375 22.15625 0.4375 C 19.164062 0.4375 16.4375 -0.0664062 13.96875 -1.078125 C 11.5 -2.097656 9.378906 -3.507812 7.609375 -5.3125 C 5.847656 -7.125 4.484375 -9.269531 3.515625 -11.75 C 2.546875 -14.226562 2.0625 -16.921875 2.0625 -19.828125 C 2.0625 -22.734375 2.546875 -25.425781 3.515625 -27.90625 C 4.484375 -30.382812 5.847656 -32.53125 7.609375 -34.34375 C 9.378906 -36.15625 11.5 -37.566406 13.96875 -38.578125 C 16.4375 -39.597656 19.164062 -40.109375 22.15625 -40.109375 C 24.175781 -40.109375 26.070312 -39.875 27.84375 -39.40625 C 29.613281 -38.9375 31.238281 -38.273438 32.71875 -37.421875 C 34.195312 -36.578125 35.523438 -35.546875 36.703125 -34.328125 C 37.890625 -33.109375 38.894531 -31.75 39.71875 -30.25 C 40.539062 -28.75 41.164062 -27.117188 41.59375 -25.359375 C 42.019531 -23.609375 42.234375 -21.765625 42.234375 -19.828125 Z M 34.703125 -19.828125 C 34.703125 -22.003906 34.40625 -23.957031 33.8125 -25.6875 C 33.226562 -27.414062 32.394531 -28.882812 31.3125 -30.09375 C 30.238281 -31.300781 28.929688 -32.222656 27.390625 -32.859375 C 25.847656 -33.503906 24.101562 -33.828125 22.15625 -33.828125 C 20.21875 -33.828125 18.476562 -33.503906 16.9375 -32.859375 C 15.394531 -32.222656 14.078125 -31.300781 12.984375 -30.09375 C 11.898438 -28.882812 11.0625 -27.414062 10.46875 -25.6875 C 9.882812 -23.957031 9.59375 -22.003906 9.59375 -19.828125 C 9.59375 -17.648438 9.882812 -15.695312 10.46875 -13.96875 C 11.0625 -12.25 11.898438 -10.789062 12.984375 -9.59375 C 14.078125 -8.394531 15.394531 -7.472656 16.9375 -6.828125 C 18.476562 -6.191406 20.21875 -5.875 22.15625 -5.875 C 24.101562 -5.875 25.847656 -6.191406 27.390625 -6.828125 C 28.929688 -7.472656 30.238281 -8.394531 31.3125 -9.59375 C 32.394531 -10.789062 33.226562 -12.25 33.8125 -13.96875 C 34.40625 -15.695312 34.703125 -17.648438 34.703125 -19.828125 Z M 34.703125 -19.828125 "/></g></g></g><g fill="#ffffff" fill-opacity="1"><g transform="translate(196.017726, 117.91237)"><g/></g></g><g fill="#ffffff" fill-opacity="1"><g transform="translate(209.347314, 117.91237)"><g><path d="M 16.40625 -20.796875 C 17.789062 -20.796875 19 -20.96875 20.03125 -21.3125 C 21.070312 -21.65625 21.925781 -22.132812 22.59375 -22.75 C 23.257812 -23.363281 23.753906 -24.085938 24.078125 -24.921875 C 24.410156 -25.765625 24.578125 -26.691406 24.578125 -27.703125 C 24.578125 -29.710938 23.910156 -31.253906 22.578125 -32.328125 C 21.253906 -33.410156 19.234375 -33.953125 16.515625 -33.953125 L 11.796875 -33.953125 L 11.796875 -20.796875 Z M 35.390625 0 L 28.71875 0 C 27.457031 0 26.539062 -0.492188 25.96875 -1.484375 L 17.640625 -14.1875 C 17.328125 -14.65625 16.984375 -14.988281 16.609375 -15.1875 C 16.234375 -15.394531 15.679688 -15.5 14.953125 -15.5 L 11.796875 -15.5 L 11.796875 0 L 4.421875 0 L 4.421875 -39.65625 L 16.515625 -39.65625 C 19.203125 -39.65625 21.507812 -39.375 23.4375 -38.8125 C 25.363281 -38.257812 26.941406 -37.476562 28.171875 -36.46875 C 29.410156 -35.46875 30.320312 -34.269531 30.90625 -32.875 C 31.5 -31.476562 31.796875 -29.9375 31.796875 -28.25 C 31.796875 -26.914062 31.597656 -25.65625 31.203125 -24.46875 C 30.804688 -23.28125 30.238281 -22.203125 29.5 -21.234375 C 28.757812 -20.265625 27.84375 -19.410156 26.75 -18.671875 C 25.664062 -17.941406 24.429688 -17.367188 23.046875 -16.953125 C 23.515625 -16.679688 23.945312 -16.359375 24.34375 -15.984375 C 24.75 -15.609375 25.117188 -15.160156 25.453125 -14.640625 Z M 35.390625 0 "/></g></g></g><g fill="#ffffff" fill-opacity="1"><g transform="translate(244.61861, 117.91237)"><g><path d="M 21.484375 -17.3125 C 21.484375 -18.1875 21.359375 -19.007812 21.109375 -19.78125 C 20.859375 -20.5625 20.484375 -21.242188 19.984375 -21.828125 C 19.492188 -22.421875 18.867188 -22.882812 18.109375 -23.21875 C 17.359375 -23.5625 16.476562 -23.734375 15.46875 -23.734375 C 13.507812 -23.734375 11.96875 -23.171875 10.84375 -22.046875 C 9.71875 -20.929688 9 -19.351562 8.6875 -17.3125 Z M 8.5625 -13.21875 C 8.664062 -11.769531 8.914062 -10.519531 9.3125 -9.46875 C 9.71875 -8.425781 10.25 -7.5625 10.90625 -6.875 C 11.570312 -6.1875 12.359375 -5.671875 13.265625 -5.328125 C 14.171875 -4.992188 15.171875 -4.828125 16.265625 -4.828125 C 17.359375 -4.828125 18.300781 -4.953125 19.09375 -5.203125 C 19.894531 -5.460938 20.59375 -5.75 21.1875 -6.0625 C 21.78125 -6.375 22.300781 -6.65625 22.75 -6.90625 C 23.195312 -7.164062 23.632812 -7.296875 24.0625 -7.296875 C 24.625 -7.296875 25.039062 -7.085938 25.3125 -6.671875 L 27.265625 -4.203125 C 26.515625 -3.316406 25.671875 -2.578125 24.734375 -1.984375 C 23.804688 -1.390625 22.832031 -0.914062 21.8125 -0.5625 C 20.800781 -0.207031 19.769531 0.0390625 18.71875 0.1875 C 17.664062 0.332031 16.644531 0.40625 15.65625 0.40625 C 13.707031 0.40625 11.890625 0.0820312 10.203125 -0.5625 C 8.523438 -1.207031 7.0625 -2.164062 5.8125 -3.4375 C 4.570312 -4.707031 3.59375 -6.28125 2.875 -8.15625 C 2.164062 -10.03125 1.8125 -12.203125 1.8125 -14.671875 C 1.8125 -16.597656 2.117188 -18.40625 2.734375 -20.09375 C 3.359375 -21.78125 4.25 -23.25 5.40625 -24.5 C 6.570312 -25.757812 7.988281 -26.753906 9.65625 -27.484375 C 11.332031 -28.210938 13.222656 -28.578125 15.328125 -28.578125 C 17.109375 -28.578125 18.75 -28.289062 20.25 -27.71875 C 21.75 -27.15625 23.035156 -26.328125 24.109375 -25.234375 C 25.191406 -24.148438 26.035156 -22.816406 26.640625 -21.234375 C 27.253906 -19.660156 27.5625 -17.859375 27.5625 -15.828125 C 27.5625 -14.804688 27.453125 -14.113281 27.234375 -13.75 C 27.015625 -13.394531 26.59375 -13.21875 25.96875 -13.21875 Z M 8.5625 -13.21875 "/></g></g></g><g fill="#ffffff" fill-opacity="1"><g transform="translate(273.910792, 117.91237)"><g><path d="M 13.625 -14.75 C 14.46875 -14.75 15.203125 -14.863281 15.828125 -15.09375 C 16.453125 -15.320312 16.96875 -15.640625 17.375 -16.046875 C 17.789062 -16.453125 18.101562 -16.9375 18.3125 -17.5 C 18.519531 -18.0625 18.625 -18.679688 18.625 -19.359375 C 18.625 -20.753906 18.207031 -21.859375 17.375 -22.671875 C 16.539062 -23.484375 15.289062 -23.890625 13.625 -23.890625 C 11.96875 -23.890625 10.722656 -23.484375 9.890625 -22.671875 C 9.054688 -21.859375 8.640625 -20.753906 8.640625 -19.359375 C 8.640625 -18.703125 8.742188 -18.085938 8.953125 -17.515625 C 9.160156 -16.953125 9.46875 -16.460938 9.875 -16.046875 C 10.289062 -15.640625 10.8125 -15.320312 11.4375 -15.09375 C 12.070312 -14.863281 12.800781 -14.75 13.625 -14.75 Z M 21.28125 1.265625 C 21.28125 0.710938 21.113281 0.265625 20.78125 -0.078125 C 20.457031 -0.429688 20.007812 -0.703125 19.4375 -0.890625 C 18.875 -1.078125 18.210938 -1.21875 17.453125 -1.3125 C 16.703125 -1.40625 15.898438 -1.472656 15.046875 -1.515625 C 14.191406 -1.566406 13.3125 -1.609375 12.40625 -1.640625 C 11.5 -1.679688 10.617188 -1.753906 9.765625 -1.859375 C 9.015625 -1.441406 8.40625 -0.945312 7.9375 -0.375 C 7.46875 0.1875 7.234375 0.84375 7.234375 1.59375 C 7.234375 2.082031 7.359375 2.539062 7.609375 2.96875 C 7.859375 3.40625 8.25 3.773438 8.78125 4.078125 C 9.320312 4.390625 10.019531 4.632812 10.875 4.8125 C 11.738281 4.988281 12.796875 5.078125 14.046875 5.078125 C 15.304688 5.078125 16.390625 4.976562 17.296875 4.78125 C 18.210938 4.59375 18.96875 4.328125 19.5625 3.984375 C 20.164062 3.648438 20.601562 3.25 20.875 2.78125 C 21.144531 2.3125 21.28125 1.804688 21.28125 1.265625 Z M 28.03125 -27.1875 L 28.03125 -24.65625 C 28.03125 -23.851562 27.546875 -23.359375 26.578125 -23.171875 L 24.0625 -22.71875 C 24.4375 -21.75 24.625 -20.6875 24.625 -19.53125 C 24.625 -18.132812 24.34375 -16.875 23.78125 -15.75 C 23.226562 -14.632812 22.457031 -13.679688 21.46875 -12.890625 C 20.488281 -12.109375 19.328125 -11.5 17.984375 -11.0625 C 16.640625 -10.632812 15.1875 -10.421875 13.625 -10.421875 C 13.082031 -10.421875 12.554688 -10.445312 12.046875 -10.5 C 11.535156 -10.5625 11.03125 -10.632812 10.53125 -10.71875 C 9.65625 -10.1875 9.21875 -9.59375 9.21875 -8.9375 C 9.21875 -8.375 9.476562 -7.957031 10 -7.6875 C 10.519531 -7.425781 11.207031 -7.238281 12.0625 -7.125 C 12.925781 -7.019531 13.90625 -6.953125 15 -6.921875 C 16.101562 -6.898438 17.226562 -6.84375 18.375 -6.75 C 19.53125 -6.65625 20.65625 -6.492188 21.75 -6.265625 C 22.84375 -6.035156 23.816406 -5.671875 24.671875 -5.171875 C 25.535156 -4.679688 26.226562 -4.007812 26.75 -3.15625 C 27.28125 -2.3125 27.546875 -1.222656 27.546875 0.109375 C 27.546875 1.347656 27.238281 2.550781 26.625 3.71875 C 26.007812 4.894531 25.117188 5.941406 23.953125 6.859375 C 22.796875 7.773438 21.367188 8.507812 19.671875 9.0625 C 17.984375 9.625 16.0625 9.90625 13.90625 9.90625 C 11.78125 9.90625 9.929688 9.695312 8.359375 9.28125 C 6.785156 8.875 5.476562 8.328125 4.4375 7.640625 C 3.394531 6.953125 2.617188 6.160156 2.109375 5.265625 C 1.597656 4.367188 1.34375 3.4375 1.34375 2.46875 C 1.34375 1.15625 1.738281 0.0546875 2.53125 -0.828125 C 3.332031 -1.722656 4.425781 -2.4375 5.8125 -2.96875 C 5.0625 -3.34375 4.46875 -3.847656 4.03125 -4.484375 C 3.59375 -5.128906 3.375 -5.972656 3.375 -7.015625 C 3.375 -7.441406 3.453125 -7.878906 3.609375 -8.328125 C 3.765625 -8.773438 3.992188 -9.21875 4.296875 -9.65625 C 4.597656 -10.09375 4.972656 -10.507812 5.421875 -10.90625 C 5.878906 -11.300781 6.421875 -11.648438 7.046875 -11.953125 C 5.617188 -12.722656 4.5 -13.75 3.6875 -15.03125 C 2.875 -16.3125 2.46875 -17.8125 2.46875 -19.53125 C 2.46875 -20.914062 2.742188 -22.171875 3.296875 -23.296875 C 3.859375 -24.421875 4.632812 -25.378906 5.625 -26.171875 C 6.625 -26.972656 7.804688 -27.582031 9.171875 -28 C 10.535156 -28.425781 12.019531 -28.640625 13.625 -28.640625 C 14.832031 -28.640625 15.96875 -28.515625 17.03125 -28.265625 C 18.09375 -28.015625 19.0625 -27.65625 19.9375 -27.1875 Z M 28.03125 -27.1875 "/></g></g></g><g fill="#ffffff" fill-opacity="1"><g transform="translate(302.873845, 117.91237)"><g><path d="M 10.375 -28.140625 L 10.375 0 L 3.5625 0 L 3.5625 -28.140625 Z M 11.296875 -36.34375 C 11.296875 -35.757812 11.175781 -35.210938 10.9375 -34.703125 C 10.707031 -34.191406 10.394531 -33.742188 10 -33.359375 C 9.601562 -32.972656 9.140625 -32.664062 8.609375 -32.4375 C 8.078125 -32.207031 7.507812 -32.09375 6.90625 -32.09375 C 6.320312 -32.09375 5.769531 -32.207031 5.25 -32.4375 C 4.726562 -32.664062 4.273438 -32.972656 3.890625 -33.359375 C 3.503906 -33.742188 3.195312 -34.191406 2.96875 -34.703125 C 2.75 -35.210938 2.640625 -35.757812 2.640625 -36.34375 C 2.640625 -36.945312 2.75 -37.515625 2.96875 -38.046875 C 3.195312 -38.578125 3.503906 -39.035156 3.890625 -39.421875 C 4.273438 -39.804688 4.726562 -40.109375 5.25 -40.328125 C 5.769531 -40.554688 6.320312 -40.671875 6.90625 -40.671875 C 7.507812 -40.671875 8.078125 -40.554688 8.609375 -40.328125 C 9.140625 -40.109375 9.601562 -39.804688 10 -39.421875 C 10.394531 -39.035156 10.707031 -38.578125 10.9375 -38.046875 C 11.175781 -37.515625 11.296875 -36.945312 11.296875 -36.34375 Z M 11.296875 -36.34375 "/></g></g></g><g fill="#ffffff" fill-opacity="1"><g transform="translate(316.806832, 117.91237)"><g><path d="M 20.515625 -22.65625 C 20.335938 -22.363281 20.144531 -22.15625 19.9375 -22.03125 C 19.738281 -21.914062 19.484375 -21.859375 19.171875 -21.859375 C 18.835938 -21.859375 18.484375 -21.945312 18.109375 -22.125 C 17.742188 -22.3125 17.3125 -22.519531 16.8125 -22.75 C 16.320312 -22.976562 15.757812 -23.179688 15.125 -23.359375 C 14.5 -23.546875 13.753906 -23.640625 12.890625 -23.640625 C 11.554688 -23.640625 10.507812 -23.351562 9.75 -22.78125 C 8.988281 -22.21875 8.609375 -21.484375 8.609375 -20.578125 C 8.609375 -19.972656 8.804688 -19.460938 9.203125 -19.046875 C 9.597656 -18.640625 10.117188 -18.28125 10.765625 -17.96875 C 11.410156 -17.65625 12.144531 -17.375 12.96875 -17.125 C 13.789062 -16.882812 14.628906 -16.613281 15.484375 -16.3125 C 16.335938 -16.019531 17.175781 -15.6875 18 -15.3125 C 18.820312 -14.9375 19.554688 -14.460938 20.203125 -13.890625 C 20.847656 -13.316406 21.367188 -12.625 21.765625 -11.8125 C 22.160156 -11.007812 22.359375 -10.046875 22.359375 -8.921875 C 22.359375 -7.566406 22.113281 -6.316406 21.625 -5.171875 C 21.144531 -4.023438 20.425781 -3.035156 19.46875 -2.203125 C 18.519531 -1.367188 17.347656 -0.71875 15.953125 -0.25 C 14.554688 0.207031 12.941406 0.4375 11.109375 0.4375 C 10.140625 0.4375 9.191406 0.347656 8.265625 0.171875 C 7.347656 0.00390625 6.460938 -0.234375 5.609375 -0.546875 C 4.753906 -0.859375 3.96875 -1.222656 3.25 -1.640625 C 2.53125 -2.066406 1.894531 -2.523438 1.34375 -3.015625 L 2.90625 -5.59375 C 3.101562 -5.90625 3.335938 -6.144531 3.609375 -6.3125 C 3.890625 -6.476562 4.238281 -6.5625 4.65625 -6.5625 C 5.082031 -6.5625 5.484375 -6.441406 5.859375 -6.203125 C 6.234375 -5.960938 6.664062 -5.703125 7.15625 -5.421875 C 7.65625 -5.148438 8.238281 -4.894531 8.90625 -4.65625 C 9.570312 -4.425781 10.414062 -4.3125 11.4375 -4.3125 C 12.238281 -4.3125 12.925781 -4.40625 13.5 -4.59375 C 14.082031 -4.78125 14.5625 -5.03125 14.9375 -5.34375 C 15.3125 -5.65625 15.582031 -6.015625 15.75 -6.421875 C 15.925781 -6.835938 16.015625 -7.265625 16.015625 -7.703125 C 16.015625 -8.359375 15.816406 -8.894531 15.421875 -9.3125 C 15.035156 -9.738281 14.515625 -10.109375 13.859375 -10.421875 C 13.210938 -10.734375 12.472656 -11.007812 11.640625 -11.25 C 10.804688 -11.5 9.957031 -11.769531 9.09375 -12.0625 C 8.226562 -12.363281 7.378906 -12.707031 6.546875 -13.09375 C 5.710938 -13.488281 4.96875 -13.988281 4.3125 -14.59375 C 3.664062 -15.195312 3.144531 -15.9375 2.75 -16.8125 C 2.363281 -17.6875 2.171875 -18.75 2.171875 -20 C 2.171875 -21.144531 2.394531 -22.238281 2.84375 -23.28125 C 3.300781 -24.320312 3.972656 -25.234375 4.859375 -26.015625 C 5.753906 -26.796875 6.863281 -27.414062 8.1875 -27.875 C 9.507812 -28.34375 11.039062 -28.578125 12.78125 -28.578125 C 14.71875 -28.578125 16.484375 -28.253906 18.078125 -27.609375 C 19.671875 -26.972656 20.992188 -26.132812 22.046875 -25.09375 Z M 20.515625 -22.65625 "/></g></g></g><g fill="#ffffff" fill-opacity="1"><g transform="translate(340.91528, 117.91237)"><g><path d="M 12.734375 0.4375 C 10.273438 0.4375 8.390625 -0.25 7.078125 -1.625 C 5.773438 -3.007812 5.125 -4.914062 5.125 -7.34375 L 5.125 -23.0625 L 2.25 -23.0625 C 1.882812 -23.0625 1.570312 -23.179688 1.3125 -23.421875 C 1.0625 -23.660156 0.9375 -24.019531 0.9375 -24.5 L 0.9375 -27.1875 L 5.453125 -27.921875 L 6.890625 -35.609375 C 6.972656 -35.972656 7.144531 -36.253906 7.40625 -36.453125 C 7.664062 -36.648438 7.992188 -36.75 8.390625 -36.75 L 11.90625 -36.75 L 11.90625 -27.890625 L 19.421875 -27.890625 L 19.421875 -23.0625 L 11.90625 -23.0625 L 11.90625 -7.8125 C 11.90625 -6.9375 12.117188 -6.25 12.546875 -5.75 C 12.972656 -5.257812 13.5625 -5.015625 14.3125 -5.015625 C 14.738281 -5.015625 15.09375 -5.066406 15.375 -5.171875 C 15.65625 -5.273438 15.898438 -5.378906 16.109375 -5.484375 C 16.328125 -5.597656 16.515625 -5.703125 16.671875 -5.796875 C 16.835938 -5.898438 17.003906 -5.953125 17.171875 -5.953125 C 17.367188 -5.953125 17.53125 -5.898438 17.65625 -5.796875 C 17.789062 -5.703125 17.929688 -5.550781 18.078125 -5.34375 L 20.109375 -2.0625 C 19.117188 -1.238281 17.984375 -0.613281 16.703125 -0.1875 C 15.421875 0.226562 14.097656 0.4375 12.734375 0.4375 Z M 12.734375 0.4375 "/></g></g></g><g fill="#ffffff" fill-opacity="1"><g transform="translate(361.321073, 117.91237)"><g><path d="M 21.484375 -17.3125 C 21.484375 -18.1875 21.359375 -19.007812 21.109375 -19.78125 C 20.859375 -20.5625 20.484375 -21.242188 19.984375 -21.828125 C 19.492188 -22.421875 18.867188 -22.882812 18.109375 -23.21875 C 17.359375 -23.5625 16.476562 -23.734375 15.46875 -23.734375 C 13.507812 -23.734375 11.96875 -23.171875 10.84375 -22.046875 C 9.71875 -20.929688 9 -19.351562 8.6875 -17.3125 Z M 8.5625 -13.21875 C 8.664062 -11.769531 8.914062 -10.519531 9.3125 -9.46875 C 9.71875 -8.425781 10.25 -7.5625 10.90625 -6.875 C 11.570312 -6.1875 12.359375 -5.671875 13.265625 -5.328125 C 14.171875 -4.992188 15.171875 -4.828125 16.265625 -4.828125 C 17.359375 -4.828125 18.300781 -4.953125 19.09375 -5.203125 C 19.894531 -5.460938 20.59375 -5.75 21.1875 -6.0625 C 21.78125 -6.375 22.300781 -6.65625 22.75 -6.90625 C 23.195312 -7.164062 23.632812 -7.296875 24.0625 -7.296875 C 24.625 -7.296875 25.039062 -7.085938 25.3125 -6.671875 L 27.265625 -4.203125 C 26.515625 -3.316406 25.671875 -2.578125 24.734375 -1.984375 C 23.804688 -1.390625 22.832031 -0.914062 21.8125 -0.5625 C 20.800781 -0.207031 19.769531 0.0390625 18.71875 0.1875 C 17.664062 0.332031 16.644531 0.40625 15.65625 0.40625 C 13.707031 0.40625 11.890625 0.0820312 10.203125 -0.5625 C 8.523438 -1.207031 7.0625 -2.164062 5.8125 -3.4375 C 4.570312 -4.707031 3.59375 -6.28125 2.875 -8.15625 C 2.164062 -10.03125 1.8125 -12.203125 1.8125 -14.671875 C 1.8125 -16.597656 2.117188 -18.40625 2.734375 -20.09375 C 3.359375 -21.78125 4.25 -23.25 5.40625 -24.5 C 6.570312 -25.757812 7.988281 -26.753906 9.65625 -27.484375 C 11.332031 -28.210938 13.222656 -28.578125 15.328125 -28.578125 C 17.109375 -28.578125 18.75 -28.289062 20.25 -27.71875 C 21.75 -27.15625 23.035156 -26.328125 24.109375 -25.234375 C 25.191406 -24.148438 26.035156 -22.816406 26.640625 -21.234375 C 27.253906 -19.660156 27.5625 -17.859375 27.5625 -15.828125 C 27.5625 -14.804688 27.453125 -14.113281 27.234375 -13.75 C 27.015625 -13.394531 26.59375 -13.21875 25.96875 -13.21875 Z M 8.5625 -13.21875 "/></g></g></g><g fill="#ffffff" fill-opacity="1"><g transform="translate(390.613255, 117.91237)"><g><path d="M 9.734375 -23.265625 C 10.609375 -24.941406 11.648438 -26.257812 12.859375 -27.21875 C 14.066406 -28.175781 15.492188 -28.65625 17.140625 -28.65625 C 18.441406 -28.65625 19.484375 -28.375 20.265625 -27.8125 L 19.828125 -22.734375 C 19.734375 -22.410156 19.597656 -22.175781 19.421875 -22.03125 C 19.253906 -21.894531 19.023438 -21.828125 18.734375 -21.828125 C 18.460938 -21.828125 18.054688 -21.875 17.515625 -21.96875 C 16.972656 -22.0625 16.445312 -22.109375 15.9375 -22.109375 C 15.1875 -22.109375 14.519531 -22 13.9375 -21.78125 C 13.351562 -21.5625 12.828125 -21.242188 12.359375 -20.828125 C 11.890625 -20.421875 11.476562 -19.921875 11.125 -19.328125 C 10.769531 -18.742188 10.4375 -18.078125 10.125 -17.328125 L 10.125 0 L 3.34375 0 L 3.34375 -28.140625 L 7.328125 -28.140625 C 8.015625 -28.140625 8.492188 -28.015625 8.765625 -27.765625 C 9.046875 -27.523438 9.234375 -27.082031 9.328125 -26.4375 Z M 9.734375 -23.265625 "/></g></g></g><g fill="#ffffff" fill-opacity="1"><g transform="translate(411.073896, 117.91237)"><g><path d="M 21.484375 -17.3125 C 21.484375 -18.1875 21.359375 -19.007812 21.109375 -19.78125 C 20.859375 -20.5625 20.484375 -21.242188 19.984375 -21.828125 C 19.492188 -22.421875 18.867188 -22.882812 18.109375 -23.21875 C 17.359375 -23.5625 16.476562 -23.734375 15.46875 -23.734375 C 13.507812 -23.734375 11.96875 -23.171875 10.84375 -22.046875 C 9.71875 -20.929688 9 -19.351562 8.6875 -17.3125 Z M 8.5625 -13.21875 C 8.664062 -11.769531 8.914062 -10.519531 9.3125 -9.46875 C 9.71875 -8.425781 10.25 -7.5625 10.90625 -6.875 C 11.570312 -6.1875 12.359375 -5.671875 13.265625 -5.328125 C 14.171875 -4.992188 15.171875 -4.828125 16.265625 -4.828125 C 17.359375 -4.828125 18.300781 -4.953125 19.09375 -5.203125 C 19.894531 -5.460938 20.59375 -5.75 21.1875 -6.0625 C 21.78125 -6.375 22.300781 -6.65625 22.75 -6.90625 C 23.195312 -7.164062 23.632812 -7.296875 24.0625 -7.296875 C 24.625 -7.296875 25.039062 -7.085938 25.3125 -6.671875 L 27.265625 -4.203125 C 26.515625 -3.316406 25.671875 -2.578125 24.734375 -1.984375 C 23.804688 -1.390625 22.832031 -0.914062 21.8125 -0.5625 C 20.800781 -0.207031 19.769531 0.0390625 18.71875 0.1875 C 17.664062 0.332031 16.644531 0.40625 15.65625 0.40625 C 13.707031 0.40625 11.890625 0.0820312 10.203125 -0.5625 C 8.523438 -1.207031 7.0625 -2.164062 5.8125 -3.4375 C 4.570312 -4.707031 3.59375 -6.28125 2.875 -8.15625 C 2.164062 -10.03125 1.8125 -12.203125 1.8125 -14.671875 C 1.8125 -16.597656 2.117188 -18.40625 2.734375 -20.09375 C 3.359375 -21.78125 4.25 -23.25 5.40625 -24.5 C 6.570312 -25.757812 7.988281 -26.753906 9.65625 -27.484375 C 11.332031 -28.210938 13.222656 -28.578125 15.328125 -28.578125 C 17.109375 -28.578125 18.75 -28.289062 20.25 -27.71875 C 21.75 -27.15625 23.035156 -26.328125 24.109375 -25.234375 C 25.191406 -24.148438 26.035156 -22.816406 26.640625 -21.234375 C 27.253906 -19.660156 27.5625 -17.859375 27.5625 -15.828125 C 27.5625 -14.804688 27.453125 -14.113281 27.234375 -13.75 C 27.015625 -13.394531 26.59375 -13.21875 25.96875 -13.21875 Z M 8.5625 -13.21875 "/></g></g></g><g fill="#ffffff" fill-opacity="1"><g transform="translate(440.366078, 117.91237)"><g><path d="M 21.015625 -20.953125 C 20.242188 -21.890625 19.40625 -22.546875 18.5 -22.921875 C 17.59375 -23.304688 16.617188 -23.5 15.578125 -23.5 C 14.554688 -23.5 13.632812 -23.304688 12.8125 -22.921875 C 11.988281 -22.546875 11.28125 -21.96875 10.6875 -21.1875 C 10.101562 -20.414062 9.65625 -19.429688 9.34375 -18.234375 C 9.039062 -17.035156 8.890625 -15.617188 8.890625 -13.984375 C 8.890625 -12.335938 9.019531 -10.941406 9.28125 -9.796875 C 9.550781 -8.660156 9.929688 -7.726562 10.421875 -7 C 10.910156 -6.28125 11.507812 -5.757812 12.21875 -5.4375 C 12.9375 -5.125 13.738281 -4.96875 14.625 -4.96875 C 16.03125 -4.96875 17.222656 -5.257812 18.203125 -5.84375 C 19.191406 -6.425781 20.128906 -7.257812 21.015625 -8.34375 Z M 27.78125 -40.765625 L 27.78125 0 L 23.640625 0 C 22.742188 0 22.175781 -0.410156 21.9375 -1.234375 L 21.375 -3.953125 C 20.238281 -2.648438 18.929688 -1.597656 17.453125 -0.796875 C 15.984375 0.00390625 14.269531 0.40625 12.3125 0.40625 C 10.78125 0.40625 9.375 0.0859375 8.09375 -0.546875 C 6.8125 -1.191406 5.707031 -2.117188 4.78125 -3.328125 C 3.863281 -4.546875 3.148438 -6.050781 2.640625 -7.84375 C 2.140625 -9.632812 1.890625 -11.679688 1.890625 -13.984375 C 1.890625 -16.066406 2.171875 -18.003906 2.734375 -19.796875 C 3.304688 -21.597656 4.125 -23.15625 5.1875 -24.46875 C 6.25 -25.78125 7.519531 -26.804688 9 -27.546875 C 10.476562 -28.285156 12.140625 -28.65625 13.984375 -28.65625 C 15.554688 -28.65625 16.898438 -28.410156 18.015625 -27.921875 C 19.128906 -27.429688 20.128906 -26.765625 21.015625 -25.921875 L 21.015625 -40.765625 Z M 27.78125 -40.765625 "/></g></g></g><g fill="#ffffff" fill-opacity="1"><g transform="translate(471.495872, 117.91237)"><g/></g></g><g fill="#ffffff" fill-opacity="1"><g transform="translate(484.825449, 117.91237)"><g><path d="M 19.25 -5.765625 C 20.625 -5.765625 21.773438 -5.925781 22.703125 -6.25 C 23.640625 -6.582031 24.382812 -7.019531 24.9375 -7.5625 C 25.5 -8.113281 25.90625 -8.753906 26.15625 -9.484375 C 26.40625 -10.222656 26.53125 -11.003906 26.53125 -11.828125 C 26.53125 -12.679688 26.390625 -13.453125 26.109375 -14.140625 C 25.835938 -14.828125 25.410156 -15.410156 24.828125 -15.890625 C 24.242188 -16.378906 23.488281 -16.75 22.5625 -17 C 21.632812 -17.257812 20.523438 -17.390625 19.234375 -17.390625 L 11.796875 -17.390625 L 11.796875 -5.765625 Z M 11.796875 -33.953125 L 11.796875 -22.5 L 17.671875 -22.5 C 20.191406 -22.5 22.09375 -22.953125 23.375 -23.859375 C 24.664062 -24.773438 25.3125 -26.226562 25.3125 -28.21875 C 25.3125 -30.289062 24.726562 -31.765625 23.5625 -32.640625 C 22.394531 -33.515625 20.566406 -33.953125 18.078125 -33.953125 Z M 18.078125 -39.65625 C 20.671875 -39.65625 22.890625 -39.410156 24.734375 -38.921875 C 26.585938 -38.429688 28.101562 -37.726562 29.28125 -36.8125 C 30.457031 -35.894531 31.320312 -34.785156 31.875 -33.484375 C 32.425781 -32.191406 32.703125 -30.734375 32.703125 -29.109375 C 32.703125 -28.171875 32.5625 -27.273438 32.28125 -26.421875 C 32.007812 -25.578125 31.582031 -24.785156 31 -24.046875 C 30.425781 -23.304688 29.695312 -22.632812 28.8125 -22.03125 C 27.925781 -21.425781 26.867188 -20.910156 25.640625 -20.484375 C 31.097656 -19.265625 33.828125 -16.320312 33.828125 -11.65625 C 33.828125 -9.976562 33.503906 -8.425781 32.859375 -7 C 32.222656 -5.570312 31.289062 -4.335938 30.0625 -3.296875 C 28.832031 -2.265625 27.320312 -1.457031 25.53125 -0.875 C 23.738281 -0.289062 21.691406 0 19.390625 0 L 4.421875 0 L 4.421875 -39.65625 Z M 18.078125 -39.65625 "/></g></g></g><g fill="#ffffff" fill-opacity="1"><g transform="translate(520.946984, 117.91237)"><g><path d="M 27.59375 -28.140625 L 27.59375 0 L 23.453125 0 C 22.554688 0 21.988281 -0.410156 21.75 -1.234375 L 21.28125 -3.484375 C 20.132812 -2.316406 18.863281 -1.367188 17.46875 -0.640625 C 16.082031 0.078125 14.445312 0.4375 12.5625 0.4375 C 11.03125 0.4375 9.671875 0.175781 8.484375 -0.34375 C 7.304688 -0.863281 6.316406 -1.597656 5.515625 -2.546875 C 4.710938 -3.503906 4.101562 -4.632812 3.6875 -5.9375 C 3.28125 -7.25 3.078125 -8.691406 3.078125 -10.265625 L 3.078125 -28.140625 L 9.84375 -28.140625 L 9.84375 -10.265625 C 9.84375 -8.546875 10.238281 -7.210938 11.03125 -6.265625 C 11.832031 -5.328125 13.03125 -4.859375 14.625 -4.859375 C 15.789062 -4.859375 16.882812 -5.117188 17.90625 -5.640625 C 18.9375 -6.160156 19.90625 -6.878906 20.8125 -7.796875 L 20.8125 -28.140625 Z M 27.59375 -28.140625 "/></g></g></g><g fill="#ffffff" fill-opacity="1"><g transform="translate(551.884785, 117.91237)"><g><path d="M 20.515625 -22.65625 C 20.335938 -22.363281 20.144531 -22.15625 19.9375 -22.03125 C 19.738281 -21.914062 19.484375 -21.859375 19.171875 -21.859375 C 18.835938 -21.859375 18.484375 -21.945312 18.109375 -22.125 C 17.742188 -22.3125 17.3125 -22.519531 16.8125 -22.75 C 16.320312 -22.976562 15.757812 -23.179688 15.125 -23.359375 C 14.5 -23.546875 13.753906 -23.640625 12.890625 -23.640625 C 11.554688 -23.640625 10.507812 -23.351562 9.75 -22.78125 C 8.988281 -22.21875 8.609375 -21.484375 8.609375 -20.578125 C 8.609375 -19.972656 8.804688 -19.460938 9.203125 -19.046875 C 9.597656 -18.640625 10.117188 -18.28125 10.765625 -17.96875 C 11.410156 -17.65625 12.144531 -17.375 12.96875 -17.125 C 13.789062 -16.882812 14.628906 -16.613281 15.484375 -16.3125 C 16.335938 -16.019531 17.175781 -15.6875 18 -15.3125 C 18.820312 -14.9375 19.554688 -14.460938 20.203125 -13.890625 C 20.847656 -13.316406 21.367188 -12.625 21.765625 -11.8125 C 22.160156 -11.007812 22.359375 -10.046875 22.359375 -8.921875 C 22.359375 -7.566406 22.113281 -6.316406 21.625 -5.171875 C 21.144531 -4.023438 20.425781 -3.035156 19.46875 -2.203125 C 18.519531 -1.367188 17.347656 -0.71875 15.953125 -0.25 C 14.554688 0.207031 12.941406 0.4375 11.109375 0.4375 C 10.140625 0.4375 9.191406 0.347656 8.265625 0.171875 C 7.347656 0.00390625 6.460938 -0.234375 5.609375 -0.546875 C 4.753906 -0.859375 3.96875 -1.222656 3.25 -1.640625 C 2.53125 -2.066406 1.894531 -2.523438 1.34375 -3.015625 L 2.90625 -5.59375 C 3.101562 -5.90625 3.335938 -6.144531 3.609375 -6.3125 C 3.890625 -6.476562 4.238281 -6.5625 4.65625 -6.5625 C 5.082031 -6.5625 5.484375 -6.441406 5.859375 -6.203125 C 6.234375 -5.960938 6.664062 -5.703125 7.15625 -5.421875 C 7.65625 -5.148438 8.238281 -4.894531 8.90625 -4.65625 C 9.570312 -4.425781 10.414062 -4.3125 11.4375 -4.3125 C 12.238281 -4.3125 12.925781 -4.40625 13.5 -4.59375 C 14.082031 -4.78125 14.5625 -5.03125 14.9375 -5.34375 C 15.3125 -5.65625 15.582031 -6.015625 15.75 -6.421875 C 15.925781 -6.835938 16.015625 -7.265625 16.015625 -7.703125 C 16.015625 -8.359375 15.816406 -8.894531 15.421875 -9.3125 C 15.035156 -9.738281 14.515625 -10.109375 13.859375 -10.421875 C 13.210938 -10.734375 12.472656 -11.007812 11.640625 -11.25 C 10.804688 -11.5 9.957031 -11.769531 9.09375 -12.0625 C 8.226562 -12.363281 7.378906 -12.707031 6.546875 -13.09375 C 5.710938 -13.488281 4.96875 -13.988281 4.3125 -14.59375 C 3.664062 -15.195312 3.144531 -15.9375 2.75 -16.8125 C 2.363281 -17.6875 2.171875 -18.75 2.171875 -20 C 2.171875 -21.144531 2.394531 -22.238281 2.84375 -23.28125 C 3.300781 -24.320312 3.972656 -25.234375 4.859375 -26.015625 C 5.753906 -26.796875 6.863281 -27.414062 8.1875 -27.875 C 9.507812 -28.34375 11.039062 -28.578125 12.78125 -28.578125 C 14.71875 -28.578125 16.484375 -28.253906 18.078125 -27.609375 C 19.671875 -26.972656 20.992188 -26.132812 22.046875 -25.09375 Z M 20.515625 -22.65625 "/></g></g></g><g fill="#ffffff" fill-opacity="1"><g transform="translate(575.993233, 117.91237)"><g><path d="M 10.375 -28.140625 L 10.375 0 L 3.5625 0 L 3.5625 -28.140625 Z M 11.296875 -36.34375 C 11.296875 -35.757812 11.175781 -35.210938 10.9375 -34.703125 C 10.707031 -34.191406 10.394531 -33.742188 10 -33.359375 C 9.601562 -32.972656 9.140625 -32.664062 8.609375 -32.4375 C 8.078125 -32.207031 7.507812 -32.09375 6.90625 -32.09375 C 6.320312 -32.09375 5.769531 -32.207031 5.25 -32.4375 C 4.726562 -32.664062 4.273438 -32.972656 3.890625 -33.359375 C 3.503906 -33.742188 3.195312 -34.191406 2.96875 -34.703125 C 2.75 -35.210938 2.640625 -35.757812 2.640625 -36.34375 C 2.640625 -36.945312 2.75 -37.515625 2.96875 -38.046875 C 3.195312 -38.578125 3.503906 -39.035156 3.890625 -39.421875 C 4.273438 -39.804688 4.726562 -40.109375 5.25 -40.328125 C 5.769531 -40.554688 6.320312 -40.671875 6.90625 -40.671875 C 7.507812 -40.671875 8.078125 -40.554688 8.609375 -40.328125 C 9.140625 -40.109375 9.601562 -39.804688 10 -39.421875 C 10.394531 -39.035156 10.707031 -38.578125 10.9375 -38.046875 C 11.175781 -37.515625 11.296875 -36.945312 11.296875 -36.34375 Z M 11.296875 -36.34375 "/></g></g></g><g fill="#ffffff" fill-opacity="1"><g transform="translate(589.926209, 117.91237)"><g><path d="M 9.6875 -24.6875 C 10.25 -25.25 10.84375 -25.769531 11.46875 -26.25 C 12.101562 -26.738281 12.769531 -27.148438 13.46875 -27.484375 C 14.175781 -27.828125 14.929688 -28.09375 15.734375 -28.28125 C 16.546875 -28.476562 17.425781 -28.578125 18.375 -28.578125 C 19.914062 -28.578125 21.28125 -28.316406 22.46875 -27.796875 C 23.65625 -27.273438 24.644531 -26.539062 25.4375 -25.59375 C 26.238281 -24.65625 26.84375 -23.53125 27.25 -22.21875 C 27.664062 -20.914062 27.875 -19.476562 27.875 -17.90625 L 27.875 0 L 21.09375 0 L 21.09375 -17.90625 C 21.09375 -19.625 20.695312 -20.953125 19.90625 -21.890625 C 19.125 -22.835938 17.929688 -23.3125 16.328125 -23.3125 C 15.148438 -23.3125 14.050781 -23.046875 13.03125 -22.515625 C 12.007812 -21.984375 11.039062 -21.265625 10.125 -20.359375 L 10.125 0 L 3.34375 0 L 3.34375 -28.140625 L 7.484375 -28.140625 C 8.367188 -28.140625 8.945312 -27.726562 9.21875 -26.90625 Z M 9.6875 -24.6875 "/></g></g></g><g fill="#ffffff" fill-opacity="1"><g transform="translate(620.86401, 117.91237)"><g><path d="M 21.484375 -17.3125 C 21.484375 -18.1875 21.359375 -19.007812 21.109375 -19.78125 C 20.859375 -20.5625 20.484375 -21.242188 19.984375 -21.828125 C 19.492188 -22.421875 18.867188 -22.882812 18.109375 -23.21875 C 17.359375 -23.5625 16.476562 -23.734375 15.46875 -23.734375 C 13.507812 -23.734375 11.96875 -23.171875 10.84375 -22.046875 C 9.71875 -20.929688 9 -19.351562 8.6875 -17.3125 Z M 8.5625 -13.21875 C 8.664062 -11.769531 8.914062 -10.519531 9.3125 -9.46875 C 9.71875 -8.425781 10.25 -7.5625 10.90625 -6.875 C 11.570312 -6.1875 12.359375 -5.671875 13.265625 -5.328125 C 14.171875 -4.992188 15.171875 -4.828125 16.265625 -4.828125 C 17.359375 -4.828125 18.300781 -4.953125 19.09375 -5.203125 C 19.894531 -5.460938 20.59375 -5.75 21.1875 -6.0625 C 21.78125 -6.375 22.300781 -6.65625 22.75 -6.90625 C 23.195312 -7.164062 23.632812 -7.296875 24.0625 -7.296875 C 24.625 -7.296875 25.039062 -7.085938 25.3125 -6.671875 L 27.265625 -4.203125 C 26.515625 -3.316406 25.671875 -2.578125 24.734375 -1.984375 C 23.804688 -1.390625 22.832031 -0.914062 21.8125 -0.5625 C 20.800781 -0.207031 19.769531 0.0390625 18.71875 0.1875 C 17.664062 0.332031 16.644531 0.40625 15.65625 0.40625 C 13.707031 0.40625 11.890625 0.0820312 10.203125 -0.5625 C 8.523438 -1.207031 7.0625 -2.164062 5.8125 -3.4375 C 4.570312 -4.707031 3.59375 -6.28125 2.875 -8.15625 C 2.164062 -10.03125 1.8125 -12.203125 1.8125 -14.671875 C 1.8125 -16.597656 2.117188 -18.40625 2.734375 -20.09375 C 3.359375 -21.78125 4.25 -23.25 5.40625 -24.5 C 6.570312 -25.757812 7.988281 -26.753906 9.65625 -27.484375 C 11.332031 -28.210938 13.222656 -28.578125 15.328125 -28.578125 C 17.109375 -28.578125 18.75 -28.289062 20.25 -27.71875 C 21.75 -27.15625 23.035156 -26.328125 24.109375 -25.234375 C 25.191406 -24.148438 26.035156 -22.816406 26.640625 -21.234375 C 27.253906 -19.660156 27.5625 -17.859375 27.5625 -15.828125 C 27.5625 -14.804688 27.453125 -14.113281 27.234375 -13.75 C 27.015625 -13.394531 26.59375 -13.21875 25.96875 -13.21875 Z M 8.5625 -13.21875 "/></g></g></g><g fill="#ffffff" fill-opacity="1"><g transform="translate(650.156192, 117.91237)"><g><path d="M 20.515625 -22.65625 C 20.335938 -22.363281 20.144531 -22.15625 19.9375 -22.03125 C 19.738281 -21.914062 19.484375 -21.859375 19.171875 -21.859375 C 18.835938 -21.859375 18.484375 -21.945312 18.109375 -22.125 C 17.742188 -22.3125 17.3125 -22.519531 16.8125 -22.75 C 16.320312 -22.976562 15.757812 -23.179688 15.125 -23.359375 C 14.5 -23.546875 13.753906 -23.640625 12.890625 -23.640625 C 11.554688 -23.640625 10.507812 -23.351562 9.75 -22.78125 C 8.988281 -22.21875 8.609375 -21.484375 8.609375 -20.578125 C 8.609375 -19.972656 8.804688 -19.460938 9.203125 -19.046875 C 9.597656 -18.640625 10.117188 -18.28125 10.765625 -17.96875 C 11.410156 -17.65625 12.144531 -17.375 12.96875 -17.125 C 13.789062 -16.882812 14.628906 -16.613281 15.484375 -16.3125 C 16.335938 -16.019531 17.175781 -15.6875 18 -15.3125 C 18.820312 -14.9375 19.554688 -14.460938 20.203125 -13.890625 C 20.847656 -13.316406 21.367188 -12.625 21.765625 -11.8125 C 22.160156 -11.007812 22.359375 -10.046875 22.359375 -8.921875 C 22.359375 -7.566406 22.113281 -6.316406 21.625 -5.171875 C 21.144531 -4.023438 20.425781 -3.035156 19.46875 -2.203125 C 18.519531 -1.367188 17.347656 -0.71875 15.953125 -0.25 C 14.554688 0.207031 12.941406 0.4375 11.109375 0.4375 C 10.140625 0.4375 9.191406 0.347656 8.265625 0.171875 C 7.347656 0.00390625 6.460938 -0.234375 5.609375 -0.546875 C 4.753906 -0.859375 3.96875 -1.222656 3.25 -1.640625 C 2.53125 -2.066406 1.894531 -2.523438 1.34375 -3.015625 L 2.90625 -5.59375 C 3.101562 -5.90625 3.335938 -6.144531 3.609375 -6.3125 C 3.890625 -6.476562 4.238281 -6.5625 4.65625 -6.5625 C 5.082031 -6.5625 5.484375 -6.441406 5.859375 -6.203125 C 6.234375 -5.960938 6.664062 -5.703125 7.15625 -5.421875 C 7.65625 -5.148438 8.238281 -4.894531 8.90625 -4.65625 C 9.570312 -4.425781 10.414062 -4.3125 11.4375 -4.3125 C 12.238281 -4.3125 12.925781 -4.40625 13.5 -4.59375 C 14.082031 -4.78125 14.5625 -5.03125 14.9375 -5.34375 C 15.3125 -5.65625 15.582031 -6.015625 15.75 -6.421875 C 15.925781 -6.835938 16.015625 -7.265625 16.015625 -7.703125 C 16.015625 -8.359375 15.816406 -8.894531 15.421875 -9.3125 C 15.035156 -9.738281 14.515625 -10.109375 13.859375 -10.421875 C 13.210938 -10.734375 12.472656 -11.007812 11.640625 -11.25 C 10.804688 -11.5 9.957031 -11.769531 9.09375 -12.0625 C 8.226562 -12.363281 7.378906 -12.707031 6.546875 -13.09375 C 5.710938 -13.488281 4.96875 -13.988281 4.3125 -14.59375 C 3.664062 -15.195312 3.144531 -15.9375 2.75 -16.8125 C 2.363281 -17.6875 2.171875 -18.75 2.171875 -20 C 2.171875 -21.144531 2.394531 -22.238281 2.84375 -23.28125 C 3.300781 -24.320312 3.972656 -25.234375 4.859375 -26.015625 C 5.753906 -26.796875 6.863281 -27.414062 8.1875 -27.875 C 9.507812 -28.34375 11.039062 -28.578125 12.78125 -28.578125 C 14.71875 -28.578125 16.484375 -28.253906 18.078125 -27.609375 C 19.671875 -26.972656 20.992188 -26.132812 22.046875 -25.09375 Z M 20.515625 -22.65625 "/></g></g></g><g fill="#ffffff" fill-opacity="1"><g transform="translate(674.26464, 117.91237)"><g><path d="M 20.515625 -22.65625 C 20.335938 -22.363281 20.144531 -22.15625 19.9375 -22.03125 C 19.738281 -21.914062 19.484375 -21.859375 19.171875 -21.859375 C 18.835938 -21.859375 18.484375 -21.945312 18.109375 -22.125 C 17.742188 -22.3125 17.3125 -22.519531 16.8125 -22.75 C 16.320312 -22.976562 15.757812 -23.179688 15.125 -23.359375 C 14.5 -23.546875 13.753906 -23.640625 12.890625 -23.640625 C 11.554688 -23.640625 10.507812 -23.351562 9.75 -22.78125 C 8.988281 -22.21875 8.609375 -21.484375 8.609375 -20.578125 C 8.609375 -19.972656 8.804688 -19.460938 9.203125 -19.046875 C 9.597656 -18.640625 10.117188 -18.28125 10.765625 -17.96875 C 11.410156 -17.65625 12.144531 -17.375 12.96875 -17.125 C 13.789062 -16.882812 14.628906 -16.613281 15.484375 -16.3125 C 16.335938 -16.019531 17.175781 -15.6875 18 -15.3125 C 18.820312 -14.9375 19.554688 -14.460938 20.203125 -13.890625 C 20.847656 -13.316406 21.367188 -12.625 21.765625 -11.8125 C 22.160156 -11.007812 22.359375 -10.046875 22.359375 -8.921875 C 22.359375 -7.566406 22.113281 -6.316406 21.625 -5.171875 C 21.144531 -4.023438 20.425781 -3.035156 19.46875 -2.203125 C 18.519531 -1.367188 17.347656 -0.71875 15.953125 -0.25 C 14.554688 0.207031 12.941406 0.4375 11.109375 0.4375 C 10.140625 0.4375 9.191406 0.347656 8.265625 0.171875 C 7.347656 0.00390625 6.460938 -0.234375 5.609375 -0.546875 C 4.753906 -0.859375 3.96875 -1.222656 3.25 -1.640625 C 2.53125 -2.066406 1.894531 -2.523438 1.34375 -3.015625 L 2.90625 -5.59375 C 3.101562 -5.90625 3.335938 -6.144531 3.609375 -6.3125 C 3.890625 -6.476562 4.238281 -6.5625 4.65625 -6.5625 C 5.082031 -6.5625 5.484375 -6.441406 5.859375 -6.203125 C 6.234375 -5.960938 6.664062 -5.703125 7.15625 -5.421875 C 7.65625 -5.148438 8.238281 -4.894531 8.90625 -4.65625 C 9.570312 -4.425781 10.414062 -4.3125 11.4375 -4.3125 C 12.238281 -4.3125 12.925781 -4.40625 13.5 -4.59375 C 14.082031 -4.78125 14.5625 -5.03125 14.9375 -5.34375 C 15.3125 -5.65625 15.582031 -6.015625 15.75 -6.421875 C 15.925781 -6.835938 16.015625 -7.265625 16.015625 -7.703125 C 16.015625 -8.359375 15.816406 -8.894531 15.421875 -9.3125 C 15.035156 -9.738281 14.515625 -10.109375 13.859375 -10.421875 C 13.210938 -10.734375 12.472656 -11.007812 11.640625 -11.25 C 10.804688 -11.5 9.957031 -11.769531 9.09375 -12.0625 C 8.226562 -12.363281 7.378906 -12.707031 6.546875 -13.09375 C 5.710938 -13.488281 4.96875 -13.988281 4.3125 -14.59375 C 3.664062 -15.195312 3.144531 -15.9375 2.75 -16.8125 C 2.363281 -17.6875 2.171875 -18.75 2.171875 -20 C 2.171875 -21.144531 2.394531 -22.238281 2.84375 -23.28125 C 3.300781 -24.320312 3.972656 -25.234375 4.859375 -26.015625 C 5.753906 -26.796875 6.863281 -27.414062 8.1875 -27.875 C 9.507812 -28.34375 11.039062 -28.578125 12.78125 -28.578125 C 14.71875 -28.578125 16.484375 -28.253906 18.078125 -27.609375 C 19.671875 -26.972656 20.992188 -26.132812 22.046875 -25.09375 Z M 20.515625 -22.65625 "/></g></g></g></svg>