<svg xmlns="http://www.w3.org/2000/svg" xmlns:xlink="http://www.w3.org/1999/xlink" width="1960" zoomAndPan="magnify" viewBox="0 0 1470 193.499995" height="258" preserveAspectRatio="xMidYMid meet" version="1.0"><defs><g/><clipPath id="305d3abe24"><path d="M 1.894531 0 L 1468.105469 0 L 1468.105469 192.894531 L 1.894531 192.894531 Z M 1.894531 0 " clip-rule="nonzero"/></clipPath><clipPath id="25b1677a82"><path d="M 77.882812 145.882812 L 267.730469 145.882812 L 267.730469 149.625 L 77.882812 149.625 Z M 77.882812 145.882812 " clip-rule="nonzero"/></clipPath></defs><g clip-path="url(#305d3abe24)"><path fill="#287ead" d="M 1.894531 0 L 1468.1875 0 L 1468.1875 192.894531 L 1.894531 192.894531 Z M 1.894531 0 " fill-opacity="1" fill-rule="nonzero"/></g><g clip-path="url(#25b1677a82)"><path fill="#ffffff" d="M 77.882812 145.882812 L 267.734375 145.882812 L 267.734375 149.625 L 77.882812 149.625 Z M 77.882812 145.882812 " fill-opacity="1" fill-rule="nonzero"/></g><g fill="#ffffff" fill-opacity="1"><g transform="translate(77.88207, 117.91237)"><g><path d="M 16.40625 -20.796875 C 17.789062 -20.796875 19 -20.96875 20.03125 -21.3125 C 21.070312 -21.65625 21.925781 -22.132812 22.59375 -22.75 C 23.257812 -23.363281 23.753906 -24.085938 24.078125 -24.921875 C 24.410156 -25.765625 24.578125 -26.691406 24.578125 -27.703125 C 24.578125 -29.710938 23.910156 -31.253906 22.578125 -32.328125 C 21.253906 -33.410156 19.234375 -33.953125 16.515625 -33.953125 L 11.796875 -33.953125 L 11.796875 -20.796875 Z M 35.390625 0 L 28.71875 0 C 27.457031 0 26.539062 -0.492188 25.96875 -1.484375 L 17.640625 -14.1875 C 17.328125 -14.65625 16.984375 -14.988281 16.609375 -15.1875 C 16.234375 -15.394531 15.679688 -15.5 14.953125 -15.5 L 11.796875 -15.5 L 11.796875 0 L 4.421875 0 L 4.421875 -39.65625 L 16.515625 -39.65625 C 19.203125 -39.65625 21.507812 -39.375 23.4375 -38.8125 C 25.363281 -38.257812 26.941406 -37.476562 28.171875 -36.46875 C 29.410156 -35.46875 30.320312 -34.269531 30.90625 -32.875 C 31.5 -31.476562 31.796875 -29.9375 31.796875 -28.25 C 31.796875 -26.914062 31.597656 -25.65625 31.203125 -24.46875 C 30.804688 -23.28125 30.238281 -22.203125 29.5 -21.234375 C 28.757812 -20.265625 27.84375 -19.410156 26.75 -18.671875 C 25.664062 -17.941406 24.429688 -17.367188 23.046875 -16.953125 C 23.515625 -16.679688 23.945312 -16.359375 24.34375 -15.984375 C 24.75 -15.609375 25.117188 -15.160156 25.453125 -14.640625 Z M 35.390625 0 "/></g></g></g><g fill="#ffffff" fill-opacity="1"><g transform="translate(113.158103, 117.91237)"><g><path d="M 18.21875 -12.015625 C 16.257812 -11.921875 14.613281 -11.75 13.28125 -11.5 C 11.945312 -11.257812 10.875 -10.945312 10.0625 -10.5625 C 9.257812 -10.175781 8.679688 -9.726562 8.328125 -9.21875 C 7.984375 -8.707031 7.8125 -8.148438 7.8125 -7.546875 C 7.8125 -6.359375 8.160156 -5.503906 8.859375 -4.984375 C 9.566406 -4.472656 10.488281 -4.21875 11.625 -4.21875 C 13.019531 -4.21875 14.222656 -4.46875 15.234375 -4.96875 C 16.253906 -5.476562 17.25 -6.242188 18.21875 -7.265625 Z M 2.6875 -24.21875 C 5.925781 -27.175781 9.820312 -28.65625 14.375 -28.65625 C 16.019531 -28.65625 17.488281 -28.382812 18.78125 -27.84375 C 20.082031 -27.3125 21.179688 -26.566406 22.078125 -25.609375 C 22.972656 -24.648438 23.65625 -23.5 24.125 -22.15625 C 24.59375 -20.820312 24.828125 -19.363281 24.828125 -17.78125 L 24.828125 0 L 21.75 0 C 21.113281 0 20.617188 -0.09375 20.265625 -0.28125 C 19.921875 -0.476562 19.648438 -0.867188 19.453125 -1.453125 L 18.84375 -3.484375 C 18.132812 -2.847656 17.441406 -2.285156 16.765625 -1.796875 C 16.085938 -1.304688 15.378906 -0.894531 14.640625 -0.5625 C 13.910156 -0.238281 13.128906 0.00390625 12.296875 0.171875 C 11.460938 0.347656 10.546875 0.4375 9.546875 0.4375 C 8.359375 0.4375 7.257812 0.28125 6.25 -0.03125 C 5.25 -0.351562 4.378906 -0.832031 3.640625 -1.46875 C 2.910156 -2.113281 2.34375 -2.910156 1.9375 -3.859375 C 1.539062 -4.816406 1.34375 -5.925781 1.34375 -7.1875 C 1.34375 -7.894531 1.460938 -8.601562 1.703125 -9.3125 C 1.941406 -10.019531 2.328125 -10.691406 2.859375 -11.328125 C 3.398438 -11.960938 4.097656 -12.5625 4.953125 -13.125 C 5.816406 -13.695312 6.875 -14.191406 8.125 -14.609375 C 9.382812 -15.035156 10.84375 -15.378906 12.5 -15.640625 C 14.164062 -15.910156 16.070312 -16.070312 18.21875 -16.125 L 18.21875 -17.78125 C 18.21875 -19.65625 17.8125 -21.046875 17 -21.953125 C 16.195312 -22.859375 15.035156 -23.3125 13.515625 -23.3125 C 12.421875 -23.3125 11.507812 -23.179688 10.78125 -22.921875 C 10.0625 -22.671875 9.425781 -22.382812 8.875 -22.0625 C 8.332031 -21.75 7.835938 -21.460938 7.390625 -21.203125 C 6.941406 -20.941406 6.441406 -20.8125 5.890625 -20.8125 C 5.421875 -20.8125 5.019531 -20.9375 4.6875 -21.1875 C 4.363281 -21.4375 4.097656 -21.722656 3.890625 -22.046875 Z M 2.6875 -24.21875 "/></g></g></g><g fill="#ffffff" fill-opacity="1"><g transform="translate(140.996647, 117.91237)"><g><path d="M 23.5 -22.1875 C 23.300781 -21.9375 23.101562 -21.738281 22.90625 -21.59375 C 22.71875 -21.445312 22.441406 -21.375 22.078125 -21.375 C 21.734375 -21.375 21.394531 -21.476562 21.0625 -21.6875 C 20.738281 -21.894531 20.347656 -22.128906 19.890625 -22.390625 C 19.429688 -22.660156 18.882812 -22.898438 18.25 -23.109375 C 17.625 -23.316406 16.84375 -23.421875 15.90625 -23.421875 C 14.71875 -23.421875 13.675781 -23.207031 12.78125 -22.78125 C 11.882812 -22.351562 11.140625 -21.734375 10.546875 -20.921875 C 9.953125 -20.117188 9.507812 -19.144531 9.21875 -18 C 8.925781 -16.863281 8.78125 -15.570312 8.78125 -14.125 C 8.78125 -12.625 8.9375 -11.285156 9.25 -10.109375 C 9.570312 -8.941406 10.035156 -7.960938 10.640625 -7.171875 C 11.242188 -6.378906 11.972656 -5.773438 12.828125 -5.359375 C 13.691406 -4.953125 14.664062 -4.75 15.75 -4.75 C 16.820312 -4.75 17.691406 -4.878906 18.359375 -5.140625 C 19.023438 -5.410156 19.585938 -5.703125 20.046875 -6.015625 C 20.503906 -6.335938 20.898438 -6.628906 21.234375 -6.890625 C 21.578125 -7.160156 21.957031 -7.296875 22.375 -7.296875 C 22.925781 -7.296875 23.335938 -7.085938 23.609375 -6.671875 L 25.5625 -4.203125 C 24.8125 -3.316406 24 -2.578125 23.125 -1.984375 C 22.25 -1.390625 21.335938 -0.914062 20.390625 -0.5625 C 19.453125 -0.207031 18.484375 0.0390625 17.484375 0.1875 C 16.484375 0.332031 15.492188 0.40625 14.515625 0.40625 C 12.773438 0.40625 11.132812 0.0820312 9.59375 -0.5625 C 8.0625 -1.207031 6.71875 -2.148438 5.5625 -3.390625 C 4.414062 -4.640625 3.507812 -6.164062 2.84375 -7.96875 C 2.175781 -9.769531 1.84375 -11.820312 1.84375 -14.125 C 1.84375 -16.1875 2.140625 -18.097656 2.734375 -19.859375 C 3.328125 -21.628906 4.195312 -23.160156 5.34375 -24.453125 C 6.5 -25.742188 7.925781 -26.753906 9.625 -27.484375 C 11.320312 -28.210938 13.28125 -28.578125 15.5 -28.578125 C 17.601562 -28.578125 19.441406 -28.238281 21.015625 -27.5625 C 22.597656 -26.882812 24.023438 -25.914062 25.296875 -24.65625 Z M 23.5 -22.1875 "/></g></g></g><g fill="#ffffff" fill-opacity="1"><g transform="translate(167.436401, 117.91237)"><g><path d="M 21.484375 -17.3125 C 21.484375 -18.1875 21.359375 -19.007812 21.109375 -19.78125 C 20.859375 -20.5625 20.484375 -21.242188 19.984375 -21.828125 C 19.492188 -22.421875 18.867188 -22.882812 18.109375 -23.21875 C 17.359375 -23.5625 16.476562 -23.734375 15.46875 -23.734375 C 13.507812 -23.734375 11.96875 -23.171875 10.84375 -22.046875 C 9.71875 -20.929688 9 -19.351562 8.6875 -17.3125 Z M 8.5625 -13.21875 C 8.664062 -11.769531 8.914062 -10.519531 9.3125 -9.46875 C 9.71875 -8.425781 10.25 -7.5625 10.90625 -6.875 C 11.570312 -6.1875 12.359375 -5.671875 13.265625 -5.328125 C 14.171875 -4.992188 15.171875 -4.828125 16.265625 -4.828125 C 17.359375 -4.828125 18.300781 -4.953125 19.09375 -5.203125 C 19.894531 -5.460938 20.59375 -5.75 21.1875 -6.0625 C 21.78125 -6.375 22.300781 -6.65625 22.75 -6.90625 C 23.195312 -7.164062 23.632812 -7.296875 24.0625 -7.296875 C 24.625 -7.296875 25.039062 -7.085938 25.3125 -6.671875 L 27.265625 -4.203125 C 26.515625 -3.316406 25.671875 -2.578125 24.734375 -1.984375 C 23.804688 -1.390625 22.832031 -0.914062 21.8125 -0.5625 C 20.800781 -0.207031 19.769531 0.0390625 18.71875 0.1875 C 17.664062 0.332031 16.644531 0.40625 15.65625 0.40625 C 13.707031 0.40625 11.890625 0.0820312 10.203125 -0.5625 C 8.523438 -1.207031 7.0625 -2.164062 5.8125 -3.4375 C 4.570312 -4.707031 3.59375 -6.28125 2.875 -8.15625 C 2.164062 -10.03125 1.8125 -12.203125 1.8125 -14.671875 C 1.8125 -16.597656 2.117188 -18.40625 2.734375 -20.09375 C 3.359375 -21.78125 4.25 -23.25 5.40625 -24.5 C 6.570312 -25.757812 7.988281 -26.753906 9.65625 -27.484375 C 11.332031 -28.210938 13.222656 -28.578125 15.328125 -28.578125 C 17.109375 -28.578125 18.75 -28.289062 20.25 -27.71875 C 21.75 -27.15625 23.035156 -26.328125 24.109375 -25.234375 C 25.191406 -24.148438 26.035156 -22.816406 26.640625 -21.234375 C 27.253906 -19.660156 27.5625 -17.859375 27.5625 -15.828125 C 27.5625 -14.804688 27.453125 -14.113281 27.234375 -13.75 C 27.015625 -13.394531 26.59375 -13.21875 25.96875 -13.21875 Z M 8.5625 -13.21875 "/></g></g></g><g fill="#ffffff" fill-opacity="1"><g transform="translate(196.728583, 117.91237)"><g/></g></g><g fill="#ffffff" fill-opacity="1"><g transform="translate(210.058171, 117.91237)"><g><path d="M 18.21875 -12.015625 C 16.257812 -11.921875 14.613281 -11.75 13.28125 -11.5 C 11.945312 -11.257812 10.875 -10.945312 10.0625 -10.5625 C 9.257812 -10.175781 8.679688 -9.726562 8.328125 -9.21875 C 7.984375 -8.707031 7.8125 -8.148438 7.8125 -7.546875 C 7.8125 -6.359375 8.160156 -5.503906 8.859375 -4.984375 C 9.566406 -4.472656 10.488281 -4.21875 11.625 -4.21875 C 13.019531 -4.21875 14.222656 -4.46875 15.234375 -4.96875 C 16.253906 -5.476562 17.25 -6.242188 18.21875 -7.265625 Z M 2.6875 -24.21875 C 5.925781 -27.175781 9.820312 -28.65625 14.375 -28.65625 C 16.019531 -28.65625 17.488281 -28.382812 18.78125 -27.84375 C 20.082031 -27.3125 21.179688 -26.566406 22.078125 -25.609375 C 22.972656 -24.648438 23.65625 -23.5 24.125 -22.15625 C 24.59375 -20.820312 24.828125 -19.363281 24.828125 -17.78125 L 24.828125 0 L 21.75 0 C 21.113281 0 20.617188 -0.09375 20.265625 -0.28125 C 19.921875 -0.476562 19.648438 -0.867188 19.453125 -1.453125 L 18.84375 -3.484375 C 18.132812 -2.847656 17.441406 -2.285156 16.765625 -1.796875 C 16.085938 -1.304688 15.378906 -0.894531 14.640625 -0.5625 C 13.910156 -0.238281 13.128906 0.00390625 12.296875 0.171875 C 11.460938 0.347656 10.546875 0.4375 9.546875 0.4375 C 8.359375 0.4375 7.257812 0.28125 6.25 -0.03125 C 5.25 -0.351562 4.378906 -0.832031 3.640625 -1.46875 C 2.910156 -2.113281 2.34375 -2.910156 1.9375 -3.859375 C 1.539062 -4.816406 1.34375 -5.925781 1.34375 -7.1875 C 1.34375 -7.894531 1.460938 -8.601562 1.703125 -9.3125 C 1.941406 -10.019531 2.328125 -10.691406 2.859375 -11.328125 C 3.398438 -11.960938 4.097656 -12.5625 4.953125 -13.125 C 5.816406 -13.695312 6.875 -14.191406 8.125 -14.609375 C 9.382812 -15.035156 10.84375 -15.378906 12.5 -15.640625 C 14.164062 -15.910156 16.070312 -16.070312 18.21875 -16.125 L 18.21875 -17.78125 C 18.21875 -19.65625 17.8125 -21.046875 17 -21.953125 C 16.195312 -22.859375 15.035156 -23.3125 13.515625 -23.3125 C 12.421875 -23.3125 11.507812 -23.179688 10.78125 -22.921875 C 10.0625 -22.671875 9.425781 -22.382812 8.875 -22.0625 C 8.332031 -21.75 7.835938 -21.460938 7.390625 -21.203125 C 6.941406 -20.941406 6.441406 -20.8125 5.890625 -20.8125 C 5.421875 -20.8125 5.019531 -20.9375 4.6875 -21.1875 C 4.363281 -21.4375 4.097656 -21.722656 3.890625 -22.046875 Z M 2.6875 -24.21875 "/></g></g></g><g fill="#ffffff" fill-opacity="1"><g transform="translate(237.896716, 117.91237)"><g><path d="M 12.734375 0.4375 C 10.273438 0.4375 8.390625 -0.25 7.078125 -1.625 C 5.773438 -3.007812 5.125 -4.914062 5.125 -7.34375 L 5.125 -23.0625 L 2.25 -23.0625 C 1.882812 -23.0625 1.570312 -23.179688 1.3125 -23.421875 C 1.0625 -23.660156 0.9375 -24.019531 0.9375 -24.5 L 0.9375 -27.1875 L 5.453125 -27.921875 L 6.890625 -35.609375 C 6.972656 -35.972656 7.144531 -36.253906 7.40625 -36.453125 C 7.664062 -36.648438 7.992188 -36.75 8.390625 -36.75 L 11.90625 -36.75 L 11.90625 -27.890625 L 19.421875 -27.890625 L 19.421875 -23.0625 L 11.90625 -23.0625 L 11.90625 -7.8125 C 11.90625 -6.9375 12.117188 -6.25 12.546875 -5.75 C 12.972656 -5.257812 13.5625 -5.015625 14.3125 -5.015625 C 14.738281 -5.015625 15.09375 -5.066406 15.375 -5.171875 C 15.65625 -5.273438 15.898438 -5.378906 16.109375 -5.484375 C 16.328125 -5.597656 16.515625 -5.703125 16.671875 -5.796875 C 16.835938 -5.898438 17.003906 -5.953125 17.171875 -5.953125 C 17.367188 -5.953125 17.53125 -5.898438 17.65625 -5.796875 C 17.789062 -5.703125 17.929688 -5.550781 18.078125 -5.34375 L 20.109375 -2.0625 C 19.117188 -1.238281 17.984375 -0.613281 16.703125 -0.1875 C 15.421875 0.226562 14.097656 0.4375 12.734375 0.4375 Z M 12.734375 0.4375 "/></g></g></g><g fill="#ffffff" fill-opacity="1"><g transform="translate(258.302509, 117.91237)"><g/></g></g><g fill="#ffffff" fill-opacity="1"><g transform="translate(271.632097, 117.91237)"><g><path d="M 57.1875 -39.65625 L 44.875 0 L 38.203125 0 L 29.546875 -27.09375 C 29.304688 -27.757812 29.085938 -28.566406 28.890625 -29.515625 C 28.773438 -29.054688 28.660156 -28.625 28.546875 -28.21875 C 28.441406 -27.820312 28.328125 -27.445312 28.203125 -27.09375 L 19.453125 0 L 12.75 0 L 0.46875 -39.65625 L 6.640625 -39.65625 C 7.273438 -39.65625 7.804688 -39.503906 8.234375 -39.203125 C 8.671875 -38.910156 8.960938 -38.503906 9.109375 -37.984375 L 15.859375 -14.265625 C 16.003906 -13.679688 16.144531 -13.046875 16.28125 -12.359375 C 16.414062 -11.671875 16.554688 -10.953125 16.703125 -10.203125 C 16.847656 -10.972656 17.003906 -11.695312 17.171875 -12.375 C 17.347656 -13.050781 17.539062 -13.679688 17.75 -14.265625 L 25.53125 -37.984375 C 25.675781 -38.410156 25.960938 -38.796875 26.390625 -39.140625 C 26.828125 -39.484375 27.359375 -39.65625 27.984375 -39.65625 L 30.140625 -39.65625 C 30.785156 -39.65625 31.304688 -39.5 31.703125 -39.1875 C 32.109375 -38.882812 32.410156 -38.484375 32.609375 -37.984375 L 40.375 -14.265625 C 40.757812 -13.128906 41.109375 -11.820312 41.421875 -10.34375 C 41.660156 -11.789062 41.925781 -13.097656 42.21875 -14.265625 L 48.96875 -37.984375 C 49.070312 -38.441406 49.347656 -38.832031 49.796875 -39.15625 C 50.242188 -39.488281 50.78125 -39.65625 51.40625 -39.65625 Z M 57.1875 -39.65625 "/></g></g></g><g fill="#ffffff" fill-opacity="1"><g transform="translate(329.283933, 117.91237)"><g><path d="M 15.796875 -28.578125 C 17.878906 -28.578125 19.773438 -28.238281 21.484375 -27.5625 C 23.203125 -26.882812 24.664062 -25.925781 25.875 -24.6875 C 27.09375 -23.445312 28.03125 -21.925781 28.6875 -20.125 C 29.34375 -18.332031 29.671875 -16.332031 29.671875 -14.125 C 29.671875 -11.894531 29.34375 -9.882812 28.6875 -8.09375 C 28.03125 -6.300781 27.09375 -4.773438 25.875 -3.515625 C 24.664062 -2.253906 23.203125 -1.285156 21.484375 -0.609375 C 19.773438 0.0664062 17.878906 0.40625 15.796875 0.40625 C 13.691406 0.40625 11.78125 0.0664062 10.0625 -0.609375 C 8.34375 -1.285156 6.875 -2.253906 5.65625 -3.515625 C 4.445312 -4.773438 3.507812 -6.300781 2.84375 -8.09375 C 2.175781 -9.882812 1.84375 -11.894531 1.84375 -14.125 C 1.84375 -16.332031 2.175781 -18.332031 2.84375 -20.125 C 3.507812 -21.925781 4.445312 -23.445312 5.65625 -24.6875 C 6.875 -25.925781 8.34375 -26.882812 10.0625 -27.5625 C 11.78125 -28.238281 13.691406 -28.578125 15.796875 -28.578125 Z M 15.796875 -4.796875 C 18.140625 -4.796875 19.875 -5.582031 21 -7.15625 C 22.125 -8.726562 22.6875 -11.035156 22.6875 -14.078125 C 22.6875 -17.109375 22.125 -19.414062 21 -21 C 19.875 -22.59375 18.140625 -23.390625 15.796875 -23.390625 C 13.421875 -23.390625 11.660156 -22.585938 10.515625 -20.984375 C 9.378906 -19.390625 8.8125 -17.085938 8.8125 -14.078125 C 8.8125 -11.054688 9.378906 -8.753906 10.515625 -7.171875 C 11.660156 -5.585938 13.421875 -4.796875 15.796875 -4.796875 Z M 15.796875 -4.796875 "/></g></g></g><g fill="#ffffff" fill-opacity="1"><g transform="translate(360.797715, 117.91237)"><g><path d="M 9.734375 -23.265625 C 10.609375 -24.941406 11.648438 -26.257812 12.859375 -27.21875 C 14.066406 -28.175781 15.492188 -28.65625 17.140625 -28.65625 C 18.441406 -28.65625 19.484375 -28.375 20.265625 -27.8125 L 19.828125 -22.734375 C 19.734375 -22.410156 19.597656 -22.175781 19.421875 -22.03125 C 19.253906 -21.894531 19.023438 -21.828125 18.734375 -21.828125 C 18.460938 -21.828125 18.054688 -21.875 17.515625 -21.96875 C 16.972656 -22.0625 16.445312 -22.109375 15.9375 -22.109375 C 15.1875 -22.109375 14.519531 -22 13.9375 -21.78125 C 13.351562 -21.5625 12.828125 -21.242188 12.359375 -20.828125 C 11.890625 -20.421875 11.476562 -19.921875 11.125 -19.328125 C 10.769531 -18.742188 10.4375 -18.078125 10.125 -17.328125 L 10.125 0 L 3.34375 0 L 3.34375 -28.140625 L 7.328125 -28.140625 C 8.015625 -28.140625 8.492188 -28.015625 8.765625 -27.765625 C 9.046875 -27.523438 9.234375 -27.082031 9.328125 -26.4375 Z M 9.734375 -23.265625 "/></g></g></g><g fill="#ffffff" fill-opacity="1"><g transform="translate(381.258355, 117.91237)"><g><path d="M 10.125 -40.765625 L 10.125 -17.421875 L 11.390625 -17.421875 C 11.835938 -17.421875 12.191406 -17.476562 12.453125 -17.59375 C 12.722656 -17.71875 13 -17.960938 13.28125 -18.328125 L 20.265625 -26.96875 C 20.554688 -27.351562 20.878906 -27.644531 21.234375 -27.84375 C 21.597656 -28.039062 22.0625 -28.140625 22.625 -28.140625 L 28.828125 -28.140625 L 20.078125 -17.6875 C 19.453125 -16.863281 18.773438 -16.234375 18.046875 -15.796875 C 18.429688 -15.523438 18.773438 -15.207031 19.078125 -14.84375 C 19.378906 -14.476562 19.664062 -14.082031 19.9375 -13.65625 L 29.328125 0 L 23.203125 0 C 22.671875 0 22.210938 -0.0820312 21.828125 -0.25 C 21.453125 -0.425781 21.132812 -0.742188 20.875 -1.203125 L 13.6875 -11.875 C 13.425781 -12.300781 13.160156 -12.578125 12.890625 -12.703125 C 12.617188 -12.828125 12.207031 -12.890625 11.65625 -12.890625 L 10.125 -12.890625 L 10.125 0 L 3.34375 0 L 3.34375 -40.765625 Z M 10.125 -40.765625 "/></g></g></g></svg>