<svg xmlns="http://www.w3.org/2000/svg" xmlns:xlink="http://www.w3.org/1999/xlink" width="1960" zoomAndPan="magnify" viewBox="0 0 1470 193.499995" height="258" preserveAspectRatio="xMidYMid meet" version="1.0"><defs><g/><clipPath id="7143675441"><path d="M 1.894531 0 L 1468.105469 0 L 1468.105469 192.894531 L 1.894531 192.894531 Z M 1.894531 0 " clip-rule="nonzero"/></clipPath><clipPath id="8eaf628808"><path d="M 99.144531 145.882812 L 288.988281 145.882812 L 288.988281 149.625 L 99.144531 149.625 Z M 99.144531 145.882812 " clip-rule="nonzero"/></clipPath></defs><g clip-path="url(#7143675441)"><path fill="#287ead" d="M 1.894531 0 L 1468.1875 0 L 1468.1875 192.894531 L 1.894531 192.894531 Z M 1.894531 0 " fill-opacity="1" fill-rule="nonzero"/></g><g clip-path="url(#8eaf628808)"><path fill="#ffffff" d="M 99.144531 145.882812 L 288.996094 145.882812 L 288.996094 149.625 L 99.144531 149.625 Z M 99.144531 145.882812 " fill-opacity="1" fill-rule="nonzero"/></g><g fill="#ffffff" fill-opacity="1"><g transform="translate(99.143055, 117.91237)"><g><path d="M 47.421875 -39.65625 L 47.421875 0 L 40.921875 0 L 40.921875 -25.625 C 40.921875 -26.644531 40.976562 -27.75 41.09375 -28.9375 L 29.109375 -6.421875 C 28.535156 -5.335938 27.664062 -4.796875 26.5 -4.796875 L 25.453125 -4.796875 C 24.285156 -4.796875 23.414062 -5.335938 22.84375 -6.421875 L 10.71875 -29.015625 C 10.78125 -28.410156 10.828125 -27.816406 10.859375 -27.234375 C 10.898438 -26.648438 10.921875 -26.113281 10.921875 -25.625 L 10.921875 0 L 4.421875 0 L 4.421875 -39.65625 L 9.984375 -39.65625 C 10.316406 -39.65625 10.597656 -39.644531 10.828125 -39.625 C 11.066406 -39.613281 11.28125 -39.570312 11.46875 -39.5 C 11.664062 -39.425781 11.84375 -39.304688 12 -39.140625 C 12.15625 -38.972656 12.304688 -38.753906 12.453125 -38.484375 L 24.328125 -16.453125 C 24.640625 -15.867188 24.925781 -15.265625 25.1875 -14.640625 C 25.457031 -14.023438 25.71875 -13.390625 25.96875 -12.734375 C 26.226562 -13.410156 26.492188 -14.0625 26.765625 -14.6875 C 27.046875 -15.320312 27.34375 -15.929688 27.65625 -16.515625 L 39.359375 -38.484375 C 39.503906 -38.753906 39.660156 -38.972656 39.828125 -39.140625 C 39.992188 -39.304688 40.171875 -39.425781 40.359375 -39.5 C 40.554688 -39.570312 40.769531 -39.613281 41 -39.625 C 41.238281 -39.644531 41.523438 -39.65625 41.859375 -39.65625 Z M 47.421875 -39.65625 "/></g></g></g><g fill="#ffffff" fill-opacity="1"><g transform="translate(150.980342, 117.91237)"><g><path d="M 15.796875 -28.578125 C 17.878906 -28.578125 19.773438 -28.238281 21.484375 -27.5625 C 23.203125 -26.882812 24.664062 -25.925781 25.875 -24.6875 C 27.09375 -23.445312 28.03125 -21.925781 28.6875 -20.125 C 29.34375 -18.332031 29.671875 -16.332031 29.671875 -14.125 C 29.671875 -11.894531 29.34375 -9.882812 28.6875 -8.09375 C 28.03125 -6.300781 27.09375 -4.773438 25.875 -3.515625 C 24.664062 -2.253906 23.203125 -1.285156 21.484375 -0.609375 C 19.773438 0.0664062 17.878906 0.40625 15.796875 0.40625 C 13.691406 0.40625 11.78125 0.0664062 10.0625 -0.609375 C 8.34375 -1.285156 6.875 -2.253906 5.65625 -3.515625 C 4.445312 -4.773438 3.507812 -6.300781 2.84375 -8.09375 C 2.175781 -9.882812 1.84375 -11.894531 1.84375 -14.125 C 1.84375 -16.332031 2.175781 -18.332031 2.84375 -20.125 C 3.507812 -21.925781 4.445312 -23.445312 5.65625 -24.6875 C 6.875 -25.925781 8.34375 -26.882812 10.0625 -27.5625 C 11.78125 -28.238281 13.691406 -28.578125 15.796875 -28.578125 Z M 15.796875 -4.796875 C 18.140625 -4.796875 19.875 -5.582031 21 -7.15625 C 22.125 -8.726562 22.6875 -11.035156 22.6875 -14.078125 C 22.6875 -17.109375 22.125 -19.414062 21 -21 C 19.875 -22.59375 18.140625 -23.390625 15.796875 -23.390625 C 13.421875 -23.390625 11.660156 -22.585938 10.515625 -20.984375 C 9.378906 -19.390625 8.8125 -17.085938 8.8125 -14.078125 C 8.8125 -11.054688 9.378906 -8.753906 10.515625 -7.171875 C 11.660156 -5.585938 13.421875 -4.796875 15.796875 -4.796875 Z M 15.796875 -4.796875 "/></g></g></g><g fill="#ffffff" fill-opacity="1"><g transform="translate(182.494123, 117.91237)"><g><path d="M 21.015625 -20.953125 C 20.242188 -21.890625 19.40625 -22.546875 18.5 -22.921875 C 17.59375 -23.304688 16.617188 -23.5 15.578125 -23.5 C 14.554688 -23.5 13.632812 -23.304688 12.8125 -22.921875 C 11.988281 -22.546875 11.28125 -21.96875 10.6875 -21.1875 C 10.101562 -20.414062 9.65625 -19.429688 9.34375 -18.234375 C 9.039062 -17.035156 8.890625 -15.617188 8.890625 -13.984375 C 8.890625 -12.335938 9.019531 -10.941406 9.28125 -9.796875 C 9.550781 -8.660156 9.929688 -7.726562 10.421875 -7 C 10.910156 -6.28125 11.507812 -5.757812 12.21875 -5.4375 C 12.9375 -5.125 13.738281 -4.96875 14.625 -4.96875 C 16.03125 -4.96875 17.222656 -5.257812 18.203125 -5.84375 C 19.191406 -6.425781 20.128906 -7.257812 21.015625 -8.34375 Z M 27.78125 -40.765625 L 27.78125 0 L 23.640625 0 C 22.742188 0 22.175781 -0.410156 21.9375 -1.234375 L 21.375 -3.953125 C 20.238281 -2.648438 18.929688 -1.597656 17.453125 -0.796875 C 15.984375 0.00390625 14.269531 0.40625 12.3125 0.40625 C 10.78125 0.40625 9.375 0.0859375 8.09375 -0.546875 C 6.8125 -1.191406 5.707031 -2.117188 4.78125 -3.328125 C 3.863281 -4.546875 3.148438 -6.050781 2.640625 -7.84375 C 2.140625 -9.632812 1.890625 -11.679688 1.890625 -13.984375 C 1.890625 -16.066406 2.171875 -18.003906 2.734375 -19.796875 C 3.304688 -21.597656 4.125 -23.15625 5.1875 -24.46875 C 6.25 -25.78125 7.519531 -26.804688 9 -27.546875 C 10.476562 -28.285156 12.140625 -28.65625 13.984375 -28.65625 C 15.554688 -28.65625 16.898438 -28.410156 18.015625 -27.921875 C 19.128906 -27.429688 20.128906 -26.765625 21.015625 -25.921875 L 21.015625 -40.765625 Z M 27.78125 -40.765625 "/></g></g></g><g fill="#ffffff" fill-opacity="1"><g transform="translate(213.623918, 117.91237)"><g><path d="M 21.484375 -17.3125 C 21.484375 -18.1875 21.359375 -19.007812 21.109375 -19.78125 C 20.859375 -20.5625 20.484375 -21.242188 19.984375 -21.828125 C 19.492188 -22.421875 18.867188 -22.882812 18.109375 -23.21875 C 17.359375 -23.5625 16.476562 -23.734375 15.46875 -23.734375 C 13.507812 -23.734375 11.96875 -23.171875 10.84375 -22.046875 C 9.71875 -20.929688 9 -19.351562 8.6875 -17.3125 Z M 8.5625 -13.21875 C 8.664062 -11.769531 8.914062 -10.519531 9.3125 -9.46875 C 9.71875 -8.425781 10.25 -7.5625 10.90625 -6.875 C 11.570312 -6.1875 12.359375 -5.671875 13.265625 -5.328125 C 14.171875 -4.992188 15.171875 -4.828125 16.265625 -4.828125 C 17.359375 -4.828125 18.300781 -4.953125 19.09375 -5.203125 C 19.894531 -5.460938 20.59375 -5.75 21.1875 -6.0625 C 21.78125 -6.375 22.300781 -6.65625 22.75 -6.90625 C 23.195312 -7.164062 23.632812 -7.296875 24.0625 -7.296875 C 24.625 -7.296875 25.039062 -7.085938 25.3125 -6.671875 L 27.265625 -4.203125 C 26.515625 -3.316406 25.671875 -2.578125 24.734375 -1.984375 C 23.804688 -1.390625 22.832031 -0.914062 21.8125 -0.5625 C 20.800781 -0.207031 19.769531 0.0390625 18.71875 0.1875 C 17.664062 0.332031 16.644531 0.40625 15.65625 0.40625 C 13.707031 0.40625 11.890625 0.0820312 10.203125 -0.5625 C 8.523438 -1.207031 7.0625 -2.164062 5.8125 -3.4375 C 4.570312 -4.707031 3.59375 -6.28125 2.875 -8.15625 C 2.164062 -10.03125 1.8125 -12.203125 1.8125 -14.671875 C 1.8125 -16.597656 2.117188 -18.40625 2.734375 -20.09375 C 3.359375 -21.78125 4.25 -23.25 5.40625 -24.5 C 6.570312 -25.757812 7.988281 -26.753906 9.65625 -27.484375 C 11.332031 -28.210938 13.222656 -28.578125 15.328125 -28.578125 C 17.109375 -28.578125 18.75 -28.289062 20.25 -27.71875 C 21.75 -27.15625 23.035156 -26.328125 24.109375 -25.234375 C 25.191406 -24.148438 26.035156 -22.816406 26.640625 -21.234375 C 27.253906 -19.660156 27.5625 -17.859375 27.5625 -15.828125 C 27.5625 -14.804688 27.453125 -14.113281 27.234375 -13.75 C 27.015625 -13.394531 26.59375 -13.21875 25.96875 -13.21875 Z M 8.5625 -13.21875 "/></g></g></g><g fill="#ffffff" fill-opacity="1"><g transform="translate(242.9161, 117.91237)"><g><path d="M 9.734375 -23.265625 C 10.609375 -24.941406 11.648438 -26.257812 12.859375 -27.21875 C 14.066406 -28.175781 15.492188 -28.65625 17.140625 -28.65625 C 18.441406 -28.65625 19.484375 -28.375 20.265625 -27.8125 L 19.828125 -22.734375 C 19.734375 -22.410156 19.597656 -22.175781 19.421875 -22.03125 C 19.253906 -21.894531 19.023438 -21.828125 18.734375 -21.828125 C 18.460938 -21.828125 18.054688 -21.875 17.515625 -21.96875 C 16.972656 -22.0625 16.445312 -22.109375 15.9375 -22.109375 C 15.1875 -22.109375 14.519531 -22 13.9375 -21.78125 C 13.351562 -21.5625 12.828125 -21.242188 12.359375 -20.828125 C 11.890625 -20.421875 11.476562 -19.921875 11.125 -19.328125 C 10.769531 -18.742188 10.4375 -18.078125 10.125 -17.328125 L 10.125 0 L 3.34375 0 L 3.34375 -28.140625 L 7.328125 -28.140625 C 8.015625 -28.140625 8.492188 -28.015625 8.765625 -27.765625 C 9.046875 -27.523438 9.234375 -27.082031 9.328125 -26.4375 Z M 9.734375 -23.265625 "/></g></g></g><g fill="#ffffff" fill-opacity="1"><g transform="translate(263.37674, 117.91237)"><g><path d="M 9.6875 -24.6875 C 10.25 -25.25 10.84375 -25.769531 11.46875 -26.25 C 12.101562 -26.738281 12.769531 -27.148438 13.46875 -27.484375 C 14.175781 -27.828125 14.929688 -28.09375 15.734375 -28.28125 C 16.546875 -28.476562 17.425781 -28.578125 18.375 -28.578125 C 19.914062 -28.578125 21.28125 -28.316406 22.46875 -27.796875 C 23.65625 -27.273438 24.644531 -26.539062 25.4375 -25.59375 C 26.238281 -24.65625 26.84375 -23.53125 27.25 -22.21875 C 27.664062 -20.914062 27.875 -19.476562 27.875 -17.90625 L 27.875 0 L 21.09375 0 L 21.09375 -17.90625 C 21.09375 -19.625 20.695312 -20.953125 19.90625 -21.890625 C 19.125 -22.835938 17.929688 -23.3125 16.328125 -23.3125 C 15.148438 -23.3125 14.050781 -23.046875 13.03125 -22.515625 C 12.007812 -21.984375 11.039062 -21.265625 10.125 -20.359375 L 10.125 0 L 3.34375 0 L 3.34375 -28.140625 L 7.484375 -28.140625 C 8.367188 -28.140625 8.945312 -27.726562 9.21875 -26.90625 Z M 9.6875 -24.6875 "/></g></g></g><g fill="#ffffff" fill-opacity="1"><g transform="translate(294.314564, 117.91237)"><g/></g></g><g fill="#ffffff" fill-opacity="1"><g transform="translate(307.644164, 117.91237)"><g><path d="M 25.53125 -32.453125 C 25.3125 -32.066406 25.078125 -31.785156 24.828125 -31.609375 C 24.585938 -31.441406 24.285156 -31.359375 23.921875 -31.359375 C 23.535156 -31.359375 23.117188 -31.5 22.671875 -31.78125 C 22.222656 -32.0625 21.6875 -32.375 21.0625 -32.71875 C 20.445312 -33.070312 19.722656 -33.390625 18.890625 -33.671875 C 18.054688 -33.953125 17.070312 -34.09375 15.9375 -34.09375 C 14.914062 -34.09375 14.019531 -33.96875 13.25 -33.71875 C 12.476562 -33.476562 11.832031 -33.132812 11.3125 -32.6875 C 10.789062 -32.25 10.398438 -31.722656 10.140625 -31.109375 C 9.890625 -30.503906 9.765625 -29.835938 9.765625 -29.109375 C 9.765625 -28.171875 10.023438 -27.390625 10.546875 -26.765625 C 11.066406 -26.148438 11.753906 -25.617188 12.609375 -25.171875 C 13.472656 -24.734375 14.453125 -24.34375 15.546875 -24 C 16.648438 -23.65625 17.773438 -23.285156 18.921875 -22.890625 C 20.078125 -22.492188 21.203125 -22.035156 22.296875 -21.515625 C 23.398438 -20.992188 24.378906 -20.332031 25.234375 -19.53125 C 26.097656 -18.738281 26.789062 -17.765625 27.3125 -16.609375 C 27.832031 -15.460938 28.09375 -14.066406 28.09375 -12.421875 C 28.09375 -10.628906 27.785156 -8.953125 27.171875 -7.390625 C 26.554688 -5.828125 25.660156 -4.460938 24.484375 -3.296875 C 23.304688 -2.140625 21.863281 -1.226562 20.15625 -0.5625 C 18.457031 0.101562 16.507812 0.4375 14.3125 0.4375 C 13.050781 0.4375 11.804688 0.3125 10.578125 0.0625 C 9.359375 -0.175781 8.1875 -0.523438 7.0625 -0.984375 C 5.9375 -1.441406 4.878906 -1.988281 3.890625 -2.625 C 2.898438 -3.269531 2.023438 -3.984375 1.265625 -4.765625 L 3.421875 -8.3125 C 3.609375 -8.5625 3.847656 -8.773438 4.140625 -8.953125 C 4.429688 -9.128906 4.742188 -9.21875 5.078125 -9.21875 C 5.535156 -9.21875 6.023438 -9.03125 6.546875 -8.65625 C 7.078125 -8.28125 7.707031 -7.863281 8.4375 -7.40625 C 9.175781 -6.945312 10.035156 -6.53125 11.015625 -6.15625 C 11.992188 -5.78125 13.164062 -5.59375 14.53125 -5.59375 C 16.632812 -5.59375 18.257812 -6.085938 19.40625 -7.078125 C 20.5625 -8.078125 21.140625 -9.515625 21.140625 -11.390625 C 21.140625 -12.429688 20.878906 -13.28125 20.359375 -13.9375 C 19.835938 -14.59375 19.144531 -15.144531 18.28125 -15.59375 C 17.425781 -16.039062 16.453125 -16.421875 15.359375 -16.734375 C 14.265625 -17.046875 13.148438 -17.382812 12.015625 -17.75 C 10.878906 -18.113281 9.757812 -18.550781 8.65625 -19.0625 C 7.5625 -19.570312 6.582031 -20.238281 5.71875 -21.0625 C 4.863281 -21.882812 4.175781 -22.910156 3.65625 -24.140625 C 3.132812 -25.378906 2.875 -26.90625 2.875 -28.71875 C 2.875 -30.164062 3.160156 -31.570312 3.734375 -32.9375 C 4.316406 -34.3125 5.15625 -35.53125 6.25 -36.59375 C 7.351562 -37.65625 8.707031 -38.503906 10.3125 -39.140625 C 11.925781 -39.785156 13.773438 -40.109375 15.859375 -40.109375 C 18.191406 -40.109375 20.347656 -39.738281 22.328125 -39 C 24.304688 -38.269531 25.988281 -37.25 27.375 -35.9375 Z M 25.53125 -32.453125 "/></g></g></g><g fill="#ffffff" fill-opacity="1"><g transform="translate(337.731715, 117.91237)"><g><path d="M 10.203125 -40.765625 L 10.203125 0 L 3.421875 0 L 3.421875 -40.765625 Z M 10.203125 -40.765625 "/></g></g></g><g fill="#ffffff" fill-opacity="1"><g transform="translate(351.363003, 117.91237)"><g><path d="M 18.21875 -12.015625 C 16.257812 -11.921875 14.613281 -11.75 13.28125 -11.5 C 11.945312 -11.257812 10.875 -10.945312 10.0625 -10.5625 C 9.257812 -10.175781 8.679688 -9.726562 8.328125 -9.21875 C 7.984375 -8.707031 7.8125 -8.148438 7.8125 -7.546875 C 7.8125 -6.359375 8.160156 -5.503906 8.859375 -4.984375 C 9.566406 -4.472656 10.488281 -4.21875 11.625 -4.21875 C 13.019531 -4.21875 14.222656 -4.46875 15.234375 -4.96875 C 16.253906 -5.476562 17.25 -6.242188 18.21875 -7.265625 Z M 2.6875 -24.21875 C 5.925781 -27.175781 9.820312 -28.65625 14.375 -28.65625 C 16.019531 -28.65625 17.488281 -28.382812 18.78125 -27.84375 C 20.082031 -27.3125 21.179688 -26.566406 22.078125 -25.609375 C 22.972656 -24.648438 23.65625 -23.5 24.125 -22.15625 C 24.59375 -20.820312 24.828125 -19.363281 24.828125 -17.78125 L 24.828125 0 L 21.75 0 C 21.113281 0 20.617188 -0.09375 20.265625 -0.28125 C 19.921875 -0.476562 19.648438 -0.867188 19.453125 -1.453125 L 18.84375 -3.484375 C 18.132812 -2.847656 17.441406 -2.285156 16.765625 -1.796875 C 16.085938 -1.304688 15.378906 -0.894531 14.640625 -0.5625 C 13.910156 -0.238281 13.128906 0.00390625 12.296875 0.171875 C 11.460938 0.347656 10.546875 0.4375 9.546875 0.4375 C 8.359375 0.4375 7.257812 0.28125 6.25 -0.03125 C 5.25 -0.351562 4.378906 -0.832031 3.640625 -1.46875 C 2.910156 -2.113281 2.34375 -2.910156 1.9375 -3.859375 C 1.539062 -4.816406 1.34375 -5.925781 1.34375 -7.1875 C 1.34375 -7.894531 1.460938 -8.601562 1.703125 -9.3125 C 1.941406 -10.019531 2.328125 -10.691406 2.859375 -11.328125 C 3.398438 -11.960938 4.097656 -12.5625 4.953125 -13.125 C 5.816406 -13.695312 6.875 -14.191406 8.125 -14.609375 C 9.382812 -15.035156 10.84375 -15.378906 12.5 -15.640625 C 14.164062 -15.910156 16.070312 -16.070312 18.21875 -16.125 L 18.21875 -17.78125 C 18.21875 -19.65625 17.8125 -21.046875 17 -21.953125 C 16.195312 -22.859375 15.035156 -23.3125 13.515625 -23.3125 C 12.421875 -23.3125 11.507812 -23.179688 10.78125 -22.921875 C 10.0625 -22.671875 9.425781 -22.382812 8.875 -22.0625 C 8.332031 -21.75 7.835938 -21.460938 7.390625 -21.203125 C 6.941406 -20.941406 6.441406 -20.8125 5.890625 -20.8125 C 5.421875 -20.8125 5.019531 -20.9375 4.6875 -21.1875 C 4.363281 -21.4375 4.097656 -21.722656 3.890625 -22.046875 Z M 2.6875 -24.21875 "/></g></g></g><g fill="#ffffff" fill-opacity="1"><g transform="translate(379.201536, 117.91237)"><g><path d="M 28.71875 -28.140625 L 17.5625 0 L 11.40625 0 L 0.25 -28.140625 L 5.84375 -28.140625 C 6.351562 -28.140625 6.773438 -28.019531 7.109375 -27.78125 C 7.453125 -27.539062 7.679688 -27.238281 7.796875 -26.875 L 13.21875 -11.84375 C 13.507812 -10.96875 13.765625 -10.109375 13.984375 -9.265625 C 14.203125 -8.429688 14.394531 -7.59375 14.5625 -6.75 C 14.75 -7.59375 14.953125 -8.429688 15.171875 -9.265625 C 15.390625 -10.109375 15.65625 -10.96875 15.96875 -11.84375 L 21.5 -26.875 C 21.632812 -27.238281 21.863281 -27.539062 22.1875 -27.78125 C 22.519531 -28.019531 22.914062 -28.140625 23.375 -28.140625 Z M 28.71875 -28.140625 "/></g></g></g><g fill="#ffffff" fill-opacity="1"><g transform="translate(408.164589, 117.91237)"><g><path d="M 21.484375 -17.3125 C 21.484375 -18.1875 21.359375 -19.007812 21.109375 -19.78125 C 20.859375 -20.5625 20.484375 -21.242188 19.984375 -21.828125 C 19.492188 -22.421875 18.867188 -22.882812 18.109375 -23.21875 C 17.359375 -23.5625 16.476562 -23.734375 15.46875 -23.734375 C 13.507812 -23.734375 11.96875 -23.171875 10.84375 -22.046875 C 9.71875 -20.929688 9 -19.351562 8.6875 -17.3125 Z M 8.5625 -13.21875 C 8.664062 -11.769531 8.914062 -10.519531 9.3125 -9.46875 C 9.71875 -8.425781 10.25 -7.5625 10.90625 -6.875 C 11.570312 -6.1875 12.359375 -5.671875 13.265625 -5.328125 C 14.171875 -4.992188 15.171875 -4.828125 16.265625 -4.828125 C 17.359375 -4.828125 18.300781 -4.953125 19.09375 -5.203125 C 19.894531 -5.460938 20.59375 -5.75 21.1875 -6.0625 C 21.78125 -6.375 22.300781 -6.65625 22.75 -6.90625 C 23.195312 -7.164062 23.632812 -7.296875 24.0625 -7.296875 C 24.625 -7.296875 25.039062 -7.085938 25.3125 -6.671875 L 27.265625 -4.203125 C 26.515625 -3.316406 25.671875 -2.578125 24.734375 -1.984375 C 23.804688 -1.390625 22.832031 -0.914062 21.8125 -0.5625 C 20.800781 -0.207031 19.769531 0.0390625 18.71875 0.1875 C 17.664062 0.332031 16.644531 0.40625 15.65625 0.40625 C 13.707031 0.40625 11.890625 0.0820312 10.203125 -0.5625 C 8.523438 -1.207031 7.0625 -2.164062 5.8125 -3.4375 C 4.570312 -4.707031 3.59375 -6.28125 2.875 -8.15625 C 2.164062 -10.03125 1.8125 -12.203125 1.8125 -14.671875 C 1.8125 -16.597656 2.117188 -18.40625 2.734375 -20.09375 C 3.359375 -21.78125 4.25 -23.25 5.40625 -24.5 C 6.570312 -25.757812 7.988281 -26.753906 9.65625 -27.484375 C 11.332031 -28.210938 13.222656 -28.578125 15.328125 -28.578125 C 17.109375 -28.578125 18.75 -28.289062 20.25 -27.71875 C 21.75 -27.15625 23.035156 -26.328125 24.109375 -25.234375 C 25.191406 -24.148438 26.035156 -22.816406 26.640625 -21.234375 C 27.253906 -19.660156 27.5625 -17.859375 27.5625 -15.828125 C 27.5625 -14.804688 27.453125 -14.113281 27.234375 -13.75 C 27.015625 -13.394531 26.59375 -13.21875 25.96875 -13.21875 Z M 8.5625 -13.21875 "/></g></g></g><g fill="#ffffff" fill-opacity="1"><g transform="translate(437.456771, 117.91237)"><g><path d="M 9.734375 -23.265625 C 10.609375 -24.941406 11.648438 -26.257812 12.859375 -27.21875 C 14.066406 -28.175781 15.492188 -28.65625 17.140625 -28.65625 C 18.441406 -28.65625 19.484375 -28.375 20.265625 -27.8125 L 19.828125 -22.734375 C 19.734375 -22.410156 19.597656 -22.175781 19.421875 -22.03125 C 19.253906 -21.894531 19.023438 -21.828125 18.734375 -21.828125 C 18.460938 -21.828125 18.054688 -21.875 17.515625 -21.96875 C 16.972656 -22.0625 16.445312 -22.109375 15.9375 -22.109375 C 15.1875 -22.109375 14.519531 -22 13.9375 -21.78125 C 13.351562 -21.5625 12.828125 -21.242188 12.359375 -20.828125 C 11.890625 -20.421875 11.476562 -19.921875 11.125 -19.328125 C 10.769531 -18.742188 10.4375 -18.078125 10.125 -17.328125 L 10.125 0 L 3.34375 0 L 3.34375 -28.140625 L 7.328125 -28.140625 C 8.015625 -28.140625 8.492188 -28.015625 8.765625 -27.765625 C 9.046875 -27.523438 9.234375 -27.082031 9.328125 -26.4375 Z M 9.734375 -23.265625 "/></g></g></g><g fill="#ffffff" fill-opacity="1"><g transform="translate(457.917412, 117.91237)"><g><path d="M 28.90625 -28.140625 L 13.578125 7.734375 C 13.378906 8.210938 13.117188 8.570312 12.796875 8.8125 C 12.472656 9.0625 11.984375 9.1875 11.328125 9.1875 L 6.28125 9.1875 L 11.546875 -2.109375 L 0.171875 -28.140625 L 6.109375 -28.140625 C 6.640625 -28.140625 7.054688 -28.007812 7.359375 -27.75 C 7.660156 -27.5 7.882812 -27.207031 8.03125 -26.875 L 14.015625 -12.28125 C 14.210938 -11.789062 14.378906 -11.296875 14.515625 -10.796875 C 14.660156 -10.304688 14.796875 -9.804688 14.921875 -9.296875 C 15.085938 -9.804688 15.25 -10.3125 15.40625 -10.8125 C 15.570312 -11.320312 15.757812 -11.820312 15.96875 -12.3125 L 21.609375 -26.875 C 21.753906 -27.238281 21.992188 -27.539062 22.328125 -27.78125 C 22.671875 -28.019531 23.054688 -28.140625 23.484375 -28.140625 Z M 28.90625 -28.140625 "/></g></g></g><g fill="#ffffff" fill-opacity="1"><g transform="translate(486.853047, 117.91237)"><g/></g></g><g fill="#ffffff" fill-opacity="1"><g transform="translate(500.182647, 117.91237)"><g><path d="M 25.53125 -32.453125 C 25.3125 -32.066406 25.078125 -31.785156 24.828125 -31.609375 C 24.585938 -31.441406 24.285156 -31.359375 23.921875 -31.359375 C 23.535156 -31.359375 23.117188 -31.5 22.671875 -31.78125 C 22.222656 -32.0625 21.6875 -32.375 21.0625 -32.71875 C 20.445312 -33.070312 19.722656 -33.390625 18.890625 -33.671875 C 18.054688 -33.953125 17.070312 -34.09375 15.9375 -34.09375 C 14.914062 -34.09375 14.019531 -33.96875 13.25 -33.71875 C 12.476562 -33.476562 11.832031 -33.132812 11.3125 -32.6875 C 10.789062 -32.25 10.398438 -31.722656 10.140625 -31.109375 C 9.890625 -30.503906 9.765625 -29.835938 9.765625 -29.109375 C 9.765625 -28.171875 10.023438 -27.390625 10.546875 -26.765625 C 11.066406 -26.148438 11.753906 -25.617188 12.609375 -25.171875 C 13.472656 -24.734375 14.453125 -24.34375 15.546875 -24 C 16.648438 -23.65625 17.773438 -23.285156 18.921875 -22.890625 C 20.078125 -22.492188 21.203125 -22.035156 22.296875 -21.515625 C 23.398438 -20.992188 24.378906 -20.332031 25.234375 -19.53125 C 26.097656 -18.738281 26.789062 -17.765625 27.3125 -16.609375 C 27.832031 -15.460938 28.09375 -14.066406 28.09375 -12.421875 C 28.09375 -10.628906 27.785156 -8.953125 27.171875 -7.390625 C 26.554688 -5.828125 25.660156 -4.460938 24.484375 -3.296875 C 23.304688 -2.140625 21.863281 -1.226562 20.15625 -0.5625 C 18.457031 0.101562 16.507812 0.4375 14.3125 0.4375 C 13.050781 0.4375 11.804688 0.3125 10.578125 0.0625 C 9.359375 -0.175781 8.1875 -0.523438 7.0625 -0.984375 C 5.9375 -1.441406 4.878906 -1.988281 3.890625 -2.625 C 2.898438 -3.269531 2.023438 -3.984375 1.265625 -4.765625 L 3.421875 -8.3125 C 3.609375 -8.5625 3.847656 -8.773438 4.140625 -8.953125 C 4.429688 -9.128906 4.742188 -9.21875 5.078125 -9.21875 C 5.535156 -9.21875 6.023438 -9.03125 6.546875 -8.65625 C 7.078125 -8.28125 7.707031 -7.863281 8.4375 -7.40625 C 9.175781 -6.945312 10.035156 -6.53125 11.015625 -6.15625 C 11.992188 -5.78125 13.164062 -5.59375 14.53125 -5.59375 C 16.632812 -5.59375 18.257812 -6.085938 19.40625 -7.078125 C 20.5625 -8.078125 21.140625 -9.515625 21.140625 -11.390625 C 21.140625 -12.429688 20.878906 -13.28125 20.359375 -13.9375 C 19.835938 -14.59375 19.144531 -15.144531 18.28125 -15.59375 C 17.425781 -16.039062 16.453125 -16.421875 15.359375 -16.734375 C 14.265625 -17.046875 13.148438 -17.382812 12.015625 -17.75 C 10.878906 -18.113281 9.757812 -18.550781 8.65625 -19.0625 C 7.5625 -19.570312 6.582031 -20.238281 5.71875 -21.0625 C 4.863281 -21.882812 4.175781 -22.910156 3.65625 -24.140625 C 3.132812 -25.378906 2.875 -26.90625 2.875 -28.71875 C 2.875 -30.164062 3.160156 -31.570312 3.734375 -32.9375 C 4.316406 -34.3125 5.15625 -35.53125 6.25 -36.59375 C 7.351562 -37.65625 8.707031 -38.503906 10.3125 -39.140625 C 11.925781 -39.785156 13.773438 -40.109375 15.859375 -40.109375 C 18.191406 -40.109375 20.347656 -39.738281 22.328125 -39 C 24.304688 -38.269531 25.988281 -37.25 27.375 -35.9375 Z M 25.53125 -32.453125 "/></g></g></g><g fill="#ffffff" fill-opacity="1"><g transform="translate(530.270198, 117.91237)"><g><path d="M 12.734375 0.4375 C 10.273438 0.4375 8.390625 -0.25 7.078125 -1.625 C 5.773438 -3.007812 5.125 -4.914062 5.125 -7.34375 L 5.125 -23.0625 L 2.25 -23.0625 C 1.882812 -23.0625 1.570312 -23.179688 1.3125 -23.421875 C 1.0625 -23.660156 0.9375 -24.019531 0.9375 -24.5 L 0.9375 -27.1875 L 5.453125 -27.921875 L 6.890625 -35.609375 C 6.972656 -35.972656 7.144531 -36.253906 7.40625 -36.453125 C 7.664062 -36.648438 7.992188 -36.75 8.390625 -36.75 L 11.90625 -36.75 L 11.90625 -27.890625 L 19.421875 -27.890625 L 19.421875 -23.0625 L 11.90625 -23.0625 L 11.90625 -7.8125 C 11.90625 -6.9375 12.117188 -6.25 12.546875 -5.75 C 12.972656 -5.257812 13.5625 -5.015625 14.3125 -5.015625 C 14.738281 -5.015625 15.09375 -5.066406 15.375 -5.171875 C 15.65625 -5.273438 15.898438 -5.378906 16.109375 -5.484375 C 16.328125 -5.597656 16.515625 -5.703125 16.671875 -5.796875 C 16.835938 -5.898438 17.003906 -5.953125 17.171875 -5.953125 C 17.367188 -5.953125 17.53125 -5.898438 17.65625 -5.796875 C 17.789062 -5.703125 17.929688 -5.550781 18.078125 -5.34375 L 20.109375 -2.0625 C 19.117188 -1.238281 17.984375 -0.613281 16.703125 -0.1875 C 15.421875 0.226562 14.097656 0.4375 12.734375 0.4375 Z M 12.734375 0.4375 "/></g></g></g><g fill="#ffffff" fill-opacity="1"><g transform="translate(550.67598, 117.91237)"><g><path d="M 18.21875 -12.015625 C 16.257812 -11.921875 14.613281 -11.75 13.28125 -11.5 C 11.945312 -11.257812 10.875 -10.945312 10.0625 -10.5625 C 9.257812 -10.175781 8.679688 -9.726562 8.328125 -9.21875 C 7.984375 -8.707031 7.8125 -8.148438 7.8125 -7.546875 C 7.8125 -6.359375 8.160156 -5.503906 8.859375 -4.984375 C 9.566406 -4.472656 10.488281 -4.21875 11.625 -4.21875 C 13.019531 -4.21875 14.222656 -4.46875 15.234375 -4.96875 C 16.253906 -5.476562 17.25 -6.242188 18.21875 -7.265625 Z M 2.6875 -24.21875 C 5.925781 -27.175781 9.820312 -28.65625 14.375 -28.65625 C 16.019531 -28.65625 17.488281 -28.382812 18.78125 -27.84375 C 20.082031 -27.3125 21.179688 -26.566406 22.078125 -25.609375 C 22.972656 -24.648438 23.65625 -23.5 24.125 -22.15625 C 24.59375 -20.820312 24.828125 -19.363281 24.828125 -17.78125 L 24.828125 0 L 21.75 0 C 21.113281 0 20.617188 -0.09375 20.265625 -0.28125 C 19.921875 -0.476562 19.648438 -0.867188 19.453125 -1.453125 L 18.84375 -3.484375 C 18.132812 -2.847656 17.441406 -2.285156 16.765625 -1.796875 C 16.085938 -1.304688 15.378906 -0.894531 14.640625 -0.5625 C 13.910156 -0.238281 13.128906 0.00390625 12.296875 0.171875 C 11.460938 0.347656 10.546875 0.4375 9.546875 0.4375 C 8.359375 0.4375 7.257812 0.28125 6.25 -0.03125 C 5.25 -0.351562 4.378906 -0.832031 3.640625 -1.46875 C 2.910156 -2.113281 2.34375 -2.910156 1.9375 -3.859375 C 1.539062 -4.816406 1.34375 -5.925781 1.34375 -7.1875 C 1.34375 -7.894531 1.460938 -8.601562 1.703125 -9.3125 C 1.941406 -10.019531 2.328125 -10.691406 2.859375 -11.328125 C 3.398438 -11.960938 4.097656 -12.5625 4.953125 -13.125 C 5.816406 -13.695312 6.875 -14.191406 8.125 -14.609375 C 9.382812 -15.035156 10.84375 -15.378906 12.5 -15.640625 C 14.164062 -15.910156 16.070312 -16.070312 18.21875 -16.125 L 18.21875 -17.78125 C 18.21875 -19.65625 17.8125 -21.046875 17 -21.953125 C 16.195312 -22.859375 15.035156 -23.3125 13.515625 -23.3125 C 12.421875 -23.3125 11.507812 -23.179688 10.78125 -22.921875 C 10.0625 -22.671875 9.425781 -22.382812 8.875 -22.0625 C 8.332031 -21.75 7.835938 -21.460938 7.390625 -21.203125 C 6.941406 -20.941406 6.441406 -20.8125 5.890625 -20.8125 C 5.421875 -20.8125 5.019531 -20.9375 4.6875 -21.1875 C 4.363281 -21.4375 4.097656 -21.722656 3.890625 -22.046875 Z M 2.6875 -24.21875 "/></g></g></g><g fill="#ffffff" fill-opacity="1"><g transform="translate(578.514535, 117.91237)"><g><path d="M 12.734375 0.4375 C 10.273438 0.4375 8.390625 -0.25 7.078125 -1.625 C 5.773438 -3.007812 5.125 -4.914062 5.125 -7.34375 L 5.125 -23.0625 L 2.25 -23.0625 C 1.882812 -23.0625 1.570312 -23.179688 1.3125 -23.421875 C 1.0625 -23.660156 0.9375 -24.019531 0.9375 -24.5 L 0.9375 -27.1875 L 5.453125 -27.921875 L 6.890625 -35.609375 C 6.972656 -35.972656 7.144531 -36.253906 7.40625 -36.453125 C 7.664062 -36.648438 7.992188 -36.75 8.390625 -36.75 L 11.90625 -36.75 L 11.90625 -27.890625 L 19.421875 -27.890625 L 19.421875 -23.0625 L 11.90625 -23.0625 L 11.90625 -7.8125 C 11.90625 -6.9375 12.117188 -6.25 12.546875 -5.75 C 12.972656 -5.257812 13.5625 -5.015625 14.3125 -5.015625 C 14.738281 -5.015625 15.09375 -5.066406 15.375 -5.171875 C 15.65625 -5.273438 15.898438 -5.378906 16.109375 -5.484375 C 16.328125 -5.597656 16.515625 -5.703125 16.671875 -5.796875 C 16.835938 -5.898438 17.003906 -5.953125 17.171875 -5.953125 C 17.367188 -5.953125 17.53125 -5.898438 17.65625 -5.796875 C 17.789062 -5.703125 17.929688 -5.550781 18.078125 -5.34375 L 20.109375 -2.0625 C 19.117188 -1.238281 17.984375 -0.613281 16.703125 -0.1875 C 15.421875 0.226562 14.097656 0.4375 12.734375 0.4375 Z M 12.734375 0.4375 "/></g></g></g><g fill="#ffffff" fill-opacity="1"><g transform="translate(598.920317, 117.91237)"><g><path d="M 21.484375 -17.3125 C 21.484375 -18.1875 21.359375 -19.007812 21.109375 -19.78125 C 20.859375 -20.5625 20.484375 -21.242188 19.984375 -21.828125 C 19.492188 -22.421875 18.867188 -22.882812 18.109375 -23.21875 C 17.359375 -23.5625 16.476562 -23.734375 15.46875 -23.734375 C 13.507812 -23.734375 11.96875 -23.171875 10.84375 -22.046875 C 9.71875 -20.929688 9 -19.351562 8.6875 -17.3125 Z M 8.5625 -13.21875 C 8.664062 -11.769531 8.914062 -10.519531 9.3125 -9.46875 C 9.71875 -8.425781 10.25 -7.5625 10.90625 -6.875 C 11.570312 -6.1875 12.359375 -5.671875 13.265625 -5.328125 C 14.171875 -4.992188 15.171875 -4.828125 16.265625 -4.828125 C 17.359375 -4.828125 18.300781 -4.953125 19.09375 -5.203125 C 19.894531 -5.460938 20.59375 -5.75 21.1875 -6.0625 C 21.78125 -6.375 22.300781 -6.65625 22.75 -6.90625 C 23.195312 -7.164062 23.632812 -7.296875 24.0625 -7.296875 C 24.625 -7.296875 25.039062 -7.085938 25.3125 -6.671875 L 27.265625 -4.203125 C 26.515625 -3.316406 25.671875 -2.578125 24.734375 -1.984375 C 23.804688 -1.390625 22.832031 -0.914062 21.8125 -0.5625 C 20.800781 -0.207031 19.769531 0.0390625 18.71875 0.1875 C 17.664062 0.332031 16.644531 0.40625 15.65625 0.40625 C 13.707031 0.40625 11.890625 0.0820312 10.203125 -0.5625 C 8.523438 -1.207031 7.0625 -2.164062 5.8125 -3.4375 C 4.570312 -4.707031 3.59375 -6.28125 2.875 -8.15625 C 2.164062 -10.03125 1.8125 -12.203125 1.8125 -14.671875 C 1.8125 -16.597656 2.117188 -18.40625 2.734375 -20.09375 C 3.359375 -21.78125 4.25 -23.25 5.40625 -24.5 C 6.570312 -25.757812 7.988281 -26.753906 9.65625 -27.484375 C 11.332031 -28.210938 13.222656 -28.578125 15.328125 -28.578125 C 17.109375 -28.578125 18.75 -28.289062 20.25 -27.71875 C 21.75 -27.15625 23.035156 -26.328125 24.109375 -25.234375 C 25.191406 -24.148438 26.035156 -22.816406 26.640625 -21.234375 C 27.253906 -19.660156 27.5625 -17.859375 27.5625 -15.828125 C 27.5625 -14.804688 27.453125 -14.113281 27.234375 -13.75 C 27.015625 -13.394531 26.59375 -13.21875 25.96875 -13.21875 Z M 8.5625 -13.21875 "/></g></g></g><g fill="#ffffff" fill-opacity="1"><g transform="translate(628.212499, 117.91237)"><g><path d="M 3.34375 0 L 3.34375 -28.140625 L 7.484375 -28.140625 C 8.367188 -28.140625 8.945312 -27.726562 9.21875 -26.90625 L 9.65625 -24.828125 C 10.144531 -25.367188 10.660156 -25.867188 11.203125 -26.328125 C 11.742188 -26.785156 12.320312 -27.175781 12.9375 -27.5 C 13.550781 -27.832031 14.207031 -28.09375 14.90625 -28.28125 C 15.613281 -28.476562 16.382812 -28.578125 17.21875 -28.578125 C 19 -28.578125 20.457031 -28.097656 21.59375 -27.140625 C 22.738281 -26.179688 23.597656 -24.90625 24.171875 -23.3125 C 24.609375 -24.25 25.15625 -25.050781 25.8125 -25.71875 C 26.46875 -26.382812 27.1875 -26.925781 27.96875 -27.34375 C 28.757812 -27.769531 29.597656 -28.082031 30.484375 -28.28125 C 31.367188 -28.476562 32.257812 -28.578125 33.15625 -28.578125 C 34.71875 -28.578125 36.097656 -28.335938 37.296875 -27.859375 C 38.503906 -27.390625 39.519531 -26.695312 40.34375 -25.78125 C 41.164062 -24.863281 41.789062 -23.75 42.21875 -22.4375 C 42.65625 -21.125 42.875 -19.613281 42.875 -17.90625 L 42.875 0 L 36.09375 0 L 36.09375 -17.90625 C 36.09375 -19.695312 35.695312 -21.046875 34.90625 -21.953125 C 34.125 -22.859375 32.976562 -23.3125 31.46875 -23.3125 C 30.769531 -23.3125 30.125 -23.191406 29.53125 -22.953125 C 28.9375 -22.722656 28.414062 -22.382812 27.96875 -21.9375 C 27.519531 -21.488281 27.164062 -20.925781 26.90625 -20.25 C 26.65625 -19.570312 26.53125 -18.789062 26.53125 -17.90625 L 26.53125 0 L 19.71875 0 L 19.71875 -17.90625 C 19.71875 -19.789062 19.335938 -21.160156 18.578125 -22.015625 C 17.816406 -22.878906 16.707031 -23.3125 15.25 -23.3125 C 14.257812 -23.3125 13.335938 -23.066406 12.484375 -22.578125 C 11.640625 -22.097656 10.851562 -21.4375 10.125 -20.59375 L 10.125 0 Z M 3.34375 0 "/></g></g></g><g fill="#ffffff" fill-opacity="1"><g transform="translate(674.15296, 117.91237)"><g><path d="M 21.484375 -17.3125 C 21.484375 -18.1875 21.359375 -19.007812 21.109375 -19.78125 C 20.859375 -20.5625 20.484375 -21.242188 19.984375 -21.828125 C 19.492188 -22.421875 18.867188 -22.882812 18.109375 -23.21875 C 17.359375 -23.5625 16.476562 -23.734375 15.46875 -23.734375 C 13.507812 -23.734375 11.96875 -23.171875 10.84375 -22.046875 C 9.71875 -20.929688 9 -19.351562 8.6875 -17.3125 Z M 8.5625 -13.21875 C 8.664062 -11.769531 8.914062 -10.519531 9.3125 -9.46875 C 9.71875 -8.425781 10.25 -7.5625 10.90625 -6.875 C 11.570312 -6.1875 12.359375 -5.671875 13.265625 -5.328125 C 14.171875 -4.992188 15.171875 -4.828125 16.265625 -4.828125 C 17.359375 -4.828125 18.300781 -4.953125 19.09375 -5.203125 C 19.894531 -5.460938 20.59375 -5.75 21.1875 -6.0625 C 21.78125 -6.375 22.300781 -6.65625 22.75 -6.90625 C 23.195312 -7.164062 23.632812 -7.296875 24.0625 -7.296875 C 24.625 -7.296875 25.039062 -7.085938 25.3125 -6.671875 L 27.265625 -4.203125 C 26.515625 -3.316406 25.671875 -2.578125 24.734375 -1.984375 C 23.804688 -1.390625 22.832031 -0.914062 21.8125 -0.5625 C 20.800781 -0.207031 19.769531 0.0390625 18.71875 0.1875 C 17.664062 0.332031 16.644531 0.40625 15.65625 0.40625 C 13.707031 0.40625 11.890625 0.0820312 10.203125 -0.5625 C 8.523438 -1.207031 7.0625 -2.164062 5.8125 -3.4375 C 4.570312 -4.707031 3.59375 -6.28125 2.875 -8.15625 C 2.164062 -10.03125 1.8125 -12.203125 1.8125 -14.671875 C 1.8125 -16.597656 2.117188 -18.40625 2.734375 -20.09375 C 3.359375 -21.78125 4.25 -23.25 5.40625 -24.5 C 6.570312 -25.757812 7.988281 -26.753906 9.65625 -27.484375 C 11.332031 -28.210938 13.222656 -28.578125 15.328125 -28.578125 C 17.109375 -28.578125 18.75 -28.289062 20.25 -27.71875 C 21.75 -27.15625 23.035156 -26.328125 24.109375 -25.234375 C 25.191406 -24.148438 26.035156 -22.816406 26.640625 -21.234375 C 27.253906 -19.660156 27.5625 -17.859375 27.5625 -15.828125 C 27.5625 -14.804688 27.453125 -14.113281 27.234375 -13.75 C 27.015625 -13.394531 26.59375 -13.21875 25.96875 -13.21875 Z M 8.5625 -13.21875 "/></g></g></g><g fill="#ffffff" fill-opacity="1"><g transform="translate(703.445142, 117.91237)"><g><path d="M 9.6875 -24.6875 C 10.25 -25.25 10.84375 -25.769531 11.46875 -26.25 C 12.101562 -26.738281 12.769531 -27.148438 13.46875 -27.484375 C 14.175781 -27.828125 14.929688 -28.09375 15.734375 -28.28125 C 16.546875 -28.476562 17.425781 -28.578125 18.375 -28.578125 C 19.914062 -28.578125 21.28125 -28.316406 22.46875 -27.796875 C 23.65625 -27.273438 24.644531 -26.539062 25.4375 -25.59375 C 26.238281 -24.65625 26.84375 -23.53125 27.25 -22.21875 C 27.664062 -20.914062 27.875 -19.476562 27.875 -17.90625 L 27.875 0 L 21.09375 0 L 21.09375 -17.90625 C 21.09375 -19.625 20.695312 -20.953125 19.90625 -21.890625 C 19.125 -22.835938 17.929688 -23.3125 16.328125 -23.3125 C 15.148438 -23.3125 14.050781 -23.046875 13.03125 -22.515625 C 12.007812 -21.984375 11.039062 -21.265625 10.125 -20.359375 L 10.125 0 L 3.34375 0 L 3.34375 -28.140625 L 7.484375 -28.140625 C 8.367188 -28.140625 8.945312 -27.726562 9.21875 -26.90625 Z M 9.6875 -24.6875 "/></g></g></g><g fill="#ffffff" fill-opacity="1"><g transform="translate(734.382944, 117.91237)"><g><path d="M 12.734375 0.4375 C 10.273438 0.4375 8.390625 -0.25 7.078125 -1.625 C 5.773438 -3.007812 5.125 -4.914062 5.125 -7.34375 L 5.125 -23.0625 L 2.25 -23.0625 C 1.882812 -23.0625 1.570312 -23.179688 1.3125 -23.421875 C 1.0625 -23.660156 0.9375 -24.019531 0.9375 -24.5 L 0.9375 -27.1875 L 5.453125 -27.921875 L 6.890625 -35.609375 C 6.972656 -35.972656 7.144531 -36.253906 7.40625 -36.453125 C 7.664062 -36.648438 7.992188 -36.75 8.390625 -36.75 L 11.90625 -36.75 L 11.90625 -27.890625 L 19.421875 -27.890625 L 19.421875 -23.0625 L 11.90625 -23.0625 L 11.90625 -7.8125 C 11.90625 -6.9375 12.117188 -6.25 12.546875 -5.75 C 12.972656 -5.257812 13.5625 -5.015625 14.3125 -5.015625 C 14.738281 -5.015625 15.09375 -5.066406 15.375 -5.171875 C 15.65625 -5.273438 15.898438 -5.378906 16.109375 -5.484375 C 16.328125 -5.597656 16.515625 -5.703125 16.671875 -5.796875 C 16.835938 -5.898438 17.003906 -5.953125 17.171875 -5.953125 C 17.367188 -5.953125 17.53125 -5.898438 17.65625 -5.796875 C 17.789062 -5.703125 17.929688 -5.550781 18.078125 -5.34375 L 20.109375 -2.0625 C 19.117188 -1.238281 17.984375 -0.613281 16.703125 -0.1875 C 15.421875 0.226562 14.097656 0.4375 12.734375 0.4375 Z M 12.734375 0.4375 "/></g></g></g></svg>