<svg xmlns="http://www.w3.org/2000/svg" xmlns:xlink="http://www.w3.org/1999/xlink" width="1960" zoomAndPan="magnify" viewBox="0 0 1470 193.499995" height="258" preserveAspectRatio="xMidYMid meet" version="1.0"><defs><g/><clipPath id="4b00195476"><path d="M 1.894531 0 L 1468.105469 0 L 1468.105469 192.894531 L 1.894531 192.894531 Z M 1.894531 0 " clip-rule="nonzero"/></clipPath><clipPath id="938f1c0e1f"><path d="M 99.144531 145.882812 L 288.988281 145.882812 L 288.988281 149.625 L 99.144531 149.625 Z M 99.144531 145.882812 " clip-rule="nonzero"/></clipPath></defs><g clip-path="url(#4b00195476)"><path fill="#287ead" d="M 1.894531 0 L 1468.1875 0 L 1468.1875 192.894531 L 1.894531 192.894531 Z M 1.894531 0 " fill-opacity="1" fill-rule="nonzero"/></g><g fill="#ffffff" fill-opacity="1"><g transform="translate(99.143055, 117.392628)"><g><path d="M 31.65625 -9.359375 C 32.050781 -9.359375 32.40625 -9.203125 32.71875 -8.890625 L 35.625 -5.734375 C 34.019531 -3.742188 32.039062 -2.21875 29.6875 -1.15625 C 27.34375 -0.09375 24.523438 0.4375 21.234375 0.4375 C 18.285156 0.4375 15.632812 -0.0625 13.28125 -1.0625 C 10.9375 -2.070312 8.929688 -3.472656 7.265625 -5.265625 C 5.597656 -7.054688 4.320312 -9.195312 3.4375 -11.6875 C 2.550781 -14.175781 2.109375 -16.890625 2.109375 -19.828125 C 2.109375 -22.804688 2.582031 -25.535156 3.53125 -28.015625 C 4.488281 -30.492188 5.832031 -32.628906 7.5625 -34.421875 C 9.289062 -36.210938 11.347656 -37.609375 13.734375 -38.609375 C 16.128906 -39.609375 18.785156 -40.109375 21.703125 -40.109375 C 24.585938 -40.109375 27.148438 -39.628906 29.390625 -38.671875 C 31.628906 -37.722656 33.535156 -36.476562 35.109375 -34.9375 L 32.640625 -31.515625 C 32.492188 -31.296875 32.304688 -31.101562 32.078125 -30.9375 C 31.847656 -30.769531 31.53125 -30.6875 31.125 -30.6875 C 30.851562 -30.6875 30.570312 -30.765625 30.28125 -30.921875 C 29.988281 -31.078125 29.664062 -31.269531 29.3125 -31.5 C 28.96875 -31.726562 28.566406 -31.976562 28.109375 -32.25 C 27.648438 -32.53125 27.117188 -32.785156 26.515625 -33.015625 C 25.921875 -33.242188 25.222656 -33.4375 24.421875 -33.59375 C 23.628906 -33.75 22.710938 -33.828125 21.671875 -33.828125 C 19.898438 -33.828125 18.273438 -33.507812 16.796875 -32.875 C 15.328125 -32.238281 14.0625 -31.320312 13 -30.125 C 11.9375 -28.925781 11.113281 -27.460938 10.53125 -25.734375 C 9.945312 -24.015625 9.65625 -22.046875 9.65625 -19.828125 C 9.65625 -17.597656 9.96875 -15.613281 10.59375 -13.875 C 11.226562 -12.144531 12.082031 -10.679688 13.15625 -9.484375 C 14.238281 -8.296875 15.507812 -7.382812 16.96875 -6.75 C 18.4375 -6.125 20.015625 -5.8125 21.703125 -5.8125 C 22.703125 -5.8125 23.609375 -5.863281 24.421875 -5.96875 C 25.234375 -6.082031 25.984375 -6.257812 26.671875 -6.5 C 27.359375 -6.738281 28.007812 -7.046875 28.625 -7.421875 C 29.238281 -7.796875 29.847656 -8.257812 30.453125 -8.8125 C 30.628906 -8.96875 30.816406 -9.097656 31.015625 -9.203125 C 31.222656 -9.304688 31.4375 -9.359375 31.65625 -9.359375 Z M 31.65625 -9.359375 "/></g></g></g><g fill="#ffffff" fill-opacity="1"><g transform="translate(135.429153, 117.392628)"><g><path d="M 15.796875 -28.578125 C 17.878906 -28.578125 19.773438 -28.238281 21.484375 -27.5625 C 23.203125 -26.882812 24.664062 -25.925781 25.875 -24.6875 C 27.09375 -23.445312 28.03125 -21.925781 28.6875 -20.125 C 29.34375 -18.332031 29.671875 -16.332031 29.671875 -14.125 C 29.671875 -11.894531 29.34375 -9.882812 28.6875 -8.09375 C 28.03125 -6.300781 27.09375 -4.773438 25.875 -3.515625 C 24.664062 -2.253906 23.203125 -1.285156 21.484375 -0.609375 C 19.773438 0.0664062 17.878906 0.40625 15.796875 0.40625 C 13.691406 0.40625 11.78125 0.0664062 10.0625 -0.609375 C 8.34375 -1.285156 6.875 -2.253906 5.65625 -3.515625 C 4.445312 -4.773438 3.507812 -6.300781 2.84375 -8.09375 C 2.175781 -9.882812 1.84375 -11.894531 1.84375 -14.125 C 1.84375 -16.332031 2.175781 -18.332031 2.84375 -20.125 C 3.507812 -21.925781 4.445312 -23.445312 5.65625 -24.6875 C 6.875 -25.925781 8.34375 -26.882812 10.0625 -27.5625 C 11.78125 -28.238281 13.691406 -28.578125 15.796875 -28.578125 Z M 15.796875 -4.796875 C 18.140625 -4.796875 19.875 -5.582031 21 -7.15625 C 22.125 -8.726562 22.6875 -11.035156 22.6875 -14.078125 C 22.6875 -17.109375 22.125 -19.414062 21 -21 C 19.875 -22.59375 18.140625 -23.390625 15.796875 -23.390625 C 13.421875 -23.390625 11.660156 -22.585938 10.515625 -20.984375 C 9.378906 -19.390625 8.8125 -17.085938 8.8125 -14.078125 C 8.8125 -11.054688 9.378906 -8.753906 10.515625 -7.171875 C 11.660156 -5.585938 13.421875 -4.796875 15.796875 -4.796875 Z M 15.796875 -4.796875 "/></g></g></g><g fill="#ffffff" fill-opacity="1"><g transform="translate(166.942935, 117.392628)"><g><path d="M 27.59375 -28.140625 L 27.59375 0 L 23.453125 0 C 22.554688 0 21.988281 -0.410156 21.75 -1.234375 L 21.28125 -3.484375 C 20.132812 -2.316406 18.863281 -1.367188 17.46875 -0.640625 C 16.082031 0.078125 14.445312 0.4375 12.5625 0.4375 C 11.03125 0.4375 9.671875 0.175781 8.484375 -0.34375 C 7.304688 -0.863281 6.316406 -1.597656 5.515625 -2.546875 C 4.710938 -3.503906 4.101562 -4.632812 3.6875 -5.9375 C 3.28125 -7.25 3.078125 -8.691406 3.078125 -10.265625 L 3.078125 -28.140625 L 9.84375 -28.140625 L 9.84375 -10.265625 C 9.84375 -8.546875 10.238281 -7.210938 11.03125 -6.265625 C 11.832031 -5.328125 13.03125 -4.859375 14.625 -4.859375 C 15.789062 -4.859375 16.882812 -5.117188 17.90625 -5.640625 C 18.9375 -6.160156 19.90625 -6.878906 20.8125 -7.796875 L 20.8125 -28.140625 Z M 27.59375 -28.140625 "/></g></g></g><g fill="#ffffff" fill-opacity="1"><g transform="translate(197.880748, 117.392628)"><g><path d="M 9.6875 -24.6875 C 10.25 -25.25 10.84375 -25.769531 11.46875 -26.25 C 12.101562 -26.738281 12.769531 -27.148438 13.46875 -27.484375 C 14.175781 -27.828125 14.929688 -28.09375 15.734375 -28.28125 C 16.546875 -28.476562 17.425781 -28.578125 18.375 -28.578125 C 19.914062 -28.578125 21.28125 -28.316406 22.46875 -27.796875 C 23.65625 -27.273438 24.644531 -26.539062 25.4375 -25.59375 C 26.238281 -24.65625 26.84375 -23.53125 27.25 -22.21875 C 27.664062 -20.914062 27.875 -19.476562 27.875 -17.90625 L 27.875 0 L 21.09375 0 L 21.09375 -17.90625 C 21.09375 -19.625 20.695312 -20.953125 19.90625 -21.890625 C 19.125 -22.835938 17.929688 -23.3125 16.328125 -23.3125 C 15.148438 -23.3125 14.050781 -23.046875 13.03125 -22.515625 C 12.007812 -21.984375 11.039062 -21.265625 10.125 -20.359375 L 10.125 0 L 3.34375 0 L 3.34375 -28.140625 L 7.484375 -28.140625 C 8.367188 -28.140625 8.945312 -27.726562 9.21875 -26.90625 Z M 9.6875 -24.6875 "/></g></g></g><g fill="#ffffff" fill-opacity="1"><g transform="translate(228.81856, 117.392628)"><g><path d="M 23.5 -22.1875 C 23.300781 -21.9375 23.101562 -21.738281 22.90625 -21.59375 C 22.71875 -21.445312 22.441406 -21.375 22.078125 -21.375 C 21.734375 -21.375 21.394531 -21.476562 21.0625 -21.6875 C 20.738281 -21.894531 20.347656 -22.128906 19.890625 -22.390625 C 19.429688 -22.660156 18.882812 -22.898438 18.25 -23.109375 C 17.625 -23.316406 16.84375 -23.421875 15.90625 -23.421875 C 14.71875 -23.421875 13.675781 -23.207031 12.78125 -22.78125 C 11.882812 -22.351562 11.140625 -21.734375 10.546875 -20.921875 C 9.953125 -20.117188 9.507812 -19.144531 9.21875 -18 C 8.925781 -16.863281 8.78125 -15.570312 8.78125 -14.125 C 8.78125 -12.625 8.9375 -11.285156 9.25 -10.109375 C 9.570312 -8.941406 10.035156 -7.960938 10.640625 -7.171875 C 11.242188 -6.378906 11.972656 -5.773438 12.828125 -5.359375 C 13.691406 -4.953125 14.664062 -4.75 15.75 -4.75 C 16.820312 -4.75 17.691406 -4.878906 18.359375 -5.140625 C 19.023438 -5.410156 19.585938 -5.703125 20.046875 -6.015625 C 20.503906 -6.335938 20.898438 -6.628906 21.234375 -6.890625 C 21.578125 -7.160156 21.957031 -7.296875 22.375 -7.296875 C 22.925781 -7.296875 23.335938 -7.085938 23.609375 -6.671875 L 25.5625 -4.203125 C 24.8125 -3.316406 24 -2.578125 23.125 -1.984375 C 22.25 -1.390625 21.335938 -0.914062 20.390625 -0.5625 C 19.453125 -0.207031 18.484375 0.0390625 17.484375 0.1875 C 16.484375 0.332031 15.492188 0.40625 14.515625 0.40625 C 12.773438 0.40625 11.132812 0.0820312 9.59375 -0.5625 C 8.0625 -1.207031 6.71875 -2.148438 5.5625 -3.390625 C 4.414062 -4.640625 3.507812 -6.164062 2.84375 -7.96875 C 2.175781 -9.769531 1.84375 -11.820312 1.84375 -14.125 C 1.84375 -16.1875 2.140625 -18.097656 2.734375 -19.859375 C 3.328125 -21.628906 4.195312 -23.160156 5.34375 -24.453125 C 6.5 -25.742188 7.925781 -26.753906 9.625 -27.484375 C 11.320312 -28.210938 13.28125 -28.578125 15.5 -28.578125 C 17.601562 -28.578125 19.441406 -28.238281 21.015625 -27.5625 C 22.597656 -26.882812 24.023438 -25.914062 25.296875 -24.65625 Z M 23.5 -22.1875 "/></g></g></g><g fill="#ffffff" fill-opacity="1"><g transform="translate(255.258314, 117.392628)"><g><path d="M 10.375 -28.140625 L 10.375 0 L 3.5625 0 L 3.5625 -28.140625 Z M 11.296875 -36.34375 C 11.296875 -35.757812 11.175781 -35.210938 10.9375 -34.703125 C 10.707031 -34.191406 10.394531 -33.742188 10 -33.359375 C 9.601562 -32.972656 9.140625 -32.664062 8.609375 -32.4375 C 8.078125 -32.207031 7.507812 -32.09375 6.90625 -32.09375 C 6.320312 -32.09375 5.769531 -32.207031 5.25 -32.4375 C 4.726562 -32.664062 4.273438 -32.972656 3.890625 -33.359375 C 3.503906 -33.742188 3.195312 -34.191406 2.96875 -34.703125 C 2.75 -35.210938 2.640625 -35.757812 2.640625 -36.34375 C 2.640625 -36.945312 2.75 -37.515625 2.96875 -38.046875 C 3.195312 -38.578125 3.503906 -39.035156 3.890625 -39.421875 C 4.273438 -39.804688 4.726562 -40.109375 5.25 -40.328125 C 5.769531 -40.554688 6.320312 -40.671875 6.90625 -40.671875 C 7.507812 -40.671875 8.078125 -40.554688 8.609375 -40.328125 C 9.140625 -40.109375 9.601562 -39.804688 10 -39.421875 C 10.394531 -39.035156 10.707031 -38.578125 10.9375 -38.046875 C 11.175781 -37.515625 11.296875 -36.945312 11.296875 -36.34375 Z M 11.296875 -36.34375 "/></g></g></g><g fill="#ffffff" fill-opacity="1"><g transform="translate(269.191301, 117.392628)"><g><path d="M 10.203125 -40.765625 L 10.203125 0 L 3.421875 0 L 3.421875 -40.765625 Z M 10.203125 -40.765625 "/></g></g></g><g fill="#ffffff" fill-opacity="1"><g transform="translate(282.822588, 117.392628)"><g><path d="M 20.515625 -22.65625 C 20.335938 -22.363281 20.144531 -22.15625 19.9375 -22.03125 C 19.738281 -21.914062 19.484375 -21.859375 19.171875 -21.859375 C 18.835938 -21.859375 18.484375 -21.945312 18.109375 -22.125 C 17.742188 -22.3125 17.3125 -22.519531 16.8125 -22.75 C 16.320312 -22.976562 15.757812 -23.179688 15.125 -23.359375 C 14.5 -23.546875 13.753906 -23.640625 12.890625 -23.640625 C 11.554688 -23.640625 10.507812 -23.351562 9.75 -22.78125 C 8.988281 -22.21875 8.609375 -21.484375 8.609375 -20.578125 C 8.609375 -19.972656 8.804688 -19.460938 9.203125 -19.046875 C 9.597656 -18.640625 10.117188 -18.28125 10.765625 -17.96875 C 11.410156 -17.65625 12.144531 -17.375 12.96875 -17.125 C 13.789062 -16.882812 14.628906 -16.613281 15.484375 -16.3125 C 16.335938 -16.019531 17.175781 -15.6875 18 -15.3125 C 18.820312 -14.9375 19.554688 -14.460938 20.203125 -13.890625 C 20.847656 -13.316406 21.367188 -12.625 21.765625 -11.8125 C 22.160156 -11.007812 22.359375 -10.046875 22.359375 -8.921875 C 22.359375 -7.566406 22.113281 -6.316406 21.625 -5.171875 C 21.144531 -4.023438 20.425781 -3.035156 19.46875 -2.203125 C 18.519531 -1.367188 17.347656 -0.71875 15.953125 -0.25 C 14.554688 0.207031 12.941406 0.4375 11.109375 0.4375 C 10.140625 0.4375 9.191406 0.347656 8.265625 0.171875 C 7.347656 0.00390625 6.460938 -0.234375 5.609375 -0.546875 C 4.753906 -0.859375 3.96875 -1.222656 3.25 -1.640625 C 2.53125 -2.066406 1.894531 -2.523438 1.34375 -3.015625 L 2.90625 -5.59375 C 3.101562 -5.90625 3.335938 -6.144531 3.609375 -6.3125 C 3.890625 -6.476562 4.238281 -6.5625 4.65625 -6.5625 C 5.082031 -6.5625 5.484375 -6.441406 5.859375 -6.203125 C 6.234375 -5.960938 6.664062 -5.703125 7.15625 -5.421875 C 7.65625 -5.148438 8.238281 -4.894531 8.90625 -4.65625 C 9.570312 -4.425781 10.414062 -4.3125 11.4375 -4.3125 C 12.238281 -4.3125 12.925781 -4.40625 13.5 -4.59375 C 14.082031 -4.78125 14.5625 -5.03125 14.9375 -5.34375 C 15.3125 -5.65625 15.582031 -6.015625 15.75 -6.421875 C 15.925781 -6.835938 16.015625 -7.265625 16.015625 -7.703125 C 16.015625 -8.359375 15.816406 -8.894531 15.421875 -9.3125 C 15.035156 -9.738281 14.515625 -10.109375 13.859375 -10.421875 C 13.210938 -10.734375 12.472656 -11.007812 11.640625 -11.25 C 10.804688 -11.5 9.957031 -11.769531 9.09375 -12.0625 C 8.226562 -12.363281 7.378906 -12.707031 6.546875 -13.09375 C 5.710938 -13.488281 4.96875 -13.988281 4.3125 -14.59375 C 3.664062 -15.195312 3.144531 -15.9375 2.75 -16.8125 C 2.363281 -17.6875 2.171875 -18.75 2.171875 -20 C 2.171875 -21.144531 2.394531 -22.238281 2.84375 -23.28125 C 3.300781 -24.320312 3.972656 -25.234375 4.859375 -26.015625 C 5.753906 -26.796875 6.863281 -27.414062 8.1875 -27.875 C 9.507812 -28.34375 11.039062 -28.578125 12.78125 -28.578125 C 14.71875 -28.578125 16.484375 -28.253906 18.078125 -27.609375 C 19.671875 -26.972656 20.992188 -26.132812 22.046875 -25.09375 Z M 20.515625 -22.65625 "/></g></g></g><g clip-path="url(#938f1c0e1f)"><path fill="#ffffff" d="M 99.144531 145.882812 L 288.996094 145.882812 L 288.996094 149.625 L 99.144531 149.625 Z M 99.144531 145.882812 " fill-opacity="1" fill-rule="nonzero"/></g></svg>