<svg xmlns="http://www.w3.org/2000/svg" xmlns:xlink="http://www.w3.org/1999/xlink" width="1960" zoomAndPan="magnify" viewBox="0 0 1470 203.999996" height="272" preserveAspectRatio="xMidYMid meet" version="1.0"><defs><g/><clipPath id="35fdf5a5f8"><path d="M 0 0 L 1470 0 L 1470 203.890625 L 0 203.890625 Z M 0 0 " clip-rule="nonzero"/></clipPath><clipPath id="267c5de401"><path d="M 97.5 156.761719 L 287.835938 156.761719 L 287.835938 160.511719 L 97.5 160.511719 Z M 97.5 156.761719 " clip-rule="nonzero"/></clipPath></defs><rect x="-147" width="1764" fill="#ffffff" y="-20.4" height="244.799995" fill-opacity="1"/><g clip-path="url(#35fdf5a5f8)"><path fill="#287ead" d="M 0 0 L 1470.253906 0 L 1470.253906 203.890625 L 0 203.890625 Z M 0 0 " fill-opacity="1" fill-rule="nonzero"/></g><g clip-path="url(#267c5de401)"><path fill="#ffffff" d="M 97.5 156.761719 L 287.839844 156.761719 L 287.839844 160.511719 L 97.5 160.511719 Z M 97.5 156.761719 " fill-opacity="1" fill-rule="nonzero"/></g><g fill="#ffffff" fill-opacity="1"><g transform="translate(97.50001, 128.717058)"><g><path d="M 17.359375 -19.765625 C 18.710938 -19.765625 19.890625 -19.9375 20.890625 -20.28125 C 21.898438 -20.625 22.738281 -21.109375 23.40625 -21.734375 C 24.082031 -22.367188 24.582031 -23.140625 24.90625 -24.046875 C 25.238281 -24.953125 25.40625 -25.96875 25.40625 -27.09375 C 25.40625 -28.15625 25.238281 -29.113281 24.90625 -29.96875 C 24.582031 -30.832031 24.085938 -31.566406 23.421875 -32.171875 C 22.765625 -32.773438 21.929688 -33.238281 20.921875 -33.5625 C 19.921875 -33.882812 18.734375 -34.046875 17.359375 -34.046875 L 11.828125 -34.046875 L 11.828125 -19.765625 Z M 17.359375 -39.765625 C 20.015625 -39.765625 22.3125 -39.453125 24.25 -38.828125 C 26.195312 -38.203125 27.800781 -37.332031 29.0625 -36.21875 C 30.332031 -35.101562 31.273438 -33.765625 31.890625 -32.203125 C 32.503906 -30.640625 32.8125 -28.9375 32.8125 -27.09375 C 32.8125 -25.164062 32.488281 -23.398438 31.84375 -21.796875 C 31.195312 -20.191406 30.234375 -18.8125 28.953125 -17.65625 C 27.671875 -16.5 26.0625 -15.597656 24.125 -14.953125 C 22.195312 -14.316406 19.941406 -14 17.359375 -14 L 11.828125 -14 L 11.828125 0 L 4.421875 0 L 4.421875 -39.765625 Z M 17.359375 -39.765625 "/></g></g></g><g fill="#ffffff" fill-opacity="1"><g transform="translate(131.542541, 128.717058)"><g><path d="M 9.765625 -23.3125 C 10.640625 -25 11.679688 -26.320312 12.890625 -27.28125 C 14.109375 -28.25 15.539062 -28.734375 17.1875 -28.734375 C 18.488281 -28.734375 19.535156 -28.453125 20.328125 -27.890625 L 19.875 -22.796875 C 19.789062 -22.460938 19.660156 -22.226562 19.484375 -22.09375 C 19.304688 -21.957031 19.070312 -21.890625 18.78125 -21.890625 C 18.507812 -21.890625 18.101562 -21.9375 17.5625 -22.03125 C 17.019531 -22.125 16.492188 -22.171875 15.984375 -22.171875 C 15.222656 -22.171875 14.550781 -22.054688 13.96875 -21.828125 C 13.382812 -21.609375 12.859375 -21.289062 12.390625 -20.875 C 11.921875 -20.46875 11.503906 -19.96875 11.140625 -19.375 C 10.785156 -18.789062 10.453125 -18.125 10.140625 -17.375 L 10.140625 0 L 3.359375 0 L 3.359375 -28.21875 L 7.34375 -28.21875 C 8.039062 -28.21875 8.523438 -28.09375 8.796875 -27.84375 C 9.078125 -27.59375 9.257812 -27.148438 9.34375 -26.515625 Z M 9.765625 -23.3125 "/></g></g></g><g fill="#ffffff" fill-opacity="1"><g transform="translate(152.056052, 128.717058)"><g><path d="M 15.84375 -28.65625 C 17.925781 -28.65625 19.828125 -28.316406 21.546875 -27.640625 C 23.265625 -26.960938 24.734375 -26 25.953125 -24.75 C 27.171875 -23.5 28.109375 -21.972656 28.765625 -20.171875 C 29.421875 -18.378906 29.75 -16.375 29.75 -14.15625 C 29.75 -11.925781 29.421875 -9.910156 28.765625 -8.109375 C 28.109375 -6.316406 27.171875 -4.785156 25.953125 -3.515625 C 24.734375 -2.253906 23.265625 -1.285156 21.546875 -0.609375 C 19.828125 0.0664062 17.925781 0.40625 15.84375 0.40625 C 13.726562 0.40625 11.804688 0.0664062 10.078125 -0.609375 C 8.359375 -1.285156 6.890625 -2.253906 5.671875 -3.515625 C 4.453125 -4.785156 3.507812 -6.316406 2.84375 -8.109375 C 2.175781 -9.910156 1.84375 -11.925781 1.84375 -14.15625 C 1.84375 -16.375 2.175781 -18.378906 2.84375 -20.171875 C 3.507812 -21.972656 4.453125 -23.5 5.671875 -24.75 C 6.890625 -26 8.359375 -26.960938 10.078125 -27.640625 C 11.804688 -28.316406 13.726562 -28.65625 15.84375 -28.65625 Z M 15.84375 -4.8125 C 18.1875 -4.8125 19.921875 -5.597656 21.046875 -7.171875 C 22.179688 -8.753906 22.75 -11.066406 22.75 -14.109375 C 22.75 -17.148438 22.179688 -19.46875 21.046875 -21.0625 C 19.921875 -22.65625 18.1875 -23.453125 15.84375 -23.453125 C 13.457031 -23.453125 11.691406 -22.648438 10.546875 -21.046875 C 9.398438 -19.441406 8.828125 -17.128906 8.828125 -14.109375 C 8.828125 -11.078125 9.398438 -8.769531 10.546875 -7.1875 C 11.691406 -5.601562 13.457031 -4.8125 15.84375 -4.8125 Z M 15.84375 -4.8125 "/></g></g></g><g fill="#ffffff" fill-opacity="1"><g transform="translate(183.651264, 128.717058)"><g><path d="M 3.359375 0 L 3.359375 -28.21875 L 7.5 -28.21875 C 8.382812 -28.21875 8.960938 -27.804688 9.234375 -26.984375 L 9.6875 -24.890625 C 10.175781 -25.441406 10.691406 -25.945312 11.234375 -26.40625 C 11.773438 -26.863281 12.351562 -27.253906 12.96875 -27.578125 C 13.582031 -27.910156 14.238281 -28.171875 14.9375 -28.359375 C 15.644531 -28.554688 16.421875 -28.65625 17.265625 -28.65625 C 19.046875 -28.65625 20.507812 -28.171875 21.65625 -27.203125 C 22.800781 -26.242188 23.660156 -24.96875 24.234375 -23.375 C 24.671875 -24.3125 25.21875 -25.113281 25.875 -25.78125 C 26.539062 -26.445312 27.265625 -26.988281 28.046875 -27.40625 C 28.835938 -27.832031 29.675781 -28.144531 30.5625 -28.34375 C 31.457031 -28.550781 32.351562 -28.65625 33.25 -28.65625 C 34.800781 -28.65625 36.179688 -28.414062 37.390625 -27.9375 C 38.609375 -27.457031 39.628906 -26.757812 40.453125 -25.84375 C 41.273438 -24.925781 41.898438 -23.804688 42.328125 -22.484375 C 42.765625 -21.171875 42.984375 -19.660156 42.984375 -17.953125 L 42.984375 0 L 36.1875 0 L 36.1875 -17.953125 C 36.1875 -19.753906 35.789062 -21.109375 35 -22.015625 C 34.21875 -22.921875 33.066406 -23.375 31.546875 -23.375 C 30.847656 -23.375 30.195312 -23.253906 29.59375 -23.015625 C 29 -22.773438 28.476562 -22.429688 28.03125 -21.984375 C 27.582031 -21.535156 27.226562 -20.972656 26.96875 -20.296875 C 26.71875 -19.617188 26.59375 -18.835938 26.59375 -17.953125 L 26.59375 0 L 19.765625 0 L 19.765625 -17.953125 C 19.765625 -19.847656 19.382812 -21.222656 18.625 -22.078125 C 17.863281 -22.941406 16.753906 -23.375 15.296875 -23.375 C 14.304688 -23.375 13.382812 -23.128906 12.53125 -22.640625 C 11.675781 -22.160156 10.878906 -21.5 10.140625 -20.65625 L 10.140625 0 Z M 3.359375 0 "/></g></g></g><g fill="#ffffff" fill-opacity="1"><g transform="translate(229.710424, 128.717058)"><g><path d="M 10.140625 -7.3125 C 10.910156 -6.375 11.75 -5.710938 12.65625 -5.328125 C 13.570312 -4.941406 14.5625 -4.75 15.625 -4.75 C 16.644531 -4.75 17.566406 -4.941406 18.390625 -5.328125 C 19.222656 -5.710938 19.925781 -6.300781 20.5 -7.09375 C 21.082031 -7.882812 21.523438 -8.878906 21.828125 -10.078125 C 22.140625 -11.273438 22.296875 -12.691406 22.296875 -14.328125 C 22.296875 -15.972656 22.160156 -17.367188 21.890625 -18.515625 C 21.628906 -19.660156 21.25 -20.59375 20.75 -21.3125 C 20.257812 -22.03125 19.660156 -22.550781 18.953125 -22.875 C 18.253906 -23.207031 17.457031 -23.375 16.5625 -23.375 C 15.144531 -23.375 13.941406 -23.078125 12.953125 -22.484375 C 11.960938 -21.890625 11.023438 -21.050781 10.140625 -19.96875 Z M 9.796875 -24.359375 C 10.941406 -25.660156 12.25 -26.710938 13.71875 -27.515625 C 15.1875 -28.328125 16.910156 -28.734375 18.890625 -28.734375 C 20.429688 -28.734375 21.835938 -28.410156 23.109375 -27.765625 C 24.390625 -27.128906 25.488281 -26.203125 26.40625 -24.984375 C 27.332031 -23.765625 28.046875 -22.257812 28.546875 -20.46875 C 29.054688 -18.6875 29.3125 -16.640625 29.3125 -14.328125 C 29.3125 -12.222656 29.023438 -10.269531 28.453125 -8.46875 C 27.890625 -6.675781 27.082031 -5.117188 26.03125 -3.796875 C 24.976562 -2.472656 23.703125 -1.441406 22.203125 -0.703125 C 20.710938 0.0351562 19.039062 0.40625 17.1875 0.40625 C 15.613281 0.40625 14.265625 0.164062 13.140625 -0.3125 C 12.023438 -0.800781 11.023438 -1.476562 10.140625 -2.34375 L 10.140625 9.21875 L 3.359375 9.21875 L 3.359375 -28.21875 L 7.5 -28.21875 C 8.382812 -28.21875 8.960938 -27.804688 9.234375 -26.984375 Z M 9.796875 -24.359375 "/></g></g></g><g fill="#ffffff" fill-opacity="1"><g transform="translate(260.953124, 128.717058)"><g><path d="M 12.765625 0.4375 C 10.304688 0.4375 8.421875 -0.253906 7.109375 -1.640625 C 5.796875 -3.023438 5.140625 -4.9375 5.140625 -7.375 L 5.140625 -23.125 L 2.25 -23.125 C 1.882812 -23.125 1.570312 -23.242188 1.3125 -23.484375 C 1.0625 -23.722656 0.9375 -24.082031 0.9375 -24.5625 L 0.9375 -27.25 L 5.46875 -28 L 6.90625 -35.6875 C 7 -36.0625 7.171875 -36.347656 7.421875 -36.546875 C 7.679688 -36.742188 8.015625 -36.84375 8.421875 -36.84375 L 11.9375 -36.84375 L 11.9375 -27.96875 L 19.46875 -27.96875 L 19.46875 -23.125 L 11.9375 -23.125 L 11.9375 -7.84375 C 11.9375 -6.957031 12.148438 -6.265625 12.578125 -5.765625 C 13.015625 -5.273438 13.609375 -5.03125 14.359375 -5.03125 C 14.773438 -5.03125 15.125 -5.078125 15.40625 -5.171875 C 15.695312 -5.273438 15.945312 -5.382812 16.15625 -5.5 C 16.363281 -5.613281 16.550781 -5.71875 16.71875 -5.8125 C 16.882812 -5.914062 17.050781 -5.96875 17.21875 -5.96875 C 17.414062 -5.96875 17.578125 -5.914062 17.703125 -5.8125 C 17.835938 -5.71875 17.976562 -5.566406 18.125 -5.359375 L 20.15625 -2.0625 C 19.164062 -1.238281 18.03125 -0.613281 16.75 -0.1875 C 15.46875 0.226562 14.140625 0.4375 12.765625 0.4375 Z M 12.765625 0.4375 "/></g></g></g><g fill="#ffffff" fill-opacity="1"><g transform="translate(281.411646, 128.717058)"><g/></g></g><g fill="#ffffff" fill-opacity="1"><g transform="translate(294.775677, 128.717058)"><g><path d="M 17.359375 -19.765625 C 18.710938 -19.765625 19.890625 -19.9375 20.890625 -20.28125 C 21.898438 -20.625 22.738281 -21.109375 23.40625 -21.734375 C 24.082031 -22.367188 24.582031 -23.140625 24.90625 -24.046875 C 25.238281 -24.953125 25.40625 -25.96875 25.40625 -27.09375 C 25.40625 -28.15625 25.238281 -29.113281 24.90625 -29.96875 C 24.582031 -30.832031 24.085938 -31.566406 23.421875 -32.171875 C 22.765625 -32.773438 21.929688 -33.238281 20.921875 -33.5625 C 19.921875 -33.882812 18.734375 -34.046875 17.359375 -34.046875 L 11.828125 -34.046875 L 11.828125 -19.765625 Z M 17.359375 -39.765625 C 20.015625 -39.765625 22.3125 -39.453125 24.25 -38.828125 C 26.195312 -38.203125 27.800781 -37.332031 29.0625 -36.21875 C 30.332031 -35.101562 31.273438 -33.765625 31.890625 -32.203125 C 32.503906 -30.640625 32.8125 -28.9375 32.8125 -27.09375 C 32.8125 -25.164062 32.488281 -23.398438 31.84375 -21.796875 C 31.195312 -20.191406 30.234375 -18.8125 28.953125 -17.65625 C 27.671875 -16.5 26.0625 -15.597656 24.125 -14.953125 C 22.195312 -14.316406 19.941406 -14 17.359375 -14 L 11.828125 -14 L 11.828125 0 L 4.421875 0 L 4.421875 -39.765625 Z M 17.359375 -39.765625 "/></g></g></g><g fill="#ffffff" fill-opacity="1"><g transform="translate(328.818209, 128.717058)"><g><path d="M 18.265625 -12.046875 C 16.296875 -11.953125 14.640625 -11.78125 13.296875 -11.53125 C 11.960938 -11.289062 10.890625 -10.976562 10.078125 -10.59375 C 9.273438 -10.207031 8.703125 -9.753906 8.359375 -9.234375 C 8.015625 -8.722656 7.84375 -8.164062 7.84375 -7.5625 C 7.84375 -6.375 8.191406 -5.519531 8.890625 -5 C 9.597656 -4.488281 10.519531 -4.234375 11.65625 -4.234375 C 13.050781 -4.234375 14.253906 -4.484375 15.265625 -4.984375 C 16.285156 -5.492188 17.285156 -6.257812 18.265625 -7.28125 Z M 2.6875 -24.28125 C 5.9375 -27.25 9.84375 -28.734375 14.40625 -28.734375 C 16.0625 -28.734375 17.539062 -28.460938 18.84375 -27.921875 C 20.144531 -27.378906 21.242188 -26.628906 22.140625 -25.671875 C 23.035156 -24.710938 23.71875 -23.5625 24.1875 -22.21875 C 24.65625 -20.882812 24.890625 -19.414062 24.890625 -17.8125 L 24.890625 0 L 21.8125 0 C 21.164062 0 20.664062 -0.09375 20.3125 -0.28125 C 19.96875 -0.476562 19.695312 -0.867188 19.5 -1.453125 L 18.890625 -3.5 C 18.171875 -2.851562 17.472656 -2.285156 16.796875 -1.796875 C 16.117188 -1.316406 15.410156 -0.910156 14.671875 -0.578125 C 13.941406 -0.242188 13.160156 0.00390625 12.328125 0.171875 C 11.492188 0.347656 10.570312 0.4375 9.5625 0.4375 C 8.375 0.4375 7.273438 0.28125 6.265625 -0.03125 C 5.253906 -0.351562 4.382812 -0.835938 3.65625 -1.484375 C 2.925781 -2.128906 2.359375 -2.925781 1.953125 -3.875 C 1.546875 -4.832031 1.34375 -5.941406 1.34375 -7.203125 C 1.34375 -7.921875 1.460938 -8.628906 1.703125 -9.328125 C 1.941406 -10.035156 2.332031 -10.707031 2.875 -11.34375 C 3.414062 -11.988281 4.113281 -12.597656 4.96875 -13.171875 C 5.832031 -13.742188 6.890625 -14.238281 8.140625 -14.65625 C 9.398438 -15.082031 10.863281 -15.425781 12.53125 -15.6875 C 14.207031 -15.957031 16.117188 -16.117188 18.265625 -16.171875 L 18.265625 -17.8125 C 18.265625 -19.707031 17.859375 -21.109375 17.046875 -22.015625 C 16.242188 -22.921875 15.082031 -23.375 13.5625 -23.375 C 12.457031 -23.375 11.539062 -23.242188 10.8125 -22.984375 C 10.09375 -22.734375 9.457031 -22.445312 8.90625 -22.125 C 8.351562 -21.800781 7.851562 -21.507812 7.40625 -21.25 C 6.957031 -21 6.457031 -20.875 5.90625 -20.875 C 5.4375 -20.875 5.035156 -20.992188 4.703125 -21.234375 C 4.367188 -21.484375 4.101562 -21.773438 3.90625 -22.109375 Z M 2.6875 -24.28125 "/></g></g></g><g fill="#ffffff" fill-opacity="1"><g transform="translate(356.728688, 128.717058)"><g><path d="M 28.984375 -28.21875 L 13.609375 7.75 C 13.410156 8.226562 13.148438 8.59375 12.828125 8.84375 C 12.503906 9.09375 12.015625 9.21875 11.359375 9.21875 L 6.296875 9.21875 L 11.578125 -2.125 L 0.171875 -28.21875 L 6.125 -28.21875 C 6.664062 -28.21875 7.085938 -28.085938 7.390625 -27.828125 C 7.691406 -27.566406 7.914062 -27.273438 8.0625 -26.953125 L 14.046875 -12.3125 C 14.253906 -11.820312 14.425781 -11.328125 14.5625 -10.828125 C 14.695312 -10.335938 14.828125 -9.835938 14.953125 -9.328125 C 15.117188 -9.835938 15.285156 -10.34375 15.453125 -10.84375 C 15.617188 -11.351562 15.800781 -11.851562 16 -12.34375 L 21.671875 -26.953125 C 21.816406 -27.316406 22.054688 -27.617188 22.390625 -27.859375 C 22.734375 -28.097656 23.117188 -28.21875 23.546875 -28.21875 Z M 28.984375 -28.21875 "/></g></g></g><g fill="#ffffff" fill-opacity="1"><g transform="translate(385.739081, 128.717058)"><g><path d="M 3.359375 0 L 3.359375 -28.21875 L 7.5 -28.21875 C 8.382812 -28.21875 8.960938 -27.804688 9.234375 -26.984375 L 9.6875 -24.890625 C 10.175781 -25.441406 10.691406 -25.945312 11.234375 -26.40625 C 11.773438 -26.863281 12.351562 -27.253906 12.96875 -27.578125 C 13.582031 -27.910156 14.238281 -28.171875 14.9375 -28.359375 C 15.644531 -28.554688 16.421875 -28.65625 17.265625 -28.65625 C 19.046875 -28.65625 20.507812 -28.171875 21.65625 -27.203125 C 22.800781 -26.242188 23.660156 -24.96875 24.234375 -23.375 C 24.671875 -24.3125 25.21875 -25.113281 25.875 -25.78125 C 26.539062 -26.445312 27.265625 -26.988281 28.046875 -27.40625 C 28.835938 -27.832031 29.675781 -28.144531 30.5625 -28.34375 C 31.457031 -28.550781 32.351562 -28.65625 33.25 -28.65625 C 34.800781 -28.65625 36.179688 -28.414062 37.390625 -27.9375 C 38.609375 -27.457031 39.628906 -26.757812 40.453125 -25.84375 C 41.273438 -24.925781 41.898438 -23.804688 42.328125 -22.484375 C 42.765625 -21.171875 42.984375 -19.660156 42.984375 -17.953125 L 42.984375 0 L 36.1875 0 L 36.1875 -17.953125 C 36.1875 -19.753906 35.789062 -21.109375 35 -22.015625 C 34.21875 -22.921875 33.066406 -23.375 31.546875 -23.375 C 30.847656 -23.375 30.195312 -23.253906 29.59375 -23.015625 C 29 -22.773438 28.476562 -22.429688 28.03125 -21.984375 C 27.582031 -21.535156 27.226562 -20.972656 26.96875 -20.296875 C 26.71875 -19.617188 26.59375 -18.835938 26.59375 -17.953125 L 26.59375 0 L 19.765625 0 L 19.765625 -17.953125 C 19.765625 -19.847656 19.382812 -21.222656 18.625 -22.078125 C 17.863281 -22.941406 16.753906 -23.375 15.296875 -23.375 C 14.304688 -23.375 13.382812 -23.128906 12.53125 -22.640625 C 11.675781 -22.160156 10.878906 -21.5 10.140625 -20.65625 L 10.140625 0 Z M 3.359375 0 "/></g></g></g><g fill="#ffffff" fill-opacity="1"><g transform="translate(431.79824, 128.717058)"><g><path d="M 21.53125 -17.359375 C 21.53125 -18.234375 21.40625 -19.0625 21.15625 -19.84375 C 20.914062 -20.625 20.546875 -21.304688 20.046875 -21.890625 C 19.554688 -22.472656 18.925781 -22.929688 18.15625 -23.265625 C 17.394531 -23.609375 16.515625 -23.78125 15.515625 -23.78125 C 13.546875 -23.78125 12 -23.222656 10.875 -22.109375 C 9.75 -20.992188 9.03125 -19.410156 8.71875 -17.359375 Z M 8.578125 -13.25 C 8.691406 -11.800781 8.945312 -10.550781 9.34375 -9.5 C 9.75 -8.445312 10.28125 -7.578125 10.9375 -6.890625 C 11.601562 -6.203125 12.390625 -5.6875 13.296875 -5.34375 C 14.203125 -5.007812 15.207031 -4.84375 16.3125 -4.84375 C 17.40625 -4.84375 18.347656 -4.96875 19.140625 -5.21875 C 19.941406 -5.476562 20.640625 -5.765625 21.234375 -6.078125 C 21.835938 -6.390625 22.363281 -6.671875 22.8125 -6.921875 C 23.257812 -7.179688 23.695312 -7.3125 24.125 -7.3125 C 24.6875 -7.3125 25.101562 -7.101562 25.375 -6.6875 L 27.328125 -4.203125 C 26.578125 -3.328125 25.734375 -2.585938 24.796875 -1.984375 C 23.867188 -1.390625 22.894531 -0.914062 21.875 -0.5625 C 20.851562 -0.207031 19.816406 0.0390625 18.765625 0.1875 C 17.710938 0.332031 16.691406 0.40625 15.703125 0.40625 C 13.742188 0.40625 11.921875 0.0820312 10.234375 -0.5625 C 8.546875 -1.21875 7.078125 -2.179688 5.828125 -3.453125 C 4.578125 -4.722656 3.59375 -6.296875 2.875 -8.171875 C 2.164062 -10.054688 1.8125 -12.238281 1.8125 -14.71875 C 1.8125 -16.632812 2.125 -18.441406 2.75 -20.140625 C 3.375 -21.835938 4.265625 -23.3125 5.421875 -24.5625 C 6.585938 -25.820312 8.007812 -26.816406 9.6875 -27.546875 C 11.363281 -28.285156 13.257812 -28.65625 15.375 -28.65625 C 17.15625 -28.65625 18.796875 -28.367188 20.296875 -27.796875 C 21.796875 -27.234375 23.085938 -26.40625 24.171875 -25.3125 C 25.253906 -24.21875 26.101562 -22.878906 26.71875 -21.296875 C 27.332031 -19.710938 27.640625 -17.90625 27.640625 -15.875 C 27.640625 -14.84375 27.53125 -14.144531 27.3125 -13.78125 C 27.09375 -13.425781 26.671875 -13.25 26.046875 -13.25 Z M 8.578125 -13.25 "/></g></g></g><g fill="#ffffff" fill-opacity="1"><g transform="translate(461.166124, 128.717058)"><g><path d="M 9.703125 -24.75 C 10.273438 -25.320312 10.875 -25.847656 11.5 -26.328125 C 12.132812 -26.816406 12.804688 -27.226562 13.515625 -27.5625 C 14.222656 -27.90625 14.976562 -28.171875 15.78125 -28.359375 C 16.59375 -28.554688 17.472656 -28.65625 18.421875 -28.65625 C 19.960938 -28.65625 21.328125 -28.394531 22.515625 -27.875 C 23.710938 -27.351562 24.707031 -26.617188 25.5 -25.671875 C 26.300781 -24.722656 26.90625 -23.59375 27.3125 -22.28125 C 27.726562 -20.976562 27.9375 -19.535156 27.9375 -17.953125 L 27.9375 0 L 21.140625 0 L 21.140625 -17.953125 C 21.140625 -19.679688 20.742188 -21.015625 19.953125 -21.953125 C 19.171875 -22.898438 17.972656 -23.375 16.359375 -23.375 C 15.191406 -23.375 14.09375 -23.109375 13.0625 -22.578125 C 12.03125 -22.046875 11.054688 -21.320312 10.140625 -20.40625 L 10.140625 0 L 3.359375 0 L 3.359375 -28.21875 L 7.5 -28.21875 C 8.382812 -28.21875 8.960938 -27.804688 9.234375 -26.984375 Z M 9.703125 -24.75 "/></g></g></g><g fill="#ffffff" fill-opacity="1"><g transform="translate(492.183868, 128.717058)"><g><path d="M 12.765625 0.4375 C 10.304688 0.4375 8.421875 -0.253906 7.109375 -1.640625 C 5.796875 -3.023438 5.140625 -4.9375 5.140625 -7.375 L 5.140625 -23.125 L 2.25 -23.125 C 1.882812 -23.125 1.570312 -23.242188 1.3125 -23.484375 C 1.0625 -23.722656 0.9375 -24.082031 0.9375 -24.5625 L 0.9375 -27.25 L 5.46875 -28 L 6.90625 -35.6875 C 7 -36.0625 7.171875 -36.347656 7.421875 -36.546875 C 7.679688 -36.742188 8.015625 -36.84375 8.421875 -36.84375 L 11.9375 -36.84375 L 11.9375 -27.96875 L 19.46875 -27.96875 L 19.46875 -23.125 L 11.9375 -23.125 L 11.9375 -7.84375 C 11.9375 -6.957031 12.148438 -6.265625 12.578125 -5.765625 C 13.015625 -5.273438 13.609375 -5.03125 14.359375 -5.03125 C 14.773438 -5.03125 15.125 -5.078125 15.40625 -5.171875 C 15.695312 -5.273438 15.945312 -5.382812 16.15625 -5.5 C 16.363281 -5.613281 16.550781 -5.71875 16.71875 -5.8125 C 16.882812 -5.914062 17.050781 -5.96875 17.21875 -5.96875 C 17.414062 -5.96875 17.578125 -5.914062 17.703125 -5.8125 C 17.835938 -5.71875 17.976562 -5.566406 18.125 -5.359375 L 20.15625 -2.0625 C 19.164062 -1.238281 18.03125 -0.613281 16.75 -0.1875 C 15.46875 0.226562 14.140625 0.4375 12.765625 0.4375 Z M 12.765625 0.4375 "/></g></g></g><g fill="#ffffff" fill-opacity="1"><g transform="translate(512.642378, 128.717058)"><g/></g></g><g fill="#ffffff" fill-opacity="1"><g transform="translate(526.006422, 128.717058)"><g><path d="M 31.734375 -9.375 C 32.140625 -9.375 32.5 -9.21875 32.8125 -8.90625 L 35.71875 -5.75 C 34.101562 -3.75 32.117188 -2.21875 29.765625 -1.15625 C 27.410156 -0.09375 24.582031 0.4375 21.28125 0.4375 C 18.332031 0.4375 15.679688 -0.0625 13.328125 -1.0625 C 10.972656 -2.070312 8.957031 -3.472656 7.28125 -5.265625 C 5.613281 -7.066406 4.335938 -9.210938 3.453125 -11.703125 C 2.566406 -14.203125 2.125 -16.925781 2.125 -19.875 C 2.125 -22.863281 2.597656 -25.597656 3.546875 -28.078125 C 4.503906 -30.566406 5.847656 -32.707031 7.578125 -34.5 C 9.304688 -36.300781 11.367188 -37.703125 13.765625 -38.703125 C 16.171875 -39.703125 18.832031 -40.203125 21.75 -40.203125 C 24.644531 -40.203125 27.210938 -39.722656 29.453125 -38.765625 C 31.703125 -37.816406 33.617188 -36.570312 35.203125 -35.03125 L 32.71875 -31.59375 C 32.570312 -31.375 32.382812 -31.179688 32.15625 -31.015625 C 31.925781 -30.847656 31.613281 -30.765625 31.21875 -30.765625 C 30.9375 -30.765625 30.648438 -30.84375 30.359375 -31 C 30.066406 -31.15625 29.742188 -31.347656 29.390625 -31.578125 C 29.046875 -31.804688 28.644531 -32.054688 28.1875 -32.328125 C 27.726562 -32.609375 27.195312 -32.863281 26.59375 -33.09375 C 25.988281 -33.320312 25.285156 -33.515625 24.484375 -33.671875 C 23.691406 -33.828125 22.769531 -33.90625 21.71875 -33.90625 C 19.945312 -33.90625 18.320312 -33.585938 16.84375 -32.953125 C 15.363281 -32.328125 14.09375 -31.410156 13.03125 -30.203125 C 11.96875 -29.003906 11.144531 -27.535156 10.5625 -25.796875 C 9.976562 -24.066406 9.6875 -22.09375 9.6875 -19.875 C 9.6875 -17.644531 10 -15.65625 10.625 -13.90625 C 11.257812 -12.164062 12.117188 -10.703125 13.203125 -9.515625 C 14.285156 -8.328125 15.554688 -7.414062 17.015625 -6.78125 C 18.484375 -6.144531 20.0625 -5.828125 21.75 -5.828125 C 22.757812 -5.828125 23.671875 -5.878906 24.484375 -5.984375 C 25.304688 -6.097656 26.0625 -6.273438 26.75 -6.515625 C 27.4375 -6.753906 28.085938 -7.0625 28.703125 -7.4375 C 29.316406 -7.8125 29.925781 -8.273438 30.53125 -8.828125 C 30.707031 -8.992188 30.894531 -9.125 31.09375 -9.21875 C 31.300781 -9.320312 31.515625 -9.375 31.734375 -9.375 Z M 31.734375 -9.375 "/></g></g></g><g fill="#ffffff" fill-opacity="1"><g transform="translate(562.386272, 128.717058)"><g><path d="M 15.84375 -28.65625 C 17.925781 -28.65625 19.828125 -28.316406 21.546875 -27.640625 C 23.265625 -26.960938 24.734375 -26 25.953125 -24.75 C 27.171875 -23.5 28.109375 -21.972656 28.765625 -20.171875 C 29.421875 -18.378906 29.75 -16.375 29.75 -14.15625 C 29.75 -11.925781 29.421875 -9.910156 28.765625 -8.109375 C 28.109375 -6.316406 27.171875 -4.785156 25.953125 -3.515625 C 24.734375 -2.253906 23.265625 -1.285156 21.546875 -0.609375 C 19.828125 0.0664062 17.925781 0.40625 15.84375 0.40625 C 13.726562 0.40625 11.804688 0.0664062 10.078125 -0.609375 C 8.359375 -1.285156 6.890625 -2.253906 5.671875 -3.515625 C 4.453125 -4.785156 3.507812 -6.316406 2.84375 -8.109375 C 2.175781 -9.910156 1.84375 -11.925781 1.84375 -14.15625 C 1.84375 -16.375 2.175781 -18.378906 2.84375 -20.171875 C 3.507812 -21.972656 4.453125 -23.5 5.671875 -24.75 C 6.890625 -26 8.359375 -26.960938 10.078125 -27.640625 C 11.804688 -28.316406 13.726562 -28.65625 15.84375 -28.65625 Z M 15.84375 -4.8125 C 18.1875 -4.8125 19.921875 -5.597656 21.046875 -7.171875 C 22.179688 -8.753906 22.75 -11.066406 22.75 -14.109375 C 22.75 -17.148438 22.179688 -19.46875 21.046875 -21.0625 C 19.921875 -22.65625 18.1875 -23.453125 15.84375 -23.453125 C 13.457031 -23.453125 11.691406 -22.648438 10.546875 -21.046875 C 9.398438 -19.441406 8.828125 -17.128906 8.828125 -14.109375 C 8.828125 -11.078125 9.398438 -8.769531 10.546875 -7.1875 C 11.691406 -5.601562 13.457031 -4.8125 15.84375 -4.8125 Z M 15.84375 -4.8125 "/></g></g></g><g fill="#ffffff" fill-opacity="1"><g transform="translate(593.981485, 128.717058)"><g><path d="M 21.0625 -21.015625 C 20.289062 -21.941406 19.453125 -22.597656 18.546875 -22.984375 C 17.640625 -23.367188 16.664062 -23.5625 15.625 -23.5625 C 14.59375 -23.5625 13.664062 -23.367188 12.84375 -22.984375 C 12.019531 -22.597656 11.3125 -22.015625 10.71875 -21.234375 C 10.132812 -20.460938 9.6875 -19.472656 9.375 -18.265625 C 9.0625 -17.066406 8.90625 -15.65625 8.90625 -14.03125 C 8.90625 -12.375 9.035156 -10.972656 9.296875 -9.828125 C 9.566406 -8.679688 9.945312 -7.742188 10.4375 -7.015625 C 10.9375 -6.296875 11.546875 -5.773438 12.265625 -5.453125 C 12.984375 -5.140625 13.78125 -4.984375 14.65625 -4.984375 C 16.070312 -4.984375 17.273438 -5.273438 18.265625 -5.859375 C 19.253906 -6.441406 20.1875 -7.273438 21.0625 -8.359375 Z M 27.859375 -40.859375 L 27.859375 0 L 23.703125 0 C 22.804688 0 22.238281 -0.410156 22 -1.234375 L 21.421875 -3.953125 C 20.285156 -2.648438 18.976562 -1.597656 17.5 -0.796875 C 16.03125 0.00390625 14.3125 0.40625 12.34375 0.40625 C 10.800781 0.40625 9.390625 0.0859375 8.109375 -0.546875 C 6.828125 -1.191406 5.722656 -2.125 4.796875 -3.34375 C 3.867188 -4.5625 3.148438 -6.066406 2.640625 -7.859375 C 2.140625 -9.660156 1.890625 -11.71875 1.890625 -14.03125 C 1.890625 -16.113281 2.175781 -18.050781 2.75 -19.84375 C 3.320312 -21.644531 4.140625 -23.207031 5.203125 -24.53125 C 6.265625 -25.851562 7.535156 -26.882812 9.015625 -27.625 C 10.503906 -28.363281 12.175781 -28.734375 14.03125 -28.734375 C 15.601562 -28.734375 16.945312 -28.484375 18.0625 -27.984375 C 19.1875 -27.492188 20.1875 -26.828125 21.0625 -25.984375 L 21.0625 -40.859375 Z M 27.859375 -40.859375 "/></g></g></g><g fill="#ffffff" fill-opacity="1"><g transform="translate(625.191718, 128.717058)"><g><path d="M 21.53125 -17.359375 C 21.53125 -18.234375 21.40625 -19.0625 21.15625 -19.84375 C 20.914062 -20.625 20.546875 -21.304688 20.046875 -21.890625 C 19.554688 -22.472656 18.925781 -22.929688 18.15625 -23.265625 C 17.394531 -23.609375 16.515625 -23.78125 15.515625 -23.78125 C 13.546875 -23.78125 12 -23.222656 10.875 -22.109375 C 9.75 -20.992188 9.03125 -19.410156 8.71875 -17.359375 Z M 8.578125 -13.25 C 8.691406 -11.800781 8.945312 -10.550781 9.34375 -9.5 C 9.75 -8.445312 10.28125 -7.578125 10.9375 -6.890625 C 11.601562 -6.203125 12.390625 -5.6875 13.296875 -5.34375 C 14.203125 -5.007812 15.207031 -4.84375 16.3125 -4.84375 C 17.40625 -4.84375 18.347656 -4.96875 19.140625 -5.21875 C 19.941406 -5.476562 20.640625 -5.765625 21.234375 -6.078125 C 21.835938 -6.390625 22.363281 -6.671875 22.8125 -6.921875 C 23.257812 -7.179688 23.695312 -7.3125 24.125 -7.3125 C 24.6875 -7.3125 25.101562 -7.101562 25.375 -6.6875 L 27.328125 -4.203125 C 26.578125 -3.328125 25.734375 -2.585938 24.796875 -1.984375 C 23.867188 -1.390625 22.894531 -0.914062 21.875 -0.5625 C 20.851562 -0.207031 19.816406 0.0390625 18.765625 0.1875 C 17.710938 0.332031 16.691406 0.40625 15.703125 0.40625 C 13.742188 0.40625 11.921875 0.0820312 10.234375 -0.5625 C 8.546875 -1.21875 7.078125 -2.179688 5.828125 -3.453125 C 4.578125 -4.722656 3.59375 -6.296875 2.875 -8.171875 C 2.164062 -10.054688 1.8125 -12.238281 1.8125 -14.71875 C 1.8125 -16.632812 2.125 -18.441406 2.75 -20.140625 C 3.375 -21.835938 4.265625 -23.3125 5.421875 -24.5625 C 6.585938 -25.820312 8.007812 -26.816406 9.6875 -27.546875 C 11.363281 -28.285156 13.257812 -28.65625 15.375 -28.65625 C 17.15625 -28.65625 18.796875 -28.367188 20.296875 -27.796875 C 21.796875 -27.234375 23.085938 -26.40625 24.171875 -25.3125 C 25.253906 -24.21875 26.101562 -22.878906 26.71875 -21.296875 C 27.332031 -19.710938 27.640625 -17.90625 27.640625 -15.875 C 27.640625 -14.84375 27.53125 -14.144531 27.3125 -13.78125 C 27.09375 -13.425781 26.671875 -13.25 26.046875 -13.25 Z M 8.578125 -13.25 "/></g></g></g><g fill="#ffffff" fill-opacity="1"><g transform="translate(654.559591, 128.717058)"><g/></g></g><g fill="#ffffff" fill-opacity="1"><g transform="translate(667.923634, 128.717058)"><g><path d="M 25.609375 -32.53125 C 25.378906 -32.144531 25.140625 -31.863281 24.890625 -31.6875 C 24.648438 -31.519531 24.347656 -31.4375 23.984375 -31.4375 C 23.597656 -31.4375 23.179688 -31.578125 22.734375 -31.859375 C 22.285156 -32.140625 21.75 -32.453125 21.125 -32.796875 C 20.5 -33.148438 19.769531 -33.46875 18.9375 -33.75 C 18.101562 -34.039062 17.117188 -34.1875 15.984375 -34.1875 C 14.953125 -34.1875 14.050781 -34.0625 13.28125 -33.8125 C 12.507812 -33.5625 11.863281 -33.21875 11.34375 -32.78125 C 10.820312 -32.34375 10.429688 -31.816406 10.171875 -31.203125 C 9.921875 -30.585938 9.796875 -29.910156 9.796875 -29.171875 C 9.796875 -28.242188 10.054688 -27.46875 10.578125 -26.84375 C 11.097656 -26.21875 11.785156 -25.679688 12.640625 -25.234375 C 13.503906 -24.796875 14.488281 -24.40625 15.59375 -24.0625 C 16.695312 -23.71875 17.820312 -23.347656 18.96875 -22.953125 C 20.125 -22.554688 21.25 -22.097656 22.34375 -21.578125 C 23.445312 -21.054688 24.429688 -20.394531 25.296875 -19.59375 C 26.160156 -18.789062 26.851562 -17.8125 27.375 -16.65625 C 27.894531 -15.507812 28.15625 -14.109375 28.15625 -12.453125 C 28.15625 -10.660156 27.847656 -8.976562 27.234375 -7.40625 C 26.617188 -5.84375 25.71875 -4.476562 24.53125 -3.3125 C 23.351562 -2.144531 21.910156 -1.226562 20.203125 -0.5625 C 18.503906 0.101562 16.554688 0.4375 14.359375 0.4375 C 13.085938 0.4375 11.835938 0.3125 10.609375 0.0625 C 9.378906 -0.175781 8.203125 -0.523438 7.078125 -0.984375 C 5.953125 -1.441406 4.894531 -1.992188 3.90625 -2.640625 C 2.914062 -3.285156 2.035156 -4 1.265625 -4.78125 L 3.4375 -8.328125 C 3.625 -8.585938 3.863281 -8.800781 4.15625 -8.96875 C 4.445312 -9.144531 4.757812 -9.234375 5.09375 -9.234375 C 5.550781 -9.234375 6.046875 -9.046875 6.578125 -8.671875 C 7.109375 -8.296875 7.738281 -7.878906 8.46875 -7.421875 C 9.195312 -6.960938 10.050781 -6.546875 11.03125 -6.171875 C 12.019531 -5.796875 13.203125 -5.609375 14.578125 -5.609375 C 16.679688 -5.609375 18.3125 -6.109375 19.46875 -7.109375 C 20.625 -8.109375 21.203125 -9.539062 21.203125 -11.40625 C 21.203125 -12.457031 20.941406 -13.3125 20.421875 -13.96875 C 19.898438 -14.625 19.207031 -15.175781 18.34375 -15.625 C 17.476562 -16.082031 16.492188 -16.46875 15.390625 -16.78125 C 14.296875 -17.09375 13.179688 -17.429688 12.046875 -17.796875 C 10.910156 -18.160156 9.789062 -18.597656 8.6875 -19.109375 C 7.59375 -19.617188 6.613281 -20.285156 5.75 -21.109375 C 4.882812 -21.941406 4.191406 -22.972656 3.671875 -24.203125 C 3.148438 -25.441406 2.890625 -26.972656 2.890625 -28.796875 C 2.890625 -30.242188 3.175781 -31.65625 3.75 -33.03125 C 4.332031 -34.40625 5.171875 -35.625 6.265625 -36.6875 C 7.367188 -37.75 8.726562 -38.597656 10.34375 -39.234375 C 11.957031 -39.878906 13.804688 -40.203125 15.890625 -40.203125 C 18.242188 -40.203125 20.410156 -39.832031 22.390625 -39.09375 C 24.367188 -38.363281 26.050781 -37.34375 27.4375 -36.03125 Z M 25.609375 -32.53125 "/></g></g></g><g fill="#ffffff" fill-opacity="1"><g transform="translate(698.088931, 128.717058)"><g><path d="M 10.390625 -28.21875 L 10.390625 0 L 3.578125 0 L 3.578125 -28.21875 Z M 11.328125 -36.4375 C 11.328125 -35.851562 11.207031 -35.300781 10.96875 -34.78125 C 10.726562 -34.269531 10.410156 -33.820312 10.015625 -33.4375 C 9.628906 -33.050781 9.171875 -32.742188 8.640625 -32.515625 C 8.109375 -32.285156 7.539062 -32.171875 6.9375 -32.171875 C 6.34375 -32.171875 5.785156 -32.285156 5.265625 -32.515625 C 4.742188 -32.742188 4.289062 -33.050781 3.90625 -33.4375 C 3.519531 -33.820312 3.210938 -34.269531 2.984375 -34.78125 C 2.753906 -35.300781 2.640625 -35.851562 2.640625 -36.4375 C 2.640625 -37.039062 2.753906 -37.609375 2.984375 -38.140625 C 3.210938 -38.671875 3.519531 -39.128906 3.90625 -39.515625 C 4.289062 -39.898438 4.742188 -40.207031 5.265625 -40.4375 C 5.785156 -40.664062 6.34375 -40.78125 6.9375 -40.78125 C 7.539062 -40.78125 8.109375 -40.664062 8.640625 -40.4375 C 9.171875 -40.207031 9.628906 -39.898438 10.015625 -39.515625 C 10.410156 -39.128906 10.726562 -38.671875 10.96875 -38.140625 C 11.207031 -37.609375 11.328125 -37.039062 11.328125 -36.4375 Z M 11.328125 -36.4375 "/></g></g></g><g fill="#ffffff" fill-opacity="1"><g transform="translate(712.057909, 128.717058)"><g><path d="M 13.671875 -14.796875 C 14.515625 -14.796875 15.242188 -14.910156 15.859375 -15.140625 C 16.484375 -15.367188 17.003906 -15.679688 17.421875 -16.078125 C 17.835938 -16.484375 18.148438 -16.96875 18.359375 -17.53125 C 18.566406 -18.101562 18.671875 -18.734375 18.671875 -19.421875 C 18.671875 -20.804688 18.253906 -21.90625 17.421875 -22.71875 C 16.585938 -23.539062 15.335938 -23.953125 13.671875 -23.953125 C 12.003906 -23.953125 10.75 -23.539062 9.90625 -22.71875 C 9.070312 -21.90625 8.65625 -20.804688 8.65625 -19.421875 C 8.65625 -18.753906 8.757812 -18.132812 8.96875 -17.5625 C 9.1875 -17 9.5 -16.507812 9.90625 -16.09375 C 10.320312 -15.6875 10.847656 -15.367188 11.484375 -15.140625 C 12.117188 -14.910156 12.847656 -14.796875 13.671875 -14.796875 Z M 21.34375 1.265625 C 21.34375 0.710938 21.175781 0.265625 20.84375 -0.078125 C 20.507812 -0.429688 20.054688 -0.703125 19.484375 -0.890625 C 18.921875 -1.085938 18.257812 -1.226562 17.5 -1.3125 C 16.738281 -1.40625 15.929688 -1.472656 15.078125 -1.515625 C 14.234375 -1.566406 13.351562 -1.609375 12.4375 -1.640625 C 11.53125 -1.679688 10.648438 -1.757812 9.796875 -1.875 C 9.035156 -1.445312 8.421875 -0.945312 7.953125 -0.375 C 7.492188 0.1875 7.265625 0.84375 7.265625 1.59375 C 7.265625 2.09375 7.382812 2.554688 7.625 2.984375 C 7.875 3.410156 8.269531 3.78125 8.8125 4.09375 C 9.351562 4.40625 10.050781 4.648438 10.90625 4.828125 C 11.769531 5.003906 12.828125 5.09375 14.078125 5.09375 C 15.347656 5.09375 16.441406 4.992188 17.359375 4.796875 C 18.273438 4.609375 19.03125 4.34375 19.625 4 C 20.21875 3.664062 20.648438 3.265625 20.921875 2.796875 C 21.203125 2.328125 21.34375 1.816406 21.34375 1.265625 Z M 28.109375 -27.25 L 28.109375 -24.71875 C 28.109375 -23.914062 27.617188 -23.421875 26.640625 -23.234375 L 24.125 -22.765625 C 24.5 -21.796875 24.6875 -20.734375 24.6875 -19.578125 C 24.6875 -18.179688 24.40625 -16.921875 23.84375 -15.796875 C 23.289062 -14.671875 22.519531 -13.710938 21.53125 -12.921875 C 20.539062 -12.140625 19.367188 -11.53125 18.015625 -11.09375 C 16.671875 -10.664062 15.222656 -10.453125 13.671875 -10.453125 C 13.117188 -10.453125 12.582031 -10.476562 12.0625 -10.53125 C 11.550781 -10.582031 11.050781 -10.65625 10.5625 -10.75 C 9.675781 -10.21875 9.234375 -9.625 9.234375 -8.96875 C 9.234375 -8.394531 9.492188 -7.972656 10.015625 -7.703125 C 10.546875 -7.441406 11.238281 -7.253906 12.09375 -7.140625 C 12.957031 -7.035156 13.9375 -6.96875 15.03125 -6.9375 C 16.132812 -6.914062 17.265625 -6.859375 18.421875 -6.765625 C 19.578125 -6.671875 20.703125 -6.507812 21.796875 -6.28125 C 22.898438 -6.050781 23.882812 -5.6875 24.75 -5.1875 C 25.613281 -4.695312 26.304688 -4.023438 26.828125 -3.171875 C 27.347656 -2.316406 27.609375 -1.222656 27.609375 0.109375 C 27.609375 1.359375 27.300781 2.566406 26.6875 3.734375 C 26.070312 4.910156 25.179688 5.957031 24.015625 6.875 C 22.859375 7.789062 21.429688 8.523438 19.734375 9.078125 C 18.035156 9.640625 16.101562 9.921875 13.9375 9.921875 C 11.8125 9.921875 9.957031 9.710938 8.375 9.296875 C 6.800781 8.890625 5.492188 8.34375 4.453125 7.65625 C 3.410156 6.96875 2.628906 6.175781 2.109375 5.28125 C 1.597656 4.382812 1.34375 3.445312 1.34375 2.46875 C 1.34375 1.15625 1.738281 0.0546875 2.53125 -0.828125 C 3.332031 -1.722656 4.429688 -2.4375 5.828125 -2.96875 C 5.078125 -3.351562 4.476562 -3.863281 4.03125 -4.5 C 3.59375 -5.144531 3.375 -5.992188 3.375 -7.046875 C 3.375 -7.460938 3.453125 -7.894531 3.609375 -8.34375 C 3.765625 -8.789062 3.992188 -9.234375 4.296875 -9.671875 C 4.597656 -10.117188 4.976562 -10.535156 5.4375 -10.921875 C 5.894531 -11.316406 6.4375 -11.671875 7.0625 -11.984375 C 5.632812 -12.753906 4.507812 -13.78125 3.6875 -15.0625 C 2.875 -16.351562 2.46875 -17.859375 2.46875 -19.578125 C 2.46875 -20.972656 2.75 -22.234375 3.3125 -23.359375 C 3.875 -24.484375 4.65625 -25.441406 5.65625 -26.234375 C 6.65625 -27.035156 7.835938 -27.644531 9.203125 -28.0625 C 10.566406 -28.488281 12.054688 -28.703125 13.671875 -28.703125 C 14.878906 -28.703125 16.015625 -28.578125 17.078125 -28.328125 C 18.140625 -28.085938 19.113281 -27.726562 20 -27.25 Z M 28.109375 -27.25 "/></g></g></g><g fill="#ffffff" fill-opacity="1"><g transform="translate(741.095825, 128.717058)"><g><path d="M 9.703125 -24.75 C 10.273438 -25.320312 10.875 -25.847656 11.5 -26.328125 C 12.132812 -26.816406 12.804688 -27.226562 13.515625 -27.5625 C 14.222656 -27.90625 14.976562 -28.171875 15.78125 -28.359375 C 16.59375 -28.554688 17.472656 -28.65625 18.421875 -28.65625 C 19.960938 -28.65625 21.328125 -28.394531 22.515625 -27.875 C 23.710938 -27.351562 24.707031 -26.617188 25.5 -25.671875 C 26.300781 -24.722656 26.90625 -23.59375 27.3125 -22.28125 C 27.726562 -20.976562 27.9375 -19.535156 27.9375 -17.953125 L 27.9375 0 L 21.140625 0 L 21.140625 -17.953125 C 21.140625 -19.679688 20.742188 -21.015625 19.953125 -21.953125 C 19.171875 -22.898438 17.972656 -23.375 16.359375 -23.375 C 15.191406 -23.375 14.09375 -23.109375 13.0625 -22.578125 C 12.03125 -22.046875 11.054688 -21.320312 10.140625 -20.40625 L 10.140625 0 L 3.359375 0 L 3.359375 -28.21875 L 7.5 -28.21875 C 8.382812 -28.21875 8.960938 -27.804688 9.234375 -26.984375 Z M 9.703125 -24.75 "/></g></g></g><g fill="#ffffff" fill-opacity="1"><g transform="translate(772.113569, 128.717058)"><g><path d="M 18.265625 -12.046875 C 16.296875 -11.953125 14.640625 -11.78125 13.296875 -11.53125 C 11.960938 -11.289062 10.890625 -10.976562 10.078125 -10.59375 C 9.273438 -10.207031 8.703125 -9.753906 8.359375 -9.234375 C 8.015625 -8.722656 7.84375 -8.164062 7.84375 -7.5625 C 7.84375 -6.375 8.191406 -5.519531 8.890625 -5 C 9.597656 -4.488281 10.519531 -4.234375 11.65625 -4.234375 C 13.050781 -4.234375 14.253906 -4.484375 15.265625 -4.984375 C 16.285156 -5.492188 17.285156 -6.257812 18.265625 -7.28125 Z M 2.6875 -24.28125 C 5.9375 -27.25 9.84375 -28.734375 14.40625 -28.734375 C 16.0625 -28.734375 17.539062 -28.460938 18.84375 -27.921875 C 20.144531 -27.378906 21.242188 -26.628906 22.140625 -25.671875 C 23.035156 -24.710938 23.71875 -23.5625 24.1875 -22.21875 C 24.65625 -20.882812 24.890625 -19.414062 24.890625 -17.8125 L 24.890625 0 L 21.8125 0 C 21.164062 0 20.664062 -0.09375 20.3125 -0.28125 C 19.96875 -0.476562 19.695312 -0.867188 19.5 -1.453125 L 18.890625 -3.5 C 18.171875 -2.851562 17.472656 -2.285156 16.796875 -1.796875 C 16.117188 -1.316406 15.410156 -0.910156 14.671875 -0.578125 C 13.941406 -0.242188 13.160156 0.00390625 12.328125 0.171875 C 11.492188 0.347656 10.570312 0.4375 9.5625 0.4375 C 8.375 0.4375 7.273438 0.28125 6.265625 -0.03125 C 5.253906 -0.351562 4.382812 -0.835938 3.65625 -1.484375 C 2.925781 -2.128906 2.359375 -2.925781 1.953125 -3.875 C 1.546875 -4.832031 1.34375 -5.941406 1.34375 -7.203125 C 1.34375 -7.921875 1.460938 -8.628906 1.703125 -9.328125 C 1.941406 -10.035156 2.332031 -10.707031 2.875 -11.34375 C 3.414062 -11.988281 4.113281 -12.597656 4.96875 -13.171875 C 5.832031 -13.742188 6.890625 -14.238281 8.140625 -14.65625 C 9.398438 -15.082031 10.863281 -15.425781 12.53125 -15.6875 C 14.207031 -15.957031 16.117188 -16.117188 18.265625 -16.171875 L 18.265625 -17.8125 C 18.265625 -19.707031 17.859375 -21.109375 17.046875 -22.015625 C 16.242188 -22.921875 15.082031 -23.375 13.5625 -23.375 C 12.457031 -23.375 11.539062 -23.242188 10.8125 -22.984375 C 10.09375 -22.734375 9.457031 -22.445312 8.90625 -22.125 C 8.351562 -21.800781 7.851562 -21.507812 7.40625 -21.25 C 6.957031 -21 6.457031 -20.875 5.90625 -20.875 C 5.4375 -20.875 5.035156 -20.992188 4.703125 -21.234375 C 4.367188 -21.484375 4.101562 -21.773438 3.90625 -22.109375 Z M 2.6875 -24.28125 "/></g></g></g><g fill="#ffffff" fill-opacity="1"><g transform="translate(800.024059, 128.717058)"><g><path d="M 12.765625 0.4375 C 10.304688 0.4375 8.421875 -0.253906 7.109375 -1.640625 C 5.796875 -3.023438 5.140625 -4.9375 5.140625 -7.375 L 5.140625 -23.125 L 2.25 -23.125 C 1.882812 -23.125 1.570312 -23.242188 1.3125 -23.484375 C 1.0625 -23.722656 0.9375 -24.082031 0.9375 -24.5625 L 0.9375 -27.25 L 5.46875 -28 L 6.90625 -35.6875 C 7 -36.0625 7.171875 -36.347656 7.421875 -36.546875 C 7.679688 -36.742188 8.015625 -36.84375 8.421875 -36.84375 L 11.9375 -36.84375 L 11.9375 -27.96875 L 19.46875 -27.96875 L 19.46875 -23.125 L 11.9375 -23.125 L 11.9375 -7.84375 C 11.9375 -6.957031 12.148438 -6.265625 12.578125 -5.765625 C 13.015625 -5.273438 13.609375 -5.03125 14.359375 -5.03125 C 14.773438 -5.03125 15.125 -5.078125 15.40625 -5.171875 C 15.695312 -5.273438 15.945312 -5.382812 16.15625 -5.5 C 16.363281 -5.613281 16.550781 -5.71875 16.71875 -5.8125 C 16.882812 -5.914062 17.050781 -5.96875 17.21875 -5.96875 C 17.414062 -5.96875 17.578125 -5.914062 17.703125 -5.8125 C 17.835938 -5.71875 17.976562 -5.566406 18.125 -5.359375 L 20.15625 -2.0625 C 19.164062 -1.238281 18.03125 -0.613281 16.75 -0.1875 C 15.46875 0.226562 14.140625 0.4375 12.765625 0.4375 Z M 12.765625 0.4375 "/></g></g></g><g fill="#ffffff" fill-opacity="1"><g transform="translate(820.482569, 128.717058)"><g><path d="M 15.84375 -28.65625 C 17.925781 -28.65625 19.828125 -28.316406 21.546875 -27.640625 C 23.265625 -26.960938 24.734375 -26 25.953125 -24.75 C 27.171875 -23.5 28.109375 -21.972656 28.765625 -20.171875 C 29.421875 -18.378906 29.75 -16.375 29.75 -14.15625 C 29.75 -11.925781 29.421875 -9.910156 28.765625 -8.109375 C 28.109375 -6.316406 27.171875 -4.785156 25.953125 -3.515625 C 24.734375 -2.253906 23.265625 -1.285156 21.546875 -0.609375 C 19.828125 0.0664062 17.925781 0.40625 15.84375 0.40625 C 13.726562 0.40625 11.804688 0.0664062 10.078125 -0.609375 C 8.359375 -1.285156 6.890625 -2.253906 5.671875 -3.515625 C 4.453125 -4.785156 3.507812 -6.316406 2.84375 -8.109375 C 2.175781 -9.910156 1.84375 -11.925781 1.84375 -14.15625 C 1.84375 -16.375 2.175781 -18.378906 2.84375 -20.171875 C 3.507812 -21.972656 4.453125 -23.5 5.671875 -24.75 C 6.890625 -26 8.359375 -26.960938 10.078125 -27.640625 C 11.804688 -28.316406 13.726562 -28.65625 15.84375 -28.65625 Z M 15.84375 -4.8125 C 18.1875 -4.8125 19.921875 -5.597656 21.046875 -7.171875 C 22.179688 -8.753906 22.75 -11.066406 22.75 -14.109375 C 22.75 -17.148438 22.179688 -19.46875 21.046875 -21.0625 C 19.921875 -22.65625 18.1875 -23.453125 15.84375 -23.453125 C 13.457031 -23.453125 11.691406 -22.648438 10.546875 -21.046875 C 9.398438 -19.441406 8.828125 -17.128906 8.828125 -14.109375 C 8.828125 -11.078125 9.398438 -8.769531 10.546875 -7.1875 C 11.691406 -5.601562 13.457031 -4.8125 15.84375 -4.8125 Z M 15.84375 -4.8125 "/></g></g></g><g fill="#ffffff" fill-opacity="1"><g transform="translate(852.077782, 128.717058)"><g><path d="M 9.765625 -23.3125 C 10.640625 -25 11.679688 -26.320312 12.890625 -27.28125 C 14.109375 -28.25 15.539062 -28.734375 17.1875 -28.734375 C 18.488281 -28.734375 19.535156 -28.453125 20.328125 -27.890625 L 19.875 -22.796875 C 19.789062 -22.460938 19.660156 -22.226562 19.484375 -22.09375 C 19.304688 -21.957031 19.070312 -21.890625 18.78125 -21.890625 C 18.507812 -21.890625 18.101562 -21.9375 17.5625 -22.03125 C 17.019531 -22.125 16.492188 -22.171875 15.984375 -22.171875 C 15.222656 -22.171875 14.550781 -22.054688 13.96875 -21.828125 C 13.382812 -21.609375 12.859375 -21.289062 12.390625 -20.875 C 11.921875 -20.46875 11.503906 -19.96875 11.140625 -19.375 C 10.785156 -18.789062 10.453125 -18.125 10.140625 -17.375 L 10.140625 0 L 3.359375 0 L 3.359375 -28.21875 L 7.34375 -28.21875 C 8.039062 -28.21875 8.523438 -28.09375 8.796875 -27.84375 C 9.078125 -27.59375 9.257812 -27.148438 9.34375 -26.515625 Z M 9.765625 -23.3125 "/></g></g></g><g fill="#ffffff" fill-opacity="1"><g transform="translate(872.591269, 128.717058)"><g><path d="M 10.390625 -28.21875 L 10.390625 0 L 3.578125 0 L 3.578125 -28.21875 Z M 11.328125 -36.4375 C 11.328125 -35.851562 11.207031 -35.300781 10.96875 -34.78125 C 10.726562 -34.269531 10.410156 -33.820312 10.015625 -33.4375 C 9.628906 -33.050781 9.171875 -32.742188 8.640625 -32.515625 C 8.109375 -32.285156 7.539062 -32.171875 6.9375 -32.171875 C 6.34375 -32.171875 5.785156 -32.285156 5.265625 -32.515625 C 4.742188 -32.742188 4.289062 -33.050781 3.90625 -33.4375 C 3.519531 -33.820312 3.210938 -34.269531 2.984375 -34.78125 C 2.753906 -35.300781 2.640625 -35.851562 2.640625 -36.4375 C 2.640625 -37.039062 2.753906 -37.609375 2.984375 -38.140625 C 3.210938 -38.671875 3.519531 -39.128906 3.90625 -39.515625 C 4.289062 -39.898438 4.742188 -40.207031 5.265625 -40.4375 C 5.785156 -40.664062 6.34375 -40.78125 6.9375 -40.78125 C 7.539062 -40.78125 8.109375 -40.664062 8.640625 -40.4375 C 9.171875 -40.207031 9.628906 -39.898438 10.015625 -39.515625 C 10.410156 -39.128906 10.726562 -38.671875 10.96875 -38.140625 C 11.207031 -37.609375 11.328125 -37.039062 11.328125 -36.4375 Z M 11.328125 -36.4375 "/></g></g></g><g fill="#ffffff" fill-opacity="1"><g transform="translate(886.560247, 128.717058)"><g><path d="M 21.53125 -17.359375 C 21.53125 -18.234375 21.40625 -19.0625 21.15625 -19.84375 C 20.914062 -20.625 20.546875 -21.304688 20.046875 -21.890625 C 19.554688 -22.472656 18.925781 -22.929688 18.15625 -23.265625 C 17.394531 -23.609375 16.515625 -23.78125 15.515625 -23.78125 C 13.546875 -23.78125 12 -23.222656 10.875 -22.109375 C 9.75 -20.992188 9.03125 -19.410156 8.71875 -17.359375 Z M 8.578125 -13.25 C 8.691406 -11.800781 8.945312 -10.550781 9.34375 -9.5 C 9.75 -8.445312 10.28125 -7.578125 10.9375 -6.890625 C 11.601562 -6.203125 12.390625 -5.6875 13.296875 -5.34375 C 14.203125 -5.007812 15.207031 -4.84375 16.3125 -4.84375 C 17.40625 -4.84375 18.347656 -4.96875 19.140625 -5.21875 C 19.941406 -5.476562 20.640625 -5.765625 21.234375 -6.078125 C 21.835938 -6.390625 22.363281 -6.671875 22.8125 -6.921875 C 23.257812 -7.179688 23.695312 -7.3125 24.125 -7.3125 C 24.6875 -7.3125 25.101562 -7.101562 25.375 -6.6875 L 27.328125 -4.203125 C 26.578125 -3.328125 25.734375 -2.585938 24.796875 -1.984375 C 23.867188 -1.390625 22.894531 -0.914062 21.875 -0.5625 C 20.851562 -0.207031 19.816406 0.0390625 18.765625 0.1875 C 17.710938 0.332031 16.691406 0.40625 15.703125 0.40625 C 13.742188 0.40625 11.921875 0.0820312 10.234375 -0.5625 C 8.546875 -1.21875 7.078125 -2.179688 5.828125 -3.453125 C 4.578125 -4.722656 3.59375 -6.296875 2.875 -8.171875 C 2.164062 -10.054688 1.8125 -12.238281 1.8125 -14.71875 C 1.8125 -16.632812 2.125 -18.441406 2.75 -20.140625 C 3.375 -21.835938 4.265625 -23.3125 5.421875 -24.5625 C 6.585938 -25.820312 8.007812 -26.816406 9.6875 -27.546875 C 11.363281 -28.285156 13.257812 -28.65625 15.375 -28.65625 C 17.15625 -28.65625 18.796875 -28.367188 20.296875 -27.796875 C 21.796875 -27.234375 23.085938 -26.40625 24.171875 -25.3125 C 25.253906 -24.21875 26.101562 -22.878906 26.71875 -21.296875 C 27.332031 -19.710938 27.640625 -17.90625 27.640625 -15.875 C 27.640625 -14.84375 27.53125 -14.144531 27.3125 -13.78125 C 27.09375 -13.425781 26.671875 -13.25 26.046875 -13.25 Z M 8.578125 -13.25 "/></g></g></g><g fill="#ffffff" fill-opacity="1"><g transform="translate(915.92812, 128.717058)"><g><path d="M 20.5625 -22.71875 C 20.382812 -22.425781 20.191406 -22.21875 19.984375 -22.09375 C 19.785156 -21.976562 19.53125 -21.921875 19.21875 -21.921875 C 18.894531 -21.921875 18.539062 -22.007812 18.15625 -22.1875 C 17.78125 -22.375 17.34375 -22.582031 16.84375 -22.8125 C 16.351562 -23.039062 15.789062 -23.242188 15.15625 -23.421875 C 14.53125 -23.609375 13.785156 -23.703125 12.921875 -23.703125 C 11.585938 -23.703125 10.539062 -23.414062 9.78125 -22.84375 C 9.019531 -22.28125 8.640625 -21.539062 8.640625 -20.625 C 8.640625 -20.019531 8.832031 -19.507812 9.21875 -19.09375 C 9.613281 -18.6875 10.132812 -18.328125 10.78125 -18.015625 C 11.4375 -17.703125 12.175781 -17.421875 13 -17.171875 C 13.832031 -16.921875 14.671875 -16.648438 15.515625 -16.359375 C 16.367188 -16.066406 17.207031 -15.734375 18.03125 -15.359375 C 18.863281 -14.984375 19.601562 -14.503906 20.25 -13.921875 C 20.90625 -13.347656 21.425781 -12.65625 21.8125 -11.84375 C 22.207031 -11.039062 22.40625 -10.070312 22.40625 -8.9375 C 22.40625 -7.582031 22.160156 -6.332031 21.671875 -5.1875 C 21.191406 -4.039062 20.472656 -3.050781 19.515625 -2.21875 C 18.566406 -1.382812 17.390625 -0.734375 15.984375 -0.265625 C 14.585938 0.203125 12.972656 0.4375 11.140625 0.4375 C 10.171875 0.4375 9.222656 0.347656 8.296875 0.171875 C 7.367188 0.00390625 6.476562 -0.234375 5.625 -0.546875 C 4.769531 -0.859375 3.976562 -1.222656 3.25 -1.640625 C 2.53125 -2.066406 1.894531 -2.53125 1.34375 -3.03125 L 2.921875 -5.609375 C 3.117188 -5.921875 3.351562 -6.160156 3.625 -6.328125 C 3.90625 -6.492188 4.253906 -6.578125 4.671875 -6.578125 C 5.097656 -6.578125 5.5 -6.457031 5.875 -6.21875 C 6.25 -5.976562 6.679688 -5.71875 7.171875 -5.4375 C 7.671875 -5.164062 8.253906 -4.910156 8.921875 -4.671875 C 9.585938 -4.429688 10.4375 -4.3125 11.46875 -4.3125 C 12.269531 -4.3125 12.957031 -4.40625 13.53125 -4.59375 C 14.113281 -4.789062 14.59375 -5.046875 14.96875 -5.359375 C 15.34375 -5.671875 15.617188 -6.03125 15.796875 -6.4375 C 15.972656 -6.851562 16.0625 -7.285156 16.0625 -7.734375 C 16.0625 -8.390625 15.863281 -8.925781 15.46875 -9.34375 C 15.070312 -9.769531 14.546875 -10.140625 13.890625 -10.453125 C 13.242188 -10.765625 12.503906 -11.039062 11.671875 -11.28125 C 10.835938 -11.53125 9.984375 -11.800781 9.109375 -12.09375 C 8.242188 -12.394531 7.394531 -12.738281 6.5625 -13.125 C 5.726562 -13.519531 4.984375 -14.019531 4.328125 -14.625 C 3.679688 -15.226562 3.160156 -15.96875 2.765625 -16.84375 C 2.367188 -17.726562 2.171875 -18.796875 2.171875 -20.046875 C 2.171875 -21.203125 2.398438 -22.300781 2.859375 -23.34375 C 3.316406 -24.394531 3.988281 -25.304688 4.875 -26.078125 C 5.769531 -26.859375 6.878906 -27.484375 8.203125 -27.953125 C 9.535156 -28.421875 11.070312 -28.65625 12.8125 -28.65625 C 14.757812 -28.65625 16.53125 -28.332031 18.125 -27.6875 C 19.71875 -27.050781 21.046875 -26.207031 22.109375 -25.15625 Z M 20.5625 -22.71875 "/></g></g></g></svg>